<svg width="48" height="48" viewBox="0 0 48 48" fill="none" xmlns="http://www.w3.org/2000/svg">
<g clip-path="url(#clip0_386_390)">
<path d="M0 0H48V48H0V0Z" fill="url(#paint0_linear_386_390)"/>
<path d="M24.0001 38.5716C32.0477 38.5716 38.5716 32.0477 38.5716 24.0001C38.5716 15.9526 32.0477 9.42871 24.0001 9.42871C15.9526 9.42871 9.42871 15.9526 9.42871 24.0001C9.42871 32.0477 15.9526 38.5716 24.0001 38.5716Z" fill="#FFDD02"/>
<path d="M25.5257 34.5431C17.6743 25.7916 19.5686 21.0859 15.7286 17.0659C15.42 18.9088 15.4286 18.5059 15.4286 20.8888C15.4286 23.0488 15.4971 22.8945 14.88 24.6773C14.1943 26.6573 13.2771 29.6059 13.9543 31.8516C14.2971 33.0002 15.1371 33.5402 16.2943 33.8659C17.4257 34.1831 18.24 34.7402 19.2771 35.1516C20.4 35.5973 21.0257 36.1116 22.74 35.9745C23.6828 35.9059 25.1914 35.1345 25.5257 34.5345V34.5431Z" fill="#3A2A0C"/>
<path d="M15.72 17.0656C15.9085 17.2542 15.84 17.1171 15.8314 17.8542C15.8314 18.8314 15.9857 19.5085 16.1314 20.4428C16.2342 21.0428 16.2857 21.2742 16.2857 21.4456C16.2857 21.7199 16.1314 21.8999 15.6 23.4085C15.1714 24.6599 14.58 26.4342 14.5714 28.0542C14.5628 29.6571 15.12 31.1228 16.74 31.7999C17.2885 32.0228 17.6228 32.1256 18.24 32.2114C19.2085 32.3571 19.2 32.1085 19.8685 32.5971C20.9314 33.3942 22.4057 34.2256 23.8371 34.4742C24.3685 34.5599 25.2085 34.4742 25.5257 34.5342C26.2628 34.1742 26.94 34.0028 27.4285 33.4285C25.5257 27.4285 18.9942 20.0571 16.5 16.2856H16.1828L15.72 17.0656Z" fill="#895729"/>
<path d="M27.4287 33.4283C22.4573 30.7455 21.1373 25.7826 19.1144 20.7769L19.2001 20.6826C18.6173 20.854 19.123 20.7683 18.6001 21.0769C17.383 21.814 18.283 21.7798 17.8801 22.6198C16.9973 24.4626 16.1916 26.0912 16.2859 28.2083C16.423 31.2855 23.4173 34.2426 26.0744 34.0112C26.5201 33.9769 27.103 33.6083 27.4287 33.4283Z" fill="#A86617"/>
<path d="M19.114 20.7774C19.4226 20.8631 19.2255 22.3202 19.2255 22.7745C19.1398 24.4288 18.4626 24.4888 19.3369 24.5488C23.9998 29.5716 31.4569 22.9459 32.314 23.8374C31.6283 22.1488 30.994 20.6402 29.854 19.2345C28.9969 18.1716 25.3026 16.9202 24.9683 16.3202C24.5826 15.6174 23.3312 12.6002 22.1226 12.8745C21.8055 12.9431 21.8998 12.9774 21.7798 13.1488C22.414 15.0345 22.6369 17.9059 20.0826 18.0002C19.2855 17.0745 18.5655 16.1316 17.4683 15.5402C17.3244 15.4688 17.1662 15.4308 17.0055 15.4288C16.6798 15.4288 16.354 15.9431 16.1826 16.2859H16.4998C17.6055 17.9574 18.4883 18.1716 19.114 20.7774Z" fill="#F59935"/>
<path d="M27.4284 33.4288C28.3969 33.0688 29.2198 31.3716 29.7427 30.5316C23.9912 31.7145 19.4998 24.8231 19.1141 24.4631C19.2598 23.7945 19.5084 20.8802 19.1141 20.7773C18.3255 21.3516 18.7284 21.4202 18.5998 22.4916C18.5398 22.9373 18.4455 22.8945 18.2741 23.2373C17.8884 23.9916 17.1341 26.0316 17.1427 27.5316C17.1684 30.7545 22.3369 33.3173 25.0284 33.4288C25.9027 33.4631 26.7941 33.2831 27.4284 33.4288Z" fill="#DA8515"/>
<path d="M29.7427 30.523C30.2913 30.2659 30.6084 30.283 30.9084 29.7859C27.6255 30.0944 20.3998 28.9373 18.3427 25.3716C18.1027 25.6373 17.9741 26.023 17.9998 26.4002C18.1284 28.1744 19.9884 30.0687 21.6255 30.4544C23.1512 30.8059 24.4798 30.8573 25.8341 30.8573C27.0598 30.8573 28.3112 30.823 29.7341 30.523H29.7427Z" fill="#727070"/>
<path d="M18.343 25.3712C17.5887 29.4598 24.0516 29.9998 26.683 29.9998C28.123 29.9998 29.4945 29.9141 30.9087 29.7855C31.8173 29.3398 32.3145 27.737 32.4087 26.8712C29.3059 29.7084 21.463 28.4741 19.3373 24.5484L19.0973 24.5312C19.0802 24.5484 19.0459 24.5484 19.0373 24.5741L18.8573 24.7027C18.583 24.8827 18.5145 24.977 18.343 25.3712Z" fill="#B0B0B0"/>
<path d="M19.3802 20.3916C21.3602 20.2202 20.4259 19.2259 19.7402 18.7459L18.0945 17.1431C17.7516 17.1945 17.4259 17.2202 17.1516 17.3916C17.1259 18.5574 17.2802 19.8002 17.8545 20.5545C18.8659 20.6145 18.7887 20.5031 19.3802 20.3916Z" fill="#ECB595"/>
<path d="M19.3369 24.5487C18.7969 24.943 18.4198 25.2602 18.9341 26.1944C19.6969 27.6002 21.0169 28.1402 22.4655 28.6544C23.5798 28.9973 26.9998 29.143 29.1512 29.143H30.3941C31.1912 28.5344 31.7055 27.5144 32.4084 26.863C32.6055 26.6744 32.5712 25.6802 32.5712 25.3544C32.5712 24.5144 32.4512 24.5059 32.3141 23.8373C32.0912 23.3916 31.7312 23.1602 31.2855 23.1602C30.6169 23.1602 30.1884 23.1944 29.5026 23.3916C27.7455 23.8887 25.3541 25.7573 23.5712 25.7144C22.0798 25.6802 20.9741 24.4973 19.3369 24.5487Z" fill="#F4F4F4"/>
<path d="M20.957 18.0342C20.9913 18.4113 21.1799 18.1884 22.0799 18.3256C22.5085 18.3942 22.9113 18.4199 23.4085 18.4199C23.8199 17.4256 23.1513 18.2742 24.317 17.6742C23.9999 17.4513 23.6656 17.7342 23.2285 17.4684C22.7142 17.1599 22.6285 14.777 22.6713 14.3827C22.6542 14.3656 22.6199 14.3227 22.6113 14.3399L22.4142 14.1599C22.3027 14.0227 22.3027 13.9713 22.2256 13.7999C22.1913 13.7142 22.097 13.4827 22.0542 13.4313L21.7885 13.1484C20.8799 14.6227 21.1027 16.1913 20.957 18.0342Z" fill="#985B17"/>
<path d="M29.957 26.5713C31.9113 24.377 30.3342 23.5456 28.517 24.2313C27.8142 24.497 27.0256 25.1142 27.6685 25.8085C27.977 26.1428 29.2113 26.6142 29.957 26.5713Z" fill="#2C2B2A"/>
<path d="M22.3116 14.2972C22.2431 14.7429 22.2259 17.5458 23.1431 17.9829C24.8488 18.1201 25.2345 17.5886 24.5059 16.3886C23.9548 15.4451 23.3239 14.5504 22.6202 13.7144C22.4488 13.9886 22.5859 14.0058 22.3116 14.2972Z" fill="#ECB595"/>
<path d="M26.5801 20.2972C26.3744 21.4372 28.9372 21.883 29.1258 20.8458C29.383 19.483 26.7515 19.4144 26.5801 20.2972Z" fill="#E8E8E8"/>
<path d="M22.2856 24.1369C22.7228 25.4055 24.8228 24.7626 24.8571 23.974C24.8828 23.374 23.6828 22.7998 23.3742 23.3912C22.9028 24.2826 22.7485 23.7169 22.2856 24.1369ZM26.5714 23.3141C26.7685 23.8712 27.0771 24.0512 27.8999 23.9912C28.1828 23.9655 28.4142 23.9055 28.6714 23.7341C29.0142 23.5283 29.0399 23.4769 29.1428 22.9883C28.7999 22.2169 28.0542 22.2169 27.8056 22.3455C27.1714 22.6455 28.0199 22.4998 27.3256 22.9883C27.1371 23.1169 26.8199 23.0569 26.5714 23.3055V23.3141Z" fill="#131011"/>
<path d="M22.0973 21.5398C21.3259 21.017 20.0744 22.5341 20.7859 23.0055C21.7116 23.6313 22.7059 21.9427 22.0973 21.5398Z" fill="#E8E8E8"/>
<path d="M27.4284 9.99415C27.4284 11.9313 27.4284 13.7141 26.9227 13.7141C26.297 13.7141 26.0913 12.9256 25.8084 11.0399C25.5256 9.17986 25.8942 8.57129 26.4513 8.57129C26.9999 8.57129 27.4284 9.02557 27.4284 9.99415Z" fill="url(#paint1_linear_386_390)"/>
<path d="M26.5715 16.2856C27.0449 16.2856 27.4286 15.9018 27.4286 15.4284C27.4286 14.955 27.0449 14.5713 26.5715 14.5713C26.0981 14.5713 25.7144 14.955 25.7144 15.4284C25.7144 15.9018 26.0981 16.2856 26.5715 16.2856Z" fill="url(#paint2_linear_386_390)"/>
<path d="M32.3401 11.3488C31.5173 13.1488 30.7716 14.8031 30.3344 14.5459C29.7944 14.2202 29.9573 13.3802 30.5059 11.4774C31.0544 9.60022 31.6287 9.23165 32.1001 9.5145C32.5801 9.79736 32.7516 10.4488 32.3401 11.3488Z" fill="url(#paint3_linear_386_390)"/>
<path d="M29.9058 16.6798C29.854 16.78 29.783 16.869 29.6968 16.9417C29.6106 17.0144 29.511 17.0695 29.4035 17.1037C29.1865 17.1728 28.9509 17.1529 28.7486 17.0483C28.5463 16.9438 28.3938 16.7631 28.3247 16.5461C28.2556 16.3291 28.2755 16.0935 28.3801 15.8912C28.4846 15.6889 28.6653 15.5364 28.8823 15.4673C29.0993 15.3981 29.3349 15.4181 29.5372 15.5226C29.7395 15.6272 29.892 15.8079 29.9611 16.0249C30.0303 16.2419 30.0103 16.4774 29.9058 16.6798Z" fill="url(#paint4_linear_386_390)"/>
<path d="M36.077 14.6914C34.457 15.6857 32.9742 16.6029 32.6827 16.1829C32.3142 15.66 32.8542 15.0857 34.2684 13.8686C35.657 12.6857 36.377 12.6857 36.6942 13.14C37.0199 13.6029 36.8827 14.1943 36.077 14.6914Z" fill="url(#paint5_linear_386_390)"/>
<path d="M32.1856 17.8628C32.091 17.9247 31.9852 17.9674 31.8741 17.9884C31.7631 18.0095 31.649 18.0084 31.5384 17.9853C31.4277 17.9622 31.3227 17.9176 31.2293 17.8539C31.136 17.7902 31.056 17.7088 30.9941 17.6143C30.9322 17.5197 30.8895 17.4139 30.8685 17.3028C30.8475 17.1918 30.8486 17.0777 30.8717 16.9671C30.8947 16.8564 30.9394 16.7514 31.003 16.6581C31.0667 16.5647 31.1481 16.4847 31.2427 16.4228C31.4337 16.2978 31.6665 16.2538 31.8899 16.3004C32.1133 16.347 32.3091 16.4805 32.4341 16.6714C32.5592 16.8624 32.6032 17.0952 32.5566 17.3186C32.51 17.542 32.3765 17.7378 32.1856 17.8628Z" fill="url(#paint6_linear_386_390)"/>
<path d="M24.1543 17.8029C24.1629 17.5801 24.2743 17.3744 24.48 17.2886C24.6858 17.2029 24.9172 17.2715 25.0543 17.4515C25.3629 17.8372 25.7058 18.1201 26.1858 18.2144C26.4 18.2572 26.5715 18.4201 26.5715 18.6429C26.5715 18.8486 26.4 19.0286 26.1858 18.9944C26.076 18.9811 25.9673 18.9611 25.86 18.9344C25.3458 18.7972 24.6258 18.9944 24.2743 19.4058C23.6743 20.1086 22.7315 20.5715 21.84 20.5715C21 20.5715 20.3743 20.2886 19.9972 20.0144C19.8258 19.8858 19.8515 19.6372 20.0143 19.5001C20.1772 19.3629 20.4258 19.3801 20.6143 19.4915C20.8715 19.6372 21.2829 19.8001 21.84 19.8001C22.9029 19.8001 24.0858 18.9001 24.1543 17.8029Z" fill="#FCDCA3" fill-opacity="0.62"/>
</g>
<defs>
<linearGradient id="paint0_linear_386_390" x1="38.5714" y1="6" x2="11.5714" y2="44.5714" gradientUnits="userSpaceOnUse">
<stop stop-color="#F1B600"/>
<stop offset="1" stop-color="#FC6B02"/>
</linearGradient>
<linearGradient id="paint1_linear_386_390" x1="25.7999" y1="11.9827" x2="27.7456" y2="11.597" gradientUnits="userSpaceOnUse">
<stop offset="0.07" stop-color="#6C1A1C"/>
<stop offset="0.47" stop-color="#DE1A26"/>
</linearGradient>
<linearGradient id="paint2_linear_386_390" x1="25.8001" y1="15.7113" x2="26.8972" y2="14.6484" gradientUnits="userSpaceOnUse">
<stop offset="0.07" stop-color="#6C1A1C"/>
<stop offset="0.47" stop-color="#DE1A26"/>
</linearGradient>
<linearGradient id="paint3_linear_386_390" x1="30.0944" y1="12.3516" x2="31.9801" y2="12.8145" gradientUnits="userSpaceOnUse">
<stop offset="0.07" stop-color="#6C1A1C"/>
<stop offset="0.47" stop-color="#DE1A26"/>
</linearGradient>
<linearGradient id="paint4_linear_386_390" x1="28.3286" y1="16.1741" x2="29.7943" y2="15.7455" gradientUnits="userSpaceOnUse">
<stop offset="0.07" stop-color="#6C1A1C"/>
<stop offset="0.47" stop-color="#DE1A26"/>
</linearGradient>
<linearGradient id="paint5_linear_386_390" x1="33.4713" y1="14.3486" x2="34.8685" y2="15.8314" gradientUnits="userSpaceOnUse">
<stop offset="0.07" stop-color="#6C1A1C"/>
<stop offset="0.47" stop-color="#DE1A26"/>
</linearGradient>
<linearGradient id="paint6_linear_386_390" x1="31.0541" y1="16.6457" x2="32.5456" y2="16.9886" gradientUnits="userSpaceOnUse">
<stop offset="0.07" stop-color="#6C1A1C"/>
<stop offset="0.47" stop-color="#DE1A26"/>
</linearGradient>
<clipPath id="clip0_386_390">
<rect width="48" height="48" rx="24" fill="white"/>
</clipPath>
</defs>
</svg>
