<svg width="48" height="48" viewBox="0 0 48 48" fill="none" xmlns="http://www.w3.org/2000/svg">
<g clip-path="url(#clip0_386_415)">
<path d="M0 0H48V48H0V0Z" fill="#F0F3FA"/>
<path d="M14.4 25.9629L15.24 19.62L7.96289 14.5457L14.6143 16.8L16.1829 14.3829L21.9172 10.8086L34.56 17.8029L35.2115 28.4829L29.5886 36.3515L25.1315 37.0372L27.4457 32.8029V28.7143L25.7657 25.5257L24.06 24.3943L21.4457 27.1115V29.9743L19.4057 31.8943L16.8086 32.2115L15.66 32.8714L13.7743 32.2715L12.9943 29.4257L14.4 27.4286V25.9714V25.9629Z" fill="white"/>
<path d="M26.023 14.4858C24.6344 14.203 23.1173 14.2801 23.1173 14.2801C23.1173 14.2801 22.6201 16.5944 19.5344 17.1944C19.5601 17.1944 23.6144 18.5915 26.023 14.4858ZM27.283 35.4858C28.9737 34.1727 30.2042 32.357 30.7973 30.3001C30.8144 30.2144 31.0544 30.0858 31.2087 29.983C31.4659 29.8287 31.7316 29.6915 31.783 29.4858C31.8868 28.8684 31.9384 28.2433 31.9373 27.6173C31.9373 27.3773 31.7059 27.1458 31.4744 26.9058C31.2859 26.7515 31.1059 26.563 31.1059 26.4344C30.8487 24.0344 29.743 21.8058 27.9859 20.1773L27.8059 20.3487C29.5157 21.9574 30.5922 24.1256 30.8401 26.4601C30.8659 26.6658 31.0801 26.8801 31.2859 27.0944C31.4744 27.2487 31.6801 27.4887 31.6801 27.5915C31.6801 28.1915 31.6287 28.8001 31.5259 29.4087C31.5001 29.5115 31.2687 29.6144 31.0801 29.7173C30.823 29.8544 30.583 29.983 30.5316 30.1973C29.8954 32.4292 28.4816 34.3598 26.5459 35.6401C26.8887 34.903 27.9601 32.5115 28.5344 31.303L28.4316 27.403L25.1059 24.1715L23.2201 24.4287L21.163 27.7973C21.163 27.7973 22.123 29.0401 20.7687 30.4801C19.4316 31.903 18.3859 32.2201 18.3859 32.2201L17.4173 31.6973C17.7001 31.3287 18.2744 30.7715 18.7201 30.4115C19.483 29.7773 20.2373 29.7258 20.2373 29.0401C20.263 27.6173 18.7459 28.0115 18.7459 28.0115L18.1973 28.5344L17.9659 30.4801L16.8087 31.9373L16.6801 31.903L14.7944 31.483C14.7944 31.483 15.9516 30.883 16.1316 30.1973C16.3116 29.5373 15.763 27.3515 15.7373 27.223C15.763 27.2487 16.2859 27.6944 16.5259 28.4315C16.7915 27.5959 17.1693 26.8 17.6487 26.0658C17.803 25.963 19.9287 24.8315 19.9287 24.8315L19.2173 26.6915L19.7401 26.4087L21.0001 23.3058C21.0001 23.3058 22.2344 22.6973 23.143 22.6973C24.7973 22.6715 27.2316 20.6401 26.1344 17.0144C26.443 17.143 31.8859 19.8858 32.8287 25.243C33.5401 29.383 31.2087 33.2487 27.283 35.4858Z" fill="#94A6C3"/>
<path d="M21.0514 15.0684C21.6514 14.357 21.42 13.3027 21.42 13.3027L19.6629 15.9084C19.6371 15.9084 20.2971 15.9342 21.0514 15.0684ZM15.1629 29.297L15.3686 28.2513C15.3686 28.2513 14.5114 29.777 14.4257 29.9827C14.3486 30.2227 14.4857 30.6427 14.82 30.617C15.1629 30.5913 15.5829 30.0856 15.5829 29.717C15.5829 29.2456 15.1629 29.297 15.1629 29.297Z" fill="#1B314F"/>
<path d="M30.7114 12.5656C30.7114 12.5656 32.0228 12.6171 33.3771 12.7799C30.3171 10.3628 27.4114 9.65135 25.0628 9.65135C21.8056 9.65135 19.6114 10.9885 19.4828 11.0656L20.5028 9.43707C20.5028 9.43707 16.4228 9.04278 14.9828 13.3799C14.7063 12.6415 14.4688 11.889 14.2714 11.1256C14.2714 11.1256 12.1542 12.9856 13.1485 16.0971C11.1394 15.3546 9.12217 14.6346 7.09708 13.9371C6.92565 13.9114 6.86565 13.9885 6.86565 13.9885C6.86565 13.9885 6.81422 14.0742 6.96851 14.2028C7.25994 14.4342 12.7542 18.5142 13.9628 19.3028C13.6971 20.2456 13.6971 20.6999 13.9628 21.1456C14.3228 21.7456 14.3485 22.0628 14.3057 22.5171C14.2457 22.9628 13.7742 26.8285 13.6714 27.2999C13.5685 27.7714 12.4714 29.4599 12.5228 29.9571C12.5742 30.4542 13.2514 32.5885 13.8514 32.8285C14.2971 32.9828 15.3942 33.3256 16.1314 33.3256C16.3885 33.3256 16.6285 33.2742 16.7314 33.1714C17.1771 32.7685 17.3056 32.6914 17.6228 32.6914H17.7085C17.8285 32.6914 17.9914 32.7171 18.1714 32.7171C18.5999 32.7171 19.1399 32.6399 19.5342 32.2714C20.1085 31.6971 21.1028 30.8999 21.4199 30.5399C21.8142 30.0342 22.0199 29.3485 21.9171 28.6714C21.8314 28.0371 22.1742 27.4885 22.5685 26.9314L23.9828 25.0885C24.8871 25.7551 25.6232 26.6238 26.1321 27.6254C26.6411 28.6269 26.9089 29.7336 26.9142 30.8571C26.9142 34.9714 23.3571 38.2799 18.9599 38.2799C18.2742 38.2799 17.6228 38.1942 16.9714 38.0399C18.9856 38.7514 20.6828 38.9828 22.0714 38.9828C25.0285 38.9828 26.6057 37.9114 26.6057 37.9114C26.6057 37.9114 26.0485 38.6228 25.1657 39.4371H25.1914C30.0771 38.7514 32.4685 34.7056 32.4685 34.7056C32.4685 34.7056 32.2799 36.0171 32.0399 36.9085C38.5628 31.9885 37.4657 25.8342 37.4399 25.6285C37.4914 25.7056 38.1428 26.4856 38.4857 26.9142C39.5314 16.0799 30.7114 12.5742 30.7114 12.5742V12.5656ZM20.6828 29.8799C20.5799 30.0085 20.1342 30.4028 19.8256 30.6942C19.5085 30.9856 19.1656 31.2771 18.9085 31.5342C18.7971 31.6456 18.5914 31.6971 18.2742 31.6971H17.4942C17.8885 31.1656 19.0371 29.9571 19.4314 29.6914C19.9028 29.3828 20.1342 29.0656 19.8514 28.5085C19.5599 27.9599 18.7971 28.0885 18.7971 28.0885C18.7971 28.0885 19.2428 27.9085 19.6371 27.9085C19.1399 27.7714 18.5142 27.9085 18.2228 28.1914C17.9142 28.4828 17.9656 29.5114 17.8285 30.1628C17.6999 30.8485 17.2542 31.1914 16.5771 31.8256C16.2085 32.1685 15.9514 32.2714 15.7371 32.2714C15.2914 32.1942 14.7685 32.0656 14.3999 31.9285C14.1428 31.5856 13.7485 30.4542 13.6457 29.9828C13.7314 29.7256 14.0399 29.1685 14.1942 28.8514C14.5114 28.2514 14.6914 27.9085 14.7428 27.5914C14.8457 27.1456 15.1885 24.3771 15.3171 23.2199C15.6599 23.6742 16.1314 24.4028 16.0285 24.8828C16.7828 23.8028 16.2342 22.7485 15.9771 22.3285C15.6025 21.6739 15.4979 20.899 15.6856 20.1685C15.9428 19.2771 16.8857 16.7999 16.8857 16.7999C16.8857 16.7999 17.2028 17.3571 17.6571 17.2542C18.0942 17.1428 21.6856 11.7256 21.6856 11.7256C21.6856 11.7256 22.6456 13.8599 21.6256 15.4114C20.5799 16.9542 19.5599 17.2542 19.5599 17.2542C19.5599 17.2542 20.9999 17.5114 22.3371 16.5428C22.8856 17.8285 23.4085 19.1742 23.4342 19.3542C23.3485 19.5428 22.3114 22.0628 22.1999 22.2256C22.1485 22.2771 21.7885 22.3799 21.5228 22.4314C21.0771 22.5685 20.8199 22.6456 20.7085 22.7228C20.5285 22.8771 19.6885 25.1999 19.3028 26.3228C18.8314 26.4599 18.3599 26.7256 18.0171 27.2485C18.1971 27.1199 18.7714 27.0342 19.1914 26.9914C19.5599 26.9571 20.6828 27.5656 20.9742 28.6971V28.7485C21.0256 29.1685 20.8885 29.5628 20.6828 29.8799ZM18.2228 30.1971C18.4628 29.8542 18.4371 29.2714 18.4628 29.0828C18.4885 28.9114 18.5399 28.5685 18.7457 28.5085C18.9599 28.4571 19.4571 28.5342 19.4571 28.9028C19.4571 29.2456 19.0885 29.3314 18.8314 29.5628L18.2314 30.1971H18.2228ZM28.6714 25.1656C28.9285 23.8285 28.9542 22.6714 28.8771 21.7199C29.9056 23.0914 30.5314 24.7456 30.7114 26.4599C30.7371 26.6656 30.9428 26.8799 31.1571 27.0942C31.3371 27.2485 31.5514 27.4628 31.5514 27.5914C31.5514 28.1914 31.4999 28.7999 31.3885 29.4085C31.3628 29.4856 31.1314 29.6142 30.9428 29.7171C30.6856 29.8542 30.4456 29.9828 30.3942 30.1971C29.8161 32.2149 28.6052 33.9936 26.9399 35.2714C29.3742 32.7171 30.5571 28.5085 28.6714 25.1656ZM27.0171 35.5114C28.745 34.196 30.0041 32.36 30.6085 30.2742C30.6342 30.1885 30.8657 30.0599 31.0285 29.9571C31.2857 29.8285 31.5428 29.6656 31.6028 29.4599C31.7066 28.8425 31.7582 28.2174 31.7571 27.5914C31.7571 27.3514 31.5257 27.1199 31.2857 26.8799C31.1571 26.7256 30.9428 26.5371 30.9428 26.4085C30.7313 24.497 29.989 22.6829 28.7999 21.1714C28.2771 18.0171 26.1856 17.0399 26.1342 17.0142C26.1856 17.0999 27.5399 19.0714 26.6057 21.3856C25.6371 23.7256 23.1428 23.3571 22.9371 23.3828C22.7314 23.3828 21.9085 24.4371 20.8971 26.3828C20.7685 26.3314 20.2114 26.1942 19.5857 26.2971C19.9701 25.1628 20.4077 24.0473 20.8971 22.9542C20.9485 22.9114 21.3428 22.7999 21.5999 22.7228C22.0971 22.5942 22.3371 22.5085 22.4142 22.4056C22.4656 22.3285 22.7314 21.7199 22.9885 21.0942C23.2285 21.0942 23.8285 21.0428 23.8799 21.0085C23.9314 20.9571 24.4285 19.6714 24.4285 19.5171C24.4285 19.3799 23.4085 16.8342 23.0142 15.8571C23.2028 15.6428 23.3828 15.3856 23.5628 15.0942C25.0676 14.3711 26.7198 14.0076 28.3892 14.0324C30.0585 14.0572 31.6993 14.4695 33.1819 15.237C34.6646 16.0044 35.9487 17.1059 36.9328 18.4545C37.9169 19.8032 38.5741 21.362 38.8526 23.0082C39.1311 24.6543 39.0233 26.3426 38.5376 27.9399C38.0519 29.5372 37.2016 30.9998 36.0539 32.2123C34.9062 33.4247 33.4924 34.3539 31.9242 34.9264C30.3559 35.4989 28.676 35.6992 27.0171 35.5114Z" fill="#1B314F"/>
<path d="M20.057 21.2999C20.5541 20.7256 20.297 19.6456 19.3713 19.457C19.6113 18.9084 19.9541 17.8027 19.9541 17.8027C19.9541 17.8027 17.2799 22.0113 17.0399 22.0884C16.8084 22.1742 16.577 21.2484 16.577 21.2484C16.0799 23.1684 17.417 23.4342 17.5713 22.8256C18.5036 22.5095 19.3531 21.9881 20.057 21.2999Z" fill="#1B314F"/>
<path d="M17.7773 22.3288L19.1488 19.9888C19.1488 19.9888 19.9202 20.3831 19.5345 21.0173C19.0504 21.5763 18.4509 22.0237 17.7773 22.3288Z" fill="#FFD923"/>
<path d="M34.6116 33.1714C34.2173 33.6857 33.7716 34.2428 33.2487 34.7742C36.6259 28.2514 33.403 22.2771 33.2744 22.0371C33.5144 22.2771 33.7459 22.5428 33.9601 22.7742C35.2299 24.1775 35.9858 25.9701 36.1041 27.8589C36.2224 29.7476 35.6962 31.6206 34.6116 33.1714ZM37.7487 24.7714C36.5931 21.324 34.283 18.3812 31.2087 16.4399C28.9549 14.9665 26.3063 14.2132 23.6144 14.2799H23.563C23.7001 14.2285 23.8202 14.1942 23.9573 14.1771C24.7716 13.9114 25.8173 13.6971 26.863 13.5685C29.6402 13.1742 32.4344 14.1171 34.3459 16.1399L34.4059 16.1999C36.5756 18.5243 37.7719 21.5918 37.7487 24.7714ZM30.3687 11.7514C26.4687 11.0142 23.9573 11.3828 22.1487 12.0685C22.043 11.7342 21.9141 11.4077 21.763 11.0914C21.2059 11.7514 20.6316 12.5485 20.263 13.0457C19.2687 13.7314 18.8573 14.3828 18.8573 14.3828C19.1483 13.4124 19.703 12.542 20.4598 11.8685C21.2165 11.195 22.1455 10.7449 23.143 10.5685C23.7259 10.4656 24.343 10.4142 25.0287 10.4142C26.8373 10.4399 28.6459 10.8857 30.3687 11.7514ZM15.943 16.7999C12.883 16.6971 13.903 13.1142 13.963 12.9085C13.963 12.9342 14.1687 15.7285 15.9516 16.7999H15.943ZM18.9602 10.3628C16.603 11.7771 17.0744 15.1714 17.0744 15.1714C14.8201 11.7257 18.7716 10.4399 18.9602 10.3628Z" fill="#D82122"/>
<path d="M15.086 17.7514C15.2402 17.88 15.3945 18.12 15.2145 18.4628C15.1117 18.6428 14.9574 18.6171 14.7174 18.5143C13.3883 17.7624 12.0875 16.9619 10.8174 16.1143C12.2375 16.6037 13.6438 17.1324 15.0345 17.7L15.086 17.7514Z" fill="white"/>
</g>
<defs>
<clipPath id="clip0_386_415">
<rect width="48" height="48" rx="24" fill="white"/>
</clipPath>
</defs>
</svg>
