<svg width="48" height="48" viewBox="0 0 48 48" fill="none" xmlns="http://www.w3.org/2000/svg">
<g clip-path="url(#clip0_387_425)">
<path d="M0 0H48V48H0V0Z" fill="#F7991C"/>
<path d="M42.5316 26.2886C42.4887 26.2029 42.523 26.1344 42.523 26.0658C42.6091 25.3687 42.4344 24.6645 42.0325 24.0885C41.6305 23.5125 41.0298 23.1055 40.3459 22.9458C39.9176 22.8526 39.473 22.8664 39.0514 22.986C38.6298 23.1056 38.2442 23.3273 37.9287 23.6315C37.0848 24.386 36.2672 25.1693 35.4773 25.9801C33.9344 27.5486 32.4516 29.8115 30.2916 30.5829C27.7201 31.4915 24.9087 30.0686 23.9316 27.6001C23.8201 27.3001 23.8287 27.2401 24.0601 27.0429L25.6887 25.5858L25.7316 25.5429C25.8001 25.5001 25.8516 25.3972 25.9287 25.4401C26.0144 25.4829 25.963 25.5772 25.9716 25.6458C26.001 26.2966 26.2542 26.9172 26.6884 27.4029C27.1225 27.8886 27.711 28.2095 28.3544 28.3115C29.0071 28.3963 29.6689 28.2486 30.2237 27.8944C30.7785 27.5403 31.1909 27.0021 31.3887 26.3744C31.507 26.0183 31.553 25.6421 31.524 25.268C31.4951 24.8939 31.3918 24.5294 31.2202 24.1957C31.0485 23.862 30.812 23.5659 30.5245 23.3248C30.237 23.0837 29.9043 22.9024 29.5459 22.7915C27.7459 22.1915 26.4516 23.8286 25.2601 24.9172C24.8744 25.2772 24.4887 25.6458 24.0859 25.9972C23.9316 26.1258 23.8287 26.3144 23.7944 26.5115C23.2973 29.0915 20.9144 31.1315 18.2401 30.8229C17.2762 30.7249 16.3593 30.3579 15.5939 29.7638C14.8286 29.1697 14.2456 28.3724 13.9116 27.4629C13.8836 27.402 13.8768 27.3334 13.8923 27.2681C13.9078 27.2029 13.9448 27.1447 13.9973 27.1029L14.5716 26.6144C14.9573 26.2629 15.343 25.9115 15.7459 25.5686C15.8144 25.5086 15.883 25.3972 15.9601 25.4401C16.0459 25.4744 16.0116 25.5944 16.0201 25.6801C16.0383 26.3148 16.2634 26.9263 16.661 27.4214C17.0587 27.9165 17.6071 28.2682 18.223 28.4229C18.9225 28.5623 19.6487 28.4297 20.2539 28.0523C20.8591 27.6749 21.2976 27.081 21.4801 26.3915C21.9773 24.4972 20.5287 22.6286 18.6344 22.7229C17.323 22.7658 16.363 23.9486 15.4716 24.7715C14.9316 25.2601 14.4773 25.7486 13.9373 26.2286C13.8627 26.2911 13.8037 26.3702 13.7651 26.4594C13.7264 26.5487 13.709 26.6458 13.7144 26.7429V30.4286C13.7144 30.7886 13.5944 30.8572 13.2516 30.8572C12.9292 30.8544 12.6113 30.7816 12.3198 30.644C12.0282 30.5064 11.7701 30.3072 11.563 30.0601C11.4001 29.8629 11.3659 29.8629 11.143 29.9915C10.3201 30.4629 9.45443 30.7201 8.51157 30.6772C7.14263 30.6175 5.84964 30.0314 4.90254 29.0412C3.95543 28.051 3.42741 26.7332 3.42871 25.3629C3.42871 22.9458 5.16871 20.5801 7.61157 20.1686C8.65799 19.9781 9.73771 20.1144 10.7039 20.5592C11.6701 21.004 12.4758 21.7355 13.0116 22.6544C13.0544 22.7486 13.123 22.8258 13.2087 22.8772C13.2687 22.8429 13.6801 22.7915 13.7144 22.7144V14.1429C13.7144 13.7658 13.783 13.7144 14.1601 13.7144C14.7087 13.7144 15.2401 13.9286 15.6516 14.3144C16.0544 14.6915 16.2259 15.1458 16.2859 15.7115C16.303 15.8486 16.2859 15.9858 16.2859 16.1229V20.6658C16.2944 20.8629 16.3544 20.8886 16.543 20.7944C17.0744 20.5029 17.4001 20.3744 18.0001 20.2801C18.9814 20.1456 19.9806 20.2973 20.8777 20.7169C21.7748 21.1366 22.5316 21.8064 23.0573 22.6458C23.1173 22.7315 23.1687 22.8258 23.2801 22.8429C23.3401 22.8515 23.9916 22.6544 24.0001 22.5601V16.1658C24.0001 14.9315 24.6687 14.0058 25.8516 13.7658C25.9801 13.7401 26.1173 13.7229 26.2544 13.7229C26.4259 13.7315 26.503 13.8086 26.5459 13.9801C26.5709 14.1157 26.5796 14.2538 26.5716 14.3915V20.7086C26.5887 20.8201 26.623 20.8544 26.7344 20.8115L27.163 20.6229C29.8459 19.5172 32.5973 21.1372 33.5401 23.7429L33.5916 23.8972C33.6773 24.1201 33.6944 24.1286 33.8744 23.9658C35.263 22.6972 36.6259 21.0429 38.5201 20.5715C39.7343 20.2773 41.0145 20.4454 42.1116 21.0429C43.2191 21.6487 44.0735 22.6308 44.5201 23.8115C44.5688 23.9087 44.5842 24.0192 44.5641 24.126C44.544 24.2328 44.4894 24.3301 44.4087 24.4029L42.703 26.1686C42.6555 26.2231 42.5971 26.2669 42.5316 26.2972V26.2886Z" fill="#191C31"/>
<path d="M40.2858 28.6715C40.2849 28.7055 40.2758 28.7388 40.2594 28.7686C40.243 28.7984 40.2197 28.8239 40.1915 28.8429L38.383 30.7286C38.3353 30.7861 38.2701 30.8264 38.1974 30.8434C38.1247 30.8604 38.0484 30.8532 37.9801 30.8229C37.2899 30.5677 36.6622 30.168 36.1389 29.6507C35.6157 29.1333 35.2089 28.5102 34.9458 27.8229C34.8601 27.6086 34.8773 27.5401 35.0401 27.3944C35.6294 26.8605 36.2208 26.3291 36.8144 25.8001C36.8487 25.7572 36.9001 25.7229 36.9601 25.7144C37.0115 25.7744 36.9944 25.8515 37.003 25.9201C37.0373 26.3229 37.1315 26.7258 37.2944 27.0944C37.511 27.5672 37.8587 27.968 38.2963 28.249C38.7338 28.5301 39.2429 28.6797 39.763 28.6801C39.9258 28.6629 40.1058 28.6801 40.2773 28.6801L40.2858 28.6715Z" fill="#191C31"/>
<path d="M11.3744 25.4227C11.3837 26.1656 11.1003 26.8824 10.5854 27.4181C10.0706 27.9538 9.36567 28.2654 8.62296 28.2856C7.88582 28.2856 7.18296 27.9942 6.6601 27.4627C6.13734 26.9253 5.84251 26.2067 5.83725 25.457C5.82584 25.0812 5.88904 24.7068 6.02319 24.3555C6.15734 24.0042 6.35978 23.683 6.61881 23.4104C6.87784 23.1378 7.18833 22.9193 7.53233 22.7674C7.87633 22.6155 8.24701 22.5333 8.62296 22.5256C10.123 22.4913 11.383 23.7599 11.3744 25.4227Z" fill="#FF9C00"/>
</g>
<defs>
<clipPath id="clip0_387_425">
<rect width="48" height="48" rx="24" fill="white"/>
</clipPath>
</defs>
</svg>
