<svg width="48" height="48" viewBox="0 0 48 48" fill="none" xmlns="http://www.w3.org/2000/svg">
<g clip-path="url(#clip0_388_430)">
<path d="M0 0H48V48H0V0Z" fill="url(#paint0_linear_388_430)"/>
<path d="M37.2856 18.5142C37.1999 18.9857 37.1056 19.2171 36.9856 19.4828C36.8656 19.7742 36.7284 20.1 36.5999 20.7514C36.5484 21.0085 36.5142 21.2057 36.497 21.3771V21.3942C36.4223 22.1052 36.1523 22.7815 35.717 23.3485C35.417 23.7342 34.9199 24.3771 34.2599 24.4628C34.1823 24.4722 34.1037 24.4664 34.0284 24.4457C32.1427 23.5028 30.5313 22.8171 29.9656 22.6542C29.3142 22.4828 29.3999 21.0942 29.477 19.8685C29.5027 19.3285 29.537 18.8142 29.5113 18.3685C29.4256 16.8257 29.1427 15.1371 27.7627 14.3143C26.8692 13.8528 25.8702 13.6341 24.8656 13.68C25.0542 13.5942 25.2599 13.4742 25.4913 13.3457C26.0913 13.0028 26.837 12.5914 27.5742 12.5142L28.2856 12.4371C29.7684 12.2742 31.0456 12.1371 32.3999 12.5828C33.017 12.7885 34.2684 13.4742 34.5942 14.1085C34.8256 14.5542 35.2113 14.9057 35.9827 15.6C36.377 15.9685 36.6427 16.1742 36.8399 16.3285V16.3371C37.1142 16.56 37.1656 16.5942 37.2513 16.7657C37.4999 17.2542 37.4056 17.7857 37.2856 18.5142ZM30.3942 24.8314C30.5056 24.8742 30.5484 25.0028 30.4799 25.0885C30.2827 25.3885 30.0599 25.7828 29.7942 26.2628L29.4427 26.8971C29.1692 27.3622 29.0242 27.8918 29.0227 28.4314C28.997 28.86 28.9799 29.0571 28.7142 29.2285C28.4913 29.3742 28.2684 29.4257 26.717 29.6571C26.5299 29.6792 26.3476 29.7313 26.177 29.8114C26.0656 29.8542 25.9627 29.76 25.9627 29.6485C25.9799 29.4428 25.9799 29.1771 25.9799 28.86V28.7914C25.9884 28.5 25.9799 28.26 25.9713 28.0628C25.9456 27.6771 25.9456 27.5142 26.057 27.3514C26.177 27.1457 26.2799 27.0857 26.4513 26.9828C26.6827 26.8371 26.9999 26.64 27.4713 26.0142C27.7199 25.6714 27.7713 25.5 27.8142 25.3457C27.8227 25.2771 27.8313 25.26 28.0199 25.1142C28.2256 24.96 28.8427 24.5057 29.6399 24.6342C29.8456 24.6685 30.1113 24.7371 30.3942 24.8314ZM24.2656 31.8085C24.2509 31.8292 24.2317 31.8461 24.2094 31.858C24.1871 31.8699 24.1623 31.8764 24.137 31.8771C23.9742 31.8771 23.8627 31.8428 23.7856 31.7571C23.6227 31.5685 23.6484 31.1828 23.6827 30.96L24.3427 30.7885C24.3942 31.1314 24.4113 31.62 24.2656 31.8171V31.8085ZM24.317 29.5114L24.2999 29.8114V29.94L24.2913 30.2828C24.0856 30.36 23.9142 30.36 23.6827 30.3514V29.82C23.6827 29.7 23.6827 29.4942 23.717 29.4342C23.777 29.4342 23.8456 29.4171 23.9142 29.4C24.0427 29.3742 24.2227 29.3314 24.3427 29.3485L24.317 29.5114ZM23.1084 31.62C23.0742 31.9457 22.9713 32.3485 22.6542 32.4085C22.517 32.4343 22.4484 32.4 22.397 32.3571C22.1913 32.1685 22.157 31.5857 22.1827 31.1657C22.3284 31.1657 22.517 31.14 22.7313 31.0971L23.1084 31.02C23.117 31.1742 23.1256 31.3971 23.1084 31.62ZM22.9542 30.4371L22.2513 30.6857C22.2856 30.4114 22.337 30.0342 22.3456 29.7857C22.3627 29.6142 22.4142 29.5543 22.4313 29.5457C22.4313 29.5371 22.4313 29.5285 22.4656 29.5285H22.4913L22.9456 29.5114C22.9627 29.7171 22.9627 30.1628 22.9542 30.4371ZM21.8056 30.2228C21.7713 30.3257 21.7199 30.6257 21.6942 30.8314L20.8027 30.8057C20.8542 30.54 20.9227 30.2657 20.9999 30.0428C21.077 29.8285 21.1542 29.6657 21.2313 29.6142C21.317 29.5714 21.5227 29.5542 21.6427 29.6571C21.8399 29.82 21.8999 30 21.8142 30.2228H21.8056ZM21.4799 32.88C21.4537 32.9218 21.4187 32.9573 21.3772 32.984C21.3357 33.0107 21.2888 33.0278 21.2399 33.0343C21.137 33.0343 21.0684 33.0171 20.9999 32.9657C20.7256 32.7085 20.7427 31.8857 20.7599 31.4914C21.1284 31.4057 21.5313 31.3371 21.7113 31.3285C21.7456 31.6628 21.7542 32.52 21.4799 32.88ZM20.3142 30.78L20.1942 31.0971C20.0913 31.1314 19.7742 31.0971 19.457 31.0285L19.6799 29.6657C20.0399 29.5714 20.4684 29.5371 20.5713 29.6485C20.6999 29.7857 20.4342 30.4885 20.3142 30.78ZM19.9113 33.0857C19.7399 33.3 19.4827 33.3942 19.1142 33.3942C18.8656 33.3942 18.7713 33.2914 18.737 33.2228C18.5313 32.9142 18.737 32.1857 18.9256 31.7228L20.1256 31.7914L20.1599 32.0828C20.177 32.4085 20.1342 32.8285 19.9113 33.0942V33.0857Z" fill="white"/>
<path d="M29.8799 23.1769C28.7914 22.8769 28.8856 21.3255 28.9799 19.8341C29.0142 19.3026 29.0399 18.8055 29.0142 18.3941C28.9285 16.9884 28.6885 15.4712 27.5399 14.7769C26.2971 14.0398 24.2571 14.2026 23.0056 14.3569C22.611 14.4928 22.1973 14.5651 21.7799 14.5712C21.0342 14.5284 20.4599 14.2284 19.9542 13.9626C19.6194 13.7444 19.2374 13.6093 18.8399 13.5684C17.8628 13.6369 17.4171 13.8684 17.0056 14.2198C16.9114 14.3055 16.7828 14.5626 16.3714 15.7026C16.1656 16.2855 16.1314 16.6026 16.0971 16.9026C16.0628 17.1941 16.0199 17.4769 15.8742 17.9141C15.7628 18.2055 15.6856 18.4626 15.6085 18.7112C15.454 19.3622 15.1682 19.9747 14.7685 20.5112L14.5628 20.8026C14.4599 20.9741 14.3228 21.1798 14.1428 21.4198C14.0228 21.5912 13.7314 22.2169 13.7485 22.4141C13.7742 22.7141 13.8771 22.9026 13.9885 23.1255C14.1085 23.3484 14.2456 23.5969 14.2628 23.9398V23.9912C14.3142 24.5312 14.2285 24.8055 13.1742 25.7226C12.4971 26.3226 12.0171 26.8884 11.6914 27.2998C11.6656 27.3426 11.6999 27.3855 11.7514 27.3855H11.7771C11.8397 27.3781 11.903 27.3781 11.9656 27.3855C12.2228 27.4198 12.4714 27.5226 12.6514 27.7112C12.6771 27.7369 12.7285 27.7455 12.7714 27.7284C12.9428 27.6598 13.1314 27.6769 13.3114 27.6855C13.5256 27.7112 13.7399 27.7712 13.8942 27.8998C13.9456 27.9512 14.0228 27.9769 14.0999 27.9598C14.2714 27.9255 14.4428 27.9341 14.6142 27.9941C14.7263 28.0353 14.8284 28.0996 14.9142 28.1826C14.9999 28.2684 15.1371 28.2769 15.2314 28.2255L15.3599 28.1655C15.5914 28.0969 15.8399 28.1398 16.0714 28.2169C16.1742 28.2512 16.2942 28.2855 16.3885 28.3541C16.5599 28.4569 16.6628 28.6112 16.7314 28.7826C16.7914 28.9112 16.9714 28.9541 17.0828 28.8684C17.2285 28.7741 17.3399 28.7569 17.4599 28.8084C17.5114 28.8341 17.5456 28.8598 17.5714 28.8941C17.6571 28.9798 17.7942 29.0741 17.9142 29.0484C18.2656 28.9626 18.6856 29.0226 18.9942 29.1855C19.1056 29.2455 19.2171 29.3312 19.3028 29.4684L19.3114 29.4084C19.3114 29.3741 19.3371 29.3569 19.3628 29.3484L19.4399 29.3226C19.6114 29.2712 20.5114 29.0226 20.8628 29.3741C20.8714 29.3912 20.9056 29.3912 20.9142 29.3741C20.9656 29.3312 20.9999 29.2969 21.0256 29.2884C21.1624 29.2141 21.3178 29.1811 21.4729 29.1933C21.6281 29.2054 21.7764 29.2623 21.8999 29.3569C21.9599 29.3998 22.0371 29.3826 22.0799 29.3312C22.127 29.2649 22.1904 29.2119 22.264 29.1774C22.3376 29.1429 22.4189 29.1279 22.4999 29.1341L22.9885 29.1084C23.2093 29.0985 23.4295 29.0785 23.6485 29.0484C23.6999 29.0484 23.7599 29.0312 23.8199 29.0141C24.0599 28.9626 24.3342 28.9112 24.5571 29.0141C24.7714 29.0998 24.7456 29.3398 24.7199 29.5541C24.7114 29.6398 24.6942 29.7255 24.7028 29.8112V29.9312C24.7028 30.1026 24.7028 30.2741 24.6685 30.4026L24.6942 30.5055C24.7199 30.5998 24.8228 30.6598 24.9171 30.6084C25.0675 30.5214 25.2034 30.4115 25.3199 30.2826L25.3542 30.1369C25.3885 29.9569 25.4142 29.5969 25.4228 28.8512V28.7741C25.4228 28.5084 25.4228 28.2855 25.4056 28.0884C25.3885 27.6941 25.3714 27.3769 25.5771 27.0598C25.7742 26.7426 25.9628 26.6312 26.1514 26.5112C26.3656 26.3826 26.6056 26.2369 27.0085 25.6884C27.2142 25.4226 27.2399 25.3112 27.2656 25.2255C27.2999 25.0198 27.3685 24.8998 27.6771 24.6684C27.9342 24.4884 28.7056 23.9226 29.7342 24.0941C30.2533 24.2042 30.7612 24.3621 31.2514 24.5655C31.7142 24.7455 32.1685 24.9512 32.4771 25.1141C32.5628 25.1655 32.6656 25.1312 32.7342 25.0626C32.8199 24.9512 32.9228 24.8826 33.0342 24.8141L33.1456 24.7455C33.2485 24.6598 33.2485 24.4884 33.1285 24.4284C32.0864 23.9123 30.9989 23.4934 29.8799 23.1769ZM19.5342 23.5026C19.1914 24.9341 16.9199 26.5026 15.8828 26.5026H15.8656C15.8254 26.5047 15.7852 26.5018 15.7456 26.4941L15.7114 26.4769C15.4718 26.3961 15.2525 26.2645 15.0685 26.0912C14.9318 25.9743 14.8333 25.819 14.7856 25.6455L14.7685 25.5598C14.6689 25.2116 14.7025 24.8388 14.8628 24.5141L14.9485 24.3255L14.9742 24.2741C15.0312 24.138 15.0855 24.0009 15.1371 23.8626C15.1971 23.6912 15.2056 23.6312 15.2228 23.5626C15.2987 23.2636 15.356 22.9602 15.3942 22.6541C15.4371 22.2941 15.4799 21.9684 15.6856 21.6855C15.7181 21.6388 15.7555 21.5957 15.7971 21.5569L15.8399 21.5141L15.8914 21.4798C15.9947 21.4068 16.1111 21.3545 16.2342 21.3255C16.9281 21.2588 17.6274 21.3709 18.2656 21.6512C18.2999 21.6769 18.3428 21.6855 18.3771 21.7026L18.4971 21.7541L18.5314 21.7712C18.7739 21.8833 18.9967 22.0339 19.1914 22.2169C19.6285 22.6626 19.6028 23.1855 19.5342 23.5026ZM20.5885 18.0684L20.5456 18.3255C20.4428 18.9169 20.2028 19.7141 19.3456 19.9284C18.5056 20.1255 18.3171 20.1684 17.7171 20.1855H17.6742C17.2456 20.1855 16.4142 19.9284 16.2685 19.2684C16.1742 18.8398 16.3628 18.5312 16.6799 18.0255L16.8514 17.7426C17.2714 17.0569 17.4342 16.5598 17.5714 16.1569C17.6999 15.7712 17.8028 15.4455 18.0856 15.1798C18.2642 15.0074 18.4818 14.881 18.7199 14.8112C18.9085 14.7512 19.1228 14.7169 19.3285 14.7169C19.7314 14.7169 20.1342 14.8284 20.4256 15.0598C20.5542 15.1541 20.7342 15.3598 20.8456 15.9512C20.8971 16.2598 20.8028 16.8255 20.5885 18.0684ZM26.7599 19.7398C26.4599 20.2369 26.2971 20.5112 26.0399 20.7169C25.5256 21.1198 24.9342 21.2312 24.4456 21.2312C24.0942 21.2312 23.7942 21.1712 23.6142 21.1455C23.1085 21.0512 22.1656 20.8884 21.8571 20.1598C21.808 20.0524 21.7845 19.935 21.7885 19.8169C21.7885 19.6969 21.7885 19.4998 21.7371 19.0455V19.0198C21.6937 18.7731 21.6937 18.5207 21.7371 18.2741L21.7456 18.2398C21.9256 17.3569 21.9771 17.2284 22.0114 17.1512C22.1056 16.9798 22.3199 16.9112 22.4999 16.9969C22.6714 17.0826 22.7485 17.2884 22.6714 17.4598C22.6456 17.5112 22.5942 17.6912 22.4571 18.3769V18.4112C22.4142 18.6084 22.4314 18.7541 22.4571 18.9341V18.9684C22.5171 19.4655 22.5171 19.6884 22.5171 19.8084V19.8855C22.5771 20.0055 22.6885 20.0998 22.8256 20.1769C22.9456 20.2455 23.0742 20.1255 23.0485 20.0055C22.8942 19.2341 22.9114 18.3598 23.2114 17.8112C23.3056 17.6226 23.4942 17.3226 23.6656 17.0398L23.7256 16.9541L23.7685 16.8769L23.9742 16.5426L23.9999 16.5084C24.0053 16.4995 24.011 16.491 24.0171 16.4826L24.0514 16.4312L24.0599 16.4055L24.0856 16.3712L24.1028 16.3455V16.3369L24.2399 16.1655C24.3256 16.0284 24.2228 15.8655 24.0685 15.9341C23.8199 16.0455 23.6485 16.1655 23.6142 16.1912C23.5389 16.2518 23.4428 16.2804 23.3466 16.2708C23.2503 16.2611 23.1618 16.2141 23.0999 16.1398C23.0697 16.1038 23.0473 16.0621 23.0339 16.0171C23.0205 15.9721 23.0165 15.9248 23.0221 15.8782C23.0277 15.8316 23.0428 15.7866 23.0666 15.7461C23.0903 15.7056 23.1221 15.6704 23.1599 15.6426C23.49 15.3874 23.8728 15.2088 24.2805 15.1198C24.6882 15.0309 25.1106 15.0338 25.5171 15.1284C26.3742 15.3684 26.8199 16.0026 26.9828 16.2426C27.1199 16.4312 27.5399 17.0141 27.5228 17.8455C27.5142 18.4712 27.2485 18.9169 26.7514 19.7312L26.7599 19.7398Z" fill="white"/>
<path d="M19.0802 15.4458L18.8659 15.9601C18.6945 16.3972 18.4802 16.9029 18.3859 17.0915C18.2145 17.4001 18.0773 17.6058 17.9745 17.7601C17.8545 17.9487 17.7516 18.0944 17.6831 18.3001C17.5539 18.681 17.5302 19.0897 17.6145 19.4829C17.3831 19.4572 17.0145 19.3115 16.9716 19.1144C16.9459 18.9772 17.0316 18.8144 17.2974 18.3858L17.4688 18.1029C17.9402 17.3487 18.1202 16.7915 18.2573 16.3801C18.4031 15.9258 18.4802 15.7458 18.7116 15.5829C18.8145 15.5144 18.9431 15.4715 19.0802 15.4458ZM18.6345 31.2858C18.3774 31.7915 18.0688 32.2544 17.8716 32.4858C17.5978 31.7671 17.4752 30.9997 17.5116 30.2315C17.5459 29.9915 17.6059 29.7687 17.7259 29.5887C17.8116 29.4772 18.0173 29.4001 18.2573 29.4001C18.4373 29.4001 18.6345 29.4429 18.8059 29.5287C18.8916 29.5801 19.0202 29.6744 19.0288 29.9487C19.0459 30.3172 18.8659 30.8229 18.6345 31.2944V31.2858Z" fill="white"/>
<path d="M32.3741 25.6972C32.3998 25.7057 32.4084 25.7314 32.3998 25.7572C32.3226 25.9029 32.2284 26.0057 32.1255 26.1257C31.9969 26.2714 31.8512 26.4429 31.7141 26.7C31.5255 27.0772 31.4569 27.42 31.4312 28.2857C31.3884 29.3143 31.4312 29.88 31.4569 30.3C31.4912 30.7029 31.5084 30.9514 31.4312 31.3457C31.2654 32.0693 30.9436 32.748 30.4884 33.3343C29.9398 34.1657 29.3741 35.0229 28.4226 35.3057C28.3369 35.3314 28.3369 35.3314 28.0798 35.3314C27.8655 35.3314 27.5055 35.3314 26.8284 35.3572C25.5941 35.4 24.9769 35.4172 24.4455 35.52C23.8884 35.6229 23.5884 35.7429 23.3141 35.8543C23.0569 35.9486 22.8169 36.0429 22.3541 36.1372C22.0798 36.1886 21.6684 36.2486 20.2712 36.2572C18.8141 36.2572 17.9398 36.2572 16.7826 36.1286C15.1884 35.9572 14.3912 35.8629 13.8684 35.5886C12.6169 34.9372 12.0855 33.7629 11.2112 31.8343V31.8172C11.1941 31.8 11.2284 31.7743 11.2455 31.7829C11.3239 31.8299 11.4117 31.8591 11.5026 31.8686C11.5961 31.8862 11.692 31.8862 11.7855 31.8686H11.7941C11.8112 31.8514 11.8284 31.8686 11.8369 31.8686C11.8884 32.0229 11.9741 32.16 12.1284 32.2372C12.2741 32.3143 12.4455 32.3229 12.6084 32.3143C12.7798 32.3143 12.9512 32.3057 13.1226 32.28C13.2084 32.28 13.2941 32.3143 13.3369 32.4C13.4912 32.7686 13.6798 33.0343 13.9712 33.0686H14.0312C14.0912 33.0686 14.1769 33.06 14.2884 32.9914C14.4255 32.9143 14.6312 32.9657 14.7426 33.0772C14.8026 33.1629 14.8712 33.2057 14.9312 33.2486C15.2312 33.5572 15.9598 33.6943 16.5598 33.6943C16.8941 33.6943 17.1855 33.6514 17.3655 33.5743C17.6141 33.4543 17.6141 33.2743 17.5969 33.1972L17.5455 32.8029C17.5455 32.7943 17.5626 32.7857 17.5712 32.8029C17.6055 32.88 17.6569 32.9743 17.7684 32.9914H17.8198C17.9912 32.9914 18.2484 33.0514 18.2912 33.2057C18.3169 33.2914 18.3512 33.3686 18.3941 33.4372C18.4969 33.5914 18.7026 33.78 19.1141 33.78H19.1484C19.6112 33.78 19.9798 33.6343 20.2198 33.3343L20.2712 33.2743C20.3569 33.1543 20.6141 33.1543 20.7341 33.2486C20.8073 33.3156 20.8945 33.3658 20.9893 33.3954C21.0841 33.425 21.1842 33.4334 21.2826 33.42C21.3873 33.4071 21.488 33.3722 21.5781 33.3175C21.6682 33.2628 21.7457 33.1897 21.8055 33.1029C21.8912 32.9829 21.9598 32.8372 22.0112 32.6743C22.0284 32.6229 22.0969 32.6143 22.1312 32.64C22.2169 32.7257 22.3626 32.8114 22.5684 32.8114C22.6198 32.8114 22.6798 32.8114 22.7398 32.7943C23.1426 32.7086 23.3484 32.3829 23.4426 32.0143C23.4426 31.9972 23.4684 31.9972 23.4769 32.0057C23.5798 32.1257 23.7684 32.2629 24.1026 32.2629H24.1541C24.3255 32.2629 24.4798 32.1857 24.5826 32.0486C24.7112 31.8943 24.7626 31.6543 24.7798 31.4229C24.7798 31.3372 24.8398 31.2514 24.9255 31.2172C25.2684 31.0714 25.6798 30.7714 25.7998 30.5657C25.8174 30.5332 25.8419 30.5049 25.8715 30.4827C25.9011 30.4605 25.9351 30.445 25.9712 30.4372C26.2284 30.3857 26.3484 30.3343 26.4512 30.2914C26.5369 30.2572 26.6055 30.2229 26.8112 30.1972C28.3798 29.9572 28.6884 29.9057 29.0226 29.6829C29.5369 29.3572 29.5626 28.9029 29.5884 28.4657C29.6055 28.0886 29.6312 27.6686 29.9312 27.1714L30.2912 26.52C30.5226 26.1172 30.8312 25.5429 31.0626 25.2343C31.1141 25.1657 31.2169 25.14 31.2941 25.1743C31.8255 25.3972 32.2798 25.62 32.3741 25.6886V25.6972Z" fill="white"/>
<path d="M17.1085 30.257C16.9908 31.2415 17.0197 32.2381 17.1942 33.2141C17.1256 33.257 16.9028 33.3084 16.5085 33.2999C15.9342 33.2999 15.3856 33.1541 15.2228 32.9827L15.1885 32.957C15.0513 32.8456 14.957 32.777 14.9485 32.5799C14.9485 32.5199 14.9742 32.4513 15.0342 32.3656L15.1713 32.177C15.257 32.0484 15.3856 31.8941 15.5056 31.697C15.7175 31.3312 15.9523 30.979 16.2085 30.6427C16.3113 30.5056 16.4313 30.3513 16.6028 30.0856C16.8064 29.7926 17.0238 29.5095 17.2542 29.237C17.2542 29.3313 17.2285 29.4599 17.2028 29.5799C17.177 29.7599 17.1342 29.9827 17.1085 30.2484V30.257ZM16.8428 22.0113V22.0284C16.757 22.1313 16.6713 22.2427 16.577 22.457C16.3028 23.0484 16.3028 23.3827 16.2942 23.6484C16.2942 23.7856 16.2942 23.9056 16.2513 24.0256L16.1313 24.3256C15.9685 24.6856 15.7628 25.1484 15.857 25.7827C15.7285 25.7227 15.5228 25.5856 15.497 25.5084L15.4799 25.4056C15.4285 25.2084 15.3942 25.0799 15.5313 24.797C15.749 24.3971 15.8941 23.9618 15.9599 23.5113C16.0285 23.2199 16.0713 22.9627 16.097 22.757C16.1399 22.4399 16.1742 22.2427 16.2856 22.0799C16.3199 22.0284 16.4313 21.9941 16.5942 21.9941C16.6542 21.9941 16.7228 21.9941 16.7999 22.0113H16.8428ZM16.397 29.4856C16.3852 29.3013 16.3477 29.1195 16.2856 28.9456L16.2513 28.8856L16.217 28.8256L16.1913 28.7999C16.1701 28.7807 16.1471 28.7635 16.1228 28.7484L16.0885 28.7227L16.0628 28.7141H16.0456V28.7056H16.037C15.9256 28.6627 15.8142 28.6199 15.6942 28.6027H15.5656L15.4799 28.6284L15.4542 28.6456L15.4199 28.6627L15.377 28.697C15.368 28.708 15.3594 28.7195 15.3513 28.7313L15.3428 28.7484C15.2002 28.9744 15.0486 29.1946 14.8885 29.4084L14.5885 29.8284L14.4256 30.0599C14.4256 30.077 14.4085 30.0856 14.3999 30.1027L14.597 30.137L15.0256 30.2056C15.3492 30.2513 15.6762 30.2685 16.0028 30.257C16.1566 30.0464 16.3052 29.8321 16.4485 29.6141C16.4213 29.576 16.4036 29.5319 16.397 29.4856ZM15.317 30.7113C15.0952 31.4822 14.6474 32.1689 14.0313 32.6827C13.8599 32.657 13.697 32.2541 13.5685 31.8599L13.4313 31.4056C13.3456 31.1056 13.3285 30.7027 13.3456 30.4541C13.6885 30.6341 14.2885 30.6856 15.1456 30.6941L15.317 30.7113ZM14.7085 28.8256L14.6999 28.8427C14.4718 29.1561 14.2489 29.4733 14.0313 29.7941L13.8856 29.9913L13.5256 29.9056C13.4091 29.8722 13.2946 29.8321 13.1828 29.7856C13.1668 29.7521 13.1434 29.7227 13.1142 29.6999L13.217 29.4941C13.2856 29.3656 13.3456 29.237 13.4228 29.1256C13.551 28.8821 13.7363 28.6733 13.9628 28.517C14.0485 28.4656 14.1342 28.4313 14.237 28.4141H14.3913L14.4685 28.4399L14.4942 28.457L14.5628 28.4999L14.6056 28.5427C14.6742 28.6284 14.6913 28.7141 14.7085 28.8256ZM13.5513 28.2256C13.277 28.4484 13.0799 28.7399 12.917 29.0399L12.6599 29.5456L12.6256 29.597C12.4178 29.5496 12.2164 29.4776 12.0256 29.3827C12.223 29.0234 12.4555 28.6846 12.7199 28.3713C12.7713 28.3027 12.8313 28.2256 12.917 28.1827C13.0028 28.1399 13.097 28.1484 13.1913 28.1484C13.2942 28.157 13.397 28.157 13.4913 28.1999C13.5121 28.2065 13.5322 28.2151 13.5513 28.2256ZM13.1142 31.7741C13.1039 31.7873 13.0953 31.8017 13.0885 31.817H13.0628C12.8692 31.8373 12.6745 31.8458 12.4799 31.8427C12.4113 31.8427 12.3428 31.8341 12.317 31.7827C12.2742 31.7141 12.257 31.5941 12.2313 31.4999C12.1522 31.0468 12.1435 30.5842 12.2056 30.1284C12.4456 30.2141 12.6942 30.2741 12.9513 30.317C12.9123 30.8093 12.9706 31.3044 13.1228 31.7741H13.1142ZM12.3428 28.0799C12.1285 28.337 11.9313 28.6113 11.7599 28.8941C11.6828 29.0056 11.6056 29.1256 11.5456 29.2456C11.4599 29.2284 11.3828 29.1941 11.3056 29.1427L11.1256 29.0227L11.0399 28.9541L11.0228 28.9456L11.1085 28.7913C11.238 28.5164 11.3991 28.2575 11.5885 28.0199C11.6313 27.9599 11.6742 27.8827 11.7513 27.8656C11.8613 27.8469 11.9743 27.8568 12.0793 27.8944C12.1844 27.9319 12.278 27.9957 12.3513 28.0799H12.3428ZM10.6885 29.1941H10.7228C10.7742 29.2713 10.8513 29.3313 10.937 29.3999L11.0485 29.4856V29.4941C10.9628 29.837 10.9113 30.2141 10.9028 30.5827C10.9028 30.5999 10.877 30.5999 10.8685 30.5827C10.7367 30.1322 10.6788 29.6632 10.697 29.1941H10.6885ZM11.7428 29.9741C11.6733 30.4574 11.6733 30.9481 11.7428 31.4313C11.7031 31.4239 11.6624 31.4239 11.6228 31.4313L11.597 31.4227H11.5799L11.4942 31.3799C11.4417 31.3442 11.3978 31.2974 11.3656 31.2427C11.2901 31.0941 11.2519 30.9294 11.2542 30.7627C11.2456 30.437 11.2713 30.1113 11.3399 29.8027L11.5113 29.8713L11.7428 29.9741Z" fill="white"/>
<path d="M37.1741 -2.86268C35.5455 -3.25696 33.8141 -3.66839 31.8084 -3.75411C29.4769 -3.85696 26.7769 -3.52268 23.3741 -2.22839C21.1284 -1.37982 18.9769 -1.49982 16.7569 -1.62839C14.5455 -1.75696 12.2741 -1.88553 9.91694 -0.951249C4.1998 1.28589 1.77408 4.44875 0.942654 7.92875C0.46302 10.1733 -0.367153 12.3283 -1.51735 14.3145C-2.42132 15.8676 -3.10773 17.5375 -3.55735 19.2773C-3.7802 20.023 -3.93449 20.5545 -4.14878 21.0516C-4.43163 21.7288 -4.80878 22.3373 -5.58878 23.3145C-7.88592 26.1773 -8.06592 28.6802 -8.06592 31.5859C-8.06592 32.4173 -7.81735 33.4887 -7.55163 34.4487L-7.17449 35.7259C-7.03735 36.1716 -6.91735 36.5487 -6.85735 36.8402C-6.27842 39.2635 -5.22222 41.5471 -3.75049 43.5575C-2.27877 45.5678 -0.421041 47.2647 1.71408 48.5487C6.21408 51.3602 11.1769 52.6288 16.8855 52.6288C19.3527 52.6415 21.8146 52.3973 24.2312 51.9002C25.4998 51.6687 26.5455 51.4716 27.6855 51.4716C30.5398 51.4716 34.5598 50.923 37.4655 49.123C40.2169 47.4259 41.7684 45.2402 43.3198 43.0545L43.5684 42.7116C44.3055 41.6745 44.6998 41.1088 45.1027 40.2773C45.4884 39.4545 45.8741 38.3745 46.6112 36.3002L46.6284 36.2316C47.2969 34.3459 47.5798 33.5402 47.9827 32.9059C48.3255 32.3659 48.7541 31.963 49.6198 31.1488L50.1169 30.6773C51.065 29.7565 51.7563 28.6043 52.1227 27.3345C52.2598 26.9573 52.3798 26.5545 52.5169 26.1259C52.8341 25.1059 53.2027 23.9402 53.8027 22.5173C55.0112 19.603 55.5169 17.6745 55.0198 14.8459C54.4198 11.4002 54.0084 9.65161 52.5512 7.79161L52.2684 7.42304C51.5569 6.51447 51.1369 5.97447 50.6569 5.45161C50.1255 4.85161 49.5084 4.26875 48.3169 3.15447C45.3255 0.351609 41.8027 -1.79125 37.9627 -2.67411L37.1912 -2.86268H37.1741ZM23.6141 -1.58553C26.2039 -2.64361 28.9862 -3.1487 31.7827 -3.06839C33.7112 -2.98268 35.3741 -2.58839 37.0112 -2.20268L37.7998 -2.01411C41.5027 -1.15696 44.9141 0.908751 47.8455 3.65161C49.0455 4.76589 49.6284 5.34018 50.1427 5.90589C50.5969 6.42018 50.9998 6.93447 51.7198 7.85161L52.0027 8.21161C53.3484 9.92589 53.7341 11.5116 54.3341 14.9659C54.7969 17.6059 54.3427 19.3973 53.1598 22.2516C52.664 23.4614 52.2263 24.6942 51.8484 25.9459C51.7112 26.3745 51.5912 26.7602 51.4627 27.1202C51.1314 28.282 50.502 29.3369 49.6369 30.1802L49.1569 30.643C48.2912 31.4573 47.7855 31.9287 47.3998 32.5373C46.9541 33.2316 46.6369 34.123 46.0198 35.8802L45.9512 36.0688C45.5184 37.3941 45.0236 38.6984 44.4684 39.9773C44.1084 40.7487 43.7398 41.263 42.9941 42.3088L42.7627 42.643C41.2027 44.8373 39.7284 46.9202 37.1055 48.5402C34.3455 50.2459 30.4798 50.7945 27.6769 50.7945C26.4769 50.7945 25.3627 51.0002 24.0855 51.223L23.2798 51.3773C21.6512 51.6602 19.6798 51.943 16.8855 51.943C11.2798 51.943 6.43694 50.7002 2.06551 47.9659C0.0107799 46.7276 -1.77665 45.0924 -3.1924 43.1556C-4.60816 41.2189 -5.62386 39.0195 -6.1802 36.6859C-6.24878 36.3945 -6.37735 35.9745 -6.52306 35.4945L-6.88306 34.2773C-7.15498 33.4064 -7.31906 32.5054 -7.37163 31.5945C-7.37163 28.7402 -7.2002 26.4345 -5.04878 23.7516C-4.41801 23.0233 -3.89813 22.2059 -3.50592 21.3259C-3.28306 20.7945 -3.11163 20.2116 -2.8802 19.4402L-2.58878 18.463C-2.08306 16.8345 -1.51735 15.7802 -0.908775 14.6573L-0.565918 14.0145C0.440594 12.1503 1.17929 10.1535 1.62837 8.08304C2.38265 4.86875 4.62837 1.86875 10.1741 -0.316963C12.3769 -1.17411 14.5027 -1.07125 16.7227 -0.942677H16.7741C18.9684 -0.814106 21.2484 -0.685534 23.6227 -1.58553H23.6141ZM36.6769 -1.21696L37.4055 -1.04553C40.9884 -0.222677 44.2712 1.74875 47.0569 4.33732C47.8143 5.01566 48.5435 5.72483 49.2427 6.46304C49.6884 6.95161 50.0741 7.44018 50.7341 8.28875L51.0084 8.63161C52.3712 10.3459 52.7484 11.9659 53.3141 15.1459C53.7684 17.7688 53.2969 19.5602 52.1741 22.243C51.6169 23.563 51.2741 24.643 50.9741 25.5687L50.6141 26.7002C50.2678 27.8747 49.6208 28.9384 48.7369 29.7859L48.2741 30.223C47.4598 30.9773 47.0741 31.3459 46.7484 31.843C46.3798 32.4173 46.1141 33.163 45.4884 34.9116L45.4712 34.963C44.7855 36.8745 44.4341 37.8773 44.0655 38.6402C43.6062 39.5551 43.0487 40.4174 42.4027 41.2116C40.9627 43.2259 39.5141 45.2402 36.9427 46.8259C34.2341 48.4888 30.4884 48.9945 27.8227 48.9945C26.7684 48.9945 25.7912 49.1659 24.6169 49.3802L23.8455 49.5173C21.8405 49.8822 19.8063 50.0629 17.7684 50.0573C12.4455 50.0573 7.81694 48.883 3.62551 46.2859C1.64177 45.1034 -0.0859016 43.5367 -1.45621 41.6778C-2.82651 39.8188 -3.81187 37.705 -4.35449 35.4602L-4.65449 34.4316C-4.76592 34.0887 -4.88592 33.6859 -4.99735 33.2573C-5.27078 32.3955 -5.43492 31.5029 -5.48592 30.6002C-5.48592 27.9259 -5.31449 25.603 -3.17163 22.9545C-2.24033 21.8927 -1.59177 20.6133 -1.28592 19.2345L-1.00306 18.2916C-0.51449 16.7145 0.0512244 15.6859 0.62551 14.6573L0.934082 14.0745C1.83958 12.4053 2.50336 10.616 2.90551 8.76018C3.66837 5.54589 5.94837 2.63161 11.2712 0.557323C13.4741 -0.29982 15.5912 -0.188391 17.6484 -0.0683915C19.7227 0.0430371 21.7198 0.154466 23.8027 -0.625534C26.3004 -1.63193 28.9795 -2.11054 31.6712 -2.03125C33.5398 -1.94553 35.1512 -1.56839 36.6769 -1.20839V-1.21696ZM31.6455 -1.35411C29.5627 -1.43982 27.1369 -1.14839 24.0512 0.0173227C21.8227 0.84018 19.7055 0.72018 17.6655 0.608751H17.6141C15.5398 0.488751 13.5598 0.385894 11.5198 1.18304C6.3598 3.19732 4.27694 5.95732 3.57408 8.91446C3.1597 10.8299 2.47574 12.6768 1.54265 14.4002L1.21694 15.0002C0.651225 16.0116 0.119797 16.9802 -0.343061 18.4888L-0.617347 19.3888C-0.946848 20.8684 -1.64237 22.2418 -2.6402 23.383C-4.63735 25.843 -4.8002 27.9687 -4.8002 30.5916C-4.8002 31.2687 -4.59449 32.1773 -4.34592 33.0688L-4.00306 34.1916C-3.87449 34.6287 -3.75449 35.023 -3.69449 35.2887C-3.17346 37.4468 -2.22644 39.479 -0.909057 41.2659C0.40833 43.0528 2.06952 44.5585 3.97694 45.6945C8.04837 48.2145 12.5484 49.363 17.7684 49.363C20.3741 49.363 22.2084 49.1059 23.7255 48.8402L24.4712 48.703C25.6541 48.4887 26.6998 48.3002 27.8227 48.3002C30.4369 48.3002 34.0284 47.7945 36.5912 46.2259C39.0341 44.7259 40.4055 42.8059 41.8627 40.783L42.0769 40.483C42.7627 39.5145 43.1055 39.043 43.4484 38.3402C43.7912 37.6116 44.1341 36.6516 44.8198 34.723L44.8884 34.5516C45.4627 32.923 45.7541 32.1087 46.1741 31.4659C46.5427 30.8916 47.0141 30.4545 47.8112 29.7088L48.2655 29.2802C49.0692 28.5056 49.6545 27.533 49.9627 26.4602L50.3141 25.3887C50.6141 24.4459 50.9741 23.3145 51.5398 21.9688C52.6455 19.3459 53.0655 17.6916 52.6369 15.2573C52.0798 12.0773 51.7112 10.6202 50.4684 9.04304L50.2027 8.70018C49.7353 8.08875 49.2464 7.49409 48.7369 6.91732C48.2569 6.38589 47.7084 5.87161 46.5941 4.83447C43.8684 2.30589 40.6884 0.403037 37.2512 -0.394106L36.5141 -0.565534C34.9884 -0.925534 33.4455 -1.28553 31.6455 -1.36268V-1.35411ZM36.2312 0.60018L35.5712 0.428751C34.1827 0.0944656 32.7084 -0.256963 30.9941 -0.342677C29.0055 -0.428391 26.7084 -0.128391 23.8112 0.977323C21.9255 1.70589 20.0998 1.60304 18.2141 1.49161C16.3369 1.38875 14.3912 1.27732 12.3855 2.08304C7.50837 4.02875 5.42551 6.75446 4.73123 9.77161C4.32582 11.6972 3.62312 13.5479 2.64837 15.2573C1.87666 16.6004 1.29128 18.0422 0.908367 19.543C0.634673 20.8222 0.0453605 22.0126 -0.805918 23.0059C-2.76877 25.4916 -2.92306 27.6602 -2.92306 30.163C-2.92306 30.8916 -2.70878 31.8173 -2.48592 32.6488L-2.16877 33.7459C-2.04877 34.1316 -1.95449 34.4573 -1.89449 34.6973C-0.805918 39.3259 1.96265 42.6516 5.39122 44.8202C9.22265 47.2459 13.4484 48.343 18.3084 48.343C20.4103 48.3555 22.5077 48.1458 24.5655 47.7173C25.6369 47.5116 26.5198 47.3488 27.4798 47.3488C29.9141 47.3488 33.3341 46.8773 35.8112 45.3173C38.1598 43.843 39.4798 41.9573 40.7998 40.0802V40.0716L41.0055 39.7716C41.5073 39.1141 41.9464 38.411 42.3169 37.6716C42.6512 36.9602 42.9769 36.0259 43.6027 34.243L43.6112 34.1916C44.1855 32.563 44.4255 31.8687 44.7598 31.3287C45.0512 30.8745 45.4112 30.5316 46.1484 29.8202L46.5769 29.4173C47.3858 28.6148 47.9733 27.6168 48.2827 26.5202L48.6255 25.4659C48.8827 24.6002 49.1998 23.5973 49.7055 22.363C50.7341 19.8602 51.1627 18.1888 50.7427 15.7373C50.2369 12.763 49.8855 11.2545 48.6427 9.64304L48.3941 9.32589C47.7941 8.53732 47.4341 8.07447 47.0227 7.61161C46.5684 7.09732 46.0541 6.60018 45.0427 5.64018C42.5055 3.22304 39.5055 1.37161 36.2227 0.60018H36.2312ZM24.0598 1.62875C26.2474 0.72333 28.6018 0.291005 30.9684 0.36018C32.5969 0.428751 34.0112 0.771608 35.3998 1.10589L36.0684 1.26875C39.2055 1.99732 42.0941 3.78018 44.5798 6.13732C45.2544 6.75631 45.9036 7.40256 46.5255 8.07447C46.9112 8.51161 47.2541 8.94875 47.8627 9.74589L48.1112 10.0545C49.2341 11.5202 49.5684 12.883 50.0827 15.8488C50.4684 18.1202 50.0827 19.6545 49.0798 22.1059C48.5655 23.3659 48.2398 24.4202 47.9655 25.2945L47.6398 26.3059C47.3169 27.4853 46.6373 28.5362 45.6941 29.3145C44.9569 30.0173 44.5284 30.4287 44.1855 30.9602C43.8084 31.5602 43.5427 32.3316 43.0198 33.8488L42.9598 34.0202C42.3341 35.8202 42.0169 36.7116 41.6998 37.3802C41.3487 38.0832 40.9326 38.7518 40.4569 39.3773L40.2598 39.6602C38.9312 41.5459 37.6884 43.3459 35.4598 44.7345C33.1369 46.1916 29.8627 46.663 27.4884 46.663C26.4598 46.663 25.4998 46.843 24.4284 47.0402L23.7427 47.1687C21.9533 47.5007 20.1368 47.6642 18.3169 47.6573C13.5684 47.6573 9.47122 46.5945 5.7598 44.2459C4.01248 43.1709 2.49599 41.7597 1.29828 40.0941C0.100581 38.4285 -0.754494 36.5417 -1.21735 34.543C-1.27735 34.2859 -1.38878 33.9259 -1.50878 33.5145C-1.61163 33.1802 -1.71449 32.8288 -1.80877 32.4688C-2.0402 31.6373 -2.22878 30.7887 -2.22878 30.163C-2.22878 27.7116 -2.07449 25.7316 -0.257347 23.443C0.280623 22.8081 0.722476 22.0977 1.05408 21.3345C1.24265 20.8716 1.39694 20.3659 1.58551 19.7059L1.83408 18.8659C2.26265 17.4602 2.74265 16.5602 3.25694 15.6002L3.54837 15.043C4.18265 13.8345 4.82551 12.4288 5.40837 9.92589C6.04265 7.17447 7.93694 4.60304 12.6341 2.72589C14.4855 1.98018 16.2855 2.08304 18.1712 2.18589H18.2227C20.0827 2.29732 22.0284 2.40875 24.0512 1.62875H24.0598ZM34.7741 2.10875L35.3741 2.25447C38.3655 2.98304 41.0998 4.71446 43.4227 6.98589C44.0506 7.58096 44.654 8.20148 45.2312 8.84589C45.6084 9.27446 45.9341 9.70304 46.4827 10.4402L46.7055 10.7402C47.8455 12.2573 48.1627 13.6802 48.6255 16.4659C49.0112 18.763 48.6169 20.3402 47.6827 22.6888C47.3058 23.6441 46.974 24.6166 46.6884 25.603L46.3712 26.5716C46.0466 27.7768 45.369 28.8574 44.4255 29.6745C43.9462 30.0888 43.5201 30.561 43.1569 31.0802C42.8569 31.5859 42.6341 32.2373 42.1198 33.7716L42.1027 33.8059C41.5369 35.4859 41.2455 36.3602 40.9369 37.0288C40.6284 37.7059 40.3112 38.1687 39.7369 39.0002L39.5484 39.283C38.3484 41.0488 37.1484 42.823 35.0055 44.203C32.7341 45.6687 29.6055 46.123 27.3855 46.123C26.5112 46.123 25.7141 46.2687 24.7284 46.4659L24.0855 46.5773C22.8084 46.8173 21.2484 47.0487 19.0284 47.0487C14.5884 47.0487 10.7312 46.0202 7.23408 43.7402C3.85206 41.5803 1.4635 38.1685 0.591224 34.2516C0.539796 34.0202 0.454082 33.7116 0.351225 33.3516L0.059796 32.323C-0.145918 31.5516 -0.343061 30.6773 -0.343061 29.9916C-0.343061 27.643 -0.205918 25.6116 1.58551 23.2802C2.365 22.3455 2.90095 21.2324 3.14551 20.0402L3.38551 19.2088C3.71943 18.1011 4.17055 17.0322 4.73123 16.0202L4.98837 15.5059C5.7449 14.0451 6.29857 12.4878 6.63408 10.8773C7.26837 8.04875 9.17123 5.47732 13.6112 3.65161C15.4541 2.89732 17.2369 3.00018 18.9341 3.10304H18.9427C20.6655 3.20589 22.3112 3.30018 24.0255 2.62304C26.0989 1.741 28.3391 1.31986 30.5912 1.38875C32.1512 1.45732 33.5055 1.79161 34.7655 2.10875H34.7741ZM30.5655 2.07447C28.8512 1.98875 26.8369 2.24589 24.2827 3.25732C22.4227 3.99447 20.6398 3.89161 18.9512 3.78875H18.8998C17.1855 3.68589 15.5569 3.60018 13.8684 4.28589C9.5998 6.04304 7.87694 8.44304 7.30265 11.023C6.95755 12.6927 6.38658 14.3075 5.60551 15.823L5.3398 16.3373C4.86837 17.2459 4.43122 18.0945 4.04551 19.4059L3.81408 20.1859C3.54842 21.4782 2.96848 22.6852 2.12551 23.7002C0.479796 25.843 0.342653 27.6859 0.342653 29.9916C0.342653 30.5745 0.514082 31.363 0.719796 32.143C0.805511 32.4859 0.908368 32.8202 0.994082 33.1288C1.10551 33.5145 1.20837 33.8573 1.2598 34.0973C1.67116 35.9553 2.44457 37.714 3.53584 39.2729C4.62712 40.8319 6.01486 42.1606 7.6198 43.183C10.9884 45.3773 14.7169 46.3716 19.0369 46.3716C21.1969 46.3716 22.7227 46.1402 23.9741 45.9088L24.5912 45.7973C25.5121 45.5907 26.4507 45.4731 27.3941 45.4459C29.5541 45.4459 32.5284 45.0002 34.6369 43.6459C36.6598 42.3345 37.7998 40.663 39.0084 38.8887L39.1798 38.6316C39.7541 37.7745 40.0369 37.3716 40.3198 36.7459C40.6027 36.1202 40.8941 35.2888 41.4598 33.6002L41.5112 33.4459C41.9912 32.023 42.2398 31.303 42.5827 30.7373C42.8912 30.223 43.2855 29.8459 43.9541 29.1945L44.3312 28.8173C44.9993 28.1334 45.4804 27.2892 45.7284 26.3659L46.0198 25.423C46.2769 24.6002 46.5684 23.623 47.0484 22.4316C47.9569 20.1345 48.2998 18.703 47.9484 16.5773C47.4855 13.7916 47.1769 12.523 46.1484 11.1516L45.9341 10.8602C45.3769 10.1145 45.0769 9.70304 44.7169 9.29161C44.3227 8.83732 43.8598 8.38304 42.9427 7.47447C40.6798 5.27161 38.0569 3.60875 35.2027 2.92304L34.5941 2.76875C33.3255 2.45161 32.0484 2.13447 30.5655 2.07447ZM33.8141 3.81447C32.6398 3.52304 31.3969 3.21447 29.9569 3.15447C28.2684 3.06875 26.3312 3.32589 23.8798 4.29447C22.3027 4.92018 20.7941 4.82589 19.1998 4.73161C17.6227 4.64589 15.9769 4.54304 14.2712 5.24589C10.1569 6.93447 8.3998 9.30018 7.80837 11.9316C7.50215 13.4165 6.99461 14.8526 6.2998 16.2002L6.0598 16.663C5.63122 17.503 5.18551 18.343 4.81694 19.6202L4.59408 20.383C4.36841 21.4812 3.87361 22.5061 3.15408 23.3659C1.4998 25.5173 1.37123 27.403 1.37123 29.5716C1.37123 30.2059 1.55122 31.0116 1.7398 31.7316L2.01408 32.6745L2.23694 33.5059C3.04171 37.1325 5.25183 40.2921 8.38265 42.2916C11.6141 44.3916 15.1884 45.343 19.2855 45.343C21.3341 45.343 22.7827 45.1288 23.9655 44.9145L24.5569 44.7945C25.4569 44.623 26.1941 44.4859 26.9998 44.4859C29.0569 44.4859 31.9455 44.0745 34.0455 42.7202C36.0169 41.4345 37.1398 39.7973 38.2455 38.1773L38.4255 37.9116C38.9484 37.1402 39.2398 36.7116 39.5312 36.0859C39.8141 35.4687 40.0884 34.6545 40.6112 33.1116L40.6198 33.0773C41.0998 31.6545 41.3055 31.063 41.5798 30.6002C41.8198 30.2059 42.1198 29.9145 42.7455 29.3145V29.3059L43.0969 28.963C43.8684 28.1916 44.2369 27.3945 44.5541 26.4345L44.8369 25.5259C45.0598 24.763 45.3255 23.8973 45.7455 22.843C46.6112 20.6745 46.9798 19.2173 46.6198 17.083C46.1912 14.5116 45.8998 13.2002 44.8455 11.7945L44.6398 11.5202C44.1255 10.8345 43.8341 10.4402 43.4912 10.0459C43.1055 9.60018 42.6598 9.15447 41.8112 8.33161C39.6684 6.23161 37.1312 4.62018 34.3627 3.96018L33.8141 3.81447ZM24.1284 4.92875C25.9574 4.14719 27.9345 3.77282 29.9227 3.83161C31.2941 3.90018 32.4684 4.19161 33.6427 4.48304L34.2084 4.62018C36.8227 5.25447 39.2484 6.78018 41.3312 8.82018C42.1884 9.65161 42.6084 10.0716 42.9684 10.4916C43.2941 10.8688 43.5769 11.2459 44.0912 11.9316L44.2969 12.2059C45.2398 13.4659 45.5227 14.623 45.9512 17.203C46.2684 19.1488 45.9512 20.4688 45.1112 22.5859C44.7543 23.4937 44.4397 24.4175 44.1684 25.3545L43.9027 26.2116C43.6759 27.0639 43.2331 27.8434 42.6169 28.4745L42.2741 28.8173C41.7909 29.2367 41.3619 29.7147 40.9969 30.2402C40.6798 30.7716 40.4484 31.4402 40.0112 32.743L39.9598 32.8887C39.6529 33.8757 39.3011 34.8481 38.9055 35.803C38.6484 36.3602 38.3912 36.7459 37.8598 37.5173L37.6884 37.7659C36.5741 39.3945 35.5369 40.9373 33.6684 42.1373C31.7312 43.3973 28.9884 43.8002 26.9998 43.8002C26.1255 43.8002 25.3198 43.9545 24.4112 44.1259L23.8369 44.2373C22.6798 44.443 21.2827 44.6573 19.2855 44.6573C15.2998 44.6573 11.8627 43.7402 8.7598 41.7087C5.9998 39.9087 3.78837 37.1659 2.90551 33.3516C2.85408 33.1288 2.7598 32.8116 2.65694 32.4602L2.3998 31.5516C2.20827 30.9073 2.0932 30.2428 2.05694 29.5716C2.05694 27.4545 2.18551 25.7573 3.70265 23.7773C4.47976 22.8411 5.0154 21.7286 5.26265 20.5373L5.46837 19.8088C5.82837 18.6088 6.23123 17.8288 6.66837 16.9888L6.91694 16.5088C7.63556 15.1092 8.16038 13.6184 8.47694 12.0773C9.00837 9.70304 10.5941 7.50018 14.5284 5.88018C16.0712 5.24589 17.5712 5.32304 19.1569 5.41732H19.2084C20.7684 5.51161 22.4141 5.61447 24.1369 4.92875H24.1284ZM23.8712 6.11161C28.2598 4.35447 32.3998 5.10018 34.8255 5.69161C37.1569 6.26589 38.8369 7.93732 40.5512 9.63446L40.9541 10.0459C41.3312 10.4145 41.6141 10.663 41.8455 10.8688L41.9141 10.9288L41.9827 10.9802L42.4455 11.4002C42.8055 11.7602 43.0884 12.1716 43.5855 13.123C43.7227 13.3802 43.8598 13.6116 44.0055 13.843C44.5798 14.8116 45.1712 15.7802 44.9141 17.6145C44.8455 18.0773 44.8284 18.4716 44.7941 18.883C44.7255 20.0573 44.6484 21.2316 43.5941 23.7088C42.4284 26.4516 41.4255 28.0545 40.0969 29.383C39.7198 29.7687 39.5227 29.983 39.4198 30.1545C39.3505 30.2525 39.3117 30.3688 39.3084 30.4888V30.6259C39.2998 30.763 39.2912 30.9688 39.2569 31.2088C39.2141 31.5516 39.1198 32.023 38.8969 32.683C38.4341 34.0802 38.1255 34.9287 37.8169 35.5973C37.4998 36.283 37.1827 36.7716 36.7112 37.483C35.6227 39.0945 34.5684 39.823 32.7598 40.9973C30.8741 42.2316 27.9855 42.7716 26.1427 42.7716C25.4398 42.7716 24.8741 42.9087 24.1541 43.0802L23.6827 43.1916C22.7312 43.4059 21.5484 43.6288 19.7141 43.6288C16.0798 43.6288 12.1455 42.9173 9.2398 40.9973C7.92837 40.1402 6.65122 38.7173 5.60551 37.0802C4.54403 35.4425 3.76735 33.637 3.30837 31.7402C2.95889 30.4723 2.93531 29.1367 3.2398 27.8573C3.3598 27.2488 3.44551 26.7859 3.59123 26.3573C3.80551 25.7316 4.15694 25.1573 4.87694 24.2145C5.66551 23.1688 5.92265 22.243 6.27408 20.9402L6.53122 20.0488C6.86551 18.9002 7.30265 18.0088 7.75694 17.1002L8.01408 16.5859C8.69597 15.2448 9.20296 13.8217 9.52265 12.3516C9.7798 11.1602 10.3198 10.1916 11.2541 9.31732C12.1798 8.46018 13.4827 7.72304 15.2998 6.96875C16.8255 6.33447 18.2998 6.42018 19.7055 6.50589H19.7141C21.1369 6.59161 22.4741 6.66875 23.8712 6.11161ZM34.6627 6.36018C32.2798 5.77732 28.3112 5.07447 24.1198 6.74589C22.5769 7.36304 21.1027 7.27732 19.7141 7.19161H19.6712C18.2569 7.10589 16.9284 7.03732 15.5569 7.60304C13.7827 8.34018 12.5569 9.04304 11.7169 9.82304C10.8941 10.5945 10.4312 11.443 10.1912 12.5059C9.76265 14.4688 9.18837 15.763 8.63122 16.8773L8.37408 17.4173C7.91123 18.3259 7.4998 19.1488 7.18265 20.2459L6.95123 21.0945C6.59123 22.4059 6.2998 23.4773 5.40837 24.6345C4.91739 25.2159 4.52373 25.873 4.24265 26.5802C4.10551 26.9573 4.03694 27.3516 3.92551 27.9259L3.76265 28.783C3.64741 29.7251 3.72025 30.6807 3.97694 31.5945C4.41807 33.412 5.16282 35.142 6.1798 36.7116C7.06381 38.17 8.23282 39.4353 9.61694 40.4316C12.3598 42.2402 16.1398 42.943 19.7141 42.943C21.4884 42.943 22.6112 42.7373 23.5284 42.523L23.9741 42.4202C24.6941 42.2488 25.3455 42.0859 26.1427 42.0859C27.9084 42.0859 30.6598 41.5545 32.3827 40.4316C34.1827 39.2487 35.1427 38.5802 36.1455 37.0888C36.6084 36.403 36.8998 35.9402 37.1912 35.3145C37.4827 34.6802 37.7827 33.8573 38.2455 32.4602C38.4452 31.8785 38.5691 31.2735 38.6141 30.6602L38.6227 30.4373C38.6398 30.2145 38.6827 30.0173 38.8455 29.7687C39.0741 29.4559 39.3325 29.166 39.6169 28.903C40.8598 27.6602 41.8198 26.143 42.9684 23.4345C43.6563 22.0085 44.0443 20.4564 44.1084 18.8745C44.1341 18.463 44.1598 18.0345 44.2284 17.5202C44.4512 15.943 44.0055 15.1888 43.4484 14.263C43.2941 14.0059 43.1398 13.7488 42.9855 13.4402C42.7298 12.8702 42.3824 12.3461 41.9569 11.8888L41.5455 11.5116H41.5369V11.503C41.4855 11.4688 41.4512 11.4173 41.3912 11.383C41.1512 11.1773 40.8598 10.9116 40.4741 10.5259L40.1141 10.1745L40.1055 10.1659C38.3484 8.41732 36.8055 6.88304 34.6627 6.36018ZM33.9427 7.38875L33.6855 7.32018C32.2871 6.93626 30.8546 6.68938 29.4084 6.58304C27.6084 6.48875 25.6112 6.72875 23.8198 7.85161C22.7055 8.53732 21.5655 8.40875 20.2712 8.17732L20.0312 8.14304C18.8312 7.92875 17.4941 7.68875 16.1484 8.25447C14.5027 8.94018 13.4055 9.60018 12.6427 10.3888C11.9153 11.1758 11.4276 12.1541 11.2369 13.2088C10.6027 15.9516 9.86551 17.323 9.29123 18.3173L9.17123 18.523C8.6398 19.4316 8.22837 20.1516 8.22837 21.4288C8.22837 22.603 7.7998 23.1259 7.1398 23.9487C6.96837 24.1545 6.7798 24.3859 6.58265 24.6516C6.27408 25.0716 6.03408 25.3288 5.86265 25.5173L5.8198 25.5602L5.79408 25.5859C5.64837 25.7402 5.5198 25.8859 5.41694 26.0402C5.29694 26.2459 5.22837 26.4602 5.17694 26.7602C4.96047 28.2856 4.98071 29.8352 5.23694 31.3545C5.98265 34.6802 8.15122 38.1259 10.5255 39.7116C13.1827 41.4859 16.8512 41.9145 20.1427 41.9145C21.8398 41.9145 22.8598 41.5802 23.6741 41.2459L24.0855 41.0745C24.6769 40.8173 25.1141 40.6288 25.7141 40.6288L26.4427 40.6373C27.0684 40.6545 27.7541 40.663 28.4227 40.6116C29.431 40.5646 30.4105 40.2607 31.2684 39.7287C31.6627 39.4716 31.9969 39.2659 32.2969 39.0859C33.2228 38.6212 34.0072 37.9167 34.5684 37.0459L35.0741 36.3259C36.0061 35.1003 36.7195 33.7229 37.1827 32.2545C37.4655 31.3973 37.4741 30.7288 37.4741 30.2316L37.4827 29.8716C37.4998 29.6145 37.5341 29.4087 37.6455 29.2287C37.7484 29.0402 37.9455 28.8259 38.3312 28.5688C39.1969 28.003 39.5741 27.5402 39.9341 26.9402L40.1912 26.5116C40.4741 26.023 40.7998 25.4487 41.4169 24.6345C42.1193 23.7225 42.5314 22.6206 42.5998 21.4716L42.6427 20.7859V20.6916L42.6769 20.143C42.7027 19.723 42.7627 19.3459 42.8827 18.9773C43.4655 17.2288 42.9512 15.6688 42.3084 14.4173C41.6227 13.0888 41.0055 12.5316 40.1998 11.803C39.9084 11.5459 39.5998 11.2545 39.2398 10.903C37.5255 9.18875 36.2227 7.94589 33.9427 7.38875ZM24.1712 8.42589C25.7998 7.39732 27.6427 7.16589 29.3655 7.26018C30.9684 7.34589 32.4341 7.70589 33.5227 7.98018L33.7627 8.04018C35.8541 8.55447 37.0369 9.66875 38.7512 11.383C39.1455 11.7773 39.4884 12.0859 39.7798 12.3516C40.5512 13.0545 41.0655 13.5088 41.6827 14.7173C42.2998 15.9173 42.7198 17.2545 42.2227 18.7459C42.0854 19.1794 42.0047 19.6288 41.9827 20.083L41.9569 20.6488L41.9484 20.743C41.9398 20.9659 41.9312 21.1888 41.9055 21.4116C41.8476 22.43 41.4831 23.407 40.8598 24.2145C40.2169 25.063 39.8569 25.6888 39.5741 26.1773L39.3427 26.5802C39.0255 27.0945 38.7169 27.4802 37.9455 27.9945C37.5084 28.2773 37.2169 28.5602 37.0369 28.8773C36.8655 29.1945 36.8055 29.5116 36.7884 29.8202V30.2488C36.7798 30.7459 36.7712 31.2773 36.5312 32.023C36.0907 33.4246 35.409 34.7386 34.5169 35.9059L33.9941 36.6602C33.5076 37.4259 32.8196 38.0427 32.0055 38.443C31.6969 38.6316 31.3284 38.8545 30.8827 39.1459C30.1284 39.643 29.2541 39.8487 28.3627 39.9173C27.7284 39.9687 27.1027 39.9602 26.4941 39.943H25.7141C24.9598 39.943 24.3769 40.2002 23.7769 40.4573L23.4084 40.6116C22.6627 40.9202 21.7284 41.2287 20.1427 41.2287C16.8769 41.2287 13.3884 40.8002 10.9027 39.1459C8.6998 37.6716 6.61694 34.3887 5.90551 31.2088C5.66948 29.7739 5.65214 28.3116 5.85408 26.8716C5.89694 26.6145 5.9398 26.4945 5.9998 26.4002C6.0598 26.3145 6.14551 26.2287 6.29123 26.0573L6.3598 25.9888C6.54837 25.783 6.79694 25.5002 7.13122 25.063L7.62837 24.4373C8.31408 23.5973 8.91408 22.8688 8.91408 21.4288C8.91408 20.3316 9.2398 19.7659 9.77122 18.8573L9.88265 18.6602C10.4827 17.623 11.2541 16.1916 11.9055 13.363C12.0702 12.4308 12.4985 11.5652 13.1398 10.8688C13.7998 10.183 14.8027 9.56589 16.4227 8.88875C17.5712 8.40018 18.7112 8.60589 19.9541 8.82018L20.1512 8.85447C21.4369 9.07732 22.8255 9.28304 24.1798 8.42589H24.1712ZM29.1169 8.53732C30.2925 8.38 31.4862 8.42056 32.6484 8.65732C34.6541 9.15447 36.5227 10.2516 37.5598 11.803C37.9884 12.4288 38.4512 12.7973 38.9312 13.183L39.0598 13.2773C39.5912 13.7059 40.1484 14.1773 40.5855 15.0259C41.1855 16.2002 41.4169 18.1116 40.8941 19.6545C40.7431 20.1117 40.6566 20.5877 40.6369 21.0688C40.6112 21.3259 40.5855 21.583 40.5427 21.8402C40.4028 22.8465 40.0008 23.7983 39.3769 24.6002C39.0938 24.9737 38.8194 25.3538 38.5541 25.7402L38.4598 25.8859C38.2969 26.1173 38.1684 26.3145 38.0312 26.4859C37.6884 26.9145 37.3541 27.2145 36.6084 27.703C35.9055 28.1745 35.6655 28.483 35.5541 28.8602C35.5027 29.0659 35.4769 29.3059 35.4684 29.6316V30.2659L35.4769 30.8488C35.501 32.0184 35.1724 33.1683 34.5341 34.1488C34.4141 34.3802 34.2769 34.6116 34.1569 34.8602C33.4284 36.3173 31.9712 37.2773 30.5398 38.2202L30.4969 38.2545C29.6827 38.7945 28.7484 38.9145 27.8655 38.9145C27.4198 38.9145 26.9827 38.8802 26.5712 38.8545H26.5284C26.1255 38.8202 25.7569 38.7945 25.4141 38.7945C24.8998 38.7945 24.6084 38.923 24.1969 39.1202L23.9055 39.2488C23.3141 39.5059 22.5341 39.763 21.0169 39.763C20.4341 39.763 19.8769 39.7802 19.3284 39.7973C17.1427 39.8659 15.0941 39.9345 12.2998 38.8802C11.0398 38.4088 9.86551 37.1316 8.9398 35.6573C8.02196 34.1989 7.34744 32.6009 6.94265 30.9259C6.84174 30.4232 6.78438 29.9127 6.77122 29.4002C6.75408 28.8002 6.79694 28.1059 7.02837 27.6345C7.53408 26.6316 8.52837 25.1487 9.5398 24.1459C9.7798 23.9145 9.8998 23.7602 9.96837 23.6316C10.0213 23.5528 10.051 23.4608 10.0541 23.3659C10.0541 23.2716 10.0369 23.1773 10.0112 23.023L9.99408 22.8688C9.9598 22.6459 9.92551 22.3545 9.92551 21.9688C9.92551 21.1973 10.0627 20.7602 10.3541 20.323C10.4655 20.1516 10.5941 19.9973 10.7398 19.8173L10.7741 19.783L10.8255 19.7059C11.0055 19.483 11.2112 19.2259 11.4512 18.8659C11.9055 18.1888 12.0084 17.7602 12.0684 17.263L12.1027 16.8859C12.1369 16.4316 12.1884 15.8659 12.3769 15.103C12.5815 14.0986 12.9679 13.14 13.5169 12.2745C14.2845 11.2198 15.3458 10.4149 16.5684 9.96018C17.7855 9.44589 18.6084 9.44589 19.4141 9.63446C19.7312 9.71161 20.0484 9.82304 20.3741 9.92589L20.5712 9.99447C20.9741 10.1316 21.4027 10.2688 21.9169 10.3716C22.4998 10.483 22.8255 10.4916 23.0312 10.4573C23.2027 10.4145 23.2969 10.3459 23.4169 10.2259L23.5027 10.1402C23.6141 10.0116 23.7598 9.84018 23.9741 9.68589C24.2569 9.48875 24.6341 9.30875 25.2084 9.18875C26.4941 8.92304 27.8398 8.66589 29.1169 8.53732ZM29.1855 9.22304C27.9512 9.34304 26.6312 9.59161 25.3455 9.85732C24.8484 9.96875 24.5741 10.1145 24.3769 10.243C24.2312 10.3459 24.1455 10.4488 24.0341 10.5602L23.9055 10.7059C23.7341 10.8773 23.5198 11.0488 23.1598 11.1259C22.8255 11.1859 22.3884 11.1688 21.7884 11.0402C21.3031 10.9405 20.8249 10.8088 20.3569 10.6459L20.1427 10.5773C19.8169 10.4659 19.5427 10.3716 19.2512 10.303C18.439 10.1157 17.5868 10.2188 16.8427 10.5945C15.7403 10.9936 14.7802 11.7092 14.0827 12.6516C13.5427 13.4316 13.2855 14.2973 13.0455 15.2659C12.8741 15.9773 12.8227 16.4659 12.7884 16.9202L12.7455 17.3488C12.6855 17.9402 12.5398 18.4716 12.0169 19.2516C11.7684 19.6288 11.5455 19.9116 11.3569 20.143L11.3312 20.1773L11.2627 20.263C11.1255 20.4345 11.0055 20.5716 10.9198 20.7088C10.7227 21.0002 10.6112 21.2916 10.6112 21.9688C10.6113 22.2789 10.6371 22.5886 10.6884 22.8945C10.7141 23.0573 10.7312 23.2202 10.7312 23.3659C10.7312 23.5716 10.6884 23.7688 10.5598 23.983C10.4484 24.1802 10.2684 24.3859 10.0198 24.6345C9.07563 25.6193 8.27621 26.7333 7.64551 27.943C7.49122 28.243 7.4398 28.783 7.45694 29.3745C7.47408 29.9488 7.54265 30.4973 7.61123 30.7716C7.92837 32.1859 8.62265 33.8573 9.51408 35.2887C10.4227 36.7287 11.4941 37.8516 12.5398 38.2459C15.1969 39.2402 17.0998 39.1802 19.2598 39.1116C19.8255 39.0945 20.4084 39.0773 21.0169 39.0773C22.0042 39.1278 22.9884 38.9304 23.8798 38.503C24.3084 38.3059 24.7369 38.1087 25.4227 38.1087C25.7827 38.1087 26.1769 38.1345 26.5712 38.1687H26.6227C27.0341 38.203 27.4541 38.2287 27.8655 38.2287C28.6884 38.2287 29.4684 38.1087 30.1198 37.6802C31.6027 36.6945 32.9055 35.8288 33.5484 34.5516C33.6855 34.2602 33.8312 34.0116 33.9598 33.7802C34.4312 32.923 34.7912 32.2888 34.7912 30.8488V29.6316C34.7912 29.2888 34.8169 28.9802 34.8941 28.6888C35.0655 28.0802 35.4684 27.643 36.2312 27.1459C36.714 26.8663 37.1411 26.5002 37.4912 26.0659C37.6112 25.9116 37.7312 25.7402 37.8855 25.5087L37.9884 25.363C38.1941 25.063 38.4598 24.6773 38.8284 24.1973C39.3816 23.4853 39.7364 22.6395 39.8569 21.7459C39.8998 21.4973 39.9255 21.2659 39.9512 21.0259L40.0027 20.6145C40.0455 20.2288 40.1141 19.843 40.2427 19.4488C40.7055 18.0773 40.4998 16.363 39.9684 15.3516C39.6451 14.7475 39.1877 14.2256 38.6312 13.8259L38.5712 13.783L38.5027 13.723C38.0141 13.3373 37.4741 12.9088 36.9941 12.1888C36.0769 10.8259 34.3798 9.80589 32.4769 9.33447C31.5598 9.10304 30.4198 9.10304 29.1855 9.22304ZM29.1169 10.0973C30.2227 10.0373 31.3284 10.1488 32.2198 10.3716C33.8695 10.7244 35.3207 11.697 36.2741 13.0888C36.6855 13.6973 37.0884 14.1088 37.5169 14.5373C37.9455 14.9659 38.3998 15.4202 38.8455 16.0802C39.7969 17.5116 39.3169 18.943 38.9055 20.1945L38.8884 20.2459C38.7577 20.6451 38.6827 21.0605 38.6655 21.4802L38.5798 22.1659C38.4684 22.903 38.2369 23.7088 37.5512 24.6259C37.1409 25.2508 36.5812 25.7635 35.9227 26.1173C35.7598 26.203 35.6141 26.263 35.4598 26.3316C35.1684 26.4516 34.8769 26.5716 34.4655 26.8459C34.1569 27.0516 33.9855 27.2145 33.8741 27.3602C33.778 27.4842 33.7187 27.6327 33.7027 27.7887C33.6855 27.9602 33.7027 28.1659 33.7112 28.4745L33.7198 28.543C33.7369 28.8259 33.7627 29.1602 33.7627 29.563C33.7627 30.8916 33.5055 31.5259 33.2055 32.263C33.1027 32.5202 32.9912 32.7859 32.8884 33.103C32.4255 34.4916 31.0627 35.8287 29.7512 36.703C29.0312 37.1916 28.1998 37.303 27.4198 37.303C27.0341 37.303 26.6484 37.2688 26.2798 37.243H26.2455C25.9027 37.2173 25.5769 37.1916 25.2769 37.1916C24.8227 37.1916 24.5912 37.303 24.2312 37.4745L23.9741 37.5945C23.4427 37.8259 22.7569 38.0487 21.4198 38.0487C18.8484 38.0487 17.5369 38.0487 14.0912 37.6202C13.2857 37.4821 12.5512 37.074 12.0084 36.463C11.3825 35.7875 10.8571 35.0254 10.4484 34.2002C9.65028 32.6165 9.04868 30.9412 8.65694 29.2116V29.143C8.65694 28.8173 8.74265 28.0202 9.1198 27.2745C9.70633 26.1459 10.451 25.1068 11.3312 24.1887C11.5369 23.9745 11.6484 23.8459 11.6998 23.743C11.7512 23.6573 11.7598 23.5973 11.7598 23.5202C11.7598 23.4345 11.7598 23.3573 11.7341 23.2288L11.7169 23.0916C11.6776 22.8248 11.6576 22.5556 11.6569 22.2859C11.6569 21.6002 11.7769 21.1973 12.0341 20.8116L12.3769 20.3573L12.4627 20.2716C12.6169 20.0659 12.7969 19.8345 13.0027 19.5259C13.3969 18.9259 13.4827 18.5573 13.5341 18.1202L13.5684 17.7945C13.5941 17.3916 13.6369 16.8859 13.8084 16.2002C14.0312 15.3345 14.3569 14.3145 14.9227 13.4745C15.4969 12.6173 16.3198 11.8973 17.5027 11.6659C18.2646 11.4701 19.0661 11.4909 19.8169 11.7259L20.0141 11.7859C20.6063 11.9921 21.2299 12.0937 21.8569 12.0859C22.9027 12.0859 23.5027 11.983 24.0427 11.7859C24.4284 11.6488 24.7798 11.4602 25.2427 11.2202L25.9884 10.8345C26.9744 10.383 28.0414 10.1351 29.1255 10.1059L29.1169 10.0973ZM29.1512 10.783C27.9017 10.8139 26.6806 11.1619 25.6027 11.7945C25.1055 12.0516 24.6941 12.2659 24.2655 12.4202C23.6312 12.6516 22.9455 12.763 21.8484 12.763C21.1519 12.7725 20.459 12.6623 19.7998 12.4373L19.6112 12.3773C18.9695 12.1726 18.2827 12.1548 17.6312 12.3259C16.6712 12.523 15.9941 13.0973 15.4884 13.843C15.0067 14.6195 14.659 15.4713 14.4598 16.363C14.3141 16.9888 14.2712 17.4173 14.2455 17.8202L14.2112 18.1888C14.1513 18.8081 13.9263 19.4001 13.5598 19.903C13.3369 20.2288 13.1484 20.4773 12.9855 20.683L12.8998 20.7859C12.7712 20.9402 12.6769 21.0602 12.5998 21.1802C12.4284 21.4373 12.3341 21.6859 12.3341 22.2773C12.3346 22.5502 12.3575 22.8225 12.4027 23.0916C12.4198 23.2288 12.4369 23.3745 12.4369 23.5116C12.4369 23.7002 12.4027 23.8802 12.2912 24.0773C12.1884 24.2488 12.0255 24.4459 11.8027 24.6602C10.977 25.5288 10.2787 26.5099 9.72837 27.5745C9.42837 28.1745 9.34265 28.8259 9.33408 29.1002C9.71064 30.7577 10.2862 32.3637 11.0484 33.883C11.4769 34.7059 11.9655 35.4345 12.5055 35.983C12.9389 36.4802 13.5282 36.8156 14.1769 36.9345C17.5798 37.363 18.8569 37.363 21.4112 37.363H21.4284C22.6627 37.363 23.2627 37.1573 23.6998 36.9602L23.9141 36.8659C24.2912 36.6945 24.6684 36.5059 25.2855 36.5059C25.6112 36.5059 25.9541 36.5316 26.2969 36.5573H26.3398C26.7084 36.583 27.0684 36.6173 27.4284 36.6173C28.1131 36.6564 28.7939 36.4892 29.3827 36.1373C30.6427 35.2973 31.8512 34.063 32.2455 32.8802C32.3741 32.503 32.4941 32.2116 32.5969 31.9373C32.8798 31.2516 33.0855 30.7459 33.0855 29.563C33.0855 29.1859 33.0598 28.8773 33.0427 28.5945V28.5087C33.0178 28.2408 33.0178 27.971 33.0427 27.703C33.0684 27.4288 33.1541 27.1887 33.3341 26.9487C33.5055 26.7173 33.7627 26.503 34.0969 26.2802C34.5598 25.963 34.9541 25.8002 35.2712 25.663L35.6312 25.5087C35.9998 25.3202 36.3941 25.0373 37.0112 24.2145C37.6112 23.4088 37.8084 22.723 37.9112 22.0716L37.9884 21.4373L38.0312 21.0602C38.0741 20.7259 38.1255 20.3745 38.2455 20.0316C38.6827 18.7116 39.0341 17.5973 38.2884 16.4659C37.9266 15.9403 37.51 15.4548 37.0455 15.0173C36.6169 14.5888 36.1627 14.1345 35.7169 13.4745C34.8562 12.2217 33.5451 11.3496 32.0569 11.0402C31.2341 10.8345 30.1969 10.7316 29.1598 10.783H29.1512Z" fill="url(#paint1_linear_388_430)" fill-opacity="0.6"/>
</g>
<defs>
<linearGradient id="paint0_linear_388_430" x1="24" y1="48" x2="24" y2="0" gradientUnits="userSpaceOnUse">
<stop stop-color="#073183"/>
<stop offset="1" stop-color="#0054F9"/>
</linearGradient>
<linearGradient id="paint1_linear_388_430" x1="1.71408" y1="0.42875" x2="47.9998" y2="46.7145" gradientUnits="userSpaceOnUse">
<stop offset="0.17" stop-color="#8CCFFC"/>
<stop offset="0.4" stop-color="#EABF9E"/>
<stop offset="0.63" stop-color="#E882CF"/>
<stop offset="0.81" stop-color="#A182F9"/>
</linearGradient>
<clipPath id="clip0_388_430">
<rect width="48" height="48" rx="24" fill="white"/>
</clipPath>
</defs>
</svg>
