<svg width="48" height="48" viewBox="0 0 48 48" fill="none" xmlns="http://www.w3.org/2000/svg">
<g clip-path="url(#clip0_388_438)">
<path d="M0 0H48V48H0V0Z" fill="url(#paint0_linear_388_438)"/>
<path d="M23.9999 34.8513C25.4249 34.8513 26.836 34.5706 28.1525 34.0253C29.4691 33.4799 30.6653 32.6806 31.673 31.673C32.6806 30.6653 33.4799 29.4691 34.0253 28.1525C34.5706 26.836 34.8513 25.4249 34.8513 23.9999C34.8513 22.5748 34.5706 21.1638 34.0253 19.8472C33.4799 18.5306 32.6806 17.3344 31.673 16.3267C30.6653 15.3191 29.4691 14.5198 28.1525 13.9745C26.836 13.4291 25.4249 13.1484 23.9999 13.1484C21.1219 13.1484 18.3618 14.2917 16.3267 16.3267C14.2917 18.3618 13.1484 21.1219 13.1484 23.9999C13.1484 26.8778 14.2917 29.6379 16.3267 31.673C18.3618 33.708 21.1219 34.8513 23.9999 34.8513Z" fill="#2C3154"/>
<path d="M24.0002 7.33712C23.6556 7.33712 23.1662 7.63541 22.6356 8.68627C22.1299 9.68912 21.6936 11.1326 21.3499 12.852C20.6728 16.2686 20.3599 20.5474 20.3599 24V24.0017C20.3477 27.7399 20.6791 31.4713 21.3499 35.1488C21.7056 36.8631 22.1299 38.3117 22.6442 39.3103L22.6468 39.3137C23.1791 40.368 23.6582 40.6628 24.0011 40.6628C24.3448 40.6628 24.8342 40.3646 25.3648 39.3137C25.8705 38.3108 26.3068 36.8683 26.6505 35.148C27.3276 31.7314 27.6413 27.4526 27.6413 24C27.6413 20.5577 27.3388 16.2686 26.6513 12.8546C26.2956 11.1403 25.8713 9.68912 25.3553 8.68884L25.3536 8.68627C24.8213 7.63198 24.3431 7.33712 24.0002 7.33712ZM21.8702 8.29969C22.4248 7.20255 23.1302 6.47998 24.0002 6.47998C24.8728 6.47998 25.5662 7.20512 26.1182 8.29884C26.6882 9.40455 27.1305 10.9474 27.4905 12.6814L27.4914 12.684C28.1934 16.1708 28.4985 20.52 28.4985 24C28.4985 27.492 28.1814 31.8291 27.4914 35.3143C27.1408 37.0663 26.6865 38.598 26.1302 39.7003C25.5756 40.7974 24.8711 41.52 24.0002 41.52C23.1276 41.52 22.4351 40.7948 21.8822 39.7011C21.3131 38.5954 20.8699 37.0526 20.5099 35.3186L20.5073 35.3083C19.8266 31.5773 19.4903 27.7917 19.5028 23.9991C19.5028 20.5071 19.8182 16.1708 20.5091 12.6848C20.8596 10.9328 21.3139 9.40198 21.8702 8.29969Z" fill="#A3A9D0"/>
<path d="M9.57004 15.6634C9.39775 15.9669 9.41918 16.5351 10.0526 17.52C10.8977 18.7051 11.8916 19.7767 13.0098 20.7086L13.014 20.7111C15.8632 23.1354 18.9292 25.2925 22.1735 27.1551L22.1752 27.156C25.4108 29.0338 28.8123 30.6102 32.3366 31.8651L32.3409 31.8669C33.7089 32.37 35.1352 32.6966 36.5855 32.8397C37.7632 32.8911 38.2586 32.628 38.43 32.3366C38.6023 32.0331 38.5809 31.4649 37.9475 30.48C37.1021 29.2948 36.108 28.2232 34.9895 27.2914L34.986 27.2889C32.1369 24.8646 29.0708 22.7076 25.8266 20.8449L25.8249 20.844C22.5903 18.9668 19.19 17.3911 15.6669 16.1366C14.0109 15.5769 12.5469 15.2229 11.424 15.1611C10.2395 15.108 9.74147 15.3711 9.57004 15.6634ZM38.8012 32.5509L39.1715 32.7669C38.7343 33.5151 37.7572 33.75 36.5358 33.6951H36.5246L36.5135 33.6934C34.9875 33.5444 33.4868 33.201 32.0478 32.6717C28.4747 31.3994 25.0262 29.8012 21.7458 27.8974C18.457 26.0095 15.3487 23.8231 12.4603 21.366C11.2835 20.3853 10.2377 19.2572 9.3489 18.0094L9.3429 18L9.33775 17.9914C8.67518 16.9646 8.39232 15.9951 8.82604 15.2357L8.82861 15.2323C9.26575 14.484 10.2429 14.2491 11.4643 14.304H11.4686C12.7089 14.3726 14.2603 14.7557 15.9446 15.324L15.9506 15.3266C19.5243 16.5987 22.9734 18.1969 26.2543 20.1009C29.5432 21.9893 32.6514 24.1763 35.5398 26.634C36.7165 27.6145 37.7623 28.7423 38.6512 29.9897L38.6572 29.9983L38.6623 30.0069C39.3249 31.0337 39.6078 32.0031 39.1732 32.7626L38.8012 32.55V32.5509Z" fill="#A3A9D0"/>
<path d="M36.5852 15.1603C35.1348 15.3029 33.7084 15.6298 32.3406 16.1331L32.3364 16.1349C28.812 17.3897 25.4105 18.9661 22.1749 20.844L22.1732 20.8449C18.9299 22.7071 15.8648 24.8636 13.0164 27.2871C11.7075 28.4357 10.6764 29.5329 10.0566 30.474C9.41892 31.4623 9.39664 32.0331 9.56978 32.3366C9.74121 32.628 10.2469 32.8911 11.4144 32.8397C12.8648 32.6971 14.2912 32.3702 15.6589 31.8669L15.6632 31.8651C19.1876 30.6103 22.589 29.0339 25.8246 27.156L25.8264 27.1551C29.0696 25.2931 32.1348 23.1369 34.9832 20.7137C36.2929 19.5651 37.3232 18.4671 37.9429 17.526C38.5798 16.5377 38.6029 15.9677 38.4298 15.6634C38.2584 15.372 37.7526 15.1089 36.5852 15.1603ZM9.19864 32.5517L8.82664 32.7634C8.39206 32.004 8.67492 31.0346 9.33749 30.0077L9.34006 30.0034C10.0206 28.9706 11.1169 27.8126 12.4532 26.64L12.4584 26.6357C15.3473 24.1779 18.4561 21.991 21.7455 20.1026C25.0256 18.1988 28.4739 16.6006 32.0466 15.3283C33.4862 14.7986 34.9875 14.4549 36.5141 14.3057L36.5252 14.304H36.5364C37.7458 14.2491 38.7349 14.484 39.1721 15.2323L39.1738 15.2357C39.6084 15.9951 39.3255 16.9646 38.6629 17.9923L38.6604 17.9957C37.9789 19.0286 36.8835 20.1866 35.5472 21.3591L35.5421 21.3634C32.6532 23.8215 29.5444 26.0087 26.2549 27.8974C22.9748 29.8012 19.5266 31.3994 15.9538 32.6717C14.5145 33.2008 13.0135 33.5439 11.4872 33.6926L11.4761 33.6943H11.4649C10.2546 33.7491 9.26549 33.5151 8.82921 32.766L9.19949 32.55L9.19864 32.5517Z" fill="#A3A9D0"/>
<path d="M23.9999 26.1705C24.5755 26.1705 25.1275 25.9418 25.5345 25.5348C25.9416 25.1278 26.1702 24.5758 26.1702 24.0002C26.1702 23.4246 25.9416 22.8726 25.5345 22.4655C25.1275 22.0585 24.5755 21.8299 23.9999 21.8299C23.4243 21.8299 22.8723 22.0585 22.4653 22.4655C22.0583 22.8726 21.8296 23.4246 21.8296 24.0002C21.8296 24.5758 22.0583 25.1278 22.4653 25.5348C22.8723 25.9418 23.4243 26.1705 23.9999 26.1705ZM11.5208 21.8299C11.7345 21.8299 11.9462 21.7878 12.1437 21.706C12.3412 21.6242 12.5206 21.5043 12.6717 21.3531C12.8229 21.202 12.9428 21.0226 13.0246 20.8251C13.1064 20.6276 13.1485 20.4159 13.1485 20.2022C13.1485 19.9884 13.1064 19.7768 13.0246 19.5793C12.9428 19.3818 12.8229 19.2024 12.6717 19.0512C12.5206 18.9001 12.3412 18.7802 12.1437 18.6984C11.9462 18.6166 11.7345 18.5745 11.5208 18.5745C11.0891 18.5745 10.6751 18.7459 10.3698 19.0512C10.0646 19.3565 9.89307 19.7705 9.89307 20.2022C9.89307 20.6339 10.0646 21.0479 10.3698 21.3531C10.6751 21.6584 11.0891 21.8299 11.5208 21.8299ZM21.2871 37.0219C21.5053 37.029 21.7227 36.9921 21.9263 36.9135C22.13 36.8349 22.3158 36.7161 22.4726 36.5643C22.6295 36.4124 22.7542 36.2306 22.8394 36.0296C22.9246 35.8286 22.9685 35.6125 22.9685 35.3942C22.9685 35.1759 22.9246 34.9598 22.8394 34.7588C22.7542 34.5577 22.6295 34.3759 22.4726 34.2241C22.3158 34.0722 22.13 33.9535 21.9263 33.8749C21.7227 33.7962 21.5053 33.7594 21.2871 33.7665C20.8645 33.7802 20.4639 33.9577 20.1698 34.2614C19.8757 34.5652 19.7113 34.9714 19.7113 35.3942C19.7113 35.8169 19.8757 36.2232 20.1698 36.5269C20.4639 36.8307 20.8645 37.0082 21.2871 37.0219ZM32.1385 17.4893C32.5702 17.4893 32.9842 17.3178 33.2895 17.0126C33.5947 16.7073 33.7662 16.2933 33.7662 15.8616C33.7662 15.4299 33.5947 15.0159 33.2895 14.7106C32.9842 14.4054 32.5702 14.2339 32.1385 14.2339C31.7068 14.2339 31.2928 14.4054 30.9875 14.7106C30.6823 15.0159 30.5108 15.4299 30.5108 15.8616C30.5108 16.2933 30.6823 16.7073 30.9875 17.0126C31.2928 17.3178 31.7068 17.4893 32.1385 17.4893Z" fill="#F0F3FA"/>
</g>
<defs>
<linearGradient id="paint0_linear_388_438" x1="8.92971" y1="8.32457" x2="58.4117" y2="65.1574" gradientUnits="userSpaceOnUse">
<stop stop-color="#1A1E21"/>
<stop offset="1" stop-color="#06060A"/>
</linearGradient>
<clipPath id="clip0_388_438">
<rect width="48" height="48" rx="24" fill="white"/>
</clipPath>
</defs>
</svg>
