<svg width="48" height="48" viewBox="0 0 48 48" fill="none" xmlns="http://www.w3.org/2000/svg">
<g clip-path="url(#clip0_403_353)">
<path d="M0 0H48V48H0V0Z" fill="#58BE92"/>
<path d="M31.9542 15.6259C30.7799 12.6173 27.8056 12.3431 24.3342 13.0288L23.1084 8.7002L20.477 9.46305L21.6856 13.6373L19.5942 14.2716L18.3856 10.0459L15.7799 10.8088L17.0056 15.0945L15.3342 15.6088V15.6002L11.7256 16.6288L12.5227 19.4231C12.5227 19.4231 14.4513 18.8231 14.4342 18.8745C15.4884 18.5659 16.0113 19.0888 16.2684 19.5945L17.6742 24.4888L17.957 24.4459L17.6742 24.5231L19.6456 31.3973C19.697 31.7402 19.6456 32.3231 18.917 32.5373C18.9513 32.5545 17.0056 33.0945 17.0056 33.0945L17.3827 36.3688L20.7856 35.3916L22.6713 34.8688L23.9227 39.2145L26.5199 38.4602L25.3027 34.1659L27.3942 33.5831L28.6199 37.8688L31.2513 37.1145L29.9999 32.7688C34.3284 31.2516 37.097 29.2545 36.2999 25.0116C35.6484 21.6002 33.6513 20.5545 30.9856 20.6831C32.2713 19.4573 32.8284 17.8373 31.9713 15.6259H31.9542ZM30.977 25.9973C31.8942 29.2545 26.2284 30.4716 24.4627 30.9945L22.8084 25.2259C24.5827 24.7116 29.9999 22.6116 30.977 25.9973ZM27.4284 18.1888C28.2684 21.1631 23.5199 22.1402 22.037 22.5688L20.537 17.3402C22.0199 16.9202 26.537 15.1116 27.4284 18.2059V18.1888Z" fill="white"/>
</g>
<defs>
<clipPath id="clip0_403_353">
<rect width="48" height="48" rx="24" fill="white"/>
</clipPath>
</defs>
</svg>
