<svg width="48" height="48" viewBox="0 0 48 48" fill="none" xmlns="http://www.w3.org/2000/svg">
<g clip-path="url(#clip0_458_373)">
<path d="M0 0H48V48H0V0Z" fill="#F0F3FA"/>
<path d="M23.9999 37.7142C31.5741 37.7142 37.7142 31.5741 37.7142 23.9999C37.7142 16.4257 31.5741 10.2856 23.9999 10.2856C16.4257 10.2856 10.2856 16.4257 10.2856 23.9999C10.2856 31.5741 16.4257 37.7142 23.9999 37.7142Z" fill="#F2E373"/>
<path d="M28.2856 6.85693C27.1371 8.57122 24.9171 9.76265 23.3828 10.2941C21.4517 10.3808 19.5609 10.8747 17.8341 11.7435C16.1074 12.6123 14.5838 13.8363 13.3633 15.3352C12.1428 16.8341 11.2529 18.5741 10.7521 20.4411C10.2512 22.3081 10.1507 24.2598 10.4571 26.1684C11.6914 29.9398 14.2542 32.5112 17.7856 32.7084C21.4714 32.9226 25.0628 31.6026 26.7428 27.5484C28.0971 24.2912 30.4799 23.3398 31.4999 23.1426H39.4285L37.4999 21.7712C34.6456 19.3284 30.2314 19.6026 29.0656 20.6141C28.0587 21.4795 26.8055 22.0072 25.4828 22.1226C21.1028 22.1226 20.7171 18.8055 20.7171 18.0255V17.9398C20.7085 17.0484 20.6914 14.4855 24.8056 13.1055C26.064 12.7464 27.1448 11.9342 27.8399 10.8255H27.8314C28.7056 9.47122 28.5171 7.56836 28.2856 6.85693Z" fill="url(#paint0_linear_458_373)"/>
<path d="M35.2116 31.9031C33.6538 34.1123 31.4779 35.8118 28.9571 36.7882C26.4364 37.7646 23.6834 37.9742 21.0439 37.3908C18.4044 36.8074 15.9961 35.457 14.1217 33.5092C12.2474 31.5613 10.9904 29.103 10.5088 26.4431C11.3402 28.8774 13.8088 32.7945 18.4116 32.7088C23.4088 32.6231 25.8859 29.5031 26.5545 27.7716C27.2316 26.0574 28.9116 23.7602 31.4831 23.1431C30.4288 23.7945 28.5088 25.5859 28.7059 27.7716C28.9374 30.4374 31.0888 32.2031 35.2116 31.9031Z" fill="url(#paint1_linear_458_373)"/>
</g>
<defs>
<linearGradient id="paint0_linear_458_373" x1="16.4571" y1="11.0226" x2="30.5999" y2="25.3626" gradientUnits="userSpaceOnUse">
<stop stop-color="#F5C859"/>
<stop offset="1" stop-color="#DE3633"/>
</linearGradient>
<linearGradient id="paint1_linear_458_373" x1="19.1831" y1="29.2974" x2="24.0431" y2="37.7916" gradientUnits="userSpaceOnUse">
<stop stop-color="#F3BE56"/>
<stop offset="1" stop-color="#E04437"/>
</linearGradient>
<clipPath id="clip0_458_373">
<rect width="48" height="48" rx="24" fill="white"/>
</clipPath>
</defs>
</svg>
