<svg width="48" height="48" viewBox="0 0 48 48" fill="none" xmlns="http://www.w3.org/2000/svg">
<g clip-path="url(#clip0_465_873)">
<path d="M0 0H48V48H0V0Z" fill="#F0F3FA"/>
<path d="M18.9427 10.2857C18.1537 10.5668 17.376 10.8784 16.6113 11.22C16.5598 11.2628 17.2113 12.12 18.0684 13.1057C18.9255 14.1 20.597 16.0714 21.797 17.4942C22.5164 18.4075 23.2922 19.2749 24.1198 20.0914C24.317 20.0914 29.1084 17.1771 29.1084 17.0485C29.1084 16.8257 26.2113 13.3114 24.797 11.82C23.057 9.99425 22.2684 9.40282 21.617 9.42853C21.377 9.4371 20.177 9.82282 18.9427 10.2857ZM30.9427 12.5571C30.9084 12.6257 30.7198 13.2171 30.5227 13.8771C30.3341 14.5285 29.9655 15.5314 29.717 16.0971C29.4598 16.6542 29.3227 17.16 29.3998 17.2114L32.0484 18.8914L34.5513 20.4857L34.6541 22.0028C34.7141 22.8342 34.7998 24.2314 34.8427 25.1057L34.9284 26.7L32.7855 28.4228C31.4398 29.5028 30.5398 30.12 30.3855 30.0685C30.2398 30.0257 28.997 29.4771 27.617 28.8514C26.6886 28.4101 25.7452 28.0013 24.7884 27.6257C24.5141 27.5657 24.137 28.2514 21.8484 32.9057C20.8984 34.7508 20.0206 36.6323 19.217 38.5457C19.217 38.9571 19.817 39.1714 21.4198 39.3514C23.5541 39.5914 24.4198 39.3171 25.4227 38.0914C25.9455 37.4485 29.2455 32.46 30.197 30.8657C30.6255 30.1542 30.5398 30.0685 31.6455 32.2714C32.6998 34.3971 32.957 34.7485 33.4455 34.7485C33.9084 34.7485 34.457 34.2085 35.5884 32.6742C36.2484 31.7914 36.3255 31.5942 36.3255 30.8485C36.3255 29.6485 36.0684 28.4142 35.6227 27.5057C35.417 27.0685 35.0227 26.7257 35.0484 26.7C35.0741 26.6742 35.7341 26.58 36.2484 26.5285C37.7227 26.3571 37.7913 26.2371 37.6713 24.1542C37.4827 20.8971 37.4313 20.8114 35.717 20.6228C35.3657 20.6066 35.0189 20.5372 34.6884 20.4171C34.6541 20.3657 34.7313 19.9285 34.8598 19.4485C35.0692 18.5595 35.0698 17.6341 34.8616 16.7448C34.6534 15.8555 34.242 15.0265 33.6598 14.3228C33.2141 13.7742 31.4313 12.4371 31.1398 12.4371C31.0999 12.4404 31.0613 12.4529 31.027 12.4737C30.9928 12.4946 30.9639 12.5231 30.9427 12.5571ZM16.397 20.6742C11.1084 21.0428 10.8084 21.0857 10.5341 21.4114C10.2598 21.7285 10.2427 21.9428 10.337 23.8114C10.4741 26.6657 10.4227 26.9485 10.9113 27.2742C11.1427 27.4285 12.0598 27.4285 16.2255 27.4285C20.5284 27.4285 24.2398 27.4885 24.4541 27.2742C24.5313 27.1885 24.1284 21.2742 23.9913 20.6057C23.9055 20.1514 23.8541 20.1514 16.397 20.6742Z" fill="black"/>
</g>
<defs>
<clipPath id="clip0_465_873">
<rect width="48" height="48" rx="24" fill="white"/>
</clipPath>
</defs>
</svg>
