<svg width="48" height="48" viewBox="0 0 48 48" fill="none" xmlns="http://www.w3.org/2000/svg">
<g clip-path="url(#clip0_457_335)">
<path d="M0 0H48V48H0V0Z" fill="url(#paint0_linear_457_335)"/>
<path fill-rule="evenodd" clip-rule="evenodd" d="M24.0002 11.1428C26.8903 11.1421 29.6963 12.1151 31.9655 13.9048C34.2347 15.6945 35.8347 18.1966 36.5074 21.0073C37.1801 23.818 36.8862 26.7733 35.6732 29.3965C34.4601 32.0196 32.3987 34.1576 29.8214 35.4654C27.2442 36.7732 24.3015 37.1745 21.4682 36.6046C18.6349 36.0348 16.0762 34.5269 14.205 32.3244C12.3338 30.1219 11.2592 27.3532 11.1547 24.465C11.0501 21.5768 11.9217 18.7377 13.6288 16.4056C13.9887 16.7642 14.4471 17.0076 14.9457 17.1051C15.4443 17.2026 15.9606 17.1497 16.429 16.9531C16.8975 16.7565 17.297 16.4252 17.5767 16.0011C17.8565 15.577 18.0039 15.0794 18.0002 14.5714C18.0011 14.1854 17.9151 13.8042 17.7485 13.456C17.582 13.1078 17.3392 12.8016 17.0382 12.56C16.7372 12.3185 16.3857 12.1478 16.0097 12.0606C15.6337 11.9734 15.2429 11.9719 14.8663 12.0564C14.4897 12.1408 14.1369 12.3089 13.8341 12.5483C13.5314 12.7876 13.2863 13.092 13.1173 13.439C12.9482 13.7859 12.8593 14.1665 12.8574 14.5525C12.8554 14.9384 12.9404 15.3199 13.1059 15.6685C11.2258 18.1268 10.2324 21.1489 10.2873 24.2433C10.3422 27.3377 11.4422 30.3226 13.4084 32.7127C15.3746 35.1027 18.0914 36.7575 21.1172 37.4079C24.143 38.0584 27.2999 37.6662 30.0745 36.2952C32.8492 34.9243 35.0786 32.6551 36.4003 29.8566C37.722 27.0581 38.0582 23.8948 37.3544 20.881C36.6505 17.8672 34.948 15.18 32.5235 13.2564C30.099 11.3328 27.0951 10.2858 24.0002 10.2856V11.1428ZM15.4288 16.2856C15.8834 16.2856 16.3195 16.105 16.641 15.7835C16.9624 15.4621 17.1431 15.026 17.1431 14.5714C17.1431 14.1167 16.9624 13.6807 16.641 13.3592C16.3195 13.0377 15.8834 12.8571 15.4288 12.8571C14.9741 12.8571 14.5381 13.0377 14.2166 13.3592C13.8951 13.6807 13.7145 14.1167 13.7145 14.5714C13.7145 15.026 13.8951 15.4621 14.2166 15.7835C14.5381 16.105 14.9741 16.2856 15.4288 16.2856ZM24.0002 29.9999C25.5915 29.9999 27.1176 29.3678 28.2428 28.2426C29.3681 27.1174 30.0002 25.5912 30.0002 23.9999C30.0002 22.4086 29.3681 20.8825 28.2428 19.7573C27.1176 18.6321 25.5915 17.9999 24.0002 17.9999C22.4089 17.9999 20.8828 18.6321 19.7576 19.7573C18.6323 20.8825 18.0002 22.4086 18.0002 23.9999C18.0002 25.5912 18.6323 27.1174 19.7576 28.2426C20.8828 29.3678 22.4089 29.9999 24.0002 29.9999Z" fill="white"/>
</g>
<defs>
<linearGradient id="paint0_linear_457_335" x1="24" y1="0" x2="24" y2="48" gradientUnits="userSpaceOnUse">
<stop stop-color="#E92121"/>
<stop offset="1" stop-color="#9C0403"/>
</linearGradient>
<clipPath id="clip0_457_335">
<rect width="48" height="48" rx="24" fill="white"/>
</clipPath>
</defs>
</svg>
