<svg width="48" height="48" viewBox="0 0 48 48" fill="none" xmlns="http://www.w3.org/2000/svg">
<circle cx="24" cy="24" r="24" fill="#F00500"/>
<path d="M31.5372 9.99303C30.6625 10.8678 29.861 11.8159 29.1486 12.8269L28.9234 12.7535C27.6243 12.3292 26.2781 12.0673 24.9215 11.9783C24.5129 11.9469 22.9886 11.9469 22.491 11.9783C20.9876 12.0778 19.8352 12.303 18.5257 12.7588C18.4733 12.7797 18.4262 12.7954 18.379 12.8111C17.6404 11.8054 16.8181 10.8626 15.9119 9.99827C20.2595 7.77206 25.3457 7.50491 29.8977 9.25969C30.3848 9.44302 30.8615 9.65779 31.3277 9.88827L31.5372 9.99303Z" fill="#F00500"/>
<path d="M39.6459 29.861C38.9859 31.7415 37.9959 33.4858 36.7125 35.0049C36.0158 35.822 35.2458 36.5711 34.4182 37.252C32.4801 38.813 30.2172 39.9287 27.8024 40.5154C25.131 41.1597 22.3443 41.1597 19.6729 40.5154C17.2528 39.9287 14.9952 38.813 13.0571 37.252C12.2295 36.5711 11.4595 35.822 10.7628 35.0049C7.0699 30.6415 5.94894 24.6491 7.82943 19.2486C8.18563 18.2481 8.63087 17.2843 9.16516 16.3676C9.41135 15.9485 9.71516 15.4771 9.86183 15.2833C10.3647 17.4467 10.9828 19.3481 11.2133 20.0343C11.1976 20.071 11.1766 20.1129 11.1556 20.1495C9.93516 22.6219 9.27516 25.0053 9.11802 27.5405C9.11802 27.572 9.11278 27.6086 9.11278 27.6401C9.07087 28.3996 9.09182 28.761 9.21754 29.2377C9.6104 30.7306 10.8204 32.3753 12.7166 33.9887C15.8228 36.6287 20.0343 38.5354 23.2243 38.7554C26.5505 38.9806 31.4587 37.0373 34.7273 34.1982C35.2406 33.7425 35.7225 33.2606 36.173 32.7472C36.4977 32.3701 36.9797 31.7206 36.943 31.7206C36.9325 31.7206 36.943 31.7101 36.9639 31.6996C36.9797 31.6891 36.9954 31.6734 36.9849 31.6629C36.9797 31.6577 36.9901 31.642 37.0058 31.6368C37.0216 31.6315 37.032 31.621 37.0268 31.6106C37.0216 31.6001 37.0268 31.5896 37.0478 31.5844C37.0635 31.5791 37.0687 31.5634 37.0635 31.5529C37.0582 31.5425 37.0635 31.532 37.0739 31.532C37.0844 31.532 37.0949 31.5163 37.0949 31.5058C37.0949 31.4953 37.1054 31.4796 37.1158 31.4796C37.1263 31.4796 37.1368 31.4691 37.1368 31.4587C37.1525 31.4168 37.1787 31.3748 37.2049 31.3382C37.2835 31.2177 37.5978 30.6572 37.6397 30.5629C37.9382 29.8872 38.1268 29.2848 38.2159 28.6824C38.2578 28.3943 38.284 27.8653 38.263 27.7396C38.2578 27.7186 38.2578 27.682 38.2525 27.6243C38.2421 27.5196 38.2368 27.3624 38.2263 27.2053C38.2159 26.9696 38.1949 26.6396 38.1792 26.4772C37.954 24.0991 37.3463 22.1557 36.1939 20.0971C36.1468 20.0186 36.1049 19.94 36.0787 19.8771C36.0682 19.8614 36.063 19.8457 36.0577 19.8352C36.2201 19.3481 36.8854 17.3105 37.4144 14.9795L37.4249 14.99L37.5035 15.0947C37.6397 15.2781 38.0011 15.8228 38.1635 16.0847C38.9021 17.2895 39.4782 18.5833 39.8868 19.9348C40.8349 23.1876 40.7564 26.6553 39.6459 29.861Z" fill="#F00500"/>
<path d="M32.8468 23.6016C32.8311 23.6854 32.5849 23.9369 32.3387 24.1202C31.6158 24.6492 30.322 25.1416 29.0072 25.3773C28.2582 25.5135 27.5091 25.5345 27.2839 25.4245C27.1372 25.3512 27.1162 25.2935 27.1686 25.105C27.2786 24.7121 27.6348 24.2826 28.1901 23.8792C28.4729 23.6749 29.6201 22.9783 30.1544 22.6849C31.0344 22.203 31.7468 21.9149 32.2287 21.8468C32.3806 21.8259 32.5639 21.8206 32.6215 21.8468C32.7158 21.8835 32.8206 22.1611 32.8625 22.4964C32.8835 22.6745 32.873 23.4602 32.8468 23.6016Z" fill="black"/>
<path d="M20.5057 25.3357C20.4743 25.3986 20.3171 25.4667 20.139 25.4929C19.9609 25.5191 19.4162 25.5033 19.1071 25.4667C17.9966 25.32 16.818 24.9795 15.959 24.5605C15.4771 24.3248 15.1313 24.089 14.8747 23.8324L14.728 23.6805L14.7123 23.4814C14.6861 23.1357 14.6913 22.5909 14.7333 22.3971C14.7594 22.2347 14.8171 22.0776 14.8956 21.9362C14.9375 21.8838 14.9375 21.8838 15.1261 21.8838C15.3566 21.8838 15.5504 21.9205 15.8647 22.02C16.509 22.219 17.4676 22.7009 18.6357 23.4028C19.5995 23.979 19.9609 24.2619 20.2385 24.6495C20.4271 24.8905 20.5528 25.231 20.5057 25.3357Z" fill="black"/>
<path d="M27.9228 32.6271C27.9228 32.6428 27.86 32.8943 27.7814 33.1928C27.7028 33.4914 27.64 33.7324 27.64 33.7428C27.5824 33.7481 27.53 33.7533 27.4724 33.7481H27.3047L27.0743 34.2928C26.9486 34.5914 26.8333 34.869 26.8176 34.9109L26.7862 34.9843L26.6762 34.8062L26.5662 34.6281V33.1771L26.5243 33.1876C26.4352 33.2085 25.8014 33.2924 25.5238 33.3185C24.3766 33.4338 23.2242 33.4076 22.0823 33.2452C21.899 33.219 21.7418 33.1981 21.7366 33.2033C21.7314 33.2085 21.7366 33.5438 21.7471 33.9576L21.7628 34.7014L21.6737 34.8376C21.6266 34.9109 21.5794 34.9738 21.5794 34.979C21.5637 34.9947 21.5114 34.9109 21.3909 34.67C21.2599 34.4185 21.1656 34.1514 21.0975 33.8738L21.0609 33.7219L20.8985 33.7324L20.7361 33.7481L20.6942 33.5543C20.6732 33.4495 20.6471 33.2871 20.6366 33.1981L20.6209 33.0304L20.4847 32.91C20.4061 32.8419 20.3275 32.7738 20.3118 32.7633C20.2856 32.7423 20.2751 32.7057 20.2751 32.6742V32.6114L20.9299 32.6166L21.5847 32.6219L21.6056 32.69L21.6266 32.7581L21.8518 32.7685C21.9776 32.7738 22.3756 32.7843 22.7318 32.7947L23.3866 32.8104L23.5542 32.5485L23.7271 32.2866H23.9471L23.9419 31.7419L23.9366 31.1971L23.6485 31.0714C22.7214 30.6628 22.1766 30.1966 21.9723 29.6309C21.9304 29.5157 21.9304 29.4737 21.9199 28.9499C21.9147 28.4314 21.9147 28.3842 21.9514 28.269C22.0247 28.0071 22.229 27.8028 22.4909 27.7347C22.5799 27.7085 22.8157 27.7085 24.0519 27.7085L25.5081 27.7137L25.6704 27.7923C25.8643 27.8866 25.9533 27.9547 26.0633 28.1014C26.189 28.269 26.2257 28.3999 26.2257 28.7195C26.2257 29.1752 26.1943 29.568 26.1471 29.7252C26.079 29.9399 25.9743 30.1442 25.8433 30.3276C25.5814 30.6628 25.1047 30.998 24.67 31.15L24.5442 31.1971L24.5495 31.7471L24.5547 32.2971L24.67 32.3076L24.7852 32.3181L24.9423 32.5538L25.0942 32.7895H25.7962C26.1838 32.7895 26.5243 32.7947 26.5557 32.8C26.6081 32.8104 26.6186 32.8052 26.6709 32.7162L26.7338 32.6219H27.3362C27.7867 32.6009 27.9228 32.6114 27.9228 32.6271Z" fill="black"/>
<path d="M25.1571 34.1303C25.0576 34.1879 24.9895 34.2141 24.9738 34.2036C24.9581 34.1984 24.8847 34.1355 24.8062 34.0779L24.6647 33.9627L24.5181 34.1198C24.1985 34.4655 24.1881 34.4812 24.0938 34.4865C23.9471 34.5022 23.9157 34.476 23.7376 34.2089C23.6433 34.0727 23.57 33.9574 23.57 33.9574C23.57 33.9574 23.5019 33.947 23.4233 33.9417L23.2766 33.926L23.2085 34.0674L23.1404 34.2089L23.02 34.1722C22.9257 34.1408 22.8314 34.1041 22.7423 34.0622L22.5852 33.9836V33.6851L23.9785 33.6903L25.3719 33.6955L25.3771 33.837C25.3824 34.0046 25.3876 33.9993 25.1571 34.1303Z" fill="black"/>
<path d="M38.2526 27.74C38.2474 27.7191 38.2474 27.6824 38.2422 27.6248C36.985 27.4886 33.3969 27.4048 30.0654 30.1548C30.0654 30.1548 28.9916 25.231 23.963 25.231C18.9344 25.231 17.0696 30.1548 17.0696 30.1548C14.2515 27.1219 10.48 27.3419 9.11812 27.541C9.11812 27.5724 9.11288 27.6091 9.11288 27.6405C9.07097 28.4 9.09192 28.7615 9.21764 29.2381C9.6105 30.731 10.8205 32.3758 12.7167 33.9891C15.8229 36.6291 20.0344 38.5358 23.2244 38.7558C26.5506 38.981 31.4588 37.0377 34.7274 34.1986C35.2407 33.7429 35.7226 33.261 36.1731 32.7477C36.4979 32.3705 36.9798 31.721 36.9431 31.721C36.9326 31.721 36.9431 31.7105 36.9641 31.7C36.9798 31.6896 36.9955 31.6739 36.985 31.6634C36.9798 31.6581 36.9902 31.6424 37.006 31.6372C37.0217 31.6319 37.0321 31.6215 37.0269 31.611C37.0217 31.6005 37.0269 31.59 37.0479 31.5848C37.0636 31.5796 37.0688 31.5639 37.0636 31.5534C37.0583 31.5429 37.0636 31.5324 37.0741 31.5324C37.0845 31.5324 37.095 31.5167 37.095 31.5062C37.095 31.4958 37.1055 31.48 37.116 31.48C37.1264 31.48 37.1369 31.4696 37.1369 31.4591C37.1526 31.4172 37.1788 31.3753 37.205 31.3386C37.2836 31.2181 37.5979 30.6577 37.6398 30.5634C37.9383 29.8877 38.1269 29.2853 38.216 28.6829C38.2474 28.3948 38.2736 27.8657 38.2526 27.74ZM25.1573 34.1305C25.0578 34.1882 24.9897 34.2143 24.974 34.2039C24.9582 34.1986 24.8849 34.1358 24.8063 34.0782L24.6649 33.9629L24.5182 34.1201C24.1987 34.4658 24.1882 34.4815 24.0939 34.4867C23.9473 34.5024 23.9159 34.4763 23.7378 34.2091C23.6435 34.0729 23.5701 33.9577 23.5701 33.9577C23.5701 33.9577 23.502 33.9472 23.4235 33.942L23.2768 33.9263L23.2087 34.0677L23.1406 34.2091L23.0201 34.1724C22.9258 34.141 22.8316 34.1043 22.7425 34.0624L22.5854 33.9839V33.6853L23.9787 33.6905L25.3721 33.6958L25.3773 33.8372C25.3825 34.0048 25.3878 33.9996 25.1573 34.1305ZM27.7764 33.1877C27.6978 33.4862 27.6349 33.7272 27.6349 33.7377C27.5773 33.7429 27.5249 33.7482 27.4673 33.7429H27.2997L27.0744 34.2929C26.9487 34.5915 26.8335 34.8691 26.8178 34.911L26.7863 34.9844L26.6764 34.8063L26.5664 34.6282V33.1772L26.5244 33.1877C26.4354 33.2086 25.8016 33.2924 25.524 33.3186C24.3768 33.4339 23.2244 33.4077 22.0825 33.2453C21.8992 33.2191 21.742 33.1982 21.7368 33.2034C21.7315 33.2086 21.7368 33.5439 21.7473 33.9577L21.763 34.7015L21.6739 34.8377C21.6268 34.911 21.5796 34.9739 21.5796 34.9791C21.5639 34.9948 21.5115 34.911 21.3911 34.6701C21.2601 34.4186 21.1658 34.1515 21.0977 33.8739L21.0611 33.722L20.8987 33.7324L20.7363 33.7482L20.6944 33.5543C20.6734 33.4496 20.6473 33.2872 20.6368 33.1981L20.6211 33.0305L20.4849 32.9101C20.4063 32.842 20.3277 32.7739 20.312 32.7634C20.2858 32.7424 20.2753 32.7058 20.2753 32.6743V32.6115L20.9301 32.6167L21.5849 32.622L21.6058 32.6901L21.6268 32.7581L21.852 32.7686C21.9777 32.7739 22.3758 32.7843 22.732 32.7948L23.3868 32.8105L23.5544 32.5486L23.7273 32.2867H23.9473L23.942 31.742L23.9368 31.1972L23.6487 31.0715C22.7216 30.6629 22.1768 30.1967 21.9725 29.631C21.9306 29.5157 21.9306 29.4738 21.9201 28.95C21.9149 28.4315 21.9149 28.3843 21.9515 28.2691C22.0249 28.0072 22.2292 27.8029 22.4911 27.7348C22.5801 27.7086 22.8158 27.7086 24.052 27.7086L25.5082 27.7138L25.6706 27.7924C25.8644 27.8867 25.9535 27.9548 26.0635 28.1015C26.1892 28.2691 26.2259 28.4 26.2259 28.7195C26.2259 29.1753 26.1944 29.5681 26.1473 29.7253C26.0792 29.94 25.9744 30.1443 25.8435 30.3277C25.5816 30.6629 25.1049 30.9981 24.6701 31.15L24.5444 31.1972L24.5497 31.7472L24.5549 32.2972L24.6701 32.3077L24.7854 32.3181L24.9425 32.5539L25.0944 32.7896H25.7963C26.184 32.7896 26.5244 32.7948 26.5559 32.8001C26.6083 32.8105 26.6187 32.8053 26.6711 32.7162L26.734 32.622H27.3364C27.8025 32.622 27.9387 32.6272 27.9387 32.6429C27.923 32.6377 27.8549 32.8943 27.7764 33.1877Z" fill="white"/>
<path d="M38.2105 27.2055C38.2 26.9697 38.1791 26.6397 38.1634 26.4773C37.9381 24.0992 37.3305 22.1559 36.1781 20.0973C36.131 20.0187 36.0891 19.9402 36.0629 19.8773C36.0524 19.8616 36.0472 19.8459 36.0419 19.8354C36.2043 19.3482 36.8695 17.3106 37.3986 14.9796C38.1162 11.8158 38.5719 8.11768 37.1786 7.0072C37.1786 7.0072 34.7691 6.8291 31.5424 9.99294C30.6676 10.8677 29.8662 11.8158 29.1538 12.8268L28.9285 12.7534C27.6295 12.3291 26.2833 12.0672 24.9266 11.9782C24.518 11.9468 22.9937 11.9468 22.4961 11.9782C20.9928 12.0777 19.8404 12.303 18.5308 12.7587C18.4784 12.7796 18.4313 12.7953 18.3842 12.8111C17.6456 11.8053 16.8232 10.8625 15.917 9.99817C12.5594 6.81863 10.0608 7.00196 10.0608 7.00196C8.58361 8.14911 9.08647 12.0149 9.85124 15.2835C10.3541 17.4468 10.9722 19.3482 11.2027 20.0344C11.187 20.0711 11.166 20.113 11.1451 20.1497C9.92457 22.6221 9.26457 25.0054 9.10742 27.5407C10.4746 27.3416 14.2408 27.1164 17.0642 30.1545C17.0642 30.1545 18.9289 25.2307 23.9575 25.2307C28.9861 25.2307 30.06 30.1545 30.06 30.1545C33.3914 27.4045 36.9795 27.4935 38.2367 27.6245C38.2315 27.5197 38.221 27.3626 38.2105 27.2055ZM12.1927 18.0597C12.1927 18.0597 10.2336 13.162 10.7365 10.3648C10.8203 9.89341 10.9774 9.4796 11.2236 9.16531C11.2236 9.16531 13.4446 9.38531 17.0275 13.3663C17.0275 13.3663 16.3465 13.6963 15.4351 14.3982C15.4351 14.3982 15.4299 14.4034 15.4246 14.4034C14.4346 15.163 13.167 16.3677 12.1927 18.0597ZM20.5056 25.3354C20.4742 25.3983 20.317 25.4664 20.1389 25.4926C19.9608 25.5188 19.4161 25.5031 19.107 25.4664C17.9965 25.3197 16.818 24.9792 15.9589 24.5602C15.477 24.3245 15.1313 24.0888 14.8746 23.8321L14.7279 23.6802L14.7122 23.4811C14.686 23.1354 14.6913 22.5907 14.7332 22.3968C14.7594 22.2345 14.817 22.0773 14.8956 21.9359C14.9375 21.8835 14.9375 21.8835 15.126 21.8835C15.3565 21.8835 15.5503 21.9202 15.8646 22.0197C16.5089 22.2187 17.4675 22.7007 18.6356 23.4026C19.5994 23.9788 19.9608 24.2616 20.2385 24.6492C20.427 24.8902 20.5527 25.2307 20.5056 25.3354ZM32.8467 23.6016C32.8309 23.6854 32.5847 23.9369 32.3386 24.1202C31.6157 24.6492 30.3219 25.1416 29.0071 25.3773C28.258 25.5135 27.509 25.5345 27.2838 25.4245C27.1371 25.3512 27.1161 25.2935 27.1685 25.105C27.2785 24.7121 27.6347 24.2826 28.19 23.8792C28.4728 23.6749 29.62 22.9783 30.1543 22.6849C31.0343 22.203 31.7466 21.9149 32.2286 21.8468C32.3805 21.8259 32.5638 21.8206 32.6214 21.8468C32.7157 21.8835 32.8205 22.1611 32.8624 22.4964C32.8833 22.6745 32.8728 23.4602 32.8467 23.6016ZM31.9771 14.3982L31.9666 14.393C31.0866 13.6911 30.4266 13.3611 30.4266 13.3611C33.889 9.38007 36.0314 9.16007 36.0314 9.16007C36.2672 9.4796 36.4191 9.88817 36.5029 10.3596C36.99 13.1568 35.0991 18.0597 35.0991 18.0597C34.3081 16.6506 33.2448 15.4039 31.9771 14.3982Z" fill="#FFA409"/>
<path d="M36.5082 10.3597C36.0996 10.3073 34.1668 10.2968 31.9772 14.3983L31.9668 14.3931C31.0868 13.6911 30.4268 13.3611 30.4268 13.3611C33.8892 9.38016 36.0315 9.16016 36.0315 9.16016C36.2725 9.47968 36.4244 9.88826 36.5082 10.3597Z" fill="#FF9300"/>
<path d="M35.1045 18.0596C34.3083 16.6453 33.2502 15.4039 31.9773 14.3981C34.1668 10.2967 36.0945 10.3071 36.5083 10.3595C36.9954 13.1619 35.1045 18.0596 35.1045 18.0596Z" fill="#FF8300"/>
<path d="M36.5869 10.3751C36.5607 10.3699 36.5345 10.3646 36.5083 10.3594L36.5869 10.3751Z" fill="#FF8300"/>
<path d="M17.0277 13.3611C17.0277 13.3611 16.3467 13.6911 15.4353 14.3931C15.4353 14.3931 15.4301 14.3983 15.4248 14.3983C13.1567 10.2916 11.161 10.3073 10.7314 10.3597C10.8153 9.88826 10.9724 9.47444 11.2186 9.16016C11.2238 9.16016 13.4448 9.38016 17.0277 13.3611Z" fill="#FF9300"/>
<path d="M15.43 14.3981C14.4347 15.1629 13.1671 16.3624 12.1928 18.0596C12.1928 18.0596 10.2337 13.1619 10.7366 10.3595C11.1609 10.3071 13.1619 10.2967 15.43 14.3981Z" fill="#FF8300"/>
<path d="M10.7366 10.3599C10.7105 10.3651 10.679 10.3703 10.6528 10.3756L10.7366 10.3599Z" fill="#FF8300"/>
<path d="M29.8034 20.7779C29.8034 20.7779 28.1272 20.8827 28.3367 19.5732C28.5463 18.2636 29.8558 18.1065 30.2225 18.1589C30.5891 18.2113 32.0558 18.7351 31.7939 19.8351C31.532 20.9351 31.1653 20.7256 30.9558 20.7779C30.7463 20.8303 29.8034 20.7779 29.8034 20.7779Z" fill="white"/>
<path d="M17.4413 20.7779C17.4413 20.7779 15.7651 20.8827 15.9747 19.5732C16.1842 18.2636 17.4937 18.1065 17.8604 18.1589C18.2271 18.2113 19.6937 18.7351 19.4318 19.8351C19.1699 20.9351 18.8033 20.7256 18.5937 20.7779C18.3842 20.8303 17.4413 20.7779 17.4413 20.7779Z" fill="white"/>
</svg>
