<svg width="48" height="48" viewBox="0 0 48 48" fill="none" xmlns="http://www.w3.org/2000/svg">
<path d="M16.5 18C16.5 9.71573 23.2157 3 31.5 3V3C39.7843 3 46.5 9.71573 46.5 18V18C46.5 26.2843 39.7843 33 31.5 33V33C23.2157 33 16.5 26.2843 16.5 18V18Z" fill="#009393"/>
<path d="M31.4994 28.178L20.7852 17.6084L24.8727 11.0352H38.1262L42.2137 17.6084L31.4994 28.178ZM32.5709 18.5352V17.228C34.4994 17.3244 36.2994 17.6994 36.8566 18.1869C36.2084 18.7548 33.8887 19.1673 31.4994 19.1673C29.1102 19.1673 26.7905 18.7548 26.1423 18.1869C26.6941 17.6994 28.4994 17.3298 30.428 17.2227V18.5352H32.5709ZM26.1423 18.1816V18.9691C26.6941 19.4566 28.4941 19.8262 30.428 19.9334V22.8209H32.5709V19.928C34.4994 19.8316 36.3048 19.4566 36.8566 18.9691V17.3994C36.3048 16.9119 34.4994 16.5369 32.5709 16.4352V15.3209H35.7852V13.7137H27.2137V15.3209H30.428V16.4352C28.4941 16.5369 26.6941 16.9119 26.1423 17.3994V18.1816Z" fill="white"/>
<g clip-path="url(#clip0_406_369)">
<path d="M1 14H31V44H1V14Z" fill="url(#paint0_linear_406_369)"/>
<path d="M21.4323 25.0946C21.3252 25.191 21.1912 25.2499 21.0519 25.2499H8.30194C8.02336 25.2499 7.86801 24.9499 8.03408 24.7356L10.5252 22.1964C10.6323 22.0946 10.7662 22.0356 10.9055 22.0356H23.6984C23.9769 22.0356 24.1323 22.341 23.9662 22.5499L21.4323 25.0946Z" fill="url(#paint1_linear_406_369)"/>
<path d="M21.432 35.8143C21.3249 35.9107 21.191 35.9643 21.0463 35.9643H8.29633C8.02848 35.9643 7.86776 35.6643 8.02848 35.45L10.5249 32.9054C10.632 32.8036 10.766 32.75 10.9053 32.75H23.6981C23.9767 32.75 24.132 33.0554 23.966 33.2643L21.432 35.8143Z" fill="url(#paint2_linear_406_369)"/>
<path d="M21.432 27.5431C21.3249 27.4466 21.191 27.3931 21.0463 27.3931H8.29633C8.02848 27.3931 7.86776 27.6931 8.02848 27.9074L10.5249 30.452C10.632 30.5484 10.766 30.6074 10.9053 30.6074H23.6981C23.9767 30.6074 24.132 30.302 23.966 30.0931L21.432 27.5431Z" fill="url(#paint3_linear_406_369)"/>
</g>
<rect x="2" y="15" width="28" height="28" rx="14" stroke="#191A1F" stroke-width="2"/>
<defs>
<linearGradient id="paint0_linear_406_369" x1="6.58214" y1="19.2018" x2="37.5089" y2="54.725" gradientUnits="userSpaceOnUse">
<stop stop-color="#1A1E21"/>
<stop offset="1" stop-color="#06060A"/>
</linearGradient>
<linearGradient id="paint1_linear_406_369" x1="8.53229" y1="26.5571" x2="23.2055" y2="22.2231" gradientUnits="userSpaceOnUse">
<stop stop-color="#6E73E3"/>
<stop offset="0.32" stop-color="#41B8C8"/>
<stop offset="0.58" stop-color="#27E2B7"/>
<stop offset="1" stop-color="#16FC99"/>
</linearGradient>
<linearGradient id="paint2_linear_406_369" x1="7.63741" y1="35.45" x2="24.3624" y2="33.1036" gradientUnits="userSpaceOnUse">
<stop stop-color="#9E48FF"/>
<stop offset="0.34" stop-color="#8D4DF9"/>
<stop offset="0.57" stop-color="#6B7AE1"/>
<stop offset="0.95" stop-color="#45B3CE"/>
</linearGradient>
<linearGradient id="paint3_linear_406_369" x1="8.59633" y1="29.0002" x2="23.7249" y2="29.0002" gradientUnits="userSpaceOnUse">
<stop stop-color="#8654F3"/>
<stop offset="0.47" stop-color="#549AD6"/>
<stop offset="0.93" stop-color="#26D9B2"/>
</linearGradient>
<clipPath id="clip0_406_369">
<rect x="1" y="14" width="30" height="30" rx="15" fill="white"/>
</clipPath>
</defs>
</svg>
