<svg width="48" height="48" viewBox="0 0 48 48" fill="none" xmlns="http://www.w3.org/2000/svg">
<circle cx="24" cy="24" r="24" fill="white"/>
<path d="M14.9826 19.4607C18.6901 13.1313 23.9999 6.7998 23.9999 6.7998C23.9999 6.7998 29.4437 13.291 33.1558 19.6988L24.2666 25.0584L14.9826 19.4607Z" fill="#00A3FF"/>
<path d="M13.8165 21.5602L24.2666 27.8607L34.3102 21.805C35.6308 24.374 36.5332 26.8092 36.5332 28.6665C36.5332 35.5883 30.9219 41.1998 23.9999 41.1998C17.0779 41.1998 11.4666 35.5883 11.4666 28.6665C11.4666 26.7501 12.4272 24.2191 13.8165 21.5602Z" fill="#00A3FF"/>
<path fill-rule="evenodd" clip-rule="evenodd" d="M24.0081 24.9028V6.80957C24.2424 7.08995 29.5268 13.4343 33.156 19.699L24.2666 25.0587L24.0081 24.9028ZM24.0081 41.1999V27.7053L24.2666 27.8612L34.3104 21.8054C35.6309 24.3743 36.5333 26.8092 36.5333 28.6666C36.5333 35.5859 30.9263 41.1956 24.0081 41.1999Z" fill="#66C8FF"/>
<path fill-rule="evenodd" clip-rule="evenodd" d="M24.0079 27.7051V41.1999L13.8047 21.5829C13.8086 21.5754 13.8125 21.5679 13.8164 21.5605L24.0079 27.7051ZM24.0079 24.9028L14.9924 19.4669L24.0079 15.4214V24.9028Z" fill="#66C8FF"/>
<path fill-rule="evenodd" clip-rule="evenodd" d="M24.0081 15.4253V24.9031L24.2666 25.059L33.156 19.6993C33.1118 19.623 33.0673 19.5467 33.0227 19.4705L24.0081 15.4253ZM33.9855 22.0017L24.2666 27.8615L24.0081 27.7056V41.1845L33.9855 22.0017Z" fill="#CCEDFF"/>
</svg>
