<svg width="48" height="48" viewBox="0 0 48 48" fill="none" xmlns="http://www.w3.org/2000/svg">
<path d="M16.5 18C16.5 9.71573 23.2157 3 31.5 3V3C39.7843 3 46.5 9.71573 46.5 18V18C46.5 26.2843 39.7843 33 31.5 33V33C23.2157 33 16.5 26.2843 16.5 18V18Z" fill="#009393"/>
<path d="M31.4994 28.178L20.7852 17.6084L24.8727 11.0352H38.1262L42.2137 17.6084L31.4994 28.178ZM32.5709 18.5352V17.228C34.4994 17.3244 36.2994 17.6994 36.8566 18.1869C36.2084 18.7548 33.8887 19.1673 31.4994 19.1673C29.1102 19.1673 26.7905 18.7548 26.1423 18.1869C26.6941 17.6994 28.4994 17.3298 30.428 17.2227V18.5352H32.5709ZM26.1423 18.1816V18.9691C26.6941 19.4566 28.4941 19.8262 30.428 19.9334V22.8209H32.5709V19.928C34.4994 19.8316 36.3048 19.4566 36.8566 18.9691V17.3994C36.3048 16.9119 34.4994 16.5369 32.5709 16.4352V15.3209H35.7852V13.7137H27.2137V15.3209H30.428V16.4352C28.4941 16.5369 26.6941 16.9119 26.1423 17.3994V18.1816Z" fill="white"/>
<path d="M16 43C8.26801 43 2 36.732 2 29C2 21.268 8.26801 15 16 15C23.732 15 30 21.268 30 29C30 36.732 23.732 43 16 43Z" fill="#F0F3FA" stroke="#191A1F" stroke-width="2"/>
<path d="M20.1785 26.9538C20.9345 27.9244 21.3438 29.1201 21.341 30.3503C21.341 31.6521 20.891 32.8467 20.1464 33.7896L20.0821 33.8699L20.066 33.7628C20.0505 33.6748 20.0327 33.5873 20.0125 33.5003C19.6375 31.8235 18.4267 30.3824 16.4232 29.2146C15.0732 28.4324 14.2964 27.4896 14.0928 26.4181C13.9821 25.7507 14.0373 25.0663 14.2535 24.4253C14.406 23.9242 14.6434 23.4531 14.9553 23.0324L15.7375 22.0574C15.7691 22.0183 15.8091 21.9867 15.8545 21.965C15.8999 21.9433 15.9496 21.9321 16 21.9321C16.0503 21.9321 16.1 21.9433 16.1454 21.965C16.1908 21.9867 16.2308 22.0183 16.2625 22.0574L20.1785 26.9538ZM21.4107 25.9788L16.1928 19.4485C16.1697 19.4195 16.1404 19.396 16.107 19.3799C16.0736 19.3638 16.037 19.3555 16 19.3555C15.9629 19.3555 15.9263 19.3638 15.8929 19.3799C15.8595 19.396 15.8302 19.4195 15.8071 19.4485L10.5892 25.9842L10.5732 26.0003C9.57346 27.2705 9.03173 28.841 9.03567 30.4574C9.03567 34.3842 12.1535 37.5717 16 37.5717C19.8464 37.5717 22.9642 34.3842 22.9642 30.4574C22.9682 28.841 22.4264 27.2705 21.4267 26.0003L21.4107 25.9788ZM11.8375 26.9324L12.3035 26.3485L12.3196 26.4556L12.3571 26.7128C12.6625 28.336 13.7392 29.686 15.5446 30.7306C17.1142 31.6467 18.025 32.6967 18.2875 33.8485C18.3946 34.3306 18.416 34.8021 18.3678 35.2146V35.2413L18.3464 35.2521C17.6179 35.6162 16.8144 35.8052 16 35.8038C13.0535 35.8038 10.6589 33.361 10.6589 30.3503C10.6589 29.0592 11.0982 27.8699 11.8375 26.9324Z" fill="#4BA2FF"/>
</svg>
