<svg width="48" height="48" viewBox="0 0 48 48" fill="none" xmlns="http://www.w3.org/2000/svg">
<g clip-path="url(#clip0_401_347)">
<path d="M0 0H48V48H0V0Z" fill="#009393"/>
<path d="M23.9998 40.2855L6.85693 23.3741L13.3969 12.8569H34.6026L41.1426 23.3741L23.9998 40.2855ZM25.7141 24.8569V22.7655C28.7998 22.9198 31.6798 23.5198 32.5712 24.2998C31.5341 25.2084 27.8226 25.8684 23.9998 25.8684C20.1769 25.8684 16.4655 25.2084 15.4284 24.2998C16.3112 23.5198 19.1998 22.9284 22.2855 22.7569V24.8569H25.7141ZM15.4284 24.2912V25.5512C16.3112 26.3312 19.1912 26.9226 22.2855 27.0941V31.7141H25.7141V27.0855C28.7998 26.9312 31.6884 26.3312 32.5712 25.5512V23.0398C31.6884 22.2598 28.7998 21.6598 25.7141 21.4969V19.7141H30.8569V17.1426H17.1426V19.7141H22.2855V21.4969C19.1912 21.6598 16.3112 22.2598 15.4284 23.0398V24.2912Z" fill="white"/>
</g>
<defs>
<clipPath id="clip0_401_347">
<rect width="48" height="48" rx="24" fill="white"/>
</clipPath>
</defs>
</svg>
