<svg width="48" height="48" viewBox="0 0 48 48" fill="none" xmlns="http://www.w3.org/2000/svg">
<g clip-path="url(#clip0_402_350)">
<path d="M0 0H48V48H0V0Z" fill="url(#paint0_linear_402_350)"/>
<path d="M23.9999 37.7142C26.0594 37.7141 28.0923 37.2501 29.9479 36.3567C31.8035 35.4634 33.4341 34.1636 34.7186 32.5538C36.0031 30.944 36.9086 29.0656 37.3678 27.058C37.8271 25.0504 37.8283 22.9652 37.3713 20.9571C37.2513 20.7856 37.0456 20.6142 36.857 20.6142C36.5999 20.6142 36.3599 20.9914 36.2828 21.1714L31.4999 29.5114C31.1196 30.1788 30.5697 30.734 29.906 31.1208C29.2422 31.5077 28.4881 31.7123 27.7199 31.7142H24.857V23.1428L21.4542 29.5456C21.0717 30.203 20.524 30.7489 19.8655 31.1293C19.2069 31.5097 18.4604 31.7113 17.6999 31.7142H15.4285V18.8571H20.5713V27.4285L25.2342 18.8571H29.9999V27.6428L35.5285 18.3428C35.6313 18.1456 35.8885 17.4856 35.8113 17.0314C34.5909 14.9626 32.8485 13.2507 30.7585 12.0669C28.6686 10.8832 26.3044 10.269 23.9026 10.286C21.5007 10.303 19.1454 10.9504 17.0724 12.1636C14.9994 13.3768 13.2814 15.1132 12.0903 17.1989C10.8992 19.2847 10.2767 21.6467 10.2852 24.0486C10.2938 26.4505 10.933 28.808 12.1389 30.8853C13.3448 32.9625 15.0751 34.6867 17.1566 35.8851C19.2382 37.0836 21.598 37.7143 23.9999 37.7142Z" fill="white"/>
</g>
<defs>
<linearGradient id="paint0_linear_402_350" x1="8.93143" y1="8.32286" x2="58.4143" y2="65.16" gradientUnits="userSpaceOnUse">
<stop stop-color="#1A1E21"/>
<stop offset="1" stop-color="#06060A"/>
</linearGradient>
<clipPath id="clip0_402_350">
<rect width="48" height="48" rx="24" fill="white"/>
</clipPath>
</defs>
</svg>
