<svg width="48" height="48" viewBox="0 0 48 48" fill="none" xmlns="http://www.w3.org/2000/svg">
<path d="M16.5 18C16.5 9.71573 23.2157 3 31.5 3V3C39.7843 3 46.5 9.71573 46.5 18V18C46.5 26.2843 39.7843 33 31.5 33V33C23.2157 33 16.5 26.2843 16.5 18V18Z" fill="#009393"/>
<path d="M31.4994 28.178L20.7852 17.6084L24.8727 11.0352H38.1262L42.2137 17.6084L31.4994 28.178ZM32.5709 18.5352V17.228C34.4994 17.3244 36.2994 17.6994 36.8566 18.1869C36.2084 18.7548 33.8887 19.1673 31.4994 19.1673C29.1102 19.1673 26.7905 18.7548 26.1423 18.1869C26.6941 17.6994 28.4994 17.3298 30.428 17.2227V18.5352H32.5709ZM26.1423 18.1816V18.9691C26.6941 19.4566 28.4941 19.8262 30.428 19.9334V22.8209H32.5709V19.928C34.4994 19.8316 36.3048 19.4566 36.8566 18.9691V17.3994C36.3048 16.9119 34.4994 16.5369 32.5709 16.4352V15.3209H35.7852V13.7137H27.2137V15.3209H30.428V16.4352C28.4941 16.5369 26.6941 16.9119 26.1423 17.3994V18.1816Z" fill="white"/>
<g clip-path="url(#clip0_406_369)">
<path d="M1 14H31V44H1V14Z" fill="url(#paint0_linear_406_369)"/>
<path d="M22.0575 21.5H24.5384L19.3773 27.0061C18.9425 27.4655 18.419 27.8321 17.8386 28.0837C17.2581 28.3352 16.6327 28.4665 16.0001 28.4696C15.3675 28.4665 14.7421 28.3352 14.1617 28.0837C13.5813 27.8321 13.0578 27.4655 12.623 27.0061L7.45335 21.5H9.94282L13.8594 25.7177C15.0064 26.9343 16.9939 26.9343 18.1409 25.7177L22.0575 21.5ZM9.90907 36.4914H7.42871L12.6225 31.002C13.0581 30.5423 13.5823 30.1757 14.1634 29.9242C14.7446 29.6726 15.3706 29.5414 16.0039 29.5384C16.6372 29.5415 17.2633 29.6728 17.8444 29.9244C18.4256 30.1761 18.9497 30.5428 19.3853 31.0025L24.5716 36.5H22.0907L18.1494 32.2989C17.0019 31.0829 15.015 31.0829 13.868 32.2989L9.9096 36.4914H9.90907Z" fill="white"/>
</g>
<rect x="2" y="15" width="28" height="28" rx="14" stroke="#191A1F" stroke-width="2"/>
<defs>
<linearGradient id="paint0_linear_406_369" x1="6.58107" y1="19.2029" x2="37.5073" y2="54.7234" gradientUnits="userSpaceOnUse">
<stop stop-color="#1A1E21"/>
<stop offset="1" stop-color="#06060A"/>
</linearGradient>
<clipPath id="clip0_406_369">
<rect x="1" y="14" width="30" height="30" rx="15" fill="white"/>
</clipPath>
</defs>
</svg>
