<svg width="100" height="100" viewBox="0 0 100 100" fill="none" xmlns="http://www.w3.org/2000/svg">
<path style="mix-blend-mode:multiply" d="M36.5471 40.8657C37.8622 40.8657 38.9285 39.8112 38.9278 38.5116L38.9241 34.6438C38.9212 28.5032 43.9746 23.504 50.1882 23.5011C56.4019 23.4982 61.4605 28.4923 61.4634 34.633L61.4671 38.516C61.4685 39.8142 62.5334 40.8665 63.8478 40.8665H65.6648C66.9807 40.8665 68.0463 39.812 68.0455 38.5123L68.0419 34.6293C68.0352 24.903 60.0251 16.9949 50.1839 17C40.3427 17.0051 32.3406 24.9204 32.3457 34.6467L32.3494 38.516C32.3508 39.8142 33.4157 40.8665 34.73 40.8665L36.5471 40.8657Z" fill="url(#paint0_linear_196_296)" fill-opacity="0.7"/>
<path d="M69.6486 43.3008H31.1205C27.7373 43.3008 24.9927 46.0205 25 49.3639V75.9442C25 79.2876 27.752 82 31.1352 82L69.2817 81.9782C72.6649 81.9782 75.4095 79.2658 75.4021 75.9224V49.3348C75.4021 46.1219 72.8557 43.4966 69.6486 43.3008Z" fill="#004FEE"/>
<path d="M51.6561 63.2193C53.0644 62.3178 53.9979 60.7395 53.9979 58.9433C53.9979 56.1413 51.7263 53.8696 48.9242 53.8696C46.1222 53.8696 43.8506 56.1413 43.8506 58.9433C43.8506 60.7395 44.7841 62.3178 46.1924 63.2193V67.9196H51.6561V63.2193Z" fill="white"/>
<defs>
<linearGradient id="paint0_linear_196_296" x1="50.1956" y1="17" x2="50.1956" y2="40.8665" gradientUnits="userSpaceOnUse">
<stop stop-color="#6EF3E8"/>
<stop offset="1" stop-color="#6EF3E8" stop-opacity="0.32"/>
</linearGradient>
</defs>
</svg>
