<svg width="56" height="56" viewBox="0 0 56 56" fill="none" xmlns="http://www.w3.org/2000/svg">
<path d="M51.8428 33.5053C51.2261 31.3887 50.3845 29.3795 49.3771 27.519C50.2975 26.2217 50.8611 24.6473 50.9029 23.1147C50.9805 20.2694 49.2944 17.908 47.4708 17.2231C47.3443 16.6664 47.1041 16.1703 46.8726 15.7426C44.9019 12.0971 41.4044 9.85296 37.5157 9.73968C35.5659 9.69085 32.964 10.317 31.0928 11.2872C28.3194 5.67524 20.9837 4.18532 16.1961 8.42413C16.0353 8.51849 15.8726 8.60693 15.7149 8.7116C11.5146 11.5488 10.3529 17.1724 13.0432 21.3889C11.1526 22.4862 9.06867 24.5466 8.08698 26.2905C6.17829 29.6811 6.29645 33.8354 8.4029 37.4037C8.64997 37.8227 8.95124 38.2836 9.36286 38.6801C9.00741 40.5758 10.1476 43.2498 12.6392 44.6586C13.7984 45.3139 15.1876 45.6528 16.5718 45.6528C16.8197 45.6528 17.0648 45.6205 17.311 45.5986C17.3663 45.692 17.4126 45.7807 17.4708 45.8754C18.8536 48.1284 20.4092 49.5483 21.4132 49.5473C21.5549 49.5473 21.6826 49.5127 21.8001 49.4546L21.7933 49.4703L21.9863 49.3827C23.5914 51.1469 24.9983 52.1225 25.9224 52.1225C26.2549 52.1225 26.538 51.9981 26.7308 51.7173C34.7245 46.4952 30.1328 49.557 51.2486 35.1088C51.7873 34.7367 52.0045 34.0615 51.8428 33.5053ZM33.7916 45.895C32.4786 39.3569 29.2642 34.2524 24.2379 30.7221C24.0993 30.6243 23.9481 30.5546 23.7911 30.5066L39.158 20.7354C39.2707 20.7601 39.3772 20.8098 39.4746 20.8732C44.0958 23.9472 47.7695 29.2143 49.7239 35.2311C49.7538 35.3244 49.7523 35.4221 49.7599 35.5192L33.795 46.4419C33.8227 46.2615 33.8283 46.0778 33.7916 45.895ZM42.8381 20.4472C42.8381 20.5157 42.7102 20.5712 42.5524 20.5712C42.3947 20.5712 42.2668 20.5157 42.2668 20.4472C42.2668 20.3787 42.3947 20.3233 42.5524 20.3233C42.7102 20.3233 42.8381 20.3787 42.8381 20.4472ZM41.0963 20.1831C41.2486 20.1831 41.3721 20.27 41.3721 20.3771C41.3721 20.4842 41.2486 20.5712 41.0963 20.5712C40.944 20.5712 40.8206 20.4842 40.8206 20.3771C40.8206 20.27 40.944 20.1831 41.0963 20.1831ZM41.9757 21.3742C41.9757 21.4011 41.9227 21.4228 41.8572 21.4228C41.7916 21.4228 41.7386 21.4011 41.7386 21.3742C41.7386 21.3475 41.7916 21.3257 41.8572 21.3257C41.9227 21.3257 41.9757 21.3475 41.9757 21.3742ZM51.2816 33.4136C51.29 33.5156 51.2949 33.6177 51.2854 33.7206C51.238 34.231 50.9255 34.7095 50.4772 34.958C50.743 34.1813 50.8788 33.3038 50.6187 32.5252C50.501 32.619 50.3835 32.7128 50.2661 32.8065C50.3832 32.2084 50.3513 31.5815 50.1738 30.9985C50.0663 31.1015 49.9588 31.2045 49.8514 31.3075C49.8251 30.6512 49.782 30.0067 49.7512 29.3536C50.3701 30.6838 50.8715 32.0409 51.2816 33.4136ZM46.4581 19.5893C46.0128 20.0297 45.3248 20.1186 44.9859 19.7768C44.6553 19.4457 44.6837 18.7319 45.0469 18.2494C45.4525 17.7115 46.207 17.4014 47.0338 17.6088C47.1511 18.4169 46.8856 19.1657 46.4581 19.5893ZM24.272 6.64788C29.18 7.58563 32.3684 12.3088 31.4024 17.2114C30.9351 19.5815 29.5723 21.6323 27.5645 22.9877C23.4634 25.753 17.8263 24.7721 15.0049 20.5922C13.6583 18.5971 13.1739 16.1938 13.6407 13.8256C14.5966 8.97703 19.3014 5.70634 24.272 6.64788ZM17.4492 24.1514C17.3648 23.9932 17.4246 23.7963 17.583 23.7118C17.5908 23.7076 17.5995 23.7129 17.6075 23.7095C17.7493 23.7935 17.8874 23.8832 18.0336 23.9597C18.0822 24.3615 17.6018 24.4375 17.4492 24.1514ZM15.773 22.9254C15.9887 22.8103 16.2567 22.8918 16.3717 23.1075C16.4867 23.3231 16.4052 23.5911 16.1895 23.7062C15.974 23.8212 15.7059 23.7397 15.5909 23.524C15.4758 23.3084 15.5574 23.0403 15.773 22.9254ZM12.8853 44.2231C10.7683 43.0263 9.66135 40.8185 9.81452 39.0512C10.4991 39.5229 11.3228 39.6977 12.0352 39.517C12.9151 39.2944 13.5025 38.4828 13.3179 37.7465C13.1412 37.0444 12.3004 36.5483 11.4405 36.6352C10.6396 36.7184 9.86595 37.2713 9.52253 38.1254C9.24323 37.8139 9.02204 37.4692 8.83356 37.1498C6.81842 33.7368 6.70221 29.769 8.52253 26.5366C9.46637 24.8588 11.4752 22.8754 13.2984 21.8198C13.3079 21.8142 13.3085 21.8019 13.317 21.7954C15.9631 25.5112 20.8961 26.6865 24.9345 24.7105C25.9562 24.4373 26.9409 24.0112 27.8438 23.4018C29.962 21.9721 31.4 19.808 31.8931 17.308C32.2684 15.4028 32.0571 13.4778 31.3084 11.7375C33.1108 10.7986 35.6314 10.1898 37.501 10.2397C41.209 10.3481 44.5479 12.4936 46.4332 15.9809C46.6094 16.3071 46.7911 16.6743 46.9136 17.0746C46.0724 16.944 45.1582 17.2726 44.6475 17.9487C44.128 18.6391 44.1207 19.6176 44.6314 20.1303C45.1661 20.6674 46.1651 20.5825 46.8096 19.9448C47.3301 19.4291 47.6075 18.6313 47.5557 17.8022C49.1508 18.582 50.4692 20.67 50.4029 23.101C50.3658 24.457 49.889 25.8459 49.1097 27.0212C47.2922 23.8147 44.9506 21.102 42.2862 19.2045C41.7974 18.8563 41.1412 18.8835 40.713 19.1547L22.6417 30.5864C22.6329 30.5919 22.633 30.6033 22.6252 30.6096C22.5656 30.6378 22.5023 30.6533 22.4454 30.6889L15.9337 34.7768C15.9063 34.7939 15.9 34.8251 15.8819 34.8495C15.0421 35.4786 15.2374 37.5431 16.4055 40.4526L16.2119 40.6107L16.2294 40.618C15.1585 41.4007 16.3979 43.9734 17.0413 45.1313C15.5915 45.2185 14.1032 44.9115 12.8853 44.2231ZM9.91755 38.5043C10.1679 37.6879 10.8265 37.2013 11.4923 37.1332C12.1041 37.0649 12.7193 37.4135 12.8326 37.8676C12.9498 38.3344 12.5196 38.8784 11.9122 39.0326C11.3318 39.1769 10.5612 39.0244 9.91755 38.5043ZM17.8966 45.6137C17.8827 45.5911 17.8721 45.5704 17.8585 45.5478C18.1239 45.506 18.3817 45.4375 18.6393 45.369C19.057 46.0001 19.4653 46.2847 19.64 46.1776C19.8266 46.063 19.6489 45.5426 19.2018 44.8141C18.7548 44.0857 18.4003 43.8036 18.2137 43.9181C18.0568 44.0144 18.1031 44.3844 18.3822 44.9288C18.121 44.993 17.8563 45.0434 17.5875 45.0789C14.5039 39.6836 17.4311 39.1472 20.9117 46.0839C21.1906 46.6418 22.1385 48.6721 21.605 49.0004C21.1065 49.2993 19.543 48.2963 17.8966 45.6137ZM26.1964 51.5561C25.7163 51.8527 24.3558 51.207 22.467 49.1647L22.6971 49.0604C22.8641 49.0039 23.016 48.9354 23.0855 48.8906C23.0893 48.8883 23.0904 48.8828 23.0941 48.8804L23.1129 48.8718L23.1058 48.8663C23.7974 48.3784 23.0704 46.2219 21.3414 43.3212C19.5909 40.3638 18.1802 39.1527 17.4443 39.6047L16.8118 40.121C15.7179 37.3322 15.6587 35.5471 16.2086 35.2133C16.3297 35.1371 16.4835 35.1244 16.6788 35.1703C17.9781 35.4789 20.3804 38.227 22.7994 42.1723C25.2515 46.1567 26.7423 49.8618 26.4249 51.184C26.3809 51.3666 26.3067 51.4877 26.1978 51.5541L26.1964 51.5561ZM26.9352 50.9883C27.0714 49.3491 25.6669 45.8775 23.2252 41.9106C20.7863 37.9326 18.4045 35.2187 16.9442 34.733L22.711 31.1127C23.0958 30.8725 23.5938 30.8793 23.9508 31.1303C28.8682 34.5854 32.0147 39.5854 33.3013 45.9926C33.3897 46.435 33.1905 46.9008 32.8048 47.1528L26.9352 50.9883Z" fill="white"/>
<path d="M16.2544 19.7631C18.6122 23.2564 23.3852 24.1613 26.8916 21.7944C30.4008 19.4242 31.3403 14.6576 28.9848 11.1694C27.8437 9.47894 26.1084 8.33636 24.0991 7.95257C19.8885 7.1561 15.9069 9.92706 15.0981 14.0287C14.7021 16.0366 15.1128 18.0727 16.2544 19.7631ZM15.5883 14.1254C16.8242 7.86156 25.0323 6.20902 28.5708 11.4487C30.7715 14.7094 29.8925 19.1645 26.6118 21.3803C23.3305 23.5951 18.8701 22.7446 16.6684 19.4838C15.6025 17.9037 15.2187 16.0014 15.5883 14.1254Z" fill="white"/>
<path d="M21.7824 20.4407C21.8466 20.5598 22.0468 20.6246 22.1687 20.5618L23.5217 19.8753L24.0273 20.823C24.0494 20.8644 24.1005 20.8805 24.1423 20.8593L24.666 20.5932C24.7087 20.5716 24.7254 20.5192 24.7033 20.4767L24.209 19.5265L24.7301 19.2622L25.229 20.1973C25.2514 20.2392 25.3036 20.2551 25.3455 20.2327L25.8636 19.9563C25.9053 19.9341 25.9212 19.8824 25.8995 19.8406L25.4164 18.9119C26.1844 18.4976 26.6674 17.6071 26.5915 16.7415C26.4991 15.6791 25.595 14.7639 24.5759 14.6692C25.1734 13.2531 24.2021 11.7824 22.7898 11.6546C22.2591 11.6097 21.7453 11.7648 21.2693 11.9721L20.7675 11.0546C20.7361 10.9974 20.6645 10.976 20.607 11.0067L20.1467 11.2522C20.0887 11.2832 20.0668 11.3553 20.0977 11.4134L20.5756 12.3091L20.0592 12.5827L19.5722 11.6924C19.5408 11.6351 19.4692 11.6137 19.4117 11.6444L18.9514 11.8899C18.8934 11.9209 18.8714 11.993 18.9024 12.0511L19.3785 12.9435L18.385 13.47C18.2668 13.5364 18.2073 13.7395 18.2712 13.8597L21.7824 20.4407ZM22.7449 12.1526C23.9771 12.2632 24.6894 13.6764 23.9699 14.7454C23.9021 14.844 23.904 14.9769 23.9743 15.0745C24.0349 15.1585 24.1828 15.2112 24.2854 15.1849C24.4426 15.1399 24.6272 15.1624 24.8972 15.2552C25.5422 15.4769 26.0344 16.1058 26.0935 16.7845C26.1531 17.4603 25.7741 18.1565 25.177 18.4749L22.1267 20.0228L18.8117 13.8099C20.9571 12.6919 21.8287 12.0672 22.7449 12.1526Z" fill="white"/>
<path d="M22.7986 13.9327C22.5472 13.4615 21.9615 13.2834 21.4903 13.5348L20.5369 14.0434C20.4824 14.0725 20.4618 14.1403 20.4909 14.1948L21.2894 15.6916C21.3182 15.7456 21.3851 15.7664 21.4395 15.7383L22.3898 15.2467C22.8683 14.9991 23.0522 14.4081 22.7986 13.9327ZM22.9473 18.5645L23.8975 18.0729C24.3761 17.8253 24.5599 17.2343 24.3063 16.7589C24.0549 16.2877 23.4692 16.1096 22.9981 16.3609L22.0447 16.8696C21.9901 16.8986 21.9695 16.9664 21.9986 17.0209L22.7971 18.5177C22.826 18.5718 22.8929 18.5926 22.9473 18.5645ZM20.6509 21.6273C19.7121 20.9247 18.9985 19.894 18.5407 18.8419C18.5071 19.1365 18.4735 19.4311 18.4398 19.7257C17.9235 18.8897 17.5433 17.9726 17.3142 17.0096C17.2643 17.3392 17.2145 17.6688 17.1648 17.9985C16.7499 16.9149 16.5006 15.7215 16.4608 14.5356C15.5914 17.7436 17.3883 20.7956 20.6509 21.6273ZM23.4973 9.31805C23.6208 9.25213 23.6675 9.09857 23.6016 8.97503C23.5357 8.8515 23.3822 8.80481 23.2587 8.87073C23.1351 8.93658 23.0884 9.09015 23.1543 9.21368C23.2202 9.33722 23.3738 9.38391 23.4973 9.31805ZM24.6839 9.26935C24.5502 9.01879 24.1709 9.22062 24.3048 9.47156C24.4385 9.72211 24.8178 9.52028 24.6839 9.26935ZM25.0433 47.4663C25.1769 48.0577 25.184 48.6574 25.243 49.2608C25.3089 49.9361 25.0133 50.2137 24.3236 49.8663C24.4741 49.8218 24.6047 49.7137 24.6763 49.574C24.2792 49.549 23.8529 49.5488 23.4559 49.5237C23.8978 50.0692 25.1682 51.2134 25.7321 50.7946C26.0266 50.5757 25.9505 50.1677 25.8616 49.8441C25.6391 49.0354 25.3656 48.2407 25.0433 47.4663ZM16.7228 35.8953C16.6269 35.8953 16.5492 35.973 16.5492 36.0688C16.5492 36.1647 16.6269 36.2424 16.7228 36.2424C16.8186 36.2424 16.8963 36.1647 16.8963 36.0688C16.8963 35.973 16.8186 35.8953 16.7228 35.8953ZM17.5346 36.3207C17.4233 36.3207 17.3331 36.411 17.3331 36.5223C17.3331 36.6337 17.4233 36.7239 17.5346 36.7239C17.6459 36.7239 17.7362 36.6337 17.7362 36.5223C17.7362 36.411 17.6459 36.3207 17.5346 36.3207ZM29.5963 42.2294C29.7615 42.0861 29.9266 41.9427 30.0917 41.7994C30.2277 42.8154 30.1038 43.8649 29.7352 44.8213C29.9908 44.6978 30.2463 44.5744 30.5018 44.451C30.2758 45.6815 29.8337 47.154 29.6364 47.674C29.4221 48.2392 29.3935 48.2606 29.423 48.3331C29.4569 48.3829 29.5335 48.3058 29.5695 48.2847C29.6174 48.2567 32.3397 46.6631 32.3889 46.6343C32.0045 44.1037 30.8394 41.7199 29.1353 39.4376C29.5115 40.3221 29.6874 41.2725 29.5963 42.2294ZM20.6036 33.8327C20.6036 33.7396 20.4526 33.6641 20.2662 33.6641C20.08 33.6641 19.9289 33.7396 19.9289 33.8327C19.9289 33.9259 20.08 34.0014 20.2662 34.0014C20.4526 34.0014 20.6036 33.9259 20.6036 33.8327ZM21.6564 34.0014C21.499 34.0014 21.3715 34.0587 21.3715 34.1294C21.3715 34.2001 21.499 34.2573 21.6564 34.2573C21.8138 34.2573 21.9415 34.2001 21.9415 34.1294C21.9415 34.0587 21.8138 34.0014 21.6564 34.0014Z" fill="white"/>
<path d="M20.6211 35.1409C20.7592 35.1409 20.8711 35.0965 20.8711 35.0419C20.8711 34.9872 20.7592 34.9429 20.6211 34.9429C20.483 34.9429 20.3711 34.9872 20.3711 35.0419C20.3711 35.0965 20.483 35.1409 20.6211 35.1409Z" fill="white"/>
<path d="M38.8762 35.7431L38.0135 32.1451C37.9916 32.0541 38.042 31.9611 38.1302 31.9296L44.127 29.7925C44.3109 29.7269 44.2787 29.4578 44.0847 29.4373L35.8658 28.5712C35.7503 28.559 35.6527 28.6559 35.6641 28.7715C36.1629 34.2329 36.2751 34.1131 36.1033 34.2292L32.5837 36.6083C32.421 36.7183 32.5218 36.9727 32.7158 36.9413L38.7271 35.9669C38.8324 35.9498 38.901 35.8468 38.8762 35.7431ZM36.5259 31.0982C36.4368 30.3476 36.35 29.616 36.349 29.6075C36.323 29.3881 36.3155 29.0499 36.6206 29.0922C36.6635 29.0981 40.1303 29.4874 40.1734 29.4922C39.8834 29.5243 38.5747 29.4423 36.9559 30.1249C37.141 30.2052 37.3261 30.2855 37.5112 30.3658C37.1424 30.5494 36.8121 30.8019 36.5259 31.0982ZM9.76996 11.143C8.91956 11.2697 8.0412 11.2051 7.21844 10.9554C6.98303 10.884 6.74432 10.7966 6.49884 10.8134C7.80017 10.237 9.24103 10.0827 10.6385 9.81311C9.98291 9.28137 9.20471 8.8382 8.80908 8.09247C9.54529 8.36444 10.2647 8.65436 10.9714 8.99573C11.0165 8.95435 11.0037 8.88153 10.9876 8.82245C10.6898 7.73029 10.5068 6.60687 10.4424 5.47668C11.2334 5.84247 11.9543 6.25684 12.6478 6.78473C11.8794 5.65118 10.9011 4.66034 9.77753 3.87744C9.68176 4.22589 9.67047 4.617 9.68945 4.97784C9.73425 5.82733 9.80157 6.6756 9.89142 7.52148C9.86487 7.27161 8.93186 7.11358 8.64337 7.04785C7.79887 6.85549 6.82405 6.69963 5.96124 6.83972C5.81708 6.86316 5.61249 6.86163 5.74939 7.03076C6.34596 7.76837 7.37227 8.28438 8.13129 8.90228C8.19598 8.95496 8.55255 9.3501 8.60748 9.34186C6.98299 9.58559 5.10908 9.8775 4.10449 10.4811C4.12372 10.4903 4.14294 10.4996 4.16223 10.5088C4.14569 10.507 4.15503 10.4907 4.13849 10.4889C6.16132 12.0347 8.33198 12.0534 9.76996 11.143Z" fill="white"/>
</svg>
