<svg width="56" height="56" viewBox="0 0 56 56" fill="none" xmlns="http://www.w3.org/2000/svg">
<path d="M52.23 13.9679C52.4104 11.4828 51.1001 10.7177 48.8559 11.8966C48.7749 11.9376 48.6938 11.9786 48.6255 12.0216C47.0021 12.9091 45.0455 14.7297 43.771 16.0636L43.3838 16.4728C42.6631 15.7842 41.6825 15.1239 41.0967 14.8497C39.2481 13.8693 37.9289 13.8464 36.7641 14.2399C34.589 12.1584 31.5795 12.2324 30.1372 13.2472C29.7419 13.5262 29.4391 13.8887 29.1794 14.2776C28.4026 14.1089 27.6 13.9463 26.7715 14.3082C26.0483 14.0704 24.3667 13.5834 22.8149 13.6446C22.2251 13.6544 21.6528 13.6827 21.1362 13.9181C20.1644 14.3612 19.9571 15.3402 20.52 16.1505C21.0862 16.9844 22.7248 17.7171 23.6593 18.0916C23.3369 18.7155 23.245 19.1596 23.3921 19.4855C23.8328 20.4544 25.892 19.7581 26.8155 19.207C27.0367 19.285 27.2314 19.361 27.4107 19.4375C27.3394 20.6791 28.2861 21.0149 29.1272 20.4567C30.3457 21.3777 31.2587 22.6223 31.807 23.9607C30.1206 23.7928 28.228 23.9399 27.1811 24.2013C25.7329 24.5284 24.8403 25.3946 24.7925 26.5196C24.7652 27.3798 25.1342 27.7198 25.7964 27.7677C29.8055 28.1586 30.8851 28.642 33.664 29.8587C32.4798 32.01 31.1339 34.5454 30.1997 37.253C30.1997 37.254 30.1802 37.3126 30.1792 37.3136C29.683 38.8225 28.7907 41.7872 29.9184 42.8907C30.2985 43.3625 31.1843 43.3745 31.7124 43.1935C33.0892 43.1017 36.2672 40.1885 37.2446 39.2111C41.4059 35.1022 46.22 28.2394 48.6909 23.4542C48.8427 23.1844 49.301 22.3065 49.3325 22.2218C49.3324 22.2219 49.3326 22.2217 49.3325 22.2218C50.4906 19.9641 52.0194 16.494 52.23 13.9679ZM33.9469 38.0728C33.9178 38.5774 33.8888 39.082 33.8598 39.5866C36.1032 38.1646 38.2539 36.7093 39.961 34.6744C38.2151 37.0345 36.4198 39.4424 33.9822 41.0784C33.6474 41.3032 33.2876 41.5173 32.8871 41.564C32.4865 41.6107 32.0355 41.447 31.8601 41.0839C31.7168 40.7869 31.7833 40.4356 31.8614 40.1152C32.1415 38.9657 32.5346 37.8437 33.0333 36.7709C32.933 37.6827 32.8394 38.689 32.7392 39.6008C33.1418 39.0915 33.5443 38.5821 33.9469 38.0728ZM51.0354 15.2737C51.1628 15.2737 51.163 15.8282 51.0354 15.8282C50.908 15.8282 50.9079 15.2737 51.0354 15.2737ZM50.1916 14.8652C50.0185 14.8652 49.8781 14.6652 49.8781 14.4184C49.8781 14.1717 50.0185 13.9717 50.1916 13.9717C50.3647 13.9717 50.505 14.1717 50.505 14.4184C50.505 14.6652 50.3647 14.8652 50.1916 14.8652ZM49.105 12.3302C49.9159 11.9035 51.0601 11.5173 51.5022 12.3224C49.3659 12.8736 46.1822 16.0054 44.7118 17.6502L44.5465 17.8306C44.5457 17.8299 44.5452 17.8289 44.5444 17.8282C44.2953 17.4583 44.0337 17.127 43.7466 16.8214C43.8848 16.6966 46.6913 13.5627 49.105 12.3302ZM40.5923 15.1534C40.5893 15.1564 40.5874 15.1593 40.5854 15.1612C40.0148 15.8176 38.66 17.0978 37.7378 17.3566C37.4227 17.4183 37.4247 17.4429 37.0366 17.4611C36.6753 17.4737 36.5659 17.4777 36.4575 17.6476C36.1362 18.4347 35.8169 19.0519 35.3061 19.5011C34.6373 20.0549 33.8754 20.0388 33.6391 19.8536C33.6177 19.838 33.603 19.8273 33.5962 19.8234C33.618 19.55 33.7749 18.8841 33.8159 18.7081C34.1065 17.6453 34.4989 16.8853 34.5473 16.7716C34.9975 15.8614 35.8012 15.1349 36.7553 14.7736C36.7788 14.7687 36.8022 14.7609 36.8237 14.7501C36.8569 14.7325 36.8598 14.7316 36.8745 14.7277C36.8803 14.7267 36.8862 14.7247 36.8921 14.7228C38.1961 14.2691 39.3533 14.557 40.5923 15.1534ZM20.9321 15.8673C20.5382 15.2992 20.6647 14.6835 21.3432 14.3732C21.7719 14.1778 22.2876 14.1534 22.8276 14.1446C23.7805 14.1026 24.9866 14.3038 26.1977 14.6625C25.2368 15.3762 24.5752 16.5336 23.9031 17.6509C23.0028 17.2929 22.3125 16.9529 21.7094 16.5626C21.437 16.378 21.1294 16.1564 20.9321 15.8673ZM23.8471 19.2794C23.6676 18.8789 24.4296 17.7401 24.6772 17.3439C25.2231 16.4396 25.7885 15.505 26.6352 14.9464C27.3359 14.4868 28.0116 14.5498 28.9023 14.7338C28.3838 15.6876 28.0329 16.7068 27.7534 17.7523C26.4592 19.3879 24.0556 19.7318 23.8471 19.2794ZM27.4809 18.925C27.4251 18.9023 27.3697 18.8788 27.3106 18.8561C27.3854 18.7982 27.4662 18.7455 27.5367 18.6847C27.5203 18.7653 27.4961 18.8444 27.4809 18.925ZM28.5825 20.1778C28.4057 20.2403 28.2221 20.2277 28.105 20.1466C27.9028 20.0089 27.8462 19.6788 27.938 19.1642C28.1255 18.1066 28.4262 17.0636 28.8296 16.0646C29.5007 14.4045 30.1333 13.3887 31.8696 13.1202C33.459 12.8735 35.0379 13.3682 36.2641 14.4612C35.3477 14.8934 34.5763 15.615 34.1219 16.5126C33.4048 16.3895 32.7753 16.2833 32.0796 16.2833C31.7016 16.2882 31.3657 16.5265 31.2231 16.8898C30.5116 18.7067 29.0825 20.0076 28.5825 20.1778ZM25.8384 27.2696C25.4603 27.2418 25.272 27.1492 25.2925 26.5382C25.3462 25.2648 26.7085 24.8214 27.2964 24.6876C28.2928 24.4392 30.478 24.2418 32.3325 24.5099C33.1645 24.6456 33.9624 24.8487 34.7046 25.1153C34.8325 25.1603 34.977 25.0948 35.0239 24.964C35.0708 24.8341 35.0034 24.6915 34.8725 24.6446C34.0084 24.3347 33.039 24.1056 32.3736 24.0126C31.8356 22.5716 30.8606 21.1791 29.5262 20.1351C30.4778 19.3038 31.2273 18.2501 31.688 17.0724C31.7573 16.8966 31.9096 16.7853 32.0864 16.7833C32.6651 16.7906 33.3377 16.8895 33.9095 16.9864C33.5233 17.8631 33.2512 18.7032 33.1147 19.6534C33.0776 19.9015 33.0747 20.0665 33.3393 20.253C33.6391 20.4941 34.0975 20.4946 34.479 20.4347C35.714 20.2085 36.388 19.1295 36.8618 17.9679C36.8902 17.966 37.2494 17.9547 37.227 17.9513C37.4387 17.9402 37.6534 17.8879 37.8589 17.8419C38.9175 17.5449 40.3054 16.2451 41.0429 15.3932C42.1996 16.004 43.163 16.8225 43.8813 17.7482C43.9046 17.805 44.4159 18.5023 44.6765 19.0204C45.5225 20.6841 45.3877 22.1023 46.9077 23.7384C47.0161 23.8546 47.1245 23.9689 47.2358 24.0841L43.1443 30.5867C40.3603 29.5872 39.2669 31.2607 35.6805 30.1108C32.4127 29.0464 31.8549 27.854 25.8384 27.2696ZM30.0776 42.2589C30.0542 42.2247 30.0346 42.1798 30.0141 42.1114C29.0824 39.5692 32.7371 32.4557 34.13 30.061C34.6865 30.2969 34.9081 30.375 35.0083 30.4142L35.4123 30.5515C33.8734 33.2538 31.8473 37.2902 31.2654 40.317C31.1197 41.0954 30.9971 42.0307 31.2516 42.7809C30.5802 42.8733 30.2898 42.6513 30.0776 42.2589ZM4.17527 39.7706C5.81408 42.732 12.1679 46.1213 15.2752 47.5168C15.2769 47.5176 15.2771 47.5198 15.2788 47.5206C15.2817 47.5216 15.2807 47.5216 15.2807 47.5216C18.3963 48.933 27.4609 52.3502 29.8667 49.9445C30.0003 49.791 30.0335 49.7037 30.0825 49.5997C30.7551 47.9083 28.1687 45.7492 26.7427 44.6229C27.7194 40.06 24.6359 35.3846 19.6913 34.748C16.3609 33.5986 12.9068 34.7377 10.8615 37.2577C6.84968 36.3205 5.1643 36.8793 5.26438 36.8796C4.74998 37.0548 4.17798 37.1961 3.85984 37.8722C3.59281 38.4882 3.87716 39.3322 4.17527 39.7706ZM7.12259 39.7407C6.85972 39.852 6.60697 39.9631 6.35416 40.0743C6.5261 40.1451 6.7081 40.226 6.87992 40.2968C6.75864 40.2765 6.6373 40.3676 6.5969 40.4889C6.55643 40.6001 6.57663 40.7214 6.60697 40.8427C6.69797 41.1965 6.85972 41.5505 7.13267 41.7931C6.34415 41.3987 5.66672 40.782 5.2017 40.0238C4.76314 39.2929 5.14672 38.9446 5.87906 38.9016C6.58677 38.8813 7.30454 39.0229 7.9415 39.3364C7.39554 39.3464 6.85972 39.3869 6.35416 39.5688C6.61704 39.5183 6.90018 39.579 7.12259 39.7407ZM20.1786 48.8683C18.5237 48.3391 15.6581 47.2136 13.555 46.1465C10.5816 41.3959 15.0437 35.5516 20.3969 37.048C23.744 37.9841 25.574 41.4054 24.6733 44.5734C24.073 46.7266 22.3539 48.3663 20.1786 48.8683ZM29.4946 49.6105C29.2782 49.8238 29.0862 49.976 28.6412 50.0851C28.4767 49.1616 27.527 47.9754 25.9992 46.7079C26.1765 46.3708 26.479 45.66 26.6167 45.1661C26.7554 45.2814 27.4952 45.8474 28.2075 46.5597C28.9687 47.3236 30.1993 48.7925 29.4946 49.6105ZM26.1616 44.9396C26.16 44.9474 26.1557 44.9589 26.1529 44.9679C26.1523 44.97 26.1515 44.9717 26.1509 44.9737C25.6618 46.7858 24.3979 48.5221 22.5991 49.5597C22.1244 49.4453 21.279 49.1914 21.059 49.1268C23.3539 48.2955 24.9415 46.2801 25.3003 44.0577C25.8813 40.7091 23.8315 37.4894 20.5307 36.5655C15.0436 35.0516 10.3329 40.6258 12.7697 45.741C12.2138 45.4508 11.6761 45.1611 11.1832 44.8757C9.60651 39.1514 14.9255 33.8472 20.7378 35.4581C24.8471 36.6017 27.2798 40.8556 26.1616 44.9396ZM4.60239 37.7206C5.81919 36.7828 9.00621 37.3629 10.508 37.6902C10.2397 38.0735 10.0087 38.4887 9.80863 38.9257C7.4603 38.3604 5.512 38.1859 4.25467 38.4472C4.25011 38.1414 4.35137 37.9081 4.60239 37.7206Z" fill="white"/>
<path d="M20.3067 40.0614L20.6145 39.2553C20.6345 39.2029 20.6086 39.144 20.5563 39.1235L20.1388 38.9591C20.0862 38.9384 20.0267 38.9642 20.006 39.0168L19.699 39.7964L19.2314 39.611L19.5302 38.8284C19.5502 38.7759 19.5243 38.7171 19.472 38.6965L19.0545 38.5321C19.0019 38.5114 18.9425 38.5372 18.9217 38.5899L18.6157 39.367L17.732 39.0167C17.5884 38.9493 17.4096 39.0276 17.3541 39.1719L15.0025 45.1417L15.0016 45.1426C14.9527 45.2696 15.0318 45.4561 15.1568 45.5079L16.3623 46.0112L16.0365 46.8385C16.0218 46.876 16.0398 46.9185 16.0769 46.934L16.5433 47.1285C16.5813 47.1443 16.6249 47.1262 16.6404 47.088L16.9738 46.2665L17.4379 46.4603L17.1166 47.2763C17.1016 47.3143 17.1203 47.3574 17.1584 47.3724L17.6283 47.5574C17.6661 47.5723 17.7088 47.554 17.7241 47.5164L18.0495 46.7145C18.7666 46.9939 19.6336 46.8042 20.1637 46.2657C20.7008 45.7208 20.8805 44.8438 20.6002 44.1319C20.5572 44.0235 20.5025 43.9005 20.4264 43.7842C20.901 43.6212 21.3141 43.2696 21.5328 42.8214C21.8326 42.2081 21.7721 41.4512 21.3775 40.8936C21.1063 40.5107 20.7129 40.2585 20.3067 40.0614ZM21.0836 42.6026C20.8795 43.0196 20.4459 43.3233 19.9752 43.376C19.858 43.3917 19.7652 43.4747 19.7369 43.5899C19.7125 43.6905 19.7672 43.8331 19.8522 43.8917C19.9635 43.9678 20.0475 44.0948 20.1354 44.3155C20.3453 44.8487 20.2106 45.5059 19.8072 45.9141C19.4098 46.3194 18.7584 46.4561 18.2291 46.2491L15.5455 45.128L17.7398 39.5577L19.5758 40.2852C20.109 40.4962 20.6559 40.7383 20.9693 41.1827C21.2555 41.587 21.3014 42.1573 21.0836 42.6026ZM14.0585 40.7694C14.5367 39.8934 15.1789 39.0645 15.9333 38.377C13.3477 39.5972 12.3516 42.4758 13.6269 45.0762C13.5633 44.0696 13.8401 43.0275 14.2737 42.1409C14.0621 42.2831 13.8504 42.4254 13.6387 42.5677C13.8981 41.7634 14.2866 41.0029 14.7893 40.3157C14.5457 40.4669 14.3021 40.6182 14.0585 40.7694ZM23.2745 40.0741C23.3866 40.1182 23.5132 40.0632 23.5573 39.9511C23.6014 39.8391 23.5464 39.7125 23.4343 39.6683C23.3222 39.6242 23.1957 39.6793 23.1515 39.7913C23.1074 39.9034 23.1625 40.03 23.2745 40.0741ZM23.7286 40.9281C23.8236 40.9655 23.9309 40.9188 23.9682 40.8239C24.0057 40.7289 23.959 40.6216 23.8641 40.5842C23.7691 40.5469 23.6618 40.5935 23.6244 40.6885C23.587 40.7834 23.6336 40.8907 23.7286 40.9281Z" fill="white"/>
<path d="M19.3938 41.1119L18.5288 40.7714C18.4794 40.7519 18.4235 40.7762 18.4041 40.8257L17.8694 42.1834C17.8501 42.2324 17.8737 42.2879 17.9226 42.3078L18.7744 42.6558C19.2035 42.8311 19.6931 42.6218 19.8628 42.1906C20.0311 41.7631 19.8211 41.2802 19.3938 41.1119ZM18.1121 42.1328L18.4489 41.2775C18.4815 41.4552 18.5432 41.6269 18.6408 41.7788C18.5846 41.7505 18.5283 41.7222 18.4721 41.6939C18.5245 41.79 18.5769 41.8861 18.6294 41.9823C18.5651 41.9505 18.5009 41.9186 18.4366 41.8867C18.5633 42.1196 18.7779 42.3351 18.9985 42.4819L18.1121 42.1328ZM18.3842 43.6756L17.5193 43.335C17.4699 43.3156 17.414 43.3399 17.3946 43.3894L16.8599 44.7471C16.8405 44.7962 16.8642 44.8515 16.913 44.8715L17.7649 45.2194C18.194 45.3947 18.6836 45.1854 18.8533 44.7542C19.0216 44.3269 18.8116 43.8439 18.3842 43.6756ZM17.0574 44.7598L17.3942 43.9044C17.4268 44.0821 17.4885 44.2539 17.5861 44.4059C17.5299 44.3776 17.4737 44.3492 17.4174 44.3209C17.4698 44.417 17.5222 44.5131 17.5747 44.6093C17.5105 44.5775 17.4462 44.5456 17.382 44.5137C17.5086 44.7466 17.7232 44.962 17.9438 45.1089L17.0574 44.7598ZM6.014 24.837C7.06258 28.9463 11.2732 31.3751 15.3402 30.335C17.3275 29.8282 18.9993 28.5821 20.0482 26.8272C21.098 25.0714 21.3978 23.0167 20.8929 21.0411C19.8529 16.962 15.6663 14.4932 11.5667 15.5421C7.49538 16.5804 4.95993 20.7124 6.014 24.837ZM13.474 15.8018C19.0128 15.8018 22.4612 21.8153 19.6195 26.5704C18.639 28.211 17.0755 29.376 15.2171 29.8507C11.3822 30.8282 7.47103 28.5245 6.49837 24.7139C5.3468 20.2054 8.7841 15.8018 13.474 15.8018Z" fill="white"/>
<path d="M14.888 28.9151C18.1859 28.0733 20.1888 24.7218 19.3519 21.4435C18.5159 18.1661 15.1546 16.1817 11.8538 17.0235C8.55597 17.8653 6.55304 21.2169 7.38995 24.4952C8.22677 27.7765 11.5935 29.756 14.888 28.9151ZM11.9769 17.5079C15.0042 16.7354 18.0989 18.5558 18.8675 21.5665C19.636 24.5782 17.7952 27.6573 14.765 28.4308C11.7327 29.1993 8.64288 27.3829 7.87433 24.3722C7.10578 21.3604 8.9466 18.2813 11.9769 17.5079Z" fill="white"/>
<path d="M16.2165 18.7878C16.4674 18.6952 16.3271 18.3162 16.0765 18.4087C15.8256 18.5013 15.9659 18.8803 16.2165 18.7878ZM17.0452 19.4834C17.2574 19.405 17.1394 19.0836 16.9266 19.162C16.7143 19.2405 16.8324 19.5618 17.0452 19.4834ZM12.1885 27.7155C11.1299 27.28 10.2124 26.5089 9.60117 25.541C9.77139 25.5377 9.94168 25.5345 10.1119 25.5312C9.53531 25.1826 9.06503 24.6606 8.77835 24.051C8.91159 24.0673 9.04483 24.0837 9.17807 24.1002C8.7825 23.465 8.51852 22.7834 8.36716 22.0507C8.10489 23.2307 8.32547 24.5106 8.96756 25.5348C10.0908 27.3263 11.8204 27.5504 12.1885 27.7155ZM10.4203 22.3582C10.4498 22.4384 10.528 22.4823 10.595 22.4562L12.2328 21.8196C12.3003 21.7933 12.3791 21.8382 12.408 21.9194L12.9688 23.4941C12.9972 23.574 12.9666 23.659 12.9002 23.6848L11.5056 24.2269C11.3128 24.3018 11.2253 24.5497 11.3101 24.7806C11.3777 24.9647 11.5383 25.0894 11.705 25.085C12.2664 25.0703 12.799 24.9583 13.2997 24.7382C13.3678 24.7082 13.4494 24.7504 13.4799 24.8333L14.2704 26.9855C14.2998 27.0657 14.3781 27.1097 14.4451 27.0836L15.3728 26.723C15.4394 26.6971 15.4699 26.6118 15.4413 26.5319L14.6823 24.4156C14.6526 24.3328 14.6878 24.247 14.7579 24.2235C15.2503 24.058 15.7088 23.7269 16.1425 23.2753C16.2525 23.1606 16.2829 22.9717 16.2199 22.8004L16.2176 22.7937C16.1302 22.5558 15.8949 22.4303 15.7002 22.5175L14.3462 23.1238C14.2777 23.1544 14.195 23.1094 14.1655 23.0253L13.6117 21.4467C13.5837 21.3671 13.6144 21.2825 13.6806 21.2568L15.2853 20.6331C15.3523 20.6071 15.3827 20.5209 15.3533 20.4407L14.9538 19.3531C14.9244 19.2729 14.8462 19.2291 14.7791 19.2551L10.0889 21.0782C10.0219 21.1042 9.99142 21.1904 10.0209 21.2706L10.4203 22.3582ZM11.3252 20.849C11.0679 20.944 10.9486 21.2452 10.881 21.5112C10.8667 21.4373 10.8526 21.3633 10.8383 21.2894C10.7357 21.5648 10.6557 21.8178 10.6689 22.1114L10.3376 21.2135L11.3252 20.849ZM7.24368 50.4537C7.28165 50.5925 7.4838 50.5925 7.52176 50.4537C7.85043 49.4297 8.22971 49.0504 9.25351 48.7091C9.39255 48.6711 9.39255 48.469 9.25351 48.431C8.22971 48.1024 7.85043 47.7231 7.52176 46.6994C7.4838 46.5602 7.28165 46.5602 7.24368 46.6994C6.90237 47.7231 6.5231 48.1024 5.4993 48.431C5.36026 48.469 5.36026 48.6711 5.4993 48.7091C6.5231 49.0504 6.90237 49.4297 7.24368 50.4537ZM44.4867 5.37195C44.4317 5.17029 44.1388 5.17029 44.0838 5.37195C43.5894 6.85486 43.0399 7.40436 41.5567 7.88049C41.3553 7.93549 41.3553 8.22827 41.5567 8.28326C43.0399 8.77777 43.5894 9.32721 44.0838 10.8106C44.1388 11.0118 44.4317 11.0118 44.4867 10.8106C44.9628 9.32721 45.5122 8.77777 46.9955 8.28326C47.1968 8.22827 47.1968 7.93549 46.9955 7.88049C45.5122 7.40436 44.9628 6.85486 44.4867 5.37195ZM39.9976 29.2159C38.9257 29.5106 37.953 29.4675 36.856 29.2871C37.1163 29.173 37.3766 29.0588 37.6369 28.9447C36.7841 29.0438 35.9127 28.9804 35.0831 28.7592C35.3123 28.6335 35.5415 28.5079 35.7708 28.3823C34.653 28.5104 33.5017 28.3333 32.4708 27.8827C35.0266 30.0785 38.662 30.1229 39.9976 29.2159ZM40.4006 18.2823C40.4772 18.1644 40.4174 17.9896 40.267 17.8918C40.1165 17.7941 39.9325 17.8104 39.8559 17.9283C39.7793 18.0462 39.8391 18.221 39.9895 18.3188C40.14 18.4165 40.324 18.4002 40.4006 18.2823ZM41.4967 17.748C41.6622 17.8555 41.8752 17.8214 41.9725 17.6716C42.0698 17.5219 42.0146 17.3134 41.849 17.2058C41.6836 17.0983 41.4705 17.1324 41.3732 17.2822C41.2759 17.4319 41.3312 17.6404 41.4967 17.748ZM41.4481 19.1032C41.5831 18.8955 41.1931 18.6421 41.0581 18.8498C41.0017 18.9365 41.0434 19.0635 41.1511 19.1335C41.2588 19.2034 41.3918 19.1899 41.4481 19.1032Z" fill="white"/>
</svg>
