<svg width="100" height="100" viewBox="0 0 100 100" fill="none" xmlns="http://www.w3.org/2000/svg">
<path fill-rule="evenodd" clip-rule="evenodd" d="M33.1649 33.1649C31.0121 35.3177 29.5183 38.9328 29.5183 44.9192C29.5183 46.1814 29.0168 47.3919 28.1243 48.2844C27.2318 49.177 26.0213 49.6784 24.7591 49.6784C23.4969 49.6784 22.2864 49.177 21.3939 48.2844C20.5014 47.3919 20 46.1814 20 44.9192C20 37.4649 21.8659 31.001 26.4325 26.4344C31.001 21.8659 37.4649 20 44.9192 20C45.5443 20 46.1633 20.1231 46.7408 20.3623C47.3183 20.6016 47.8431 20.9522 48.2851 21.3942C48.7271 21.8362 49.0777 22.3609 49.317 22.9385C49.5562 23.516 49.6793 24.135 49.6793 24.7601C49.6793 25.3852 49.5562 26.0041 49.317 26.5816C49.0777 27.1592 48.7271 27.6839 48.2851 28.1259C47.8431 28.5679 47.3183 28.9186 46.7408 29.1578C46.1633 29.397 45.5443 29.5201 44.9192 29.5201C38.9328 29.5201 35.3177 31.0121 33.1649 33.1667V33.1649ZM74.7031 49.782C75.9653 49.782 77.1758 50.2834 78.0683 51.1759C78.9608 52.0685 79.4622 53.279 79.4622 54.5411C79.4622 61.9954 77.5964 68.4594 73.0279 73.026C68.4613 77.5945 61.9955 79.4604 54.543 79.4604C53.2806 79.4604 52.0698 78.9589 51.1771 78.0662C50.2845 77.1735 49.7829 75.9628 49.7829 74.7003C49.7829 73.4379 50.2845 72.2272 51.1771 71.3345C52.0698 70.4418 53.2806 69.9403 54.543 69.9403C60.5294 69.9403 64.1446 68.4483 66.2974 66.2937C68.4483 64.1427 69.944 60.5275 69.944 54.5411C69.944 53.2793 70.4451 52.069 71.3372 51.1766C72.2294 50.2841 73.4412 49.7825 74.7031 49.782Z" fill="#2354E6"/>
<path d="M56.1997 24.3446C56.1997 22.5917 57.6213 21.1719 59.3743 21.1719H75.2399C76.9929 21.1719 78.4145 22.5917 78.4145 24.3446V40.2102C78.4145 41.9632 76.9929 43.3848 75.2399 43.3848H59.3743C58.9573 43.3851 58.5444 43.3031 58.1592 43.1437C57.7739 42.9842 57.4238 42.7504 57.129 42.4556C56.8341 42.1607 56.6003 41.8107 56.4409 41.4254C56.2814 41.0401 56.1995 40.6272 56.1997 40.2102V24.3446Z" fill="#04D590"/>
<path d="M33.9888 78.2905C40.9988 78.2905 46.6816 72.6077 46.6816 65.5976C46.6816 58.5876 40.9988 52.9048 33.9888 52.9048C26.9787 52.9048 21.2959 58.5876 21.2959 65.5976C21.2959 72.6077 26.9787 78.2905 33.9888 78.2905Z" fill="#2354E6"/>
</svg>
