<svg width="100" height="100" viewBox="0 0 100 100" fill="none" xmlns="http://www.w3.org/2000/svg">
<path d="M60.4167 44.7915C60.4167 54.5715 52.4884 62.4998 42.7083 62.4998C32.9283 62.4998 25 54.5715 25 44.7915C25 35.0115 38.1366 26.0415 47.9167 26.0415C57.6967 26.0415 60.4167 35.0115 60.4167 44.7915Z" fill="#D9D9D9"/>
<path fill-rule="evenodd" clip-rule="evenodd" d="M44.6435 74.9997C44.8581 74.9997 45.0706 74.9977 45.2852 74.9935V70.4914C45.2852 68.9622 45.8977 67.4977 46.9852 66.4247L59.6018 53.9747C63.2122 50.4122 69.331 52.9706 69.331 58.0435V60.206H70.7122C73.5261 55.5032 75.0082 50.1238 74.9997 44.6435C74.9997 27.8768 61.4081 14.2852 44.6435 14.2852C27.8768 14.2852 14.2852 27.8768 14.2852 44.6435C14.2852 61.4081 27.8747 74.9997 44.6435 74.9997ZM51.5206 34.5247C55.2435 35.8081 57.9685 37.731 57.4331 41.3081C57.0456 43.9247 55.5956 45.1935 53.6685 45.6372C56.3143 47.0164 57.6602 49.1268 56.3768 52.7893C54.7852 57.3393 51.0039 57.7227 45.9747 56.7706L44.756 61.6622L41.806 60.9268L43.0102 56.1018C42.2246 55.9068 41.4413 55.7034 40.6602 55.4914L39.4518 60.3393L36.506 59.606L37.7247 54.7039L36.8706 54.4831C36.4551 54.3741 36.0391 54.2672 35.6227 54.1622L31.7852 53.2039L33.2497 49.8289C33.2497 49.8289 35.4227 50.4081 35.3935 50.3643C36.2268 50.5727 36.5977 50.0268 36.7435 49.6643L38.6727 41.931L38.8997 41.9872L38.9831 42.0081C38.884 41.9687 38.7824 41.936 38.6789 41.9102L40.0539 36.3893C40.0893 35.7643 39.8747 34.9727 38.6789 34.6768C38.7268 34.6456 36.5372 34.1435 36.5372 34.1435L37.3227 30.9935L41.3893 32.0081L41.3852 32.0247C41.9977 32.1768 42.6268 32.3206 43.2685 32.4664L44.4768 27.6227L47.4247 28.3581L46.2414 33.1081C47.0331 33.2872 47.8289 33.4706 48.6039 33.6622L49.7789 28.9456L52.7289 29.681L51.5206 34.5247ZM42.1914 52.0914C44.5977 52.7268 49.8581 54.1164 50.6935 50.7581C51.5518 47.3206 46.4518 46.1747 43.9622 45.6185C43.72 45.5656 43.4783 45.5101 43.2372 45.4518L41.6164 51.9414L42.1914 52.0914ZM44.4622 42.6039C46.4685 43.1393 50.8435 44.3081 51.6081 41.2539C52.3852 38.1289 48.131 37.1893 46.0539 36.7289C45.8506 36.6849 45.6478 36.6383 45.4456 36.5893L43.9768 42.4789C44.1164 42.5122 44.281 42.556 44.4622 42.6039Z" fill="#2354E6"/>
<path fill-rule="evenodd" clip-rule="evenodd" d="M51.2289 71.3498C51.0254 71.5484 50.8858 71.8032 50.8278 72.0815C50.7699 72.3599 50.7963 72.6492 50.9037 72.9125C51.011 73.1757 51.1945 73.401 51.4306 73.5594C51.6666 73.7179 51.9446 73.8023 52.2289 73.8019H86.0935C86.4722 73.8014 86.8352 73.6506 87.1028 73.3826C87.3703 73.1146 87.5206 72.7514 87.5206 72.3728V67.0978C87.5206 66.7191 87.3703 66.3559 87.1028 66.0879C86.8352 65.82 86.4722 65.6691 86.0935 65.6686H63.6498V62.6144C63.6493 62.3335 63.5661 62.0589 63.4105 61.825C63.2548 61.5911 63.0337 61.4082 62.7747 61.2993C62.5157 61.1904 62.2304 61.1602 61.9543 61.2125C61.6783 61.2649 61.4238 61.3974 61.2227 61.5936L51.2289 71.3498ZM87.9956 79.9519C88.199 79.7535 88.3386 79.4989 88.3966 79.2208C88.4546 78.9426 88.4284 78.6535 88.3213 78.3903C88.2142 78.1271 88.031 77.9018 87.7953 77.7432C87.5595 77.5846 87.2818 77.4999 86.9977 77.4998H53.131C52.7523 77.5004 52.3894 77.6512 52.1218 77.9192C51.8542 78.1871 51.7039 78.5503 51.7039 78.929V84.204C51.7039 84.9915 52.3435 85.6311 53.131 85.6311H75.5748V88.6873C75.5748 89.9519 77.0956 90.5936 78.0019 89.7082L87.9956 79.9519Z" fill="#04D590"/>
</svg>
