<svg width="56" height="56" viewBox="0 0 56 56" fill="none" xmlns="http://www.w3.org/2000/svg">
<path d="M21.0995 19.3623C19.0811 19.652 17.4839 20.9819 16.9238 23.0717L21.7314 25.2413C22.3426 23.6779 21.9141 20.9952 21.0995 19.3623ZM21.6022 24.2557C21.5939 24.3765 21.6001 24.5178 21.5383 24.6144C21.4664 24.7267 21.3156 24.7118 21.1932 24.6565C21.0326 24.584 19.1368 23.7022 19.3329 23.6069C19.8956 23.8768 20.6368 23.7374 20.9062 23.5753C21.1099 23.4527 21.2391 23.2318 21.3622 23.0172C21.1211 23.2222 20.7392 23.1974 20.71 23.1493C20.679 23.0981 20.7838 23.0485 20.8078 23.0277C21.1791 22.707 21.2658 22.3119 21.3565 21.8597C21.3408 21.9376 21.2383 22.0095 21.1796 22.0427C21.158 22.055 21.11 22.086 21.0813 22.0599C21.0276 22.0113 21.1407 21.9045 21.164 21.8723C21.3751 21.5796 21.4628 21.1872 21.3861 20.7746C21.3838 20.7618 21.3813 20.7484 21.3853 20.7374C21.3893 20.7264 21.4026 20.72 21.4128 20.728C21.6157 21.4254 21.6789 22.2789 21.6729 22.872C21.6682 23.3378 21.6339 23.7967 21.6022 24.2557Z" fill="white"/>
<path d="M9.57695 38.8892C10.4824 40.8422 11.8388 42.5853 13.6961 44.0029C13.2486 44.6355 12.8344 45.1602 12.6981 45.7425C12.5926 46.215 12.7132 46.7678 13.1153 47.0241C13.5374 47.2954 14.1053 47.1597 14.5928 46.9989C15.4201 46.7277 16.3872 46.3978 17.2366 46.0383C18.957 46.7706 20.7549 47.2312 22.491 47.512C22.3475 49.1841 22.2209 50.0142 22.4725 50.8096C22.6992 51.5072 23.2914 52.1251 24.0398 52.1251C24.7508 52.1246 25.326 51.587 25.7967 51.0567C26.6863 50.0479 27.6082 48.9752 28.326 47.9635C28.3417 47.9414 28.335 47.9148 28.3426 47.8903C29.7945 47.8559 30.8312 47.7883 32.1863 47.5216C34.2743 47.1012 36.217 46.3513 37.9385 45.3479C40.9925 47.1776 41.6433 47.6871 42.6092 47.6871C43.2 47.6871 43.8514 47.4508 44.1697 46.877C44.531 46.2222 44.3103 45.4571 44.0476 44.7974C43.66 43.8004 43.1453 42.5172 42.5984 41.4327C42.5887 41.4138 42.5672 41.41 42.5539 41.3948C43.9309 39.6619 44.8832 37.6804 45.2693 35.5645C45.6972 33.2014 45.4382 30.7741 44.609 28.5054C45.6055 28.4334 46.3437 27.7044 46.4764 26.776C46.7391 26.6241 46.9432 26.4132 47.0848 26.2335C47.865 25.2428 47.9197 23.9366 47.909 22.5733C47.908 22.4361 47.7957 22.3253 47.659 22.3253H47.657C47.5193 22.3262 47.408 22.439 47.409 22.5772C47.4184 23.8072 47.3889 25.332 46.4705 26.1627C46.4695 26.1568 46.4685 26.1514 46.4676 26.1456C46.2825 25.0629 45.1163 24.7697 44.7391 25.6016C44.3899 26.3634 45.0901 27.0641 45.9178 26.9698C45.6915 27.6569 45.053 28.0381 44.4168 28.0142C43.8719 26.6776 43.1288 25.4069 42.1849 24.249C43.651 22.9204 44.7085 21.1135 45.0848 19.0064C45.9508 14.1552 42.8903 9.53493 38.2123 8.44502C37.5862 8.14608 36.7615 7.9108 36.0848 7.78963C30.0501 6.70722 24.5402 11.7282 25.1163 18.0133C24.2207 18.0757 23.3501 18.1834 22.5193 18.3361C22.3626 17.9151 22.1963 17.5127 22.0144 17.1568C21.9666 17.0611 21.866 17.0103 21.7527 17.0235C19.8748 17.3194 18.2901 18.214 17.1402 19.5385C16.0854 17.8488 13.7769 16.4572 12.0291 16.1367C11.1126 18.425 11.2318 21.0007 12.4739 23.1156C12.1891 23.38 11.4542 24.1024 11.3029 24.3398C10.6083 24.4073 10.0192 25.0056 10.1773 25.8303C9.32499 27.1398 8.74211 28.5404 8.44151 29.9987C4.09648 31.6317 4.92447 37.4809 9.57695 38.8892ZM13.503 45.7794C13.4516 45.705 13.4002 45.6306 13.3489 45.5562C13.2626 45.946 13.2976 46.3551 13.417 46.7361C13.1833 46.5631 13.0565 46.2695 13.0446 45.979C13.02 45.3824 13.4051 44.8844 13.7651 44.4328C13.6031 44.8598 13.5047 45.3228 13.503 45.7794ZM45.1941 26.1842C45.0358 25.8907 45.3041 25.4538 45.6453 25.6822C45.8225 25.8002 45.9853 26.0566 45.9959 26.4439C45.634 26.5473 45.3098 26.3978 45.1941 26.1842ZM25.4226 50.7252C25.0066 51.1934 24.5516 51.6251 24.0398 51.6251C23.5219 51.6251 23.1062 51.1406 22.948 50.6568C22.729 49.9621 22.8513 49.163 22.9861 47.5895C24.4603 47.8009 26.0252 47.912 27.7496 47.8998C27.0706 48.8268 26.2359 49.8021 25.4226 50.7252ZM43.5818 44.9805C43.8025 45.5338 43.993 46.1632 43.7322 46.6353C43.4773 47.0943 42.8572 47.2354 42.3894 47.1729C41.6807 47.0753 41.2255 46.7347 38.4157 45.0509C39.8745 44.1375 41.1585 43.0388 42.2177 41.7974C42.7307 42.8331 43.2141 44.0332 43.5818 44.9805ZM40.839 15.9141C40.7862 16.9887 40.4163 18.0459 39.7876 18.919C40.1098 18.9359 40.4319 18.9528 40.7541 18.9697C40.5061 20.0315 40.1277 21.0609 39.6435 22.0378C38.9139 22.8289 38.0801 23.4025 37.2176 23.7725C34.4635 22.4585 31.4035 21.5323 28.41 21.0924C24.9866 15.7203 29.5752 8.87352 35.698 9.95906C37.6174 10.3022 39.3544 11.4065 40.4901 13.2388C40.4157 13.5307 40.3924 14.3107 40.3605 14.4724C40.2453 15.0568 40.0404 15.6238 39.7517 16.1451C40.1141 16.0681 40.4765 15.9911 40.839 15.9141ZM36.8064 8.46638C40.7148 9.56289 43.3665 13.212 43.2635 17.2554C43.2635 17.273 43.2644 17.2901 43.2674 17.3072L43.2664 17.3048C43.2354 17.4089 43.4178 21.9242 39.0447 24.7169C38.6288 24.4799 38.1945 24.2655 37.7621 24.0512C42.0867 21.9077 43.362 16.4573 40.6922 12.6207C39.5252 10.9439 37.783 9.82381 35.7859 9.46687C29.4729 8.3402 24.486 15.1931 27.7961 21.0077C27.2955 20.9396 26.8149 20.8843 26.3621 20.8536C23.2906 13.9726 29.4716 6.48215 36.8064 8.46638ZM13.3612 16.8191C14.5892 17.3445 15.5513 18.343 16.4328 19.2522C16.5291 19.3514 16.6513 19.4503 16.6955 19.5894C16.7469 19.7512 16.6443 19.9031 16.525 19.9941C16.3433 20.1327 14.4991 21.501 14.5352 21.221C15.0667 20.8365 15.4197 19.9523 15.447 19.496C15.4657 19.1841 15.3575 18.8792 15.2509 18.5856C15.2647 18.7872 15.221 18.9912 15.1308 19.1682C15.111 19.2071 15.0222 19.3934 14.9727 19.3897C14.9113 19.385 14.9322 19.2345 14.9291 19.193C14.8839 18.5782 14.6319 18.2025 14.2768 17.7263C14.3327 17.8013 14.3319 17.9661 14.3248 18.0543C14.3221 18.087 14.3196 18.162 14.2806 18.1736C14.2077 18.1953 14.1856 17.993 14.1725 17.9439C14.053 17.4967 13.7762 17.1085 13.3844 16.8828C13.3723 16.8759 13.3595 16.8684 13.3527 16.8558C13.3459 16.8433 13.3484 16.8242 13.3612 16.8191ZM16.0922 21.1218C15.8327 21.64 15.6081 22.1853 15.4568 22.7779C15.4226 22.9117 15.5037 23.0479 15.6375 23.0821C15.7693 23.1168 15.908 23.0352 15.9412 22.9019C16.6678 20.0538 18.7957 18.064 21.6512 17.5479C22.7674 19.8472 23.4334 23.6114 22.5838 25.8687C22.5359 25.9976 22.6014 26.1422 22.7303 26.1905C22.8569 26.239 23.0031 26.1751 23.0525 26.0445C23.7821 24.1057 23.4555 21.1464 22.6844 18.8164C23.4792 18.6729 24.3102 18.5697 25.1661 18.5105C25.2822 19.31 25.397 19.6392 25.5296 20.0506C25.3509 20.0446 25.1714 20.0371 24.9958 20.0371L24.6221 21.5521C30.834 21.5521 36.9268 23.8171 41.0948 27.1372L41.4786 25.6122C41.3089 25.4717 41.1216 25.3391 40.9402 25.2025C41.5393 24.8197 41.7016 24.6553 41.8048 24.5715C44.3516 27.7005 45.4641 31.68 44.7771 35.4752C43.535 42.2849 36.5121 47.0068 29.6268 47.3399C22.0049 47.7984 13.672 45.8838 10.2181 39.0423C12.7066 39.4997 14.8566 38.3113 15.6424 36.4605C17.1851 32.823 13.1735 28.7843 8.99675 29.8313C9.27476 28.6354 9.75358 27.4819 10.4244 26.389C11.1335 27.2773 12.5409 26.8746 12.6936 25.7678C12.7755 25.1743 12.4259 24.6411 11.8952 24.4253C13.0664 23.1381 14.5016 22.016 16.0922 21.1218ZM11.2077 24.6729C11.5096 24.7146 11.7204 24.9931 11.6788 25.2948C11.6371 25.5967 11.3586 25.8076 11.0568 25.7659C10.755 25.7243 10.5441 25.4458 10.5857 25.144C10.6274 24.8421 10.9059 24.6312 11.2077 24.6729ZM12.3973 30.585C14.824 31.6153 16.074 34.1632 15.1814 36.2652C13.7343 39.6762 8.24483 39.3184 6.5164 35.7569C4.80004 32.2258 8.45714 28.9142 12.3973 30.585Z" fill="white"/>
<path d="M12.3795 36.1611C13.3868 34.8875 13.3213 32.6191 12.1481 32.3379C11.4156 32.1572 10.6363 32.8872 10.3092 34.0342C10.2858 34.0854 10.2711 34.143 10.2486 34.2275C9.73958 36.3312 11.2108 37.6493 12.3795 36.1611ZM12.3727 33.1074C12.607 33.4902 12.6559 34.1235 12.5016 34.7578C12.4556 34.9394 12.3896 35.1101 12.3179 35.274C12.3918 34.1584 11.8174 33.1822 10.9452 33.7563C11.2857 32.9958 11.9625 32.4377 12.3727 33.1074ZM9.24181 35.4507C9.5133 35.1079 9.72326 34.6655 9.85021 34.1679C10.5247 31.3873 7.93482 30.4365 7.11095 33.5171C6.60189 35.6207 8.07314 36.9389 9.24181 35.4507ZM9.23498 32.3969C9.46935 32.7798 9.51818 33.4131 9.36486 34.0468C9.31841 34.229 9.25219 34.4002 9.18023 34.5643C9.25468 33.4459 8.67914 32.4725 7.8081 33.0456C8.148 32.2857 8.8299 31.7335 9.23498 32.3969ZM17.1609 29.0711C17.8628 29.1679 18.5103 28.6775 18.6072 27.9756C18.7041 27.2737 18.2137 26.6261 17.5117 26.5292C16.8098 26.4323 16.1623 26.9228 16.0654 27.6247C15.9685 28.3266 16.459 28.9742 17.1609 29.0711ZM17.1213 26.8806C17.4231 26.9223 17.6341 27.2008 17.5924 27.5027C17.5508 27.8045 17.2723 28.0154 16.9705 27.9737C16.6686 27.932 16.4577 27.6535 16.4994 27.3517C16.541 27.0499 16.8195 26.839 17.1213 26.8806ZM38.0879 20.1281L33.5048 19.4847C33.4256 19.4736 33.3767 19.3926 33.4037 19.3174L34.0018 17.6535C34.0172 17.6106 34.0545 17.5794 34.0994 17.5719L36.2764 17.2049C36.3246 17.1968 36.3639 17.1614 36.3769 17.1141L36.6683 16.0553C36.6925 15.9674 36.6182 15.8837 36.5281 15.8973L34.835 16.1525C34.7391 16.1669 34.6635 16.0721 34.699 15.9818L36.1142 12.3824C36.1444 12.3056 36.0939 12.221 36.0119 12.2112L33.5284 11.9148C33.4698 11.9077 33.4143 11.9423 33.3946 11.9979L31.7011 16.7936C31.6855 16.8376 31.6468 16.8695 31.6006 16.8763L29.8169 17.1371C29.7666 17.1444 29.7256 17.1813 29.7131 17.2306L29.4411 18.2953C29.4191 18.3816 29.4911 18.4629 29.5795 18.4513L30.8425 18.2863C30.9355 18.2741 31.0087 18.3642 30.9778 18.4528L30.1187 20.9087C30.0922 20.9847 30.1428 21.0658 30.2227 21.0754C37.7388 21.9321 37.5084 22.0326 37.5769 21.8579L38.1877 20.2989C38.2173 20.2231 38.1684 20.1394 38.0879 20.1281ZM29.7295 12.7592C29.7641 12.4704 29.4729 12.4355 29.4384 12.7245C29.4241 12.8451 29.695 13.0483 29.7295 12.7592ZM30.9003 11.9516C30.9354 11.6573 30.4907 11.6044 30.4555 11.8986C30.4204 12.1927 30.8651 12.246 30.9003 11.9516ZM30.6147 13.726C30.7487 13.742 30.8742 13.6137 30.895 13.4395C30.9158 13.2654 30.824 13.1112 30.69 13.0952C30.556 13.0793 30.4306 13.2075 30.4098 13.3816C30.389 13.5558 30.4808 13.71 30.6147 13.726ZM41.1738 38.9579C42.7927 35.9645 43.0289 32.258 41.803 29.0833C41.7635 30.8612 41.0438 32.6359 39.9217 34.0157C40.2952 33.9341 40.6687 33.8524 41.0422 33.7708C40.5177 35.5818 39.4515 37.2323 38.0161 38.4548C38.4975 38.3618 38.9789 38.2687 39.4603 38.1757C38.4741 40.7103 36.6023 42.8904 34.2461 44.2488L33.2545 44.8899C36.5823 44.178 39.5549 41.9513 41.1738 38.9579Z" fill="white"/>
<path d="M27.0041 28.8699C27.1686 28.8699 27.3021 28.7365 27.3021 28.5719C27.3021 28.4073 27.1686 28.2739 27.0041 28.2739C26.8395 28.2739 26.7061 28.4073 26.7061 28.5719C26.7061 28.7365 26.8395 28.8699 27.0041 28.8699Z" fill="white"/>
<path d="M28.584 30.1815C28.7651 30.1815 28.9119 29.9357 28.9119 29.6324C28.9119 29.3292 28.7651 29.0834 28.584 29.0834C28.4029 29.0834 28.256 29.3292 28.256 29.6324C28.256 29.9357 28.4029 30.1815 28.584 30.1815ZM26.1855 31.3142C26.4401 31.3142 26.6464 31.0607 26.6464 30.7479C26.6464 30.4351 26.4401 30.1815 26.1855 30.1815C25.931 30.1815 25.7247 30.4351 25.7247 30.7479C25.7247 31.0607 25.931 31.3142 26.1855 31.3142ZM42.6106 44.2477C42.7844 44.6783 42.8542 45.1506 42.8126 45.6131C42.9022 45.4755 42.9918 45.3378 43.0814 45.2002C43.2776 45.7471 43.3334 46.2335 43.0892 46.7607C43.4236 46.6567 43.6121 46.2808 43.6121 45.9306C43.6121 45.4327 43.3527 44.9977 42.3929 42.8651C42.3721 43.4426 42.3705 44.0278 42.3497 44.6053C42.4806 44.5285 42.5774 44.3958 42.6106 44.2477ZM25.668 49.4476C25.7319 49.4517 25.798 49.4997 25.7982 49.5638C25.7984 49.6684 25.6924 49.7009 24.9316 50.1599C24.985 50.092 25.1069 50.119 25.1467 50.1956C25.1865 50.2722 25.1579 50.37 25.1011 50.4349C24.9826 50.5702 24.4069 50.8048 24.1768 50.8562C23.9281 50.9118 23.6786 50.9987 23.4521 50.8816C23.6233 51.2438 24.0695 51.451 24.4566 51.3481C25.1692 51.1587 26.2985 49.475 26.6713 48.8021C26.2687 49.0228 25.8875 49.2777 25.4849 49.4985C25.5429 49.4713 25.6041 49.4435 25.668 49.4476ZM43.8323 6.89264C43.9492 6.67139 44.0826 6.44989 44.1133 6.20154C44.4372 7.61243 44.3126 9.08093 44.3115 10.5285C44.9693 9.97675 45.5623 9.2854 46.3834 9.03455C45.9695 9.71704 45.5408 10.3793 45.0634 11.019C45.172 11.1962 46.1433 10.8283 48.6794 11.1713C48.1612 11.8904 47.608 12.5302 46.9468 13.1205C48.2273 12.5724 49.4058 11.7872 50.4048 10.8167C50.0755 10.6537 49.6871 10.5668 49.3231 10.516C48.4662 10.3964 47.6063 10.2996 46.7443 10.2257C46.9989 10.2475 47.3371 9.34647 47.4585 9.07111C47.8172 8.25775 48.1581 7.31839 48.1851 6.43323C48.1896 6.28473 48.2306 6.08075 48.0353 6.18475C47.1833 6.63831 46.4691 7.56312 45.7059 8.20111C45.6408 8.25555 45.1773 8.53522 45.1749 8.59161C45.2082 7.80542 45.2358 7.01434 45.2258 6.22742C45.2157 5.43231 45.1806 4.62207 44.9082 3.875C44.8953 3.89246 44.8823 3.90985 44.8693 3.92731C44.8743 3.91113 44.8889 3.92365 44.8939 3.90747C42.9591 5.62822 42.5207 7.79248 43.1516 9.40405C43.1895 8.5304 43.4239 7.66583 43.8323 6.89264Z" fill="white"/>
</svg>
