<svg xmlns="http://www.w3.org/2000/svg" enable-background="new 0 0 56 56" viewBox="0 0 56 56"><path fill="#fff" d="M11.2514811 30.0386944l3.2841797-1.984375c.1767578-.1074219.2333984-.3378906.1269531-.515625-.1074219-.1767578-.3369141-.2314453-.515625-.1269531l-3.2841797 1.984375c-.1767578.1074219-.2333984.3378906-.1269531.515625C10.8397856 30.0835152 11.0658674 30.1477051 11.2514811 30.0386944zM41.2173615 42.8153038c-.9325829-.7663422-.7487946-.7450714-1.2559204-.4309082-3.9302521 2.4370728-3.7267151 2.2798119-3.7252197 2.3562012.0017815.1000366.0975494.1607018.7469482.7501831.0853271.0773926.2020874.088623.2932739.0332642.0310097-.0189133 2.1190414-1.2869911 2.1500854-1.3058472.3975182-.2414856 2.0361328-1.2393265 1.9306641-1.1751099C41.423172 42.9542809 41.2711334 42.8594933 41.2173615 42.8153038zM37.3472443 45.2662315c-.2597656.1594276-.1528397.1934128-.5601196-.2398071-.0087891-.0093994-.0529785-.0447998-.0529785-.0565186-.0169678-.0180664-.0675659-.0528564-.0612793-.0821533.0070801-.0330811.1353149-.0147095.1655273-.0149536.1431274-.0010986.2888794-.0079346.4268799-.0489502-.0172729.0819702-.0733643.1548462-.1481934.1925049.6374168-.1090355 1.5633087-.7176628 1.6958008-.7070923.0294189.0023193.045166.0174561.0267944.0414429C38.8276672 44.3664513 38.9697418 44.2720566 37.3472443 45.2662315z" class="color000000 svgShape"/><path fill="#fff" d="M51.7290192,25.6363506L38.1955719,35.6929283l-2.9060059-1.7018433
			c2.3735962-1.0783081,4.2018433-3.2398663,4.722229-5.9830303c0.8867607-4.6257687-2.2851219-9.1052151-7.0270996-9.7684937
			c-5.4721336-1.9033146-11.1794453,1.9661102-11.4061279,7.7120972l-3.798645-2.2272949L15.2690592,4.7418194
			c-0.0185547-0.1357422-0.1337891-0.2275391-0.28125-0.2148438c-0.1367188,0.0185547-0.2324219,0.1435547-0.2148438,0.28125
			l2.4735098,18.7003784c-0.1928711-0.0231323-0.3904419,0.0081787-0.5692139,0.1101685L4.3188634,30.8883038
			c-0.2792969,0.1621094-0.4472654,0.4541016-0.4472654,0.7802734c0,0.1224594,0.0243316,1.8997517,0.0265503,2.0712872
			c0.0301514,0.2310181,0.1607664,0.4319458,0.3716428,0.5524292l29.1405029,17.0764771
			c0.2410278,0.140564,0.5424194,0.140564,0.7734375,0l12.3855591-7.5136719
			c0.2108765-0.1306152,0.3413696-0.3616333,0.3614502-0.6026611l0.3013916-1.5067749
			c-0.0012207-0.0003052-0.0025635-0.0006104-0.0037842-0.0009155c0.0989571-0.3841743-0.0567398-0.7973251-0.4182739-1.0068359
			l-8.1460571-4.7706299l13.3638306-9.9305401c0.1103516-0.0820313,0.1337891-0.2382813,0.0507813-0.3496094
			C51.9975739,25.5777569,51.8403473,25.5523663,51.7290192,25.6363506z M37.7594757,36.017025L37.14534,36.4733238
			l-3.3903809-1.9577026c0.3236084-0.076355,0.6391602-0.1747437,0.9487915-0.2880249L37.7594757,36.017025z M32.1743317,40.4791222
			c0.0842514,0.112896,0.2427139,0.1321182,0.3496094,0.0507813l4.6555786-3.4594727l3.8112183,2.2006836
			c0.1137619,0.0656319,0.1106987,0.2254868,0.0068359,0.2880859l-10.1318359,5.9550781
			c-0.0546875,0.0302734-0.1269531,0.0292969-0.1767578,0.0029297L10.1381998,33.7476768
			c-0.1133928-0.0662651-0.1096659-0.2140083,0.0029297-0.2773438l7.8150625-4.5962505l0.40271,3.0444946
			c0.044075,0.3318462,0.5379429,0.261404,0.4960938-0.0664063l-0.4303589-3.25354
			c1.8751011-1.0621834,1.9385815-1.2282944,2.1051636-1.1380615l1.2441406,0.7158203
			c1.0138645,4.4569836,5.3951721,7.3149395,9.8497925,6.5546856c0.46521,0.0120239,0.9245605-0.0115967,1.374939-0.0747681
			l3.7094727,2.1419067l-4.4830322,3.3312988C32.1147614,40.211544,32.0913239,40.367794,32.1743317,40.4791222z
			 M37.075943,31.8838482c-0.1176147-0.0100098-0.1925049-0.09729-0.2294922-0.2017212
			c0.0996094-0.1220703,0.2007446-0.2428589,0.2937012-0.3707275c0.151062,0.0222778,0.2636108,0.152832,0.2505493,0.3070068
			C37.3770905,31.7786236,37.2361603,31.897459,37.075943,31.8838482z M38.2706451,30.8064556
			c-0.2182007-0.0185547-0.380127-0.2104492-0.3615723-0.4287109c0.0184937-0.2182007,0.2103882-0.380127,0.4286499-0.3615723
			c0.2182007,0.0184937,0.380127,0.2104492,0.3615723,0.4286499C38.6808014,30.663084,38.4888458,30.8249493,38.2706451,30.8064556z
			 M30.1411285,18.2476788c5.1044312,0,8.9194641,4.6385021,7.9794922,9.5703125
			c-1.5105896,7.9151211-12.7835369,9.012476-15.5892944,1.1400146
			C20.6584759,23.6512623,24.637373,18.2476788,30.1411285,18.2476788z M21.5581207,26.5191631
			c0.0119019,0.3510132,0.0497437,0.6862183,0.0993652,1.0125732l-0.8845215-0.508667
			c-0.2041016-0.1064453-0.453125-0.1064453-0.6650391,0.0048828l-1.7545166,1.0319824l-0.4904175-3.7076416L21.5581207,26.5191631z
			 M5.2632604,33.6172447c-0.1343384,0-0.2432251-0.1778564-0.2432251-0.3972168
			c0-0.1235962,0.0366211-0.2295532,0.0908813-0.3024292l0.3863525,0.2283325
			c0.0029907,0.0248413,0.0091553,0.0477905,0.0091553,0.0740967C5.5064244,33.4393883,5.3975377,33.6172447,5.2632604,33.6172447z
			 M5.9425206,34.7441368c-0.0689087,0-0.1248169-0.1080322-0.1248169-0.241333s0.0559082-0.241333,0.1248169-0.241333
			c0.0689697,0,0.1248169,0.1080322,0.1248169,0.241333S6.0114903,34.7441368,5.9425206,34.7441368z M6.8179479,34.3953819
			c-0.0581665,0-0.1053467-0.0471802-0.1053467-0.1053467c0-0.0582275,0.0471802-0.1054077,0.1053467-0.1054077
			c0.0582275,0,0.1054077,0.0471802,0.1054077,0.1054077C6.9233556,34.3482018,6.8761754,34.3953819,6.8179479,34.3953819z
			 M33.6607208,51.3429527v-1.614563c0.0569458,0.0112915,0.1137695,0.0241699,0.171814,0.0241699
			c0.0263672,0,0.0519409-0.0079956,0.078186-0.010376v1.600769C33.9107208,51.508503,33.6607208,51.5084801,33.6607208,51.3429527z
			 M46.5581207,41.1695518c0.2725525,0.1596985,0.2594261,0.5413589-0.0019531,0.7001953l-12.5302734,7.3291016
			c-0.1230469,0.0761719-0.2773438,0.0703125-0.4042969-0.0097656L4.5708165,32.0181847
			c-0.2649226-0.1531563-0.2668839-0.5445843,0.0009766-0.6982403l12.3564453-7.2685547
			c0.1401806-0.0792332,0.2583447-0.0718441,0.3887939-0.0094604l0.5679321,4.2935181l-7.9948111,4.7022686
			c-0.4461212,0.2531509-0.447731,0.8885994,0,1.1435547L30.445816,45.9537315
			c0.2042198,0.1110344,0.4573822,0.109024,0.6660156-0.0039063l10.1396484-5.9599609c0-0.0009766,0-0.0009766,0.0009766-0.0009766
			c0.4357986-0.2585564,0.4304504-0.8975449-0.0126953-1.1513672l-3.6230469-2.092041l0.6112061-0.4541626L46.5581207,41.1695518z" class="color000000 svgShape"/><path fill="#fff" d="M28.7768707,33.039669c3.7124786,0.7126656,7.3589668-1.7096977,8.0722656-5.4531231
			c0.7112122-3.7298222-1.7494621-7.3267097-5.5-8.0400391c-3.7421875-0.7177734-7.3632813,1.7333984-8.0722656,5.453125
			C22.5655289,28.7281189,25.0258007,32.3262405,28.7768707,33.039669z M30.0454254,19.9224834
			c0.3994141,0,0.8037109,0.0371094,1.2099609,0.1142578c3.5106697,0.6707382,5.7560844,4.0310631,5.1035156,7.4560547
			c-1.0562744,5.535265-8.3821697,7.0628147-11.5908203,2.375C21.8560715,25.613369,24.9704514,19.9224834,30.0454254,19.9224834z" class="color000000 svgShape"/><path fill="#fff" d="M26.9965973,29.1822491c-0.0205078,0.1328125,0.0966797,0.2988281,0.2294922,0.3242188l1.3370972,0.2505493
			l-0.1534424,0.9232788c-0.006897,0.0414429,0.0206299,0.0808105,0.0619507,0.088501l0.517395,0.0967407
			c0.0422363,0.0078735,0.0827026-0.0201416,0.09021-0.0623779l0.1625366-0.9190063l0.5150146,0.0964966l-0.1513672,0.9107056
			c-0.007019,0.0420532,0.0214233,0.0817871,0.0634766,0.0887451l0.519104,0.0863037
			c0.041748,0.006958,0.0812988-0.0209961,0.0886841-0.0626831l0.1586914-0.8969116
			c0.1053467,0.0166016,0.2106934,0.0256348,0.31604,0.0256348c0.6894531,0,1.3564453-0.3535156,1.7304688-0.9394531
			c0.5066071-0.7959309,0.3907242-1.9293346-0.2802734-2.5820313c1.1871185-0.7040482,1.2867851-2.2765179,0.3496094-3.1416016
			c-0.3588257-0.3306274-0.8126221-0.5012207-1.2671509-0.6130371l0.1398315-0.8988647
			c0.0090332-0.0578003-0.0302124-0.1120605-0.0878906-0.1216431l-0.4611816-0.0766602
			c-0.0581665-0.0097046-0.1130981,0.0296021-0.1228027,0.0877686l-0.1448975,0.8718262l-0.5167236-0.0872803l0.1358032-0.8731079
			c0.0089722-0.0578003-0.0302124-0.1120605-0.0879517-0.1216431l-0.4611816-0.0766602
			c-0.0581055-0.0097046-0.1130981,0.0296021-0.1227417,0.0877686l-0.1444092,0.8687134l-0.9905396-0.1672974
			c-0.140625-0.0253906-0.3027344,0.0986328-0.3261719,0.234375l-1.0966797,6.5947266
			C26.9965973,29.1793194,26.9965973,29.1812725,26.9965973,29.1822491z M28.5512848,22.8785381l2.0400391,0.3447266
			c0.5898438,0.0976563,1.2011719,0.2265625,1.6210938,0.6132813c0.8040314,0.7423401,0.53862,2.1087723-0.5332031,2.4667969
			c-0.1123047,0.0371094-0.1914063,0.1416016-0.1953125,0.2607422c-0.0039063,0.1035156,0.0800781,0.2333984,0.1767578,0.2734375
			c0.1318359,0.0537109,0.2470703,0.1660156,0.3847656,0.375c0.3320313,0.5,0.3378906,1.2041016,0.0146484,1.7109375
			c-0.3203125,0.5039063-0.9580078,0.7861328-1.546875,0.6894531l-2.9882813-0.5595703L28.5512848,22.8785381z" class="color000000 svgShape"/><path fill="#fff" d="M29.3457184 25.6534405l.9437256.1691895c.4752808.0852051.9285889-.2345581 1.0077515-.7108765.0784912-.4721069-.2406616-.918457-.7127686-.9969482l-.9553223-.1588135c-.0546265-.0090332-.1062622.0278931-.1153564.0825195l-.2492676 1.4997559C29.2554474 25.5924053 29.2916412 25.6437359 29.3457184 25.6534405zM30.1137238 26.9466534l-.9553223-.1588135c-.0546265-.0090942-.1062622.027832-.1153564.0825195l-.2493286 1.4997559c-.0089722.0541382.0272217.1054688.0812378.1151733l.9437866.1691895c.4752808.0852051.9285278-.2345581 1.0077515-.7108765C30.9049225 27.4714947 30.5858307 27.0251446 30.1137238 26.9466534zM34.8057404 23.3498516c.3864136.9907227.6028442 2.0616455.6442261 3.100647-.1574707-.2538452-.3150024-.5076904-.4725342-.7615967.1516113.8740845.1627808 1.7637939.0330811 2.6347656-.1318359-.2307129-.2636719-.4614258-.3955688-.6921997-.0050659 1.0283203-.2283936 2.1293945-.7532349 3.0397949C36.252224 28.8348866 36.6574974 25.6870365 34.8057404 23.3498516zM27.1666412 21.5401592c.125.0106201.2349243-.0821533.2455444-.2071533s-.0821533-.2349854-.2071533-.2456055c-.125-.0105591-.2349854.0821533-.2455444.2072144C26.9488678 21.4196148 27.0415802 21.5295391 27.1666412 21.5401592zM26.3477325 22.1276226c.105957.0089722.1991577-.0696411.2081299-.1755981.0089722-.105896-.0695801-.1990967-.1755371-.2080688-.105957-.0090332-.1991577.0695801-.2081299.1755371S26.2418365 22.1185894 26.3477325 22.1276226zM46.852066 13.9713116c1.5672188-4.4806719-3.1254272-8.6913023-7.4423828-6.6269531-4.2930984 2.0480251-3.9707146 8.3156061.5732422 9.9082031C42.7718353 18.22822 45.8667068 16.7828865 46.852066 13.9713116zM39.6255035 7.7955303c2.4520798-1.1741333 5.3940163-.1232147 6.555481 2.343689-.0512085.1082764-.0876465.2324219-.1131592.2921753-.2046509.4783936-.4092407.9567261-.6138916 1.4350586.2515869-.1026611.5031738-.2053833.7547607-.3080444-.1230469.821106-.4279785 1.614502-.8865967 2.3066406.2960815-.114563.5922241-.2290649.8883667-.3435669-.0881958.5793457-.2992554 1.1355591-.5955811 1.6411133-1.2519531 1.6069946-3.4298096 2.3337402-5.4659424 1.6173096C36.0543213 15.3475723 35.7146797 9.6616907 39.6255035 7.7955303z" class="color000000 svgShape"/><path fill="#fff" d="M40.0865021 8.222044c.2259331.0536337.3073273-.2880368.0811157-.3417358C39.9413834 7.8266029 39.8606033 8.1684532 40.0865021 8.222044zM39.3932037 8.5775127c.0800171.0189819.1602173-.0304565.1791992-.1104126s-.0304565-.1602173-.1104126-.1791992-.1602173.0304565-.1791992.1104126C39.2638092 8.4783306 39.3132477 8.5585308 39.3932037 8.5775127z" class="color000000 svgShape"/><path fill="#fff" d="M49.1675568,14.6364117c1.1752319-3.3444824-0.6033936-7.0095215-3.9730835-8.1906738
			c-0.0006104-0.0001831-0.0011597-0.0003052-0.00177-0.0004883c-5.7462082-3.3217409-12.2376671,2.7774782-9.3943481,8.6422729
			c1.1264343,2.3220348,3.533287,3.9031811,6.3756714,3.7640991C45.1691437,19.2883282,48.1399078,17.5790386,49.1675568,14.6364117
			z M39.1303864,6.6392803c3.0791473-1.4721737,6.7887535-0.1815119,8.2851563,2.9003906
			c2.388752,4.9296331-2.4112778,10.3126755-7.6220703,8.4853516C34.5820923,16.2012024,34.1894913,8.9996433,39.1303864,6.6392803z
			 M46.4795685,17.2638531c-0.0672607-0.0159302-0.1138306-0.0626831-0.1426392-0.1199951
			c0.1012573-0.0911255,0.1968994-0.1870728,0.2927246-0.2846069C46.8780708,16.9946232,46.720459,17.3210983,46.4795685,17.2638531
			z M47.5162506,16.5767803c-0.1647339-0.0391235-0.2665405-0.2044067-0.227417-0.3690796
			c0.0391235-0.1647339,0.2043457-0.2666016,0.3690796-0.227478s0.2665405,0.2044067,0.227417,0.3691406
			S47.6809845,16.6159039,47.5162506,16.5767803z" class="color000000 svgShape"/><path fill="#fff" d="M43.0298615 15.3241558l.5053711-.8208618c.0245361-.039917.0053711-.0922852-.0391235-.1069336l-2.5308228-.8328247c-.0437012-.0144043-.0631104-.0653076-.0401001-.1051636l.5088501-.8815308c.0131226-.0227051.0374146-.0365601.0636597-.0362549l1.270813.0145264c.0281982.0003052.0540161-.0157471.0662231-.0411377l.2733154-.5701294c.022644-.0473022-.0108643-.102356-.0632935-.1038208l-.9852905-.0284424c-.0557861-.0015869-.0889282-.0630493-.0596313-.1105957l1.1696167-1.8946533c.0249634-.0404053.0049438-.0935059-.0404663-.1074219l-1.37677-.4216919c-.1064873-.0326271-.0268707-.0195951-1.5337524 2.5773315-.0133057.0233765-.0385132.0374756-.0654297.0365601L39.11586 11.8566265c-.0292358-.0009155-.0562134.0157471-.0683594.0423584l-.2628784.5754395c-.0213013.0466309.0112305.1000366.062439.1025391l.7324219.0355835c.0539551.0025635.0862427.0610962.0596313.1081543l-.7376099 1.3035889c-.0228882.0403442-.0025024.0914307.0418701.1050415l4.003479 1.2261353C42.9784698 15.3651104 43.0125885 15.352293 43.0298615 15.3241558zM20.3452301 15.95471c-.1367188.0175781-.234375.1416016-.2167969.2792969l.6357288 5.0859375c.0156384.1259766.1230602.21875.2480602.21875.0097656 0 .0205078-.0009766.03125-.0019531.1367188-.0175781.234375-.1416016.2167969-.2792969l-.6357422-5.0859375C20.6069489 16.0357647 20.492691 15.9410381 20.3452301 15.95471zM45.0102692 27.8277569l-3.8232422 2.5361328c-.1142578.0761719-.1455078.2314453-.0693359.3466797.0478516.0722656.1269531.1113281.2080078.1113281.0478516 0 .0957031-.0136719.1386719-.0419922l3.8232422-2.5361328c.1142578-.0761719.1455078-.2314453.0693359-.3466797S45.1255035 27.751585 45.0102692 27.8277569zM31.265152 42.7968712c-.7156372.1883545-1.4710693.2242432-2.201416.1045532.2473755-.1292114.4946899-.2584839.7420654-.3876953-1.0614624.1383667-2.0924683-.0476074-3.1629028-.0476074l3.977417 2.5078735 3.4875488-2.0376587-.2398071-.1257324c-1.114502.4196167-2.2925415.6700439-3.4813843.7401733C30.6795197 43.2994957 30.9723663 43.0481529 31.265152 42.7968712zM19.9892731 30.709837c0 .0567017.1506958.1026611.3366089.1026611.4462948 0 .4493084-.2053833 0-.2053833C20.1399689 30.6071148 19.9892731 30.6531353 19.9892731 30.709837zM20.6510773 29.8815289c.3186932 0 .3190594-.0845337 0-.0845337C20.3323822 29.7969952 20.3319054 29.8815289 20.6510773 29.8815289zM21.3585358 30.5044537c.363018 0 .3655243-.1483154 0-.1483154C20.9962749 30.3561382 20.9922848 30.5044537 21.3585358 30.5044537z" class="color000000 svgShape"/></svg>