<svg width="56" height="56" viewBox="0 0 56 56" fill="none" xmlns="http://www.w3.org/2000/svg">
<path d="M33.3071 43.3707C33.2758 43.5289 33.3803 43.6852 33.5366 43.7179L35.3318 44.1052L35.0721 45.4429C35.0612 45.4989 35.0969 45.5533 35.1525 45.5653L35.848 45.7149C35.9047 45.7272 35.9605 45.6905 35.9722 45.6334L36.245 44.3022L36.9363 44.4514L36.6799 45.7718C36.6689 45.8287 36.7058 45.8836 36.7623 45.8946L37.4606 46.0302C37.5167 46.0411 37.5712 46.0045 37.5827 45.9482L37.8494 44.6468C38.0032 44.6756 38.1591 44.691 38.3139 44.691C39.1909 44.691 40.0668 44.2462 40.559 43.5167C41.1411 42.652 41.1645 41.4317 40.6157 40.5494C40.5112 40.3814 40.3784 40.1891 40.1997 40.0289C40.851 39.7047 41.3657 39.0987 41.561 38.4005C41.809 37.505 41.5424 36.5084 40.8813 35.8609C40.4243 35.4143 39.8331 35.1727 39.2366 35.0079L39.476 33.7033C39.4904 33.6251 39.4394 33.55 39.3618 33.535L38.7415 33.4145C38.6633 33.3993 38.5875 33.4508 38.5723 33.5294L38.3263 34.7963L37.6323 34.6596L37.8651 33.3905C37.8794 33.3124 37.8284 33.2373 37.7508 33.2222L37.1305 33.1018C37.0523 33.0866 36.9766 33.138 36.9613 33.2166L36.7161 34.4793C35.3882 34.246 35.344 34.1433 35.1625 34.2638C35.1079 34.3009 35.0512 34.3883 35.0385 34.4527L33.3071 43.3707ZM35.4907 34.7477L38.3208 35.3048C39.1274 35.4615 39.9614 35.6612 40.5317 36.2184C41.0571 36.732 41.2768 37.5553 41.0786 38.2667C40.893 38.9332 40.3432 39.4967 39.6762 39.7018C39.5581 39.7389 39.476 39.8434 39.4692 39.9674C39.4643 40.0709 39.5522 40.2145 39.6469 40.2569C39.8403 40.3429 40.0024 40.5089 40.1909 40.8126C40.6391 41.5338 40.6196 42.5309 40.145 43.2374C39.6713 43.9386 38.7622 44.315 37.937 44.1559L33.8354 43.2711L35.4907 34.7477ZM29.8835 38.3131C29.6134 40.1201 30.1214 42.0433 31.2842 43.616C30.9389 42.2319 31.0562 40.7099 31.4303 39.3637C31.1735 39.6166 30.9166 39.8695 30.6598 40.1225C30.8135 38.9359 31.1575 37.777 31.6782 36.6902C31.3795 36.9639 31.0806 37.2376 30.7819 37.5113C31.2204 36.1683 31.8983 34.8482 32.7675 33.6958C31.1996 34.8317 30.1537 36.5063 29.8835 38.3131ZM43.3696 34.1524C43.5361 34.1847 43.6974 34.0752 43.7299 33.9079C43.7624 33.7405 43.6538 33.5786 43.4873 33.5463C43.3208 33.514 43.1596 33.6235 43.127 33.7908C43.0946 33.9582 43.2031 34.12 43.3696 34.1524ZM44.2167 35.2229C44.3579 35.2503 44.4945 35.1575 44.5221 35.0157C44.5496 34.8738 44.4576 34.7367 44.3165 34.7093C44.1754 34.6819 44.0387 34.7746 44.0112 34.9165C43.9837 35.0583 44.0757 35.1955 44.2167 35.2229Z" fill="white"/>
<path d="M36.5292 38.6491L37.7981 38.9122C38.4371 39.0448 39.0618 38.6266 39.1868 37.9825C39.3108 37.3441 38.8965 36.7267 38.2615 36.6034L36.9766 36.3539C36.9031 36.3397 36.8319 36.3879 36.8176 36.4619L36.4238 38.4898C36.4096 38.563 36.4565 38.634 36.5292 38.6491ZM36.9951 37.0789C37.0855 37.3176 37.215 37.5406 37.3889 37.7267C37.3038 37.7019 37.2187 37.6771 37.1335 37.6523C37.2307 37.7725 37.3279 37.8926 37.425 38.0128C37.3279 37.9851 37.2308 37.9575 37.1337 37.9298C37.3686 38.2209 37.7209 38.4651 38.064 38.6122L36.747 38.3565L36.9951 37.0789ZM38.4434 41.8117C38.5673 41.1733 38.153 40.5558 37.5181 40.4326L36.2332 40.1831C36.1597 40.1688 36.0884 40.2172 36.0741 40.291L35.6804 42.319C35.6661 42.3922 35.7131 42.4632 35.7858 42.4783L37.0547 42.7414C37.6937 42.874 38.3184 42.4558 38.4434 41.8117ZM35.9572 42.2855L36.2053 41.0079C36.2957 41.2466 36.4252 41.4697 36.5991 41.6558C36.514 41.6309 36.4289 41.6061 36.3437 41.5813C36.4409 41.7015 36.5381 41.8217 36.6353 41.9418C36.5381 41.9141 36.441 41.8865 36.3439 41.8588C36.5788 42.15 36.931 42.3941 37.2742 42.5412L35.9572 42.2855ZM19.5495 9.13489C19.6882 9.18976 19.8269 9.24457 19.9656 9.29938C19.7957 8.99701 19.6749 8.66699 19.6097 8.32629C19.7446 8.39471 19.8795 8.46313 20.0144 8.53155C19.8618 8.10193 19.788 7.64923 19.7819 7.19336L18.5938 9.27954L20.419 10.2643L20.3075 10.1062C20.0549 9.78241 19.8022 9.45868 19.5495 9.13489ZM29.2114 17.2266L28.8885 16.8523C28.0532 15.9261 27.3389 14.8909 26.7694 13.7812C27.0715 13.9202 27.3735 14.0593 27.6755 14.1982C27.2925 13.5088 26.9945 12.7722 26.7905 12.0104C27.0049 12.1456 27.2192 12.2807 27.4336 12.4158C27.0878 11.8433 26.9025 11.2062 26.8904 10.5375C26.796 10.7031 24.8452 14.1212 24.8394 14.1344C24.6295 14.6151 25.2503 14.8124 25.5576 14.9545C25.9802 15.1501 26.3932 15.3661 26.7968 15.5981C27.6393 16.0823 28.441 16.6351 29.2114 17.2266ZM33.0005 11.9297C33.0815 11.9383 33.1542 11.8797 33.1629 11.7987C33.1715 11.7177 33.1129 11.645 33.0319 11.6364C32.9509 11.6277 32.8783 11.6863 32.8696 11.7673C32.861 11.8483 32.9196 11.921 33.0005 11.9297ZM33.5244 12.8856C33.6177 12.8955 33.7064 12.7812 33.7226 12.6302C33.7387 12.4792 33.6761 12.3488 33.5828 12.3387C33.4894 12.3288 33.4007 12.4431 33.3846 12.5941C33.3684 12.7451 33.431 12.8755 33.5244 12.8856ZM32.7553 12.4606C32.7629 12.3897 32.7401 12.3292 32.7044 12.3253C32.6687 12.3215 32.6337 12.3759 32.6261 12.4468C32.6185 12.5176 32.6413 12.5782 32.677 12.582C32.7126 12.5858 32.7477 12.5315 32.7553 12.4606ZM32.9706 18.2177C33.872 18.8279 34.766 19.5797 35.5806 20.3149C35.6044 20.3365 35.6632 20.4116 35.6953 20.4121C35.8777 20.415 35.7022 20.2807 33.8753 18.0497C34.1434 18.1556 34.4116 18.2615 34.6797 18.3674C34.2382 17.7736 33.7968 17.1796 33.3553 16.5858C33.6057 16.6712 33.8561 16.7567 34.1065 16.8422C33.8317 16.3282 33.676 15.7867 33.6086 15.2078L32.0405 17.644C32.0562 17.6195 32.8971 18.1678 32.9706 18.2177ZM27.6067 29.4732C27.8567 29.4732 27.9518 29.1431 27.7395 29.0113L25.0657 27.3419C24.9485 27.2701 24.7942 27.3033 24.7209 27.4214C24.6477 27.5386 24.6829 27.6929 24.8 27.7657C27.5809 29.4857 27.4714 29.4732 27.6067 29.4732ZM34.635 26.7759C34.7532 26.7037 34.7893 26.5499 34.717 26.4322L33.1614 23.9034C33.0901 23.7857 32.9358 23.7486 32.8176 23.8214C32.6995 23.8936 32.6633 24.0474 32.7356 24.1651L34.2913 26.6939C34.3636 26.8122 34.5185 26.848 34.635 26.7759ZM45.1106 27.7051L47.9329 22.9317C48.0032 22.8126 47.9641 22.6592 47.845 22.5889C47.7278 22.5196 47.5725 22.5577 47.5032 22.6768L44.6809 27.4503C44.6106 27.5694 44.6497 27.7227 44.7688 27.793C44.8901 27.864 45.0426 27.8215 45.1106 27.7051ZM49.5432 33.6304C49.4075 33.6573 49.3196 33.7891 49.3469 33.9244C49.3743 34.0636 49.5103 34.1475 49.6409 34.1207L51.4368 33.7613C51.7623 33.6969 51.6626 33.2038 51.3391 33.2711L49.5432 33.6304ZM49.2717 44.3716L51.8899 45.6548C52.1911 45.7973 52.4054 45.3507 52.1106 45.2056L49.4924 43.9224C49.1887 43.7812 48.9788 44.2275 49.2717 44.3716Z" fill="white"/>
<path d="M4.49403 45.3965L9.51942 48.7076C10.269 49.1714 11.2476 48.9404 11.7108 48.1831L28.9995 18.6065C29.2517 18.8054 29.5125 18.9981 29.7509 19.2071C30.0081 19.4345 30.41 19.3875 30.6034 19.0953L31.1493 18.2664C35.0025 20.436 37.7836 23.8835 38.8762 27.8095C37.7415 27.6988 36.6774 27.7325 35.4917 27.964C29.9448 28.2267 25.2986 32.5377 24.7995 38.2247C24.253 44.3399 28.7085 49.7178 34.7747 50.4099C35.4007 50.5731 36.0413 50.696 36.6991 50.7539C43.0729 51.3153 48.6447 46.5742 49.2099 40.2828C49.7377 34.3327 45.6088 28.9939 39.8213 27.9432C40.5885 26.4386 40.5316 25.1197 40.3495 23.4698C39.9033 19.3873 37.8772 15.4917 34.7913 12.7367L34.996 12.4258C35.1591 12.1768 35.1083 11.8501 34.8768 11.6661C34.3168 11.2157 33.729 10.7869 33.1262 10.3708L33.5842 9.52067C33.6995 9.30674 33.6234 9.03996 33.4127 8.91893L30.4332 7.20811C30.2186 7.08494 29.9449 7.15873 29.8212 7.37297L29.3731 8.14994C28.9942 7.95756 28.6192 7.76078 28.2294 7.58061C27.9638 7.45756 27.6474 7.55571 27.4979 7.80961L27.0988 8.48558C24.9144 7.14952 22.7041 6.06102 20.5253 5.25932C20.08 5.0933 19.5761 5.2935 19.3583 5.72319L17.6835 9.03032C17.4599 9.47123 17.6151 10.0162 18.038 10.2715C18.7616 10.709 19.4999 11.0704 20.2304 11.3453C20.3788 11.4029 20.5497 11.417 20.7216 11.3916C21.7128 11.2359 22.5067 11.3931 23.0741 11.8643C23.5946 12.2967 23.907 13.0108 23.9447 13.8269L23.4188 14.7173C23.2456 15.0074 23.3654 15.3946 23.6903 15.5323C23.9387 15.6369 24.1632 15.7521 24.4024 15.8607L4.05849 43.1128C3.50942 43.8576 3.71679 44.9143 4.49403 45.3965ZM38.8152 30.6142L38.8193 30.7254L35.9359 31.1808L34.4798 33.0656L36.1436 31.8994L38.9459 31.2443L41.2393 33.7322L42.3201 35.9649L42.074 37.2325L42.7196 35.8964L41.903 33.171L39.7205 30.8044L39.7255 30.7637C43.9912 31.6895 46.9545 35.6369 46.5624 40.0601C46.1356 44.8609 41.8788 48.4224 37.0712 48.0039C34.7421 47.7994 32.6327 46.7007 31.1317 44.9097C29.6337 43.1211 28.9227 40.856 29.1288 38.5308C29.5558 33.7214 33.8577 30.0696 38.8152 30.6142ZM48.7118 40.2383C48.1679 46.2969 42.7821 50.7901 36.7431 50.2559C30.6732 49.7206 26.1748 44.3879 26.7206 38.3072C27.2537 32.2587 32.5829 27.7522 38.6972 28.2901C38.7056 28.2906 38.7139 28.2919 38.7224 28.2925L38.7956 30.1076C33.6507 29.5797 29.0835 33.3932 28.6308 38.4869C28.1498 43.8911 32.4026 48.5376 37.8436 48.5376C42.5819 48.5376 46.6337 44.9068 47.0604 40.104C47.4803 35.3877 44.2929 31.2211 39.7908 30.2659L40.0374 28.4908C45.4754 29.6487 49.2034 34.6954 48.7118 40.2383ZM39.8534 23.5245C40.0302 25.1329 40.0927 26.3306 39.3876 27.7115C38.2701 23.6509 35.3906 20.092 31.4244 17.8487L34.5121 13.1605C37.4758 15.8318 39.4224 19.5873 39.8534 23.5245ZM23.3934 11.4795C22.7118 10.9136 21.7841 10.7198 20.6444 10.8975C20.5556 10.9097 20.4755 10.9039 20.4071 10.878C19.704 10.6133 18.994 10.2652 18.2958 9.84379C18.0966 9.72319 18.0233 9.46489 18.1288 9.2559L19.8036 5.94926C19.9071 5.74614 20.1415 5.65043 20.3534 5.72807C22.5033 6.5197 24.6856 7.59538 26.8446 8.916L24.356 13.1303C24.2023 12.4568 23.8701 11.8754 23.3934 11.4795ZM23.8485 14.9712C24.2339 14.3187 28.0759 7.81293 27.9276 8.06401C27.9413 8.04155 27.9657 8.02836 27.9911 8.02836C28.0009 8.02836 28.0106 8.03032 28.0204 8.03471C30.4286 9.14848 32.6298 10.5015 34.5643 12.0562C34.5927 12.0787 34.5985 12.1202 34.578 12.1509L30.1854 18.8199C30.0854 18.8311 29.9809 18.8428 30.0809 18.8316C28.5703 17.5081 26.446 16.152 23.8427 15.0269C23.8388 15.0137 23.8358 14.9932 23.8485 14.9712ZM4.45985 43.4107L24.8662 16.0746C26.257 16.7369 27.5015 17.4685 28.6049 18.2912L11.2821 47.9268C10.9615 48.4498 10.2849 48.5932 9.78896 48.2862L4.76357 44.9751C4.22066 44.6386 4.08846 43.9146 4.45985 43.4107Z" fill="white"/>
<path d="M7.24915 43.0774C7.47015 43.2755 7.69116 43.4734 7.91217 43.6714C7.8291 42.9121 7.74609 42.1527 7.66302 41.3934C7.79834 41.5235 7.93365 41.6536 8.06897 41.7838C8.38458 40.7266 8.70807 39.6693 9.02368 38.6121L4.99023 44.113L8.24304 46.3249C7.73352 45.436 7.25684 44.1019 7.24915 43.0774ZM25.3989 20.4236C25.5239 20.4236 25.6252 20.278 25.6252 20.0984C25.6252 19.9188 25.5239 19.7732 25.3989 19.7732C25.274 19.7732 25.1727 19.9188 25.1727 20.0984C25.1727 20.278 25.274 20.4236 25.3989 20.4236ZM26.4028 19.4056C26.5668 19.4056 26.6998 19.222 26.6998 18.9955C26.6998 18.769 26.5668 18.5854 26.4028 18.5854C26.2388 18.5854 26.1059 18.769 26.1059 18.9955C26.1059 19.222 26.2388 19.4056 26.4028 19.4056Z" fill="white"/>
</svg>
