<svg width="56" height="56" viewBox="0 0 56 56" fill="none" xmlns="http://www.w3.org/2000/svg">
<path d="M22.3484 38.098L20.9974 37.0012C20.9201 36.9384 20.7859 36.9037 20.6976 36.9237L18.2744 37.4717C18.1869 37.4915 18.1772 37.5575 18.2527 37.6199L19.5709 38.7101C20.2347 39.2592 21.4066 39.5657 22.1762 39.3917C22.939 39.2192 23.0161 38.64 22.3484 38.098ZM15.6084 36.2834L16.874 37.4735C16.801 37.4024 16.7592 37.3239 16.7238 37.2208C16.6884 37.1178 16.6832 36.998 16.722 36.8967C16.7621 36.7921 16.8448 36.7162 16.9349 36.6705C17.0249 36.6248 17.123 36.6059 17.2198 36.5873C17.0978 36.472 16.9478 36.3976 16.792 36.3751C17.1145 36.2974 17.4369 36.2196 17.7595 36.1418C17.6952 36.0583 17.5964 36.0128 17.5006 36.0222C17.8069 35.8716 18.1244 35.741 18.4307 35.5903L15.6084 36.2834ZM28.9959 38.5051C28.8151 38.5051 28.6685 38.5763 28.6685 38.6642C28.6685 38.7521 28.8151 38.8233 28.9959 38.8233C29.1767 38.8233 29.3233 38.7521 29.3233 38.6642C29.3233 38.5763 29.1767 38.5051 28.9959 38.5051Z" fill="white"/>
<path d="M27.9399 38.9708C28.0769 38.9708 28.1879 38.9229 28.1879 38.8638C28.1879 38.8047 28.0769 38.7568 27.9399 38.7568C27.8029 38.7568 27.6919 38.8047 27.6919 38.8638C27.6919 38.9229 27.8029 38.9708 27.9399 38.9708Z" fill="white"/>
<path d="M28.1344 38.0143C28.2414 38.0143 28.3282 37.9582 28.3282 37.889C28.3282 37.8198 28.2414 37.7636 28.1344 37.7636C28.0273 37.7636 27.9405 37.8198 27.9405 37.889C27.9405 37.9582 28.0273 38.0143 28.1344 38.0143ZM29.0325 36.6331C28.9881 36.6506 28.9438 36.6681 28.8995 36.6856C29.0044 36.574 29.1371 36.4985 29.277 36.4709C29.2277 36.4633 29.1778 36.4607 29.1281 36.4632C29.3294 36.4118 29.5306 36.3605 29.7318 36.3092L29.8088 36.2653L28.5707 36.5237L28.9594 36.845C28.9737 36.7689 28.9936 36.6963 29.0325 36.6331ZM26.9244 37.0632L25.5733 35.9664C25.4961 35.9037 25.3619 35.869 25.2736 35.8889L22.8503 36.4369C22.7629 36.4567 22.7532 36.5228 22.8287 36.5852L24.1468 37.6754C24.8107 38.2245 25.9825 38.531 26.7522 38.357C27.515 38.1845 27.5921 37.6053 26.9244 37.0632ZM25.5644 37.3933C25.5219 37.3933 25.4875 37.3716 25.4875 37.3448C25.4875 37.3179 25.5219 37.2962 25.5644 37.2962C25.6068 37.2962 25.6412 37.3179 25.6412 37.3448C25.6412 37.3716 25.6068 37.3933 25.5644 37.3933ZM25.59 36.8449C25.5157 36.8449 25.4555 36.8038 25.4555 36.753C25.4555 36.7022 25.5157 36.6611 25.59 36.6611C25.6642 36.6611 25.7245 36.7022 25.7245 36.753C25.7245 36.8038 25.6642 36.8449 25.59 36.8449Z" fill="white"/>
<path d="M36.1851 7.50531L36.866 8.09564C36.7521 8.29462 36.636 8.47717 36.4606 8.5556C27.1384 13.0229 25.0574 12.5677 23.3473 17.3749C23.0553 18.1953 22.6621 19.0204 22.6051 19.9316C22.567 20.5185 22.7584 21.3495 23.1959 21.8027C23.363 21.9754 23.5655 22.0659 23.78 22.1152C23.6339 23.5383 24.7797 24.5691 26.0943 25.1347C26.0874 26.1728 27.0251 27.7247 28.1885 27.9612C25.864 30.7914 24.7515 32.5836 24.6805 32.6841C24.2811 32.671 23.8791 32.6599 23.4744 32.6599C15.9544 32.6599 9.85442 34.9899 9.85442 37.8599C9.85442 37.9984 9.88078 38.1343 9.90868 38.2701L9.91228 39.0057C7.83238 39.9927 6.68053 41.1683 6.54942 42.4393C6.46501 42.6295 6.53622 41.96 6.52989 47.4609C6.5338 48.1386 6.92247 48.7363 7.52013 48.9843C12.5543 51.0751 18.0299 52.1191 23.4742 52.1191C28.9957 52.1191 34.484 51.0449 39.444 48.8984C40.0367 48.6406 40.4225 48.0449 40.4274 47.3788V42.6826C40.4274 41.3112 39.1998 40.0176 36.9562 38.9672L36.9585 38.5551C37.0387 38.3271 37.0944 38.0962 37.0944 37.8599C37.0944 35.7775 33.8694 33.975 29.2214 33.1478C30.6585 31.9376 32.0105 30.3803 33.3833 28.8317C35.8969 28.4739 38.7272 28.4634 40.5094 26.8183C41.5928 25.8216 42.139 24.4571 42.7027 23.1015C43.2749 21.7264 43.9837 20.2859 44.4606 18.8173C44.8598 17.5925 45.3531 16.6865 45.9755 15.9938L46.3289 16.3002L49.4923 13.3701L38.4391 3.88086L36.1851 7.50531ZM38.0263 7.96979C38.1622 8.30587 37.8614 8.42792 37.7254 8.09149C37.5895 7.75532 37.8902 7.6334 38.0263 7.96979ZM11.3975 36.6011C11.8395 36.2053 12.3868 36.0128 12.9208 35.8279C12.269 36.2631 11.8739 37.2151 11.9662 38.0853C11.7809 37.9792 11.5956 37.8732 11.4103 37.7672C11.4373 39.0034 12.8488 39.5865 14.5701 40.906C13.7453 40.639 12.9383 40.297 12.159 39.8839C11.4715 39.5195 10.8601 39.0769 10.7359 38.2864C10.6354 37.6467 10.9555 36.9969 11.3975 36.6011ZM36.4537 39.4349L36.444 41.1972C36.442 41.6025 36.2379 41.9619 35.9264 42.1122C28.1988 45.8447 18.86 45.8828 10.9391 42.2119C10.6275 42.0673 10.4254 41.707 10.4234 41.2939L10.4139 39.3267C12.0745 41.4827 17.2901 43.0599 23.4744 43.0599C29.5554 43.0599 34.7045 41.5356 36.4537 39.4349ZM39.9274 47.3769C39.9244 47.8437 39.6559 48.2607 39.2447 48.4394C29.5143 52.6503 17.7272 52.6806 7.71153 48.5234C7.29942 48.3525 7.03185 47.9345 7.02989 47.4589L7.01744 44.1499C8.80382 46.8311 15.3837 48.7704 23.4742 48.7704C31.5594 48.7704 38.1358 46.8337 39.9274 44.1552V47.3769ZM39.9274 42.6826C39.9274 45.7119 32.3932 48.2704 23.4742 48.2704C14.5553 48.2704 7.0211 45.7119 7.0211 42.6826C7.0211 41.5801 8.04387 40.4847 9.91496 39.5545L9.92345 41.2958C9.9254 41.9023 10.2418 42.4404 10.7291 42.665C14.7184 44.5146 19.0611 45.4384 23.3854 45.4384C27.7906 45.4384 32.1764 44.4794 36.1432 42.5634C36.6266 42.33 36.94 41.7949 36.944 41.1992L36.9532 39.5198C38.8738 40.4561 39.9274 41.5524 39.9274 42.6826ZM29.2482 35.4642L27.7121 35.8262C27.8151 35.9109 28.538 36.505 28.4349 36.4203L29.9904 36.0685C30.0843 36.0473 30.2271 36.0842 30.3093 36.1509L30.9615 36.6804C31.0431 36.7467 31.0345 36.8176 30.9421 36.8394L29.3654 37.2109C29.915 37.7108 30.3644 38.2302 30.4844 38.7199C30.6644 39.4199 30.0944 39.9899 29.0544 40.1499C28.0744 40.3099 26.7244 40.0899 25.5844 39.6199C25.5244 39.5899 25.4644 39.6099 25.4944 39.6499C25.7244 39.9199 25.7344 40.1799 25.6844 40.4299C25.5344 41.1599 24.4544 41.5999 23.0444 41.5199C21.6344 41.4499 19.9944 40.8399 19.0144 40.0499L18.9544 39.9999L18.9515 39.9974L17.3624 40.3419C17.2944 40.3566 17.1921 40.33 17.133 40.282L16.3988 39.686C16.3393 39.6377 16.3462 39.5861 16.4142 39.5707L18.0055 39.2109L18.0044 39.2099L17.2986 38.6134L15.671 38.9662C15.602 38.9812 15.498 38.9535 15.4395 38.9046L14.7221 38.3047C14.6648 38.2568 14.6726 38.2064 14.7395 38.1913L16.3603 37.8248L16.3544 37.8199L14.5844 36.3399C14.5644 36.3199 14.5644 36.2999 14.5944 36.2899L24.2554 34.1061C24.2569 34.1235 24.2713 34.1907 24.275 34.2101C24.3948 34.8622 24.8134 35.1835 25.3893 35.1835C25.6578 35.1835 26.1756 35.0411 26.4283 34.9413C26.4704 34.9243 26.5107 34.9036 26.5524 34.8853L26.7444 35.0399L26.7488 35.0434L28.2965 34.6934C28.3904 34.6722 28.5332 34.7091 28.6154 34.7758L29.2677 35.3053C29.3493 35.3716 29.3406 35.4424 29.2482 35.4642ZM43.9859 18.663C43.6438 19.7133 43.1655 20.7964 42.1744 23.0712C40.3172 27.5292 39.0902 27.6172 33.8692 28.2673C34.3327 27.7435 35.8514 26.004 35.7545 26.1152C36.2308 25.7204 37.8481 25.5918 38.2809 24.4648C38.3795 24.2011 38.4049 23.8388 38.1793 23.6122C37.8581 23.2858 37.3118 23.474 37.0339 23.8255C37.0331 23.8264 37.0317 23.8262 37.0309 23.8271C35.4993 25.6639 31.4274 30.3943 29.7235 32.0269C28.7744 32.9354 26.7842 34.533 25.5309 34.6722C25.5249 34.6729 25.5195 34.6731 25.5135 34.6736C25.2582 34.699 25.0055 34.6581 24.8681 34.4247C24.5517 33.886 24.9469 33.159 25.2994 32.6415C27.1402 29.9277 29.2867 27.2841 32.0553 24.3203C32.15 24.2187 32.1441 24.0605 32.0436 23.9667C31.942 23.873 31.7848 23.8759 31.69 23.9785C30.5505 25.1987 29.5198 26.364 28.5672 27.504C28.5617 27.5047 28.5579 27.4998 28.5524 27.5009C27.7101 27.6528 26.491 26.024 26.6025 25.0377L27.3736 23.2656C27.4283 23.1386 27.3707 22.9921 27.2438 22.9365C27.1168 22.8828 26.9693 22.9384 26.9147 23.0663L26.227 24.6466C25.6543 24.3986 25.0591 24.0136 24.6803 23.5117C24.3209 23.04 24.1764 22.4658 24.2945 21.9745C24.2951 21.9722 24.293 21.9703 24.2935 21.968C24.3146 21.8678 24.6911 20.2651 24.6705 20.3652C24.7027 20.2314 24.6188 20.0966 24.484 20.0654C24.3522 20.0302 24.2154 20.1181 24.1842 20.2519L23.8608 21.6316C23.2936 21.4717 23.0676 20.5277 23.1031 19.9628C23.156 19.1358 23.5439 18.3179 23.818 17.5429C25.4267 13.0312 27.1751 13.5222 36.6656 9.01263C36.9451 8.88678 37.1149 8.6604 37.2528 8.43103L45.5976 15.6661C44.9306 16.4106 44.4053 17.3734 43.9859 18.663ZM44.3414 9.71478C44.3956 9.67572 44.5601 9.83124 44.5951 9.86072C44.6311 9.89105 48.0186 12.8831 48.0539 12.9143C48.2303 13.07 48.4212 13.2427 48.3053 13.5012C48.1947 13.7478 47.9156 13.8867 47.7221 14.0586C46.736 14.935 46.911 14.7781 46.811 14.8682C46.7648 14.9097 46.6905 15.0168 46.6257 15.0239C46.4424 15.0441 46.6505 14.9077 46.6185 14.2708C46.6149 14.2 46.5373 13.9723 46.6291 13.9427C46.7142 13.9154 46.8904 14.2066 46.883 14.2643C46.9645 13.6292 46.6874 13.007 46.3905 12.4396C45.9672 11.6307 45.9447 11.7036 44.4575 9.96222C44.4239 9.92285 44.2848 9.77924 44.3414 9.71478ZM38.7704 8.37439C38.8361 8.53699 38.6855 8.59746 38.6199 8.43524C38.5925 8.36749 38.7044 8.21167 38.7704 8.37439ZM38.497 7.7157C38.4054 7.75282 38.2964 7.48353 38.3881 7.44653C38.4798 7.40941 38.5887 7.6787 38.497 7.7157Z" fill="white"/>
<path d="M42.7411 15.0998C43.063 15.7297 43.2215 16.4664 43.0533 17.1534C43.0677 17.0947 42.9335 16.8657 42.8645 16.8824C42.7975 16.8986 42.7701 17.0564 42.7579 17.108C42.6815 17.431 42.7811 17.4853 42.5523 18.1533C42.5096 18.2779 42.3875 18.4553 42.3785 18.5824C42.3848 18.4935 42.3397 18.0423 42.1731 18.1001C42.0348 18.148 42.139 18.3552 42.0581 19.2659C41.9864 20.0707 41.9052 20.1354 41.9086 20.2884C41.9138 20.5178 42.0807 20.3172 42.1273 20.2286C44.1596 16.3591 44.3941 16.1284 44.3118 15.7369C44.2692 15.5337 44.1646 15.4926 44.0148 15.3747C43.7687 15.1809 43.5344 14.9694 43.2949 14.7673C42.8131 14.3608 42.3312 13.9543 41.8494 13.5478C41.7526 13.4661 41.6557 13.3844 41.5589 13.3027C41.4746 13.3379 41.5118 13.1889 41.4249 13.2169C41.3444 13.2428 41.3917 13.3648 41.4507 13.4254C41.9442 13.9322 42.4193 14.4698 42.7411 15.0998ZM26.5784 16.3232C26.526 16.1938 26.3787 16.1313 26.2493 16.1836C26.1198 16.236 26.0574 16.3834 26.1097 16.5127C26.162 16.6421 26.3094 16.7046 26.4388 16.6523C26.5682 16.6 26.6307 16.4526 26.5784 16.3232ZM26.8094 17.4902C26.5358 17.6008 26.3841 17.8637 26.4705 18.0773C26.5569 18.2908 26.8487 18.3743 27.1223 18.2636C27.3958 18.1529 27.5475 17.8901 27.4611 17.6766C27.3748 17.4629 27.0829 17.3795 26.8094 17.4902ZM27.2983 16.4647C27.2321 16.5354 27.2549 16.6642 27.3491 16.7526C27.4434 16.8409 27.5735 16.8552 27.6396 16.7845C27.7058 16.7139 27.683 16.5851 27.5888 16.4968C27.4945 16.4084 27.3644 16.3941 27.2983 16.4647ZM17.9296 29.718C17.7674 28.1782 17.2395 26.7817 16.5139 25.4643C15.7577 24.1683 14.7877 22.9675 13.462 22.1569C14.0176 23.6022 14.726 24.8268 15.4156 26.0874C16.1396 27.326 16.8561 28.5938 17.9296 29.718ZM14.3058 30.1464C14.9804 30.6195 15.7626 30.8105 16.5353 30.516C15.8834 29.2792 14.8126 29.1186 14.214 28.8359C13.3331 28.4592 12.4275 28.1557 11.4802 27.9051C12.5748 29.0441 13.6514 29.5603 14.3058 30.1464ZM20.019 29.2958C20.2841 28.7632 20.314 28.3413 20.2744 27.9274C20.2499 27.5106 20.0469 27.1721 19.9343 26.7179C19.6915 25.8914 19.3791 25.0911 18.9932 24.2928C18.7725 25.704 19.0144 26.7892 18.9601 27.5405C19.0037 28.3173 19.3487 28.9518 20.019 29.2958ZM9.54748 44.0555C8.69006 43.6256 8.17395 42.7798 7.97613 41.8412C7.43195 42.4308 7.53375 43.412 8.00207 44.0635C8.47034 44.715 9.21332 45.1056 9.94458 45.4357C12.726 46.6912 14.7439 46.9849 14.8439 47.0117C12.6572 46.4975 10.5916 45.4754 8.85626 44.0489C9.08667 44.0511 9.31708 44.0533 9.54748 44.0555ZM38.0991 42.8469C38.377 42.8469 38.6024 42.7278 38.6024 42.5809C38.6024 42.4341 38.377 42.3151 38.0991 42.3151C37.8211 42.3151 37.5958 42.4341 37.5958 42.5809C37.5958 42.7278 37.8211 42.8469 38.0991 42.8469ZM37.6907 43.9294C37.6907 43.9819 37.8098 44.0243 37.9566 44.0243C38.1035 44.0243 38.2225 43.9819 38.2225 43.9294C38.2225 43.8769 38.1035 43.8345 37.9566 43.8345C37.8098 43.8345 37.6907 43.8769 37.6907 43.9294ZM36.0384 44.0243C35.8286 44.0243 35.6585 44.1052 35.6585 44.2048C35.6585 44.3044 35.8286 44.3852 36.0384 44.3852C36.2482 44.3852 36.4182 44.3044 36.4182 44.2048C36.4182 44.1052 36.2482 44.0243 36.0384 44.0243Z" fill="white"/>
</svg>
