<svg xmlns="http://www.w3.org/2000/svg" enable-background="new 0 0 512 512" viewBox="0 0 512 512"><path d="M255.997,16.002c-132.55,0-240,107.45-240,240c0,132.55,107.45,240,240,240s240-107.45,240-240
				C495.997,123.452,388.547,16.002,255.997,16.002z M383.557,257.522c-0.04,0.3-0.1,0.59-0.17,0.87c-0.4,1.64-1.21,3.12-2.31,4.33
				c-0.11,0.12-0.22,0.24-0.33,0.35l-0.17,0.17l-88.96,84.77c-1.94,1.84-4.42,2.76-6.9,2.76c-2.64,0-5.27-1.04-7.24-3.1
				c-3.81-4-3.66-10.33,0.34-14.14l70.87-67.53h-210.36c-5.52,0-10-4.48-10-10c0-5.52,4.48-10,10-10h210.36l-70.87-67.53
				c-4-3.81-4.15-10.14-0.34-14.14s10.14-4.15,14.14-0.34l88.96,84.77c0.06,0.06,0.12,0.11,0.17,0.17c0.11,0.11,0.22,0.23,0.33,0.35
				c1.1,1.21,1.91,2.69,2.31,4.33c0.07,0.28,0.13,0.57,0.17,0.87c0.08,0.49,0.12,1,0.12,1.52
				C383.677,256.522,383.637,257.032,383.557,257.522z"/></svg>