<svg width="40" height="40" viewBox="0 0 40 40" fill="none" xmlns="http://www.w3.org/2000/svg">
<path d="M18.0999 5.69993C18.0999 4.65059 18.9506 3.79993 19.9999 3.79993C21.0493 3.79993 21.8999 4.65059 21.8999 5.69993V14.2499C21.8999 15.2992 21.0493 16.1499 19.9999 16.1499C18.9506 16.1499 18.0999 15.2992 18.0999 14.2499V5.69993Z" fill="#F6944D"/>
<path opacity="0.4" d="M1 18.9997C1 17.9504 1.85066 17.0997 2.9 17.0997H4.8V28.4997H2.9C1.85066 28.4997 1 27.649 1 26.5997V18.9997Z" fill="#FC9F5C"/>
<path opacity="0.4" d="M39 26.5998C39 27.6491 38.1493 28.4998 37.1 28.4998L35.2 28.4998L35.2 17.0998L37.1 17.0998C38.1493 17.0998 39 17.9505 39 18.9998L39 26.5998Z" fill="#FC9F5C"/>
<path fill-rule="evenodd" clip-rule="evenodd" d="M10.5 9.49976C8.40133 9.49976 6.70001 11.2011 6.70001 13.2998V30.3997C6.70001 32.4984 8.40133 34.1997 10.5 34.1997H29.5C31.5987 34.1997 33.3 32.4984 33.3 30.3997V13.2997C33.3 11.2011 31.5987 9.49976 29.5 9.49976H10.5ZM14.1961 20.692C15.4503 20.692 16.4671 19.6752 16.4671 18.4209C16.4671 17.1666 15.4503 16.1498 14.1961 16.1498C12.9418 16.1498 11.925 17.1666 11.925 18.4209C11.925 19.6752 12.9418 20.692 14.1961 20.692ZM25.8038 20.692C27.0581 20.692 28.0749 19.6752 28.0749 18.4209C28.0749 17.1666 27.0581 16.1498 25.8038 16.1498C24.5495 16.1498 23.5327 17.1666 23.5327 18.4209C23.5327 19.6752 24.5495 20.692 25.8038 20.692ZM25.8664 25.6987C22.3704 28.612 17.6532 28.612 14.1572 25.6987L15.7727 23.7601C18.3329 25.8937 21.6907 25.8937 24.2509 23.7601L25.8664 25.6987Z" fill="#F6944D"/>
</svg>
