<svg width="24" height="24" viewBox="0 0 24 24" fill="none" xmlns="http://www.w3.org/2000/svg">
<path fill-rule="evenodd" clip-rule="evenodd" d="M9.15556 5C6.8605 5 5 6.8605 5 9.15556V12.48C5 14.5149 6.46269 16.2083 8.39406 16.566C8.75174 18.4974 10.4451 19.96 12.48 19.96H15.8044C18.0995 19.96 19.96 18.0995 19.96 15.8044V12.48C19.96 10.4451 18.4974 8.75174 16.566 8.39406C16.2083 6.46269 14.5149 5 12.48 5H9.15556ZM14.8315 8.32444C14.4892 7.35604 13.5657 6.66222 12.48 6.66222H9.15556C7.77853 6.66222 6.66222 7.77853 6.66222 9.15556V12.48C6.66222 13.5657 7.35603 14.4892 8.32444 14.8315V12.48C8.32444 10.1849 10.1849 8.32444 12.48 8.32444H14.8315ZM9.98667 12.48C9.98667 11.103 11.103 9.98667 12.48 9.98667H15.8044C17.1814 9.98667 18.2978 11.103 18.2978 12.48V15.8044C18.2978 17.1814 17.1814 18.2978 15.8044 18.2978H12.48C11.103 18.2978 9.98667 17.1814 9.98667 15.8044V12.48Z" fill="#868E96"/>
</svg>
