<svg width="30" height="30" viewBox="0 0 30 30" fill="none" xmlns="http://www.w3.org/2000/svg">
<g clip-path="url(#clip0_10809_152787)">
<path fill-rule="evenodd" clip-rule="evenodd" d="M17.1433 2.16957C16.7348 -0.245324 13.2652 -0.245324 12.8567 2.16957C12.564 3.90022 10.4467 4.58816 9.19258 3.36012C7.44265 1.64655 4.63572 3.6859 5.72466 5.87971C6.50506 7.45192 5.19651 9.25298 3.46011 8.99661C1.03717 8.63889 -0.034986 11.9386 2.13548 13.0734C3.69095 13.8866 3.69095 16.1128 2.13548 16.9261C-0.034987 18.0608 1.03717 21.3606 3.4601 21.0028C5.19651 20.7465 6.50506 22.5475 5.72466 24.1197C4.63572 26.3136 7.44265 28.3529 9.19258 26.6393C10.4467 25.4113 12.564 26.0992 12.8567 27.8299C13.2652 30.2448 16.7348 30.2448 17.1433 27.8299C17.4361 26.0992 19.5533 25.4113 20.8074 26.6393C22.5574 28.3529 25.3643 26.3136 24.2753 24.1197C23.495 22.5475 24.8035 20.7465 26.5399 21.0028C28.9628 21.3606 30.035 18.0608 27.8645 16.9261C26.3091 16.1128 26.3091 13.8866 27.8645 13.0734C30.035 11.9386 28.9628 8.63889 26.5399 8.99661C24.8035 9.25298 23.495 7.45192 24.2753 5.87971C25.3643 3.6859 22.5574 1.64655 20.8074 3.36012C19.5533 4.58816 17.4361 3.90022 17.1433 2.16957ZM8.20826 13.4162C8.24134 13.4162 8.27406 13.4147 8.30638 13.4118C8.28934 13.6083 8.38845 13.9434 8.54121 14.4599L9.62551 18.1263C9.68674 18.3333 9.71735 18.4368 9.79721 18.4964C9.87707 18.5561 9.98501 18.5561 10.2009 18.5561H14.4668H15.5879H19.8538C20.0697 18.5561 20.1776 18.5561 20.2575 18.4964C20.3374 18.4368 20.368 18.3333 20.4292 18.1263L21.5135 14.4599C21.6653 13.9465 21.7642 13.6123 21.7486 13.4154C21.7631 13.4159 21.7776 13.4162 21.7922 13.4162C22.3905 13.4162 22.8755 12.9312 22.8755 12.333C22.8755 11.7347 22.3905 11.2497 21.7922 11.2497C21.194 11.2497 20.709 11.7347 20.709 12.333C20.709 12.7499 20.9446 13.1118 21.2899 13.2929C21.1139 13.3936 20.8822 13.5735 20.5701 13.8159L18.336 15.551C18.0626 15.7634 17.9259 15.8696 17.7857 15.8359C17.6454 15.8022 17.5719 15.6455 17.4248 15.3321L15.5773 11.3955C15.5544 11.3465 15.5326 11.3 15.5117 11.2559C15.8706 11.0795 16.1177 10.7102 16.1177 10.2832C16.1177 9.68493 15.6327 9.19994 15.0344 9.19994C14.4362 9.19994 13.9512 9.68493 13.9512 10.2832C13.9512 10.71 14.198 11.0792 14.5568 11.2557C14.5359 11.2999 14.514 11.3465 14.491 11.3955L12.6399 15.3399C12.4928 15.6533 12.4193 15.81 12.2791 15.8437C12.1389 15.8774 12.0021 15.7712 11.7287 15.5588L9.4846 13.8159C9.15645 13.561 8.91718 13.3752 8.7381 13.278C9.06838 13.0925 9.29152 12.7388 9.29152 12.333C9.29152 11.7347 8.80653 11.2497 8.20826 11.2497C7.61 11.2497 7.12501 11.7347 7.12501 12.333C7.12501 12.9312 7.61 13.4162 8.20826 13.4162ZM10.05 19.5427C9.88432 19.5427 9.75001 19.677 9.75001 19.8427V20.9175C9.75001 21.0832 9.88432 21.2175 10.05 21.2175H20.005C20.1707 21.2175 20.305 21.0832 20.305 20.9175V19.8427C20.305 19.677 20.1707 19.5427 20.005 19.5427H10.05Z" fill="#FFC21C"/>
</g>
<defs>
<clipPath id="clip0_10809_152787">
<rect width="30" height="30" fill="white"/>
</clipPath>
</defs>
</svg>
