<svg width="100" height="100" viewBox="0 0 100 100" fill="none" xmlns="http://www.w3.org/2000/svg">
<path fill-rule="evenodd" clip-rule="evenodd" d="M80.1168 56.7399C81.2559 55.8499 82.7008 55.4467 84.1362 55.6183C85.5715 55.7899 86.8806 56.5224 87.7778 57.6559H87.8218C88.7202 58.794 89.1306 60.2421 88.9628 61.6824C88.795 63.1227 88.0628 64.4377 86.9268 65.3389L68.2218 80.1149C65.8816 81.9663 62.9777 82.9602 59.9938 82.9309L55.0608 82.8869L37.2508 82.7339C36.9228 82.7339 36.5958 82.5809 36.3998 82.3189L21.6888 63.7019C21.2958 63.2429 21.3828 62.5449 21.8628 62.1739L29.4368 56.2149C31.7388 54.4035 34.5835 53.4197 37.5128 53.4219H60.1898C61.6367 53.4224 63.0243 53.9974 64.0475 55.0204C65.0708 56.0435 65.646 57.4309 65.6468 58.8779C65.6468 61.8899 63.2018 64.3559 60.1898 64.3559H50.9138C50.1903 64.3564 49.4965 64.6441 48.985 65.1558C48.4735 65.6675 48.1861 66.3614 48.1858 67.0849C48.1863 67.4419 48.2574 67.7954 48.3949 68.1249C48.5325 68.4544 48.7338 68.7535 48.9873 69.0049C49.2408 69.2564 49.5415 69.4553 49.8721 69.5902C50.2027 69.725 50.5567 69.7933 50.9138 69.7909H61.9798C62.9398 69.7909 63.8998 69.4639 64.6638 68.8529L80.1168 56.7389V56.7399ZM15.8398 66.9099C15.9513 66.8203 16.0795 66.7538 16.2169 66.7141C16.3543 66.6744 16.4982 66.6624 16.6403 66.6786C16.7824 66.6949 16.9198 66.7392 17.0447 66.8089C17.1696 66.8786 17.2794 66.9724 17.3678 67.0849L31.7298 85.2649C31.8195 85.3764 31.8862 85.5047 31.9259 85.6422C31.9657 85.7797 31.9778 85.9237 31.9615 86.0659C31.9453 86.2081 31.9009 86.3457 31.8311 86.4707C31.7613 86.5956 31.6674 86.7055 31.5548 86.7939L28.1278 89.4999C28.0163 89.5894 27.8881 89.656 27.7507 89.6956C27.6133 89.7353 27.4694 89.7474 27.3273 89.7311C27.1852 89.7149 27.0477 89.6706 26.9229 89.6008C26.798 89.5311 26.6882 89.4373 26.5998 89.3249L12.2378 71.1449C12.1483 71.0333 12.0817 70.9052 12.042 70.7678C12.0023 70.6304 11.9903 70.4865 12.0065 70.3444C12.0228 70.2023 12.0671 70.0648 12.1368 69.9399C12.2066 69.8151 12.3004 69.7053 12.4128 69.6169L15.8398 66.9099Z" fill="url(#paint0_linear_195_274)"/>
<path d="M63.2648 11C52.7798 11 44.2808 19.31 44.2808 29.563C44.2808 39.815 52.7798 48.126 63.2648 48.126C73.7508 48.126 82.2498 39.816 82.2498 29.563C82.2498 19.31 73.7498 11 63.2648 11ZM61.7458 26.878L66.4628 29.248C68.8578 30.448 70.1288 32.933 69.6908 35.546C69.3258 37.802 67.7478 39.558 65.6008 40.201V41.529C65.6008 42.514 64.7838 43.313 63.7758 43.313C62.7688 43.313 61.9508 42.513 61.9508 41.528V40.286C59.6428 39.786 57.6718 38.259 56.6938 36.06C56.2838 35.16 56.7078 34.103 57.6428 33.718C58.5628 33.318 59.6428 33.746 60.0378 34.646C60.7098 36.146 62.2718 37.045 63.9218 36.902C63.9948 36.902 64.0818 36.888 64.1708 36.874C65.6888 36.631 66.0108 35.36 66.0838 34.974C66.2298 34.118 65.9518 33.004 64.7838 32.419L60.0668 30.049C57.6428 28.834 56.3568 26.25 56.8688 23.623C57.3648 21.067 59.3508 19.225 61.9508 18.868V17.583C61.9508 16.597 62.7688 15.798 63.7758 15.798C64.7838 15.798 65.6018 16.598 65.6018 17.583V19.296C67.4708 19.982 69.0038 21.366 69.8218 23.209C70.2308 24.109 69.8078 25.165 68.8718 25.55C67.9518 25.936 66.8718 25.522 66.4778 24.622C66.147 23.8873 65.5944 23.2746 64.8976 22.87C64.2008 22.4654 63.3948 22.2891 62.5928 22.366C60.9138 22.537 60.5338 23.866 60.4608 24.266C60.3008 25.122 60.5488 26.264 61.7458 26.864V26.878Z" fill="url(#paint1_linear_195_274)"/>
<defs>
<linearGradient id="paint0_linear_195_274" x1="50.4998" y1="53.4219" x2="50.4998" y2="89.7379" gradientUnits="userSpaceOnUse">
<stop stop-color="#5A27D1"/>
<stop offset="1" stop-color="#8966E1"/>
</linearGradient>
<linearGradient id="paint1_linear_195_274" x1="63.2648" y1="11" x2="63.2648" y2="48.126" gradientUnits="userSpaceOnUse">
<stop stop-color="#6EC47C"/>
<stop offset="1" stop-color="#99E3A6"/>
</linearGradient>
</defs>
</svg>
