<svg width="56" height="56" viewBox="0 0 56 56" fill="none" xmlns="http://www.w3.org/2000/svg">
<path d="M37.7362 20.2547C37.3225 20.9181 36.9261 21.6003 36.5124 22.2637C36.5646 22.1403 36.7153 22.0684 36.844 22.1055C36.9727 22.1426 37.062 22.2838 37.0404 22.416C37.0243 22.5144 36.9573 22.5959 36.8917 22.6711C36.3328 23.312 35.6511 24.0477 34.9521 24.532H37.7362V20.2547ZM34.3961 11.1311C34.5231 11.1311 34.6262 11.0281 34.6262 10.901C34.6262 10.7739 34.5231 10.6709 34.3961 10.6709C34.269 10.6709 34.166 10.7739 34.166 10.901C34.166 11.0281 34.269 11.1311 34.3961 11.1311Z" fill="black"/>
<path d="M35.2362 10.195C35.3936 10.195 35.5212 10.0674 35.5212 9.91C35.5212 9.7526 35.3936 9.625 35.2362 9.625C35.0788 9.625 34.9512 9.7526 34.9512 9.91C34.9512 10.0674 35.0788 10.195 35.2362 10.195Z" fill="black"/>
<path d="M35.8207 11.8132C35.9859 11.8132 36.1198 11.6792 36.1198 11.514C36.1198 11.3488 35.9859 11.2148 35.8207 11.2148C35.6555 11.2148 35.5215 11.3488 35.5215 11.514C35.5215 11.6792 35.6555 11.8132 35.8207 11.8132Z" fill="black"/>
<path d="M19.6588 48.8348C22.3855 49.0892 25.0358 48.6429 27.4902 47.5539C33.1359 48.3053 45.3893 48.7047 50.717 47.4643C51.2736 47.3247 51.6984 46.8852 51.7844 46.3637C51.8117 46.289 51.8117 46.2221 51.8117 46.1816L51.8899 39.6284C51.89 39.6135 51.8769 39.6044 51.8746 39.5902C51.8765 39.5632 51.8899 39.5385 51.8899 39.5112L51.969 34.5356L51.9873 33.9085C51.9896 33.8928 52 33.8767 52 33.861C52 32.6324 45.8885 31.5553 38.3452 31.4341H36.5415C36.2853 29.4643 35.6609 27.6064 34.6795 25.8964H38.2981C38.7473 25.8964 39.1125 25.5307 39.1125 25.081V19.7031C39.1125 19.5292 39.2541 19.3876 39.4279 19.3876H42.5666C43.2071 19.3876 43.6028 18.6703 43.2395 18.1328L36.2356 7.45551C35.9118 6.96981 35.1963 6.97744 34.8791 7.4687L27.967 18.1337C27.6225 18.6671 27.9911 19.3876 28.6516 19.3876H31.8606C32.0285 19.3876 32.1701 19.5234 32.175 19.6889L32.2504 22.6866C28.2164 18.5947 22.1801 16.9893 16.5144 18.7474C8.751 20.171 3.25985 27.3054 4.08132 35.2523C4.91262 43.1951 11.7624 49.0477 19.6588 48.8348ZM51.2942 46.2622C51.2483 46.5981 50.968 46.8862 50.5998 46.978C46.0037 48.0492 34.9983 47.9392 28.331 47.1528C30.1888 46.1898 31.8512 44.8577 33.2131 43.1904C33.6384 42.6696 34.0121 42.1206 34.3619 41.5599C39.305 41.9211 45.9449 41.9114 50.7893 40.7748C51.0175 40.724 51.2103 40.6107 51.3806 40.4751L51.3186 46.1845C51.3068 46.2089 51.2981 46.2353 51.2942 46.2622ZM46.9854 34.5571C47.2096 34.481 47.4348 34.3945 47.6224 34.2473C47.81 34.1002 47.9577 33.8829 47.9735 33.6409C47.7617 33.7033 47.5499 33.7658 47.3381 33.8283C47.4934 33.4059 47.2608 32.8544 46.8889 32.614C47.5755 32.7377 48.262 32.8615 48.9486 32.9852C49.3153 33.0513 49.7635 33.1993 49.8131 33.5785C49.8396 33.7806 49.7285 33.9813 49.5747 34.1101C49.1252 34.4869 45.9986 35.4159 42.7409 35.0291C43.5335 35.005 44.9811 35.2362 46.9854 34.5571ZM51.3061 34.5285C51.3706 34.4997 51.4221 34.4683 51.4783 34.4378L51.3899 39.5073C51.3899 39.8676 51.091 40.1953 50.677 40.2875C46.7249 41.2151 40.7567 41.5029 34.6505 41.0765C35.5885 39.4439 36.2094 37.6717 36.4956 35.8274C37.0883 35.8609 37.6808 35.8804 38.2862 35.8937C44.3386 35.9695 49.5052 35.3931 51.3061 34.5285ZM37.4583 33.1014C37.6427 33.1014 37.7923 33.1368 37.7923 33.1805C37.7923 33.2243 37.6427 33.2597 37.4583 33.2597C37.2738 33.2597 37.1244 33.2243 37.1244 33.1805C37.1244 33.1368 37.2738 33.1014 37.4583 33.1014ZM36.9188 32.3446C36.9188 32.3919 36.8009 32.4305 36.6412 32.4439C36.6367 32.3774 36.6356 32.3112 36.6303 32.2447C36.7954 32.2573 36.9188 32.2963 36.9188 32.3446ZM31.8606 18.8876H28.6516C28.3978 18.8876 28.2512 18.6166 28.3869 18.4057L35.299 7.74018C35.4212 7.5498 35.6955 7.54789 35.8186 7.73139L42.8234 18.4096C42.963 18.6167 42.8104 18.8876 42.5666 18.8876H39.4279C38.9787 18.8876 38.6125 19.2534 38.6125 19.7031V25.081C38.6125 25.2548 38.4719 25.3964 38.2981 25.3964H34.4035C33.925 24.6103 33.3742 23.871 32.7639 23.1957L32.675 19.6743C32.6613 19.2407 32.2951 18.8876 31.8606 18.8876ZM32.3303 23.4633C32.3305 23.4635 32.3301 23.4631 32.3303 23.4633C32.3305 23.4635 32.3311 23.4641 32.3313 23.4643C32.9758 24.1674 33.5529 24.9448 34.0471 25.7744C34.0475 25.7752 34.0484 25.7755 34.0489 25.7762C34.049 25.7764 34.0488 25.776 34.0489 25.7762C35.1944 27.6478 35.8879 29.7143 36.1115 31.9179C36.5246 35.8823 35.3576 39.7734 32.8254 42.874C27.5811 49.2963 18.1243 50.2639 11.6867 45.0751C8.5715 42.5634 6.62911 38.9941 6.217 35.0248C5.80392 31.059 6.96896 27.1679 9.49923 24.0688C15.3759 16.8692 26.2341 16.7421 32.3303 23.4633Z" fill="black"/>
<path d="M8.97952 34.7576C9.63968 41.0994 15.042 45.8294 21.3203 45.8294C28.6735 45.8294 34.4718 39.5116 33.709 32.1844C33.003 25.4075 26.8741 20.4632 20.0655 21.1805C16.7627 21.5242 13.791 23.1253 11.6973 25.6893C9.60355 28.2542 8.63773 31.4744 8.97952 34.7576ZM12.084 26.0057C14.0938 23.5447 16.9463 22.0076 20.1162 21.6776C20.5371 21.6341 20.9541 21.6126 21.3682 21.6126C27.3926 21.6126 32.5782 26.1512 33.211 32.2362C33.881 38.6682 29.2101 44.5733 22.5723 45.2645C16.0323 45.9466 10.1543 41.2093 9.47757 34.7059C9.14944 31.556 10.0752 28.4661 12.084 26.0057Z" fill="black"/>
<path d="M12.8769 27.4292C13.1067 27.4292 13.2929 27.2429 13.2929 27.0132C13.2929 26.7834 13.1067 26.5972 12.8769 26.5972C12.6472 26.5972 12.4609 26.7834 12.4609 27.0132C12.4609 27.2429 12.6472 27.4292 12.8769 27.4292Z" fill="black"/>
<path d="M11.7721 29.3611C11.9666 29.3611 12.1243 29.2034 12.1243 29.0089C12.1243 28.8144 11.9666 28.6567 11.7721 28.6567C11.5776 28.6567 11.4199 28.8144 11.4199 29.0089C11.4199 29.2034 11.5776 29.3611 11.7721 29.3611Z" fill="black"/>
<path d="M35.1911 43.509C35.2988 43.509 35.3861 43.3344 35.3861 43.119C35.3861 42.9036 35.2988 42.729 35.1911 42.729C35.0834 42.729 34.9961 42.9036 34.9961 43.119C34.9961 43.3344 35.0834 43.509 35.1911 43.509Z" fill="black"/>
<path d="M36.3196 43.9424C36.2359 43.9424 36.168 44.1122 36.168 44.3216C36.168 44.824 36.4713 44.8277 36.4713 44.3216C36.4713 44.1122 36.4034 43.9424 36.3196 43.9424Z" fill="black"/>
<path d="M34.7145 45.0912C34.7984 45.0912 34.8665 44.9847 34.8665 44.8532C34.8665 44.7218 34.7984 44.6152 34.7145 44.6152C34.6306 44.6152 34.5625 44.7218 34.5625 44.8532C34.5625 44.9847 34.6306 45.0912 34.7145 45.0912Z" fill="black"/>
<path d="M30.3453 28.1357C30.5751 29.6573 30.5509 31.1605 30.2399 32.6677C30.4853 32.5411 30.7307 32.4146 30.9762 32.288C30.8571 33.6687 30.3214 35.0107 29.4571 36.0938C29.7879 35.9789 30.1187 35.864 30.4495 35.749C29.9593 38.0517 28.7379 40.1931 27.0055 41.7872L27.5869 41.3044C31.9388 38.4181 33.1784 32.5341 30.3453 28.1357ZM15.9871 30.3264L19.5277 30.3873C19.6737 30.3898 19.793 30.531 19.7957 30.7047L19.8512 34.1449C19.8541 34.3281 19.7267 34.4739 19.5727 34.4636L16.5283 34.2579C16.0904 34.2283 15.726 34.6381 15.7268 35.1591V35.1738C15.7274 35.5492 15.9205 35.8921 16.2144 36.0349C17.3729 36.5976 18.4933 36.9101 19.5613 36.8786C19.7134 36.8741 19.8423 37.0145 19.844 37.1956L19.8863 41.8194C19.888 41.994 20.0076 42.1368 20.1545 42.1393L22.2014 42.1746C22.3493 42.1772 22.4688 42.0367 22.4686 41.861L22.4614 37.1453C22.4611 36.9636 22.5886 36.8242 22.7414 36.8335C23.8642 36.9017 24.9717 36.7384 26.0653 36.3673C26.3902 36.2571 26.6113 35.9021 26.6107 35.4986C26.6099 34.9928 26.2644 34.5768 25.839 34.5695L22.7622 34.5165C22.6156 34.514 22.4961 34.3717 22.4941 34.1974L22.4549 30.7596C22.4528 30.5825 22.5729 30.4397 22.722 30.4423L26.3354 30.5045C26.4832 30.5071 26.6029 30.3667 26.6026 30.1909L26.599 27.8081C26.5987 27.6324 26.4787 27.4878 26.3308 27.4853L15.9825 27.3071C15.8347 27.3045 15.715 27.4449 15.7153 27.6207L15.719 30.0035C15.7192 30.1793 15.8392 30.3238 15.9871 30.3264ZM25.9472 27.9232V29.8918C25.7636 29.3158 25.4292 28.8846 25.035 28.4263C25.0602 28.5791 25.0854 28.7318 25.1106 28.8846C24.7909 28.4197 24.3461 27.9232 23.7819 27.9232H25.9472ZM10.003 12.6012C10.0407 14.4147 10.0603 16.2555 10.391 18.1559C10.8706 16.3358 11.0388 14.4559 11.0293 12.5599C11.0017 10.6496 10.9467 8.98022 10.31 7.2832C10.1497 9.23236 10.0011 10.7745 10.003 12.6012ZM9.25283 14.0736C9.22536 12.1633 9.13552 12.2036 8.4988 10.5066C8.33852 12.4557 8.22475 12.2881 8.22658 14.1149C8.2643 15.9283 8.28384 17.7692 8.61452 19.6696C9.0942 17.8495 9.26247 15.9695 9.25283 14.0736ZM49.2464 27.6781C49.5686 25.7762 49.5799 23.9354 49.6095 22.1217C49.6032 20.295 49.4477 18.7535 49.2787 16.8051C48.6496 18.505 48.602 20.1746 48.5831 22.085C48.5819 23.981 48.7586 25.8602 49.2464 27.6781ZM51.3927 23.6274C51.3863 21.8007 51.2733 21.9688 51.1043 20.0204C50.4752 21.7202 50.3852 21.6803 50.3662 23.5907C50.3651 25.4866 50.5418 27.3658 51.0296 29.1838C51.3518 27.2819 51.363 25.441 51.3927 23.6274Z" fill="black"/>
</svg>
