<svg width="1600" height="1600" viewBox="0 0 1600 1600" fill="none" xmlns="http://www.w3.org/2000/svg">
<g clip-path="url(#clip0_221_623)">
<circle cx="1147.82" cy="782.608" r="34.7826" transform="rotate(90 1147.82 782.608)" fill="white"/>
<circle cx="1058.25" cy="1033.65" r="34.7826" transform="rotate(135 1058.25 1033.65)" fill="white"/>
<circle cx="817.39" cy="1147.82" r="34.7826" transform="rotate(180 817.39 1147.82)" fill="white"/>
<circle cx="566.346" cy="1058.25" r="34.7826" transform="rotate(-135 566.346 1058.25)" fill="white"/>
<circle cx="452.173" cy="817.39" r="34.7826" transform="rotate(-90 452.173 817.39)" fill="white"/>
<circle cx="541.752" cy="566.346" r="34.7826" transform="rotate(-45 541.752 566.346)" fill="white"/>
<circle cx="782.608" cy="452.173" r="34.7826" fill="white"/>
<circle cx="1033.65" cy="541.751" r="34.7826" transform="rotate(45 1033.65 541.751)" fill="white"/>
<circle cx="1181.22" cy="394.188" r="30.4347" transform="rotate(45 1181.22 394.188)" stroke="white" stroke-width="8.69564"/>
<circle cx="1307.5" cy="570.963" r="30.4347" transform="rotate(67.5 1307.5 570.963)" stroke="white" stroke-width="8.69564"/>
<circle cx="1356.52" cy="782.612" r="30.4347" transform="rotate(90 1356.52 782.612)" stroke="white" stroke-width="8.69564"/>
<circle cx="1320.81" cy="996.905" r="30.4347" transform="rotate(112.5 1320.81 996.905)" stroke="white" stroke-width="8.69564"/>
<circle cx="1205.82" cy="1181.22" r="30.4347" transform="rotate(135 1205.82 1181.22)" stroke="white" stroke-width="8.69564"/>
<circle cx="1029.04" cy="1307.5" r="30.4347" transform="rotate(157.5 1029.04 1307.5)" stroke="white" stroke-width="8.69564"/>
<circle cx="817.391" cy="1356.52" r="30.4347" transform="rotate(180 817.391 1356.52)" stroke="white" stroke-width="8.69564"/>
<circle cx="603.096" cy="1320.81" r="30.4347" transform="rotate(-157.5 603.096 1320.81)" stroke="white" stroke-width="8.69564"/>
<circle cx="418.776" cy="1205.82" r="30.4347" transform="rotate(-135 418.776 1205.82)" stroke="white" stroke-width="8.69564"/>
<circle cx="292.496" cy="1029.04" r="30.4347" transform="rotate(-112.5 292.496 1029.04)" stroke="white" stroke-width="8.69564"/>
<circle cx="243.478" cy="817.39" r="30.4347" transform="rotate(-90 243.478 817.39)" stroke="white" stroke-width="8.69564"/>
<circle cx="279.186" cy="603.097" r="30.4347" transform="rotate(-67.5 279.186 603.097)" stroke="white" stroke-width="8.69564"/>
<circle cx="394.181" cy="418.779" r="30.4347" transform="rotate(-45 394.181 418.779)" stroke="white" stroke-width="8.69564"/>
<circle cx="570.96" cy="292.499" r="30.4347" transform="rotate(-22.5 570.96 292.499)" stroke="white" stroke-width="8.69564"/>
<circle cx="782.608" cy="243.478" r="30.4347" stroke="white" stroke-width="8.69564"/>
<circle cx="996.904" cy="279.192" r="30.4347" transform="rotate(22.5 996.904 279.192)" stroke="white" stroke-width="8.69564"/>
<circle cx="1167.55" cy="128.611" r="34.7826" transform="rotate(30 1167.55 128.611)" fill="white"/>
<circle cx="1328.79" cy="246.613" r="34.7826" transform="rotate(45 1328.79 246.613)" fill="white"/>
<circle cx="1454" cy="402.328" r="34.7826" transform="rotate(60 1454 402.328)" fill="white"/>
<circle cx="1534.64" cy="585.148" r="34.7826" transform="rotate(75 1534.64 585.148)" fill="white"/>
<circle cx="1565.22" cy="782.608" r="34.7826" transform="rotate(90 1565.22 782.608)" fill="white"/>
<circle cx="1543.64" cy="981.251" r="34.7826" transform="rotate(105 1543.64 981.251)" fill="white"/>
<circle cx="1471.39" cy="1167.54" r="34.7826" transform="rotate(120 1471.39 1167.54)" fill="white"/>
<circle cx="1353.39" cy="1328.79" r="34.7826" transform="rotate(135 1353.39 1328.79)" fill="white"/>
<circle cx="1197.67" cy="1454" r="34.7826" transform="rotate(150 1197.67 1454)" fill="white"/>
<circle cx="1014.85" cy="1534.64" r="34.7826" transform="rotate(165 1014.85 1534.64)" fill="white"/>
<circle cx="817.392" cy="1565.22" r="34.7826" transform="rotate(180 817.392 1565.22)" fill="white"/>
<circle cx="618.747" cy="1543.64" r="34.7826" transform="rotate(-165 618.747 1543.64)" fill="white"/>
<circle cx="432.453" cy="1471.39" r="34.7826" transform="rotate(-150 432.453 1471.39)" fill="white"/>
<circle cx="271.207" cy="1353.39" r="34.7826" transform="rotate(-135 271.207 1353.39)" fill="white"/>
<circle cx="145.998" cy="1197.67" r="34.7826" transform="rotate(-120 145.998 1197.67)" fill="white"/>
<circle cx="65.3579" cy="1014.85" r="34.7826" transform="rotate(-105 65.3579 1014.85)" fill="white"/>
<circle cx="34.7826" cy="817.39" r="34.7826" transform="rotate(-90 34.7826 817.39)" fill="white"/>
<circle cx="56.3555" cy="618.747" r="34.7826" transform="rotate(-75 56.3555 618.747)" fill="white"/>
<circle cx="128.607" cy="432.453" r="34.7826" transform="rotate(-60 128.607 432.453)" fill="white"/>
<circle cx="246.611" cy="271.204" r="34.7826" transform="rotate(-45 246.611 271.204)" fill="white"/>
<circle cx="402.329" cy="145.998" r="34.7826" transform="rotate(-30 402.329 145.998)" fill="white"/>
<circle cx="585.147" cy="65.3557" r="34.7826" transform="rotate(-15 585.147 65.3557)" fill="white"/>
<circle cx="782.608" cy="34.7826" r="34.7826" fill="white"/>
<circle cx="981.257" cy="56.3566" r="34.7826" transform="rotate(15 981.257 56.3566)" fill="white"/>
</g>
<defs>
<clipPath id="clip0_221_623">
<rect width="1600" height="1600" fill="white"/>
</clipPath>
</defs>
</svg>
