<svg xmlns="http://www.w3.org/2000/svg" enable-background="new 0 0 69 69" viewBox="0 0 69 69"><path fill="#fff" d="M33.6,60.2L55,47.8c1-0.6,1.5-1.3,1.5-2.2c0-0.4,0-5.1,0-4.9c0-0.1,0.1-1.3-1.5-2.2l-4-2.3c0-0.7,0-3.6,0-3.5v0
		c0,0,0,0,0,0c0-0.7-0.4-1.4-1.2-1.8l-7.6-4.4c2.4-4.1,3.9-8.8,3.9-13c0-4.1-1.4-7.1-4-8.6c0,0,0,0,0,0c0,0,0,0,0,0l-3.4-2
		c-1.7-1-3.9-1.2-6.2-0.6c-8.8,2.4-17.2,15.4-16.3,25.3l-5.5,3.2c-0.8,0.5-1.2,1.1-1.2,1.8c0,1,0,3.6,0,3.5l-4,2.3
		c-1,0.6-1.5,1.3-1.5,2.2c0,0.9,0,5,0,4.9c0,0.9,0.5,1.6,1.5,2.2L27,60.2C28.8,61.2,31.7,61.3,33.6,60.2z M55.5,45.6
		c0,0.5-0.4,1-1,1.3L33.1,59.3c-0.6,0.4-1.5,0.6-2.4,0.6v-3.9c0.9,0,2.1-0.3,2.9-0.8L55,42.9c0,0,0,0,0,0c0.2-0.1,0.3-0.2,0.5-0.3
		L55.5,45.6z M13.4,36.1C28.9,45,27.1,44,27.7,44.3c0.7,0.4,1.5,0.5,2,0.6v5.2c-0.6-0.1-1.2-0.2-1.6-0.5l-14.7-8.5V36.1z M30.7,44.9
		c0.7,0,1.6-0.3,2.2-0.6l14.9-8.7v5l-15.4,9c-0.5,0.3-1.1,0.4-1.7,0.5V44.9z M45,13.5c0,7.9-5.6,17.6-12.5,21.6
		c-6.8,3.9-11.9,0.7-12-6.7c-0.1-8,5.5-17.8,12.5-21.8C39.6,2.8,45,5.7,45,13.5z M32.5,3.4l2.2,1.3c-9.1,3.4-16.8,17.1-15,26.4
		l-2.2-1.3C15,20.7,23.4,6.1,32.5,3.4z M11.2,31.7l5.2-3c0.5,3.2,2,5.1,3.8,6.1c0.1,0.1,3.5,2,3.4,2h0c0.1,0,3.6,2.6,9.6-0.9
		c3.3-1.9,6.2-5,8.5-8.6l7.6,4.4c1,0.6,1,1.3,0,1.9l-16.8,9.8c-1.1,0.7-3.1,0.7-4.3,0l-16.9-9.8C10.2,33.1,10.2,32.3,11.2,31.7z
		 M5.9,39.4l3.5-2l0,1.5c0,0.7,0.4,1.4,1.3,1.8l16.9,9.8c1.4,0.8,3.8,0.9,5.3,0l16.8-9.8c0.8-0.5,1.2-1.1,1.2-1.8l0-1.5l3.5,2
		c1.4,0.8,1.4,1.9,0,2.7L33.1,54.5c-1.5,0.9-4.1,0.9-5.6,0L5.9,42C4.6,41.3,4.5,40.2,5.9,39.4z M4.9,45.6l0-3
		c0.5,0.4-0.7-0.3,22.1,12.8c0,0,0,0,0,0c0.8,0.4,1.8,0.7,2.7,0.8V60c-0.8-0.1-1.6-0.3-2.2-0.6L5.9,46.9C5.3,46.5,4.9,46,4.9,45.6z" class="color000000 svgShape"/><path fill="#fff" d="M32.6,10.4c-5,2.9-9,9.9-9,15.6c0,5.9,4.3,8.4,9.4,5.4c5-2.9,9-9.9,9-15.6C42,9.9,37.7,7.4,32.6,10.4z M32.6,30.7
		c-4.6,2.7-8.3,0.6-8.3-4.7c0-5.5,3.9-12.2,8.6-14.9c4.6-2.7,8.3-0.6,8.3,4.7C41.3,21.2,37.4,27.9,32.6,30.7z" class="color000000 svgShape"/><path fill="#fff" d="M34.5 21.3C34.4 21.3 34.4 21.2 34.5 21.3c.8-.8 1.4-2 1.3-2.9-.1-.9-.8-1.2-1.7-.8l0-1c0-.2-.2-.3-.4-.2-.2.1-.4.4-.4.6l0 1-.6.4 0-1c0-.2-.2-.3-.4-.2-.2.1-.4.4-.4.6l0 1c-.1.1-2 1.1-1.8 1.1-.2.1-.4.4-.4.6 0 .2.2.3.4.2l.8-.5 0 6.2-.8.5c-.2.1-.4.4-.4.6 0 .2.2.3.4.2.2-.1 1.9-1.1 1.8-1.1l0 1c0 .2.2.3.4.2.2-.1.4-.4.4-.6l0-1 .6-.4 0 1c0 .2.2.3.4.2.2-.1.4-.4.4-.6l0-1c.9-.5 1.7-1.8 1.7-2.9C35.8 21.5 35.2 21 34.5 21.3zM31.9 19.8l1.8-1.1c.5-.3.8-.1.8.5 0 .5-.4 1.2-.8 1.4l-1.8 1.1L31.9 19.8zM33.8 24.5l-1.9 1.1 0-2.3 1.9-1.1c.5-.3 1-.1 1 .6C34.8 23.4 34.3 24.2 33.8 24.5zM55.4 51.2c-.2-.1-.5-.1-.7.2-.1.2 0 .5.2.7.3.1.6 0 .7-.2C55.7 51.6 55.6 51.3 55.4 51.2zM57.1 52.2c-.2-.1-.5-.1-.7.2-.1.2-.1.5.2.7.3.1.6 0 .7-.2C57.4 52.6 57.4 52.3 57.1 52.2zM53 50.3c-.1.2-.1.5.2.7.2.1.5.1.7-.2.1-.2 0-.5-.2-.7C53.4 50 53.1 50.1 53 50.3zM64 54.1c-1.3-.8-3.4-.8-4.7 0-1.5.9-1.5 2.4 0 3.3 1.3.8 3.4.8 4.7 0C65.5 56.5 65.5 54.9 64 54.1zM63.5 56.5c-1 .6-2.7.6-3.7 0-.8-.5-.8-1.1 0-1.6 1-.6 2.7-.6 3.7 0C64.3 55.4 64.3 56 63.5 56.5zM49.5 57.4c.1-.2.1-.6-.2-.7-.2-.1-.5-.1-.7.2-.1.2-.1.5.2.7C49.1 57.7 49.4 57.6 49.5 57.4zM47.8 56.4c.1-.2.1-.6-.2-.7-.2-.1-.6-.1-.7.2-.1.2-.1.5.2.7C47.3 56.7 47.6 56.7 47.8 56.4zM46 55.4c.1-.2.1-.6-.2-.7-.2-.1-.5-.1-.7.2-.1.2 0 .5.2.7C45.5 55.7 45.9 55.6 46 55.4zM56.2 58.6c-1.3-.8-3.4-.8-4.7 0-1.5.9-1.5 2.4 0 3.3 1.3.8 3.4.8 4.7 0C57.7 61 57.7 59.5 56.2 58.6zM55.7 61c-1 .6-2.7.6-3.7 0-.8-.5-.8-1.1 0-1.6 1-.6 2.7-.6 3.7 0C56.5 59.9 56.5 60.5 55.7 61zM40 60.9c.1-.2.1-.5-.2-.7-.2-.1-.5-.1-.7.2-.1.2 0 .5.2.7C39.5 61.2 39.8 61.2 40 60.9zM41.7 61.9c.1-.2.1-.5-.2-.7-.2-.1-.5-.1-.7.2-.1.2-.1.5.2.7C41.3 62.2 41.6 62.2 41.7 61.9zM38.2 59.9c.1-.2 0-.5-.2-.7-.2-.1-.5-.1-.7.2-.1.2 0 .5.2.7C37.8 60.2 38.1 60.2 38.2 59.9zM43.7 66.4c1.3.8 3.4.8 4.7 0 1.5-.9 1.5-2.4 0-3.3-1.3-.8-3.4-.8-4.7 0C42.2 64 42.2 65.6 43.7 66.4zM44.2 64c1-.6 2.7-.6 3.7 0 2.1 1.2-1.6 2.8-3.7 1.6C43.4 65.1 43.4 64.5 44.2 64z" class="color000000 svgShape"/></svg>