<svg width="80" height="80" viewBox="0 0 80 80" fill="none" xmlns="http://www.w3.org/2000/svg">
<path d="M13.9885 23.9752C13.2028 23.9609 12.4171 23.9609 11.6457 23.9609C8.43139 23.9609 6.05996 26.4324 6.05996 29.6467C6.0171 31.3324 5.98853 33.0324 5.95996 34.7467C5.95996 31.5467 8.54568 28.9467 11.7457 28.9467C26.2558 28.9467 47.5921 29.1465 60.0742 29.0467C61.5171 29.0324 63.0314 28.9181 64.4171 29.4038C67.0864 30.3153 68.6122 33.201 68.7171 36.0324C68.7457 36.9895 68.7457 37.8181 68.7457 38.6324H68.76C68.7685 37.2587 68.6919 31.2989 68.4885 29.8752C68.0742 27.5181 66.6457 25.2181 64.3028 24.4038C62.9171 23.9324 61.4028 24.0324 59.96 24.0467C52.5168 24.136 46.2985 24.0609 40.26 24.0609" fill="#0068D1"/>
<path d="M37.874 29.0466C37.6344 29.0457 29.7502 29.0348 16.3169 28.9609C13.5882 25.318 12.7739 20.3609 14.6026 15.818C17.3883 8.90373 25.2454 5.53232 32.174 8.31805C40.5452 11.6838 43.2759 22.1902 37.874 29.0466Z" fill="#006CED"/>
<path d="M56.1046 55.5385C57.8231 55.3415 59.3388 53.9548 59.6875 52.2605C60.0361 50.5662 59.1912 48.6937 57.6901 47.8341C56.1889 46.9745 54.1463 47.1935 52.8616 48.3518C49.9501 50.9765 52.2099 55.9849 56.1046 55.5385Z" fill="#B9E013"/>
<path d="M55.9358 14.8103C54.7615 17.7336 51.4416 19.1506 48.5225 17.978C45.5992 16.8037 44.1863 13.4855 45.3606 10.5622C46.5332 7.64303 49.849 6.22433 52.7723 7.39863C55.6914 8.57127 57.1084 11.8911 55.9358 14.8103Z" fill="#006CED"/>
<path d="M29.3153 14.8156L29.5625 14.2008C29.7097 13.8345 29.5325 13.4188 29.1663 13.2716C28.8043 13.1279 28.3851 13.3009 28.2372 13.6678L27.9822 14.3017C27.2689 14.0246 26.7908 13.8265 25.6716 13.3791C25.304 13.2333 24.889 13.4097 24.7425 13.7753C24.5953 14.1415 24.7732 14.5572 25.1387 14.7044L25.8823 15.0028L22.2421 24.0648C22.183 24.0338 22.1199 24.0105 22.0611 23.9789C21.7145 23.7934 21.2806 23.9217 21.0936 24.2698C20.9067 24.6172 21.0371 25.0504 21.3845 25.2373C21.4384 25.2662 23.0624 26.0426 23.2362 26.1162L22.9526 26.8221C22.5978 27.7049 23.9278 28.2281 24.2779 27.3551L24.5763 26.6123C26.1427 27.1594 27.9048 27.7462 29.5437 26.9484C31.1981 26.1421 32.4254 23.7909 30.502 21.5483C32.2384 21.0233 33.123 19.4119 32.8173 17.8489C32.4625 16.0391 31.0348 15.4785 29.3153 14.8156ZM27.4964 25.8986C26.3286 25.8239 24.6008 25.1472 23.5349 24.6786L25.171 20.6058C26.3126 21.1036 27.3524 21.3953 28.2872 21.5803C31.1233 22.7876 30.3275 26.1141 27.4964 25.8986ZM30.3312 20.1111C29.2297 20.6324 26.7418 19.7339 25.7042 19.2783L27.2083 15.534C29.7377 16.5421 31.1555 16.8006 31.4152 18.1237C31.5602 18.8605 31.2272 19.6868 30.3312 20.1111Z" fill="white"/>
<path d="M75 45.3601C75 43.2528 73.2855 41.5389 71.1782 41.5389H69.4524C69.4819 38.7246 69.4669 31.6653 69.1923 29.7518C68.6831 26.8577 66.8994 24.5495 64.5327 23.7278C62.8123 23.142 63.8744 23.3701 41.1444 23.3491C41.6298 20.6468 41.326 17.8605 40.2239 15.2771C38.7326 11.7803 35.9689 9.07381 32.4407 7.6557C25.1702 4.73089 16.8722 8.27582 13.9398 15.5519C12.9458 18.021 12.7116 20.6939 13.1473 23.2559C12.6449 23.2521 12.1399 23.2465 11.6455 23.2465C8.05387 23.2465 5.34531 25.9976 5.34531 29.6284C5.3416 29.7769 5.00281 45.3435 5.00281 51.4322C5.00281 51.827 5.32229 52.1465 5.7171 52.1465C6.11191 52.1465 6.43139 51.827 6.43139 51.4322C6.43139 46.6771 6.6744 34.4933 6.6743 34.7449C6.6754 31.9829 8.93071 29.6611 11.7453 29.6611C59.2132 29.8682 60.3792 29.7501 60.7073 29.7504C62.9037 29.7103 64.7066 29.7376 66.2594 31.4782C68.2349 33.6931 68.0309 36.4437 68.0309 38.6413C68.043 39.5828 68.0347 40.5016 68.0237 41.5389H54.4315C48.9732 41.5389 44.532 45.9802 44.532 51.4385C44.532 56.8975 48.9732 61.3387 54.4315 61.3387H67.8151L67.8028 66.917C67.8028 69.7128 65.5218 71.9868 62.7065 71.9868L62.5468 71.9895C41.6312 72.3271 14.18 72.359 11.9462 72.1904C6.39332 71.7643 6.49614 68.756 6.42859 58.3121C6.42183 57.3596 4.99332 57.3727 5.00002 58.3219C5.06531 68.457 4.87503 73.08 11.8381 73.6148C13.6737 73.752 35.9656 73.8366 62.5698 73.4181L62.7177 73.4153C66.3093 73.4153 69.2313 70.5003 69.2313 66.917L69.2437 61.3387H71.1782C73.2855 61.3387 75 59.6249 75 57.5176C75 54.6793 74.8535 52.2553 73.3817 50.3685C74.4176 48.905 75 47.15 75 45.3601ZM6.75156 30.5812C6.75853 30.2694 6.76621 29.9583 6.77388 29.6465C6.77388 26.8124 8.86791 24.6751 11.6455 24.6751C12.241 24.6751 12.8477 24.6796 13.4537 24.6864C13.7984 25.9308 14.3212 27.1243 14.9986 28.2425L11.7453 28.2326C9.79637 28.2326 7.94094 29.1519 6.75156 30.5812ZM16.6814 28.2478C14.1958 24.7274 13.649 20.1003 15.2651 16.0855C17.9018 9.53767 25.3683 6.3492 31.9078 8.98103C35.0816 10.2568 37.5684 12.692 38.9098 15.8379C40.2511 18.9831 40.2874 22.4632 39.0116 25.637C39.0123 25.637 39.0116 25.6377 39.0116 25.637C38.6189 26.6191 38.1173 27.5246 37.5203 28.3323C37.3105 28.3315 23.3774 28.2854 16.6814 28.2478ZM60.6794 28.3226C55.3125 28.3296 46.2397 28.3414 39.2117 28.3356C39.9451 27.1624 40.4193 26.1473 40.8141 24.7766C63.8671 24.7902 62.6636 24.601 64.0681 25.0783C66.3072 25.8567 67.4568 28.1307 67.7811 29.9764C67.8988 30.7968 67.8853 31.1083 67.8948 31.2522C65.9846 28.5113 63.5256 28.2665 60.6794 28.3226ZM73.5715 57.5176C73.5715 58.8366 72.4979 59.9102 71.1782 59.9102H54.4315C49.7608 59.9102 45.9605 56.1099 45.9605 51.4385C45.9605 46.7677 49.7608 42.9675 54.4315 42.9675H71.1782C72.4979 42.9675 73.5715 44.041 73.5715 45.3601C73.5715 46.767 73.139 48.1496 72.3626 49.3291C71.1137 48.2985 69.4698 47.5648 67.8913 47.9291C66.5493 48.2395 65.2797 49.5956 65.5281 51.119C65.7331 52.3767 66.9545 53.3742 68.3699 53.4397C69.902 53.5058 71.3496 52.5891 72.4338 51.4964C73.4703 53.0114 73.5715 54.9799 73.5715 57.5176ZM71.4663 50.4431C70.6833 51.2469 69.5657 52.0473 68.4347 52.0126C67.7986 51.9833 67.0452 51.5452 66.9385 50.8888C66.8226 50.1824 67.5589 49.2642 68.7291 49.2642C69.6972 49.2642 70.7218 49.824 71.4663 50.4431Z" fill="white"/>
<path d="M48.2562 18.6407C51.551 19.9639 55.2802 18.3609 56.5981 15.0769C57.9165 11.795 56.3191 8.05334 53.0386 6.73568C49.7566 5.41662 46.015 7.01469 44.698 10.2959C43.3752 13.5863 44.9633 17.3178 48.2562 18.6407ZM46.0234 10.8289C47.049 8.27521 49.9586 7.03807 52.5056 8.06101C55.0559 9.08571 56.2968 11.9938 55.2728 14.544C54.2443 17.1052 51.3432 18.3407 48.7891 17.3153C46.2313 16.2882 44.9942 13.3882 46.0234 10.8289Z" fill="white"/>
<path d="M30.6045 50.48L23.2288 38.5671L15.873 50.48L23.2388 54.9257L30.6045 50.48Z" fill="#FF614B"/>
<path d="M15.873 51.9128L23.2388 56.1786L30.4516 51.9128L23.2388 62.1657L15.873 51.9128Z" fill="#FF614B"/>
</svg>
