<svg xmlns="http://www.w3.org/2000/svg" viewBox="0 0 68 68"><path fill="#fff" d="m50.849 53.042-3.664 2.118.53-3.336c-.948-.282-.965-1.628-.615-2.626.889-2.808 4.024-3.897 4.024-1.27 0 .783-.328 1.672-.836 2.403l.56 2.711zM27.094 54.99c-.58.334-1.04 1.133-1.039 1.799s.466.944 1.046.609c.58-.335 1.046-1.15 1.044-1.816s-.471-.927-1.051-.592zm.849-41.058-4.164 2.404a.252.252 0 0 0-.091.342c.07.12.223.16.341.092l4.164-2.405c.119-.069.16-.222.091-.341a.25.25 0 0 0-.341-.092zm2.126-1.227-.87.501a.251.251 0 0 0-.091.342c.07.12.223.16.341.092l.87-.501c.119-.07.16-.222.091-.342a.252.252 0 0 0-.341-.092zm5.33 12.265-.001-.002a.056.056 0 0 0-.007-.004l-.013-.009-.013-.006-3.497-2.03c-1.789-1.047-4.163-.826-6.681.628-5.063 2.916-9.165 10.022-9.145 15.838.01 2.85.991 4.983 2.764 6.005l3.513 2.045a.013.013 0 0 0 .003.003l.004.002.016.01c.742.428 1.582.64 2.488.64 1.29 0 2.714-.429 4.186-1.278 5.056-2.92 9.158-10.02 9.142-15.83-.007-2.847-.989-4.98-2.759-6.012zm-6.633 21.408c-2.345 1.355-4.536 1.581-6.174.64l-.013-.01-.003-.001c-2.329-1.356-2.725-4.502-2.405-7.175.64-5.303 4.326-11.227 8.786-13.8 1.907-1.101 4.289-1.735 6.182-.636 1.617.937 2.512 2.92 2.52 5.589.015 5.648-3.974 12.554-8.893 15.393z" class="color000000 svgShape"/><path fill="#fff" d="M30.34 35.337c-.314.028-.71.116-1.188.263l-.008-2.72c.517-.277 1-.453 1.452-.53a.41.41 0 0 0 .16-.046.743.743 0 0 0 .288-.316.855.855 0 0 0 .108-.394c0-.23-.094-.327-.28-.296-.505.07-1.082.277-1.73.622l-.003-.789c0-.099-.03-.167-.09-.2-.06-.034-.134-.026-.22.024a.577.577 0 0 0-.214.226.616.616 0 0 0-.083.3l.002.8a5.479 5.479 0 0 0-1.207 1.097 4.793 4.793 0 0 0-.754 1.272 3.399 3.399 0 0 0-.25 1.243c.001.45.105.762.311.936.206.175.464.254.773.236s.69-.09 1.14-.212l.008 2.628c-.59.31-1.154.484-1.692.52a.441.441 0 0 0-.189.062.781.781 0 0 0-.293.313.836.836 0 0 0-.114.403c0 .1.027.177.08.235.054.056.12.082.2.073.624-.055 1.294-.263 2.01-.623l.003.812c0 .107.029.174.085.202s.128.018.214-.032a.6.6 0 0 0 .223-.226.581.581 0 0 0 .085-.295l-.003-.811c.458-.294.86-.64 1.208-1.035.347-.394.615-.81.802-1.247s.282-.857.28-1.26c0-.496-.108-.834-.32-1.012-.214-.178-.478-.253-.793-.223zm-2.777.539c-.222-.055-.334-.25-.335-.585-.001-.35.117-.703.356-1.059a3.9 3.9 0 0 1 .953-.968l.007 2.514c-.431.12-.758.152-.981.098zm1.599 3.255-.008-2.458c.465-.122.815-.17 1.05-.142.237.029.355.19.356.488.002.792-.465 1.497-1.398 2.112z" class="color000000 svgShape"/><path fill="#fff" d="M59.782 35.093c-.1-.07-3.367-1.98-3.266-1.904a.244.244 0 0 0-.194-.025l-10.527 2.964c-.02.005-.033.022-.051.033-.015.008-.033.008-.047.02l-4.6 4.033-.087-30.906c0-.006.005-.011.005-.017l-.01-2.51c0-.814-.257-1.607-.963-1.993l-4.484-2.61c-.59-.35-1.367-.28-2.193.2l-21.96 12.669c-1.574.907-2.854 3.122-2.854 4.938l.12 41.239c0 .922.327 1.623.924 1.975l4.53 2.632c.679.38 1.512.203 2.19-.2l19.826-11.444.014 5.172c0 .548.116 1.037.334 1.415.644 1.09 1.44 1.916 2.366 2.453.133.077 3.084 1.792 3.204 1.864.114.017 2.368 1.902 7.276-.34 4.22-2.96 7.35-7.25 9.28-12.76.2-.57.3-1.14.3-1.71.293-5.23-.737-4.967.976-14.955a.266.266 0 0 0-.11-.233zM35.206 45.38c-.005.003-.011.002-.015.006a.241.241 0 0 0-.082.19c0 .01-.006.02-.005.032 0 .004.004.008.005.013.002.011-.004.023 0 .034.227.73.403 1.498.555 2.284L13.691 60.627l-.033-10.886-.07-24.471L40.511 9.727l.088 30.924-5.393 4.729zm5.3-38.6.009 2.366-26.93 15.545v-2.08c-.01-1.617 1.115-3.581 2.514-4.441.03-.018.057-.043.087-.06l7.481-4.322 14.468-8.357c.01-.006.018-.008.027-.013 1.257-.695 2.343-.242 2.343 1.363zM16.065 65.2c-.675.395-1.47.54-1.98-.047-.25-.294-.386-.739-.386-1.29l-.007-2.656c24.19-13.964 21.689-12.52 22.067-12.74.24 1.417.377 2.905.377 4.472l.002.666L16.065 65.2zm42.349-14.92c0 .5-.09 1.04-.27 1.55-1.9 5.41-4.96 9.62-9.06 12.49-2.763 1.258-4.986 1.384-6.719.379-.004-.004-.004-.011-.01-.014l-.013-.008c-.916-.535-1.638-1.362-2.17-2.263-.168-.29-.258-.686-.268-1.163-.127-4.081.428-8.868-1.01-13.699l10.343-9.068 10.067-2.833c-1.358 6.39-.769 9.536-.89 14.63z" class="color000000 svgShape"/><path fill="#fff" d="M49.837 40.421a.238.238 0 0 0-.098.053l-8.677 7.61a.25.25 0 0 0-.077.248c.48 1.894.726 3.975.733 6.186l.017 5.957c0 .23.037.392.082.49 1.221 2.042 3.062 2.96 6.69 1.34 3.567-2.535 6.215-6.214 7.871-10.934.122-.347.186-.709.185-1.047.067-4.932-.258-7.167.437-11.551.029-.19-.157-.335-.314-.28l-6.849 1.928zm6.226 9.905c0 .28-.054.585-.158.88-1.62 4.62-4.207 8.217-7.644 10.666-2.861 1.267-4.724.993-5.996-1.124a.979.979 0 0 1-.03-.275l-.017-5.957c-.007-2.194-.246-4.265-.712-6.157l8.52-7.472 6.421-1.808c-.62 4.167-.325 6.29-.384 11.247zM30.906 62.231a1.05 1.05 0 0 0 0 2.098c.584 0 1.058-.47 1.058-1.049s-.474-1.049-1.058-1.049zM47.39 11.547c.584 0 1.057-.47 1.057-1.05a1.054 1.054 0 0 0-2.106 0c0 .58.47 1.05 1.049 1.05zm14.276 5.843c.583 0 1.057-.47 1.057-1.05a1.053 1.053 0 0 0-2.107 0c0 .58.471 1.05 1.05 1.05zm-47.58-7.048c.583 0 1.057-.47 1.057-1.049a1.054 1.054 0 0 0-2.106 0c0 .579.47 1.05 1.05 1.05zm37.268 17.414a.31.31 0 0 0 .435 0l1.31-1.31a.307.307 0 0 0 0-.433l-1.316-1.316a.305.305 0 0 0-.434 0l-1.31 1.31a.307.307 0 0 0 0 .434l1.315 1.315zM64.82 3.487l-1.316-1.315a.306.306 0 0 0-.434 0l-1.31 1.309a.308.308 0 0 0 0 .434l1.316 1.316c.057.059.135.09.217.09.082 0 .16-.031.217-.09l1.31-1.31a.307.307 0 0 0 0-.434zM5.26 3.35a.361.361 0 0 0-.513 0l-1.55 1.549a.364.364 0 0 0 0 .514l1.558 1.557c.067.069.16.106.256.106a.36.36 0 0 0 .257-.106l1.55-1.55a.364.364 0 0 0 0-.513L5.26 3.349zm57.032 56.978a.341.341 0 0 0-.487 0l-1.469 1.469a.344.344 0 0 0 0 .487l1.474 1.476c.067.065.153.101.245.101s.18-.036.244-.101l1.47-1.47a.345.345 0 0 0 0-.486l-1.477-1.476zM4.322 62.23a1.05 1.05 0 0 0 0 2.098c.583 0 1.057-.47 1.057-1.049s-.474-1.049-1.057-1.049z" class="color000000 svgShape"/></svg>