<svg width="80" height="80" viewBox="0 0 80 80" fill="none" xmlns="http://www.w3.org/2000/svg">
<path d="M51.6553 64.6832C43.7217 64.7117 36.9418 63.1307 34.207 60.9087C36.1441 58.7864 37.1982 56.6926 37.0985 55.0261C38.8219 54.3139 40.7163 53.8439 42.625 53.5163C44.5763 54.6131 46.7271 55.5531 49.12 56.3222C49.6042 56.479 50.117 56.479 50.6013 56.3222C53.0939 55.5246 55.3444 54.5418 57.3384 53.4023C60.4925 53.8726 66.0536 54.8341 67.6649 57.5757C71.124 63.3982 58.3372 64.656 51.6553 64.6832Z" fill="#0043C6"/>
<path d="M18.0288 55.7729L25.3888 53.5343L22.6117 59.4829L18.4302 59.1557L18.0288 55.7729Z" fill="#FF614B"/>
<path d="M22.003 59.9758L17.8973 59.5872L17.4687 56.3043L15.3516 61.6458L22.003 59.9758Z" fill="#FF614B"/>
<path d="M31.871 28.9117C31.4027 25.9568 31.3462 23.3545 31.3927 21.5907C31.4227 20.4499 32.4844 19.5952 33.5917 19.8713C39.0784 21.2392 44.6828 19.5157 48.5772 15.9721C49.2422 15.367 50.2781 15.3658 50.942 15.972C54.7577 19.456 60.4365 21.2998 65.9995 19.9274C67.0932 19.6576 68.157 20.4925 68.1918 21.6185C68.3872 27.9348 67.312 45.1994 50.399 50.5623C50.0418 50.6755 49.6467 50.6749 49.2899 50.5606C39.3361 47.3722 34.8409 40.0907 32.8614 33.3471" fill="#006CED"/>
<path d="M62.307 53.6633C61.2672 53.4098 60.2859 53.2054 59.3255 53.024C74.0824 43.4326 75.2034 25.3401 74.9737 17.8151C74.9169 15.8584 73.0572 14.4276 71.1686 14.8924C64.0631 16.6449 56.7357 14.3018 51.7971 9.80451C50.6475 8.74983 48.8458 8.74843 47.7004 9.80033C42.6172 14.4018 35.4291 16.5834 28.4266 14.8213C26.5156 14.3461 24.6609 15.7898 24.6047 17.79C24.5489 20.0766 24.6166 23.641 25.2548 27.6491C25.3162 28.0383 25.6831 28.2978 26.0723 28.242C26.4623 28.1792 26.7273 27.8137 26.6653 27.4231C26.0437 23.5238 25.9789 20.0514 26.0333 17.8277C26.0631 16.7474 27.0581 15.9448 28.0799 16.208C35.5919 18.0912 43.2537 15.7519 48.663 10.8564C49.2692 10.297 50.2213 10.2956 50.8331 10.8592C55.9981 15.5622 63.8001 18.1865 71.5097 16.2791C72.4976 16.0318 73.5159 16.7966 73.5451 17.8584C73.776 25.3946 72.623 43.8865 56.984 52.7816C55.0135 53.9089 52.7925 54.8715 50.3825 55.643C50.0407 55.7518 49.68 55.7518 49.3383 55.643C38.5451 52.1728 31.3033 44.5974 27.9557 33.2309C27.8448 32.8528 27.4514 32.6379 27.0691 32.7482C26.6904 32.8598 26.4741 33.256 26.5857 33.6354C29.1372 42.2988 33.9076 48.8411 40.7229 53.1673C39.6031 53.4191 38.5858 53.7173 37.6443 54.0596C37.2624 52.7984 35.585 51.2496 34.3144 50.1067C29.9186 43.3231 7.64865 53.1881 5.9147 62.1148C5.63969 63.5289 5.96962 64.8456 7.02162 65.8053C7.64793 66.9173 8.40171 68.026 9.33825 69.1921C10.3567 70.449 12.1256 70.9876 14.2873 70.9876C18.8181 70.9876 26.4856 68.4244 32.2185 63.7259C32.7108 66.7007 35.7058 67.988 38.5675 68.9368C44.4273 70.8886 52.0679 71.0678 57.6739 70.4644C61.5488 70.0361 66.267 69.0135 68.3694 64.8854C69.3635 62.9767 69.1455 60.8716 68.9357 59.1459C68.7284 56.1398 65.2427 54.3798 62.307 53.6633ZM57.4758 54.146C60.283 54.5773 65.6148 55.4956 67.0503 57.9393C67.7639 59.1418 67.6718 60.0208 66.7343 60.9722C63.2472 64.3773 42.6889 65.5724 35.2611 60.7881C36.4672 59.3465 37.7018 57.3953 37.8106 55.5118C39.1632 54.9929 40.704 54.5827 42.4988 54.2646C43.3059 54.7098 46.0833 56.0975 48.9002 57.0018C49.5294 57.2055 50.1927 57.2041 50.8191 57.0032C53.2927 56.2105 55.6514 55.1689 57.4758 54.146ZM7.31677 62.3882C8.33675 57.1396 20.0605 49.326 28.7474 49.326C31.4268 49.326 33.9334 50.1699 33.4238 52.7914C32.879 55.5983 29.1667 59.3497 24.1848 62.1259C15.8044 66.7988 6.3679 67.2692 7.31677 62.3882ZM10.4501 68.295C10.0999 67.8592 9.79837 67.4379 9.49825 67.0163C17.5855 68.92 34.0948 60.1015 34.8702 52.6201C35.8818 53.6615 36.531 54.2109 36.3678 55.6284C36.1118 57.8468 33.9622 60.2774 32.3201 61.7759C32.3121 61.7835 32.3047 61.7909 32.2971 61.7989C25.8928 67.6277 13.3264 71.8441 10.4501 68.295ZM57.5184 69.0442C52.1138 69.627 44.752 69.492 39.0181 67.5807C37.5602 67.098 34.1471 65.968 33.6798 63.8321C33.5909 63.4274 33.5525 63.0285 33.5386 62.578C33.7959 62.3361 34.038 62.0904 34.2773 61.8438C42.0099 67.1202 63.4841 65.9804 67.6607 62.0535C67.6105 62.8041 67.4572 63.544 67.0991 64.2311C65.3037 67.7565 61.0347 68.655 57.5184 69.0442Z" fill="white"/>
<path d="M48.3847 25.018C47.9899 25.018 47.6704 25.3375 47.6704 25.7323V26.4131H45.8868C45.492 26.4131 45.1725 26.7326 45.1725 27.1274C45.1725 27.5222 45.492 27.8417 45.8868 27.8417H46.5341V36.4611C45.4258 36.3428 45.3667 37.7715 46.2768 37.8752C46.3393 37.8822 47.6294 37.9516 47.7235 37.9551V38.7038C47.7235 39.0987 48.0429 39.4181 48.4377 39.4181C48.8326 39.4181 49.152 39.0987 49.152 38.7038V37.9692C49.3975 37.9612 49.6428 37.9542 49.8872 37.9372V38.7038C49.8872 39.0987 50.2067 39.4181 50.6015 39.4181C50.9963 39.4181 51.3158 39.0987 51.3158 38.7038V37.7663C52.2245 37.588 53.0566 37.2667 53.7112 36.5456C54.5413 35.6277 54.7652 34.2493 54.2685 33.1151C54.0122 32.5317 53.4368 32.0221 52.7736 31.659C54.7764 29.9253 53.9072 26.8656 51.2628 26.4746V25.7323C51.2628 25.3375 50.9433 25.018 50.5485 25.018C50.1537 25.018 49.8342 25.3375 49.8342 25.7323V26.3853C49.587 26.3852 49.343 26.3904 49.099 26.3951V25.7323C49.099 25.3375 48.7795 25.018 48.3847 25.018ZM52.9599 33.6899C53.2306 34.3065 53.1036 35.0878 52.6523 35.5872C51.7274 36.6041 49.4776 36.5922 47.9627 36.549V32.7417C48.8796 32.7636 49.7281 32.7255 50.8235 32.5198C51.5837 32.541 52.7299 33.1652 52.9599 33.6899ZM52.201 28.5574C52.4465 28.9354 52.5072 29.4363 52.3573 29.8632C52.004 30.8743 51.0387 31.0648 49.987 31.2108C49.3314 31.3 48.6249 31.3205 47.9627 31.3025V27.8398C50.5829 27.8262 51.5908 27.6186 52.201 28.5574ZM10.4704 52.9951C10.7726 53.252 11.2211 53.2159 11.4769 52.917C11.7336 52.6185 11.6995 52.1665 11.4002 51.9098C5.17913 46.577 5.15113 37.5209 9.37873 34.001C9.65964 39.629 13.1155 42.0795 15.9642 41.5721C18.0715 41.1913 19.7184 38.9996 19.6347 36.6879C19.5059 33.1242 15.5285 29.8355 10.9594 31.4731C11.6609 27.5148 14.4314 24.475 17.9586 23.217L16.6799 26.0908C16.2952 26.9577 17.6035 27.5302 17.9857 26.6712L20.2465 21.5889C20.4514 21.1252 20.1229 20.6064 19.6264 20.5858C18.1141 20.5161 16.6192 20.2343 15.183 19.7474C14.2839 19.4517 13.8326 20.7975 14.7254 21.1006C15.6894 21.4272 16.6819 21.6427 17.684 21.7981C13.2746 23.2824 9.89343 27.2117 9.41919 32.2181C3.31265 36.0009 3.42163 46.9516 10.4704 52.9951ZM18.2076 36.7396C18.2648 38.3425 17.1215 39.9106 15.7103 40.1659C12.554 40.732 10.6947 36.7314 10.7954 33.0844C14.5832 31.2484 18.1026 33.8458 18.2076 36.7396Z" fill="white"/>
</svg>
