<svg width="80" height="80" viewBox="0 0 80 80" fill="none" xmlns="http://www.w3.org/2000/svg">
<path d="M24.6971 45.7735V71.9163C24.6971 73.6163 23.3256 75.0021 21.6256 75.0021H19.5113C18.7146 75.0021 18.5323 73.9141 19.2256 73.6306C20.2541 73.1878 20.6113 71.4164 20.2256 68.6306L20.3399 46.3592C20.3399 46.345 20.3399 44.502 19.1113 44.0878C18.3673 43.8613 18.5303 42.702 19.3399 42.702H21.6256C23.3256 42.702 24.6971 44.0878 24.6971 45.7735Z" fill="#006CED"/>
<path d="M48.7685 31.6306V71.8306C48.7685 73.5735 47.34 75.0021 45.5971 75.0021H42.2829C41.4369 75.0021 41.2824 73.7439 42.1686 73.5735C43.4257 73.3592 43.9686 72.5449 43.8257 71.0449C43.8257 60.9171 43.8858 43.8899 43.9114 32.3592C44.04 30.5307 43.1686 30.0878 42.2257 29.8878C41.389 29.687 41.5315 28.4735 42.3828 28.4735L45.5971 28.4592C47.3676 28.4592 48.7685 29.9064 48.7685 31.6306Z" fill="#B9E013"/>
<path d="M71.6115 60.2307V72.1592C71.6115 73.7021 70.3544 74.9593 68.8258 74.9593C68.6819 74.9593 65.8534 74.9593 65.9973 74.9593C65.111 74.8609 65.1551 73.5307 66.0687 73.5307H66.6686C67.0258 73.4593 67.3687 73.3164 67.5258 73.0592C67.7116 72.7307 67.5115 72.2449 67.5115 72.2449C67.4129 72.0479 67.4705 72.6616 67.4258 60.4735C67.4544 59.2593 67.0258 58.9592 66.2401 58.8592H65.8258C64.8825 58.8592 64.8752 57.4307 65.8115 57.4307C65.9662 57.4307 68.9725 57.4307 68.8258 57.4307C70.3146 57.4307 71.6115 58.6534 71.6115 60.2307Z" fill="#AFA1FD"/>
<path d="M27.5882 26.9037C27.7131 32.8446 23.0011 37.7591 17.0686 37.8839C11.1278 38.0088 6.22163 33.2967 6.09666 27.3558C5.97188 21.4234 10.6755 16.509 16.6164 16.384C22.5488 16.2592 27.4634 20.9713 27.5882 26.9037ZM73.9036 42.2859C74.0234 47.9793 69.5076 52.6891 63.8222 52.8087C58.1288 52.9285 53.427 48.4126 53.3072 42.7191C53.1876 37.0338 57.6954 32.3241 63.3888 32.2043C69.0741 32.0847 73.784 36.6005 73.9036 42.2859Z" fill="#1C32F7"/>
<path d="M35.0576 10.8528C36.7143 8.0023 39.8544 6.85725 42.8834 7.61488C45.1006 8.16942 47.2428 8.96207 49.4629 8.73634C51.6072 8.51832 53.7871 7.35491 55.2942 5.71216C56.7859 10.4668 58.2898 16.4595 59.7815 21.2141C56.4487 18.5808 52.5584 18.4537 48.9602 19.507C45.3621 20.5603 42.2156 21.8725 39.133 24.1217" fill="#006CED"/>
<path d="M18.5735 42.7019H13.021C11.3246 42.7019 9.94482 44.0817 9.94482 45.7781V71.9221C9.94482 73.6185 11.3246 74.9983 13.021 74.9983H18.5735C20.2699 74.9983 21.6496 73.6185 21.6496 71.9221V45.7781C21.6496 44.0817 20.2699 42.7019 18.5735 42.7019ZM20.2211 71.9221C20.2211 72.8303 19.4817 73.5697 18.5735 73.5697H13.021C12.1128 73.5697 11.3734 72.8303 11.3734 71.9221V45.7781C11.3734 44.8699 12.1128 44.1305 13.021 44.1305H18.5735C19.4817 44.1305 20.2211 44.8699 20.2211 45.7781V71.9221ZM65.4701 57.4327H61.741C59.8716 57.4327 58.3509 58.9533 58.3509 60.8228V71.5622C58.3509 73.4316 59.8716 74.9522 61.741 74.9522H65.4701C67.3395 74.9522 68.8601 73.4316 68.8601 71.5622V60.8228C68.8601 58.9533 67.3395 57.4327 65.4701 57.4327ZM67.4316 71.5622C67.4316 72.6433 66.552 73.5236 65.4701 73.5236H61.741C60.6591 73.5236 59.7795 72.6433 59.7795 71.5622V60.8228C59.7795 59.7416 60.6591 58.8613 61.741 58.8613H65.4701C66.552 58.8613 67.4316 59.7416 67.4316 60.8228V71.5622ZM13.4611 23.3967L13.9519 23.3863L14.1088 30.8497C13.7287 30.824 13.3725 31.1046 13.3363 31.4952C13.3007 31.8886 13.5902 32.236 13.9829 32.2723C14.1833 32.2907 15.3868 32.3396 15.4821 32.3402L15.4917 32.801C15.5001 33.1902 15.8182 33.4999 16.206 33.4999C16.2109 33.4999 16.2158 33.4999 16.2206 33.4999C16.6154 33.4916 16.9286 33.1651 16.9203 32.7703L16.9099 32.2722C17.4679 32.2302 18.21 32.2278 19.1015 31.9151C21.178 31.1789 21.7159 29.2242 21.0525 27.794C20.8207 27.2954 20.3246 26.8742 19.7531 26.5654C20.8239 25.5275 20.8703 24.094 20.1771 23.073C19.3354 21.8347 18.098 21.8363 16.691 21.8775L16.6831 21.498C16.6636 20.5816 15.2341 20.5663 15.2545 21.5287L15.2629 21.9277C14.7659 21.9412 14.1072 21.9532 13.4298 21.9681C13.0356 21.9765 12.7231 22.3043 12.7315 22.6978C12.7406 23.0926 13.0733 23.4023 13.4611 23.3967ZM18.6265 30.5675C17.8096 30.8531 16.4033 30.9105 15.5392 30.9079L15.4718 27.6998C16.405 27.695 17.1793 27.6017 17.9246 27.4467C20.153 27.4758 20.6387 29.8564 18.6265 30.5675ZM18.9955 23.8766C19.296 24.3185 19.3144 24.9476 18.8336 25.4893C18.2338 26.1673 16.3095 26.2584 15.4415 26.2595L15.3804 23.353C17.6623 23.2811 18.488 23.1289 18.9955 23.8766ZM70.4771 43.5404H69.0387C69.1252 43.0859 69.268 42.5662 69.016 41.4729H70.4771C70.8719 41.4729 71.1913 41.1534 71.1913 40.7586C71.1913 40.3638 70.8719 40.0443 70.4771 40.0443H68.47C66.8708 37.0841 64.1074 36.5663 61.0114 36.5663C60.6166 36.5663 60.2971 36.8858 60.2971 37.2806V40.0443H58.3565C57.9617 40.0443 57.6422 40.3638 57.6422 40.7586C57.6422 41.1534 57.9617 41.4729 58.3565 41.4729H60.2971V43.5404H58.3565C57.9617 43.5404 57.6422 43.8599 57.6422 44.2547C57.6422 44.6495 57.9617 44.969 58.3565 44.969H60.2971V47.7326C60.2971 48.1274 60.6166 48.4469 61.0114 48.4469C61.4096 48.3557 66.4254 49.1548 68.5646 44.969H70.4771C70.8719 44.969 71.1913 44.6495 71.1913 44.2547C71.1913 43.8599 70.8719 43.5404 70.4771 43.5404ZM61.7257 38.0047C63.8535 38.0638 65.4901 38.4162 66.7596 40.0443H61.7257V38.0047ZM61.7257 41.4729H67.5277C67.8051 42.3317 67.7539 42.9348 67.5923 43.5404H61.7257V41.4729ZM61.7257 47.0183V44.969H66.88C65.0348 47.3952 61.9772 46.9678 61.7257 47.0183ZM60.4631 21.0013C58.9789 16.2664 57.468 10.2531 55.9758 5.4991C55.8108 4.97418 55.1397 4.8239 54.7683 5.22984C53.3426 6.78258 51.3329 7.8275 49.391 8.0256C47.3029 8.23281 45.2226 7.46192 43.0566 6.92209C39.8589 6.122 36.7496 7.2699 34.8988 9.8325C30.1699 6.61121 25.2652 11.8764 27.3514 15.9274C26.4167 18.2057 27.2419 20.7922 29.0282 22.1788C29.3421 22.4201 29.7893 22.3629 30.0306 22.0518C30.2727 21.7393 30.2162 21.2915 29.9044 21.0488C28.782 20.1782 28.1968 18.6269 28.45 17.2276C30.6536 18.8901 33.4693 17.5467 33.7416 15.3024C34.0739 12.5492 30.8237 11.5401 28.3349 14.3509C27.9515 11.5662 31.2855 8.6944 34.4363 11.2636L39.7223 28.4706H36.5596C34.6902 28.4706 33.1689 29.9913 33.1689 31.8607V71.6026C33.1689 73.472 34.6902 74.9927 36.5596 74.9927H41.8561C43.7255 74.9927 45.2469 73.472 45.2469 71.6026V31.8607C45.2469 29.9913 43.7255 28.4706 41.8561 28.4706H41.2167L39.9698 24.4114C42.5682 22.5875 45.3482 21.3089 49.1615 20.1922C53.1207 19.0329 56.5443 19.5672 59.3387 21.7756C59.8917 22.2099 60.6732 21.6674 60.4631 21.0013ZM32.3228 15.1308C32.1616 16.4615 30.2881 17.1657 29.0094 15.82C30.1655 14.0088 32.5335 13.4008 32.3228 15.1308ZM43.8183 31.8607V71.6026C43.8183 72.6838 42.938 73.5641 41.8561 73.5641H36.5596C35.4777 73.5641 34.5974 72.6838 34.5974 71.6026V31.8607C34.5974 30.7795 35.4777 29.8992 36.5596 29.8992H41.8561C42.938 29.8992 43.8183 30.7795 43.8183 31.8607ZM48.7597 18.8222C44.9722 19.9302 42.1521 21.1993 39.5291 22.9769L35.8414 10.9719C37.3157 8.67406 39.9715 7.61797 42.7106 8.3088C44.9252 8.85981 47.155 9.68627 49.5354 9.4458C51.4418 9.25328 53.397 8.37158 54.9539 7.03369C56.1272 10.9061 57.3361 15.535 58.5225 19.5323C55.7045 18.0158 52.3709 17.7647 48.7597 18.8222Z" fill="white"/>
</svg>
