<svg xmlns="http://www.w3.org/2000/svg" viewBox="0 0 68 68"><path fill="#fff" d="M5.45 44.6c-.581-.336-1.055-.065-1.057.607-.002.667.469 1.483 1.05 1.818.585.338 1.054.065 1.056-.602.002-.672-.464-1.485-1.05-1.823zm3.572 2.075c-.58-.335-1.055-.065-1.057.608-.001.667.47 1.483 1.05 1.818.585.338 1.055.065 1.057-.602.002-.673-.465-1.486-1.05-1.824zm3.572 2.076c-.58-.335-1.054-.065-1.056.607-.002.668.469 1.483 1.05 1.818.585.338 1.054.066 1.056-.602.002-.672-.464-1.485-1.05-1.823zm3.738 3.097a.25.25 0 1 0-.252.432l7.235 4.203a.25.25 0 1 0 .252-.431l-7.235-4.204zM5.442 35.686c.586.338 1.055.065 1.057-.602.002-.672-.464-1.485-1.05-1.823-.58-.336-1.054-.066-1.056.607-.002.667.469 1.483 1.05 1.818zm3.573 2.076c.585.338 1.055.065 1.057-.602.002-.673-.465-1.486-1.05-1.824-.58-.335-1.055-.065-1.057.608-.001.667.47 1.482 1.05 1.818zm3.573 2.075c.585.338 1.054.066 1.056-.602.002-.672-.464-1.485-1.05-1.823-.58-.335-1.054-.065-1.056.607-.002.668.469 1.483 1.05 1.818zm10.727 5.307a.25.25 0 1 0 .252-.431l-7.235-4.204a.25.25 0 1 0-.252.432l7.235 4.203zm-7.792-27.63 10.64 6.182c.715.417 1.842.417 2.562.001l10.704-6.18c.813-.47.804-1.309.008-1.771l-10.64-6.183c-.716-.418-1.84-.418-2.561 0l-10.704 6.18c-.81.468-.812 1.304-.01 1.77zm.259-1.338 10.704-6.18c.56-.323 1.505-.323 2.06-.001l10.64 6.183c.467.273.464.636-.007.906l-10.704 6.18c-.558.324-1.503.324-2.06 0l-10.64-6.182c-.48-.278-.456-.64.007-.906zm-10.34 8.171c.586.338 1.055.065 1.057-.602.002-.672-.464-1.486-1.05-1.823-.58-.336-1.054-.066-1.056.607-.002.667.469 1.483 1.05 1.818zm3.573 2.076c.585.337 1.055.065 1.057-.603.002-.672-.465-1.485-1.05-1.823-.58-.335-1.055-.065-1.057.607-.001.668.47 1.483 1.05 1.819zm3.573 2.075c.585.338 1.054.066 1.056-.602.002-.672-.464-1.485-1.05-1.823-.58-.335-1.054-.065-1.056.607-.002.668.469 1.483 1.05 1.818zm10.727 5.308a.25.25 0 1 0 .252-.432l-7.235-4.205a.25.25 0 1 0-.252.432l7.235 4.205z" class="color000000 svgShape"/><path fill="#fff" d="M65.832 30.453a.25.25 0 0 0-.124-.215l-4.279-2.487a.25.25 0 0 0-.25-.001l-4.437 2.558-.005.001c-.02.012-.033.034-.05.053a.243.243 0 0 0-.071.163l.001.007.02 9.837-2.89-1.68a.275.275 0 0 0-.25 0l-.704.404c-.082-.524-.44-1.003-1.056-1.364l-.5-.29.51-.3c.71-.41 1.11-1 1.1-1.59l-.02-7.58c0-.61-.39-1.17-1.09-1.58l-.51-.29.52-.3c.71-.41 1.11-.99 1.1-1.59l-.02-7.578v-.001c0-.609-.387-1.168-1.091-1.577l-21.7-12.61c-1.364-.795-3.59-.795-4.964-.002L3.242 15.045c-.713.411-1.105.972-1.109 1.58l.014 7.594c0 .6.39 1.16 1.1 1.57l.5.29-.51.3c-.71.42-1.1.98-1.11 1.59l.002.007-.002.003.02 7.58c0 .6.39 1.16 1.1 1.57l.5.29-.51.3c-.71.42-1.1.98-1.11 1.59l.002.007-.002.003.02 7.58c0 .6.39 1.16 1.1 1.57l21.7 12.61c1.322.777 3.585.797 4.96 0l11.413-6.584.028 8.923c0 .089.048.17.124.215l4.278 2.486v.001a.252.252 0 0 0 .25 0l4.439-2.559a.252.252 0 0 0 .125-.217l-.01-3.301 2.823 1.646a.293.293 0 0 0 .25 0c.002 0 .002-.003.004-.004l4.435-2.555a.252.252 0 0 0 .125-.218l-.008-3.345 2.873 1.661.003.003a.246.246 0 0 0 .25 0l4.439-2.557a.252.252 0 0 0 .125-.217l-.041-24.004zM49.774 50.397l-3.938 2.271-3.779-2.199 3.94-2.27 3.777 2.198zm11.528-22.141 3.78 2.196-3.938 2.27-3.78-2.196 3.938-2.27zm-7.685 10.943c10.496 6.083-6.167-3.573 3.78 2.19-1.471.852-1.598.92-3.94 2.27l-3.75-2.18-.008-.004c.295-.173 4.043-2.348 3.918-2.276zM3.492 15.479l21.83-12.604c1.235-.715 3.238-.713 4.462-.001l21.7 12.61c.835.485 1.15 1.207.484 1.907-.307.32 1.076-.517-22.329 12.995-1.234.714-3.237.712-4.462 0l-21.7-12.61c-1.112-.647-1.142-1.63.015-2.298zm.015 9.88c-.55-.32-.86-.73-.86-1.14l-.01-6.46c.1.1.38.33.59.45 33.05 19.206 17.24 10.018 21.698 12.61 1.368.794 3.593.79 4.964 0 23.312-13.484 21.84-12.557 22.244-12.896.032-.027.19-.17.194-.174l.02 6.47c0 .41-.31.83-.85 1.15l-21.84 12.6c-1.24.71-3.24.71-4.46 0l-21.69-12.61zm-.02 1.46.69-.394v.854c0 .46.3.91.91 1.26l20.16 11.72c1.2.7 3.16.7 4.37 0l20.29-11.71c.61-.35.92-.82.91-1.28v-.843l.67.393c1.107.656 1.14 1.637-.02 2.3l-21.83 12.61c-1.23.71-3.23.71-4.46 0l-21.7-12.61c-1.068-.633-1.183-1.605.01-2.3zm.02 9.88c-.55-.32-.86-.73-.86-1.14l-.01-6.46c.102.082.256.247.59.45l21.7 12.61c1.37.79 3.59.79 4.96 0l21.83-12.6c.334-.196.51-.386.61-.47l.02 6.47c0 .41-.31.83-.85 1.15-2.466 1.43-6.815 3.932-21.84 12.6-1.24.71-3.24.71-4.46 0l-21.69-12.61zm-.02 1.46.69-.394v.774c0 .46.3.91.91 1.27l20.16 11.71c1.2.7 3.16.7 4.37 0l20.29-11.71c.61-.35.92-.82.91-1.28v-.763l.67.393c.54.32.84.73.84 1.15 0 .022-.006.043-.007.064l-3.263 1.876c-.08.04-.12.13-.12.22l.002.444-19.302 11.146c-1.23.72-3.23.72-4.46.01l-21.7-12.61c-1.067-.633-1.183-1.606.01-2.3zm26.17 22.49c-1.24.71-3.24.71-4.46 0L3.507 48.04c-.55-.32-.86-.73-.86-1.14l-.01-6.46c.102.083.253.245.59.45l21.7 12.61c1.37.79 3.59.79 4.96 0L48.94 42.502l.017 6.837-2.84-1.64a.227.227 0 0 0-.25 0l-4.44 2.55c-.07.05-.12.13-.12.22v.003l.011 3.446-11.66 6.731zm16.468 4.823-.04-12.37 3.939-2.268.04 12.366-3.94 2.272zm7.626-4.433-.04-16.941 3.94-2.273.04 16.943-3.94 2.271zm7.686-4.459-.04-23.426 3.936-2.268.04 23.426-3.936 2.268zM5.44 60.64a1.7 1.7 0 0 0-1.699 1.698 1.7 1.7 0 0 0 1.699 1.699c.944 0 1.71-.762 1.71-1.699 0-.936-.766-1.698-1.71-1.698zM62.648 7.418c.057.059.135.09.217.09.082 0 .16-.031.218-.09l1.312-1.312a.308.308 0 0 0 0-.435l-1.319-1.318a.305.305 0 0 0-.434 0l-1.313 1.311a.308.308 0 0 0 0 .436l1.319 1.318zM5.695 7.323c.058.058.136.09.218.09.082 0 .16-.032.217-.09L7.442 6.01a.308.308 0 0 0 0-.434L6.124 4.257a.306.306 0 0 0-.435 0L4.376 5.57a.308.308 0 0 0 0 .435l1.32 1.319zm42.863.186c.585 0 1.06-.472 1.06-1.052a1.056 1.056 0 0 0-2.112 0c0 .58.472 1.052 1.052 1.052zm9.588 9.523c.584 0 1.06-.471 1.06-1.051a1.056 1.056 0 0 0-2.112 0c0 .58.472 1.051 1.052 1.051z" class="color000000 svgShape"/><path fill="#fff" d="M34.801 61.027c-.872 0-1.583.71-1.583 1.583s.71 1.584 1.583 1.584c.88 0 1.596-.71 1.596-1.584s-.715-1.583-1.596-1.583z" class="color000000 svgShape"/></svg>