<svg width="1600" height="1600" viewBox="0 0 1600 1600" fill="none" xmlns="http://www.w3.org/2000/svg">
<g clip-path="url(#clip0_221_625)">
<path d="M1501.46 661.778C1553.39 956.292 1356.74 1237.14 1062.22 1289.07C767.706 1341 486.857 1144.35 434.926 849.836C382.995 555.322 579.648 274.473 874.163 222.542C1168.68 170.611 1449.53 367.264 1501.46 661.778Z" stroke="url(#paint0_linear_221_625)" stroke-width="7.79125"/>
<path d="M1393.13 720.438C1441.32 993.764 1258.82 1254.41 985.492 1302.6C712.166 1350.8 451.521 1168.29 403.326 894.966C355.132 621.641 537.637 360.997 810.963 312.802C1084.29 264.607 1344.93 447.112 1393.13 720.438Z" stroke="url(#paint1_linear_221_625)" stroke-width="7.79125"/>
<path d="M1284.8 779.098C1329.26 1031.24 1160.9 1271.67 908.763 1316.13C656.625 1360.59 416.185 1192.23 371.727 940.097C327.268 687.959 495.625 447.52 747.764 403.062C999.902 358.603 1240.34 526.96 1284.8 779.098Z" stroke="url(#paint2_linear_221_625)" stroke-width="7.79125"/>
<path d="M1176.48 837.759C1217.2 1068.71 1062.99 1288.94 832.038 1329.67C601.088 1370.39 380.853 1216.18 340.13 985.229C299.408 754.279 453.617 534.045 684.568 493.323C915.518 452.6 1135.75 606.809 1176.48 837.759Z" stroke="url(#paint3_linear_221_625)" stroke-width="7.79125"/>
<path d="M1068.14 896.419C1105.13 1106.18 965.069 1306.21 755.307 1343.2C545.544 1380.18 345.515 1240.12 308.528 1030.36C271.542 820.598 411.604 620.569 621.366 583.582C831.128 546.596 1031.16 686.658 1068.14 896.419Z" stroke="url(#paint4_linear_221_625)" stroke-width="7.79125"/>
<path d="M959.818 955.08C993.069 1143.65 867.154 1323.48 678.58 1356.73C490.006 1389.98 310.181 1264.07 276.931 1075.49C243.68 886.918 369.595 707.094 558.169 673.843C746.743 640.592 926.567 766.507 959.818 955.08Z" stroke="url(#paint5_linear_221_625)" stroke-width="7.79125"/>
<path d="M851.487 1013.73C881.001 1181.11 769.235 1340.73 601.849 1370.25C434.463 1399.76 274.843 1288 245.328 1120.61C215.814 953.225 327.581 793.606 494.967 764.091C662.353 734.577 821.972 846.343 851.487 1013.73Z" stroke="url(#paint6_linear_221_625)" stroke-width="7.79125"/>
<path d="M743.158 1072.39C768.937 1218.59 671.318 1358 525.12 1383.78C378.922 1409.56 239.507 1311.94 213.729 1165.74C187.95 1019.54 285.569 880.13 431.767 854.351C577.965 828.572 717.38 926.191 743.158 1072.39Z" stroke="url(#paint7_linear_221_625)" stroke-width="7.79125"/>
<path d="M615.651 1134.44C637.694 1259.45 554.222 1378.66 429.212 1400.7C304.203 1422.74 184.993 1339.27 162.95 1214.26C140.908 1089.25 224.379 970.041 349.389 947.998C474.399 925.956 593.608 1009.43 615.651 1134.44Z" stroke="url(#paint8_linear_221_625)" stroke-width="7.79125"/>
<path d="M507.319 1193.09C525.625 1296.91 456.302 1395.91 352.48 1414.22C248.658 1432.52 149.654 1363.2 131.347 1259.38C113.041 1155.56 182.364 1056.55 286.186 1038.25C390.008 1019.94 489.012 1089.26 507.319 1193.09Z" stroke="url(#paint9_linear_221_625)" stroke-width="7.79125"/>
<path d="M379.81 1255.13C394.381 1337.77 339.205 1416.57 256.571 1431.14C173.938 1445.71 95.1383 1390.53 80.5678 1307.9C65.9973 1225.26 121.173 1146.46 203.807 1131.89C286.44 1117.32 365.24 1172.5 379.81 1255.13Z" stroke="url(#paint10_linear_221_625)" stroke-width="7.79125"/>
<path d="M271.479 1313.79C282.314 1375.24 241.285 1433.83 179.84 1444.67C118.394 1455.5 59.8 1414.47 48.9655 1353.03C38.131 1291.58 79.1593 1232.99 140.605 1222.15C202.05 1211.32 260.645 1252.35 271.479 1313.79Z" stroke="url(#paint11_linear_221_625)" stroke-width="7.79125"/>
<path d="M163.151 1372.44C170.249 1412.7 143.369 1451.09 103.111 1458.19C62.8538 1465.29 24.4643 1438.41 17.3658 1398.15C10.2674 1357.89 37.148 1319.5 77.4054 1312.4C117.663 1305.3 156.052 1332.18 163.151 1372.44Z" stroke="url(#paint12_linear_221_625)" stroke-width="7.79125"/>
</g>
<defs>
<linearGradient id="paint0_linear_221_625" x1="873.486" y1="218.706" x2="1062.9" y2="1292.91" gradientUnits="userSpaceOnUse">
<stop stop-color="white" stop-opacity="0.18"/>
<stop offset="1" stop-color="white"/>
</linearGradient>
<linearGradient id="paint1_linear_221_625" x1="810.287" y1="308.966" x2="986.168" y2="1306.44" gradientUnits="userSpaceOnUse">
<stop stop-color="white" stop-opacity="0.18"/>
<stop offset="1" stop-color="white"/>
</linearGradient>
<linearGradient id="paint2_linear_221_625" x1="747.087" y1="399.225" x2="909.439" y2="1319.97" gradientUnits="userSpaceOnUse">
<stop stop-color="white" stop-opacity="0.18"/>
<stop offset="1" stop-color="white"/>
</linearGradient>
<linearGradient id="paint3_linear_221_625" x1="683.891" y1="489.486" x2="832.714" y2="1333.5" gradientUnits="userSpaceOnUse">
<stop stop-color="white" stop-opacity="0.18"/>
<stop offset="1" stop-color="white"/>
</linearGradient>
<linearGradient id="paint4_linear_221_625" x1="620.689" y1="579.746" x2="755.982" y2="1347.03" gradientUnits="userSpaceOnUse">
<stop stop-color="white" stop-opacity="0.18"/>
<stop offset="1" stop-color="white"/>
</linearGradient>
<linearGradient id="paint5_linear_221_625" x1="557.492" y1="670.007" x2="679.256" y2="1360.57" gradientUnits="userSpaceOnUse">
<stop stop-color="white" stop-opacity="0.18"/>
<stop offset="1" stop-color="white"/>
</linearGradient>
<linearGradient id="paint6_linear_221_625" x1="494.29" y1="760.255" x2="602.525" y2="1374.08" gradientUnits="userSpaceOnUse">
<stop stop-color="white" stop-opacity="0.18"/>
<stop offset="1" stop-color="white"/>
</linearGradient>
<linearGradient id="paint7_linear_221_625" x1="431.091" y1="850.514" x2="525.796" y2="1387.62" gradientUnits="userSpaceOnUse">
<stop stop-color="white" stop-opacity="0.18"/>
<stop offset="1" stop-color="white"/>
</linearGradient>
<linearGradient id="paint8_linear_221_625" x1="348.713" y1="944.162" x2="429.888" y2="1404.53" gradientUnits="userSpaceOnUse">
<stop stop-color="white" stop-opacity="0.18"/>
<stop offset="1" stop-color="white"/>
</linearGradient>
<linearGradient id="paint9_linear_221_625" x1="285.509" y1="1034.41" x2="353.156" y2="1418.05" gradientUnits="userSpaceOnUse">
<stop stop-color="white" stop-opacity="0.18"/>
<stop offset="1" stop-color="white"/>
</linearGradient>
<linearGradient id="paint10_linear_221_625" x1="203.13" y1="1128.06" x2="257.248" y2="1434.97" gradientUnits="userSpaceOnUse">
<stop stop-color="white" stop-opacity="0.18"/>
<stop offset="1" stop-color="white"/>
</linearGradient>
<linearGradient id="paint11_linear_221_625" x1="139.928" y1="1218.32" x2="180.516" y2="1448.5" gradientUnits="userSpaceOnUse">
<stop stop-color="white" stop-opacity="0.18"/>
<stop offset="1" stop-color="white"/>
</linearGradient>
<linearGradient id="paint12_linear_221_625" x1="76.7289" y1="1308.57" x2="103.788" y2="1462.02" gradientUnits="userSpaceOnUse">
<stop stop-color="white" stop-opacity="0.18"/>
<stop offset="1" stop-color="white"/>
</linearGradient>
<clipPath id="clip0_221_625">
<rect width="1600" height="1600" fill="white"/>
</clipPath>
</defs>
</svg>
