<svg xmlns="http://www.w3.org/2000/svg" enable-background="new 0 0 69 69" viewBox="0 0 69 69"><path fill="#fff" d="M35.7 17.9c.1.6.2 1.3.2 2 0 .2.2.4.4.4 0 0 0 0 0 0 .2 0 .4-.2.4-.4 0-.8-.1-1.5-.2-2.1 0-.2-.2-.3-.4-.3C35.8 17.5 35.7 17.7 35.7 17.9zM32.8 13.8c-.2 0-.4.2-.4.4s.2.4.4.4c1 0 1.7.4 2.2 1.2.1.2.3.2.5.1.2-.1.2-.3.1-.5C35 14.3 34 13.8 32.8 13.8z" class="color000000 svgShape"/><path fill="#fff" d="M9,46.4c5.1,3,6.4,4.1,9.7,4.1c2.1,0,4.4-0.6,6.8-1.9c-0.1,1-0.2,1.9-0.2,2.9c0,4.4,1.4,9.1,5.2,11.3
		c5.3,3.1,9.1,6.6,17.5,1.8c9.4-5.5,17.1-18.7,17.1-29.6c0-5.3-1.8-9.3-5.2-11.2c-1.8-1-5.3-3.1-5.1-2.9c-3.5-2.1-7.9-1.2-11.5,0.6
		c0.1-1,0.2-1.9,0.2-2.9c0-9-5.1-11.1-5.2-11.3l-5-2.9c-1.6-0.9-3.5-1.3-5.6-1.2c-2.2,0.2-4.5,1-6.9,2.3
		C11.5,11.1,3.8,24.3,3.8,35.2c0,2.8,0.5,5.3,1.5,7.3C6.3,44.2,7.5,45.5,9,46.4z M64.2,35c0,10.5-7.4,23.4-16.6,28.7
		c-7.3,4.2-12.6,2.1-14.8-2.5C27.7,50.7,37.3,30.6,49.6,25C57.5,21.3,64.1,25,64.2,35z M49.3,20.7l3.6,2.1c-1,0.2-2.5,0.7-3.8,1.3
		C36.6,30,27.3,49.4,31.3,60.4c-0.1-0.1-3.8-2.2-3.6-2.1c-1.7-3.4-1.6-7.7-0.9-11.4C29.1,34.4,39.6,21.6,49.3,20.7z M37,26.2
		c-4.1,4-7.5,9.2-9.6,14.7c-0.8,0.7-1.7,1.3-2.6,1.8c-6.3,3.6-10.4,1-10.4-5.9c0-8.2,6-18.7,13.2-22.9C36.5,8.9,39.9,16.4,37,26.2z
		 M42.4,22.1c-1.5,0.9-2.9,1.9-4.3,3.1c0.5-1.8,0.7-3.6,0.7-5.3c0-7.7-4.8-10.4-11.5-6.5c-7.4,4.3-13.6,15-13.6,23.5
		c0,7.6,4.8,10.4,11.5,6.6c0.6-0.4,1.2-0.8,1.8-1.2c-0.6,1.8-1,3.6-1.3,5.3c-9,5-15.8,0.5-15.8-9.4c0-10.5,7.4-23.5,16.8-28.8
		C37,3.4,44.1,10.1,42.4,22.1z M21.4,6.5c2.2-1.3,4.3-2,6.4-2.2c0.2,0.1,3.9,2.3,3.6,2.1c-1.5,0.3-3.5,1-5.5,2.1c0,0,0,0,0,0
		C16.6,13.9,8.8,27.2,8.9,38.1c0,0,0,0,0,0c0,2.2,0.4,4.3,0.9,5.8l-3.6-2.1c-0.9-1.8-1.4-4.1-1.4-6.7C4.8,24.6,12.2,11.8,21.4,6.5z" class="color000000 svgShape"/><path fill="#fff" d="M48.8,29.8c-7.4,4.3-13.6,15-13.6,23.5c0,7.7,4.9,10.4,11.5,6.6c7.4-4.3,13.6-15,13.6-23.5C60.3,28.6,55.4,25.9,48.8,29.8z
		 M46.4,59.2C40.2,62.7,36,60.3,36,53.3c0-8.2,6-18.7,13.2-22.9c6.2-3.6,10.4-1.1,10.4,5.9C59.6,44.5,53.6,55,46.4,59.2z" class="color000000 svgShape"/><path fill="#fff" d="M57.5 35.5c0 .2.2.4.4.4 0 0 0 0 0 0 .2 0 .4-.2.4-.4 0-.8-.1-1.5-.2-2.1 0-.2-.2-.3-.4-.3-.2 0-.3.2-.3.4C57.5 34.1 57.5 34.8 57.5 35.5zM54.3 30.2c-.2 0-.4.2-.4.4s.2.4.4.4c1 0 1.7.4 2.2 1.2.1.2.3.2.5.1.2-.1.2-.3.1-.5C56.5 30.7 55.6 30.2 54.3 30.2zM45.4 44.1l0 4.2-2.6-2.8c-.3-.3-.9.3-.9.8l0 4.7c0 .5.6.1.6-.4l0-4.2 2.6 2.9c.3.3.9-.3.9-.8l0-4.7C46 43.3 45.4 43.6 45.4 44.1zM50.3 40.9l-2.7 1.5c-.2.1-.3.3-.3.5l0 4.8c0 .5.6.1.6-.4l0-2.1 2.1-1.2c.1 0 .2-.1.2-.2.2-.3.1-.6-.2-.5L48 44.7l0-1.7 2.3-1.3C50.7 41.4 50.7 40.7 50.3 40.9zM54.6 38.4l-3.4 2c-.4.2-.4.9 0 .7l1.4-.8 0 4.5c0 .5.6.1.6-.4l0-4.5c1.4-.8 1.4-.8 1.6-1C55 38.6 54.9 38.3 54.6 38.4zM26.5 21.3c0-.1-.1-.1-.2 0-.1 0-.2.1-.2.3l-3.5 8.7c-.1.2 0 .3.1.3l3.6.5c.1 0 .2-.1.3-.2l3.5-4.6C30 26.2 30 26 30 25.9L26.5 21.3z" class="color000000 svgShape"/><path fill="#fff" d="M29.2 28.5c0 0-.1.1-.1.1L26.4 32c-.1.1-.2.2-.3.2L23.4 32c-.2 0-.5.5-.3.6l3 2.9c.1 0 .1 0 .2 0 .1 0 .2-.1.2-.2l2.9-6.3C29.5 28.6 29.4 28.4 29.2 28.5zM51.5 14.2l2.8 3.1c.5.5 1.3.2 1.6-.6l2.8-6.3c.4-1-.4-1.7-1.1-1.3l-2 1.2 0-4.2c0-3.7-2.7-5.2-5.9-3.4l-5.4 3.1C43.9 6 43.9 6.3 44 6.6c.1.2.4.3.7.2l5.4-3.1c2.5-1.5 4.4-.4 4.4 2.5l0 4.8L52 12.4C51.4 12.7 51 13.7 51.5 14.2zM52.5 13.3l5.1-3c-3 6.8-2.6 6.1-2.7 6.2l-2.6-2.9C52.3 13.6 52.4 13.3 52.5 13.3zM17.5 55.5l-2.8-3.1c-.4-.5-1.3-.3-1.6.6l-2.7 6.3c-.4 1 .3 1.7 1.1 1.3l2.1-1.2 0 2.4c0 3.6 2.7 5.2 5.9 3.4l5.4-3.1c.2-.1.3-.4.2-.7C25 61 24.7 61 24.4 61.1L19 64.2c-2.5 1.4-4.4.4-4.4-2.5l0-3 2.4-1.4C17.6 57 18 56 17.5 55.5zM16.5 56.5c-.1.1-5.4 3.1-5.1 2.9 2.8-6.3 2.6-6.1 2.7-6.2l2.6 2.9C16.7 56.1 16.6 56.4 16.5 56.5z" class="color000000 svgShape"/></svg>