<svg width="80" height="80" viewBox="0 0 80 80" fill="none" xmlns="http://www.w3.org/2000/svg">
<path d="M25.973 42.4829C34.2825 42.4829 41.0187 35.7467 41.0187 27.4372C41.0187 19.1277 34.2825 12.3915 25.973 12.3915C17.6634 12.3915 10.9272 19.1277 10.9272 27.4372C10.9272 35.7467 17.6634 42.4829 25.973 42.4829Z" fill="#006CED"/>
<path d="M68.5278 53.07C68.5278 60.8076 62.2588 67.0765 54.5322 67.0765C46.7946 67.0765 40.5366 60.8076 40.5366 53.07C40.5366 45.3435 46.7946 39.0745 54.5322 39.0745C62.2588 39.0745 68.5278 45.3435 68.5278 53.07Z" fill="#FF614B"/>
<path d="M44.8834 12.417C50.3894 7.60131 58.9082 7.73634 61.9796 14.4427C58.614 14.123 56.0727 16.3247 55.701 18.7842C55.3312 21.249 57.4081 23.7173 59.7244 23.5791C62.1693 23.4682 64.6039 20.6108 64.0715 16.5214C69.2953 19.0271 71.6158 26.4243 67.7505 32.5831L66.8924 29.7775C66.7773 29.4008 66.3755 29.1888 66.0009 29.3032C65.6235 29.419 65.4108 29.818 65.5266 30.196L67.0109 35.0496C67.154 35.5156 67.7123 35.7071 68.1145 35.4179L72.6659 32.1017C72.9847 31.8688 73.0552 31.4223 72.8222 31.1028C72.5906 30.7848 72.1442 30.715 71.8247 30.9466L69.2663 32.8109C73.4839 25.392 69.9089 16.9208 63.6774 14.8124C61.0238 6.82398 50.8428 5.30222 43.9431 11.3428C43.646 11.6023 43.616 12.0529 43.8755 12.3501C44.1357 12.6486 44.587 12.6765 44.8834 12.417ZM59.6595 22.1533C58.0577 22.1603 56.8957 20.4433 57.1142 18.9963C57.3949 17.1347 59.5648 15.3368 62.5111 15.9773C63.339 19.4602 61.4804 22.0693 59.6595 22.1533ZM38.2044 70.0384C32.4616 71.8353 25.9081 70.3551 21.5045 66.2563C17.1635 62.2157 15.223 55.9119 16.4948 50.1272C16.6152 50.3097 16.3424 49.8796 19.6958 55.2477C19.9093 55.5893 20.3541 55.6807 20.68 55.4751C21.0148 55.2672 21.1167 54.8263 20.9081 54.4915L17.8173 49.5431C16.6071 47.6045 15.0595 47.4921 13.6871 49.5152L11.0044 53.4675C10.7826 53.794 10.8677 54.239 11.1941 54.4608C11.5213 54.6812 11.9649 54.5961 12.186 54.2711C15.09 49.9944 14.9102 50.2509 15.0399 50.0788C13.7753 56.2771 15.891 62.9829 20.5308 67.3026C25.3179 71.7565 32.4273 73.3511 38.6327 71.4C39.0087 71.2828 39.218 70.881 39.1001 70.5057C38.9822 70.1291 38.5811 69.91 38.2044 70.0384Z" fill="white"/>
<path d="M45.6561 34.6561C46.5014 32.3569 46.9446 29.9417 46.9446 27.4436C46.9446 10.2122 27.2911 0.427354 13.5497 10.5393C13.2323 10.7723 13.1639 11.2201 13.3976 11.5368C13.632 11.8562 14.0777 11.9246 14.3965 11.6888C27.186 2.27942 45.516 11.3697 45.516 27.4436C45.516 30.3603 44.8846 33.1573 43.6536 35.7643C40.4431 37.7901 37.8412 40.6777 36.1616 44.1065C23.3286 52.0176 6.43052 42.7827 6.43052 27.4436C6.43052 22.4547 8.29506 17.717 11.6802 14.1023C11.9502 13.8149 11.9355 13.3629 11.6475 13.0923C11.3587 12.8244 10.9067 12.8356 10.6381 13.1258C7.00321 17.0055 5.00195 22.0906 5.00195 27.4436C5.00195 43.0076 21.4192 53.116 35.268 46.227C30.488 59.6437 40.5336 73.5485 54.5325 73.5485C65.8174 73.5485 74.9978 64.3604 74.9978 53.0672C74.9978 38.0893 59.2812 28.0598 45.6561 34.6561ZM54.5325 72.1199C44.0359 72.1199 35.4958 63.5722 35.4958 53.0672C35.4958 42.5705 44.0359 34.0312 54.5325 34.0312C65.0292 34.0312 73.5692 42.5705 73.5692 53.0672C73.5692 63.5722 65.0292 72.1199 54.5325 72.1199Z" fill="white"/>
<path d="M57.7089 52.4312C59.253 51.2309 59.4187 49.3185 58.5454 47.9723C57.5067 46.3708 55.9068 46.3863 53.982 46.4159V45.6969C53.982 45.3021 53.6626 44.9827 53.2678 44.9827C52.8729 44.9827 52.5535 45.3021 52.5535 45.6969V46.4364C51.7028 46.4466 51.2902 46.4397 49.9342 46.4419C49.5394 46.4419 49.2199 46.7614 49.2199 47.1562C49.2199 47.551 49.5394 47.8705 49.9342 47.8705H50.7971V58.0946C50.7173 58.0866 50.6361 58.0886 50.5564 58.0798C50.1693 58.0393 49.8114 58.3183 49.7668 58.7103C49.7235 59.1024 50.0053 59.4553 50.3974 59.5C50.6502 59.5283 52.4105 59.6174 52.5535 59.6198V60.4514C52.5535 60.8462 52.8729 61.1657 53.2678 61.1657C53.6626 61.1657 53.982 60.8462 53.982 60.4514V59.597C54.8098 59.5598 55.8664 59.5571 57.008 59.1819C59.5044 58.3654 60.3724 56.0306 59.5436 54.1414C59.2365 53.4427 58.5185 52.8431 57.7089 52.4312ZM57.347 48.7508C57.6511 49.2195 57.7251 49.8376 57.5409 50.3635C57.1137 51.5904 55.9474 51.8296 54.7019 52.0013C53.9078 52.1103 53.0246 52.1531 52.2256 52.1256V47.8698C55.0992 47.8644 56.5783 47.5642 57.347 48.7508ZM56.563 57.8245C55.3946 58.2091 53.4588 58.2238 52.2256 58.1823V53.5441C53.2969 53.5781 54.323 53.5453 55.6556 53.2911C56.587 53.3157 57.949 54.0642 58.2357 54.7162C58.7336 55.8505 58.2554 57.2712 56.563 57.8245ZM28.5286 20.7067C28.9221 20.676 29.2157 20.3328 29.185 19.9394C29.1543 19.546 28.7993 19.2279 28.417 19.2837C25.5156 19.5111 23.2377 21.4815 22.4116 24.001L20.246 24.1707C19.8526 24.2014 19.5589 24.5446 19.5896 24.938C19.6234 25.3691 20.0316 25.642 20.3576 25.5937L22.1159 25.4559C22.0069 26.5597 22.1392 26.9112 22.1582 27.0542L20.4825 27.1855C20.089 27.2162 19.7954 27.5594 19.8261 27.9528C19.8599 28.3839 20.268 28.6568 20.5941 28.6085L22.5006 28.459C23.5834 31.4924 26.4811 33.2591 29.4926 33.0072C29.8861 32.9765 30.1797 32.6333 30.149 32.2399C30.1183 31.8465 29.7758 31.5521 29.381 31.5842C27.1529 31.7549 24.9702 30.5835 23.9823 28.343L27.5542 28.063C27.9476 28.0323 28.2413 27.6891 28.2106 27.2957C28.1799 26.9023 27.8367 26.5814 27.4426 26.64L23.5826 26.9425C23.5605 26.7926 23.4179 26.3796 23.5708 25.3419L27.3177 25.0482C27.7111 25.0175 28.0048 24.6743 27.9741 24.2809C27.9427 23.8875 27.5925 23.5652 27.2061 23.6252L24.0199 23.875C24.9182 21.9278 26.6593 20.8539 28.5286 20.7067Z" fill="white"/>
</svg>
