<svg xmlns="http://www.w3.org/2000/svg" enable-background="new 0 0 68 68" viewBox="0 0 68 68"><path fill="#fff" d="M10.8938828 22.9988308l.3400269-.3200684-.539978-.9399414-.4500122.1300049c-.1799927-.2299805-.3800049-.4400635-.5900269-.6199951l-.0799561-.6899414-.7700195-.4500732-.0800171.5999756c-.2099609-.0600586-.4099731-.0799561-.5899658-.0600586l-.4500122-.6499023L7.133934 20.3088894l.3399658.7199707c-.1099854.1398926-.1900024.3199463-.2399902.5300293L6.673912 21.3287868l-.0100098.8900146.5599976.4100342c.0499878.2698975.1300049.5499268.2399902.8199463l-.3399658.3200684.5499878.9399414.4500122-.1300049c.1799927.2301025.3800049.4400635.5899658.6199951l.0700073.6900635.7800293.4499512.0799561-.5999756c.210022.0700684.4100342.0899658.5900269.0600586l.4500122.6499023.539978-.3099365-.3300171-.7200928c.1100464-.1398926.1900024-.3199463.2400513-.5299072l.5599976.2299805v-.8900146l-.5500488-.4099121C11.093895 23.5488796 11.0039291 23.2688503 10.8938828 22.9988308zM9.2138901 24.3688259c-.5599976-.3299561-1.0199585-1.1199951-1.0199585-1.7700195s.4599609-.9100342 1.0299683-.5899658c.5700073.3299561 1.0200195 1.1199951 1.0200195 1.7700195C10.2439194 24.4387722 9.7838974 24.698782 9.2138901 24.3688259zM62.3455429 52.8074226l.0097656-3.9326172c0-.0009766 0-.0019531 0-.0029297s0-.0009766 0-.0009766c0-.0009766-.0011597-.001709-.0011597-.0026855 0-.0004883.0001831-.0007324.0001831-.0012207-.0004272-.2148438-.0706787-.4194336-.1879272-.6113281.7636719-.0780029 1.1123047-.7280273 1.1146851-1.4990234l.0664063-22.998045c.0039063-1.3779297-.7333984-2.6640625-1.9248047-3.3554688L29.800621 2.0457053h-.0009766c-1.4008789-.8184816-3.1689453.194458-3.1689453 1.8232422l-.0136719 22.015625c-.0026855.8339844.4066162 1.7885742 1.0020752 2.5007324-.8759155-.1262207-1.8301392.0065918-2.5264893.4104004L4.878746 40.5427742c-.5446167.3168945-.8442993.7524414-.848877 1.2265625-.0001221.003418-.0036621.0053711-.0036621.0087891l-.0097656 3.9277344c0 .4804688.3164063.9365234.8671875 1.2490234L37.494957 65.7878952c1.0556641.6057129 2.7146606.6108398 3.78125-.0009766l20.2128906-11.7509804C62.0408554 53.7156258 62.3455429 53.2781258 62.3455429 52.8074226zM27.1170273 25.8855495l.0136719-22.0166016c0-1.2402344 1.3403931-2.0137939 2.4189453-1.3916016h-.0009766l31.6220703 18.3574219c1.0380859.6025391 1.6806641 1.7226563 1.6767578 2.921875l-.0664063 22.998045c-.0019531.8896484-.5435791 1.2697754-1.3518066.8325195l-32.548584-18.7924786c-.0183105-.010498-.039856-.0175781-.0585327-.0275879l-.0703735-.0407715C27.8621445 28.2136745 27.113121 26.9128933 27.1170273 25.8855495zM52.5119858 44.8474617l-1.6087036.9174805c-.1442261.0822754-.3557129.0759277-.4897461 0l-1.7532349-.9934082c-.1339722-.0759277-.145813-.1960449-.0015869-.2783203l1.6087036-.9172363c.1442261-.0822754.3668213-.0822754.5007935-.0063477l1.7532349.9931641C52.6554184 44.6387215 52.6562119 44.7651863 52.5119858 44.8474617zM53.6063461 45.4675789c.1442261-.0822754.3667603-.0822754.5119629 0l1.7420654.9868164c.1451416.0822754.1459351.2087402.001709.2910156l-1.6087036.9174805c-.1442261.0822754-.3557129.0759277-.5009155-.0063477l-1.7420654-.9870605c-.1451416-.0822754-.1569824-.2023926-.0127563-.284668L53.6063461 45.4675789zM39.3553085 40.950489l-1.6196899.923584c-.1331787.0759277-.3557739.0759277-.4897461 0l-1.7532349-.9931641c-.1340332-.0759277-.1347656-.2023926-.0015869-.2783203l1.619751-.9238281c.1331787-.0759277.3557129-.0759277.4897461 0l1.7531738.9934082C39.4877548 40.7480965 39.4884872 40.8745613 39.3553085 40.950489zM40.4497299 41.5703621c.1331787-.0759277.3557129-.0759277.5009155.0063477l1.7420654.9870605c.1451416.0822754.1347656.2023926.0015869.2783203l-1.619751.923584c-.1331787.0759277-.3446045.0822754-.4897461 0l-1.7420654-.9868164c-.1452026-.0822754-.1459351-.2087402-.0127563-.284668L40.4497299 41.5703621zM36.0163803 39.0588875l-1.6196899.923584c-.1331787.0759277-.3557739.0759277-.4897461 0l-1.7532349-.9931641c-.1340332-.0759277-.1347656-.2026367-.0016479-.2785645l1.619751-.923584c.1331787-.0759277.3557739-.0759277.4897461 0l1.7532349.9934082C36.1488266 38.8564949 36.149559 38.9829597 36.0163803 39.0588875zM32.8862534 40.5645027c.1339722.0759277.1346436.2023926.0015869.2783203l-1.619812.9238281c-.1331177.0759277-.3557739.0759277-.4897461 0l-1.7532349-.9934082c-.1340332-.0759277-.1347046-.2023926-.0015869-.2783203l1.619812-.923584c.1330566-.0759277.3557129-.0759277.4897461 0L32.8862534 40.5645027zM32.3623886 42.3865242l1.619812-.923584c.1331177-.0759277.3557129-.0759277.4897461 0l1.7532349.9931641c.1339722.0759277.1346436.2023926.0015869.2783203l-1.619812.9238281c-.1331177.0759277-.3557739.0759277-.4897461 0l-1.7532349-.9934082C32.2299423 42.5891609 32.2292709 42.4624519 32.3623886 42.3865242zM35.7013168 44.2781258l1.619812-.923584c.1331177-.0759277.3557129-.0759277.5009155.0063477l1.7420654.9868164c.1451416.0822754.1347046.2026367.0015869.2783203l-1.619812.9238281c-.1331177.0759277-.3446045.0822754-.4897461 0l-1.7420654-.9870605C35.5688705 44.4807625 35.5681992 44.3540535 35.7013168 44.2781258zM39.0514145 46.176075l1.619812-.923584c.1331177-.0759277.3557739-.0759277.4897461 0l1.7532349.9931641c.1339722.0759277.1347046.2026367.0015869.2783203l-1.619812.9238281c-.1331177.0759277-.3557739.0759277-.4897461 0l-1.7532349-.9931641C38.9190292 46.3787117 38.9182968 46.2520027 39.0514145 46.176075zM42.1816635 44.6704597c-.1339722-.0759277-.1347656-.2023926-.0015869-.2783203l1.619751-.9238281c.1331787-.0759277.3557129-.0759277.4897461 0l1.7532349.9934082c.1339722.0759277.1347656.2023926.0015869.2783203l-1.619751.923584c-.1331787.0759277-.3557739.0759277-.4897461 0L42.1816635 44.6704597zM45.5190048 46.283741l1.619751-.9238281c.1331787-.0759277.3557129-.0759277.4897461 0l1.7532349.9934082c.1339722.0759277.1347656.2023926.0015869.2783203l-1.619751.923584c-.1331787.0759277-.3557739.0759277-.4897461 0l-1.7532349-.9931641C45.3866196 46.4861336 45.3858261 46.3596687 45.5190048 46.283741zM49.1730576 42.9558601l-1.6087036.9174805c-.1442261.0822754-.3557129.0759277-.4897461 0l-1.7532349-.9934082c-.1339722-.0759277-.145813-.1960449-.0015869-.2783203l1.6087036-.9172363c.1442261-.0822754.3668213-.0822754.5007935-.0063477l1.7532349.9931641C49.3164902 42.7471199 49.3172836 42.8735847 49.1730576 42.9558601zM45.8229599 41.0579109l-1.6087036.9174805c-.1442261.0822754-.3446045.0820313-.4897461 0l-1.7420654-.9870605c-.1451416-.0822754-.1569824-.2023926-.0127563-.284668l1.6087036-.9172363c.1442261-.0822754.3667603-.0822754.5119629 0l1.7420654.9868164C45.977562 40.8555183 45.967186 40.9756355 45.8229599 41.0579109zM42.4839706 39.1663094l-1.6086426.9174805c-.1442261.0820313-.3557739.0756836-.4897461 0l-1.7532349-.9934082c-.1339722-.0759277-.145813-.1960449-.0015869-.2783203l1.6087036-.9174805c.1442261-.0820313.3667603-.0820313.5007935-.0061035l1.7531738.9931641C42.6274643 38.9575691 42.6282578 39.084034 42.4839706 39.1663094zM39.1450424 37.2747078l-1.6086426.9172363c-.1442261.0822754-.3557739.0759277-.4897461 0l-1.7532349-.9931641c-.1339722-.0759277-.145813-.1960449-.0015869-.2783203l1.6086426-.9174805c.1442261-.0822754.3668213-.0820313.5008545-.0061035l1.7531738.9931641C39.2885361 37.0659676 39.2893295 37.1924324 39.1450424 37.2747078zM35.7949448 35.3767586l-1.6086426.9172363c-.1442261.0822754-.3557739.0759277-.4897461 0l-1.7420654-.9868164c-.1452026-.0822754-.1569824-.2023926-.0127563-.284668l1.6086426-.9174805c.1442261-.0820313.3668213-.0820313.5120239 0l1.7420044.9870605C35.9384384 35.1680183 35.9392319 35.2944832 35.7949448 35.3767586zM32.4560165 33.485157l-1.6087036.9172363c-.1442261.0822754-.3557129.0759277-.4897461 0l-1.7531738-.9931641c-.1340332-.0759277-.145813-.1960449-.0015869-.2783203l1.6086426-.9174805c.1442261-.0822754.3668213-.0820313.5008545-.0063477l1.7531738.9934082C32.5995102 33.2764168 32.6002426 33.4028816 32.4560165 33.485157zM30.4217148 35.8892097c.1331787-.0759277.3557739-.0759277.5009155.0063477l1.7420654.9870605c.1340332.0759277.1347656.2023926.0015869.2783203l-1.6196899.923584c-.1331787.0759277-.3557739.0759277-.4897461 0l-1.7420654-.9868164c-.1452026-.0822754-.1459351-.2087402-.0128174-.2849121L30.4217148 35.8892097zM29.5361557 38.3616219c.1339722.0759277.1346436.2023926.0015869.2783203l-1.619812.923584c-.1331177.0759277-.3557739.0759277-.4897461 0l-1.7420654-.9868164c-.1452026-.0822754-.145874-.2087402-.0127563-.284668l1.619812-.9238281c.1330566-.0759277.3557129-.0759277.5009155.0063477L29.5361557 38.3616219zM26.1987534 37.0532722l-1.619812.9238281c-.1330566.0759277-.3557129.0759277-.4897461 0l-1.7531738-.9934082c-.1340332-.0759277-.1347046-.2023926-.0015869-.2783203l1.619812-.923584c.1330566-.0759277.3557129-.0759277.4897461 0l1.7531738.9931641C26.3311996 36.8508797 26.331871 36.9773445 26.1987534 37.0532722zM23.057457 38.5654793c.1340332.0759277.145752.1960449.0015869.2783203l-1.6087646.9172363c-.1442261.0822754-.3667603.0822754-.5007935.0063477l-1.7531738-.9931641c-.1340332-.0759277-.1348267-.2023926.0094604-.284668l1.6087036-.9174805c.144165-.0820313.3557739-.0759277.4898071 0L23.057457 38.5654793zM22.5447006 40.3811531l1.6087036-.9174805c.144165-.0820313.3557739-.0759277.5009766.0063477L43.1134262 49.927784c.1339722.0759277.145752.1960449.0015869.2783203l-1.6087646.9174805c-.1442261.0822754-.3668213.0822754-.5007935.0063477L22.5464001 40.6721687C22.401207 40.5898933 22.4004135 40.4634285 22.5447006 40.3811531zM42.6006088 51.7434578l1.6087646-.9172363c.144165-.0822754.3557129-.0759277.5009155.0063477l1.7420654.9868164c.1451416.0822754.1569214.2023926.0127563.284668l-1.6087646.9174805c-.1442261.0822754-.3668213.0822754-.5119629 0l-1.7420654-.9870605C42.4571762 51.952198 42.4563828 51.8257332 42.6006088 51.7434578zM45.9507065 53.641407l1.6087646-.9172363c.144165-.0822754.3557129-.0759277.4897461 0l1.7532349.9931641c.1340332.0759277.145752.1962891.0015869.2783203l-1.6087646.9174805c-.1442261.0822754-.3667603.0822754-.5007935.0063477L45.941246 53.926075C45.8072739 53.8501472 45.8064804 53.7236824 45.9507065 53.641407zM42.3919296 48.346241c-.1339722-.0759277-.1347046-.2026367-.0015869-.2785645l1.619812-.923584c.1331177-.0759277.3557739-.0759277.4897461 0l8.4422607 4.7827148c.1340332.0759277.1347046.2026367.0015869.2785645l-1.619812.923584c-.1330566.0759277-.3557129.0759277-.4897461 0L42.3919296 48.346241zM48.8706894 48.4600105c-.1451416-.0822754-.1459351-.2087402-.0127563-.284668l1.619751-.9238281c.1331787-.0759277.3557129-.0756836.5009155.0063477l5.0921631 2.8850098c.1339722.0759277.1347656.2023926.0015869.2783203l-1.619751.923584c-.1331787.0759277-.3557129.0759277-.4897461 0L48.8706894 48.4600105zM55.3493271 48.5610847c-.1339722-.0759277-.145813-.1960449-.0015869-.2783203l1.6087036-.9172363c.1442261-.0822754.3667603-.0822754.5007935-.0063477l1.7532349.9931641c.1340332.0759277.1347656.2023926-.0094604.284668L57.592308 49.554493c-.1442261.0822754-.3557129.0759277-.4897461 0L55.3493271 48.5610847zM25.2638168 31.2393093l1.6087036-.9174805c.1442261-.0822754.3668213-.0822754.5008545-.0063477l1.7531738.9934082c.1340332.0759277.1347656.2023926-.0094604.284668l-1.6087036.9172344c-.1442261.0822754-.3557129.0759277-.4897461 0l-1.7531738-.9931622C25.1314316 31.4417019 25.1195908 31.3215847 25.2638168 31.2393093zM18.9954453 34.8137703l4.7484131-2.7077637c.1442261-.0822754.3557739-.0759277.4897461 0l5.0921631 2.8847656c.1340332.0759277.145813.1962891.0015869.2785645l-1.619751.923584c-.1331787.0759277-.3557129.0759277-.4897461 0l-3.0932617-1.7524414-2.8845825 1.6450195c-.1330566.0756836-.3557129.0759277-.4897461 0l-1.7531738-.9934082C18.86306 35.0161629 18.8623886 34.889698 18.9954453 34.8137703zM15.8667831 36.59795l1.6087646-.9174805c.144165-.0822754.3557739-.0759277.4898071 0l1.7531738.9934082c.1340332.0756836.145752.1960449.0015869.2783203l-1.6087646.9172363c-.1442261.0822754-.3667603.0822754-.5007935.0063477l-1.7531738-.9931641C15.7233505 36.8066902 15.7225571 36.6802254 15.8667831 36.59795zM15.7577133 46.926075l6.0485229-3.4990234c.144165-.0822754.3557739-.0759277.5009155.0063477l14.4182739 8.168457c.1340332.0759277.145813.1960449.0016479.2783203L30.6784897 55.3792c-.1442261.0822754-.3667603.0822754-.5007935.0063477l-14.4182739-8.168457C15.6142197 47.1348152 15.6134872 47.0083504 15.7577133 46.926075zM41.026207 65.3543015c-.9082031.5185547-2.3798828.5185547-3.2822266 0L5.1316757 46.5203133c-.390625-.2216797-.6152344-.5185547-.6152344-.8134766l.0068359-2.9440918c.2503052.2196045 32.8564453 19.0183105 32.9785156 19.088623 1.0656128.6159668 2.7275391.6162109 3.7880859-.0009766L61.503746 50.1042976c.0794678-.0461426.1421509-.0998535.2111206-.1508789.0446777-.032959.0974121-.0625.1375122-.097168l-.0068359 2.9501953c0 .2822266-.2216797.5732422-.6083984.7978516L41.026207 65.3543015z" class="color000000 svgShape"/><path fill="#fff" d="M4.651207 15.7917986c-.0789795.0463867-.125.1300049-.125.2158213l-.0234375 9.328125c0 .0898438.0478516.1728516.125.2177734l8.8388672 5.1035156c.0770874.0444336.1729126.0444336.25 0 .0004272-.0002441.0005493-.0007324.0009766-.0009766l8.7822266-5.1035156c.0761719-.0439453.1240234-.1259766.1240234-.2148438l.0234375-9.328125c0 0-.0001221-.0002441-.0001221-.0004883 0 0 .0001221-.0002441.0001221-.0004883 0-.0898447-.0478516-.171876-.125-.2167978L13.682457 10.688283c-.078125-.0449219-.1728516-.0439453-.2509766.0009766l-8.7789307 5.1022949C4.6521225 15.7917986 4.6516342 15.7915545 4.651207 15.7917986zM22.1238632 25.1921902l-8.2811279 4.8125c.0002441-.0944824.0211182-8.2790527.0223389-8.7480469l8.28125-4.8125L22.1238632 25.1921902zM13.557457 11.1941423l8.3408203 4.8154306c-.1654053.0961914-8.3883057 4.8746338-8.2832031 4.8134766l-8.3398438-4.8154297L13.557457 11.1941423zM5.0252304 16.4414577l8.3394775 4.8151855c-.0003662.1417236-.0233154 9.2241211-.0220947 8.7509766l-8.3398438-4.8154297L5.0252304 16.4414577zM48.1082382 6.1570334c.6119385 0 1.1090088-.4934082 1.1090088-1.1005859s-.4970703-1.1003418-1.1090088-1.1003418c-.6066284 0-1.1004639.4931641-1.1004639 1.1003418S47.5016098 6.1570334 48.1082382 6.1570334zM6.4301987 63.4497566c-.6604004 0-1.1980591.5371094-1.1980591 1.1980019 0 .6608887.5376587 1.197998 1.1980591 1.197998.6661987 0 1.2073364-.5371094 1.2073364-1.197998C7.6375351 63.986866 7.0963974 63.4497566 6.4301987 63.4497566zM16.2011337 9.3423357c.0314941.0307617.0722046.0478516.1156006.0478516.043457 0 .0847168-.0168457.1151123-.0478516l.6950073-.6945801c.0635376-.0634766.0635376-.166748 0-.2302246l-.6982422-.6979976c-.0309448-.0307617-.0716553-.0478516-.1151123-.0478516s-.0841675.0170898-.1151123.0480957l-.694397.6943355c-.0635376.0634766-.0635376.166748 0 .2302246L16.2011337 9.3423357zM61.9895859 17.5022488c.0314941.0307617.0722046.0478516.1156616.0478516s.0847168-.0168457.1151123-.0478516l.6949463-.6948242c.0635376-.0632324.0635376-.1665039 0-.2299805l-.6982422-.697999c-.0309448-.0307617-.0716553-.0478516-.1150513-.0478516-.043457 0-.0841675.0170898-.1151123.0480957l-.694458.6943369c-.0635376.0634766-.0635376.166748 0 .2302246L61.9895859 17.5022488zM64.6735458 3.7712913l-1.135498-1.135498c-.050415-.050293-.1166496-.078125-.1873779-.078125-.0706787 0-.1369629.027832-.1873169.078125L62.0322495 3.765676c-.1033936.1037598-.1033936.2722168 0 .375l1.1364136 1.1359863c.0494995.0505371.1166382.0778809.1873169.0778809s.1378784-.0273438.1873779-.0778809l1.130188-1.1306152C64.7769394 4.0430198 64.7769394 3.8748069 64.6735458 3.7712913zM62.2907944 61.3833504c-.050354-.050293-.1166382-.078125-.1873779-.078125-.0706787 0-.1369629.027832-.1873169.078125l-1.1311035 1.1298828c-.1033936.1037598-.1033936.2722168 0 .3752441l1.1364021 1.1359901c.049511.050293.1166496.0776367.1873283.0776367.0707397 0 .1378784-.0273438.1873779-.0776367l1.130188-1.1308632c.1033936-.1027832.1033936-.2712402 0-.3745117L62.2907944 61.3833504zM4.8863754 5.2590842c.0826416 0 .1611328-.0319824.2189331-.0908203l1.3207397-1.3212891c.1208496-.1203613.1208496-.3168945 0-.4377441L5.099144 2.0823264C5.0402451 2.0234885 4.9627914 1.9907736 4.8802109 1.9907736c-.0826416 0-.1600342.032715-.2189331.0915529L3.3395004 3.4023948c-.1207886.1213379-.1207886.3181152 0 .4384766l1.3280029 1.3273926C4.7253036 5.2271018 4.8037949 5.2590842 4.8863754 5.2590842zM10.1428452 54.766407c-.050354-.050293-.1166382-.078125-.1873169-.078125s-.1369629.027832-.1873779.078125l-1.1311035 1.1298828c-.1033936.1037598-.1033936.2719727 0 .375l1.1364136 1.1359863c.0494995.050293.1166382.0778809.1873779.0778809.0706787 0 .1378174-.0275879.1873169-.0778809l1.130249-1.1306152c.1033936-.1030273.1033936-.2712402 0-.3747559L10.1428452 54.766407zM33.4392929 22.3709011l.168335.0974121-.012146 3.6611328c0 .5900879.4000244 1.2800293.9200439 1.5800781.5314331.3322754 1.1699829.0799561 1.1699829-.6599121l.0089722-3.388916c.1304932.0610352.2592773.0998535.3795776.0998535.3657837 0 .668396-.2835693.6699219-.7841797l.0205078-5.1943359c.0009766-.5732422-.3876953-1.2470703-.8857422-1.5341797l-.1643066-.0947266.0110474-4.1635752c0-.6000977-.3999634-1.2900391-.9199829-1.5900879-.5831299-.3537598-1.1600342-.032959-1.1600342.670166l-.0129395 3.9018555c-.2516479-.1186523-.5050659-.140625-.7030029-.0263672-.2207031.1269531-.3476563.3847656-.3486328.7080078l-.0214844 5.1943369C32.5584335 21.4177761 32.9451523 22.0867214 33.4392929 22.3709011zM34.1454697 11.0696306c0-.3271484.1837158-.3813477.4100342-.2402344.3699951.2102051.6699829.7402344.6699829 1.1601563l-.0103149 3.875-1.0835571-.6257324L34.1454697 11.0696306zM34.1066513 22.7563992l1.088562.6289063-.0097046 3.6542969c0 .3244629-.1713867.3828125-.4199829.2299805-.3600464-.1999512-.6700439-.7299805-.6700439-1.1401367L34.1066513 22.7563992zM40.323082 23.1550808l.1716309.0991211-.0192261 6.8452148c0 .5900879.4000244 1.2900391.9199829 1.5800781.5480347.3425274 1.1700439.0727539 1.1700439-.6599121l.019165-6.5727539c.1252441.0571289.2502441.0939941.3682861.0939941.4127197 0 .666626-.3383789.6679688-.7841797l.0205078-5.1943359c.0019531-.5722656-.3828125-1.2451172-.8779297-1.53125l-.1480103-.0854492v-.9860849c0-.5900879-.4100342-1.2900391-.9199829-1.5900879-.6040039-.3330078-1.1589355-.027832-1.1799927.670166v.7148438c-.6140137-.2888184-1.0490723.0805664-1.0508423.6828623l-.0205078 5.1943359C39.4431992 22.2000027 39.8289413 22.868948 40.323082 23.1550808zM42.0655136 31.0195827c0 .328125-.1498413.3754883-.4200439.2299805-.3599854-.2099609-.6699829-.7399902-.6699829-1.1501465l.019165-6.5563965 1.0900269.6291504L42.0655136 31.0195827zM41.0155258 15.0396013c.0234985-.3310547.1638794-.3779297.4299927-.2299805.3599854.1999512.6699829.7399902.6699829 1.1499023v.6975107l-1.0999756-.6350098V15.0396013zM39.9646835 16.4392605c.0020752-.2966309.1400757-.3659668.3837891-.2246094l2.1650391 1.25c.3417969.1972656.6298828.6992188.6279297 1.0957031l-.0205078 5.1943359c0 .2727051-.1227417.3652344-.3828125.2167969l-2.1650391-1.25c-.3417969-.1972656-.6298828-.6962891-.6289063-1.0878906L39.9646835 16.4392605zM47.2078476 30.8630886l.1659546.0959473-.0083008 3.1203594c0 .5800781.4000244 1.2800293.9099731 1.5700684.5721436.3579102 1.1700439.0531006 1.1700439-.6599121l.0075684-2.842041c.1315918.0620117.2615967.1013184.383667.1013184.1162109 0 .2255859-.0283203.3232422-.0849609.21875-.1259766.3447266-.381834.3457031-.6992168l.0205078-5.1943359c.0019531-.5722656-.3867188-1.2460938-.8847656-1.5351563l-.168457-.097168.0125122-4.7084961c0-.0100098 0-.0100098 0-.0200195 0-.5898438-.4099731-1.2700195-.9099731-1.5700684-.6085205-.3354492-1.1700439-.0229492-1.1700439.6801758l-.0117798 4.4299316c-.2526855-.1191406-.4981079-.1320801-.7024536-.0151367-.2236328.1279297-.3476563.3798828-.3486328.7070313l-.0205078 5.1943359C46.3211288 29.9041042 46.7098007 30.5750027 47.2078476 30.8630886zM47.9054794 19.0195827c0-.3208008.1431885-.3935547.4200439-.2399902.3599854.2099609.6699829.7399902.6599731 1.1499023l-.0117188 4.4206543-1.0808105-.6235352L47.9054794 19.0195827zM47.8730087 31.247366l1.0808105.6242676-.0083008 3.117918c0 .3200684-.1622314.3886719-.4200439.2299805-.3599854-.2099609-.6599731-.7299805-.6599731-1.1401367L47.8730087 31.247366zM54.0854721 31.2795925l.1700439.0998535-.0200195 6.6701641c0 .5898438.4099731 1.2797852.9199829 1.579834.6607666.3500977 1.1593018.0057373 1.1799927-.6599121l.0200195-6.3999023c.454834.2651367 1.0300293-.0080566 1.0300293-.6901836l.0199585-5.1899414c0-.5700684-.3899536-1.25-.8800049-1.5300293l-.1499634-.0898438v-1.1601563c0-.5998535-.4000244-1.2900391-.9200439-1.5898438-.6089478-.3571777-1.1699829-.0216064-1.1699829.6699219v.8898926c-.5422363-.2816162-1.0599976.0336914-1.0599976.6801758l-.0200195 5.1999512C53.2054672 30.3293972 53.5954819 30.9995632 54.0854721 31.2795925zM55.8354721 38.969532c0 .3044434-.1727905.3781738-.4299927.2199707-.3599854-.1999512-.6699829-.7299805-.6699829-1.1398926l.0200195-6.380125 1.0999756.630125L55.8354721 38.969532zM54.7854843 22.9895535c0-.317749.1763306-.392334.4199829-.2399902.3600464.2099609.6700439.75.6700439 1.1599121v.8701172l-1.0900269-.630127V22.9895535zM53.7254868 24.5696316c0-.345459.164978-.3424072.3900146-.2302246.1013184.0587158 2.3204956 1.3431396 2.1599731 1.25.0400391.0200195.0700073.0400391.1000366.0700684.2999878.2299805.5299683.6699219.5299683 1.0300293l-.0199585 5.1899414c0 .2934551-.1517334.359129-.3900146.2199688-1.7822266-1.0299053-2.1893921-1.2590313-2.2399902-1.3098125-.3099976-.2199707-.5500488-.670166-.5500488-1.0300293L53.7254868 24.5696316zM16.7504501 60.7549324c-.6065674 0-1.1004028.4931641-1.1004028 1.1003418s.4938354 1.1005859 1.1004028 1.1005859c.6119995 0 1.1090698-.4934082 1.1090698-1.1005859S17.3624496 60.7549324 16.7504501 60.7549324z" class="color000000 svgShape"/></svg>