<svg width="100" height="100" viewBox="0 0 100 100" fill="none" xmlns="http://www.w3.org/2000/svg">
<path d="M73.3969 47.0389C74.8718 47.0389 76.0695 45.8504 76.0695 44.3862C76.0695 42.9229 74.8718 41.7344 73.3969 41.7344H64.8877C65.3152 43.4525 65.6148 45.2137 65.7642 47.0381L73.3969 47.0389ZM66.9826 22.1099C62.5355 22.1099 58.3456 23.1706 54.604 25.0165C58.2103 28.1667 61.0915 32.0607 63.0492 36.4307H67.5171V32.7173C67.5171 31.2531 68.7148 30.0654 70.1897 30.0654C71.6655 30.0654 72.8623 31.2523 72.8623 32.7173V36.4299H73.3969C77.8224 36.4299 81.4147 39.9939 81.4147 44.3854C81.4147 46.4222 80.6021 48.2681 79.3189 49.6891C80.6021 51.1109 81.4147 52.9568 81.4147 54.9936C81.4147 59.3852 77.8224 62.9492 73.3969 62.9492H72.8623V66.6626C72.8623 68.1259 71.6655 69.3145 70.1897 69.3145C68.7148 69.3145 67.5171 68.1259 67.5171 66.6626V62.9492H63.0492C61.0915 67.3191 58.2103 71.2131 54.604 74.3633C58.4496 76.2773 62.6871 77.2723 66.9826 77.27C82.3343 77.27 94.7777 64.9229 94.7777 49.6891C94.7777 34.4586 82.3343 22.1099 66.9826 22.1099ZM73.3969 57.6463C74.8718 57.6463 76.0695 56.4586 76.0695 54.9945C76.0695 53.5303 74.8718 52.3426 73.3969 52.3426H65.7642C65.6148 54.167 65.316 55.9282 64.8877 57.6463H73.3969Z" fill="url(#paint0_linear_195_278)"/>
<path d="M33.0433 51.4148C35.3092 51.4148 36.3268 51.3525 36.5268 51.3417L36.516 51.3318C43.4714 51.0288 48.6639 49.8178 48.6639 48.377C48.6639 46.9369 43.4714 45.7367 36.516 45.4238V50.1415L36.4156 50.1482C36.0637 50.1731 34.9888 50.2461 33.0748 50.2461C31.8852 50.2499 30.6957 50.215 29.5083 50.1415V45.4247C22.5421 45.7376 17.3389 46.9485 17.3389 48.3886C17.3389 49.8295 22.543 51.0404 29.5083 51.3434C30.6862 51.3938 31.8651 51.4179 33.0441 51.4156L33.0433 51.4148Z" fill="url(#paint1_linear_195_278)"/>
<path fill-rule="evenodd" clip-rule="evenodd" d="M32.7742 22.1099C17.4233 22.1099 4.97998 34.4578 4.97998 49.6908C4.97998 64.9238 17.4233 77.2717 32.7742 77.2717C48.125 77.2717 60.5692 64.9238 60.5692 49.6908C60.5692 34.4578 48.1259 22.1099 32.7742 22.1099ZM36.5258 40.7268V44.9432C44.405 45.3084 50.3212 46.853 50.3212 48.7222C50.3212 50.5897 44.3942 52.1351 36.5266 52.5003V66.0293H29.5081V52.5003C21.6298 52.1351 15.692 50.5797 15.692 48.7222C15.692 46.8638 21.619 45.3084 29.5081 44.9432V40.7268H19.8038V34.286H46.231V40.7268H36.5258Z" fill="url(#paint2_linear_195_278)"/>
<defs>
<linearGradient id="paint0_linear_195_278" x1="74.6908" y1="22.1099" x2="74.6908" y2="77.2708" gradientUnits="userSpaceOnUse">
<stop stop-color="#5A27D1"/>
<stop offset="1" stop-color="#8966E1"/>
</linearGradient>
<linearGradient id="paint1_linear_195_278" x1="32.7744" y1="22.11" x2="32.7744" y2="77.2709" gradientUnits="userSpaceOnUse">
<stop stop-color="#6EC47C"/>
<stop offset="1" stop-color="#99E3A6"/>
</linearGradient>
<linearGradient id="paint2_linear_195_278" x1="32.7742" y1="22.1099" x2="32.7742" y2="77.2708" gradientUnits="userSpaceOnUse">
<stop stop-color="#6EC47C"/>
<stop offset="1" stop-color="#99E3A6"/>
</linearGradient>
</defs>
</svg>
