<svg width="40" height="40" viewBox="0 0 40 40" fill="none" xmlns="http://www.w3.org/2000/svg">
<path d="M28.0801 29.9877C30.1482 27.9196 31.4274 25.0624 31.4274 21.9065C31.4274 18.7506 30.1482 15.8934 28.0801 13.8253L32.1207 9.78467C35.2228 12.8869 37.1418 17.1726 37.1418 21.9065C37.1418 26.6404 35.2228 30.9261 32.1207 34.0285L28.0801 29.9877Z" fill="#F6465D"/>
<path d="M19.9988 10.4765C16.8429 10.4765 13.9857 11.7557 11.9176 13.8238L7.87695 9.78324C10.9792 6.68101 15.2649 4.76221 19.9988 4.76221C24.7327 4.76221 29.0184 6.68097 32.1206 9.78324L28.08 13.8238C26.0118 11.7557 23.1547 10.4765 19.9988 10.4765Z" fill="#FFA223"/>
<path d="M8.5717 21.9065C8.5717 25.0624 9.8509 27.9196 11.9191 29.9877L7.87846 34.0285C4.7762 30.9261 2.85742 26.6404 2.85742 21.9065C2.85742 17.1726 4.7762 12.8869 7.87846 9.78467L11.9191 13.8253C9.8509 15.8934 8.5717 18.7506 8.5717 21.9065Z" fill="#48FF91"/>
<path fill-rule="evenodd" clip-rule="evenodd" d="M26.667 21.9045C26.667 25.5864 23.6822 28.5711 20.0003 28.5711C17.1572 28.5711 14.7299 26.7915 13.7714 24.2854H3.02145C2.91332 23.5073 2.85742 22.7123 2.85742 21.9044C2.85742 21.0965 2.91331 20.3016 3.02143 19.5235H13.7714C14.7299 17.0174 17.1572 15.2378 20.0003 15.2378C23.6822 15.2378 26.667 18.2226 26.667 21.9045ZM21.905 21.9045C21.905 22.9564 21.0523 23.8092 20.0003 23.8092C18.9483 23.8092 18.0955 22.9564 18.0955 21.9045C18.0955 20.8525 18.9483 19.9997 20.0003 19.9997C21.0523 19.9997 21.905 20.8525 21.905 21.9045Z" fill="white"/>
</svg>
