<svg width="24" height="24" viewBox="0 0 24 24" fill="none" xmlns="http://www.w3.org/2000/svg">
<path fill-rule="evenodd" clip-rule="evenodd" d="M13.0476 3.93103C13.0476 3.41684 12.6425 3 12.1429 3C11.6432 3 11.2381 3.41684 11.2381 3.93103V10.1379C11.2381 10.6521 11.6432 11.069 12.1429 11.069C12.6425 11.069 13.0476 10.6521 13.0476 10.1379V3.93103ZM7.70132 8.32927C8.0631 7.97458 8.07698 7.38526 7.73231 7.01297C7.38763 6.64068 6.81494 6.6264 6.45316 6.98108C4.94371 8.46089 4 10.5322 4 12.8276C4 17.3656 7.66987 21 12.1429 21C16.6159 21 20.2857 17.3656 20.2857 12.8276C20.2857 10.5322 19.342 8.46089 17.8326 6.98108C17.4708 6.6264 16.898 6.64068 16.5534 7.01297C16.2087 7.38526 16.2226 7.97458 16.5844 8.32927C17.7562 9.47814 18.4762 11.0706 18.4762 12.8276C18.4762 16.2881 15.6649 19.1379 12.1429 19.1379C8.62086 19.1379 5.80952 16.2881 5.80952 12.8276C5.80952 11.0706 6.52947 9.47814 7.70132 8.32927Z" fill="#868E96"/>
</svg>
