<svg width="40" height="40" viewBox="0 0 40 40" fill="none" xmlns="http://www.w3.org/2000/svg">
<rect x="4.80701" y="28.978" width="32.8182" height="5" rx="2.5" transform="rotate(-10.907 4.80701 28.978)" fill="#01BC8D"/>
<path d="M14.1249 24.1739C19.6956 24.1739 24.2116 19.6577 24.2116 14.0867C24.2116 8.51571 19.6956 3.99951 14.1249 3.99951C8.55418 3.99951 4.03821 8.51571 4.03821 14.0867C4.03821 19.6577 8.55418 24.1739 14.1249 24.1739Z" fill="#01BC8D"/>
<g opacity="0.2">
<path d="M29.4059 13.9388L25.8592 17.4857C25.2912 18.0538 25.2912 18.9748 25.8592 19.5428L29.4059 23.0897C29.974 23.6578 30.8949 23.6578 31.4629 23.0897L35.0097 19.5428C35.5777 18.9748 35.5777 18.0538 35.0097 17.4857L31.4629 13.9388C30.8949 13.3707 29.974 13.3707 29.4059 13.9388Z" fill="#01BC8D"/>
</g>
<path d="M20 34.0894L24.241 29L28.4819 34.0894H20Z" fill="#A6EEC7" fill-opacity="0.53"/>
</svg>
