<svg xmlns="http://www.w3.org/2000/svg" enable-background="new 0 0 256 256" viewBox="0 0 256 256"><path fill="#ffefe4" d="M225.827,176.403H47.359c-11.141,0-20.173-9.032-20.173-20.173V40.173C27.186,29.032,36.218,20,47.359,20h178.467C236.968,20,246,29.032,246,40.173V156.23C246,167.372,236.968,176.403,225.827,176.403z"/><path fill="#69ebfc" d="M225.827,176.403H47.359c-11.141,0-20.173-9.032-20.173-20.173V40.173C27.186,29.032,36.218,20,47.359,20h178.467C236.968,20,246,29.032,246,40.173V156.23C246,167.372,236.968,176.403,225.827,176.403z"/><path fill="#5fd4e3" d="M225.827,165.605H47.359c-11.141,0-20.173-9.032-20.173-20.173v10.799c0,11.141,9.032,20.173,20.173,20.173h178.467c11.141,0,20.173-9.032,20.173-20.173v-10.799C246,156.573,236.968,165.605,225.827,165.605z"/><path fill="#5fd4e3" d="M225.827,20H47.359c-11.141,0-20.173,9.032-20.173,20.173v13.984c0.071,0.058,0.145,0.12,0.215,0.176l90.313,82.647l9.386,8.551c5.422,4.577,13.327,4.628,18.804,0.151l9.394-8.543l90.487-82.806c0.072-0.097,0.143-0.2,0.215-0.299V40.173C246,29.032,236.968,20,225.827,20z"/><path fill="#69ebfc" d="M146.543,128.057l99.242-90.818C244.364,27.489,235.971,20,225.827,20H47.359c-10.144,0-18.537,7.489-19.958,17.239l99.242,90.818C132.275,133.211,140.911,133.211,146.543,128.057z"/><path fill="#a1f1fc" d="M47.359,30.799h178.467c7.099,0,13.329,3.674,16.924,9.217l3.034-2.777C244.364,27.489,235.971,20,225.827,20H47.359c-10.144,0-18.537,7.489-19.958,17.239l3.034,2.777C34.03,34.473,40.261,30.799,47.359,30.799z"/><path fill="#ffefe4" d="M198.641,256H20.173C9.032,256,0,246.968,0,235.827V119.77c0-11.141,9.032-20.173,20.173-20.173h178.467c11.141,0,20.173,9.032,20.173,20.173v116.057C218.814,246.968,209.782,256,198.641,256z"/><path fill="#d476e2" d="M198.641,256H20.173C9.032,256,0,246.968,0,235.827V119.77c0-11.141,9.032-20.173,20.173-20.173h178.467c11.141,0,20.173,9.032,20.173,20.173v116.057C218.814,246.968,209.782,256,198.641,256z"/><path fill="#b665c2" d="M198.641,245.201H20.173C9.032,245.201,0,236.169,0,225.028v10.799C0,246.968,9.032,256,20.173,256h178.467c11.141,0,20.173-9.032,20.173-20.173v-10.799C218.814,236.169,209.782,245.201,198.641,245.201z"/><path fill="#b665c2" d="M198.641,99.597H20.173C9.032,99.597,0,108.628,0,119.77v13.984c0.071,0.058,0.145,0.12,0.215,0.176l90.313,82.647l9.386,8.551c5.422,4.577,13.327,4.628,18.804,0.151l9.394-8.543l90.487-82.806c0.072-0.097,0.143-0.2,0.215-0.299V119.77C218.814,108.628,209.782,99.597,198.641,99.597z"/><path fill="#d476e2" d="M119.357,207.653l99.242-90.818c-1.421-9.75-9.814-17.239-19.958-17.239H20.173c-10.144,0-18.537,7.489-19.958,17.239l99.242,90.818C105.089,212.807,113.725,212.807,119.357,207.653z"/><path fill="#ea82fa" d="M20.173,110.395h178.467c7.099,0,13.329,3.674,16.924,9.217l3.034-2.777c-1.421-9.75-9.814-17.239-19.958-17.239H20.173c-10.144,0-18.537,7.489-19.958,17.239l3.034,2.777C6.844,114.069,13.075,110.395,20.173,110.395z"/><circle cx="217.54" cy="39.079" r="39" fill="#d476e2"/><path fill="#ea82fa" d="M217.471,4.059c20.898-0.037,37.984,16.371,39.017,37.02c0.035-0.685,0.053-1.374,0.052-2.068c-0.038-21.539-17.53-38.969-39.069-38.931c-21.539,0.038-38.969,17.53-38.931,39.069c0.001,0.641,0.02,1.278,0.052,1.911C179.63,20.48,196.625,4.096,217.471,4.059z"/><path fill="#fff7f2" d="M234.036,32.079h-9.496v-9.497c0-3.866-3.134-7-7-7s-7,3.134-7,7v9.497h-9.496c-3.866,0-7,3.134-7,7s3.134,7,7,7h9.496v9.497c0,3.866,3.134,7,7,7s7-3.134,7-7v-9.497h9.496c3.866,0,7-3.134,7-7S237.902,32.079,234.036,32.079z"/></svg>