<svg xmlns="http://www.w3.org/2000/svg" viewBox="0 0 130 130"><path fill="#E99CC3" d="m97.7 64.4-5.3-5.5 5.3-5.4v-30l-15.9-16H36.2l-15.9 16v14.9h25.5v-6.1l4.6-4.7h17.4l4.4 4.7v11.8l-4.5 4.5H55.5v20.7h12.3l4.4 4.6v12l-4.5 4.5H50.4l-4.6-4.7v-3.9H20.3v12.8l15.9 15.9h45.6l15.9-15.9z"/><path fill="#F1BCD6" d="M40.6 7.5h-2.9L33 12.1l-.7-.8-1.5 1.5L33 15zM86.8 12.8l-1.4-1.5-.8.8L80 7.5h-2.9l7.5 7.5zM27.5 20.5l-2.2-2.2-1.5 1.5.8.7-4.5 4.4v2.9zM48 29.9l1.4-1.5-7.9-7.9 13.1-13h-2.9l-13.1 13zM68.3 28.4l1.4 1.4 9.4-9.3L66 7.5h-2.9l13.1 13z"/><path fill="#F1BCD6" d="M52.7 27.6h2.9l-7.1-7.1 10.3-10.3 10.4 10.3-7.2 7.1h2.9l7.2-7.1L59 7.5h-.3l-13.1 13z"/><path fill="#F1BCD6" d="M58.8 15.7 54 20.5l4.8 4.8 4.8-4.8zM97.5 27.8v-2.9l-4.4-4.4.7-.7-1.4-1.5-2.2 2.2zM45.4 38.4 33 26.1 20.6 38.4h2.9l9.5-9.5 9.5 9.5z"/><path fill="#F1BCD6" d="M27.6 38.4h2.9l2.5-2.5 2.5 2.5h2.9L33 33zM68.6 47.6l-1 1h-.8l17.8 17.8L95.1 56l2.4-2.5v-2.8L84.6 63.5zM72.1 38.6v2.9l12.5-12.6 12.9 12.9v-2.9L84.6 26.1z"/><path fill="#F1BCD6" d="M97.5 45.9 84.6 33 71.4 46.2l13.2 13.2 12.9-12.8.4-.3-.4-.4zM84.6 56.6 74.3 46.2l10.3-10.3L95 46.2 84.6 56.6z"/><path fill="#F1BCD6" d="m84.6 51 4.8-4.8-4.8-4.7-4.8 4.7zM55.4 51.1l2.5-2.5h-2.5zM71.7 31.9l.4.4v2.2L84.6 22l12.9 12.8v-2.9L86.1 20.5l4.2-4.2-1.4-1.5-4.3 4.3L73 7.5h-2.9l13.1 13zM33 22l12.6 12.5v-2.2l.3-.4-11.4-11.4 13.1-13h-2.9L33 19.1l-4.2-4.3-1.5 1.5 4.3 4.2-11.5 11.4v2.9zM95.6 62.4 94.2 61l-9.6 9.5-21.9-21.9h-3L83.2 72 72.1 83l-7.4 7.4-5.9 5.8-5.9-5.8h-2.7l-4.6-4.7V83l-1.3-1.2h-2.9l16 15.9-12.9 12.8h2.9l11.4-11.4 11.5 11.4h2.9L60.3 97.7l24.3-24.3 12.9 12.9v-2.9L86.1 72zM24.7 81.8h-2.9l-1.6 1.6v2.9l4.5-4.5z"/><path fill="#F1BCD6" d="M60.6 90.4H57l1.8 1.7zM72.1 78.9l7-6.9-20.3-20.2-3.4 3.4v2.9l3.4-3.4L76.2 72l-4.1 4z"/><path fill="#F1BCD6" d="m67.6 69.3 3.5 3.6 1-.9-13.3-13.2-3.4 3.4v2.9l3.4-3.5 7.7 7.7zM58.8 67.2l-2.1 2.1h4.2zM97.5 79.3v-2.9L93.1 72l4.4-4.5v-2.9L90.2 72z"/><path fill="#F1BCD6" d="M97.5 72.3v-.7l-.3.4zM28.8 81.8l-8.7 8.5v3l11.6-11.5zM37.3 81.8h-2.9l16 15.9-12.9 12.8h2.9l12.9-12.8z"/><path fill="#F1BCD6" d="M33 84.5 21.5 96l1.5 1.4 10-10 10.4 10.3-10.1 10.1 1.4 1.4 11.6-11.5z"/><path fill="#F1BCD6" d="m33 92.9-4.8 4.8 4.8 4.8 4.8-4.8zM64.4 97.7l12.9 12.8h2.9L67.3 97.7l17.3-17.3 12.9 12.9v-3L84.6 77.5z"/><path fill="#F1BCD6" d="m71.4 97.7 11.5 11.5 1.5-1.4-10.1-10.1 10.3-10.3 10.1 10 1.4-1.4-11.5-11.5z"/><path fill="#F1BCD6" d="m79.8 97.7 4.8 4.8 4.8-4.8-4.8-4.8zM51.5 110.5h2.9l4.4-4.4 4.5 4.4h2.9l-7.4-7.3z"/><path fill="#D76BA8" d="M81.8 7.5H36.2l13 13h45.5z"/><path fill="#DE81B4" d="m49.1 20.3-13-13-15.9 16.1 13 13z"/><path fill="#D76BA8" d="M20.2 23.4v14.9h13v-1.9zM85.2 45.3l-13-13v11.8l13 13z"/><path fill="#D97FB3" d="m72.2 44.1-4.5 4.5 13 13 4.5-4.5z"/><path fill="#DE81B4" d="M55.5 69.3h12.3l.7.8v-8.5l-13-13z"/><path fill="#D76BA8" d="M67.7 48.6H55.5l13 13h12.2zM85.2 86.9l-13-13v12l13 13z"/><path fill="#DE81B4" d="M20.3 81.8v12.8l13 13V94.8l-13-13z"/><path fill="#D97FB3" d="m72.265 85.842 13.01 13.011-4.525 4.525-13.01-13.01z"/><path fill="#D76BA8" d="m50.4 90.4-4.6-4.7v-3.9H20.3l13 13h21.5l-4.4-4.4z"/><path fill="#DE81B4" d="M67.7 90.4H50.4l13 13h17.3z"/><path fill="#FEF7E7" d="M83.4 114.5H34.6L16.3 96.3V77.8h33.4v6.3l2.3 2.3h14l2.2-2.2v-8.6L66 73.3H51.5V44.6H66l2.2-2.1v-8.6L66 31.6H52l-2.3 2.3v8.5H16.3V21.9L34.6 3.5h48.8l18.3 18.4v33.3L98 58.9l3.7 3.8v33.5l-18.3 18.3zm-47.2-4h45.5l15.9-15.9V64.4L92.3 59l5.3-5.4v-30l-15.9-16H36.2l-15.9 16v14.9h25.4v-6.2l4.6-4.6h17.4l4.5 4.6v11.9l-4.5 4.5H55.5v20.7h12.2l4.5 4.7V86l-4.5 4.5H50.4l-4.6-4.6v-4H20.3v12.9l15.9 15.7z"/><path fill="#934849" d="m34.6 114.5 12 12h48.8l-12-12z"/><path fill="#9E595E" d="m113.7 108.3-12-12-18.3 18.2 12 12 18.3-18.2z"/><path fill="#A46269" d="m113.7 74.8-3.7-3.9 3.7-3.8V33.8L95.4 15.5l6.3 6.3v33.3L98 58.9l3.7 3.9v33.5l12 12z"/><path fill="#9E595E" d="m101.7 55.1 12 12-3.7 3.8-8.3-8.1-3.7-3.9z"/><path fill="#934849" d="M49.8 42.4H16.3l12 12h23.2v-9.8l-1.7-2.2z"/><path fill="#A46269" d="M66.1 31.6h-14l-2.3 2.3v8.5l1.7 2.2h14.6l2.1-2.2v-8.5z"/><path fill="#934849" d="m52.1 31.6 12.9 13h1.1l2.1-2.2v-8.5l-2.1-2.3z"/><path fill="#9E595E" d="m65 44.6-12.9-13-2.3 2.3 10.6 10.7z"/></svg>