<svg xmlns="http://www.w3.org/2000/svg" viewBox="0 0 130 130"><path fill="#442A57" d="M43.6 44.4H30.2l12 12h1.4z"/><path fill="#F6E3C5" d="M34.2 40.4h13.4v50H34.2v20.1h49.6V90.4H73V7.5H53L34.2 26.2z"/><g fill="#FEF7E7"><path d="M34.2 32.2v8.2h7.4c-1.3-3.7-.5-7.9 2.4-10.8-2.7 2.5-6.4 3.4-9.8 2.6z"/><path d="M58.9 29.6c-4.1-4.1-4.1-10.7-.1-14.8-3.8 3.7-9.8 4-13.9.8l-.1.1c3.2 4.1 3 9.9-.7 13.7-2.8-3.2-3.4-7.6-1.8-11.3l-8.2 8.1v.9c3.4-.9 7.1-.2 9.9 2.3 0 0 0 .1-.1.1l.1-.1.3.3-.3-.3c4.3-4 10.8-3.9 14.9.2zM75.6 90.3h-.7c2.8 4 2.4 9.5-1 13.2-3.3-3.7-3.6-9.2-.7-13.2H73V90c-4.1 3-9.9 2.6-13.7-1.1 4.1 4.1 4.1 10.7.1 14.8 4-3.9 10.3-4 14.4-.3l-.2.2.2-.2c.1.1.3.2.4.4l-.4-.4c2.7-2.5 6.5-3.4 9.9-2.5v-9.4c-2.6.7-5.6.3-8.1-1.2z"/><path d="m59.1 104.1.3-.3-.3.3-.3-.3.3.3c-4.2 3.7-10.6 3.5-14.6-.4 1.9 1.9 2.9 4.4 3.1 6.9h8.8c.2-2.4 1.1-4.6 2.7-6.5 1.6 1.9 2.5 4.1 2.6 6.4h8.9c.1-2.5 1.2-4.9 3.1-6.9-4 4.1-10.4 4.2-14.6.5zM73 58.3V58c-2.7-3.7-2.7-8.7 0-12.4v-.4c-1.9 1.4-4.1 2.2-6.4 2.2-2.7 0-5.3-1-7.4-3 4 4.1 4 10.7-.1 14.8 3.8-3.7 9.8-4 13.9-.9zM73 73.3v-.4c-2.7-3.7-2.7-8.7 0-12.4v-.3c-4.1 3.1-10.1 2.8-13.9-.9 4.1 4.1 4.1 10.7.1 14.8 3.8-3.7 9.7-4 13.8-.8zM47.6 61.5v10.4c3.8-1.6 8.3-.8 11.4 2.2-4-4.1-4-10.8.1-14.8-3.1 3.1-7.7 3.8-11.5 2.2zM73 88.2V88c-2.9-3.8-3-9.1 0-12.9v-.2c-4.1 3.3-10 3-13.9-.6l.1-.1-.1.1H59v.1c-3.2 3-7.7 3.6-11.5 2v10.5c3.8-1.7 8.4-1 11.5 2l-.2.2c.1-.1.2-.1.2-.2l.2.2-.2-.2c4-3.8 9.9-4 14-.7zm-13.9-14c3.8 4.1 3.9 10.4 0 14.5-3.8-4.1-3.8-10.4 0-14.5z"/><path d="M45.5 90.3H45c2.9 4 2.6 9.4-.7 13.2-3.5-3.7-3.8-9.1-1.1-13.2h-.7c-2.5 1.5-5.6 1.9-8.4 1.1v9.6c3.5-1 7.3-.1 10.1 2.5-.1.1-.2.3-.4.4.1-.1.3-.2.4-.4l.2.2-.2-.2c4.1-3.7 10.4-3.6 14.4.3-4-4.1-4-10.7.1-14.8-3.4 3.6-9.1 4-13.2 1.3zM47.6 46.6V57c3.8-1.6 8.4-.8 11.5 2.3C55 55.2 55 48.5 59 44.4c-3.1 3-7.6 3.8-11.4 2.2zM73 43.7v-.2c-3-3.8-2.9-9.1 0-12.9v-.2c-4.1 3.3-10 3.1-13.9-.6l.2-.2-.2.2-.2-.2.2.2c-4.1 3.9-10.6 3.9-14.7-.1 2.8 2.9 3.7 7 2.5 10.6h.6v2c3.8-1.6 8.3-1 11.5 2 0 0 0 .1-.1.1 0 0 .1 0 .1-.1l.1.1-.1-.1c4-3.6 9.9-3.8 14-.6zM59.1 29.8c3.8 4.1 3.8 10.4 0 14.5-3.8-4.1-3.8-10.4 0-14.5zM59.3 29.6c3.7-3.7 9.5-4.1 13.7-1.1V28c-2.4-3.5-2.4-8.2 0-11.7v-.5c-4.1 3-9.8 2.6-13.6-1 4 4.1 4 10.7-.1 14.8z"/><path d="m59.4 14.8-.3-.3c3.9-3.5 9.8-3.6 13.9-.2v-.1c-1.6-1.9-2.4-4.3-2.4-6.6h-8.8c0 2.5-.9 4.9-2.7 6.9-1.8-2-2.6-4.4-2.7-6.9h-3.5l-5.2 5.2c3.7-1.6 8.1-1 11.3 1.8l-.3.3.3-.3c.2 0 .3 0 .4.2z"/></g><path fill="#F15B29" d="M74.8 9.3 73 7.5H53l12 12h9.8z"/><path fill="#F97450" d="M34.22 26.259 52.96 7.521l12.02 12.02L46.242 38.28z"/><path fill="#FC8F77" d="M46.2 42v-3.8l-12-12v14.2l1.6 1.6zM47.6 40.4l12 12v50l-12-12z"/><path fill="#F15B29" d="m34.2 90.4 12 12h13.4l-12-12z"/><path fill="#FC8F77" d="M46.2 112.2v-9.8l-12-12v20.1l1.6 1.7z"/><path fill="#FEF7E7" d="M87.8 114.5H30.2V86.4h13.4v-42H30.2V24.6L51.3 3.5H77v82.9h10.8v28.1zm-53.6-4h49.6V90.4H73V7.5H53L34.2 26.2v14.1h13.4v50H34.2v20.2z"/><path fill="#442A57" d="m30.2 114.5 12 12h57.6l-12-12z"/><path fill="#4E3863" d="m87.8 86.4 12 12v28.1l-12-12z"/><path fill="#5A4570" d="m77 3.5 12 12v72.1l-1.2-1.2H77z"/></svg>