<svg xmlns="http://www.w3.org/2000/svg" viewBox="0 0 130 130"><path fill="#69767D" d="M66.1 39.2v-5.3l-2.3-2.3h-9.6l-2.3 2.3v12l3.7 3.8z"/><path fill="#5A6B73" d="M51.9 45.9H18.4l12 12h17l8.2-8.2z"/><path fill="#A0DBEA" d="M22.4 41.9h25.5v-9.6l4.6-4.7h13l4.6 4.7v8.6L22.4 88.5v22h73.2V86.8H58.8l36.8-36.7V23.5l-16-16H38.4l-16 16z"/><g fill="#BFE5F1"><path d="m35 10.9-6.8 6.9h11.1zM72.1 17.8l-6.4 10 .2.3h12.8l-6.6-10.3h17.8l-6.8-6.9-4.4 6.9-6.6-10.3-6.5 10.3h6.5z"/><path d="M39.3 28.1h12.8l.2-.3-6.4-10h6.5L45.9 7.5l-6.6 10.3h6.6l-6.6 10.3-6.5-10.3-6.6 10.3L23 23l-.6.5v4.6h16.9zM52.7 27.6h12.6L59 17.8h6.6L59 7.5l-6.6 10.3H59zM85.2 17.8l-6.5 10.3h13.1zM95 23l-3.2 5.1h3.8v-4.6zM70.1 32.3v6.1h2l-6.5 10.3h13.1l-6.6-10.3h6.6l-6.6-10.3-2.4 3.8zM85.2 28.1l-6.5 10.3h13.1zM95.6 38.4v-5.9l-3.8 5.9zM30.5 41.9H35l-2.2-3.5zM47.9 41.9v-.4l-2-3.1-2.2 3.5zM64.3 46.7l-2 2h3.3zM91.8 48.7l-6.6-10.3-6.5 10.3h6.5zM95.6 48.7v-5.9l-3.8 5.9zM52 59h.4l-.1-.3zM53.3 57.6v.1l-.9 1.3h13.2l-5.3-8.3z"/><path d="m72.1 59-6.5 10.3h10.7l1.4-1.4-5.6-8.9h14.5l3.2-3.2-4.6-7.1L78.7 59l-6.6-10.3L65.6 59zM59 59l-6.6 10.3-4.2-6.6-6.6 6.6h24z"/><path d="m85.8 59.8-.6-.8-2.4 3.8zM45.9 69.3l-6.6 10.3h13.1zM65.6 79.6 59 69.3l-6.6 10.3H59zM66 79.6l7.7-7.7-1.6-2.6-6.5 10.3zM32.8 79.6h6.5l-3.1-4.9-4.9 4.9h1.5l-6.6 10.3h13.1zM52.4 89.9l-6.5-10.3-6.6 10.3h6.6zM80.7 86.8l-2 3.1h6.5l-6.5 10.3h13.1l-6.6-10.3h6.6l-2-3.1zM91.8 89.9h3.8v-3.1h-1.8zM32.8 89.9l-6.6 10.3h13.1zM45.9 100.2h6.5l-6.5-10.3-6.6 10.3z"/><path d="M65.6 100.2 59 89.9h6.6l-2-3.1h-4.8l2.9-2.9-2.7-4.3-6.6 10.3H59l-6.6 10.3H59zM65.6 100.2h13.1l-6.6-10.3h6.6l-2-3.1h-9.1l-2 3.1h6.5zM95.6 100.2v-5.9l-3.8 5.9zM26.2 110.5l-3.8-5.9v5.9h16.9l-6.5-10.3zM26.2 38.4h21.7v-6.1l.4-.4-2.4-3.8-6.6 10.3-6.5-10.3-6.6 10.3-3.8-6v6h3.8zM24.2 86.7l-1.8 1.8v1.4h3.8zM22.4 94.3v5.9h3.8zM39.3 110.5h13.1l-6.5-10.3zM52.4 110.5h13.2L59 100.2zM65.6 110.5h13.1l-6.6-10.3zM91.8 110.5l-6.6-10.3-6.5 10.3zM95.6 110.5v-5.9l-3.8 5.9z"/></g><path fill="#FEF7E7" d="M99.6 114.5H18.4V86.8l47.7-47.6v-5.3l-2.3-2.3h-9.7l-2.3 2.3v12H18.4v-24L36.7 3.5h44.6l18.3 18.4v29.9l-31.1 31h31.1v31.7zm-77.2-4h73.1V86.8H58.8l36.8-36.7V23.5l-15.9-16H38.4l-15.9 16v18.4h25.4v-9.6l4.6-4.6h13l4.6 4.6v8.6L22.4 88.5v22z"/><path fill="#20BFD6" d="M79.7 7.5H38.4l13 13h41.2zM22.5 41.9h13v-5.4l-13-13z"/><path fill="#5DC8DD" d="m38.4 7.5-15.9 16 13 13 15.9-16-13-13z"/><path fill="#81D1E3" d="M22.5 110.5h13v-9l-13-13z"/><path fill="#5DC8DD" d="m58.8 86.8 13.5 13.5 23.3-.1V86.8z"/><path fill="#81D1E3" d="M87.4 49.6 70.1 32.3v8.6l13 13 4.3-4.3z"/><path fill="#5DC8DD" d="M70.1 40.9 22.5 88.5l13 13 46.4-46.4 1.2-1.2z"/><path fill="#5A6B73" d="m18.4 114.5 12 12h81.2l-12-12z"/><path fill="#69767D" d="m99.6 82.8 12 12v31.7l-12-12zM111.6 33.8l-12-12v29.9l12 12z"/><path fill="#5A6B73" d="M99.6 51.7 68.5 82.8h24l19.1-19.1z"/></svg>