<svg width="25" height="25" viewBox="0 0 25 25" fill="none" xmlns="http://www.w3.org/2000/svg">
<path d="M17.1704 11.144C17.1704 11.5582 16.8346 11.894 16.4204 11.894H8.42041C8.0062 11.894 7.67041 11.5582 7.67041 11.144C7.67041 10.7298 8.0062 10.394 8.42041 10.394H16.4204C16.8346 10.394 17.1704 10.7298 17.1704 11.144Z" fill="#868E96"/>
<path fill-rule="evenodd" clip-rule="evenodd" d="M4.80599 8.29086L5.99472 5.04326C6.2943 4.22482 7.02089 3.63835 7.88412 3.51822C10.8938 3.09939 13.947 3.09939 16.9568 3.51822C17.82 3.63835 18.5466 4.22483 18.8462 5.04328L20.035 8.29116C20.2573 8.63805 20.4104 9.03458 20.4747 9.46206L20.5767 10.1399C20.9765 12.7986 20.9391 15.5047 20.466 18.1512C20.2563 19.3245 19.2927 20.2158 18.1066 20.3335L16.8762 20.4556C13.9129 20.7497 10.9278 20.7497 7.96458 20.4556L6.73411 20.3335C5.54804 20.2158 4.58448 19.3245 4.37475 18.1512C3.90168 15.5047 3.8643 12.7986 4.2641 10.1399L4.36603 9.46206C4.43033 9.03445 4.58355 8.63781 4.80599 8.29086ZM8.09087 5.0039C10.9634 4.60416 13.8775 4.60416 16.75 5.0039C17.0641 5.04762 17.3285 5.26103 17.4376 5.55886L17.9438 6.94185C17.8984 6.93524 17.8527 6.92965 17.8068 6.92508L16.8286 6.82799C13.897 6.53702 10.9438 6.53702 8.0122 6.828L7.03401 6.92508C6.98806 6.92964 6.94242 6.93523 6.89711 6.94183L7.40332 5.55886C7.51234 5.26103 7.77674 5.04762 8.09087 5.0039ZM6.10607 9.04514L6.12473 9.05197L6.14788 8.98872C6.39362 8.67286 6.76274 8.45938 7.18216 8.41775L8.16035 8.32066C10.9934 8.03947 13.8473 8.03947 16.6804 8.32066L17.6586 8.41775C18.0781 8.45939 18.4473 8.67295 18.693 8.98892L18.7161 9.05196L18.7347 9.04516C18.8658 9.23105 18.9558 9.4486 18.9914 9.68511L19.0933 10.363C19.4688 12.86 19.4337 15.4016 18.9894 17.8873C18.8978 18.4 18.4767 18.7894 17.9585 18.8408L16.728 18.963C13.8633 19.2473 10.9775 19.2473 8.11273 18.963L6.88227 18.8408C6.36401 18.7894 5.94299 18.4 5.85135 17.8873C5.40703 15.4016 5.37193 12.86 5.74742 10.363L5.84935 9.68511C5.88492 9.44859 5.97494 9.23104 6.10607 9.04514Z" fill="#868E96"/>
</svg>
