<svg width="56" height="56" viewBox="0 0 56 56" fill="none" xmlns="http://www.w3.org/2000/svg">
<path d="M11.2519 30.0387L14.5361 28.0543C14.7129 27.9469 14.7695 27.7164 14.6631 27.5387C14.5557 27.3619 14.3262 27.3072 14.1475 27.4117L10.8633 29.3961C10.6865 29.5035 10.6299 29.734 10.7363 29.9117C10.8403 30.0835 11.0663 30.1477 11.2519 30.0387ZM41.2178 42.8153C40.2852 42.0489 40.469 42.0702 39.9619 42.3844C36.0317 44.8215 36.2352 44.6642 36.2367 44.7406C36.2385 44.8406 36.3342 44.9013 36.9836 45.4908C37.069 45.5682 37.1857 45.5794 37.2769 45.524C37.3079 45.5051 39.396 44.237 39.427 44.2182C39.8245 43.9767 41.4631 42.9789 41.3577 43.0431C41.4236 42.9543 41.2716 42.8595 41.2178 42.8153ZM37.3477 45.2662C37.0879 45.4256 37.1949 45.4596 36.7876 45.0264C36.7788 45.017 36.7346 44.9816 36.7346 44.9699C36.7176 44.9518 36.667 44.917 36.6733 44.8877C36.6804 44.8547 36.8086 44.873 36.8389 44.8728C36.982 44.8717 37.1277 44.8648 37.2657 44.8238C37.2485 44.9058 37.1924 44.9787 37.1175 45.0163C37.755 44.9073 38.6809 44.2987 38.8133 44.3092C38.8428 44.3116 38.8585 44.3267 38.8401 44.3507C38.8281 44.3664 38.9702 44.272 37.3477 45.2662Z" fill="black"/>
<path d="M51.7295 25.6363L38.196 35.6929L35.29 33.991C37.6636 32.9127 39.4919 30.7512 40.0123 28.008C40.899 23.3822 37.7271 18.9028 32.9852 18.2395C27.513 16.3362 21.8057 20.2056 21.579 25.9516L17.7804 23.7243L15.2695 4.74177C15.251 4.60603 15.1357 4.51423 14.9883 4.52693C14.8516 4.54548 14.7559 4.67048 14.7734 4.80818L17.2469 23.5086C17.0541 23.4854 16.8565 23.5167 16.6777 23.6187L4.31934 30.8883C4.04004 31.0504 3.87207 31.3424 3.87207 31.6685C3.87207 31.791 3.8964 33.5683 3.89862 33.7398C3.92877 33.9708 4.05939 34.1718 4.27026 34.2922L33.4108 51.3687C33.6518 51.5093 33.9532 51.5093 34.1842 51.3687L46.5698 43.855C46.7806 43.7244 46.9111 43.4934 46.9312 43.2524L47.2326 41.7456L47.2288 41.7447C47.3278 41.3605 47.1721 40.9474 46.8105 40.7379L38.6645 35.9672L52.0283 26.0367C52.1387 25.9547 52.1621 25.7984 52.0791 25.6871C51.998 25.5777 51.8408 25.5523 51.7295 25.6363ZM37.7599 36.017L37.1458 36.4733L33.7554 34.5156C34.079 34.4392 34.3946 34.3408 34.7042 34.2275L37.7599 36.017ZM32.1748 40.4791C32.2591 40.592 32.4175 40.6112 32.5244 40.5299L37.18 37.0704L40.9912 39.2711C41.105 39.3367 41.1019 39.4966 40.998 39.5592L30.8662 45.5142C30.8115 45.5445 30.7393 45.5435 30.6895 45.5172L10.1387 33.7476C10.0253 33.6814 10.029 33.5336 10.1416 33.4703L17.9567 28.874L18.3594 31.9185C18.4034 32.2504 18.8973 32.1799 18.8555 31.8521L18.4251 28.5986C20.3002 27.5364 20.3637 27.3703 20.5303 27.4605L21.7744 28.1763C22.7883 32.6333 27.1696 35.4913 31.6242 34.731C32.0894 34.7431 32.5488 34.7194 32.9991 34.6563L36.7086 36.7982L32.2256 40.1295C32.1152 40.2115 32.0918 40.3677 32.1748 40.4791ZM37.0764 31.8838C36.9588 31.8738 36.8839 31.7865 36.8469 31.6821C36.9465 31.56 37.0477 31.4392 37.1406 31.3114C37.2917 31.3336 37.4042 31.4642 37.3912 31.6184C37.3776 31.7786 37.2366 31.8974 37.0764 31.8838ZM38.2711 30.8064C38.0529 30.7879 37.891 30.596 37.9095 30.3777C37.928 30.1595 38.1199 29.9976 38.3382 30.0161C38.5564 30.0346 38.7183 30.2266 38.6998 30.4448C38.6813 30.663 38.4893 30.8249 38.2711 30.8064ZM30.1416 18.2476C35.246 18.2476 39.0611 22.8861 38.1211 27.8179C36.6105 35.7331 25.3376 36.8304 22.5318 28.958C20.6589 23.6512 24.6378 18.2476 30.1416 18.2476ZM21.5586 26.5191C21.5705 26.8701 21.6083 27.2053 21.658 27.5317L20.7734 27.023C20.5693 26.9166 20.3203 26.9166 20.1084 27.0279L18.3539 28.0599L17.8635 24.3522L21.5586 26.5191ZM5.26373 33.6172C5.12939 33.6172 5.02051 33.4393 5.02051 33.22C5.02051 33.0964 5.05713 32.9904 5.11139 32.9176L5.49774 33.1459C5.50073 33.1707 5.5069 33.1937 5.5069 33.22C5.5069 33.4393 5.39801 33.6172 5.26373 33.6172ZM5.94299 34.7441C5.87408 34.7441 5.81818 34.6361 5.81818 34.5028C5.81818 34.3695 5.87408 34.2614 5.94299 34.2614C6.01196 34.2614 6.06781 34.3695 6.06781 34.5028C6.06781 34.6361 6.01196 34.7441 5.94299 34.7441ZM6.81842 34.3953C6.76025 34.3953 6.71307 34.3482 6.71307 34.29C6.71307 34.2318 6.76025 34.1846 6.81842 34.1846C6.87665 34.1846 6.92383 34.2318 6.92383 34.29C6.92383 34.3482 6.87665 34.3953 6.81842 34.3953ZM33.6612 51.3429V49.7283C33.7181 49.7396 33.775 49.7525 33.833 49.7525C33.8594 49.7525 33.8849 49.7445 33.9112 49.7421V51.3429C33.9112 51.5085 33.6612 51.5084 33.6612 51.3429ZM46.5586 41.1695C46.8311 41.3292 46.818 41.7109 46.5566 41.8697L34.0264 49.1988C33.9033 49.275 33.749 49.2691 33.6221 49.189L4.57129 32.0181C4.30637 31.865 4.3044 31.4736 4.57227 31.3199L16.9287 24.0513C17.0689 23.9721 17.1871 23.9795 17.3175 24.0419L17.8854 28.3354L9.89062 33.0377C9.4445 33.2908 9.44289 33.9263 9.89062 34.1812L30.4463 45.9537C30.6505 46.0647 30.9037 46.0627 31.1123 45.9498L41.252 39.9898L41.2529 39.9888C41.6887 39.7303 41.6834 39.0913 41.2402 38.8375L37.6172 36.7454L38.2284 36.2913L46.5586 41.1695Z" fill="black"/>
<path d="M28.7767 33.0396C32.4892 33.7523 36.1357 31.3299 36.849 27.5865C37.5602 23.8567 35.0996 20.2598 31.349 19.5465C27.6068 18.8287 23.9857 21.2799 23.2767 24.9996C22.5654 28.7281 25.0257 32.3262 28.7767 33.0396ZM30.0453 19.9225C30.4447 19.9225 30.849 19.9596 31.2553 20.0367C34.7659 20.7074 37.0113 24.0678 36.3588 27.4928C35.3025 33.028 27.9766 34.5556 24.768 29.8678C21.8559 25.6133 24.9703 19.9225 30.0453 19.9225Z" fill="black"/>
<path d="M26.9965 29.1823C26.976 29.3151 27.0932 29.4811 27.226 29.5065L28.5631 29.757L28.4096 30.6803C28.4027 30.7217 28.4303 30.7611 28.4716 30.7688L28.989 30.8655C29.0312 30.8734 29.0717 30.8454 29.0792 30.8032L29.2417 29.8842L29.7567 29.9807L29.6054 30.8914C29.5984 30.9334 29.6268 30.9732 29.6688 30.9801L30.188 31.0664C30.2297 31.0734 30.2693 31.0454 30.2766 31.0037L30.4353 30.1068C30.5407 30.1234 30.646 30.1325 30.7514 30.1325C31.4408 30.1325 32.1078 29.7789 32.4818 29.193C32.9884 28.3971 32.8726 27.2637 32.2016 26.611C33.3887 25.9069 33.4883 24.3345 32.5512 23.4694C32.1923 23.1387 31.7385 22.9681 31.284 22.8563L31.4239 21.9575C31.4329 21.8997 31.3936 21.8454 31.336 21.8358L30.8748 21.7592C30.8166 21.7495 30.7617 21.7888 30.752 21.8469L30.6071 22.7188L30.0904 22.6315L30.2262 21.7584C30.2351 21.7006 30.1959 21.6463 30.1382 21.6367L29.677 21.5601C29.6189 21.5504 29.5639 21.5897 29.5543 21.6478L29.4099 22.5165L28.4193 22.3493C28.2787 22.3239 28.1166 22.4479 28.0932 22.5836L26.9965 29.1784V29.1823ZM28.5512 22.8785L30.5912 23.2233C31.1811 23.3209 31.7924 23.4498 32.2123 23.8366C33.0163 24.5789 32.7509 25.9453 31.6791 26.3034C31.5668 26.3405 31.4877 26.445 31.4838 26.5641C31.4799 26.6676 31.5639 26.7975 31.6605 26.8375C31.7924 26.8912 31.9076 27.0035 32.0453 27.2125C32.3773 27.7125 32.3832 28.4166 32.06 28.9235C31.7396 29.4274 31.102 29.7096 30.5131 29.6129L27.5248 29.0534L28.5512 22.8785Z" fill="black"/>
<path d="M29.3461 25.6535L30.2898 25.8227C30.7651 25.9079 31.2184 25.5881 31.2976 25.1118C31.3761 24.6397 31.0569 24.1933 30.5848 24.1149L29.6295 23.956C29.5749 23.947 29.5232 23.9839 29.5141 24.0386L29.2649 25.5383C29.2558 25.5925 29.292 25.6438 29.3461 25.6535ZM30.1141 26.9467L29.1588 26.7879C29.1042 26.7788 29.0525 26.8157 29.0434 26.8704L28.7941 28.3702C28.7851 28.4243 28.8213 28.4756 28.8753 28.4853L29.8191 28.6545C30.2944 28.7397 30.7476 28.42 30.8269 27.9436C30.9053 27.4715 30.5862 27.0252 30.1141 26.9467ZM34.8061 23.3499C35.1925 24.3406 35.409 25.4115 35.4503 26.4505C35.2929 26.1967 35.1353 25.9429 34.9778 25.6889C35.1294 26.563 35.1406 27.4527 35.0109 28.3237C34.8791 28.093 34.7472 27.8623 34.6153 27.6315C34.6103 28.6598 34.3869 29.7609 33.8621 30.6713C36.2526 28.8349 36.6579 25.6871 34.8061 23.3499ZM27.167 21.5402C27.292 21.5508 27.4019 21.4581 27.4126 21.3331C27.4232 21.2081 27.3304 21.0981 27.2054 21.0874C27.0804 21.0769 26.9704 21.1696 26.9599 21.2947C26.9492 21.4197 27.042 21.5296 27.167 21.5402ZM26.3481 22.1277C26.4541 22.1366 26.5473 22.058 26.5562 21.9521C26.5652 21.8462 26.4867 21.753 26.3807 21.744C26.2747 21.735 26.1815 21.8136 26.1726 21.9195C26.1636 22.0255 26.2422 22.1186 26.3481 22.1277ZM46.8524 13.9714C48.4197 9.49069 43.727 5.28006 39.4101 7.34441C35.117 9.39243 35.4393 15.66 39.9833 17.2526C42.7722 18.2283 45.8671 16.7829 46.8524 13.9714ZM39.6259 7.79558C42.078 6.62145 45.0199 7.67236 46.1814 10.1393C46.1302 10.2475 46.0937 10.3717 46.0682 10.4314C45.8636 10.9098 45.659 11.3882 45.4543 11.8665C45.7059 11.7638 45.9575 11.6611 46.2091 11.5585C46.086 12.3796 45.7811 13.173 45.3225 13.8651C45.6186 13.7505 45.9147 13.636 46.2108 13.5215C46.1226 14.1009 45.9116 14.6571 45.6153 15.1626C44.3633 16.7696 42.1855 17.4964 40.1493 16.78C36.0547 15.3476 35.7151 9.66174 39.6259 7.79558Z" fill="black"/>
<path d="M40.0861 8.22207C40.312 8.27571 40.3934 7.93404 40.1672 7.88034C39.941 7.82663 39.8602 8.16848 40.0861 8.22207ZM39.3928 8.57754C39.4728 8.59652 39.553 8.54709 39.572 8.46713C39.591 8.38717 39.5415 8.30691 39.4616 8.28793C39.3816 8.26895 39.3014 8.31839 39.2824 8.39834C39.2634 8.47836 39.3128 8.55856 39.3928 8.57754Z" fill="black"/>
<path d="M49.168 14.6364C50.3433 11.2919 48.5646 7.6269 45.195 6.44575L45.1932 6.44526C39.447 3.12352 32.9555 9.22274 35.7988 15.0875C36.9253 17.4096 39.3321 18.9907 42.1745 18.8516C45.1696 19.2883 48.1404 17.5791 49.168 14.6364ZM39.1309 6.6393C42.21 5.16712 45.9196 6.45778 47.416 9.53969C49.8048 14.4693 45.0047 19.8524 39.794 18.025C34.5826 16.2012 34.19 8.99966 39.1309 6.6393ZM46.4801 17.2639C46.4128 17.2479 46.3662 17.2012 46.3374 17.1439C46.4387 17.0527 46.5343 16.9568 46.6301 16.8593C46.8786 16.9946 46.7209 17.3211 46.4801 17.2639ZM47.5167 16.5768C47.352 16.5377 47.2502 16.3724 47.2893 16.2077C47.3284 16.043 47.4937 15.9411 47.6584 15.9802C47.8231 16.0194 47.9249 16.1846 47.8858 16.3494C47.8467 16.5141 47.6815 16.6159 47.5167 16.5768Z" fill="black"/>
<path d="M43.0298 15.3242L43.5352 14.5033C43.5598 14.4634 43.5406 14.411 43.4961 14.3964L40.9653 13.5636C40.9216 13.5492 40.9022 13.4983 40.9252 13.4584L41.434 12.5769C41.4471 12.5542 41.4714 12.5403 41.4977 12.5406L42.7685 12.5551C42.7967 12.5554 42.8225 12.5394 42.8347 12.514L43.108 11.9439C43.1307 11.8966 43.0972 11.8415 43.0447 11.8401L42.0594 11.8116C42.0037 11.81 41.9705 11.7486 41.9998 11.701L43.1694 9.80637C43.1944 9.76596 43.1744 9.71286 43.129 9.69894L41.7522 9.27725C41.6457 9.24462 41.7253 9.25766 40.2184 11.8546C40.2051 11.878 40.1799 11.8921 40.153 11.8911L39.1158 11.8567C39.0866 11.8557 39.0596 11.8724 39.0475 11.899L38.7846 12.4745C38.7633 12.5211 38.7958 12.5745 38.847 12.577L39.5795 12.6126C39.6334 12.6151 39.6657 12.6737 39.6391 12.7207L38.9015 14.0243C38.8786 14.0647 38.899 14.1158 38.9434 14.1294L42.9468 15.3555C42.9785 15.3651 43.0126 15.3523 43.0298 15.3242ZM20.3452 15.9547C20.2085 15.9723 20.1108 16.0963 20.1284 16.234L20.7641 21.32C20.7798 21.446 20.8872 21.5387 21.0122 21.5387C21.022 21.5387 21.0327 21.5377 21.0435 21.5368C21.1802 21.5192 21.2778 21.3952 21.2603 21.2575L20.6245 16.1715C20.6069 16.0358 20.4927 15.9411 20.3452 15.9547ZM45.0103 27.8278L41.187 30.3639C41.0728 30.4401 41.0415 30.5954 41.1177 30.7106C41.1655 30.7829 41.2446 30.8219 41.3257 30.8219C41.3735 30.8219 41.4214 30.8083 41.4644 30.7799L45.2876 28.2438C45.4019 28.1676 45.4331 28.0124 45.3569 27.8971C45.2808 27.7819 45.1255 27.7516 45.0103 27.8278ZM31.2651 42.7969C30.5495 42.9853 29.7941 43.0211 29.0637 42.9015C29.3111 42.7722 29.5584 42.643 29.8058 42.5138C28.7443 42.6521 27.7133 42.4662 26.6429 42.4662L30.6203 44.974L34.1078 42.9364L33.868 42.8106C32.7535 43.2303 31.5755 43.4807 30.3867 43.5508C30.6795 43.2995 30.9724 43.0482 31.2651 42.7969ZM19.9893 30.7099C19.9893 30.7666 20.14 30.8125 20.3259 30.8125C20.7722 30.8125 20.7752 30.6071 20.3259 30.6071C20.14 30.6071 19.9893 30.6532 19.9893 30.7099ZM20.6511 29.8816C20.9698 29.8816 20.9701 29.797 20.6511 29.797C20.3324 29.797 20.3319 29.8816 20.6511 29.8816ZM21.3585 30.5045C21.7215 30.5045 21.724 30.3562 21.3585 30.3562C20.9963 30.3562 20.9923 30.5045 21.3585 30.5045Z" fill="black"/>
</svg>
