<svg xmlns="http://www.w3.org/2000/svg" xmlns:xlink="http://www.w3.org/1999/xlink" viewBox="0 0 30 29"><g><defs><linearGradient id="idss11950515238_1g742947590" x1="0.49751243781094523" x2="0.5024875621890548" y1="0" y2="1"><stop offset="0" stop-color="rgb(0, 0, 0)" stop-opacity="1"></stop><stop offset="1" stop-color="rgba(41, 41, 41, 0.52)" stop-opacity="0.52"></stop></linearGradient></defs><path d="M 13.601 9.917 C 13.601 13.895 12.623 17.416 10.666 20.478 C 8.709 23.54 6.085 26.092 2.792 28.133 C 2.649 28.186 2.422 28.094 2.112 27.859 C 1.802 27.623 1.551 27.374 1.36 27.113 C 1.169 26.851 1.002 26.524 0.859 26.131 C 0.716 25.738 0.716 25.49 0.859 25.385 C 2.482 24.181 3.877 22.951 5.047 21.695 C 6.216 20.439 6.8 18.502 6.8 15.884 C 6.8 15.256 6.765 14.811 6.693 14.55 C 6.621 14.288 6.49 14.157 6.299 14.157 C 6.156 14.157 6.001 14.196 5.834 14.275 C 5.667 14.353 5.464 14.393 5.226 14.393 C 3.842 14.393 2.625 13.856 1.575 12.783 C 0.525 11.71 0 10.022 0 7.718 C 0 5.782 0.608 4.015 1.825 2.418 C 3.042 0.822 4.605 0.023 6.514 0.023 C 8.662 0.023 10.38 0.966 11.668 2.85 C 12.957 4.735 13.601 7.09 13.601 9.917 Z M 29.92 9.917 C 29.92 13.895 28.941 17.416 26.985 20.478 C 25.028 23.54 22.403 26.092 19.111 28.133 C 18.967 28.186 18.741 28.094 18.43 27.859 C 18.12 27.623 17.87 27.374 17.679 27.113 C 17.488 26.851 17.321 26.524 17.178 26.131 C 17.035 25.738 17.035 25.49 17.178 25.385 C 18.8 24.181 20.196 22.951 21.365 21.695 C 22.535 20.439 23.119 18.502 23.119 15.884 C 23.119 15.256 23.083 14.811 23.012 14.55 C 22.94 14.288 22.809 14.157 22.618 14.157 C 22.475 14.157 22.32 14.196 22.153 14.275 C 21.986 14.353 21.783 14.393 21.544 14.393 C 20.16 14.393 18.944 13.856 17.894 12.783 C 16.844 11.71 16.319 10.022 16.319 7.718 C 16.319 5.782 16.927 4.015 18.144 2.418 C 19.361 0.822 20.924 0.023 22.833 0.023 C 24.98 0.023 26.698 0.966 27.987 2.85 C 29.275 4.735 29.92 7.09 29.92 9.917 Z" fill="url(#idss11950515238_1g742947590)"></path></g></svg>