<svg width="120" height="100" fill="none" xmlns="http://www.w3.org/2000/svg"><path d="M0 0h120v100H0z"/><path d="M89.81 27.746C77.978 26.28 66.597 17.401 61.834 13.245a3.527 3.527 0 0 0-4.65 0c-4.762 4.155-16.143 13.034-27.974 14.5-1.875.245-3.281 1.844-3.206 3.743 1.462 36.076 25.106 51.914 31.763 55.676 1.087.62 2.38.62 3.468 0 6.675-3.762 30.32-19.6 31.763-55.676.075-1.9-1.331-3.498-3.206-3.724l.019-.019Zm-30.3 40.14c-9.844 0-17.832-8.013-17.832-17.888 0-9.875 7.988-17.888 17.831-17.888 9.844 0 17.832 8.013 17.832 17.888 0 9.875-7.988 17.887-17.832 17.887Z" fill="url(#a)"/><path fill-rule="evenodd" clip-rule="evenodd" d="M59.959 62.85c7.096 0 12.85-5.754 12.85-12.85s-5.754-12.85-12.85-12.85c-7.097 0-12.85 5.754-12.85 12.85s5.753 12.85 12.85 12.85Zm-2.792-11.414 9.188-9.467 3.24 3.323-9.187 9.466-3.192 3.273-3.225-3.323L49.52 50.1l3.176-3.272 4.472 4.608Z" fill="#D9D9D9"/><path fill-rule="evenodd" clip-rule="evenodd" d="M59.959 62.85c7.096 0 12.85-5.754 12.85-12.85s-5.754-12.85-12.85-12.85c-7.097 0-12.85 5.754-12.85 12.85s5.753 12.85 12.85 12.85Zm-2.792-11.414 9.188-9.467 3.24 3.323-9.187 9.466-3.192 3.273-3.225-3.323L49.52 50.1l3.176-3.272 4.472 4.608Z" fill="url(#b)"/><defs><linearGradient id="a" x1="59.5" y1="12.37" x2="59.5" y2="87.63" gradientUnits="userSpaceOnUse"><stop stop-color="#5A27D1"/><stop offset="1" stop-color="#8966E1"/></linearGradient><linearGradient id="b" x1="59.959" y1="37.151" x2="59.959" y2="62.849" gradientUnits="userSpaceOnUse"><stop stop-color="#6EC47C"/><stop offset="1" stop-color="#99E3A6"/></linearGradient></defs></svg>