<svg width="24" height="24" viewBox="0 0 24 24" fill="none" xmlns="http://www.w3.org/2000/svg">
<path fill-rule="evenodd" clip-rule="evenodd" d="M11.9998 3.07921L9.78697 5.36871C9.55144 5.6124 9.22706 5.75001 8.88816 5.75001H5.74977V8.8884C5.74977 9.22731 5.61216 9.55168 5.36847 9.78721L3.07897 12L5.36847 14.2128C5.61216 14.4483 5.74977 14.7727 5.74977 15.1116V18.25H8.88816C9.22706 18.25 9.55144 18.3876 9.78697 18.6313L11.9998 20.9208L14.2126 18.6313C14.4481 18.3876 14.7725 18.25 15.1114 18.25H18.2498V15.1116C18.2498 14.7727 18.3874 14.4483 18.6311 14.2128L20.9206 12L18.6311 9.78722C18.3874 9.55169 18.2498 9.22731 18.2498 8.88841V5.75001H15.1114C14.7725 5.75001 14.4481 5.6124 14.2126 5.36871L11.9998 3.07921ZM11.101 1.85078C11.5924 1.34238 12.4072 1.34238 12.8986 1.85078L15.2175 4.25001H18.4998C19.1902 4.25001 19.7498 4.80966 19.7498 5.50001V8.78235L22.149 11.1012C22.6574 11.5926 22.6574 12.4074 22.149 12.8988L19.7498 15.2177V18.5C19.7498 19.1904 19.1902 19.75 18.4998 19.75H15.2175L12.8986 22.1492C12.4072 22.6576 11.5924 22.6576 11.101 22.1492L8.7821 19.75H5.49977C4.80941 19.75 4.24977 19.1904 4.24977 18.5V15.2177L1.85054 12.8988C1.34214 12.4074 1.34213 11.5926 1.85054 11.1012L4.24977 8.78234V5.50001C4.24977 4.80965 4.80941 4.25001 5.49977 4.25001H8.7821L11.101 1.85078Z" fill="#868E96"/>
<path fill-rule="evenodd" clip-rule="evenodd" d="M7.25 12C7.25 9.37665 9.37665 7.25 12 7.25C14.6234 7.25 16.75 9.37665 16.75 12C16.75 14.6234 14.6234 16.75 12 16.75C9.37665 16.75 7.25 14.6234 7.25 12ZM12 8.75C10.2051 8.75 8.75 10.2051 8.75 12C8.75 13.7949 10.2051 15.25 12 15.25C13.7949 15.25 15.25 13.7949 15.25 12C15.25 10.2051 13.7949 8.75 12 8.75Z" fill="#868E96"/>
</svg>
