<svg width="24" height="24" viewBox="0 0 24 24" fill="none" xmlns="http://www.w3.org/2000/svg">
<path d="M15.5 12C15.5 11.1716 16.1716 10.5 17 10.5C17.8284 10.5 18.5 11.1716 18.5 12C18.5 12.8284 17.8284 13.5 17 13.5C16.1716 13.5 15.5 12.8284 15.5 12Z" fill="#868E96"/>
<path fill-rule="evenodd" clip-rule="evenodd" d="M20.4412 6.6739C19.7835 5.12824 18.3301 4.01711 16.6006 3.83511L15.9487 3.76652C12.6564 3.42006 9.33569 3.44291 6.04845 3.83463L5.61651 3.8861C3.94771 4.08496 2.62546 5.38877 2.40318 7.05461C1.96522 10.3369 1.96522 13.6629 2.40318 16.9452C2.62546 18.611 3.94771 19.9148 5.61651 20.1137L6.04845 20.1652C9.33569 20.5569 12.6564 20.5797 15.9487 20.2333L16.6006 20.1647C18.3301 19.9827 19.7835 18.8716 20.4412 17.3259C21.4805 17.0165 22.2737 16.1155 22.4039 15.0023C22.6372 13.0075 22.6372 10.9923 22.4039 8.99752C22.2737 7.8843 21.4805 6.98332 20.4412 6.6739ZM15.7917 5.25828C12.6106 4.92353 9.40212 4.94561 6.22594 5.32409L5.794 5.37556C4.80518 5.49339 4.02171 6.26594 3.89001 7.253C3.46961 10.4037 3.46961 13.5962 3.89001 16.7468C4.02171 17.7339 4.80519 18.5064 5.794 18.6242L6.22594 18.6757C9.40212 19.0542 12.6106 19.0763 15.7917 18.7415L16.4436 18.6729C17.2941 18.5834 18.0467 18.1642 18.5682 17.5419C17.0601 17.6298 15.5319 17.5905 14.0416 17.424C12.7723 17.2821 11.7457 16.2825 11.596 15.0023C11.3627 13.0075 11.3627 10.9923 11.596 8.99752C11.7457 7.71726 12.7723 6.71772 14.0416 6.57585C15.5319 6.4093 17.0601 6.37 18.5682 6.45794C18.0467 5.83562 17.2941 5.41638 16.4436 5.32688L15.7917 5.25828ZM19.2773 8.01459C19.2779 8.01843 19.2785 8.02227 19.2791 8.02611L19.2851 8.06499L19.4838 8.03414C19.5866 8.04432 19.6892 8.05512 19.7916 8.06657C20.379 8.13222 20.8467 8.59636 20.914 9.17177C21.1338 11.0508 21.1338 12.949 20.914 14.828C20.8467 15.4034 20.379 15.8676 19.7916 15.9332C19.6892 15.9447 19.5865 15.9555 19.4838 15.9657L19.2851 15.9348L19.2791 15.9737C19.2785 15.9775 19.2779 15.9814 19.2773 15.9852C17.5986 16.1371 15.8771 16.1198 14.2083 15.9332C13.6209 15.8676 13.1531 15.4034 13.0858 14.828C12.866 12.949 12.866 11.0508 13.0858 9.17177C13.1531 8.59636 13.6209 8.13222 14.2083 8.06657C15.8771 7.88005 17.5986 7.86273 19.2773 8.01459Z" fill="#868E96"/>
</svg>
