<svg width="20" height="20" viewBox="0 0 20 20" fill="none" xmlns="http://www.w3.org/2000/svg">
<path d="M10.0004 2.29165C10.1587 2.29165 10.3171 2.34998 10.4421 2.47498L15.5004 7.53332C15.7421 7.77498 15.7421 8.17498 15.5004 8.41665C15.2587 8.65832 14.8587 8.65832 14.6171 8.41665L10.0004 3.79998L5.38372 8.41665C5.14206 8.65832 4.74206 8.65832 4.50039 8.41665C4.25872 8.17498 4.25872 7.77498 4.50039 7.53332L9.55872 2.47498C9.68372 2.34998 9.84206 2.29165 10.0004 2.29165Z" fill="#209F6E"/>
<path d="M10 2.43331C10.3417 2.43331 10.625 2.71665 10.625 3.05831V17.0833C10.625 17.425 10.3417 17.7083 10 17.7083C9.65833 17.7083 9.375 17.425 9.375 17.0833V3.05831C9.375 2.71665 9.65833 2.43331 10 2.43331Z" fill="#209F6E"/>
</svg>
