<svg width="25" height="25" viewBox="0 0 25 25" fill="none" xmlns="http://www.w3.org/2000/svg">
<path d="M21.5 10.5V14.5H17.5C16.9696 14.5 16.4609 14.2893 16.0858 13.9142C15.7107 13.5391 15.5 13.0304 15.5 12.5C15.5 11.9696 15.7107 11.4609 16.0858 11.0858C16.4609 10.7107 16.9696 10.5 17.5 10.5H21.5ZM18 12.69C18.0149 12.6275 18.0149 12.5625 18 12.5C18.0008 12.4344 17.9879 12.3694 17.962 12.3091C17.9362 12.2489 17.898 12.1946 17.85 12.15C17.7565 12.0584 17.6309 12.0071 17.5 12.0071C17.3691 12.0071 17.2435 12.0584 17.15 12.15C17.102 12.1946 17.0638 12.2489 17.038 12.3091C17.0121 12.3694 16.9992 12.4344 17 12.5C16.9979 12.5658 17.0102 12.6312 17.0362 12.6916C17.0621 12.7521 17.1009 12.8062 17.15 12.85C17.1949 12.8978 17.2491 12.936 17.3093 12.962C17.3695 12.9881 17.4344 13.0015 17.5 13.0015C17.5656 13.0015 17.6305 12.9881 17.6907 12.962C17.7509 12.936 17.8051 12.8978 17.85 12.85C17.9154 12.8136 17.9679 12.7576 18 12.69Z" fill="#74E8D5"/>
<path d="M18 12.5C18.0149 12.5625 18.0149 12.6275 18 12.69C17.9787 12.7524 17.9407 12.8078 17.89 12.85C17.8451 12.8978 17.7909 12.936 17.7307 12.962C17.6705 12.9881 17.6056 13.0015 17.54 13.0015C17.4744 13.0015 17.4095 12.9881 17.3493 12.962C17.2891 12.936 17.2349 12.8978 17.19 12.85C17.1336 12.8102 17.0872 12.7579 17.0542 12.6972C17.0213 12.6365 17.0027 12.569 17 12.5C16.9992 12.4344 17.0122 12.3694 17.038 12.3091C17.0638 12.2489 17.102 12.1947 17.15 12.15C17.2435 12.0584 17.3692 12.0071 17.5 12.0071C17.6309 12.0071 17.7566 12.0584 17.85 12.15C17.8981 12.1947 17.9362 12.2489 17.9621 12.3091C17.9879 12.3694 18.0008 12.4344 18 12.5Z" fill="#172F35"/>
<path d="M18.5 20H5.5C4.83696 20 4.20107 19.7366 3.73223 19.2678C3.26339 18.7989 3 18.163 3 17.5V7.5C3 6.83696 3.26339 6.20107 3.73223 5.73223C4.20107 5.26339 4.83696 5 5.5 5H18.5C19.163 5 19.7989 5.26339 20.2678 5.73223C20.7366 6.20107 21 6.83696 21 7.5V10.5C21 10.6326 20.9473 10.7598 20.8536 10.8536C20.7598 10.9473 20.6326 11 20.5 11C20.3674 11 20.2402 10.9473 20.1464 10.8536C20.0527 10.7598 20 10.6326 20 10.5V7.5C20 7.10218 19.842 6.72064 19.5607 6.43934C19.2794 6.15804 18.8978 6 18.5 6H5.5C5.10218 6 4.72064 6.15804 4.43934 6.43934C4.15804 6.72064 4 7.10218 4 7.5V17.5C4 17.8978 4.15804 18.2794 4.43934 18.5607C4.72064 18.842 5.10218 19 5.5 19H18.5C18.8978 19 19.2794 18.842 19.5607 18.5607C19.842 18.2794 20 17.8978 20 17.5V14.5C20 14.3674 20.0527 14.2402 20.1464 14.1464C20.2402 14.0527 20.3674 14 20.5 14C20.6326 14 20.7598 14.0527 20.8536 14.1464C20.9473 14.2402 21 14.3674 21 14.5V17.5C21 18.163 20.7366 18.7989 20.2678 19.2678C19.7989 19.7366 19.163 20 18.5 20Z" fill="#172F35"/>
<path d="M21.5 15.0001H17.5C16.837 15.0001 16.2011 14.7367 15.7323 14.2679C15.2634 13.799 15 13.1632 15 12.5001C14.9985 12.1706 15.0633 11.8441 15.1904 11.54C15.3175 11.2359 15.5044 10.9605 15.74 10.7301C15.9691 10.4961 16.243 10.3109 16.5455 10.1854C16.8479 10.06 17.1726 9.99694 17.5 10.0001H21.5C21.6326 10.0001 21.7598 10.0528 21.8536 10.1466C21.9473 10.2403 22 10.3675 22 10.5001V14.5001C22 14.6327 21.9473 14.7599 21.8536 14.8537C21.7598 14.9474 21.6326 15.0001 21.5 15.0001ZM17.5 11.0001C17.1038 11.0053 16.7253 11.165 16.4451 11.4452C16.1649 11.7254 16.0052 12.1039 16 12.5001C16 12.8979 16.1581 13.2795 16.4394 13.5608C16.7207 13.8421 17.1022 14.0001 17.5 14.0001H21V11.0001H17.5Z" fill="#172F35"/>
</svg>
