<svg width="25" height="24" viewBox="0 0 25 24" fill="none" xmlns="http://www.w3.org/2000/svg">
<path d="M16.0796 12C16.0796 11.1716 16.7512 10.5 17.5796 10.5C18.408 10.5 19.0796 11.1716 19.0796 12C19.0796 12.8284 18.408 13.5 17.5796 13.5C16.7512 13.5 16.0796 12.8284 16.0796 12Z" fill="white"/>
<path fill-rule="evenodd" clip-rule="evenodd" d="M21.0208 6.67414C20.3631 5.12848 18.9097 4.01735 17.1802 3.83535L16.5283 3.76676C13.236 3.4203 9.91528 3.44315 6.62804 3.83487L6.1961 3.88634C4.5273 4.0852 3.20505 5.38901 2.98277 7.05485C2.54481 10.3371 2.54481 13.6631 2.98277 16.9454C3.20505 18.6112 4.5273 19.915 6.1961 20.1139L6.62804 20.1654C9.91528 20.5571 13.236 20.5799 16.5283 20.2335L17.1802 20.1649C18.9097 19.9829 20.3631 18.8718 21.0208 17.3261C22.0601 17.0167 22.8533 16.1157 22.9835 15.0025C23.2168 13.0077 23.2168 10.9925 22.9835 8.99776C22.8533 7.88454 22.0601 6.98356 21.0208 6.67414ZM16.3713 5.25852C13.1902 4.92377 9.98171 4.94585 6.80553 5.32433L6.37359 5.3758C5.38477 5.49363 4.6013 6.26618 4.4696 7.25324C4.0492 10.4039 4.0492 13.5964 4.4696 16.747C4.6013 17.7341 5.38478 18.5066 6.37359 18.6244L6.80553 18.6759C9.98171 19.0544 13.1902 19.0765 16.3713 18.7417L17.0232 18.6731C17.8737 18.5836 18.6263 18.1644 19.1478 17.5421C17.6397 17.63 16.1115 17.5907 14.6212 17.4242C13.3519 17.2823 12.3253 16.2827 12.1756 15.0025C11.9423 13.0077 11.9423 10.9925 12.1756 8.99776C12.3253 7.7175 13.3519 6.71796 14.6212 6.57609C16.1115 6.40954 17.6397 6.37024 19.1478 6.45818C18.6263 5.83586 17.8737 5.41662 17.0232 5.32712L16.3713 5.25852ZM19.8569 8.01483C19.8575 8.01867 19.8581 8.02251 19.8587 8.02635L19.8647 8.06523L20.0634 8.03438C20.1662 8.04456 20.2688 8.05536 20.3712 8.06681C20.9586 8.13246 21.4263 8.5966 21.4936 9.17201C21.7134 11.051 21.7134 12.9492 21.4936 14.8282C21.4263 15.4036 20.9586 15.8678 20.3712 15.9334C20.2688 15.9449 20.1661 15.9557 20.0634 15.9659L19.8647 15.935L19.8587 15.9739C19.8581 15.9777 19.8575 15.9816 19.8569 15.9854C18.1782 16.1373 16.4567 16.12 14.7879 15.9334C14.2005 15.8678 13.7327 15.4036 13.6654 14.8282C13.4456 12.9492 13.4456 11.051 13.6654 9.17201C13.7327 8.5966 14.2005 8.13246 14.7879 8.06681C16.4567 7.88029 18.1782 7.86297 19.8569 8.01483Z" fill="white"/>
</svg>
