<svg width="130" height="40" viewBox="0 0 130 40" fill="none" xmlns="http://www.w3.org/2000/svg">
<g clip-path="url(#clip0_665_1533)">
<path d="M9.61009 17.6067L14.512 12.705L19.4165 17.6093L22.2688 14.757L14.512 7L6.75781 14.7544L9.61009 17.6067Z" fill="#F3BA2F"/>
<path d="M7.5954 19.6203L4.74316 16.7681L1.89079 19.6204L4.74302 22.4727L7.5954 19.6203Z" fill="#F3BA2F"/>
<path d="M9.60989 21.6347L14.5118 26.5364L19.4161 21.6323L22.27 24.483L22.2686 24.4846L14.5118 32.2414L6.75741 24.4872L6.75342 24.4832L9.60989 21.6347Z" fill="#F3BA2F"/>
<path d="M24.2804 22.474L27.1328 19.6216L24.2806 16.7693L21.4282 19.6217L24.2804 22.474Z" fill="#F3BA2F"/>
<path d="M17.4051 19.6194H17.4063L14.512 16.7251L12.373 18.8641H12.3728L12.1272 19.1099L11.6202 19.6169L11.6162 19.6208L11.6202 19.625L14.512 22.5168L17.4063 19.6224L17.4077 19.6208L17.4051 19.6194Z" fill="#F3BA2F"/>
<path d="M31.5796 13.1162H37.7832C39.3228 13.1162 40.4871 13.5113 41.2762 14.3016C41.8868 14.9137 42.1921 15.6722 42.1921 16.5771V16.6154C42.1921 16.9978 42.1448 17.3357 42.0497 17.6288C41.9548 17.9222 41.828 18.1864 41.6695 18.4222C41.5114 18.6583 41.3276 18.8654 41.1187 19.0437C40.9096 19.2223 40.6849 19.3754 40.4443 19.5026C41.2182 19.7961 41.8274 20.1942 42.2716 20.6978C42.7156 21.2016 42.9379 21.8995 42.9379 22.7917V22.8298C42.9379 23.4418 42.8203 23.9771 42.5848 24.4362C42.3494 24.895 42.012 25.2775 41.5728 25.5836C41.1336 25.8896 40.6055 26.1188 39.9883 26.272C39.3711 26.4249 38.6871 26.5012 37.9365 26.5012H31.5796V13.1162ZM37.1629 18.5275C37.8133 18.5275 38.3296 18.4163 38.7118 18.193C39.0942 17.9699 39.2854 17.6096 39.2854 17.1126V17.0744C39.2854 16.6284 39.1195 16.2875 38.7881 16.0514C38.4566 15.8156 37.9785 15.6976 37.3541 15.6976H34.4476V18.5275H37.1629ZM37.947 23.9201C38.5972 23.9201 39.1067 23.8024 39.4767 23.5664C39.8464 23.3306 40.0314 22.9639 40.0314 22.4667V22.4286C40.0314 21.9825 39.8591 21.6288 39.515 21.3672C39.1707 21.1063 38.6163 20.9755 37.8513 20.9755H34.4476V23.9203L37.947 23.9201Z" fill="black"/>
<path d="M46.6323 13.1162H49.5773V26.5016H46.6323V13.1162Z" fill="black"/>
<path d="M54.0376 13.1162H56.7525L63.0247 21.3579V13.1162H65.9312V26.5016H63.4264L56.9439 17.9924V26.5016H54.0376V13.1162Z" fill="black"/>
<path d="M74.8469 13.021H77.562L83.2989 26.5019H80.2201L78.9963 23.4999H73.3362L72.1125 26.5019H69.1099L74.8469 13.021ZM77.9446 20.899L76.1661 16.5585L74.3882 20.899H77.9446Z" fill="black"/>
<path d="M86.4775 13.1162H89.1931L95.4648 21.3579V13.1162H98.3713V26.5016H95.8665L89.384 17.9924V26.5016H86.4775V13.1162Z" fill="black"/>
<path d="M108.969 26.7309C107.987 26.7309 107.076 26.5522 106.235 26.1956C105.393 25.8389 104.667 25.3511 104.055 24.7326C103.443 24.1144 102.965 23.3846 102.621 22.5432C102.277 21.7017 102.104 20.803 102.104 19.8469V19.8088C102.104 18.8526 102.277 17.9573 102.621 17.1222C102.965 16.2872 103.443 15.5542 104.055 14.9232C104.667 14.2922 105.4 13.7948 106.254 13.4316C107.108 13.0683 108.051 12.8867 109.084 12.8867C109.708 12.8867 110.279 12.938 110.795 13.0396C111.311 13.1419 111.78 13.2819 112.201 13.4603C112.621 13.6389 113.01 13.8556 113.367 14.1104C113.724 14.3656 114.055 14.6459 114.361 14.9519L112.488 17.1126C111.964 16.6411 111.432 16.2711 110.891 16.0036C110.349 15.736 109.74 15.602 109.065 15.602C108.504 15.602 107.984 15.7105 107.506 15.9272C107.028 16.1439 106.617 16.4433 106.273 16.8257C105.929 17.2081 105.661 17.6513 105.47 18.1547C105.279 18.6585 105.183 19.1969 105.183 19.7705V19.8086C105.183 20.3822 105.279 20.9242 105.47 21.4338C105.661 21.944 105.925 22.3899 106.263 22.7723C106.601 23.1547 107.009 23.4577 107.487 23.6808C107.965 23.9041 108.491 24.0153 109.065 24.0153C109.83 24.0153 110.476 23.8752 111.005 23.5947C111.534 23.3146 112.06 22.932 112.583 22.4474L114.457 24.3405C114.113 24.7103 113.755 25.0419 113.386 25.3347C113.016 25.6282 112.612 25.8798 112.172 26.0903C111.732 26.3004 111.25 26.4601 110.728 26.5682C110.205 26.6764 109.619 26.7309 108.969 26.7309Z" fill="black"/>
<path d="M117.923 13.1162H128V15.736H120.83V18.4514H127.14V21.071H120.83V23.882H128.096V26.5016H117.923V13.1162Z" fill="black"/>
</g>
<defs>
<clipPath id="clip0_665_1533">
<rect width="126" height="25.2415" fill="white" transform="translate(2 7)"/>
</clipPath>
</defs>
</svg>
