<svg width="130" height="40" viewBox="0 0 130 40" fill="none" xmlns="http://www.w3.org/2000/svg">
<g clip-path="url(#clip0_665_1533)">
<path d="M111.578 27.7293C111.673 27.8312 111.603 27.9998 111.465 27.9998H108.036C107.993 27.9998 107.952 27.9816 107.923 27.9497L103.365 23.0163L98.757 27.9503C98.7281 27.9819 98.6866 27.9998 98.6444 27.9998H95.2146C95.077 27.9998 95.0066 27.8312 95.102 27.7293L101.385 20.9923L95.3146 14.4459C95.22 14.344 95.2904 14.1758 95.428 14.1758H98.8578C98.9008 14.1758 98.9423 14.194 98.972 14.2261L103.331 18.9684L107.708 14.2259C107.738 14.1939 107.779 14.1758 107.822 14.1758H111.252C111.39 14.1758 111.46 14.344 111.365 14.4459L105.295 20.9923L111.578 27.7293Z" fill="#172D3E"/>
<path d="M79.0692 27.9995C78.9492 27.9995 78.8521 27.9001 78.8521 27.7775V14.3984C78.8521 14.2757 78.9492 14.1763 79.0692 14.1763H92.0246C92.1442 14.1763 92.2412 14.2757 92.2412 14.3984V16.3116C92.2412 16.4343 92.1442 16.5337 92.0246 16.5337H81.9939V19.6145H88.0076C88.1272 19.6145 88.225 19.7139 88.225 19.8366V21.7499C88.225 21.8725 88.1272 21.9719 88.0076 21.9719H81.9939V25.401H92.1552C92.2748 25.401 92.3725 25.5004 92.3725 25.6231V27.7775C92.3725 27.9001 92.2748 27.9995 92.1552 27.9995H79.0692Z" fill="#172D3E"/>
<path d="M56.1291 27.9995C56.0093 27.9995 55.9121 27.9001 55.9121 27.7775V14.3984C55.9121 14.2757 56.0093 14.1763 56.1291 14.1763H58.8367C58.9566 14.1763 59.0538 14.2757 59.0538 14.3984V27.7775C59.0538 27.9001 58.9566 27.9995 58.8367 27.9995H56.1291Z" fill="#172D3E"/>
<path d="M40.7268 27.9995C40.6069 27.9995 40.5098 27.9001 40.5098 27.7775V14.3984C40.5098 14.2757 40.6069 14.1763 40.7268 14.1763H53.5248C53.6447 14.1763 53.7419 14.2757 53.7419 14.3984V16.3652C53.7419 16.4879 53.6447 16.5873 53.5248 16.5873H43.6514V20.2307H49.1156C49.2354 20.2307 49.3326 20.3301 49.3326 20.4527V22.5267C49.3326 22.6494 49.2354 22.7488 49.1156 22.7488H43.6514V27.7775C43.6514 27.9001 43.5542 27.9995 43.4344 27.9995H40.7268Z" fill="#172D3E"/>
<path d="M32.3251 16.6409V27.7775C32.3251 27.9001 32.228 27.9995 32.1081 27.9995H29.4005C29.2807 27.9995 29.1835 27.9001 29.1835 27.7775V16.6409H23.4128C23.2929 16.6409 23.1958 16.5415 23.1958 16.4188V14.3984C23.1958 14.2757 23.2929 14.1763 23.4128 14.1763H38.122C38.2418 14.1763 38.339 14.2757 38.339 14.3984V16.4188C38.339 16.5415 38.2418 16.6409 38.122 16.6409H32.3251Z" fill="#172D3E"/>
<path d="M18.1008 27.9995C17.981 27.9995 17.8838 27.9001 17.8838 27.7775V14.3984C17.8838 14.2757 17.981 14.1763 18.1008 14.1763H20.8084C20.9283 14.1763 21.0254 14.2757 21.0254 14.3984V27.7775C21.0254 27.9001 20.9283 27.9995 20.8084 27.9995H18.1008Z" fill="#172D3E"/>
<path fill-rule="evenodd" clip-rule="evenodd" d="M1 14.3984C1 14.2757 1.09718 14.1763 1.21705 14.1763H12.7863C14.3446 14.1763 15.6079 15.4689 15.6079 17.0635V17.9863C15.6079 19.5808 14.3446 20.8735 12.7863 20.8735H12.8918C14.4501 20.8735 15.7133 22.1661 15.7133 23.7607V25.1125C15.7133 26.7071 14.4501 27.9998 12.8918 27.9998H1.21705C1.09718 27.9998 1 27.9003 1 27.7777V14.3984ZM4.08735 16.4271H11.3997C12.1189 16.4271 12.702 17.0237 12.702 17.7596V18.3892C12.702 19.1251 12.1189 19.7217 11.3997 19.7217H4.08735V16.4271ZM4.08735 21.9976H11.4782C12.1974 21.9976 12.7805 22.5943 12.7805 23.3302V24.1755C12.7805 24.9115 12.1974 25.5081 11.4782 25.5081H4.08735V21.9976Z" fill="#172D3E"/>
<path d="M61.2241 27.7775V14.3984C61.2241 14.2757 61.3213 14.1763 61.4412 14.1763H63.2887C63.3417 14.1763 63.3929 14.1961 63.4325 14.2321L73.8541 23.6708V14.3984C73.8541 14.2757 73.9513 14.1763 74.0711 14.1763H76.4646C76.5844 14.1763 76.6816 14.2757 76.6816 14.3984V27.7775C76.6816 27.9001 76.5844 27.9995 76.4646 27.9995H74.6172C74.5641 27.9995 74.5128 27.9796 74.4731 27.9435L64.0516 18.4802V27.7775C64.0516 27.9001 63.9545 27.9995 63.8346 27.9995H61.4412C61.3213 27.9995 61.2241 27.9001 61.2241 27.7775Z" fill="#172D3E"/>
<path d="M114.189 22.4334C114.053 20.1682 114.983 17.6503 116.898 15.6907C121.062 11.4298 129.734 12.027 129.783 12.0304C129.759 12.0656 123.42 21.4709 115.907 22.3506C115.327 22.4186 114.753 22.4454 114.189 22.4334Z" fill="#03CA9B"/>
<path d="M115.069 25.3295C115.284 25.6795 115.537 26.0072 115.83 26.3073C118.401 28.9375 123.047 28.4487 126.206 25.2154C130.382 20.9424 129.783 12.0303 129.783 12.0303C129.76 12.0831 125.215 22.5065 117.993 24.7801C117.012 25.0887 116.03 25.2685 115.069 25.3295Z" fill="#03CA9B"/>
</g>
<defs>
<clipPath id="clip0_665_1533">
<rect width="129" height="16" fill="white" transform="translate(1 12)"/>
</clipPath>
</defs>
</svg>
