<svg width="130" height="40" viewBox="0 0 130 40" fill="none" xmlns="http://www.w3.org/2000/svg">
<g clip-path="url(#clip0_665_1533)">
<mask id="mask0_665_1533" style="mask-type:luminance" maskUnits="userSpaceOnUse" x="13" y="4" width="103" height="32">
<path d="M13 4H116V36H13V4Z" fill="white"/>
</mask>
<g mask="url(#mask0_665_1533)">
<path d="M53.3721 20.074C54.1471 19.634 54.7671 19.086 55.2191 18.44C55.7327 17.7097 56.0045 16.8368 55.9961 15.944C55.9961 14.222 55.3521 12.877 54.0831 11.948C52.8291 11.028 51.1041 10.563 48.9541 10.563H41.1801V30.514H49.2651C51.5291 30.514 53.3421 29.988 54.6531 28.949C55.9741 27.901 56.6451 26.434 56.6451 24.587C56.6451 23.462 56.3291 22.495 55.7081 21.712C55.1511 21.012 54.3661 20.462 53.3721 20.074ZM45.3871 14.159H48.6161C49.6291 14.159 50.3931 14.355 50.8901 14.742C51.3801 15.122 51.6201 15.624 51.6201 16.272C51.6201 16.922 51.3801 17.448 50.8901 17.831C50.3931 18.217 49.6291 18.413 48.6161 18.413H45.3871V14.159ZM51.4661 26.242C50.9061 26.691 50.0511 26.918 48.9261 26.918H45.3871V22.036H48.9271C50.0511 22.036 50.9071 22.256 51.4691 22.686C52.0261 23.116 52.2961 23.683 52.2961 24.422C52.2961 25.2 52.0251 25.795 51.4661 26.242ZM62.3301 15.595H58.0941V30.513H62.3291L62.3301 15.595ZM104.161 17.84C103.483 17.0361 102.628 16.3995 101.664 15.98C100.678 15.543 99.5691 15.321 98.3701 15.321C96.9001 15.321 95.5741 15.655 94.4271 16.313C93.2929 16.9586 92.356 17.901 91.7171 19.039C91.0661 20.189 90.7371 21.521 90.7371 23C90.7371 24.48 91.0571 25.9 91.6871 27.067C92.3027 28.22 93.2409 29.1687 94.3871 29.797C95.5441 30.436 96.9031 30.76 98.4271 30.76C100.297 30.76 101.884 30.29 103.147 29.361C104.362 28.468 105.197 27.209 105.653 25.631H101.389C101.165 26.168 100.849 26.625 100.396 26.947C99.8611 27.327 99.1701 27.519 98.3421 27.519C97.6241 27.519 97.0081 27.345 96.5121 27.001C96.0151 26.656 95.6351 26.148 95.3851 25.487C95.2254 25.0527 95.1183 24.6008 95.0661 24.141H105.727L105.748 24.009C105.938 22.806 105.89 21.666 105.604 20.621C105.331 19.6 104.838 18.6507 104.161 17.839V17.84ZM95.1341 21.38C95.1988 21.0709 95.2874 20.7673 95.3991 20.472C95.6591 19.802 96.0341 19.287 96.5151 18.943C96.9941 18.599 97.5901 18.426 98.2861 18.426C99.1591 18.426 99.8761 18.709 100.416 19.266C100.929 19.796 101.219 20.52 101.281 21.379L95.1341 21.38ZM62.4181 10.563H58.0061V14.159H62.4181V10.563ZM85.6101 17.288C85.1326 16.7051 84.5359 16.2311 83.8601 15.898C83.0701 15.515 82.1451 15.321 81.1111 15.321C79.8461 15.321 78.7111 15.634 77.7411 16.248C76.7711 16.863 76.0011 17.731 75.4561 18.827C74.9111 19.921 74.6351 21.205 74.6351 22.645C74.6351 24.085 74.9251 25.294 75.4991 26.395C76.0741 27.5 76.8711 28.38 77.8681 29.012C78.8661 29.645 80.0051 29.967 81.2531 29.967C82.1951 29.967 83.0561 29.763 83.8101 29.36C84.3913 29.0538 84.8996 28.6257 85.3001 28.105V29.729C85.3001 30.736 85.0361 31.509 84.5161 32.024C83.9941 32.539 83.2001 32.799 82.1561 32.799C81.2561 32.799 80.5491 32.595 80.0541 32.192C79.6491 31.862 79.2951 31.43 79.2131 30.514H75.1291C75.1671 31.796 75.5431 32.659 76.0751 33.416C76.6701 34.263 77.5081 34.926 78.5681 35.384C79.6161 35.836 80.8341 36.066 82.1841 36.066C84.4521 36.066 86.2571 35.496 87.5491 34.373C88.8491 33.244 89.5071 31.663 89.5071 29.675V15.595H85.6111L85.6101 17.288ZM84.8651 24.627C84.6196 25.1556 84.2283 25.6032 83.7371 25.917C83.2571 26.217 82.6771 26.371 82.0151 26.371C81.0551 26.371 80.3101 26.044 79.7351 25.373C79.1611 24.704 78.8701 23.786 78.8701 22.644C78.8701 21.502 79.1601 20.584 79.7341 19.915C80.3031 19.253 81.0701 18.917 82.0141 18.917C82.9591 18.917 83.7931 19.257 84.3801 19.93C84.9721 20.609 85.2721 21.531 85.2721 22.67C85.2721 23.409 85.1351 24.066 84.8651 24.626V24.627ZM116.002 19.164V15.596H112.945V10.563H108.738V15.596H106.127V19.164H108.738V25.004C108.738 28.251 109.378 30.637 113.364 30.563L115.867 30.513V27.17H114.625C112.853 27.17 112.952 26.137 112.952 24.218L112.945 19.165L116.002 19.164ZM73.6061 19.164V15.596H70.5491V10.563H66.3421V15.596H63.7301V19.164H66.3401V25.004C66.3401 28.251 66.9801 30.637 70.9671 30.563L73.4691 30.513V27.17H72.2301C70.4581 27.17 70.5561 26.137 70.5561 24.218L70.5491 19.165L73.6061 19.164ZM23.5601 14.159H29.9131L36.4121 20.616C36.8351 21.036 36.8371 21.72 36.4161 22.142L28.0811 30.519H21.5381L23.5171 28.595L30.7811 21.377L23.6091 14.158" fill="black"/>
<path d="M26.17 21.36H19.819L13.319 14.903C13.2184 14.8031 13.1385 14.6844 13.0838 14.5536C13.0292 14.4228 13.0009 14.2826 13.0005 14.1408C13.0001 13.9991 13.0277 13.8587 13.0817 13.7276C13.1356 13.5965 13.2149 13.4774 13.315 13.377L21.65 5H28.194L26.216 6.924L18.951 14.142L26.124 21.36" fill="black"/>
</g>
</g>
<defs>
<clipPath id="clip0_665_1533">
<rect width="103" height="32" fill="white" transform="translate(13 4)"/>
</clipPath>
</defs>
</svg>
