<svg width="130" height="40" viewBox="0 0 130 40" fill="none" xmlns="http://www.w3.org/2000/svg">
<g clip-path="url(#clip0_665_1533)">
<path fill-rule="evenodd" clip-rule="evenodd" d="M23.5597 18.9407L23.5181 18.9091C24.4445 17.5779 24.9077 15.9588 24.9077 14.0518C24.9077 11.223 23.935 9.00664 21.9896 7.4026C20.0441 5.79855 17.3668 4.99769 13.9576 5H5.46707V6.18482H13.8048C16.702 6.18482 19.2867 6.8284 20.9265 8.16241C22.4516 9.40447 23.0109 10.4731 23.4573 12.0725C23.004 10.6136 21.9357 9.67509 21.2721 9.12345C20.1101 8.14854 18.6666 7.46679 14.7341 7.46679H8.1855V8.62211H14.5881C17.944 8.62211 19.1756 9.03497 20.3046 9.86937C21.7499 10.938 22.6462 12.2147 22.6462 14.057C22.6462 15.7172 22.0625 16.6054 21.0828 17.5264C20.9682 17.4813 20.8536 17.438 20.7355 17.3964L20.8466 17.3374C21.9079 16.7528 22.6427 15.6304 22.6427 14.0518C22.6427 12.3275 21.6526 11.2502 20.6833 10.6431C19.7749 10.0741 18.9098 9.69245 15.2187 9.69245H10.5114V10.4627H15.0866C18.4182 10.4627 19.681 11.0542 20.0632 11.2884C20.8119 11.7464 21.8003 12.5409 21.8003 14.0639C21.8003 15.0354 21.2253 16.2046 20.3758 16.6816C20.1 16.8342 19.8089 16.9574 19.5074 17.0494C18.2429 16.7633 16.9494 16.6247 15.6529 16.6365H9.97464V17.8213H15.4966C18.3939 17.8213 21.0168 18.4163 22.6183 19.799C23.8273 20.8256 24.7069 22.1848 25.1474 23.7073C24.6959 22.2483 23.7682 21.3637 22.964 20.7583C21.7481 19.8406 20.3585 19.0998 16.4259 19.1016H7.52371V20.2569H16.28C19.6359 20.2569 20.8657 20.6698 21.9965 21.5042C23.4417 22.5728 24.3241 23.8495 24.3241 25.6919C24.3241 27.4682 23.4278 28.764 21.9756 29.8326C20.4905 30.9255 18.2202 30.9585 17.2962 30.9585H12.4325V32.112H16.0681C19.1113 32.112 21.1437 31.8519 22.9032 30.5508C24.5534 29.326 25.4305 27.7423 25.4305 25.6936C25.4466 26.7914 25.2103 27.8783 24.74 28.8707C24.2697 29.863 23.5777 30.7346 22.7174 31.4182C21.0516 32.7921 18.0796 33.3975 15.1058 33.3975H5.53308V34.5754H15.1735C18.7634 34.5754 21.5651 33.7971 23.5789 32.2404C25.5927 30.6838 26.6007 28.4969 26.6031 25.6797C26.5961 22.8475 25.6194 20.6305 23.6728 19.0288C23.6357 18.9982 23.5978 18.9695 23.5597 18.9407ZM23.7312 14.2028C23.7277 15.6337 23.2966 17.0323 22.4916 18.2186C22.3891 18.1597 22.2849 18.1024 22.1806 18.0452C23.1702 17.0073 23.7237 15.6322 23.7312 14.2028ZM17.7632 24.0195H9.41867V24.6644H17.7632V24.0195ZM12.8598 26.3666H17.713V26.9197H12.8598V26.3666ZM7.99455 24.0195H5.52278V24.6644H7.99455V24.0195ZM3.98179 26.3215H11.4892V26.9664H3.98179V26.3215ZM11.0462 31.2446H3.98179V32.0178H11.0462V31.2446ZM5.83181 9.87287H8.75693V10.4051H5.83181V9.87287ZM10.4939 14.1057H3.7942V14.7245H10.4939V14.1057ZM6.63589 12.2147H17.7285V12.8336H6.63589V12.2147ZM17.5184 14.1057H12.1823V14.7245H17.5184V14.1057ZM24.3137 25.6815C24.3137 27.1717 23.5927 28.2871 22.5298 28.8508C21.4702 29.4112 19.9694 29.7339 17.4317 29.7339H2V29.0001H17.3621C19.7036 29.0001 21.2773 28.6236 22.052 28.2038C22.9032 27.7406 23.4781 26.6148 23.4781 25.678C23.4781 24.2121 22.4899 23.4402 21.7412 22.9979C21.359 22.7724 20.0944 22.2017 16.7646 22.2017H10.9039V21.4679H16.9019C20.6607 21.4679 21.458 21.8374 22.3683 22.3856C23.3375 22.9736 24.3137 24.0179 24.3137 25.6815ZM54.1331 12.6241C53.6946 12.6362 53.2652 12.4971 52.9172 12.2303C52.7602 12.1166 52.6328 11.9671 52.5455 11.7942C52.458 11.6213 52.4135 11.43 52.4152 11.2363C52.4135 11.0417 52.458 10.8495 52.5454 10.6754C52.6327 10.5014 52.7601 10.3506 52.9172 10.2354C53.2632 9.9643 53.6935 9.82311 54.1331 9.83642C54.5796 9.82306 55.0171 9.96398 55.3716 10.2354C55.5304 10.3476 55.6599 10.4961 55.7494 10.6686C55.8387 10.8412 55.8854 11.0326 55.8854 11.2268C55.8854 11.421 55.8387 11.6124 55.7494 11.785C55.6599 11.9575 55.5304 12.106 55.3716 12.2182C55.0186 12.4932 54.5806 12.6368 54.1331 12.6241ZM55.4289 29.4267H52.773V16.0259H55.4289V29.4267ZM35.4481 29.4267V10.6604H42.0487C44.0555 10.6604 45.6473 11.0571 46.8238 11.8504C48.0003 12.6438 48.5886 13.6777 48.5886 14.9521C48.6029 15.9801 48.2203 16.9739 47.5203 17.7276C46.8081 18.5141 45.8239 19.0727 44.5674 19.4034V19.4555C46.1319 19.6035 47.3837 20.0811 48.3228 20.8883C48.7803 21.2726 49.1447 21.7554 49.3887 22.3003C49.6326 22.8453 49.7499 23.4384 49.7316 24.0351C49.7316 25.6415 49.0193 26.9414 47.595 27.9348C46.1707 28.9283 44.3758 29.4255 42.2103 29.4267H35.4481ZM38.1682 12.6501V18.7095H40.9474C42.4367 18.7095 43.6074 18.4205 44.4597 17.8421C44.8678 17.5789 45.2003 17.2142 45.4247 16.7839C45.6492 16.3536 45.7577 15.8724 45.7399 15.3875C45.7399 13.5649 44.2559 12.6536 41.288 12.6536L38.1682 12.6501ZM38.1682 20.6854V27.4387H41.8594C43.4563 27.4387 44.6948 27.1334 45.5749 26.5227C45.992 26.2517 46.3324 25.8782 46.5637 25.4382C46.7948 24.998 46.9089 24.5059 46.895 24.0091C46.895 21.7945 45.0277 20.6866 41.2932 20.6854H38.1682ZM64.6906 29.7147C65.7166 29.7159 66.5422 29.5765 67.1676 29.2967L67.1728 27.4648C66.6468 27.7722 66.045 27.9261 65.4358 27.9089C64.5603 27.9089 63.9339 27.7169 63.5564 27.333C63.1789 26.949 62.9901 26.3078 62.9901 25.4091V17.8579H67.1676V16.026H62.9901V12.0604L60.336 12.7543V16.026H57.4855V17.8579H60.336V25.789C60.3348 28.4061 61.7863 29.7147 64.6906 29.7147ZM91.2824 29.4267H88.7951V17.8457C88.8074 16.7235 88.8769 15.6024 89.0035 14.4872H88.9444C88.7854 15.0641 88.5708 15.6241 88.3035 16.1595L81.008 29.4267H79.792L72.5088 16.2567C72.2333 15.6911 72.0184 15.098 71.8678 14.4872H71.8087C71.9063 15.6121 71.9463 16.7411 71.9286 17.8699V29.4267H69.5003V12.1627H72.8006L79.3543 24.2017C79.7396 24.8634 80.0684 25.5563 80.3375 26.273H80.4278C80.854 25.3259 81.1961 24.6198 81.4544 24.1549L88.1419 12.1627H91.2685L91.2824 29.4267ZM104.771 29.4267H107.427V20.7115C107.425 17.3784 105.477 15.712 101.582 15.712C99.4543 15.712 97.576 16.1306 95.9467 16.9679V19.1675C97.5361 18.0735 99.4254 17.4973 101.356 17.5179C103.632 17.5189 104.771 18.6576 104.771 20.9335L99.8011 21.4972C96.1522 21.9066 94.3277 23.3632 94.3277 25.8671C94.3138 26.4146 94.434 26.9571 94.6779 27.4475C94.922 27.9379 95.2824 28.3614 95.7278 28.6808C96.6623 29.3874 97.9553 29.7407 99.6066 29.7407C101.848 29.7419 103.548 28.9392 104.706 27.3329H104.771V29.4267ZM100.776 23.0932L104.771 22.6491L104.781 23.9832C104.793 24.5214 104.683 25.0556 104.46 25.5459C104.238 26.0362 103.907 26.4703 103.494 26.8159C102.636 27.5619 101.549 27.9348 100.232 27.9348C99.273 27.9348 98.5041 27.7278 97.9251 27.3139C97.657 27.1412 97.437 26.9037 97.2851 26.6235C97.1334 26.3434 97.0547 26.0294 97.0566 25.7109C97.0624 24.8112 97.3756 24.1849 97.9963 23.8322C98.617 23.4795 99.5434 23.2332 100.776 23.0932ZM119.748 18.1978C119.286 17.9099 118.616 17.7659 117.74 17.7659C117.201 17.7571 116.665 17.8689 116.173 18.093C115.682 18.3173 115.246 18.6482 114.899 19.0617C114.138 19.9255 113.758 21.1035 113.758 22.5953V29.4267H111.104V16.0259H113.758V18.7893H113.823C114.163 17.8944 114.77 17.1249 115.56 16.5845C116.328 16.0597 117.237 15.7829 118.166 15.7917C118.701 15.7726 119.236 15.8346 119.752 15.9756V16.026H122.163V12.7543L124.817 12.0604V16.026H128.986V17.8579H124.817V25.4091C124.817 26.3078 125.006 26.949 125.384 27.333C125.761 27.7169 126.388 27.9089 127.263 27.9089C127.872 27.9261 128.474 27.7722 129 27.4648L128.995 29.2967C128.369 29.5765 127.544 29.7159 126.518 29.7147C123.613 29.7147 122.162 28.4061 122.163 25.789V17.8579H119.749L119.748 18.1978ZM2.22066 33.4062H3.98719V34.5278H2.22066V33.4062Z" fill="black"/>
</g>
<defs>
<clipPath id="clip0_665_1533">
<rect width="127" height="29.5754" fill="white" transform="translate(2 5)"/>
</clipPath>
</defs>
</svg>
