<svg width="130" height="40" viewBox="0 0 130 40" fill="none" xmlns="http://www.w3.org/2000/svg">
<path d="M83.0083 28.3572V6H87.5022V28.3572H83.0083Z" fill="#F7A600"/>
<path d="M30.6341 34.9983H21V12.6411H30.2467C34.7406 12.6411 37.3591 15.0903 37.3591 18.9214C37.3591 21.4013 35.6774 23.0039 34.5134 23.5375C35.9028 24.1652 37.6813 25.5779 37.6813 28.5624C37.6813 32.7373 34.7406 34.9983 30.6341 34.9983ZM29.891 16.5355H25.4939V21.6852H29.891C31.7981 21.6852 32.8652 20.6488 32.8652 19.1095C32.8652 17.5719 31.7981 16.5355 29.891 16.5355ZM30.1815 25.6104H25.4939V31.1056H30.1815C32.2189 31.1056 33.1874 29.8503 33.1874 28.3418C33.1874 26.835 32.2171 25.6104 30.1815 25.6104Z" fill="black"/>
<path d="M51.3882 25.8293V34.9983H46.926V25.8293L40.0073 12.6411H44.8886L49.1888 21.6527L53.4239 12.6411H58.3052L51.3882 25.8293Z" fill="black"/>
<path d="M71.0457 34.9983H61.4116V12.6411H70.6583C75.1522 12.6411 77.7707 15.0903 77.7707 18.9214C77.7707 21.4013 76.089 23.0039 74.925 23.5375C76.3144 24.1652 78.093 25.5779 78.093 28.5624C78.093 32.7373 75.1522 34.9983 71.0457 34.9983ZM70.3026 16.5355H65.9055V21.6852H70.3026C72.2097 21.6852 73.2768 20.6488 73.2768 19.1095C73.2768 17.5719 72.2097 16.5355 70.3026 16.5355ZM70.5931 25.6104H65.9055V31.1056H70.5931C72.6305 31.1056 73.599 29.8503 73.599 28.3418C73.599 26.835 72.6305 25.6104 70.5931 25.6104Z" fill="black"/>
<path d="M101.986 16.5355V35H97.4921V16.5355H91.4785V12.6411H108V16.5355H101.986Z" fill="black"/>
</svg>
