<svg width="130" height="40" viewBox="0 0 130 40" fill="none" xmlns="http://www.w3.org/2000/svg">
<g clip-path="url(#clip0_665_1533)">
<path fill-rule="evenodd" clip-rule="evenodd" d="M33.5662 24.8909C30.7223 24.8909 28.62 22.697 28.62 20.0023C28.62 17.3076 30.7223 15.0598 33.5838 15.0598C35.3962 15.0598 36.5192 15.7205 37.4069 16.6841L36.0485 18.1288C35.3777 17.4333 34.6715 16.9515 33.5662 16.9515C31.9715 16.9515 30.8123 18.3076 30.8123 19.9667C30.8123 21.6614 31.9892 23.0174 33.6738 23.0174C34.7077 23.0174 35.4685 22.5356 36.1569 21.8402L37.4792 23.1242C36.5377 24.1591 35.4323 24.8909 33.5662 24.8909ZM41.6392 24.8909H39.4477V15.078H41.6392V17.3795C42.2369 15.9705 43.3423 15.0061 45.0269 15.078V17.3621H44.9C42.98 17.3621 41.6392 18.5932 41.6392 21.0909V24.8909ZM56.5015 15.0606L51.6577 27.5326H49.4346L50.4938 24.8939L46.3438 15.0606H48.6808L51.5115 22.3235L54.2308 15.0606H56.5015ZM62.9685 16.9341C61.4831 16.9341 60.1785 18.1295 60.1785 19.9674C60.1785 21.8053 61.4831 23 62.9685 23C64.4723 23 65.7038 21.8409 65.7038 19.9674C65.7038 18.1114 64.4538 16.9341 62.9685 16.9341ZM63.4754 24.8735C61.9 24.8735 60.9031 24.0886 60.2323 23.2144V27.5326H58.04V15.0606H60.2323V16.8258C60.9392 15.8455 61.9362 15.0606 63.4754 15.0606C65.74 15.0606 67.9323 16.8258 67.9323 19.9674C67.9323 23.1076 65.7585 24.8735 63.4754 24.8735ZM72.7377 17.1121V21.7318C72.7377 22.5697 73.17 22.9083 73.9146 22.9083H74.7746V24.8364H73.2746C71.68 24.8318 70.5462 24.1333 70.5462 22.0712V17.1121H69.3292V15.2583H70.5462V12.6705H72.7377V15.2583H74.7746V17.1121H72.7377ZM81.7077 16.9515C79.95 16.9515 78.8269 18.3076 78.8269 19.9667C78.8269 21.6439 80.0408 23.0174 81.7438 23.0174C83.5185 23.0174 84.6423 21.6621 84.6423 20.0023C84.6423 18.325 83.4285 16.9515 81.7077 16.9515ZM81.7077 24.8909C78.7908 24.8909 76.6346 22.697 76.6346 20.0023C76.6346 17.2902 78.8085 15.0598 81.7438 15.0598C84.6785 15.0598 86.8346 17.2545 86.8346 19.9667C86.8346 22.6614 84.66 24.8909 81.7077 24.8909ZM90.8469 22.9114V23.9992C90.8474 24.0214 90.8418 24.0434 90.8305 24.0626C90.8193 24.0818 90.8028 24.0977 90.7831 24.1083L89.8269 24.6523C89.8077 24.6635 89.7858 24.6694 89.7635 24.6694C89.7411 24.6694 89.7192 24.6635 89.7 24.6523L88.7415 24.1083C88.722 24.0973 88.7059 24.0814 88.6947 24.0623C88.6834 24.0431 88.6776 24.0214 88.6777 23.9992V22.9114C88.6777 22.8674 88.7031 22.8258 88.7415 22.8023L89.7 22.2583C89.7192 22.2471 89.7411 22.2412 89.7635 22.2412C89.7858 22.2412 89.8077 22.2471 89.8269 22.2583L90.7831 22.8023C90.8025 22.8133 90.8187 22.8292 90.8299 22.8484C90.8411 22.8675 90.847 22.8893 90.8469 22.9114ZM107.792 16.9515C106.035 16.9515 104.912 18.3076 104.912 19.9667C104.912 21.6439 106.125 23.0174 107.828 23.0174C109.603 23.0174 110.726 21.6621 110.726 20.0023C110.726 18.325 109.513 16.9515 107.792 16.9515ZM107.792 24.8909C104.875 24.8909 102.719 22.697 102.719 20.0023C102.719 17.2902 104.893 15.0598 107.828 15.0598C110.763 15.0598 112.919 17.2545 112.919 19.9667C112.919 22.6614 110.745 24.8909 107.792 24.8909ZM97.5208 24.8803C94.6769 24.8265 92.6185 22.5924 92.6715 19.8985C92.7238 17.2053 94.8685 14.997 97.73 15.0515C99.5415 15.0856 100.652 15.7667 101.521 16.747L100.134 18.1659C99.4777 17.4576 98.7808 16.9629 97.6754 16.9417C96.0815 16.9114 94.8954 18.2447 94.8631 19.9038C94.83 21.5992 95.9815 22.9773 97.6654 23.0091C98.6985 23.0288 99.4685 22.5614 100.17 21.8788L101.468 23.1879C100.506 24.2045 99.3869 24.9152 97.5208 24.8803ZM125.948 15.0606C128.032 15.0606 129.3 16.3621 129.3 18.6636V24.8909H127.108V19.3242C127.108 17.8258 126.402 17.0227 125.17 17.0227C123.975 17.0227 123.122 17.8432 123.122 19.3598V24.8909H120.931V19.3061C120.931 17.8439 120.205 17.0227 118.992 17.0227C117.778 17.0227 116.945 17.9152 116.945 19.3788V24.8909H114.752V15.0606H116.945V16.6848C117.561 15.8462 118.395 15.0606 119.862 15.0606C121.238 15.0606 122.198 15.7212 122.705 16.7197C123.485 15.7212 124.499 15.0606 125.948 15.0606ZM0 13.1326V25.3977L10.73 31.5311L21.4577 25.3977V13.1326L10.73 7L0 13.1326ZM0.944615 24.8598V13.6727L10.73 8.07652L20.5162 13.6727V24.8598L10.73 30.4545L0.944615 24.8598Z" fill="black"/>
<path fill-rule="evenodd" clip-rule="evenodd" d="M14.9345 12.2954H6.50375L5.52683 16.5507H15.9507L14.9345 12.2954ZM7.99991 22.4075V19.5795L5.50145 18.0075L2.67529 20.0878L6.5276 26.7204H8.06606L9.88606 25.0431V24.2L7.99991 22.4075Z" fill="black"/>
<path fill-rule="evenodd" clip-rule="evenodd" d="M13.4686 17.1934H8.00781L8.92781 19.5706L8.64781 22.235H10.7286L12.8286 22.2252L12.567 19.5706L13.467 17.1934" fill="black"/>
<path fill-rule="evenodd" clip-rule="evenodd" d="M15.966 17.9888L13.4968 19.5797V22.4077L11.6099 24.2001V25.0433L13.4299 26.7016H14.9491L18.7822 20.088L15.966 17.9888Z" fill="black"/>
</g>
<defs>
<clipPath id="clip0_665_1533">
<rect width="130" height="25" fill="white" transform="translate(0 7)"/>
</clipPath>
</defs>
</svg>
