<svg width="130" height="40" viewBox="0 0 130 40" fill="none" xmlns="http://www.w3.org/2000/svg">
<g clip-path="url(#clip0_665_1533)">
<mask id="mask0_665_1533" style="mask-type:luminance" maskUnits="userSpaceOnUse" x="15" y="1" width="100" height="39">
<path d="M115 1H15V39.6667H115V1Z" fill="white"/>
</mask>
<g mask="url(#mask0_665_1533)">
<path d="M31.587 12.9306C31.7017 7.25255 28.4864 2.30474 26.8118 1.1156C26.8042 1.10794 26.655 1.02765 26.6664 1.24942C26.6664 1.25323 26.6626 1.25323 26.6626 1.25706C26.4906 11.9825 20.9775 14.8731 17.984 18.8038C11.3316 27.5445 16.8828 37.5167 24.0743 39.4055C24.1967 39.4362 24.5293 39.5356 25.1602 39.6655C25.4889 39.7345 25.5845 39.4552 25.3436 39.0385C24.4834 37.5434 22.9541 35.0198 22.6522 31.7773C21.964 24.2485 31.4531 19.5379 31.587 12.9306Z" fill="black"/>
<path d="M35.2114 16.5671C35.154 16.525 35.0738 16.5288 35.0662 16.6014C34.9133 17.9665 33.5024 20.796 31.6443 23.442C25.3895 32.3625 28.5399 36.4079 30.9868 39.2145C31.4378 39.7345 31.6634 39.6199 31.9005 39.249C32.1222 38.8972 32.4586 38.4498 33.9039 37.7654C34.1295 37.6583 39.5891 34.76 40.1816 28.1604C40.7514 21.7749 36.6565 17.737 35.2114 16.5671Z" fill="#008CD6"/>
<path d="M67.69 14.9419V38.4152H62.6548V28.9328H52.9782V38.4152H47.8169V14.9419H52.9782V24.4246H62.6548V14.9419H67.69Z" fill="black"/>
<path d="M90.9694 14.9419V19.5838H88.5722H83.7397V38.4114H78.5593V19.5838H73.8566H71.4595V14.9419H90.9694Z" fill="black"/>
<path fill-rule="evenodd" clip-rule="evenodd" d="M109.306 38.4383L103.387 30.2708L97.5149 38.4038L91.7725 38.4114L100.478 26.4282L92.2618 14.9419H98.0005L115.021 38.4383H109.306Z" fill="black"/>
<path d="M104.997 20.1955L107.837 24.1416L114.566 14.938H108.858L104.997 20.1955Z" fill="#008CD6"/>
</g>
</g>
<defs>
<clipPath id="clip0_665_1533">
<rect width="100" height="38.6667" fill="white" transform="translate(15 1)"/>
</clipPath>
</defs>
</svg>
