<svg width="130" height="40" viewBox="0 0 130 40" fill="none" xmlns="http://www.w3.org/2000/svg">
<path d="M99.3395 20.0001C99.3395 19.2711 99.3395 18.5961 99.3125 17.975C99.2855 17.354 99.2315 16.76 99.1505 16.247C99.0695 15.707 98.9075 15.2209 98.6645 14.7349C98.4485 14.2489 98.0974 13.8169 97.6924 13.3849C97.0984 12.7909 96.4504 12.3589 95.7214 12.0348C94.9923 11.7378 94.1553 11.5488 93.2103 11.5488C92.2652 11.5488 91.4282 11.7108 90.6992 12.0348C89.9702 12.3319 89.2951 12.7909 88.7011 13.3849C88.2691 13.8169 87.9721 14.2489 87.7561 14.7349C87.5401 15.2209 87.3511 15.707 87.2701 16.247C87.1891 16.787 87.1351 17.354 87.1081 17.975C87.0811 18.5961 87.0811 19.2711 87.0811 20.0001C87.0811 20.7291 87.0811 21.3772 87.1081 22.0252C87.1351 22.6462 87.1891 23.2402 87.2701 23.7532C87.3511 24.2933 87.5131 24.7793 87.7561 25.2653C87.9721 25.7513 88.3231 26.1833 88.7011 26.6153C89.2951 27.2094 89.9432 27.6414 90.6992 27.9654C91.4282 28.2624 92.2652 28.4514 93.2103 28.4514C94.1553 28.4514 94.9653 28.2894 95.7214 27.9654C96.4504 27.6684 97.1254 27.2094 97.6924 26.6153C98.1244 26.1833 98.4214 25.7513 98.6645 25.2653C98.8805 24.7793 99.0695 24.2933 99.1505 23.7532C99.2315 23.2132 99.3125 22.6462 99.3125 22.0252C99.3395 21.3502 99.3395 20.7291 99.3395 20.0001ZM96.1264 20.0001C96.1264 20.7831 96.1264 21.4582 96.0994 21.9982C96.0724 22.5382 96.0454 22.9432 95.9644 23.2942C95.9104 23.6182 95.8294 23.9152 95.7214 24.1043C95.6134 24.3203 95.5054 24.5363 95.3164 24.6983C95.1003 24.9683 94.7763 25.1843 94.4523 25.3463C94.1013 25.5083 93.6963 25.5623 93.2373 25.5893C92.7783 25.5893 92.4002 25.5083 92.0222 25.3463C91.6712 25.1843 91.3742 24.9953 91.1312 24.6983C90.9692 24.5363 90.8612 24.3473 90.7262 24.1043C90.6182 23.8882 90.5372 23.6182 90.4832 23.2942C90.4292 22.9702 90.3752 22.5382 90.3752 21.9982C90.3482 21.4582 90.3482 20.8101 90.3482 20.0001C90.3482 19.2171 90.3482 18.5421 90.3752 18.002C90.4022 17.462 90.4292 17.057 90.4832 16.706C90.5372 16.355 90.6182 16.085 90.7262 15.896C90.8342 15.68 90.9422 15.4639 91.1312 15.3019C91.3472 15.0319 91.6712 14.8159 92.0222 14.6539C92.3732 14.4919 92.7783 14.4379 93.2373 14.4109C93.6963 14.4109 94.0743 14.4919 94.4523 14.6539C94.7763 14.8159 95.1003 15.005 95.3164 15.3019C95.4784 15.4639 95.5864 15.653 95.7214 15.896C95.8294 16.112 95.9104 16.382 95.9644 16.706C96.0184 17.03 96.0724 17.462 96.0994 18.002C96.0994 18.5421 96.1264 19.2171 96.1264 20.0001Z" fill="black"/>
<path d="M125.127 11.9809C125.127 11.8189 124.992 11.7109 124.857 11.7109H122.21C122.048 11.7109 121.94 11.8459 121.94 11.9809V21.8633L115.433 11.7919C115.379 11.7379 115.352 11.7109 115.271 11.7109H112.787C112.652 11.7109 112.517 11.8459 112.517 11.9809C112.517 17.3271 112.517 22.6733 112.517 27.9655C112.517 28.1275 112.652 28.2355 112.787 28.2355H115.433C115.595 28.2355 115.703 28.1005 115.703 27.9655V18.0561L122.21 28.1545C122.264 28.2085 122.291 28.2355 122.372 28.2355H124.857C125.019 28.2355 125.127 28.1005 125.127 27.9655V11.9809Z" fill="black"/>
<path d="M107.225 11.9809C107.225 11.8189 107.09 11.7109 106.955 11.7109H104.309C104.147 11.7109 104.039 11.8459 104.039 11.9809V27.9655C104.039 28.1275 104.174 28.2355 104.309 28.2355H106.955C107.117 28.2355 107.225 28.1005 107.225 27.9655V11.9809Z" fill="black"/>
<path d="M75.3091 20.0001C75.3091 19.2171 75.3091 18.5421 75.3361 18.002C75.3631 17.462 75.3901 17.057 75.4441 16.706C75.6871 15.2749 76.7942 14.4379 78.1982 14.4379C79.1162 14.4379 79.9263 14.7619 80.4663 15.5449C80.6823 15.869 80.8713 16.274 80.9793 16.733C80.9793 16.787 81.0063 16.814 81.0603 16.814H84.1924C84.2464 16.814 84.2464 16.787 84.2464 16.733C83.9224 14.8159 82.8694 13.0339 81.0333 12.1699C80.1963 11.7648 79.2242 11.5488 78.1442 11.5488C76.3891 11.5488 74.8771 12.1699 73.6621 13.3579C72.96 14.0599 72.528 14.8969 72.312 15.842C72.123 16.76 72.042 18.137 72.042 19.9461C72.042 21.7552 72.123 23.1322 72.312 24.0502C72.501 24.9953 72.987 25.8323 73.6621 26.5343C74.8771 27.7494 76.3621 28.3434 78.1442 28.3434C79.1972 28.3434 80.1693 28.1544 81.0333 27.7224C82.8424 26.8584 83.9224 25.1303 84.2464 23.1592C84.2464 23.1052 84.2464 23.0782 84.1924 23.0782H81.0603C81.0063 23.0782 80.9793 23.1052 80.9793 23.1592C80.8713 23.6182 80.7093 23.9962 80.4663 24.3473C79.9263 25.1033 79.1162 25.4273 78.1982 25.4543C76.7942 25.4543 75.7141 24.6173 75.4441 23.1862C75.3901 22.8622 75.3361 22.4302 75.3361 21.8902C75.3091 21.4582 75.3091 20.7831 75.3091 20.0001Z" fill="black"/>
<path d="M42.1519 11.9809C42.1519 11.8189 42.0169 11.7109 41.8819 11.7109H39.2358C39.0738 11.7109 38.9658 11.8459 38.9658 11.9809V27.9655C38.9658 28.1275 39.1008 28.2355 39.2358 28.2355H41.8819C42.0439 28.2355 42.1519 28.1005 42.1519 27.9655V23.2673L44.312 20.7022L48.7132 28.1815C48.7402 28.2355 48.7942 28.2625 48.8752 28.2625H52.1153C52.2503 28.2625 52.2773 28.1815 52.2233 28.0465L46.4721 18.2991L51.7643 11.9539C51.8723 11.8189 51.8183 11.7109 51.6563 11.7109H48.0921C48.0381 11.7109 48.0111 11.7109 47.9841 11.7649L42.1519 18.7042V11.9809Z" fill="black"/>
<path d="M61.5921 25.5353C60.08 25.5353 58.73 24.1312 58.73 22.4841V12.0078C58.73 11.8458 58.595 11.7378 58.4599 11.7378H55.8139C55.6519 11.7378 55.5439 11.8728 55.5439 12.0078V22.4571C55.5439 26.1293 58.2979 28.4514 61.6461 28.4514C64.9942 28.4514 67.7483 26.1293 67.7483 22.4571V12.0078C67.7483 11.8458 67.6133 11.7378 67.4783 11.7378H64.8322C64.6702 11.7378 64.5622 11.8728 64.5622 12.0078V22.4841C64.4272 24.1312 63.0771 25.5353 61.5921 25.5353Z" fill="black"/>
<path d="M12.0733 20L20.3626 28.2893L25.6007 23.0511C26.5188 22.1331 28.0308 22.1331 28.9489 23.0511C29.8669 23.9691 29.8669 25.4812 28.9489 26.3992L22.0366 33.3115C21.1186 34.2295 19.6065 34.2295 18.6885 33.3115L8.75216 23.3481V29.2883C8.75216 30.5844 7.69913 31.6644 6.37608 31.6644C5.05303 31.6644 4 30.6114 4 29.2883V10.7657C4 9.44263 5.05303 8.38958 6.37608 8.38958C7.69913 8.38958 8.75216 9.44263 8.75216 10.7657V16.6519L18.7155 6.68852C19.6335 5.77049 21.1456 5.77049 22.0636 6.68852L28.9759 13.6008C29.8939 14.5188 29.8939 16.0308 28.9759 16.9489C28.0578 17.8669 26.5458 17.8669 25.6278 16.9489L20.3896 11.7107L12.0733 20ZM20.3896 17.6239C19.0665 17.6239 18.0135 18.6769 18.0135 20C18.0135 21.323 19.0665 22.3761 20.3896 22.3761C21.7126 22.3761 22.7656 21.323 22.7656 20C22.7386 18.6769 21.6856 17.6239 20.3896 17.6239Z" fill="#01BC8D"/>
</svg>
