<svg width="130" height="40" viewBox="0 0 130 40" fill="none" xmlns="http://www.w3.org/2000/svg">
<g clip-path="url(#clip0_665_1533)">
<path d="M50.5947 3H30.6547C30.5317 3 30.4138 3.04563 30.3267 3.12715C30.2396 3.20839 30.1909 3.31884 30.1909 3.43402V22.092C30.1909 22.2072 30.2399 22.3176 30.3267 22.3988C30.4138 22.4801 30.5317 22.5257 30.6547 22.5257H50.5947C50.7179 22.5257 50.8356 22.4801 50.9227 22.3988C51.0095 22.3173 51.0585 22.2069 51.0585 22.092V3.43402C51.0585 3.31884 51.0095 3.20866 50.9227 3.12715C50.8356 3.04591 50.7177 3 50.5947 3ZM44.1027 15.5833C44.1027 15.6985 44.0538 15.8087 43.967 15.8902C43.8799 15.9714 43.7619 16.0173 43.6389 16.0173H37.6105C37.4875 16.0173 37.3695 15.9717 37.2825 15.8902C37.1954 15.8087 37.1467 15.6985 37.1467 15.5833V9.94241C37.1467 9.82723 37.1956 9.71705 37.2825 9.63553C37.3695 9.55401 37.4875 9.50839 37.6105 9.50839H43.6389C43.7619 9.50839 43.8799 9.55401 43.967 9.63553C44.054 9.71677 44.1027 9.82723 44.1027 9.94241V15.5833Z" fill="black"/>
<path d="M92.338 9.50928H86.3095C86.0535 9.50928 85.8457 9.70347 85.8457 9.9433V15.5842C85.8457 15.8237 86.0535 16.0182 86.3095 16.0182H92.338C92.5942 16.0182 92.8017 15.824 92.8017 15.5842V9.9433C92.8017 9.70375 92.5942 9.50928 92.338 9.50928Z" fill="black"/>
<path d="M85.3836 3.00049H79.3554C79.0992 3.00049 78.8916 3.19469 78.8916 3.43451V9.07541C78.8916 9.31496 79.0992 9.50943 79.3554 9.50943H85.3836C85.6398 9.50943 85.8474 9.31523 85.8474 9.07541V3.43451C85.8474 3.19496 85.6395 3.00049 85.3836 3.00049Z" fill="black"/>
<path d="M99.2979 3.00049H93.2695C93.0135 3.00049 92.8057 3.19469 92.8057 3.43451V9.07541C92.8057 9.31496 93.0135 9.50943 93.2695 9.50943H99.2979C99.5542 9.50943 99.7617 9.31523 99.7617 9.07541V3.43451C99.7617 3.19496 99.5542 3.00049 99.2979 3.00049Z" fill="black"/>
<path d="M85.3836 16.0181H79.3554C79.0992 16.0181 78.8916 16.2123 78.8916 16.4521V22.093C78.8916 22.3325 79.0992 22.527 79.3554 22.527H85.3836C85.6398 22.527 85.8474 22.3328 85.8474 22.093V16.4521C85.8474 16.2125 85.6395 16.0181 85.3836 16.0181Z" fill="black"/>
<path d="M99.2979 16.0181H93.2695C93.0135 16.0181 92.8057 16.2123 92.8057 16.4521V22.093C92.8057 22.3325 93.0135 22.527 93.2695 22.527H99.2979C99.5542 22.527 99.7617 22.3328 99.7617 22.093V16.4521C99.7617 16.2125 99.5542 16.0181 99.2979 16.0181Z" fill="black"/>
<path d="M74.9422 3.00049H68.914C68.6577 3.00049 68.4502 3.19469 68.4502 3.43451V9.07541C68.4502 9.31496 68.658 9.50943 68.914 9.50943H74.9422C75.1984 9.50943 75.406 9.31523 75.406 9.07541V3.43451C75.406 3.19496 75.1984 3.00049 74.9422 3.00049Z" fill="black"/>
<path d="M74.9422 16.0181H68.914C68.6577 16.0181 68.4502 16.2123 68.4502 16.4521V22.093C68.4502 22.3325 68.658 22.527 68.914 22.527H74.9422C75.1984 22.527 75.406 22.3328 75.406 22.093V16.4521C75.406 16.2125 75.1984 16.0181 74.9422 16.0181Z" fill="black"/>
<path d="M68.4479 9.93768C68.4479 9.8225 68.3989 9.71232 68.3121 9.6308C68.2253 9.54928 68.1071 9.50366 67.9844 9.50366H61.4921V3.43402C61.4921 3.31884 61.4431 3.20866 61.3563 3.12715C61.2695 3.04591 61.1513 3 61.0286 3H55.0004C54.8772 3 54.7595 3.04563 54.6724 3.12715C54.5856 3.20839 54.5366 3.31884 54.5366 3.43402V22.0822C54.5366 22.1974 54.5856 22.3076 54.6724 22.3891C54.7595 22.4706 54.8774 22.5163 55.0004 22.5163H61.0286C61.1516 22.5163 61.2695 22.4706 61.3563 22.3891C61.4431 22.3076 61.4921 22.1974 61.4921 22.0822V16.0123H67.9844C68.1073 16.0123 68.2253 15.9667 68.3121 15.8852C68.3989 15.8037 68.4479 15.6935 68.4479 15.5783V9.9374V9.93768Z" fill="black"/>
<path d="M76.6064 27.6211C77.5476 27.6211 78.4009 27.8103 79.166 28.1884C79.9314 28.5668 80.5359 29.1185 80.9802 29.8443C81.4243 30.5699 81.6466 31.4344 81.6466 32.4371C81.6466 33.4398 81.4243 34.3064 80.9802 35.0365C80.5359 35.7668 79.9333 36.323 79.1727 36.7055C78.4117 37.0881 77.5565 37.2795 76.6064 37.2795H73.123V27.6211H76.6064ZM76.3557 35.3795C77.3144 35.3795 78.04 35.1244 78.5327 34.6141C79.0252 34.1042 79.2717 33.3783 79.2717 32.4371C79.2717 31.4959 79.023 30.7856 78.5261 30.2798C78.0289 29.774 77.3055 29.5211 76.3557 29.5211H75.3794V35.3792H76.3557V35.3795Z" fill="black"/>
<path d="M89.1409 33.3872H85.3674V35.3267H89.7349V37.2795H83.1113V27.6211H89.5766V29.5606H85.3677V31.4605H89.1412V33.3869L89.1409 33.3872Z" fill="black"/>
<path d="M99.8282 27.6211L96.4503 32.3052L99.9995 37.2795H97.2154L95.0648 34.1392L92.8746 37.2795H90.2886L93.8378 32.3581L90.46 27.6214H93.2177L95.21 30.524L97.2288 27.6214H99.8282V27.6211Z" fill="black"/>
<path d="M68.4382 31.7642H30V33.1272H68.4382V31.7642Z" fill="black"/>
</g>
<defs>
<clipPath id="clip0_665_1533">
<rect width="70" height="34.2797" fill="white" transform="translate(30 3)"/>
</clipPath>
</defs>
</svg>
