<svg width="130" height="40" viewBox="0 0 130 40" fill="none" xmlns="http://www.w3.org/2000/svg">
<g clip-path="url(#clip0_665_1533)">
<path d="M44.6938 15.0622H41.6518L41.6414 19.1761H44.6834C45.9418 19.1761 46.8518 18.3639 46.8518 17.1218C46.8518 15.8797 45.9418 15.0622 44.6938 15.0622ZM39.4106 25.9972L39.4262 13.061L44.9954 13.0663C47.6578 13.0663 49.1346 14.9348 49.1346 17.1271C49.1346 19.3194 47.6266 21.1773 44.985 21.1773L41.6362 21.172L41.6258 26.0025H39.4106V25.9972Z" fill="#119E5F"/>
<path d="M56.8882 14.8819C54.3298 14.8819 52.6866 16.8725 52.6866 19.5478C52.6866 22.2019 54.3142 24.2243 56.883 24.2243C59.431 24.2243 61.0846 22.2125 61.0846 19.5584C61.0898 16.8831 59.431 14.8872 56.8882 14.8819ZM56.8934 12.8648C60.6946 12.8701 63.3674 15.7047 63.3674 19.5637C63.357 23.4228 60.679 26.2521 56.8778 26.2468C53.0766 26.2415 50.4038 23.4069 50.4038 19.5478C50.4142 15.6887 53.0922 12.8594 56.8934 12.8648Z" fill="#119E5F"/>
<path d="M65.5044 26.0294L65.5252 13.0933H67.7456L67.73 24.0335L73.3148 24.0388V26.0347L65.5044 26.0294Z" fill="#119E5F"/>
<path d="M80.6781 14.9136C78.1197 14.9136 76.4765 16.9042 76.4765 19.5795C76.4765 22.2336 78.1041 24.2561 80.6729 24.2561C83.2209 24.2561 84.8745 22.2443 84.8745 19.5902C84.8745 16.9148 83.2261 14.9189 80.6781 14.9136ZM80.6781 12.8965C84.4793 12.9071 87.1521 15.7364 87.1521 19.5955C87.1417 23.4545 84.4637 26.2838 80.6625 26.2785C76.8613 26.2732 74.1885 23.4386 74.1885 19.5795C74.1989 15.7205 76.8821 12.8912 80.6781 12.8965Z" fill="#119E5F"/>
<path d="M98.1294 26.0717L91.5306 16.639L91.5254 26.0611H89.2998L89.3154 13.125H91.593L98.0618 22.3082L98.067 13.1303H100.293L100.277 26.0717H98.1294Z" fill="#119E5F"/>
<path d="M102.97 26.0768L102.986 13.1406H105.211L105.196 26.0768H102.97Z" fill="#119E5F"/>
<path d="M107.895 26.0874L107.911 13.146L116.595 13.1566V15.1525L110.136 15.1472L110.131 18.4967L116.454 18.5073V20.5032L110.131 20.4926L110.121 24.0809L116.579 24.0862V26.0874H107.895Z" fill="#119E5F"/>
<path d="M127.338 26.1089L123.791 21.0395L120.234 26.1035H117.567L122.33 19.4736L117.879 13.1621H120.541L123.802 17.9183L127.052 13.1727H129.735L125.278 19.4523L130 26.1089H127.338Z" fill="#119E5F"/>
<path d="M26.2963 11.7765L26.2911 19.5159L19.7235 15.6409L13.1611 11.7606L19.7391 7.90149L26.3067 4.03711L26.2963 11.7765Z" fill="#111111"/>
<path d="M13.151 19.5001L13.1458 27.2395L6.5834 23.3645L0.0209961 19.4842L6.5938 15.6251L13.1614 11.7607L13.151 19.5001Z" fill="#92BE8D"/>
<path d="M0.0313961 11.7448L0.0365961 4.00537L6.599 7.88568L13.1614 11.7607L6.5938 15.6251L0.0209961 19.4841L0.0313961 11.7448Z" fill="#119E5F"/>
<path d="M0.0104 27.2238L0.0208 19.4844L6.5832 23.3647L13.1456 27.2397L6.578 31.1041L0 34.9631L0.0104 27.2238Z" fill="#111111"/>
<path d="M19.7235 15.6411L13.1611 11.7607L13.1507 19.5001L13.1455 27.2395L19.7079 31.1251L26.2651 34.9948L26.2755 27.2554L26.2911 19.516L19.7235 15.6411Z" fill="#119E5F"/>
</g>
<defs>
<clipPath id="clip0_665_1533">
<rect width="130" height="31" fill="white" transform="translate(0 4)"/>
</clipPath>
</defs>
</svg>
