<svg width="120" height="38" viewBox="0 0 120 38" fill="none" xmlns="http://www.w3.org/2000/svg">
<g clip-path="url(#clip0_463_338)">
<mask id="mask0_463_338" style="mask-type:luminance" maskUnits="userSpaceOnUse" x="0" y="0" width="120" height="38">
<path d="M120 0H0V38H120V0Z" fill="white"/>
</mask>
<g mask="url(#mask0_463_338)">
<mask id="mask1_463_338" style="mask-type:luminance" maskUnits="userSpaceOnUse" x="0" y="6" width="120" height="32">
<path d="M120 6H0V38H120V6Z" fill="white"/>
</mask>
<g mask="url(#mask1_463_338)">
<path d="M1.17627 5.68236L6.07823 8.1671L10.9802 7.07854L15.8822 12.2308L20.7841 4.51898L25.6861 4.4841L30.588 10.0598L35.49 1.72726L40.392 1.11693L45.2939 3.64947L50.1959 0L55.0978 8.08432L59.9998 8.87778L64.9018 10.7325L69.8037 14.5109L74.7057 22.3281L79.6076 21.2485L84.5096 22.8383L89.4116 38L94.3135 17.7656L99.2155 9.6851L104.117 14.446L109.019 6.77516L113.921 10.5925L118.823 4.20189V5.68236H113.921H109.019H104.117H99.2155H94.3135H89.4116H84.5096H79.6076H74.7057H69.8037H64.9018H59.9998H55.0978H50.1959H45.2939H40.392H35.49H30.588H25.6861H20.7841H15.8822H10.9802H6.07823H1.17627Z" fill="#E74C3C" fill-opacity="0.15"/>
</g>
<mask id="mask2_463_338" style="mask-type:luminance" maskUnits="userSpaceOnUse" x="0" y="0" width="120" height="6">
<path d="M120 0H0V6H120V0Z" fill="white"/>
</mask>
<g mask="url(#mask2_463_338)">
<path d="M1.17627 5.68236L6.07823 8.1671L10.9802 7.07854L15.8822 12.2308L20.7841 4.51898L25.6861 4.4841L30.588 10.0598L35.49 1.72726L40.392 1.11693L45.2939 3.64947L50.1959 0L55.0978 8.08432L59.9998 8.87778L64.9018 10.7325L69.8037 14.5109L74.7057 22.3281L79.6076 21.2485L84.5096 22.8383L89.4116 38L94.3135 17.7656L99.2155 9.6851L104.117 14.446L109.019 6.77516L113.921 10.5925L118.823 4.20189V5.68236H113.921H109.019H104.117H99.2155H94.3135H89.4116H84.5096H79.6076H74.7057H69.8037H64.9018H59.9998H55.0978H50.1959H45.2939H40.392H35.49H30.588H25.6861H20.7841H15.8822H10.9802H6.07823H1.17627Z" fill="#2ECC71" fill-opacity="0.15"/>
</g>
<mask id="mask3_463_338" style="mask-type:luminance" maskUnits="userSpaceOnUse" x="0" y="6" width="120" height="32">
<path d="M120 6H0V38H120V6Z" fill="white"/>
</mask>
<g mask="url(#mask3_463_338)">
<path d="M1.17627 5.68236L6.07823 8.1671L10.9802 7.07854L15.8822 12.2308L20.7841 4.51898L25.6861 4.4841L30.588 10.0598L35.49 1.72726L40.392 1.11693L45.2939 3.64947L50.1959 0L55.0978 8.08432L59.9998 8.87778L64.9018 10.7325L69.8037 14.5109L74.7057 22.3281L79.6076 21.2485L84.5096 22.8383L89.4116 38L94.3135 17.7656L99.2155 9.6851L104.117 14.446L109.019 6.77516L113.921 10.5925L118.823 4.20189" stroke="#E74C3C" stroke-linecap="round" stroke-linejoin="round"/>
</g>
<mask id="mask4_463_338" style="mask-type:luminance" maskUnits="userSpaceOnUse" x="0" y="0" width="120" height="6">
<path d="M120 0H0V6H120V0Z" fill="white"/>
</mask>
<g mask="url(#mask4_463_338)">
<path d="M1.17627 5.68236L6.07823 8.1671L10.9802 7.07854L15.8822 12.2308L20.7841 4.51898L25.6861 4.4841L30.588 10.0598L35.49 1.72726L40.392 1.11693L45.2939 3.64947L50.1959 0L55.0978 8.08432L59.9998 8.87778L64.9018 10.7325L69.8037 14.5109L74.7057 22.3281L79.6076 21.2485L84.5096 22.8383L89.4116 38L94.3135 17.7656L99.2155 9.6851L104.117 14.446L109.019 6.77516L113.921 10.5925L118.823 4.20189" stroke="#2ECC71" stroke-linecap="round" stroke-linejoin="round"/>
</g>
<path d="M-8.82373 5.68236H1.17627L6.07823 8.1671L10.9802 7.07854L15.8822 12.2308L20.7841 4.51898L25.6861 4.4841L30.588 10.0598L35.49 1.72726L40.392 1.11693L45.2939 3.64947L50.1959 0L55.0978 8.08432L59.9998 8.87778L64.9018 10.7325L69.8037 14.5109L74.7057 22.3281L79.6076 21.2485L84.5096 22.8383L89.4116 38L94.3135 17.7656L99.2155 9.6851L104.117 14.446L109.019 6.77516L113.921 10.5925L118.823 4.20189H128.823" stroke="#C0C0C0" stroke-opacity="0.01" stroke-width="21" stroke-linejoin="round"/>
</g>
</g>
<defs>
<clipPath id="clip0_463_338">
<rect width="120" height="38" fill="white"/>
</clipPath>
</defs>
</svg>
