<svg width="120" height="38" viewBox="0 0 120 38" fill="none" xmlns="http://www.w3.org/2000/svg">
<g clip-path="url(#clip0_463_566)">
<mask id="mask0_463_566" style="mask-type:luminance" maskUnits="userSpaceOnUse" x="0" y="0" width="120" height="38">
<path d="M120 0H0V38H120V0Z" fill="white"/>
</mask>
<g mask="url(#mask0_463_566)">
<mask id="mask1_463_566" style="mask-type:luminance" maskUnits="userSpaceOnUse" x="0" y="18" width="120" height="20">
<path d="M120 18H0V38H120V18Z" fill="white"/>
</mask>
<g mask="url(#mask1_463_566)">
<path d="M1.17627 18.1504L6.07823 5.57863L10.9802 0L15.8822 5.09739L20.7841 15.951L25.6861 17.6379L30.588 21.3813L35.49 24.3926L40.392 23.8206L45.2939 19.8499L50.1959 16.4197L55.0978 23.248L59.9998 26.2221L64.9018 17.4178L69.8037 16.5774L74.7057 23.4236L79.6076 14.1474L84.5096 19.3818L89.4116 38L94.3135 36.1755L99.2155 34.6191L104.117 31.5066L109.019 27.4745L113.921 25.5645L118.823 26.2025V18.1504H113.921H109.019H104.117H99.2155H94.3135H89.4116H84.5096H79.6076H74.7057H69.8037H64.9018H59.9998H55.0978H50.1959H45.2939H40.392H35.49H30.588H25.6861H20.7841H15.8822H10.9802H6.07823H1.17627Z" fill="#E74C3C" fill-opacity="0.15"/>
</g>
<mask id="mask2_463_566" style="mask-type:luminance" maskUnits="userSpaceOnUse" x="0" y="0" width="120" height="18">
<path d="M120 0H0V18H120V0Z" fill="white"/>
</mask>
<g mask="url(#mask2_463_566)">
<path d="M1.17627 18.1504L6.07823 5.57863L10.9802 0L15.8822 5.09739L20.7841 15.951L25.6861 17.6379L30.588 21.3813L35.49 24.3926L40.392 23.8206L45.2939 19.8499L50.1959 16.4197L55.0978 23.248L59.9998 26.2221L64.9018 17.4178L69.8037 16.5774L74.7057 23.4236L79.6076 14.1474L84.5096 19.3818L89.4116 38L94.3135 36.1755L99.2155 34.6191L104.117 31.5066L109.019 27.4745L113.921 25.5645L118.823 26.2025V18.1504H113.921H109.019H104.117H99.2155H94.3135H89.4116H84.5096H79.6076H74.7057H69.8037H64.9018H59.9998H55.0978H50.1959H45.2939H40.392H35.49H30.588H25.6861H20.7841H15.8822H10.9802H6.07823H1.17627Z" fill="#2ECC71" fill-opacity="0.15"/>
</g>
<mask id="mask3_463_566" style="mask-type:luminance" maskUnits="userSpaceOnUse" x="0" y="18" width="120" height="20">
<path d="M120 18H0V38H120V18Z" fill="white"/>
</mask>
<g mask="url(#mask3_463_566)">
<path d="M1.17627 18.1504L6.07823 5.57863L10.9802 0L15.8822 5.09739L20.7841 15.951L25.6861 17.6379L30.588 21.3813L35.49 24.3926L40.392 23.8206L45.2939 19.8499L50.1959 16.4197L55.0978 23.248L59.9998 26.2221L64.9018 17.4178L69.8037 16.5774L74.7057 23.4236L79.6076 14.1474L84.5096 19.3818L89.4116 38L94.3135 36.1755L99.2155 34.6191L104.117 31.5066L109.019 27.4745L113.921 25.5645L118.823 26.2025" stroke="#E74C3C" stroke-linecap="round" stroke-linejoin="round"/>
</g>
<mask id="mask4_463_566" style="mask-type:luminance" maskUnits="userSpaceOnUse" x="0" y="0" width="120" height="18">
<path d="M120 0H0V18H120V0Z" fill="white"/>
</mask>
<g mask="url(#mask4_463_566)">
<path d="M1.17627 18.1504L6.07823 5.57863L10.9802 0L15.8822 5.09739L20.7841 15.951L25.6861 17.6379L30.588 21.3813L35.49 24.3926L40.392 23.8206L45.2939 19.8499L50.1959 16.4197L55.0978 23.248L59.9998 26.2221L64.9018 17.4178L69.8037 16.5774L74.7057 23.4236L79.6076 14.1474L84.5096 19.3818L89.4116 38L94.3135 36.1755L99.2155 34.6191L104.117 31.5066L109.019 27.4745L113.921 25.5645L118.823 26.2025" stroke="#2ECC71" stroke-linecap="round" stroke-linejoin="round"/>
</g>
<path d="M-8.82373 18.1504H1.17627L6.07823 5.57863L10.9802 0L15.8822 5.09739L20.7841 15.951L25.6861 17.6379L30.588 21.3813L35.49 24.3926L40.392 23.8206L45.2939 19.8499L50.1959 16.4197L55.0978 23.248L59.9998 26.2221L64.9018 17.4178L69.8037 16.5774L74.7057 23.4236L79.6076 14.1474L84.5096 19.3818L89.4116 38L94.3135 36.1755L99.2155 34.6191L104.117 31.5066L109.019 27.4745L113.921 25.5645L118.823 26.2025H128.823" stroke="#C0C0C0" stroke-opacity="0.01" stroke-width="21" stroke-linejoin="round"/>
</g>
</g>
<defs>
<clipPath id="clip0_463_566">
<rect width="120" height="38" fill="white"/>
</clipPath>
</defs>
</svg>
