<svg width="120" height="38" viewBox="0 0 120 38" fill="none" xmlns="http://www.w3.org/2000/svg">
<g clip-path="url(#clip0_463_452)">
<mask id="mask0_463_452" style="mask-type:luminance" maskUnits="userSpaceOnUse" x="0" y="0" width="120" height="38">
<path d="M120 0H0V38H120V0Z" fill="white"/>
</mask>
<g mask="url(#mask0_463_452)">
<mask id="mask1_463_452" style="mask-type:luminance" maskUnits="userSpaceOnUse" x="0" y="26" width="120" height="12">
<path d="M120 26H0V38H120V26Z" fill="white"/>
</mask>
<g mask="url(#mask1_463_452)">
<path d="M1.17627 26.3585L6.07823 32.6778L10.9802 33.3488L15.8822 35.286L20.7841 31.749L25.6861 26.6687L30.588 1.78506L35.49 9.40003L40.392 0L45.2939 4.8397L50.1959 0.662318L55.0978 8.86637L59.9998 9.73105L64.9018 2.35728L69.8037 10.2638L74.7057 19.5854L79.6076 4.86492L84.5096 10.941L89.4116 35.2499L94.3135 33.5367L99.2155 33.6937L104.117 36.1324L109.019 32.3365L113.921 32.6527L118.823 38V26.3585H113.921H109.019H104.117H99.2155H94.3135H89.4116H84.5096H79.6076H74.7057H69.8037H64.9018H59.9998H55.0978H50.1959H45.2939H40.392H35.49H30.588H25.6861H20.7841H15.8822H10.9802H6.07823H1.17627Z" fill="#E74C3C" fill-opacity="0.15"/>
</g>
<mask id="mask2_463_452" style="mask-type:luminance" maskUnits="userSpaceOnUse" x="0" y="0" width="120" height="26">
<path d="M120 0H0V26H120V0Z" fill="white"/>
</mask>
<g mask="url(#mask2_463_452)">
<path d="M1.17627 26.3585L6.07823 32.6778L10.9802 33.3488L15.8822 35.286L20.7841 31.749L25.6861 26.6687L30.588 1.78506L35.49 9.40003L40.392 0L45.2939 4.8397L50.1959 0.662318L55.0978 8.86637L59.9998 9.73105L64.9018 2.35728L69.8037 10.2638L74.7057 19.5854L79.6076 4.86492L84.5096 10.941L89.4116 35.2499L94.3135 33.5367L99.2155 33.6937L104.117 36.1324L109.019 32.3365L113.921 32.6527L118.823 38V26.3585H113.921H109.019H104.117H99.2155H94.3135H89.4116H84.5096H79.6076H74.7057H69.8037H64.9018H59.9998H55.0978H50.1959H45.2939H40.392H35.49H30.588H25.6861H20.7841H15.8822H10.9802H6.07823H1.17627Z" fill="#2ECC71" fill-opacity="0.15"/>
</g>
<mask id="mask3_463_452" style="mask-type:luminance" maskUnits="userSpaceOnUse" x="0" y="26" width="120" height="12">
<path d="M120 26H0V38H120V26Z" fill="white"/>
</mask>
<g mask="url(#mask3_463_452)">
<path d="M1.17627 26.3585L6.07823 32.6778L10.9802 33.3488L15.8822 35.286L20.7841 31.749L25.6861 26.6687L30.588 1.78506L35.49 9.40003L40.392 0L45.2939 4.8397L50.1959 0.662318L55.0978 8.86637L59.9998 9.73105L64.9018 2.35728L69.8037 10.2638L74.7057 19.5854L79.6076 4.86492L84.5096 10.941L89.4116 35.2499L94.3135 33.5367L99.2155 33.6937L104.117 36.1324L109.019 32.3365L113.921 32.6527L118.823 38" stroke="#E74C3C" stroke-linecap="round" stroke-linejoin="round"/>
</g>
<mask id="mask4_463_452" style="mask-type:luminance" maskUnits="userSpaceOnUse" x="0" y="0" width="120" height="26">
<path d="M120 0H0V26H120V0Z" fill="white"/>
</mask>
<g mask="url(#mask4_463_452)">
<path d="M1.17627 26.3585L6.07823 32.6778L10.9802 33.3488L15.8822 35.286L20.7841 31.749L25.6861 26.6687L30.588 1.78506L35.49 9.40003L40.392 0L45.2939 4.8397L50.1959 0.662318L55.0978 8.86637L59.9998 9.73105L64.9018 2.35728L69.8037 10.2638L74.7057 19.5854L79.6076 4.86492L84.5096 10.941L89.4116 35.2499L94.3135 33.5367L99.2155 33.6937L104.117 36.1324L109.019 32.3365L113.921 32.6527L118.823 38" stroke="#2ECC71" stroke-linecap="round" stroke-linejoin="round"/>
</g>
<path d="M-8.82373 26.3585H1.17627L6.07823 32.6778L10.9802 33.3488L15.8822 35.286L20.7841 31.749L25.6861 26.6687L30.588 1.78506L35.49 9.40003L40.392 0L45.2939 4.8397L50.1959 0.662318L55.0978 8.86637L59.9998 9.73105L64.9018 2.35728L69.8037 10.2638L74.7057 19.5854L79.6076 4.86492L84.5096 10.941L89.4116 35.2499L94.3135 33.5367L99.2155 33.6937L104.117 36.1324L109.019 32.3365L113.921 32.6527L118.823 38H128.823" stroke="#C0C0C0" stroke-opacity="0.01" stroke-width="21" stroke-linejoin="round"/>
</g>
</g>
<defs>
<clipPath id="clip0_463_452">
<rect width="120" height="38" fill="white"/>
</clipPath>
</defs>
</svg>
