<svg width="120" height="38" viewBox="0 0 120 38" fill="none" xmlns="http://www.w3.org/2000/svg">
<g clip-path="url(#clip0_464_794)">
<mask id="mask0_464_794" style="mask-type:luminance" maskUnits="userSpaceOnUse" x="0" y="0" width="120" height="38">
<path d="M120 0H0V38H120V0Z" fill="white"/>
</mask>
<g mask="url(#mask0_464_794)">
<mask id="mask1_464_794" style="mask-type:luminance" maskUnits="userSpaceOnUse" x="0" y="0" width="120" height="38">
<path d="M120 0H0V38H120V0Z" fill="white"/>
</mask>
<g mask="url(#mask1_464_794)">
<path d="M1.17627 38L6.07823 29.0049L10.9802 28.4668L15.8822 27.0478L20.7841 23.157L25.6861 18.7857L30.588 14.7168L35.49 17.5127L40.392 15.0909L45.2939 6.52396L50.1959 4.46279L55.0978 9.52329L59.9998 10.153L64.9018 2.50781L69.8037 6.5456L74.7057 8.61313L79.6076 1.87303L84.5096 0L89.4116 16.586L94.3135 16.7418L99.2155 12.547L104.117 14.7712L109.019 10.0759L113.921 6.6691L118.823 6.01472V38H113.921H109.019H104.117H99.2155H94.3135H89.4116H84.5096H79.6076H74.7057H69.8037H64.9018H59.9998H55.0978H50.1959H45.2939H40.392H35.49H30.588H25.6861H20.7841H15.8822H10.9802H6.07823H1.17627Z" fill="#2ECC71" fill-opacity="0.15"/>
</g>
<mask id="mask2_464_794" style="mask-type:luminance" maskUnits="userSpaceOnUse" x="0" y="0" width="120" height="38">
<path d="M120 0H0V38H120V0Z" fill="white"/>
</mask>
<g mask="url(#mask2_464_794)">
<path d="M1.17627 38L6.07823 29.0049L10.9802 28.4668L15.8822 27.0478L20.7841 23.157L25.6861 18.7857L30.588 14.7168L35.49 17.5127L40.392 15.0909L45.2939 6.52396L50.1959 4.46279L55.0978 9.52329L59.9998 10.153L64.9018 2.50781L69.8037 6.5456L74.7057 8.61313L79.6076 1.87303L84.5096 0L89.4116 16.586L94.3135 16.7418L99.2155 12.547L104.117 14.7712L109.019 10.0759L113.921 6.6691L118.823 6.01472" stroke="#2ECC71" stroke-linecap="round" stroke-linejoin="round"/>
</g>
<path d="M-8.82373 38H1.17627L6.07823 29.0049L10.9802 28.4668L15.8822 27.0478L20.7841 23.157L25.6861 18.7857L30.588 14.7168L35.49 17.5127L40.392 15.0909L45.2939 6.52396L50.1959 4.46279L55.0978 9.52329L59.9998 10.153L64.9018 2.50781L69.8037 6.5456L74.7057 8.61313L79.6076 1.87303L84.5096 0L89.4116 16.586L94.3135 16.7418L99.2155 12.547L104.117 14.7712L109.019 10.0759L113.921 6.6691L118.823 6.01472H128.823" stroke="#C0C0C0" stroke-opacity="0.01" stroke-width="21" stroke-linejoin="round"/>
</g>
</g>
<defs>
<clipPath id="clip0_464_794">
<rect width="120" height="38" fill="white"/>
</clipPath>
</defs>
</svg>
