<svg width="120" height="38" viewBox="0 0 120 38" fill="none" xmlns="http://www.w3.org/2000/svg">
<g clip-path="url(#clip0_464_604)">
<mask id="mask0_464_604" style="mask-type:luminance" maskUnits="userSpaceOnUse" x="0" y="0" width="120" height="38">
<path d="M120 0H0V38H120V0Z" fill="white"/>
</mask>
<g mask="url(#mask0_464_604)">
<mask id="mask1_464_604" style="mask-type:luminance" maskUnits="userSpaceOnUse" x="0" y="37" width="120" height="1">
<path d="M120 37H0V38H120V37Z" fill="white"/>
</mask>
<g mask="url(#mask1_464_604)">
<path d="M1.17627 36.8336L6.07823 37.2266L10.9802 36.036L15.8822 38L20.7841 33.6119L25.6861 9.18582L30.588 5.34617L35.49 4.30155L40.392 0.551619L45.2939 5.12253L50.1959 0.453161L55.0978 0L59.9998 3.33549L64.9018 3.21714L69.8037 7.49447L74.7057 11.8868L79.6076 9.96899L84.5096 11.0582L89.4116 32.1683L94.3135 27.6291L99.2155 24.3806L104.117 26.918L109.019 22.7226L113.921 20.1343L118.823 17.4403V36.8336H113.921H109.019H104.117H99.2155H94.3135H89.4116H84.5096H79.6076H74.7057H69.8037H64.9018H59.9998H55.0978H50.1959H45.2939H40.392H35.49H30.588H25.6861H20.7841H15.8822H10.9802H6.07823H1.17627Z" fill="#E74C3C" fill-opacity="0.15"/>
</g>
<mask id="mask2_464_604" style="mask-type:luminance" maskUnits="userSpaceOnUse" x="0" y="0" width="120" height="37">
<path d="M120 0H0V37H120V0Z" fill="white"/>
</mask>
<g mask="url(#mask2_464_604)">
<path d="M1.17627 36.8336L6.07823 37.2266L10.9802 36.036L15.8822 38L20.7841 33.6119L25.6861 9.18582L30.588 5.34617L35.49 4.30155L40.392 0.551619L45.2939 5.12253L50.1959 0.453161L55.0978 0L59.9998 3.33549L64.9018 3.21714L69.8037 7.49447L74.7057 11.8868L79.6076 9.96899L84.5096 11.0582L89.4116 32.1683L94.3135 27.6291L99.2155 24.3806L104.117 26.918L109.019 22.7226L113.921 20.1343L118.823 17.4403V36.8336H113.921H109.019H104.117H99.2155H94.3135H89.4116H84.5096H79.6076H74.7057H69.8037H64.9018H59.9998H55.0978H50.1959H45.2939H40.392H35.49H30.588H25.6861H20.7841H15.8822H10.9802H6.07823H1.17627Z" fill="#2ECC71" fill-opacity="0.15"/>
</g>
<mask id="mask3_464_604" style="mask-type:luminance" maskUnits="userSpaceOnUse" x="0" y="37" width="120" height="1">
<path d="M120 37H0V38H120V37Z" fill="white"/>
</mask>
<g mask="url(#mask3_464_604)">
<path d="M1.17627 36.8336L6.07823 37.2266L10.9802 36.036L15.8822 38L20.7841 33.6119L25.6861 9.18582L30.588 5.34617L35.49 4.30155L40.392 0.551619L45.2939 5.12253L50.1959 0.453161L55.0978 0L59.9998 3.33549L64.9018 3.21714L69.8037 7.49447L74.7057 11.8868L79.6076 9.96899L84.5096 11.0582L89.4116 32.1683L94.3135 27.6291L99.2155 24.3806L104.117 26.918L109.019 22.7226L113.921 20.1343L118.823 17.4403" stroke="#E74C3C" stroke-linecap="round" stroke-linejoin="round"/>
</g>
<mask id="mask4_464_604" style="mask-type:luminance" maskUnits="userSpaceOnUse" x="0" y="0" width="120" height="37">
<path d="M120 0H0V37H120V0Z" fill="white"/>
</mask>
<g mask="url(#mask4_464_604)">
<path d="M1.17627 36.8336L6.07823 37.2266L10.9802 36.036L15.8822 38L20.7841 33.6119L25.6861 9.18582L30.588 5.34617L35.49 4.30155L40.392 0.551619L45.2939 5.12253L50.1959 0.453161L55.0978 0L59.9998 3.33549L64.9018 3.21714L69.8037 7.49447L74.7057 11.8868L79.6076 9.96899L84.5096 11.0582L89.4116 32.1683L94.3135 27.6291L99.2155 24.3806L104.117 26.918L109.019 22.7226L113.921 20.1343L118.823 17.4403" stroke="#2ECC71" stroke-linecap="round" stroke-linejoin="round"/>
</g>
<path d="M-8.82373 36.8336H1.17627L6.07823 37.2266L10.9802 36.036L15.8822 38L20.7841 33.6119L25.6861 9.18582L30.588 5.34617L35.49 4.30155L40.392 0.551619L45.2939 5.12253L50.1959 0.453161L55.0978 0L59.9998 3.33549L64.9018 3.21714L69.8037 7.49447L74.7057 11.8868L79.6076 9.96899L84.5096 11.0582L89.4116 32.1683L94.3135 27.6291L99.2155 24.3806L104.117 26.918L109.019 22.7226L113.921 20.1343L118.823 17.4403H128.823" stroke="#C0C0C0" stroke-opacity="0.01" stroke-width="21" stroke-linejoin="round"/>
</g>
</g>
<defs>
<clipPath id="clip0_464_604">
<rect width="120" height="38" fill="white"/>
</clipPath>
</defs>
</svg>
