<svg width="120" height="38" viewBox="0 0 120 38" fill="none" xmlns="http://www.w3.org/2000/svg">
<g clip-path="url(#clip0_463_414)">
<mask id="mask0_463_414" style="mask-type:luminance" maskUnits="userSpaceOnUse" x="0" y="0" width="120" height="38">
<path d="M120 0H0V38H120V0Z" fill="white"/>
</mask>
<g mask="url(#mask0_463_414)">
<mask id="mask1_463_414" style="mask-type:luminance" maskUnits="userSpaceOnUse" x="0" y="28" width="120" height="10">
<path d="M120 28H0V38H120V28Z" fill="white"/>
</mask>
<g mask="url(#mask1_463_414)">
<path d="M1.17627 28.1563L6.07823 33.7573L10.9802 33.5805L15.8822 34.7579L20.7841 33.5453L25.6861 27.4723L30.588 0L35.49 27.6509L40.392 27.7061L45.2939 28.1181L50.1959 30.7255L55.0978 29.773L59.9998 29.3653L64.9018 28.0838L69.8037 35.5044L74.7057 35.5096L79.6076 37.3494L84.5096 35.7271L89.4116 35.3577L94.3135 36.6204L99.2155 37.2365L104.117 37.6846L109.019 37.8442L113.921 38L118.823 36.5548V28.1563H113.921H109.019H104.117H99.2155H94.3135H89.4116H84.5096H79.6076H74.7057H69.8037H64.9018H59.9998H55.0978H50.1959H45.2939H40.392H35.49H30.588H25.6861H20.7841H15.8822H10.9802H6.07823H1.17627Z" fill="#E74C3C" fill-opacity="0.15"/>
</g>
<mask id="mask2_463_414" style="mask-type:luminance" maskUnits="userSpaceOnUse" x="0" y="0" width="120" height="28">
<path d="M120 0H0V28H120V0Z" fill="white"/>
</mask>
<g mask="url(#mask2_463_414)">
<path d="M1.17627 28.1563L6.07823 33.7573L10.9802 33.5805L15.8822 34.7579L20.7841 33.5453L25.6861 27.4723L30.588 0L35.49 27.6509L40.392 27.7061L45.2939 28.1181L50.1959 30.7255L55.0978 29.773L59.9998 29.3653L64.9018 28.0838L69.8037 35.5044L74.7057 35.5096L79.6076 37.3494L84.5096 35.7271L89.4116 35.3577L94.3135 36.6204L99.2155 37.2365L104.117 37.6846L109.019 37.8442L113.921 38L118.823 36.5548V28.1563H113.921H109.019H104.117H99.2155H94.3135H89.4116H84.5096H79.6076H74.7057H69.8037H64.9018H59.9998H55.0978H50.1959H45.2939H40.392H35.49H30.588H25.6861H20.7841H15.8822H10.9802H6.07823H1.17627Z" fill="#2ECC71" fill-opacity="0.15"/>
</g>
<mask id="mask3_463_414" style="mask-type:luminance" maskUnits="userSpaceOnUse" x="0" y="28" width="120" height="10">
<path d="M120 28H0V38H120V28Z" fill="white"/>
</mask>
<g mask="url(#mask3_463_414)">
<path d="M1.17627 28.1563L6.07823 33.7573L10.9802 33.5805L15.8822 34.7579L20.7841 33.5453L25.6861 27.4723L30.588 0L35.49 27.6509L40.392 27.7061L45.2939 28.1181L50.1959 30.7255L55.0978 29.773L59.9998 29.3653L64.9018 28.0838L69.8037 35.5044L74.7057 35.5096L79.6076 37.3494L84.5096 35.7271L89.4116 35.3577L94.3135 36.6204L99.2155 37.2365L104.117 37.6846L109.019 37.8442L113.921 38L118.823 36.5548" stroke="#E74C3C" stroke-linecap="round" stroke-linejoin="round"/>
</g>
<mask id="mask4_463_414" style="mask-type:luminance" maskUnits="userSpaceOnUse" x="0" y="0" width="120" height="28">
<path d="M120 0H0V28H120V0Z" fill="white"/>
</mask>
<g mask="url(#mask4_463_414)">
<path d="M1.17627 28.1563L6.07823 33.7573L10.9802 33.5805L15.8822 34.7579L20.7841 33.5453L25.6861 27.4723L30.588 0L35.49 27.6509L40.392 27.7061L45.2939 28.1181L50.1959 30.7255L55.0978 29.773L59.9998 29.3653L64.9018 28.0838L69.8037 35.5044L74.7057 35.5096L79.6076 37.3494L84.5096 35.7271L89.4116 35.3577L94.3135 36.6204L99.2155 37.2365L104.117 37.6846L109.019 37.8442L113.921 38L118.823 36.5548" stroke="#2ECC71" stroke-linecap="round" stroke-linejoin="round"/>
</g>
<path d="M-8.82373 28.1563H1.17627L6.07823 33.7573L10.9802 33.5805L15.8822 34.7579L20.7841 33.5453L25.6861 27.4723L30.588 0L35.49 27.6509L40.392 27.7061L45.2939 28.1181L50.1959 30.7255L55.0978 29.773L59.9998 29.3653L64.9018 28.0838L69.8037 35.5044L74.7057 35.5096L79.6076 37.3494L84.5096 35.7271L89.4116 35.3577L94.3135 36.6204L99.2155 37.2365L104.117 37.6846L109.019 37.8442L113.921 38L118.823 36.5548H128.823" stroke="#C0C0C0" stroke-opacity="0.01" stroke-width="21" stroke-linejoin="round"/>
</g>
</g>
<defs>
<clipPath id="clip0_463_414">
<rect width="120" height="38" fill="white"/>
</clipPath>
</defs>
</svg>
