<svg width="120" height="38" viewBox="0 0 120 38" fill="none" xmlns="http://www.w3.org/2000/svg">
<g clip-path="url(#clip0_463_528)">
<mask id="mask0_463_528" style="mask-type:luminance" maskUnits="userSpaceOnUse" x="0" y="0" width="120" height="38">
<path d="M120 0H0V38H120V0Z" fill="white"/>
</mask>
<g mask="url(#mask0_463_528)">
<mask id="mask1_463_528" style="mask-type:luminance" maskUnits="userSpaceOnUse" x="0" y="31" width="120" height="7">
<path d="M120 31H0V38H120V31Z" fill="white"/>
</mask>
<g mask="url(#mask1_463_528)">
<path d="M1.17627 30.5699L6.07823 8.9912L10.9802 11.4036L15.8822 19.9198L20.7841 8.31461L25.6861 15.3774L30.588 19.3513L35.49 22.9558L40.392 24.3772L45.2939 21.8569L50.1959 11.4027L55.0978 15.0286L59.9998 9.55703L64.9018 8.73088L69.8037 0L74.7057 13.6243L79.6076 18.901L84.5096 15.5803L89.4116 38L94.3135 33.1054L99.2155 28.3013L104.117 33.2971L109.019 27.269L113.921 19.7653L118.823 28.1527V30.5699H113.921H109.019H104.117H99.2155H94.3135H89.4116H84.5096H79.6076H74.7057H69.8037H64.9018H59.9998H55.0978H50.1959H45.2939H40.392H35.49H30.588H25.6861H20.7841H15.8822H10.9802H6.07823H1.17627Z" fill="#E74C3C" fill-opacity="0.15"/>
</g>
<mask id="mask2_463_528" style="mask-type:luminance" maskUnits="userSpaceOnUse" x="0" y="0" width="120" height="31">
<path d="M120 0H0V31H120V0Z" fill="white"/>
</mask>
<g mask="url(#mask2_463_528)">
<path d="M1.17627 30.5699L6.07823 8.9912L10.9802 11.4036L15.8822 19.9198L20.7841 8.31461L25.6861 15.3774L30.588 19.3513L35.49 22.9558L40.392 24.3772L45.2939 21.8569L50.1959 11.4027L55.0978 15.0286L59.9998 9.55703L64.9018 8.73088L69.8037 0L74.7057 13.6243L79.6076 18.901L84.5096 15.5803L89.4116 38L94.3135 33.1054L99.2155 28.3013L104.117 33.2971L109.019 27.269L113.921 19.7653L118.823 28.1527V30.5699H113.921H109.019H104.117H99.2155H94.3135H89.4116H84.5096H79.6076H74.7057H69.8037H64.9018H59.9998H55.0978H50.1959H45.2939H40.392H35.49H30.588H25.6861H20.7841H15.8822H10.9802H6.07823H1.17627Z" fill="#2ECC71" fill-opacity="0.15"/>
</g>
<mask id="mask3_463_528" style="mask-type:luminance" maskUnits="userSpaceOnUse" x="0" y="31" width="120" height="7">
<path d="M120 31H0V38H120V31Z" fill="white"/>
</mask>
<g mask="url(#mask3_463_528)">
<path d="M1.17627 30.5699L6.07823 8.9912L10.9802 11.4036L15.8822 19.9198L20.7841 8.31461L25.6861 15.3774L30.588 19.3513L35.49 22.9558L40.392 24.3772L45.2939 21.8569L50.1959 11.4027L55.0978 15.0286L59.9998 9.55703L64.9018 8.73088L69.8037 0L74.7057 13.6243L79.6076 18.901L84.5096 15.5803L89.4116 38L94.3135 33.1054L99.2155 28.3013L104.117 33.2971L109.019 27.269L113.921 19.7653L118.823 28.1527" stroke="#E74C3C" stroke-linecap="round" stroke-linejoin="round"/>
</g>
<mask id="mask4_463_528" style="mask-type:luminance" maskUnits="userSpaceOnUse" x="0" y="0" width="120" height="31">
<path d="M120 0H0V31H120V0Z" fill="white"/>
</mask>
<g mask="url(#mask4_463_528)">
<path d="M1.17627 30.5699L6.07823 8.9912L10.9802 11.4036L15.8822 19.9198L20.7841 8.31461L25.6861 15.3774L30.588 19.3513L35.49 22.9558L40.392 24.3772L45.2939 21.8569L50.1959 11.4027L55.0978 15.0286L59.9998 9.55703L64.9018 8.73088L69.8037 0L74.7057 13.6243L79.6076 18.901L84.5096 15.5803L89.4116 38L94.3135 33.1054L99.2155 28.3013L104.117 33.2971L109.019 27.269L113.921 19.7653L118.823 28.1527" stroke="#2ECC71" stroke-linecap="round" stroke-linejoin="round"/>
</g>
<path d="M-8.82373 30.5699H1.17627L6.07823 8.9912L10.9802 11.4036L15.8822 19.9198L20.7841 8.31461L25.6861 15.3774L30.588 19.3513L35.49 22.9558L40.392 24.3772L45.2939 21.8569L50.1959 11.4027L55.0978 15.0286L59.9998 9.55703L64.9018 8.73088L69.8037 0L74.7057 13.6243L79.6076 18.901L84.5096 15.5803L89.4116 38L94.3135 33.1054L99.2155 28.3013L104.117 33.2971L109.019 27.269L113.921 19.7653L118.823 28.1527H128.823" stroke="#C0C0C0" stroke-opacity="0.01" stroke-width="21" stroke-linejoin="round"/>
</g>
</g>
<defs>
<clipPath id="clip0_463_528">
<rect width="120" height="38" fill="white"/>
</clipPath>
</defs>
</svg>
