<svg width="120" height="38" viewBox="0 0 120 38" fill="none" xmlns="http://www.w3.org/2000/svg">
<g clip-path="url(#clip0_464_680)">
<mask id="mask0_464_680" style="mask-type:luminance" maskUnits="userSpaceOnUse" x="0" y="0" width="120" height="38">
<path d="M120 0H0V38H120V0Z" fill="white"/>
</mask>
<g mask="url(#mask0_464_680)">
<mask id="mask1_464_680" style="mask-type:luminance" maskUnits="userSpaceOnUse" x="0" y="0" width="120" height="38">
<path d="M120 0H0V38H120V0Z" fill="white"/>
</mask>
<g mask="url(#mask1_464_680)">
<path d="M1.17627 38L6.07823 37.5437L10.9802 33.5385L15.8822 30.2752L20.7841 26.1262L25.6861 24.5462L30.588 19.6141L35.49 23.525L40.392 17.1296L45.2939 18.6757L50.1959 30.1832L55.0978 21.8037L59.9998 19.5997L64.9018 21.3198L69.8037 11.8656L74.7057 11.797L79.6076 11.8456L84.5096 14.543L89.4116 17.0627L94.3135 12.6863L99.2155 8.72202L104.117 3.78183L109.019 8.29463L113.921 0.870938L118.823 0V38H113.921H109.019H104.117H99.2155H94.3135H89.4116H84.5096H79.6076H74.7057H69.8037H64.9018H59.9998H55.0978H50.1959H45.2939H40.392H35.49H30.588H25.6861H20.7841H15.8822H10.9802H6.07823H1.17627Z" fill="#2ECC71" fill-opacity="0.15"/>
</g>
<mask id="mask2_464_680" style="mask-type:luminance" maskUnits="userSpaceOnUse" x="0" y="0" width="120" height="38">
<path d="M120 0H0V38H120V0Z" fill="white"/>
</mask>
<g mask="url(#mask2_464_680)">
<path d="M1.17627 38L6.07823 37.5437L10.9802 33.5385L15.8822 30.2752L20.7841 26.1262L25.6861 24.5462L30.588 19.6141L35.49 23.525L40.392 17.1296L45.2939 18.6757L50.1959 30.1832L55.0978 21.8037L59.9998 19.5997L64.9018 21.3198L69.8037 11.8656L74.7057 11.797L79.6076 11.8456L84.5096 14.543L89.4116 17.0627L94.3135 12.6863L99.2155 8.72202L104.117 3.78183L109.019 8.29463L113.921 0.870938L118.823 0" stroke="#2ECC71" stroke-linecap="round" stroke-linejoin="round"/>
</g>
<path d="M-8.82373 38H1.17627L6.07823 37.5437L10.9802 33.5385L15.8822 30.2752L20.7841 26.1262L25.6861 24.5462L30.588 19.6141L35.49 23.525L40.392 17.1296L45.2939 18.6757L50.1959 30.1832L55.0978 21.8037L59.9998 19.5997L64.9018 21.3198L69.8037 11.8656L74.7057 11.797L79.6076 11.8456L84.5096 14.543L89.4116 17.0627L94.3135 12.6863L99.2155 8.72202L104.117 3.78183L109.019 8.29463L113.921 0.870938L118.823 0H128.823" stroke="#C0C0C0" stroke-opacity="0.01" stroke-width="21" stroke-linejoin="round"/>
</g>
</g>
<defs>
<clipPath id="clip0_464_680">
<rect width="120" height="38" fill="white"/>
</clipPath>
</defs>
</svg>
