<svg width="120" height="38" viewBox="0 0 120 38" fill="none" xmlns="http://www.w3.org/2000/svg">
<g clip-path="url(#clip0_464_832)">
<mask id="mask0_464_832" style="mask-type:luminance" maskUnits="userSpaceOnUse" x="0" y="0" width="120" height="38">
<path d="M120 0H0V38H120V0Z" fill="white"/>
</mask>
<g mask="url(#mask0_464_832)">
<mask id="mask1_464_832" style="mask-type:luminance" maskUnits="userSpaceOnUse" x="0" y="29" width="120" height="9">
<path d="M120 29H0V38H120V29Z" fill="white"/>
</mask>
<g mask="url(#mask1_464_832)">
<path d="M1.17627 28.7431L6.07823 18.961L10.9802 20.0897L15.8822 21.1817L20.7841 14.7258L25.6861 11.8121L30.588 0L35.49 8.46141L40.392 11.1647L45.2939 10.6524L50.1959 13.1432L55.0978 20.6557L59.9998 24.5963L64.9018 22.4768L69.8037 21.3328L74.7057 26.3469L79.6076 26.3141L84.5096 19.8325L89.4116 34.8596L94.3135 37.6743L99.2155 37.3591L104.117 38L109.019 34.1177L113.921 31.9693L118.823 32.1617V28.7431H113.921H109.019H104.117H99.2155H94.3135H89.4116H84.5096H79.6076H74.7057H69.8037H64.9018H59.9998H55.0978H50.1959H45.2939H40.392H35.49H30.588H25.6861H20.7841H15.8822H10.9802H6.07823H1.17627Z" fill="#E74C3C" fill-opacity="0.15"/>
</g>
<mask id="mask2_464_832" style="mask-type:luminance" maskUnits="userSpaceOnUse" x="0" y="0" width="120" height="29">
<path d="M120 0H0V29H120V0Z" fill="white"/>
</mask>
<g mask="url(#mask2_464_832)">
<path d="M1.17627 28.7431L6.07823 18.961L10.9802 20.0897L15.8822 21.1817L20.7841 14.7258L25.6861 11.8121L30.588 0L35.49 8.46141L40.392 11.1647L45.2939 10.6524L50.1959 13.1432L55.0978 20.6557L59.9998 24.5963L64.9018 22.4768L69.8037 21.3328L74.7057 26.3469L79.6076 26.3141L84.5096 19.8325L89.4116 34.8596L94.3135 37.6743L99.2155 37.3591L104.117 38L109.019 34.1177L113.921 31.9693L118.823 32.1617V28.7431H113.921H109.019H104.117H99.2155H94.3135H89.4116H84.5096H79.6076H74.7057H69.8037H64.9018H59.9998H55.0978H50.1959H45.2939H40.392H35.49H30.588H25.6861H20.7841H15.8822H10.9802H6.07823H1.17627Z" fill="#2ECC71" fill-opacity="0.15"/>
</g>
<mask id="mask3_464_832" style="mask-type:luminance" maskUnits="userSpaceOnUse" x="0" y="29" width="120" height="9">
<path d="M120 29H0V38H120V29Z" fill="white"/>
</mask>
<g mask="url(#mask3_464_832)">
<path d="M1.17627 28.7431L6.07823 18.961L10.9802 20.0897L15.8822 21.1817L20.7841 14.7258L25.6861 11.8121L30.588 0L35.49 8.46141L40.392 11.1647L45.2939 10.6524L50.1959 13.1432L55.0978 20.6557L59.9998 24.5963L64.9018 22.4768L69.8037 21.3328L74.7057 26.3469L79.6076 26.3141L84.5096 19.8325L89.4116 34.8596L94.3135 37.6743L99.2155 37.3591L104.117 38L109.019 34.1177L113.921 31.9693L118.823 32.1617" stroke="#E74C3C" stroke-linecap="round" stroke-linejoin="round"/>
</g>
<mask id="mask4_464_832" style="mask-type:luminance" maskUnits="userSpaceOnUse" x="0" y="0" width="120" height="29">
<path d="M120 0H0V29H120V0Z" fill="white"/>
</mask>
<g mask="url(#mask4_464_832)">
<path d="M1.17627 28.7431L6.07823 18.961L10.9802 20.0897L15.8822 21.1817L20.7841 14.7258L25.6861 11.8121L30.588 0L35.49 8.46141L40.392 11.1647L45.2939 10.6524L50.1959 13.1432L55.0978 20.6557L59.9998 24.5963L64.9018 22.4768L69.8037 21.3328L74.7057 26.3469L79.6076 26.3141L84.5096 19.8325L89.4116 34.8596L94.3135 37.6743L99.2155 37.3591L104.117 38L109.019 34.1177L113.921 31.9693L118.823 32.1617" stroke="#2ECC71" stroke-linecap="round" stroke-linejoin="round"/>
</g>
<path d="M-8.82373 28.7431H1.17627L6.07823 18.961L10.9802 20.0897L15.8822 21.1817L20.7841 14.7258L25.6861 11.8121L30.588 0L35.49 8.46141L40.392 11.1647L45.2939 10.6524L50.1959 13.1432L55.0978 20.6557L59.9998 24.5963L64.9018 22.4768L69.8037 21.3328L74.7057 26.3469L79.6076 26.3141L84.5096 19.8325L89.4116 34.8596L94.3135 37.6743L99.2155 37.3591L104.117 38L109.019 34.1177L113.921 31.9693L118.823 32.1617H128.823" stroke="#C0C0C0" stroke-opacity="0.01" stroke-width="21" stroke-linejoin="round"/>
</g>
</g>
<defs>
<clipPath id="clip0_464_832">
<rect width="120" height="38" fill="white"/>
</clipPath>
</defs>
</svg>
