<svg width="120" height="38" viewBox="0 0 120 38" fill="none" xmlns="http://www.w3.org/2000/svg">
<g clip-path="url(#clip0_464_756)">
<mask id="mask0_464_756" style="mask-type:luminance" maskUnits="userSpaceOnUse" x="0" y="0" width="120" height="38">
<path d="M120 0H0V38H120V0Z" fill="white"/>
</mask>
<g mask="url(#mask0_464_756)">
<mask id="mask1_464_756" style="mask-type:luminance" maskUnits="userSpaceOnUse" x="0" y="18" width="120" height="20">
<path d="M120 18H0V38H120V18Z" fill="white"/>
</mask>
<g mask="url(#mask1_464_756)">
<path d="M1.17627 17.8431L6.07823 13.265L10.9802 13.2075L15.8822 13.5797L20.7841 11.4421L25.6861 12.6591L30.588 11.9616L35.49 12.7567L40.392 3.64855L45.2939 0L50.1959 0.848727L55.0978 0.266889L59.9998 7.60204L64.9018 5.64822L69.8037 5.2377L74.7057 2.27425L79.6076 2.87808L84.5096 2.93845L89.4116 25.5822L94.3135 38L99.2155 35.1821L104.117 36.8205L109.019 32.3739L113.921 27.1149L118.823 22.0483V17.8431H113.921H109.019H104.117H99.2155H94.3135H89.4116H84.5096H79.6076H74.7057H69.8037H64.9018H59.9998H55.0978H50.1959H45.2939H40.392H35.49H30.588H25.6861H20.7841H15.8822H10.9802H6.07823H1.17627Z" fill="#E74C3C" fill-opacity="0.15"/>
</g>
<mask id="mask2_464_756" style="mask-type:luminance" maskUnits="userSpaceOnUse" x="0" y="0" width="120" height="18">
<path d="M120 0H0V18H120V0Z" fill="white"/>
</mask>
<g mask="url(#mask2_464_756)">
<path d="M1.17627 17.8431L6.07823 13.265L10.9802 13.2075L15.8822 13.5797L20.7841 11.4421L25.6861 12.6591L30.588 11.9616L35.49 12.7567L40.392 3.64855L45.2939 0L50.1959 0.848727L55.0978 0.266889L59.9998 7.60204L64.9018 5.64822L69.8037 5.2377L74.7057 2.27425L79.6076 2.87808L84.5096 2.93845L89.4116 25.5822L94.3135 38L99.2155 35.1821L104.117 36.8205L109.019 32.3739L113.921 27.1149L118.823 22.0483V17.8431H113.921H109.019H104.117H99.2155H94.3135H89.4116H84.5096H79.6076H74.7057H69.8037H64.9018H59.9998H55.0978H50.1959H45.2939H40.392H35.49H30.588H25.6861H20.7841H15.8822H10.9802H6.07823H1.17627Z" fill="#2ECC71" fill-opacity="0.15"/>
</g>
<mask id="mask3_464_756" style="mask-type:luminance" maskUnits="userSpaceOnUse" x="0" y="18" width="120" height="20">
<path d="M120 18H0V38H120V18Z" fill="white"/>
</mask>
<g mask="url(#mask3_464_756)">
<path d="M1.17627 17.8431L6.07823 13.265L10.9802 13.2075L15.8822 13.5797L20.7841 11.4421L25.6861 12.6591L30.588 11.9616L35.49 12.7567L40.392 3.64855L45.2939 0L50.1959 0.848727L55.0978 0.266889L59.9998 7.60204L64.9018 5.64822L69.8037 5.2377L74.7057 2.27425L79.6076 2.87808L84.5096 2.93845L89.4116 25.5822L94.3135 38L99.2155 35.1821L104.117 36.8205L109.019 32.3739L113.921 27.1149L118.823 22.0483" stroke="#E74C3C" stroke-linecap="round" stroke-linejoin="round"/>
</g>
<mask id="mask4_464_756" style="mask-type:luminance" maskUnits="userSpaceOnUse" x="0" y="0" width="120" height="18">
<path d="M120 0H0V18H120V0Z" fill="white"/>
</mask>
<g mask="url(#mask4_464_756)">
<path d="M1.17627 17.8431L6.07823 13.265L10.9802 13.2075L15.8822 13.5797L20.7841 11.4421L25.6861 12.6591L30.588 11.9616L35.49 12.7567L40.392 3.64855L45.2939 0L50.1959 0.848727L55.0978 0.266889L59.9998 7.60204L64.9018 5.64822L69.8037 5.2377L74.7057 2.27425L79.6076 2.87808L84.5096 2.93845L89.4116 25.5822L94.3135 38L99.2155 35.1821L104.117 36.8205L109.019 32.3739L113.921 27.1149L118.823 22.0483" stroke="#2ECC71" stroke-linecap="round" stroke-linejoin="round"/>
</g>
<path d="M-8.82373 17.8431H1.17627L6.07823 13.265L10.9802 13.2075L15.8822 13.5797L20.7841 11.4421L25.6861 12.6591L30.588 11.9616L35.49 12.7567L40.392 3.64855L45.2939 0L50.1959 0.848727L55.0978 0.266889L59.9998 7.60204L64.9018 5.64822L69.8037 5.2377L74.7057 2.27425L79.6076 2.87808L84.5096 2.93845L89.4116 25.5822L94.3135 38L99.2155 35.1821L104.117 36.8205L109.019 32.3739L113.921 27.1149L118.823 22.0483H128.823" stroke="#C0C0C0" stroke-opacity="0.01" stroke-width="21" stroke-linejoin="round"/>
</g>
</g>
<defs>
<clipPath id="clip0_464_756">
<rect width="120" height="38" fill="white"/>
</clipPath>
</defs>
</svg>
