<svg width="120" height="38" viewBox="0 0 120 38" fill="none" xmlns="http://www.w3.org/2000/svg">
<g clip-path="url(#clip0_464_642)">
<mask id="mask0_464_642" style="mask-type:luminance" maskUnits="userSpaceOnUse" x="0" y="0" width="120" height="38">
<path d="M120 0H0V38H120V0Z" fill="white"/>
</mask>
<g mask="url(#mask0_464_642)">
<mask id="mask1_464_642" style="mask-type:luminance" maskUnits="userSpaceOnUse" x="0" y="25" width="120" height="13">
<path d="M120 25H0V38H120V25Z" fill="white"/>
</mask>
<g mask="url(#mask1_464_642)">
<path d="M1.17627 25.419L6.07823 22.8764L10.9802 24.9495L15.8822 28.4983L20.7841 26.259L25.6861 24.073L30.588 15.9964L35.49 16.4555L40.392 18.6373L45.2939 9.36698L50.1959 27.0696L55.0978 24.7138L59.9998 19.1775L64.9018 20.1863L69.8037 24.0298L74.7057 11.2796L79.6076 0L84.5096 25.3457L89.4116 38L94.3135 35.7339L99.2155 37.0409L104.117 30.5112L109.019 35.0912L113.921 37.2786L118.823 34.3177V25.419H113.921H109.019H104.117H99.2155H94.3135H89.4116H84.5096H79.6076H74.7057H69.8037H64.9018H59.9998H55.0978H50.1959H45.2939H40.392H35.49H30.588H25.6861H20.7841H15.8822H10.9802H6.07823H1.17627Z" fill="#E74C3C" fill-opacity="0.15"/>
</g>
<mask id="mask2_464_642" style="mask-type:luminance" maskUnits="userSpaceOnUse" x="0" y="0" width="120" height="25">
<path d="M120 0H0V25H120V0Z" fill="white"/>
</mask>
<g mask="url(#mask2_464_642)">
<path d="M1.17627 25.419L6.07823 22.8764L10.9802 24.9495L15.8822 28.4983L20.7841 26.259L25.6861 24.073L30.588 15.9964L35.49 16.4555L40.392 18.6373L45.2939 9.36698L50.1959 27.0696L55.0978 24.7138L59.9998 19.1775L64.9018 20.1863L69.8037 24.0298L74.7057 11.2796L79.6076 0L84.5096 25.3457L89.4116 38L94.3135 35.7339L99.2155 37.0409L104.117 30.5112L109.019 35.0912L113.921 37.2786L118.823 34.3177V25.419H113.921H109.019H104.117H99.2155H94.3135H89.4116H84.5096H79.6076H74.7057H69.8037H64.9018H59.9998H55.0978H50.1959H45.2939H40.392H35.49H30.588H25.6861H20.7841H15.8822H10.9802H6.07823H1.17627Z" fill="#2ECC71" fill-opacity="0.15"/>
</g>
<mask id="mask3_464_642" style="mask-type:luminance" maskUnits="userSpaceOnUse" x="0" y="25" width="120" height="13">
<path d="M120 25H0V38H120V25Z" fill="white"/>
</mask>
<g mask="url(#mask3_464_642)">
<path d="M1.17627 25.419L6.07823 22.8764L10.9802 24.9495L15.8822 28.4983L20.7841 26.259L25.6861 24.073L30.588 15.9964L35.49 16.4555L40.392 18.6373L45.2939 9.36698L50.1959 27.0696L55.0978 24.7138L59.9998 19.1775L64.9018 20.1863L69.8037 24.0298L74.7057 11.2796L79.6076 0L84.5096 25.3457L89.4116 38L94.3135 35.7339L99.2155 37.0409L104.117 30.5112L109.019 35.0912L113.921 37.2786L118.823 34.3177" stroke="#E74C3C" stroke-linecap="round" stroke-linejoin="round"/>
</g>
<mask id="mask4_464_642" style="mask-type:luminance" maskUnits="userSpaceOnUse" x="0" y="0" width="120" height="25">
<path d="M120 0H0V25H120V0Z" fill="white"/>
</mask>
<g mask="url(#mask4_464_642)">
<path d="M1.17627 25.419L6.07823 22.8764L10.9802 24.9495L15.8822 28.4983L20.7841 26.259L25.6861 24.073L30.588 15.9964L35.49 16.4555L40.392 18.6373L45.2939 9.36698L50.1959 27.0696L55.0978 24.7138L59.9998 19.1775L64.9018 20.1863L69.8037 24.0298L74.7057 11.2796L79.6076 0L84.5096 25.3457L89.4116 38L94.3135 35.7339L99.2155 37.0409L104.117 30.5112L109.019 35.0912L113.921 37.2786L118.823 34.3177" stroke="#2ECC71" stroke-linecap="round" stroke-linejoin="round"/>
</g>
<path d="M-8.82373 25.419H1.17627L6.07823 22.8764L10.9802 24.9495L15.8822 28.4983L20.7841 26.259L25.6861 24.073L30.588 15.9964L35.49 16.4555L40.392 18.6373L45.2939 9.36698L50.1959 27.0696L55.0978 24.7138L59.9998 19.1775L64.9018 20.1863L69.8037 24.0298L74.7057 11.2796L79.6076 0L84.5096 25.3457L89.4116 38L94.3135 35.7339L99.2155 37.0409L104.117 30.5112L109.019 35.0912L113.921 37.2786L118.823 34.3177H128.823" stroke="#C0C0C0" stroke-opacity="0.01" stroke-width="21" stroke-linejoin="round"/>
</g>
</g>
<defs>
<clipPath id="clip0_464_642">
<rect width="120" height="38" fill="white"/>
</clipPath>
</defs>
</svg>
