<svg width="120" height="38" viewBox="0 0 120 38" fill="none" xmlns="http://www.w3.org/2000/svg">
<g clip-path="url(#clip0_463_490)">
<mask id="mask0_463_490" style="mask-type:luminance" maskUnits="userSpaceOnUse" x="0" y="0" width="120" height="38">
<path d="M120 0H0V38H120V0Z" fill="white"/>
</mask>
<g mask="url(#mask0_463_490)">
<mask id="mask1_463_490" style="mask-type:luminance" maskUnits="userSpaceOnUse" x="0" y="35" width="120" height="3">
<path d="M120 35H0V38H120V35Z" fill="white"/>
</mask>
<g mask="url(#mask1_463_490)">
<path d="M1.17627 34.8711L6.07823 33.7811L10.9802 31.609L15.8822 32.7953L20.7841 28.6056L25.6861 24.7723L30.588 28.2164L35.49 25.5967L40.392 25.9969L45.2939 25.2991L50.1959 23.6213L55.0978 24.9927L59.9998 28.2112L64.9018 26.1486L69.8037 27.3585L74.7057 28.5444L79.6076 27.3854L84.5096 28.6208L89.4116 38L94.3135 34.3826L99.2155 32.6031L104.117 28.4596L109.019 21.7589L113.921 8.9986L118.823 0V34.8711H113.921H109.019H104.117H99.2155H94.3135H89.4116H84.5096H79.6076H74.7057H69.8037H64.9018H59.9998H55.0978H50.1959H45.2939H40.392H35.49H30.588H25.6861H20.7841H15.8822H10.9802H6.07823H1.17627Z" fill="#E74C3C" fill-opacity="0.15"/>
</g>
<mask id="mask2_463_490" style="mask-type:luminance" maskUnits="userSpaceOnUse" x="0" y="0" width="120" height="35">
<path d="M120 0H0V35H120V0Z" fill="white"/>
</mask>
<g mask="url(#mask2_463_490)">
<path d="M1.17627 34.8711L6.07823 33.7811L10.9802 31.609L15.8822 32.7953L20.7841 28.6056L25.6861 24.7723L30.588 28.2164L35.49 25.5967L40.392 25.9969L45.2939 25.2991L50.1959 23.6213L55.0978 24.9927L59.9998 28.2112L64.9018 26.1486L69.8037 27.3585L74.7057 28.5444L79.6076 27.3854L84.5096 28.6208L89.4116 38L94.3135 34.3826L99.2155 32.6031L104.117 28.4596L109.019 21.7589L113.921 8.9986L118.823 0V34.8711H113.921H109.019H104.117H99.2155H94.3135H89.4116H84.5096H79.6076H74.7057H69.8037H64.9018H59.9998H55.0978H50.1959H45.2939H40.392H35.49H30.588H25.6861H20.7841H15.8822H10.9802H6.07823H1.17627Z" fill="#2ECC71" fill-opacity="0.15"/>
</g>
<mask id="mask3_463_490" style="mask-type:luminance" maskUnits="userSpaceOnUse" x="0" y="35" width="120" height="3">
<path d="M120 35H0V38H120V35Z" fill="white"/>
</mask>
<g mask="url(#mask3_463_490)">
<path d="M1.17627 34.8711L6.07823 33.7811L10.9802 31.609L15.8822 32.7953L20.7841 28.6056L25.6861 24.7723L30.588 28.2164L35.49 25.5967L40.392 25.9969L45.2939 25.2991L50.1959 23.6213L55.0978 24.9927L59.9998 28.2112L64.9018 26.1486L69.8037 27.3585L74.7057 28.5444L79.6076 27.3854L84.5096 28.6208L89.4116 38L94.3135 34.3826L99.2155 32.6031L104.117 28.4596L109.019 21.7589L113.921 8.9986L118.823 0" stroke="#E74C3C" stroke-linecap="round" stroke-linejoin="round"/>
</g>
<mask id="mask4_463_490" style="mask-type:luminance" maskUnits="userSpaceOnUse" x="0" y="0" width="120" height="35">
<path d="M120 0H0V35H120V0Z" fill="white"/>
</mask>
<g mask="url(#mask4_463_490)">
<path d="M1.17627 34.8711L6.07823 33.7811L10.9802 31.609L15.8822 32.7953L20.7841 28.6056L25.6861 24.7723L30.588 28.2164L35.49 25.5967L40.392 25.9969L45.2939 25.2991L50.1959 23.6213L55.0978 24.9927L59.9998 28.2112L64.9018 26.1486L69.8037 27.3585L74.7057 28.5444L79.6076 27.3854L84.5096 28.6208L89.4116 38L94.3135 34.3826L99.2155 32.6031L104.117 28.4596L109.019 21.7589L113.921 8.9986L118.823 0" stroke="#2ECC71" stroke-linecap="round" stroke-linejoin="round"/>
</g>
<path d="M-8.82373 34.8711H1.17627L6.07823 33.7811L10.9802 31.609L15.8822 32.7953L20.7841 28.6056L25.6861 24.7723L30.588 28.2164L35.49 25.5967L40.392 25.9969L45.2939 25.2991L50.1959 23.6213L55.0978 24.9927L59.9998 28.2112L64.9018 26.1486L69.8037 27.3585L74.7057 28.5444L79.6076 27.3854L84.5096 28.6208L89.4116 38L94.3135 34.3826L99.2155 32.6031L104.117 28.4596L109.019 21.7589L113.921 8.9986L118.823 0H128.823" stroke="#C0C0C0" stroke-opacity="0.01" stroke-width="21" stroke-linejoin="round"/>
</g>
</g>
<defs>
<clipPath id="clip0_463_490">
<rect width="120" height="38" fill="white"/>
</clipPath>
</defs>
</svg>
