<svg width="120" height="38" viewBox="0 0 120 38" fill="none" xmlns="http://www.w3.org/2000/svg">
<g clip-path="url(#clip0_464_718)">
<mask id="mask0_464_718" style="mask-type:luminance" maskUnits="userSpaceOnUse" x="0" y="0" width="120" height="38">
<path d="M120 0H0V38H120V0Z" fill="white"/>
</mask>
<g mask="url(#mask0_464_718)">
<mask id="mask1_464_718" style="mask-type:luminance" maskUnits="userSpaceOnUse" x="0" y="4" width="120" height="34">
<path d="M120 4H0V38H120V4Z" fill="white"/>
</mask>
<g mask="url(#mask1_464_718)">
<path d="M1.17627 4.40917L6.07823 0L10.9802 5.20076L15.8822 6.84336L20.7841 5.54141L25.6861 7.79445L30.588 0.548358L35.49 9.0017L40.392 15.4371L45.2939 15.9918L50.1959 23.8778L55.0978 29.6059L59.9998 25.8397L64.9018 14.5251L69.8037 25.7936L74.7057 31.9042L79.6076 28.2761L84.5096 26.1346L89.4116 38L94.3135 24.1416L99.2155 22.0414L104.117 11.2575L109.019 3.2192L113.921 2.55377L118.823 1.61481V4.40917H113.921H109.019H104.117H99.2155H94.3135H89.4116H84.5096H79.6076H74.7057H69.8037H64.9018H59.9998H55.0978H50.1959H45.2939H40.392H35.49H30.588H25.6861H20.7841H15.8822H10.9802H6.07823H1.17627Z" fill="#E74C3C" fill-opacity="0.15"/>
</g>
<mask id="mask2_464_718" style="mask-type:luminance" maskUnits="userSpaceOnUse" x="0" y="0" width="120" height="4">
<path d="M120 0H0V4H120V0Z" fill="white"/>
</mask>
<g mask="url(#mask2_464_718)">
<path d="M1.17627 4.40917L6.07823 0L10.9802 5.20076L15.8822 6.84336L20.7841 5.54141L25.6861 7.79445L30.588 0.548358L35.49 9.0017L40.392 15.4371L45.2939 15.9918L50.1959 23.8778L55.0978 29.6059L59.9998 25.8397L64.9018 14.5251L69.8037 25.7936L74.7057 31.9042L79.6076 28.2761L84.5096 26.1346L89.4116 38L94.3135 24.1416L99.2155 22.0414L104.117 11.2575L109.019 3.2192L113.921 2.55377L118.823 1.61481V4.40917H113.921H109.019H104.117H99.2155H94.3135H89.4116H84.5096H79.6076H74.7057H69.8037H64.9018H59.9998H55.0978H50.1959H45.2939H40.392H35.49H30.588H25.6861H20.7841H15.8822H10.9802H6.07823H1.17627Z" fill="#2ECC71" fill-opacity="0.15"/>
</g>
<mask id="mask3_464_718" style="mask-type:luminance" maskUnits="userSpaceOnUse" x="0" y="4" width="120" height="34">
<path d="M120 4H0V38H120V4Z" fill="white"/>
</mask>
<g mask="url(#mask3_464_718)">
<path d="M1.17627 4.40917L6.07823 0L10.9802 5.20076L15.8822 6.84336L20.7841 5.54141L25.6861 7.79445L30.588 0.548358L35.49 9.0017L40.392 15.4371L45.2939 15.9918L50.1959 23.8778L55.0978 29.6059L59.9998 25.8397L64.9018 14.5251L69.8037 25.7936L74.7057 31.9042L79.6076 28.2761L84.5096 26.1346L89.4116 38L94.3135 24.1416L99.2155 22.0414L104.117 11.2575L109.019 3.2192L113.921 2.55377L118.823 1.61481" stroke="#E74C3C" stroke-linecap="round" stroke-linejoin="round"/>
</g>
<mask id="mask4_464_718" style="mask-type:luminance" maskUnits="userSpaceOnUse" x="0" y="0" width="120" height="4">
<path d="M120 0H0V4H120V0Z" fill="white"/>
</mask>
<g mask="url(#mask4_464_718)">
<path d="M1.17627 4.40917L6.07823 0L10.9802 5.20076L15.8822 6.84336L20.7841 5.54141L25.6861 7.79445L30.588 0.548358L35.49 9.0017L40.392 15.4371L45.2939 15.9918L50.1959 23.8778L55.0978 29.6059L59.9998 25.8397L64.9018 14.5251L69.8037 25.7936L74.7057 31.9042L79.6076 28.2761L84.5096 26.1346L89.4116 38L94.3135 24.1416L99.2155 22.0414L104.117 11.2575L109.019 3.2192L113.921 2.55377L118.823 1.61481" stroke="#2ECC71" stroke-linecap="round" stroke-linejoin="round"/>
</g>
<path d="M-8.82373 4.40917H1.17627L6.07823 0L10.9802 5.20076L15.8822 6.84336L20.7841 5.54141L25.6861 7.79445L30.588 0.548358L35.49 9.0017L40.392 15.4371L45.2939 15.9918L50.1959 23.8778L55.0978 29.6059L59.9998 25.8397L64.9018 14.5251L69.8037 25.7936L74.7057 31.9042L79.6076 28.2761L84.5096 26.1346L89.4116 38L94.3135 24.1416L99.2155 22.0414L104.117 11.2575L109.019 3.2192L113.921 2.55377L118.823 1.61481H128.823" stroke="#C0C0C0" stroke-opacity="0.01" stroke-width="21" stroke-linejoin="round"/>
</g>
</g>
<defs>
<clipPath id="clip0_464_718">
<rect width="120" height="38" fill="white"/>
</clipPath>
</defs>
</svg>
