<svg width="118" height="118" viewBox="0 0 118 118" fill="none" xmlns="http://www.w3.org/2000/svg">
<path d="M36.4032 5.26859C34.1384 6.2196 31.9372 7.31626 29.814 8.55164C36.569 10.8191 44.1416 14.918 48.7698 32.8805C49.189 32.7053 49.608 32.5299 50.0269 32.3548C55.7094 29.8145 62.0384 29.0942 68.1463 30.2925C68.9605 30.4674 69.7254 30.8228 70.3843 31.3319C71.0434 31.8413 71.5799 32.4918 71.9544 33.2354C72.3292 33.9792 72.5325 34.7976 72.5495 35.6302C72.5665 36.4631 72.3967 37.289 72.0528 38.0474C71.4933 39.2284 70.5409 40.1786 69.3585 40.735C68.1761 41.2917 66.837 41.4203 65.5701 41.099C61.9597 40.2513 58.172 40.5915 54.7701 42.0686C50.4854 43.8612 47.0886 47.282 45.3264 51.5792C43.5643 55.8763 43.5813 60.6972 45.3737 64.9816C47.1661 69.2662 50.5872 72.6631 54.884 74.4252C59.1811 76.1873 64.0023 76.1703 68.2867 74.3779C71.7339 72.9949 74.6348 70.5233 76.5479 67.3395C77.2075 66.2041 78.2414 65.3338 79.4725 64.8777C80.7037 64.4213 82.055 64.4079 83.295 64.8393C84.0763 65.1243 84.7836 65.5807 85.365 66.1753C85.9464 66.7699 86.3872 67.4871 86.6547 68.2745C86.9222 69.0618 87.0096 69.8992 86.9107 70.7248C86.8119 71.5505 86.529 72.3432 86.0829 73.0453C82.6395 78.2885 77.6447 82.3251 71.7954 84.5913L71.4343 84.7425C75.483 96.0032 80.876 97.6523 86.5194 99.3321C89.5851 100.067 92.486 101.37 95.0711 103.174C105.785 94.4253 112.99 82.112 115.371 68.4864C117.751 54.8608 115.147 40.8339 108.034 28.9707C100.922 17.1075 89.7766 8.20123 76.6367 3.88082C63.4967 -0.439597 49.2406 0.114568 36.4759 5.44198L36.4032 5.26859Z" fill="black"/>
<path d="M84.508 105.725C78.2388 103.849 70.7039 101.585 65.4158 88.0922C65.2418 87.655 64.9263 87.2891 64.5196 87.0527C64.1129 86.8166 63.6386 86.7238 63.1728 86.7893C57.1719 87.602 51.0687 86.4531 45.7739 83.5138C40.4791 80.5748 36.2763 76.0029 33.792 70.48C31.3079 64.9572 30.6754 58.7792 31.9888 52.8675C33.3025 46.9558 36.4918 41.6272 41.0812 37.6761C41.545 37.2639 41.8833 36.7298 42.0575 36.1345C42.2317 35.5389 42.235 34.9067 42.0668 34.3095C37.8964 18.0909 31.7875 16.2321 25.3398 14.2943C24.4659 14.0317 23.5511 13.7524 22.6386 13.438C11.7834 22.1105 4.43043 34.4158 1.93579 48.0841C-0.55884 61.7526 1.97318 75.8619 9.06483 87.81C16.1565 99.7579 27.3294 108.739 40.5228 113.096C53.716 117.452 68.0398 116.892 80.8522 111.516C83.6778 110.334 86.4064 108.931 89.0126 107.322C87.5557 106.671 86.0493 106.137 84.508 105.725Z" fill="url(#paint0_linear_625_588)"/>
<defs>
<linearGradient id="paint0_linear_625_588" x1="-0.125408" y1="53.3021" x2="96.4537" y2="83.6307" gradientUnits="userSpaceOnUse">
<stop stop-color="#F0B90B"/>
<stop offset="1" stop-color="white"/>
</linearGradient>
</defs>
</svg>
