<svg width="251" height="50" viewBox="0 0 251 50" fill="none" xmlns="http://www.w3.org/2000/svg">
<g clip-path="url(#clip0_523_1124)">
<path d="M15.088 2.25314C14.1441 2.64949 13.2267 3.10654 12.3418 3.62141C15.1571 4.56643 18.3131 6.27471 20.242 13.7609C20.4167 13.6879 20.5913 13.6148 20.7659 13.5418C23.1342 12.4831 25.7719 12.1829 28.3175 12.6823C28.6568 12.7552 28.9756 12.9033 29.2502 13.1155C29.5249 13.3278 29.7485 13.5988 29.9046 13.9088C30.0608 14.2188 30.1455 14.5599 30.1526 14.9069C30.1597 15.254 30.0889 15.5982 29.9456 15.9143C29.7124 16.4065 29.3155 16.8025 28.8227 17.0344C28.3299 17.2664 27.7718 17.32 27.2438 17.1861C25.7391 16.8328 24.1605 16.9746 22.7427 17.5902C20.957 18.3373 19.5413 19.763 18.8069 21.5539C18.0725 23.3448 18.0796 25.354 18.8266 27.1396C19.5736 28.9253 20.9994 30.341 22.7902 31.0754C24.5811 31.8098 26.5904 31.8027 28.376 31.0557C29.8127 30.4793 31.0217 29.4492 31.819 28.1223C32.0939 27.6491 32.5248 27.2864 33.0379 27.0963C33.551 26.9061 34.1142 26.9005 34.631 27.0803C34.9566 27.1991 35.2514 27.3893 35.4937 27.6371C35.736 27.8849 35.9197 28.1838 36.0312 28.512C36.1427 28.8401 36.1791 29.1891 36.1379 29.5332C36.0967 29.8773 35.9788 30.2077 35.7929 30.5003C34.3578 32.6855 32.2761 34.3678 29.8383 35.3123L29.6878 35.3753C31.3752 40.0684 33.6228 40.7557 35.9748 41.4558C37.2525 41.7619 38.4615 42.3051 39.5389 43.057C44.0039 39.4108 47.0071 34.279 47.9991 28.6003C48.9912 22.9216 47.9058 17.0756 44.9416 12.1314C41.9773 7.1872 37.3323 3.47537 31.856 1.67476C26.3797 -0.125851 20.4382 0.105106 15.1183 2.3254L15.088 2.25314Z" fill="white"/>
<path d="M35.1364 44.121C32.5236 43.3389 29.3833 42.3954 27.1794 36.772C27.1069 36.5898 26.9754 36.4373 26.8059 36.3388C26.6364 36.2404 26.4387 36.2017 26.2446 36.229C23.7436 36.5677 21.2 36.0889 18.9933 34.8639C16.7866 33.639 15.035 31.7336 13.9996 29.4318C12.9643 27.1301 12.7007 24.5553 13.2481 22.0915C13.7956 19.6277 15.1248 17.4069 17.0375 15.7602C17.2308 15.5884 17.3718 15.3658 17.4444 15.1177C17.517 14.8695 17.5184 14.606 17.4483 14.3571C15.7102 7.59771 13.1642 6.82304 10.477 6.01543C10.1128 5.90599 9.73153 5.78955 9.35122 5.65853C4.82715 9.27296 1.76265 14.4014 0.722966 20.0979C-0.316716 25.7945 0.738551 31.6748 3.69412 36.6544C6.6497 41.6339 11.3062 45.3768 16.8048 47.1926C22.3033 49.0084 28.273 48.7747 33.6128 46.5345C34.7904 46.0415 35.9276 45.4569 37.0138 44.7862C36.4066 44.5151 35.7788 44.2927 35.1364 44.121Z" fill="url(#paint0_linear_523_1124)"/>
<path d="M91.452 28.12H95.192C95.236 35.732 88.592 40.44 77.46 40.44C64.964 40.44 58.892 34.5 58.892 24.776C58.892 14.304 65.976 8.76 77.944 8.76C88.944 8.76 95.148 13.424 95.148 21.256H91.364C91.056 15.052 86.92 12.192 78.032 12.192C67.78 12.192 62.852 15.888 62.852 24.82C62.852 32.872 66.944 36.964 77.416 36.964C86.524 36.964 91.452 33.752 91.452 28.12ZM104.315 12.324V24.38H122.575C127.327 24.38 130.319 22.576 130.319 17.868C130.319 13.864 128.207 12.324 122.575 12.324H104.315ZM134.587 40.264H130.319L126.227 31.464C124.907 28.56 123.323 27.636 120.023 27.636H104.315V40H100.575V9.2H123.455C130.759 9.2 134.323 11.928 134.323 17.252C134.323 22.136 131.287 25.304 126.051 26.096V26.492C127.987 27.02 129.219 28.252 130.539 31.244L134.587 40.264ZM154.263 40V32.256L138.423 9.2H142.999L153.779 24.952L155.803 28.516H156.463L158.487 24.952L169.355 9.2H173.887L158.003 32.256V40H154.263ZM182.897 12.588V25.48H202.213C206.789 25.48 208.681 23.544 208.681 19.012C208.681 14.48 206.789 12.588 201.949 12.588H182.897ZM182.897 40H179.157V9.2H201.905C208.989 9.2 212.685 12.544 212.685 18.968C212.685 25.436 208.945 28.868 201.905 28.868H182.897V40ZM231.375 39.956V12.588H216.063V9.156H250.339V12.588H235.115V39.956H231.375Z" fill="white"/>
</g>
<defs>
<linearGradient id="paint0_linear_523_1124" x1="-0.136075" y1="22.2726" x2="40.115" y2="34.9126" gradientUnits="userSpaceOnUse">
<stop stop-color="#F0B90B"/>
<stop offset="1" stop-color="white"/>
</linearGradient>
<clipPath id="clip0_523_1124">
<rect width="251" height="50" fill="white"/>
</clipPath>
</defs>
</svg>
