<svg width="1440" height="28" viewBox="0 0 1440 28" fill="none" xmlns="http://www.w3.org/2000/svg">
<g clip-path="url(#clip0_668_1728)">
<mask id="mask0_668_1728" style="mask-type:luminance" maskUnits="userSpaceOnUse" x="0" y="0" width="1440" height="28">
<path d="M1440 0H0V28H1440V0Z" fill="white"/>
</mask>
<g mask="url(#mask0_668_1728)">
<path d="M-70 20C226.091 20 520.794 14.727 816.181 9.07787C889.425 7.67712 962.25 6.38911 1035.59 7.31106C1182.71 9.16061 1328.54 12.7721 1476 12.7721" stroke="#F8EABB" stroke-width="3" stroke-linecap="round"/>
<path d="M-80 21.0029C69.7911 23.5646 216.807 29.3939 367.477 27.6945C446.362 26.8048 523.566 22.5759 602.456 22.4035C709.689 22.1691 816.179 17.0491 923.612 16.8012C974.462 16.6838 1024.91 15.4006 1075.89 15.4006C1175.7 15.4006 1275.1 14 1374.84 14C1407.77 14 1441.43 16.8012 1476 16.8012" stroke="#F8EABB" stroke-width="3" stroke-linecap="round"/>
<path d="M-75 19.7838C86.1093 25.0627 248.78 22.9329 410.152 19.8627C484.163 18.4546 561.715 16.943 635.736 16.943C802.452 16.943 967.518 7 1134 7" stroke="#F8EABB" stroke-width="3" stroke-linecap="round"/>
<path d="M-18 17.1714C127.027 17.1714 278.513 23.5884 422.615 17.0919C531.683 12.1748 641.58 10.1663 751.268 6.83676C874.65 3.0916 994.949 1.43095 1118.76 1.43095C1251.33 1.43095 1386.39 0 1520 0" stroke="#F8EABB" stroke-width="3" stroke-linecap="round"/>
</g>
</g>
<defs>
<clipPath id="clip0_668_1728">
<rect width="1440" height="28" fill="white"/>
</clipPath>
</defs>
</svg>
