<svg width="144" height="141" viewBox="0 0 144 141" fill="none" xmlns="http://www.w3.org/2000/svg">
<g clip-path="url(#clip0_675_1582)">
<path fill-rule="evenodd" clip-rule="evenodd" d="M129.189 140.951C128.744 140.881 126.422 140.622 124.03 140.364C114.719 139.355 109.23 138.511 108.058 137.901C107.119 137.431 106.674 136.657 106.674 135.554C106.674 134.287 107.424 133.489 109.043 133.02C110.403 132.621 110.825 132.574 118.87 131.472C121.778 131.073 124.288 130.697 124.475 130.627C124.663 130.556 122.951 129.899 120.676 129.125C110.028 125.559 100.412 120.232 91.7339 113.076C88.38 110.284 81.6957 103.573 79.2096 100.499C73.8387 93.7884 69.6874 86.1861 66.5681 77.2698C65.9348 75.5335 65.3484 74.1022 65.2546 74.1022C65.1374 74.1022 63.7771 74.2664 62.2291 74.4307C52.9649 75.4866 43.1847 72.8351 34.1316 66.7814C24.7735 60.54 18.5349 53.2662 10.5371 39.258C2.53943 25.274 -1.0959 13.518 0.287875 5.98599C0.897671 2.53699 2.0469 0.964999 3.97011 0.917999C5.28352 0.894999 5.37733 1.341 4.20465 1.951C3.05541 2.537 2.6567 3.09999 2.32835 4.71899C0.61623 12.979 6.24512 27.972 17.4325 44.8896C23.2725 53.759 28.362 59.0853 35.5622 63.8954C43.8649 69.4563 52.7069 71.967 61.1737 71.1692C64.9967 70.8172 64.6917 71.0753 64.1992 68.5178C62.2525 58.4987 63.8005 48.3622 67.9753 43.646C73.1116 37.921 81.9771 39 85.0027 45.7343C86.3395 48.7142 86.3864 53.2897 85.1434 57.0204C83.1498 62.9099 80.007 67.1803 75.4335 70.1837C73.8152 71.2396 70.4848 72.8117 69.875 72.8117C69.359 72.8117 69.4294 73.3513 70.2268 75.6743C72.3377 81.7514 75.457 88.2979 78.4122 92.756C83.2436 100.077 91.4524 108.43 99.1687 113.897C105.806 118.59 113.241 122.461 120.512 124.996C123.772 126.145 129.87 127.811 130.081 127.623C130.128 127.553 129.541 126.638 128.791 125.559C124.78 119.974 122.716 114.929 122.388 110.002C122.224 107.28 122.341 106.412 122.88 106.741C122.998 106.811 123.678 108.031 124.405 109.439C126.281 113.193 131.722 120.326 139.579 129.36C141.127 131.143 142.652 133.137 143.027 133.912C144.552 136.962 143.52 139.52 140.377 140.529C139.439 140.834 138.102 140.951 134.584 140.974C132.074 141.021 129.635 140.998 129.189 140.951ZM137.117 136.07C137.187 135.977 136.718 135.367 136.061 134.71L134.865 133.513L131.042 134.264C128.931 134.663 126.727 135.061 126.14 135.132C124.827 135.32 124.123 135.672 124.968 135.718C125.296 135.718 126.868 135.883 128.486 136.047C131.3 136.352 136.812 136.375 137.117 136.07ZM71.5168 68.4708C76.2075 66.101 79.4441 62.1825 81.3204 56.645C83.6189 49.8639 81.2266 44.1622 76.0433 44.1153C73.3227 44.0918 70.9773 45.7812 69.5936 48.7611C68.2802 51.5768 67.6938 54.4394 67.5765 58.8741C67.4593 62.6752 67.6 64.5758 68.2333 68.2597L68.4912 69.7144L69.359 69.4094C69.8515 69.2452 70.8132 68.8228 71.5168 68.4708Z" fill="black"/>
</g>
<defs>
<clipPath id="clip0_675_1582">
<rect width="144" height="141" fill="white" transform="matrix(1 0 0 -1 0 141)"/>
</clipPath>
</defs>
</svg>
