<svg width="800" height="800" viewBox="0 0 800 800" fill="none" xmlns="http://www.w3.org/2000/svg">
<path d="M366.038 139.498L347.886 134.748C351.738 108.838 352.577 108.389 349.958 107.519C346.921 106.483 347.295 109.314 343.656 133.531C326.225 128.904 325.54 127.947 324.615 130.751C323.689 133.555 326.225 133.385 343.125 137.808C341.301 149.493 339.974 153.439 342.932 153.439C345.756 153.439 345.196 152.526 347.358 139.021C363.013 143.164 364.726 143.696 365.124 143.696C368.007 143.696 368.255 140.616 366.038 139.498Z" fill="#46B8FF"/>
<path d="M574.72 264.531C573.082 262.066 572.672 262.956 554.012 267.288C546.136 244.469 545.844 240.937 543.233 242.299C540.563 243.189 541.35 243.213 549.771 268.186L533.23 272.069C532.67 272.236 532.198 272.613 531.91 273.12C531.627 273.627 531.544 274.226 531.69 274.791C532.95 277.319 533.108 276.456 551.098 272.388C556.048 286.633 555.284 286.322 558.108 286.322C561.503 286.322 558.841 281.202 555.607 271.49L573.239 267.335C573.527 267.255 573.79 267.118 574.023 266.932C574.251 266.745 574.444 266.514 574.582 266.251C574.72 265.989 574.803 265.701 574.826 265.406C574.85 265.11 574.814 264.812 574.72 264.531Z" fill="#46B8FF"/>
<path d="M631.937 81.0096L631.149 56.0328C631.161 55.7441 631.11 55.4562 631.008 55.1864C630.905 54.9167 630.748 54.6709 630.547 54.4633C630.346 54.2562 630.102 54.0916 629.838 53.9797C629.57 53.8683 629.283 53.8116 628.995 53.8135C628.704 53.8151 628.42 53.8758 628.156 53.9908C627.888 54.1058 627.652 54.2735 627.451 54.4834C627.254 54.6933 627.101 54.9411 626.998 55.212C626.9 55.4834 626.853 55.7717 626.868 56.0603L627.656 80.6354L610.611 79.6036C610.06 79.6178 609.532 79.8454 609.142 80.2389C608.752 80.6319 608.532 81.1608 608.524 81.7137C608.516 82.2671 608.721 82.8019 609.099 83.2068C609.477 83.6112 609.997 83.8542 610.548 83.8846L627.983 85.1842C628.534 99.1337 627.983 100.394 630.637 100.394C633.607 100.394 632.768 97.9837 632.272 85.5702C650.226 86.8501 652.538 87.8701 652.538 84.7234C652.538 81.5767 650.278 82.3013 631.937 81.0096Z" fill="#46B8FF"/>
<path d="M754.586 391.896C747.41 383.969 716.424 406.354 716.424 403.262C715.679 396.567 762.561 369.424 754.042 363.749C746.505 359.638 723.843 373.595 716.424 380.259C713.033 383.571 709.413 386.646 705.601 389.463C704.786 388.647 711.556 381.342 712.367 380.53C720.898 370.633 743.645 352.844 736.722 348.055C729.798 343.266 707.472 358.559 693.4 373.764C682.767 385.28 687.126 380.7 681.223 387.025C679.474 382.358 705.022 357.235 708.287 353.466C721.677 338.162 710.256 336.24 694.503 348.055C667.305 369.208 660.188 399.746 651.181 399.746C645.995 399.746 650.851 379.719 649.827 370.515C649.287 365.104 644.959 364.293 640.899 367.81C621.951 383.508 630.072 419.232 634.672 438.987C636.299 446.564 642.793 458.474 643.876 467.406C646.31 486.621 653.348 542.628 650.098 574.307C638.571 575.095 621.38 561.102 622.223 559.425C628.45 553.738 632.506 549.949 633.049 549.677C633.049 549.677 501.789 402.723 441.706 423.293C440.525 422.111 475.383 402.29 472.031 364.021C470.948 351.3 462.016 345.617 459.035 334.523C453.88 315.883 461.63 296.715 439.82 273.901C439.591 273.66 434.224 268.926 432.609 267.658C388.5 265.921 346.879 268.615 309.103 290.406C325.597 323.382 321.028 362.312 314.514 366.455C312.081 367.81 301.518 362.398 298.82 361.855C275.919 357.692 265.301 391.672 286.911 409.761C305.63 425.423 313.66 411.167 322.092 419.232C328.393 425.534 335.293 458.474 334.545 458.474C275.73 471.076 192.076 557.262 190.564 562.398C190.02 563.753 193.809 575.394 199.764 591.356L198.952 591.628C154.843 608.957 102.07 609.221 111.266 526.134L110.994 524.779C107.839 525.551 104.51 525.157 101.625 523.665C98.7391 522.172 96.4923 519.683 95.2998 516.662L84.4733 488.783C86.9072 487.432 92.0506 484.727 92.0506 484.727C92.0506 484.727 95.028 492.304 97.7336 499.342C98.9907 502.606 101.493 505.241 104.691 506.663C107.889 508.081 111.521 508.175 114.787 506.919C125.881 502.859 142.39 496.636 153.776 492.304C155.42 491.674 156.923 490.725 158.196 489.512C159.47 488.295 160.489 486.837 161.194 485.227C161.899 483.612 162.276 481.875 162.304 480.119C162.331 478.358 162.008 476.61 161.353 474.975C142.449 426.243 122.108 374.678 121.84 374.028C121.219 372.409 120.285 370.929 119.092 369.671C117.899 368.413 116.469 367.403 114.885 366.698C113.301 365.993 111.593 365.608 109.86 365.563C108.126 365.519 106.401 365.817 104.783 366.439C93.685 370.5 77.1796 376.726 65.7939 381.054C62.0407 381.054 54.4318 389.589 57.9448 398.383C66.2822 419.547 65.4 417.476 65.7939 417.87C60.6575 423.277 56.451 429.496 53.3449 436.273C48.5677 445.832 45.9684 458.45 55.7827 460.9C53.6127 469.564 58.6931 471.533 63.8995 473.62C62.8283 477.102 64.2934 481.336 69.295 484.833C37.9775 541.253 52.7896 716.162 227.111 657.934C231.566 667.886 236.627 677.558 242.266 686.892C251.47 689.87 292.877 661.455 297.749 665.231C308.571 674.16 302.869 769.695 308.843 772.944C313.175 775.65 556.394 759.889 559.454 755.895C562.605 751.768 557.02 690.126 551.065 631.941C551.065 631.941 567.358 612.663 570.009 610.02C606.564 651.136 658.936 651.636 686.386 631.13C734.768 595.098 691.195 474.936 690.175 469.56C701.812 460.356 714.529 431.937 726.978 419.76C737.056 410.442 758.839 397.217 754.586 391.896Z" fill="#191A1F"/>
<path d="M468.523 551.572L370.01 581.345L406.002 709.896L501.27 687.703L468.523 551.572ZM427.655 596.772L457.696 614.1L451.47 623.844L432.527 612.745L420.078 632.772L410.606 626.549L427.655 596.772ZM446.059 632.764L439.832 643.59L429.01 637.096L435.232 626.27L446.059 632.764ZM409.791 651.439L398.968 644.945L405.191 634.119L416.017 640.613L409.791 651.439ZM449.036 674.171L418.711 656.843L424.666 647.099L443.609 658.198L455.79 638.171L465.262 644.394L449.036 674.171ZM459.862 629.247L466.085 618.421L476.911 624.915L470.685 635.741L459.862 629.247Z" fill="#8AC4FF"/>
<path d="M309.655 290.138C289.46 301.439 269.941 313.909 251.199 327.485C240.653 337.534 234.522 351.354 234.15 365.915C233.114 374.698 238.419 384.425 247.682 382.425C249.844 382.425 253.144 381.582 254.448 384.047C256.704 388.332 256.334 393.795 258.236 398.391C260.484 403.743 264.622 408.079 269.863 410.576C275.104 413.073 281.08 413.549 286.651 411.923L287.463 409.489C265.908 392.078 276.089 357.562 299.372 361.587C302.353 362.099 312.904 367.538 315.07 366.187C320.899 363.005 326.807 324.441 309.655 290.138Z" fill="#8AC4FF"/>
<path d="M285.567 528.568L265.54 520.99C265.044 520.797 264.513 520.707 263.98 520.727C263.448 520.746 262.925 520.872 262.443 521.101C261.961 521.329 261.532 521.652 261.18 522.054C260.828 522.455 260.561 522.92 260.397 523.428C258.538 528.394 263.256 528.729 282.845 536.145C287.142 538.287 291.1 530.643 285.567 528.568Z" fill="#8AC4FF"/>
<path d="M614.392 532.356L594.366 524.779C593.869 524.586 593.338 524.495 592.806 524.515C592.274 524.535 591.751 524.661 591.27 524.889C590.786 525.118 590.356 525.441 590.006 525.842C589.651 526.244 589.388 526.709 589.222 527.217C587.359 532.183 592.081 532.518 611.671 539.938C616.042 542.115 619.886 534.42 614.392 532.356Z" fill="#8AC4FF"/>
<path d="M330.495 666.594C330.752 667.63 331.397 668.524 332.297 669.095C333.197 669.666 334.283 669.867 335.328 669.658C336.373 669.449 337.298 668.847 337.909 667.972C338.521 667.098 338.772 666.027 338.612 664.971L334.279 644.13C334.035 643.082 333.392 642.169 332.487 641.586C331.583 641.007 330.486 640.798 329.431 641.007C328.376 641.219 327.444 641.834 326.833 642.72C326.222 643.606 325.981 644.693 326.159 645.756L330.495 666.594Z" fill="#8AC4FF"/>
<path d="M493.959 470.923C493.789 469.867 493.214 468.922 492.36 468.284C491.501 467.65 490.43 467.37 489.374 467.512C488.315 467.654 487.354 468.201 486.692 469.04C486.035 469.879 485.728 470.942 485.842 472.006C488.118 492.138 487.271 496.632 492.336 496.632C492.919 496.648 493.502 496.533 494.037 496.297C494.573 496.065 495.053 495.718 495.439 495.277C495.825 494.84 496.113 494.324 496.278 493.761C496.444 493.202 496.483 492.611 496.396 492.032L493.959 470.923Z" fill="#8AC4FF"/>
<path d="M520.209 578.368L512.36 598.122C512.124 598.749 512.037 599.418 512.112 600.084C512.187 600.745 512.419 601.383 512.789 601.939C513.16 602.494 513.66 602.955 514.243 603.278C514.83 603.604 515.479 603.786 516.149 603.805C519.973 603.805 519.922 601.99 527.787 581.613C528.177 580.616 528.165 579.506 527.751 578.513C527.338 577.525 526.558 576.737 525.573 576.316C524.585 575.894 523.474 575.871 522.474 576.253C521.473 576.639 520.662 577.395 520.209 578.368Z" fill="#8AC4FF"/>
<path d="M513.443 711.79C512.927 710.88 512.076 710.211 511.072 709.923C510.068 709.632 508.993 709.75 508.071 710.242C507.154 710.739 506.464 711.573 506.149 712.57C505.838 713.57 505.933 714.649 506.405 715.579C517.37 735.125 517.11 736.42 520.209 736.42C520.898 736.397 521.572 736.204 522.166 735.849C522.757 735.499 523.253 735.002 523.604 734.408C523.954 733.817 524.151 733.144 524.171 732.454C524.191 731.765 524.041 731.08 523.726 730.466L513.443 711.79Z" fill="#8AC4FF"/>
<path d="M339.965 747.247L321.289 757.514C320.36 758.018 319.669 758.873 319.365 759.885C319.06 760.901 319.169 761.992 319.667 762.925C322.459 767.695 325.574 764.477 343.753 754.261C344.617 753.725 345.243 752.879 345.504 751.894C345.765 750.913 345.641 749.866 345.158 748.972C344.674 748.078 343.868 747.4 342.903 747.081C341.938 746.758 340.887 746.818 339.965 747.247Z" fill="#8AC4FF"/>
<path d="M418.179 530.734L397.07 533.439C396.005 533.609 395.047 534.184 394.391 535.038C393.736 535.897 393.435 536.972 393.549 538.043C394.266 543.762 400.811 541.194 419.263 538.854C420.338 538.709 421.314 538.146 421.976 537.283C422.634 536.421 422.925 535.33 422.779 534.251C422.638 533.175 422.071 532.199 421.208 531.541C420.346 530.879 419.255 530.592 418.179 530.734Z" fill="#8AC4FF"/>
<path d="M237.125 613.277L222.777 628.975C222.411 629.361 222.127 629.818 221.942 630.314C221.757 630.814 221.675 631.342 221.7 631.874C221.725 632.405 221.858 632.925 222.09 633.406C222.322 633.882 222.648 634.308 223.049 634.658C226.838 638.447 229.193 633.217 243.075 618.692C246.604 615.002 240.799 608.996 237.125 613.277Z" fill="#8AC4FF"/>
<path d="M175.15 486.349C178.584 495.163 171.262 503.678 167.3 503.678C136.834 515.311 111.408 524.318 111.006 524.519C107.85 525.295 104.521 524.897 101.635 523.405C98.7485 521.912 96.5021 519.423 95.312 516.398L84.4855 488.527C84.8794 488.527 91.3933 484.463 91.7911 484.195C92.1849 484.589 91.4406 483.013 97.7458 499.082C98.3665 500.7 99.3003 502.177 100.493 503.437C101.687 504.694 103.116 505.702 104.699 506.407C106.283 507.108 107.989 507.494 109.722 507.537C111.454 507.581 113.178 507.281 114.795 506.659C125.873 502.283 142.41 496.392 153.784 492.044C155.45 491.437 156.979 490.508 158.279 489.303C159.579 488.098 160.626 486.648 161.358 485.034C162.089 483.419 162.49 481.674 162.537 479.902C162.585 478.13 162.277 476.365 161.633 474.715L122.104 373.764C120.834 370.51 118.33 367.889 115.138 366.47C111.945 365.051 108.322 364.95 105.055 366.187C94.0281 370.409 77.4399 376.45 66.066 380.802C64.4001 381.407 62.872 382.339 61.5712 383.543C60.2708 384.747 59.224 386.199 58.4926 387.814C57.7613 389.428 57.3604 391.172 57.3127 392.944C57.2655 394.716 57.573 396.479 58.2169 398.131C58.2169 398.525 65.5777 417.401 66.066 417.885C58.5005 426.396 60.3161 425.703 59.3 425.195C59.3 425.195 49.9701 400.777 43.8736 385.138C42.6246 381.832 42.718 378.169 44.1339 374.931C45.5497 371.693 48.1758 369.137 51.4509 367.81C51.8644 367.81 61.7693 364.442 106.119 347.512C109.387 346.279 113.008 346.384 116.2 347.802C119.391 349.22 121.896 351.838 123.172 355.089C134.404 384.055 163.638 456.8 175.15 486.349Z" fill="#8AC4FF"/>
<path d="M450.117 339.934C447.25 339.942 444.501 341.086 442.469 343.114C440.441 345.143 439.299 347.892 439.291 350.761C439.291 365.072 460.952 365.072 460.952 350.761C460.944 347.89 459.798 345.14 457.77 343.112C455.737 341.083 452.988 339.94 450.117 339.934Z" fill="#8AC4FF" fill-opacity="0.28"/>
<path d="M344.295 355.36C341.427 355.37 338.679 356.514 336.651 358.542C334.624 360.57 333.481 363.319 333.473 366.187C333.473 380.499 355.133 380.499 355.133 366.187C355.125 363.316 353.98 360.565 351.949 358.536C349.918 356.508 347.166 355.365 344.295 355.36Z" fill="#8AC4FF" fill-opacity="0.28"/>
<path d="M300.517 388.935C298.979 388.581 297.42 388.33 295.85 388.183C295.157 388.183 291.285 389.191 291.285 386.47C291.285 378.884 321.744 391.589 316.412 396.583C313.517 399.281 312.674 391.975 300.517 388.935Z" fill="#46B8FF"/>
<path d="M666.36 439.605C659.07 439.605 672.299 422.651 693.097 419.185C693.605 419.118 694.117 419.248 694.531 419.551C694.944 419.854 695.22 420.307 695.302 420.811C695.389 421.319 695.271 421.835 694.98 422.257C694.688 422.678 694.247 422.97 693.743 423.068C678.777 425.565 668.518 436.198 668.313 437.876C668.254 438.353 668.022 438.794 667.663 439.109C667.305 439.428 666.84 439.605 666.36 439.605Z" fill="#46B8FF"/>
<path d="M386.251 577.899C384.215 577.899 386.251 577.829 322.549 463.22C322.295 462.763 322.233 462.223 322.376 461.723C322.52 461.219 322.856 460.794 323.313 460.542C323.769 460.289 324.308 460.226 324.81 460.368C325.312 460.514 325.737 460.849 325.991 461.306C388.252 573.559 391.17 577.899 386.251 577.899Z" fill="#46B8FF"/>
<path d="M452.222 553.139C448.346 517.414 440.249 444.93 437.346 426.301C437.272 425.789 437.406 425.266 437.713 424.852C438.02 424.435 438.481 424.155 438.993 424.076C439.505 423.998 440.028 424.12 440.446 424.423C440.867 424.726 441.151 425.183 441.238 425.695C444.88 449.069 455.675 548.492 456.136 552.714C456.183 553.229 456.026 553.741 455.699 554.139C455.372 554.537 454.9 554.793 454.388 554.848C453.876 554.907 453.36 554.758 452.954 554.439C452.548 554.116 452.285 553.651 452.222 553.139Z" fill="#46B8FF"/>
<path d="M332.93 301.233C332.429 301.089 332.005 300.752 331.751 300.295C331.498 299.839 331.436 299.3 331.58 298.799C332.509 295.554 334.88 299.161 344.698 298.456C367.182 296.459 369.261 280.32 373.424 283.746C373.823 284.078 374.074 284.554 374.125 285.07C374.175 285.586 374.019 286.101 373.692 286.503C361.783 300.984 346.4 305.084 332.93 301.233Z" fill="#46B8FF"/>
<path d="M413.277 289.618C413.415 289.4 413.596 289.211 413.809 289.063C414.022 288.915 414.262 288.811 414.514 288.755C414.766 288.699 415.026 288.694 415.282 288.739C415.538 288.785 415.782 288.88 415.999 289.02C421.938 292.82 435.584 294.423 442.386 293.86C442.909 293.817 443.425 293.982 443.827 294.321C444.225 294.66 444.473 295.143 444.516 295.666C444.559 296.188 444.394 296.706 444.055 297.106C443.717 297.506 443.236 297.755 442.712 297.798C435.694 298.365 409.69 295.223 413.277 289.618Z" fill="#46B8FF"/>
<path d="M353.145 345.467C343.547 345.467 329.909 335.586 333.453 332.046C333.708 331.791 334.028 331.611 334.378 331.525C334.728 331.44 335.095 331.452 335.438 331.56C335.782 331.669 336.089 331.869 336.326 332.14C336.564 332.411 336.723 332.742 336.785 333.097C347.107 348.429 372.565 339.528 373.754 329.159C373.828 328.652 374.096 328.195 374.502 327.883C374.907 327.571 375.419 327.429 375.927 327.487C376.436 327.546 376.901 327.8 377.226 328.196C377.55 328.591 377.707 329.098 377.665 329.608C376.55 339.209 362.967 345.467 353.145 345.467Z" fill="#46B8FF"/>
<path d="M435.11 336.079C432.038 335.925 429.061 334.953 426.489 333.264C423.917 331.574 421.842 329.228 420.479 326.469C419.364 324.24 423.122 321.428 424.614 326.142C426.812 329.199 430.088 331.31 433.779 332.05C439.938 332.995 447.252 327.761 447.067 324.051C447.043 323.529 447.224 323.018 447.575 322.631C447.925 322.243 448.417 322.011 448.941 321.986C449.461 321.96 449.973 322.143 450.359 322.494C450.749 322.845 450.981 323.336 451.005 323.858C451.328 330.49 442.333 336.079 435.11 336.079Z" fill="#46B8FF"/>
<path d="M392.474 382.133C392.91 381.847 393.442 381.745 393.953 381.851C394.464 381.956 394.912 382.26 395.199 382.696C396.32 384.632 397.816 386.324 399.602 387.674C401.386 389.022 403.422 390.001 405.589 390.551C407.759 391.102 410.011 391.213 412.225 390.879C414.438 390.544 416.557 389.771 418.467 388.604C428.313 381.058 426.737 373.095 430.55 374.627C435.169 376.474 424.867 388.659 420.731 391.821C404.754 402.191 388.185 384.949 392.474 382.133Z" fill="#46B8FF"/>
<path d="M103.696 492.107C101.648 492.107 101.892 490.78 100.589 484.183C96.485 463.467 96.5795 462.849 98.7771 462.487C99.2919 462.4 99.82 462.522 100.245 462.825C100.669 463.133 100.956 463.589 101.042 464.105C105.244 489.708 107.217 492.107 103.696 492.107Z" fill="#46B8FF"/>
<path d="M125.926 398.34C122.258 394.886 118.341 391.707 114.206 388.828C112.075 387.253 110.295 384.914 107.042 388.683C104.234 391.94 98.882 406.539 98.0589 408.804C97.8805 409.296 97.9042 409.835 98.1251 410.308C98.3456 410.785 98.7458 411.151 99.2365 411.328C99.7276 411.505 100.269 411.482 100.742 411.261C101.216 411.041 101.583 410.643 101.761 410.151C103.945 403.924 106.518 397.837 109.464 391.932C112.221 403.404 120.937 443.228 119.535 447.301C116.313 447.84 105.282 433.028 98.7403 435.112C93.7228 436.707 94.7074 449.782 95.5305 454.98C95.612 455.496 95.8944 455.957 96.3162 456.264C96.7376 456.571 97.2638 456.698 97.7793 456.619C101.391 456.048 97.4209 451.826 99.394 439.952C100.989 432.863 117.29 458.139 122.689 449.49C125.525 444.953 117.03 407.055 113.852 393.464C124.351 401.262 122.91 401.703 124.536 401.703C124.926 401.703 125.307 401.589 125.631 401.372C125.954 401.155 126.207 400.844 126.356 400.486C126.505 400.128 126.543 399.73 126.467 399.348C126.39 398.965 126.203 398.615 125.926 398.34Z" fill="#FF468D"/>
<path d="M70.8019 367.317C94.7862 358.362 94.8807 357.61 95.8023 360.083C96.7239 362.556 95.8811 362.162 72.1724 371.008C71.6872 371.171 71.1579 371.139 70.6955 370.919C70.2336 370.698 69.8756 370.307 69.6976 369.827C69.5191 369.347 69.5349 368.817 69.7409 368.349C69.9472 367.88 70.3277 367.51 70.8019 367.317Z" fill="#46B8FF"/>
<path d="M422.515 368.408C422.232 368.411 421.956 368.352 421.696 368.238C421.44 368.123 421.208 367.954 421.023 367.743C420.838 367.532 420.696 367.282 420.613 367.013C420.53 366.743 420.511 366.459 420.546 366.179C420.991 362.859 425.044 350.198 422.417 348.272C419.199 346.129 413.524 348.614 408.66 343.747C405.419 340.816 403.218 336.907 402.398 332.613C402.308 328.517 400.902 325.307 403.552 324.736C403.926 324.693 404.308 324.747 404.655 324.89C405.006 325.034 405.313 325.264 405.549 325.559C405.785 325.854 405.943 326.203 406.006 326.575C406.069 326.947 406.037 327.329 405.915 327.686C408.003 357.267 433.783 328.336 425.308 362.832C424.516 366.12 424.61 368.408 422.515 368.408Z" fill="#46B8FF"/>
<path d="M435.232 212.451C422.854 213.693 410.826 217.275 399.787 223.006C383.817 197.296 340.283 193.626 311.017 202.979C271.555 215.582 216.836 258.191 250.395 328.285C251.876 326.8 301.286 291.576 331.855 279.843C364.472 267.324 397.968 266.953 433.617 267.666C440.017 267.792 455.991 271.604 464.198 252.512C477.065 222.541 462.28 209.607 435.232 212.451Z" fill="#FAFEFF"/>
<path d="M722.027 398.773C739.683 382.472 757.925 372.189 757.216 364.994C756.145 354.014 731.129 366.569 721.098 373.792C728.151 366.806 745.98 351.316 737.789 345.854C730.503 340.998 712.3 353.431 705.53 358.984C709.523 354.739 717.983 345.893 715.876 340.797C715.454 339.902 714.773 339.155 713.922 338.651C713.068 338.147 712.087 337.91 711.099 337.969C694.778 337.327 673.515 365.782 663.925 380.503C661.901 383.425 655.324 397.221 651.429 397.331C649.393 395.39 652.496 375.998 651.823 369.791C651.13 362.875 645.057 361.241 639.689 365.754C619.698 382.551 627.275 426.404 636.826 450.7C639.386 456.323 641.162 462.266 642.115 468.371C644.663 488.397 651.331 540.942 648.357 571.838C640.154 571.59 631.174 564.958 624.538 559.472C634.66 550.221 636.247 549.732 634.553 547.838C629.382 542.049 512.162 411.761 449.275 419.13C461.693 408.067 476.56 389.175 474.288 363.324C473.141 349.827 464.158 344.373 461.228 333.456C456.53 316.828 462.437 292.891 441.513 271.979C441.454 271.92 434.928 265.989 433.353 265.989C432.908 265.989 432.474 266.141 432.128 266.419C431.781 266.697 431.537 267.085 431.439 267.519C431.336 267.953 431.387 268.408 431.58 268.81C431.773 269.212 432.096 269.536 432.498 269.73C458.845 287.815 452.706 317.777 457.432 334.503C460.547 346.118 469.325 351.474 470.365 363.647C473.319 397.261 445.101 423.572 413.96 435.797C395.533 443.032 389.283 439.436 388.901 443.11C388.854 443.563 388.965 444.016 389.214 444.398C389.464 444.776 389.838 445.06 390.271 445.194C398.994 447.868 408.206 448.541 417.225 447.163C421.234 455.339 424.448 461.424 427.032 467.398C395.131 508.908 347.682 478.524 340.389 473.483C337.514 457.773 331.724 425.242 324.005 417.559C316.975 410.832 308.918 417.165 302.037 415.196C266.616 405.058 273.591 358.484 298.985 363.552C302.006 364.155 312.316 369.996 316.125 367.885C321.934 364.19 329.669 330.723 312.817 292.1C312.608 291.62 312.217 291.243 311.73 291.052C311.244 290.861 310.7 290.871 310.221 291.08C309.742 291.288 309.365 291.679 309.174 292.166C308.983 292.653 308.992 293.196 309.201 293.675C324.627 329.277 318.259 361.067 314.222 364.466C312.253 364.951 302.148 360.185 299.722 359.697C269.397 353.612 260.472 407.421 300.998 419.012C317.539 423.738 321.642 401.368 332.985 456.426C272.602 470.604 190.985 555.723 189.236 561.276C188.897 562.351 188.291 564.119 197.822 589.829C139.117 612.576 106.114 592.747 113.494 526.118C113.552 525.595 113.399 525.071 113.071 524.661C112.742 524.252 112.264 523.992 111.742 523.933C111.22 523.873 110.696 524.027 110.286 524.358C109.876 524.685 109.613 525.161 109.556 525.685C101.805 595.689 138.191 617.137 199.184 593.515C204.67 608.067 214.646 633.591 225.236 656.134C162.558 676.759 114.176 668.977 85.2959 633.615C50.7096 591.262 53.2105 520.896 70.0783 489.299C71.5433 491.619 73.746 493.379 76.3323 494.297C78.4393 494.297 104.212 481.785 101.766 473.628C100.703 470.23 97.1897 469.761 93.6609 470.056C114.625 456.457 104.826 447.364 81.6451 456.698C86.1348 451.621 99.1706 436.325 97.6307 429.752C96.3547 424.281 88.5135 424.675 81.4049 428.869C83.9963 424.931 94.4368 412.848 87.9897 406.071C75.84 393.267 31.3174 449.656 53.8839 462.172C53.3774 464.818 53.9217 467.559 55.4021 469.808C56.8821 472.061 59.1813 473.648 61.8117 474.231C61.2958 477.283 62.241 481.285 67.7192 485.471C35.1533 541.545 50.6978 718.013 226.934 659.726C228.115 662.246 239.958 687.16 242.462 687.975C252.056 691.102 292.318 664.633 297.296 665.972C307.224 674.16 301.281 769.853 308.599 773.839C313.384 776.832 557.87 761.519 561.832 756.282C563.014 754.738 566.011 750.583 554.027 633.075C555.441 632.134 552.912 632.047 569.78 613.47C578.881 623.552 589.96 631.653 602.326 637.269C614.693 642.889 628.083 645.902 641.662 646.123C757.586 646.123 693.896 488.59 692.368 470.005C703.876 460.002 716.841 431.933 728.6 420.674C738.73 410.919 762.911 397.174 756.031 390.349C749.556 383.122 730.199 394.878 722.027 398.773ZM97.7765 474.318C100.364 477.338 81.6884 488.129 76.5726 490.122C73.095 487.889 73.0753 486.42 73.1738 484.888C76.5726 477.019 94.7952 472.514 97.7765 474.318ZM85.1738 408.76C89.0688 412.86 80.7432 422.749 77.5059 427.664C67.7428 442.449 59.6378 445.351 54.9945 458.202C39.4658 447.466 77.951 401.152 85.1738 408.76ZM63.261 470.529C62.2233 470.364 61.2379 469.962 60.3837 469.351C59.5291 468.737 58.8292 467.938 58.3393 467.008C57.8498 466.075 57.5836 465.047 57.5619 463.995C57.5406 462.944 57.7647 461.904 58.2161 460.955C64.9939 439.294 104.94 415.664 90.6875 438.447C75.3241 461.861 67.798 462.322 63.261 470.529ZM101.4 457.769C101.774 462.558 75.9936 475.2 74.946 476.948C72.8823 478.268 71.2003 480.107 70.0665 482.277C51.2531 467.768 100.97 452.165 101.4 457.769ZM553.4 626.805C549.135 586.288 544.709 548.338 543.007 533.755C542.936 533.247 542.669 532.782 542.263 532.467C541.853 532.156 541.341 532.01 540.829 532.069C540.317 532.132 539.849 532.388 539.526 532.79C539.203 533.188 539.049 533.7 539.097 534.212C540.888 549.595 562.817 737.878 558.812 753.576C545.197 757.475 324.718 772.405 310.698 770.361C306.074 761.61 311.296 672.376 299.761 662.845C293.542 658.013 254.297 685.313 244.306 684.301C224.85 652.483 193.446 569.586 192.954 562.497C195.683 556.695 275.879 473.829 333.772 460.215C337.108 476.24 336.313 475.944 337.935 476.531C368.615 497.451 406.789 501.075 430.801 468.887C431.84 467.493 432.073 467.705 418.415 440.448C416.394 436.407 418.738 440.917 442.379 424.648C498.268 413.018 591.724 506.746 630.237 548.902C615.85 561.673 565.404 609.591 553.4 626.805ZM749.607 398.155C732.468 414.955 730.388 406.85 707.523 442.973C701.544 452.425 695.365 462.18 689.737 467.048C680.75 469.93 736.879 589.651 685.464 629.031C664.674 644.807 616.398 651.589 578.531 616.282C584.86 610.426 605.264 582.283 615.783 567.691C617.91 565.671 619.974 563.717 621.947 561.859C623.357 564.438 637.594 575.269 647.971 575.753C646.892 585.362 643.722 588.206 646.825 589.179C647.325 589.332 647.865 589.285 648.326 589.045C648.787 588.801 649.133 588.383 649.291 587.887C657.675 561.063 649.747 497.491 646.006 467.863C645.037 461.431 643.174 455.166 640.473 449.246C631.718 426.971 623.885 384.158 642.206 368.755C655.773 357.354 639.937 401.171 651.201 401.171C661.558 401.171 669.864 368.404 696.023 348.831C700.056 345.814 705.581 341.671 710.878 341.9C721.382 342.62 667.852 385.835 680.86 388.415C682.53 388.746 682.983 387.462 686.768 383.48C697.696 371.957 708.31 358.669 723.957 351.765C761.631 335.161 698.338 384.705 704.214 390.581C707.956 394.334 720.015 373.477 744.535 366.034C777.581 356.003 705.939 398.871 715.439 404.743C719.531 407.268 747.532 386.489 753.294 393.224C753.278 394.571 750.513 397.268 749.607 398.155Z" fill="#8AC4FF"/>
<path d="M349.471 271.376C357.273 248.25 377.41 232.139 399.24 221.222C401.571 219.504 404.415 223.325 400.89 224.786C401.118 225.412 364.476 239.216 353.201 272.632C353.02 273.108 352.662 273.496 352.201 273.714C351.741 273.932 351.214 273.962 350.731 273.8C350.249 273.637 349.848 273.294 349.613 272.842C349.378 272.39 349.327 271.864 349.471 271.376Z" fill="#191A1F"/>
<path d="M397.341 33.8682C211.712 33.8682 60.6895 158.319 60.6895 311.248C60.6895 311.816 60.9151 312.361 61.3168 312.763C61.7189 313.165 62.2636 313.39 62.8319 313.39C63.4002 313.39 63.9449 313.165 64.347 312.763C64.7487 312.361 64.9743 311.816 64.9743 311.248C64.9743 160.662 214.075 38.1491 397.341 38.1491C580.606 38.1491 729.707 160.662 729.707 311.248C729.707 311.816 729.932 312.361 730.333 312.763C730.735 313.165 731.283 313.39 731.85 313.39C732.417 313.39 732.964 313.165 733.366 312.763C733.768 312.361 733.992 311.816 733.992 311.248C733.992 158.299 582.973 33.8682 397.341 33.8682Z" fill="#8AC4FF"/>
<path d="M397.614 62.8267C228.4 62.8267 90.752 177.794 90.752 319.097C90.752 319.665 90.9776 320.21 91.3793 320.612C91.781 321.014 92.3261 321.239 92.8944 321.239C93.4627 321.239 94.0074 321.014 94.4095 320.612C94.8112 320.21 95.0368 319.665 95.0368 319.097C95.0368 180.295 230.783 67.3794 397.634 67.3794C564.484 67.3794 700.23 180.295 700.23 319.097C700.23 319.665 700.455 320.21 700.856 320.612C701.258 321.014 701.806 321.239 702.373 321.239C702.94 321.239 703.487 321.014 703.889 320.612C704.291 320.21 704.515 319.665 704.515 319.097C704.224 177.794 566.56 62.8267 397.614 62.8267Z" fill="#8AC4FF"/>
<path d="M606.768 174.198C440.587 7.65853 118.066 107.007 118.066 327.485C118.066 328.054 118.292 328.598 118.694 329C119.096 329.402 119.641 329.628 120.209 329.628C120.777 329.628 121.322 329.402 121.724 329C122.126 328.598 122.351 328.054 122.351 327.485C122.351 199.281 244.861 94.9828 395.446 94.9828C546.032 94.9828 668.545 199.281 668.545 327.485C668.545 328.054 668.769 328.598 669.171 329C669.573 329.402 670.12 329.628 670.687 329.628C671.254 329.628 671.802 329.402 672.203 329C672.605 328.598 672.83 328.054 672.83 327.485C672.944 271.443 649.483 217.004 606.768 174.198Z" fill="#8AC4FF"/>
<path d="M698.826 131.542C658.371 104.927 622.379 153.833 633.332 196.225C635.254 204.398 638.743 212.119 643.615 218.957C673.384 262.094 715.895 231.083 723.452 211.923C733.05 187.612 726.422 149.698 698.826 131.542Z" fill="#8AC4FF"/>
<path d="M699.646 130.459C672.712 112.8 638.496 126.915 636.586 163.206C634.762 164.702 633.049 166.33 631.466 168.078C631.277 168.244 631.143 168.463 631.084 168.706C631.021 168.95 631.037 169.206 631.123 169.441C631.21 169.676 631.367 169.879 631.576 170.022C631.781 170.166 632.025 170.243 632.277 170.244C633.297 170.244 633.333 169.13 636.334 166.727C636.235 169.804 636.416 172.883 636.877 175.927C634.959 177.612 633.151 179.42 631.466 181.338C630.45 182.398 629.686 183.079 630.651 184.048C632.584 185.978 633.451 182.622 637.417 179.444C639.496 192.964 641.083 187.963 636.334 192.708C634.68 194.362 632.478 195.347 633.9 196.765C634.231 196.951 634.605 197.048 634.983 197.048C635.361 197.048 635.735 196.951 636.066 196.765C639.181 193.65 637.811 195.56 640.938 192.433C642.021 195.41 643.1 198.387 644.455 201.365C642.832 202.987 640.666 204.882 639.311 205.965C635.704 209.572 639.847 209.49 640.394 208.942C640.788 208.548 645.675 204.405 646.077 204.07C647.361 206.685 648.806 209.215 650.409 211.648C649.326 212.459 647.365 214.286 643.915 217.602C642.899 218.579 643.95 220.036 644.994 220.036C645.908 220.036 648.771 216.693 652.032 214.086C654.222 217.089 656.667 219.896 659.341 222.474C658.711 222.892 653.635 227.637 653.115 228.157C652.906 228.337 652.756 228.574 652.682 228.839C652.611 229.104 652.619 229.385 652.705 229.646C652.792 229.907 652.953 230.136 653.17 230.305C653.391 230.473 653.65 230.573 653.926 230.591C654.714 230.591 654.103 230.725 657.987 227.614C662.866 222.738 659.07 224.68 671.771 231.946C667.312 236.404 665.469 236.672 666.355 238.44C666.462 238.585 666.592 238.707 666.745 238.799C666.899 238.891 667.068 238.952 667.246 238.978C667.423 239.003 667.6 238.992 667.773 238.947C667.947 238.901 668.108 238.821 668.25 238.712C672.46 235.148 674.138 233.513 674.138 233.513C677.477 235.09 681.085 236.025 684.771 236.27C683.511 237.632 682.156 238.9 680.711 240.063C680.478 240.231 680.309 240.469 680.222 240.741C680.136 241.014 680.14 241.306 680.23 241.577C680.321 241.849 680.494 242.083 680.726 242.249C680.959 242.414 681.238 242.501 681.526 242.497C682.467 242.497 683.975 240.858 685.315 239.519C686.791 238.042 688.02 237.432 688.02 236.814C742.337 236.821 740.227 157.067 699.646 130.459ZM722.378 211.112C712.851 236.648 676.024 243.962 653.906 213.274C617.493 162.754 653.288 103.529 698.016 132.897C724.69 150.407 731.306 187.191 722.378 211.112Z" fill="#191A1F"/>
<path d="M683.947 176.738L690.441 173.761L690.713 169.161L684.219 172.138V148.863L672.309 153.195L671.498 179.176L665.271 182.154L665.815 186.754L672.038 183.776V202.72L707.494 191.354L708.034 182.965L683.947 189.999V176.738Z" fill="#191A1F"/>
<path d="M558.373 91.2178C547.779 66.0637 515.098 41.5595 480.701 47.6442C441.44 54.5914 443.992 93.6516 445.516 93.6516C449.876 138.332 496.612 166.881 533.735 153.463C559.708 144.082 564.898 106.711 558.373 91.2178Z" fill="#8AC4FF"/>
<path d="M559.728 90.6782C548.969 64.2914 515.351 40.1023 480.702 46.2933C447.573 52.2008 431.024 86.6414 456.072 117.471C455.745 119.891 455.654 122.338 455.804 124.776C455.792 124.956 455.82 125.137 455.883 125.306C455.95 125.475 456.048 125.629 456.174 125.757C456.304 125.885 456.458 125.984 456.623 126.049C456.793 126.113 456.974 126.141 457.155 126.131C459.23 126.131 458.147 123.965 458.781 120.176C468.032 130.581 465.815 122.76 465.815 136.686C465.807 136.866 465.835 137.046 465.898 137.215C465.965 137.383 466.063 137.536 466.189 137.664C466.319 137.791 466.473 137.89 466.642 137.955C466.808 138.019 466.989 138.047 467.17 138.036C469.372 138.036 468.107 135.543 468.793 129.372C471.703 132.063 474.94 134.373 478.434 136.245C477.831 138.958 477.595 141.739 477.725 144.515C477.713 144.699 477.74 144.882 477.807 145.055C477.87 145.228 477.969 145.386 478.095 145.52C478.221 145.654 478.375 145.76 478.544 145.832C478.713 145.905 478.894 145.943 479.076 145.943C479.261 145.943 479.442 145.905 479.611 145.832C479.78 145.76 479.934 145.654 480.06 145.52C480.186 145.386 480.285 145.228 480.348 145.055C480.411 144.882 480.442 144.699 480.43 144.515C480.43 144.011 480.974 138.702 480.974 137.477C493.915 144.539 489.638 138.403 489.638 151.009C489.626 151.19 489.654 151.37 489.721 151.539C489.784 151.708 489.882 151.861 490.012 151.988C490.138 152.116 490.292 152.216 490.461 152.281C490.627 152.345 490.808 152.373 490.989 152.364C493.021 152.364 492.001 150.58 492.883 142.621C495.861 143.7 499.11 144.515 502.087 145.326C501.638 148.465 501.366 151.628 501.276 154.798C501.264 154.978 501.292 155.159 501.355 155.328C501.422 155.497 501.52 155.651 501.646 155.779C501.776 155.907 501.93 156.006 502.095 156.07C502.264 156.135 502.446 156.163 502.627 156.153C504.726 156.153 503.56 154.223 504.793 145.598C508.806 146.369 512.886 146.731 516.97 146.677C516.97 147.76 516.702 149.115 516.702 150.738C516.702 154.676 515.737 156.078 517.514 156.964C518.368 156.964 519.136 156.452 519.136 155.881C519.136 155.424 519.676 147.102 519.676 146.677C524.256 146.509 528.801 145.782 533.208 144.515C533.208 146.409 532.668 149.926 532.668 152.092C532.668 154.258 535.374 154.03 535.374 152.632C535.917 147.76 536.185 145.055 536.185 143.968C547.606 139.895 546.74 136.418 546.74 140.179C546.74 143.806 545.751 145.535 547.555 146.134C550.729 146.134 548.736 140.159 549.717 137.202C549.713 135.354 572.189 121.243 559.728 90.6782ZM517.51 144.535C506.27 144.29 495.207 141.682 485.042 136.879C474.877 132.076 465.835 125.187 458.51 116.659C437.117 91.7927 443.544 55.2609 480.958 48.999C514.993 43.3002 545.881 66.5914 557.007 92.029C566.246 113.123 552.663 142.581 517.51 144.535Z" fill="#191A1F"/>
<path d="M519.404 79.8516L477.725 67.6704L483.408 111.244L510.472 105.289L519.404 79.8516Z" fill="#191A1F"/>
<path d="M516.698 113.138L488.818 118.01L528.603 126.67L525.358 87.429L516.698 113.138Z" fill="#191A1F"/>
<path d="M200.856 114.781C203.522 123.505 208.637 131.28 215.594 137.181C222.55 143.082 231.055 146.86 240.097 148.068C265.058 149.316 280.812 134.807 282.048 134.807C329.056 100.315 320.817 22.258 263.641 26.8068C215.321 30.6506 182.763 82.7545 200.856 114.781Z" fill="#8AC4FF"/>
<path d="M263.917 25.1801C208.048 29.7131 167.007 109.354 219.012 134.567C219.738 137.31 220.635 140.005 221.698 142.636C221.841 142.959 222.107 143.212 222.436 143.339C222.765 143.466 223.132 143.457 223.455 143.314C223.777 143.171 224.03 142.905 224.157 142.576C224.284 142.247 224.275 141.88 224.132 141.557C223.711 139.735 223.151 137.947 222.458 136.209C226.234 137.937 230.342 138.815 234.494 138.781C234.836 140.108 235.648 142.542 237.392 147.24C238.29 149.032 240.271 147.481 239.83 146.157C239.023 144.141 237.916 140.774 237.29 138.848C242.2 139.005 247.114 138.69 251.964 137.907C251.964 137.907 253.024 140.797 254.985 146.701C255.146 147.035 255.427 147.296 255.773 147.429C256.119 147.564 256.502 147.561 256.846 147.423C257.19 147.285 257.469 147.021 257.625 146.685C257.782 146.349 257.805 145.966 257.69 145.614C257.557 145.22 255.28 138.741 254.512 136.784C258.619 135.684 262.614 134.203 266.445 132.361C266.973 133.905 269.1 140.053 269.596 141.557C270.226 142.818 273.219 142.955 272.573 141.014C270.573 135.166 269.631 132.401 268.986 131.133C272.009 129.617 274.921 127.891 277.701 125.966C278.599 129.018 279.414 130.959 280.422 133.98C281.147 136.154 283.297 134.492 282.856 133.169C282.623 132.646 282.442 132.101 282.317 131.542C279.651 120.877 277.437 127.549 288.185 117.482C288.949 119.68 290.461 122.996 290.705 123.965C291.414 126.096 294.388 125.115 291.788 119.905C291.355 118.432 290.79 117.002 290.099 115.631C293.071 112.676 295.835 109.518 298.369 106.179C298.996 108.684 300.252 112.997 300.453 113.402C301.177 115.576 303.58 113.855 303.158 112.591C299.886 99.1417 299.393 106.609 305.868 94.3724C306.419 96.0659 307.049 98.1453 307.219 98.7873C308.377 101.107 310.007 99.0314 309.653 97.976C309.084 95.6429 308.378 93.3453 307.538 91.0957C324.807 55.4461 300.693 22.2539 263.917 25.1801ZM304.513 90.6783C280.182 139.379 221.182 151.372 201.94 114.493C186.738 84.0934 219.138 31.5956 264.185 28.1614C294.589 23.081 322.657 54.3867 304.513 90.6783Z" fill="#191A1F"/>
<path d="M275.822 63.8817L269.599 99.6062L278.531 101.233L275.282 108.538L261.75 106.104L264.999 85.2629L248.758 99.878L238.203 79.0403L233.875 101.772L221.154 99.0667L219.26 90.6781L228.731 91.7572L234.686 57.3875L251.196 87.4289L275.822 63.8817Z" fill="#191A1F"/>
<path d="M176.503 217.335C173.257 189.731 148.359 156.712 113.174 153.195C47.5187 146.157 47.8731 250.472 117.506 269.84C155.267 279.796 178.972 241.291 176.503 217.335Z" fill="#8AC4FF"/>
<path d="M113.175 151.84C74.8593 147.862 54.3249 182.673 69.3338 214.357C68.2819 216.613 67.4651 218.972 66.896 221.395C66.4037 222.88 68.9557 223.88 69.6016 221.934C70.2873 220.595 70.7173 219.139 70.8698 217.642C72.4132 220.72 74.1602 223.692 76.0998 226.538C75.5485 227.633 73.2643 235.325 73.1225 235.466C73.0417 235.681 73.015 235.913 73.0449 236.141C73.0748 236.369 73.1599 236.586 73.2934 236.773C73.4269 236.96 73.6045 237.112 73.8101 237.214C74.0157 237.317 74.2437 237.367 74.4733 237.361C75.5997 237.361 75.2846 237.361 77.9942 229.244C80.4281 232.489 82.8659 235.466 85.5715 238.444C85.2998 238.715 85.028 238.716 85.028 238.987C81.9798 246.608 81.7001 246.931 83.1337 247.652C85.3982 247.652 84.5987 247.514 87.4658 240.342C89.9513 242.83 92.5715 245.179 95.3149 247.38C92.9519 255.209 90.6992 256.938 92.8771 257.663C93.5505 257.663 94.3382 257.722 94.7714 256.851C95.8899 253.496 96.7642 251.964 97.7488 249.002C100.382 250.97 103.19 252.692 106.137 254.146C102.841 262.393 101.211 264.972 103.975 264.972C104.254 264.977 104.528 264.904 104.767 264.761C105.006 264.617 105.2 264.409 105.326 264.161C105.87 262.534 108.032 257.123 108.575 255.229C112.108 257.122 115.807 258.687 119.626 259.904C119.333 261.273 118.896 262.608 118.323 263.885C117.062 268.288 115.641 268.863 117.511 270.108C118.185 270.108 118.968 270.167 119.406 269.297C119.536 268.903 122.308 261.058 122.651 260.368C127.161 261.475 131.791 262.02 136.435 261.991C134.489 268.804 132.394 269.761 134.541 271.191C135.214 271.191 136.002 271.25 136.435 270.38C141.661 256.946 136.829 264.83 151.59 259.553C151.243 260.25 151.59 259.553 149.695 265.236C149.427 266.024 149.695 267.13 150.778 267.13C152.354 267.13 152.972 264.606 153.756 262.263C154.277 260.934 154.73 259.578 155.11 258.202C204.233 234.505 167.193 157.456 113.175 151.84ZM170.82 239.527C143.339 290.059 59.5235 236.309 67.4395 187.293C70.9525 165.526 89.2026 151.112 112.903 154.006C153.96 159.016 187.794 208.32 170.82 239.527Z" fill="#191A1F"/>
<path d="M143.488 212.191L124.273 220.583L132.106 186.21C132.106 185.028 132.599 186.541 128.05 175.927C126.553 174.434 128.684 173.981 112.891 181.07C107.902 171.469 110.749 172.17 99.1073 178.093C97.6343 178.841 98.7922 180.456 101.813 186.757C89.2418 192.767 87.6861 192.905 88.8164 194.606C93.5424 204.295 93.696 205.697 95.3147 204.618L114.53 195.689L106.681 229.779C106.681 230.91 106.22 229.551 110.741 239.795C111.359 241.653 112.084 240.838 126.167 234.923C130.145 244.076 127.629 243.233 139.428 238.44C141.109 237.881 140.215 236.79 137.805 230.591C148.88 225.581 150.672 225.203 149.982 223.825C146.651 215.995 145.071 210.608 143.488 212.191Z" fill="#191A1F"/>
</svg>
