<svg width="701" height="666" viewBox="0 0 701 666" fill="none" xmlns="http://www.w3.org/2000/svg">
<path d="M366.76 615.024C206.303 615.024 75.7617 484.482 75.7617 324.026C75.7617 163.57 206.303 33.0273 366.76 33.0273C527.216 33.0273 657.759 163.57 657.759 324.026C657.759 484.482 527.216 615.024 366.76 615.024ZM366.76 35.8786C207.875 35.8786 78.6113 165.141 78.6113 324.026C78.6113 482.911 207.875 612.173 366.76 612.173C525.645 612.173 654.906 482.911 654.906 324.026C654.906 165.141 525.643 35.8786 366.76 35.8786Z" fill="#BFE1FF"/>
<path d="M360.001 622.573C519.927 622.573 649.573 492.927 649.573 333C649.573 173.073 519.927 43.4272 360.001 43.4272C200.074 43.4272 70.4277 173.073 70.4277 333C70.4277 492.927 200.074 622.573 360.001 622.573Z" fill="#BFE1FF"/>
<path fill-rule="evenodd" clip-rule="evenodd" d="M542.224 642.571H648.099C649.896 642.571 651.368 644.042 651.368 645.84C651.368 647.64 649.896 649.112 648.099 649.112H542.224C540.427 649.112 538.955 647.64 538.955 645.84C538.955 644.042 540.427 642.571 542.224 642.571Z" fill="#59B2FF"/>
<path fill-rule="evenodd" clip-rule="evenodd" d="M662.001 642.571H697.495C699.294 642.571 700.766 644.042 700.766 645.84C700.766 647.64 699.294 649.112 697.495 649.112H662.001C660.201 649.112 658.73 647.64 658.73 645.84C658.73 644.042 660.201 642.571 662.001 642.571Z" fill="#59B2FF"/>
<path fill-rule="evenodd" clip-rule="evenodd" d="M681.066 625.723H686.376C688.174 625.723 689.645 627.192 689.645 628.994C689.645 630.791 688.174 632.263 686.376 632.263H681.066C679.267 632.263 677.797 630.791 677.797 628.994C677.797 627.192 679.267 625.723 681.066 625.723Z" fill="#BFE1FF"/>
<path fill-rule="evenodd" clip-rule="evenodd" d="M661.308 625.723H666.618C668.42 625.723 669.89 627.192 669.89 628.994C669.89 630.791 668.42 632.263 666.618 632.263H661.308C659.511 632.263 658.039 630.791 658.039 628.994C658.039 627.192 659.511 625.723 661.308 625.723Z" fill="#BFE1FF"/>
<path fill-rule="evenodd" clip-rule="evenodd" d="M629.704 625.723H646.866C648.666 625.723 650.135 627.192 650.135 628.994C650.135 630.791 648.666 632.263 646.866 632.263H629.704C627.908 632.263 626.436 630.791 626.436 628.994C626.436 627.192 627.906 625.723 629.704 625.723Z" fill="#BFE1FF"/>
<path fill-rule="evenodd" clip-rule="evenodd" d="M586.257 625.723H614.674C616.473 625.723 617.945 627.192 617.945 628.994C617.945 630.791 616.473 632.263 614.674 632.263H586.257C584.458 632.263 582.986 630.791 582.986 628.994C582.986 627.192 584.458 625.723 586.257 625.723Z" fill="#BFE1FF"/>
<path fill-rule="evenodd" clip-rule="evenodd" d="M651.142 659.423H656.452C658.249 659.423 659.719 660.893 659.719 662.695C659.719 664.491 658.249 665.962 656.452 665.962H651.142C649.342 665.962 647.873 664.491 647.873 662.695C647.873 660.893 649.342 659.423 651.142 659.423Z" fill="#BFE1FF"/>
<path fill-rule="evenodd" clip-rule="evenodd" d="M631.383 659.423H636.694C638.492 659.423 639.961 660.893 639.961 662.695C639.961 664.491 638.492 665.962 636.694 665.962H631.383C629.583 665.962 628.111 664.491 628.111 662.695C628.111 660.893 629.583 659.423 631.383 659.423Z" fill="#BFE1FF"/>
<path fill-rule="evenodd" clip-rule="evenodd" d="M599.778 659.423H616.938C618.735 659.423 620.205 660.893 620.205 662.695C620.205 664.491 618.735 665.962 616.938 665.962H599.778C597.978 665.962 596.506 664.491 596.506 662.695C596.506 660.893 597.978 659.423 599.778 659.423Z" fill="#BFE1FF"/>
<path fill-rule="evenodd" clip-rule="evenodd" d="M556.331 659.423H584.747C586.547 659.423 588.019 660.893 588.019 662.695C588.019 664.491 586.547 665.962 584.747 665.962H556.331C554.531 665.962 553.062 664.491 553.062 662.695C553.062 660.893 554.531 659.423 556.331 659.423Z" fill="#BFE1FF"/>
<path fill-rule="evenodd" clip-rule="evenodd" d="M36.082 158.579V52.7058C36.082 50.9058 37.554 49.437 39.3524 49.437C41.1508 49.437 42.6228 50.9058 42.6228 52.7058V158.579C42.6228 160.376 41.1508 161.848 39.3524 161.848C37.554 161.848 36.082 160.376 36.082 158.579Z" fill="#59B2FF"/>
<path fill-rule="evenodd" clip-rule="evenodd" d="M36.082 38.8018V3.30738C36.082 1.50898 37.554 0.0385742 39.3524 0.0385742C41.1508 0.0385742 42.6228 1.50898 42.6228 3.30738V38.8018C42.6228 40.6018 41.1508 42.0722 39.3524 42.0722C37.554 42.0722 36.082 40.6018 36.082 38.8018Z" fill="#59B2FF"/>
<path fill-rule="evenodd" clip-rule="evenodd" d="M19.2344 19.7375V14.4271C19.2344 12.6287 20.7048 11.1567 22.5048 11.1567C24.3016 11.1567 25.772 12.6287 25.772 14.4271V19.7375C25.772 21.5359 24.3016 23.0079 22.5048 23.0079C20.7048 23.0079 19.2344 21.5359 19.2344 19.7375Z" fill="#BFE1FF"/>
<path fill-rule="evenodd" clip-rule="evenodd" d="M19.2344 39.4944V34.184C19.2344 32.384 20.7048 30.9136 22.5048 30.9136C24.3016 30.9136 25.772 32.384 25.772 34.184V39.4928C25.772 41.2912 24.3016 42.7632 22.5048 42.7632C20.7048 42.7648 19.2344 41.2928 19.2344 39.4944Z" fill="#BFE1FF"/>
<path fill-rule="evenodd" clip-rule="evenodd" d="M19.2344 71.1008V53.9408C19.2344 52.1408 20.7048 50.6704 22.5048 50.6704C24.3016 50.6704 25.772 52.1408 25.772 53.9408V71.1008C25.772 72.8976 24.3016 74.3696 22.5048 74.3696C20.7048 74.368 19.2344 72.8976 19.2344 71.1008Z" fill="#BFE1FF"/>
<path fill-rule="evenodd" clip-rule="evenodd" d="M19.2344 114.547V86.1298C19.2344 84.3314 20.7048 82.8594 22.5048 82.8594C24.3016 82.8594 25.772 84.3314 25.772 86.1298V114.547C25.772 116.346 24.3016 117.818 22.5048 117.818C20.7048 117.818 19.2344 116.346 19.2344 114.547Z" fill="#BFE1FF"/>
<path fill-rule="evenodd" clip-rule="evenodd" d="M52.9336 49.6626V44.3538C52.9336 42.5554 54.404 41.085 56.204 41.085C58.0008 41.085 59.4728 42.5554 59.4728 44.3538V49.6626C59.4728 51.4626 58.0008 52.9346 56.204 52.9346C54.404 52.9346 52.9336 51.4626 52.9336 49.6626Z" fill="#BFE1FF"/>
<path fill-rule="evenodd" clip-rule="evenodd" d="M52.9336 69.4194V64.1106C52.9336 62.3122 54.404 60.8418 56.204 60.8418C58.0008 60.8418 59.4728 62.3122 59.4728 64.1106V69.4194C59.4728 71.221 58.0008 72.6882 56.204 72.6882C54.404 72.6882 52.9336 71.221 52.9336 69.4194Z" fill="#BFE1FF"/>
<path fill-rule="evenodd" clip-rule="evenodd" d="M52.9336 101.029V83.8644C52.9336 82.0676 54.404 80.5972 56.204 80.5972C58.0008 80.5972 59.4728 82.0676 59.4728 83.8644V101.029C59.4728 102.826 58.0008 104.298 56.204 104.298C54.404 104.298 52.9336 102.826 52.9336 101.029Z" fill="#BFE1FF"/>
<path fill-rule="evenodd" clip-rule="evenodd" d="M52.9336 144.472V116.056C52.9336 114.259 54.404 112.787 56.204 112.787C58.0008 112.787 59.4728 114.259 59.4728 116.056V144.472C59.4728 146.272 58.0008 147.741 56.204 147.741C54.404 147.741 52.9336 146.272 52.9336 144.472Z" fill="#BFE1FF"/>
<path fill-rule="evenodd" clip-rule="evenodd" d="M482.785 27.7876V22.4756C482.785 20.6772 484.256 19.21 486.054 19.21C487.852 19.21 489.323 20.6772 489.323 22.4756V27.7876C489.323 29.5844 487.852 31.0564 486.054 31.0564C484.256 31.0564 482.785 29.5844 482.785 27.7876Z" fill="#BFE1FF"/>
<path fill-rule="evenodd" clip-rule="evenodd" d="M505.041 27.7876V22.4756C505.041 20.6772 506.511 19.21 508.311 19.21C510.108 19.21 511.579 20.6772 511.579 22.4756V27.7876C511.579 29.5844 510.108 31.0564 508.311 31.0564C506.511 31.0564 505.041 29.5844 505.041 27.7876Z" fill="#FCCB37"/>
<path fill-rule="evenodd" clip-rule="evenodd" d="M527.297 27.7876V22.4756C527.297 20.6772 528.766 19.21 530.564 19.21C532.364 19.21 533.834 20.6772 533.834 22.4756V27.7876C533.834 29.5844 532.364 31.0564 530.564 31.0564C528.766 31.0564 527.297 29.5844 527.297 27.7876Z" fill="#BFE1FF"/>
<path fill-rule="evenodd" clip-rule="evenodd" d="M549.553 27.7876V22.4756C549.553 20.6772 551.025 19.21 552.823 19.21C554.622 19.21 556.092 20.6772 556.092 22.4756V27.7876C556.092 29.5844 554.622 31.0564 552.823 31.0564C551.025 31.0564 549.553 29.5844 549.553 27.7876Z" fill="#BFE1FF"/>
<path fill-rule="evenodd" clip-rule="evenodd" d="M571.809 27.7876V22.4756C571.809 20.6772 573.279 19.21 575.077 19.21C576.877 19.21 578.346 20.6772 578.346 22.4756V27.7876C578.346 29.5844 576.877 31.0564 575.077 31.0564C573.279 31.0564 571.809 29.5844 571.809 27.7876Z" fill="#BFE1FF"/>
<path fill-rule="evenodd" clip-rule="evenodd" d="M64.1981 530.253H69.5085C71.3053 530.253 72.7773 531.725 72.7773 533.522C72.7773 535.322 71.3053 536.791 69.5085 536.791H64.1981C62.3981 536.791 60.9277 535.322 60.9277 533.522C60.9277 531.725 62.3981 530.253 64.1981 530.253Z" fill="#BFE1FF"/>
<path fill-rule="evenodd" clip-rule="evenodd" d="M64.1981 552.509H69.5085C71.3053 552.509 72.7773 553.981 72.7773 555.778C72.7773 557.58 71.3053 559.047 69.5085 559.047H64.1981C62.3981 559.047 60.9277 557.58 60.9277 555.778C60.9277 553.981 62.3981 552.509 64.1981 552.509Z" fill="#FCCB37"/>
<path fill-rule="evenodd" clip-rule="evenodd" d="M64.1981 574.767H69.5085C71.3053 574.767 72.7773 576.237 72.7773 578.036C72.7773 579.832 71.3053 581.303 69.5085 581.303H64.1981C62.3981 581.303 60.9277 579.832 60.9277 578.036C60.9277 576.237 62.3981 574.767 64.1981 574.767Z" fill="#BFE1FF"/>
<path fill-rule="evenodd" clip-rule="evenodd" d="M64.1981 597.023H69.5085C71.3053 597.023 72.7773 598.492 72.7773 600.293C72.7773 602.09 71.3053 603.562 69.5085 603.562H64.1981C62.3981 603.562 60.9277 602.09 60.9277 600.293C60.9277 598.492 62.3981 597.023 64.1981 597.023Z" fill="#BFE1FF"/>
<path fill-rule="evenodd" clip-rule="evenodd" d="M64.1981 619.277H69.5085C71.3053 619.277 72.7773 620.749 72.7773 622.548C72.7773 624.348 71.3053 625.816 69.5085 625.816H64.1981C62.3981 625.816 60.9277 624.348 60.9277 622.548C60.9277 620.749 62.3981 619.277 64.1981 619.277Z" fill="#BFE1FF"/>
<path fill-rule="evenodd" clip-rule="evenodd" d="M607.431 274.259C609.702 274.259 611.559 276.112 611.559 278.382V320.677C611.559 322.949 609.702 324.802 607.433 324.802C605.164 324.802 603.307 322.949 603.307 320.677V278.382C603.305 276.112 605.163 274.259 607.431 274.259Z" fill="white"/>
<path fill-rule="evenodd" clip-rule="evenodd" d="M599.393 292.202C601.545 292.202 603.304 293.958 603.304 296.11V319.094C603.304 316.944 601.544 315.186 599.393 315.186C597.241 315.186 595.484 316.946 595.484 319.094V296.11C595.484 293.958 597.241 292.202 599.393 292.202Z" fill="white"/>
<path fill-rule="evenodd" clip-rule="evenodd" d="M589.942 294.174C592.99 294.174 595.486 296.669 595.486 299.718V333.67C595.486 336.722 592.99 339.216 589.942 339.216C586.891 339.216 584.395 336.722 584.395 333.67V299.718C584.395 296.669 586.891 294.174 589.942 294.174Z" fill="white"/>
<path fill-rule="evenodd" clip-rule="evenodd" d="M578.852 293.947C581.899 293.947 584.395 296.442 584.395 299.491V319.035C584.395 315.982 581.899 313.49 578.852 313.49C575.801 313.49 573.307 315.982 573.307 319.035V299.491C573.307 296.44 575.801 293.947 578.852 293.947Z" fill="white"/>
<path fill-rule="evenodd" clip-rule="evenodd" d="M563.952 276.723C569.098 276.723 573.307 280.933 573.307 286.075V322.694C573.307 327.838 569.098 332.048 563.952 332.048C558.808 332.048 554.602 327.838 554.602 322.694V286.075C554.602 280.933 558.808 276.723 563.952 276.723Z" fill="white"/>
<path fill-rule="evenodd" clip-rule="evenodd" d="M589.942 343.816C592.99 343.816 595.486 346.314 595.486 349.36V350.57C595.486 353.623 592.99 356.115 589.942 356.115C586.891 356.115 584.395 353.623 584.395 350.57V349.36C584.395 346.312 586.891 343.816 589.942 343.816Z" fill="white"/>
<path fill-rule="evenodd" clip-rule="evenodd" d="M611.936 299.237C600.024 312.251 574.004 307.819 553.815 289.343C533.628 270.864 526.919 245.335 538.832 232.32L544.066 226.605L545.149 227.599C558.495 220.975 579.823 226.535 596.954 242.218C614.082 257.895 621.504 278.651 616.085 292.53L617.17 293.523L611.936 299.237Z" fill="#2C81FE"/>
<path fill-rule="evenodd" clip-rule="evenodd" d="M547.015 282.272C539.903 273.846 535.317 264.589 533.646 255.981L553.026 234.81L573.392 253.453L547.015 282.272Z" fill="#12006C"/>
<path fill-rule="evenodd" clip-rule="evenodd" d="M617.167 293.525C605.257 306.536 579.234 302.107 559.049 283.624C538.86 265.147 532.151 239.618 544.065 226.605C555.977 213.589 581.996 218.022 602.183 236.502C622.374 254.981 629.079 280.509 617.167 293.525Z" fill="#59B2FF"/>
<path fill-rule="evenodd" clip-rule="evenodd" d="M608.206 285.318C599.218 295.141 579.573 291.797 564.338 277.848C549.098 263.901 544.035 244.63 553.027 234.81C562.016 224.989 581.661 228.331 596.898 242.28C612.134 256.227 617.198 275.498 608.206 285.318Z" fill="#FF75CA"/>
<path d="M593.825 291.667C584.153 291.667 572.947 286.699 563.859 278.374C556.388 271.538 551.078 263.224 548.908 254.963C546.707 246.592 547.983 239.266 552.5 234.328C556.015 230.488 561.169 228.459 567.407 228.459C577.081 228.459 588.284 233.43 597.379 241.754C604.846 248.59 610.155 256.906 612.327 265.165C614.526 273.536 613.249 280.866 608.732 285.803C605.219 289.64 600.065 291.667 593.825 291.667ZM567.407 229.885C561.579 229.885 556.788 231.755 553.553 235.293C549.372 239.858 548.214 246.717 550.284 254.603C552.387 262.6 557.55 270.669 564.819 277.323C573.655 285.413 584.5 290.243 593.825 290.243C599.654 290.243 604.444 288.374 607.681 284.835C611.86 280.27 613.02 273.413 610.948 265.526C608.846 257.53 603.684 249.459 596.414 242.805C587.577 234.715 576.732 229.885 567.407 229.885Z" fill="#12006C"/>
<path d="M614.068 291.397C613.895 291.397 613.724 291.333 613.585 291.211C613.295 290.946 613.275 290.494 613.539 290.203C623.092 279.706 619.399 260.256 604.763 243.96C604.5 243.667 604.524 243.216 604.817 242.952C605.11 242.691 605.559 242.712 605.822 243.006C620.961 259.858 624.651 280.112 614.595 291.163C614.452 291.317 614.26 291.397 614.068 291.397ZM602.895 241.654C602.713 241.654 602.529 241.584 602.39 241.443C601.577 240.624 600.74 239.819 599.873 239.024C599.583 238.76 599.564 238.307 599.83 238.018C600.097 237.728 600.548 237.709 600.839 237.974C601.721 238.782 602.575 239.606 603.404 240.438C603.683 240.72 603.681 241.17 603.401 241.448C603.257 241.584 603.076 241.654 602.895 241.654Z" fill="white"/>
<path d="M560.878 282.339C560.706 282.339 560.533 282.28 560.394 282.154C559.829 281.632 559.275 281.106 558.731 280.571C558.45 280.296 558.446 279.846 558.722 279.563C558.997 279.282 559.446 279.275 559.731 279.554C560.261 280.075 560.806 280.59 561.362 281.104C561.651 281.371 561.67 281.821 561.403 282.11C561.259 282.262 561.072 282.339 560.878 282.339ZM556.797 278.272C556.606 278.272 556.414 278.194 556.274 278.043C540.642 261.142 536.501 240.04 546.642 228.965C546.907 228.674 547.357 228.651 547.648 228.92C547.939 229.186 547.957 229.635 547.691 229.925C538.058 240.453 542.195 260.722 557.32 277.077C557.587 277.366 557.568 277.816 557.28 278.082C557.144 278.211 556.97 278.272 556.797 278.272Z" fill="#2C81FE"/>
<path d="M591.727 286.758C590.943 286.758 590.136 286.718 589.312 286.64C588.92 286.603 588.632 286.258 588.672 285.862C588.709 285.47 589.066 285.179 589.448 285.224C595.477 285.795 600.504 284.115 603.594 280.48C606.829 276.674 607.69 271.066 606.015 264.688C602.956 253.053 592.264 241.63 580.018 236.92C579.65 236.778 579.466 236.365 579.607 235.997C579.749 235.63 580.164 235.45 580.528 235.589C593.176 240.458 604.224 252.274 607.391 264.33C609.188 271.17 608.224 277.232 604.68 281.406C601.708 284.898 597.168 286.758 591.727 286.758ZM580.959 284.59C580.872 284.59 580.788 284.574 580.703 284.542C568.055 279.674 557.005 267.853 553.84 255.805C552.04 248.963 553.005 242.901 556.552 238.728C559.951 234.728 565.408 232.869 571.919 233.49C572.312 233.528 572.6 233.874 572.562 234.267C572.525 234.658 572.172 234.952 571.784 234.906C565.752 234.336 560.725 236.014 557.637 239.65C554.402 243.458 553.544 249.067 555.218 255.443C558.276 267.077 568.967 278.498 581.212 283.211C581.583 283.354 581.765 283.766 581.624 284.133C581.514 284.419 581.244 284.59 580.959 284.59Z" fill="#E33BA3"/>
<path d="M588.222 288.422C588.071 288.422 587.916 288.41 587.753 288.382C586.343 288.146 584.955 286.872 584.59 285.488C584.401 284.773 584.505 284.105 584.887 283.613C585.324 283.045 586.043 282.776 586.931 282.934C588.342 283.171 589.727 284.443 590.092 285.827C590.281 286.546 590.177 287.213 589.796 287.705C589.438 288.168 588.878 288.422 588.222 288.422ZM586.463 284.317C586.318 284.317 586.121 284.346 586.015 284.483C585.913 284.616 585.9 284.85 585.972 285.125C586.191 285.965 587.137 286.83 587.993 286.977C588.233 287.014 588.511 287.034 588.668 286.834C588.772 286.701 588.788 286.467 588.715 286.19C588.494 285.349 587.547 284.485 586.691 284.338C586.612 284.325 586.535 284.317 586.463 284.317Z" fill="#E33BA3"/>
<path d="M574.766 237.238C574.617 237.238 574.464 237.224 574.301 237.197C572.888 236.957 571.502 235.683 571.134 234.302C570.949 233.586 571.054 232.918 571.435 232.427C571.872 231.858 572.593 231.59 573.477 231.747C574.885 231.984 576.273 233.259 576.64 234.64C576.829 235.357 576.723 236.026 576.342 236.52C575.985 236.981 575.427 237.238 574.766 237.238ZM573.011 233.131C572.865 233.131 572.669 233.16 572.565 233.294C572.464 233.429 572.445 233.662 572.518 233.941C572.739 234.778 573.685 235.643 574.544 235.79C574.781 235.83 575.057 235.846 575.217 235.646C575.318 235.514 575.336 235.28 575.262 235.003C575.041 234.163 574.097 233.298 573.24 233.15C573.16 233.138 573.083 233.131 573.011 233.131Z" fill="#E33BA3"/>
<path d="M586.327 265.346L582.542 260.399L584.704 254.123L580.543 252.688L579.332 256.202L571.021 245.343L565.039 252.987L575.588 267.065L573.922 271.899L578.083 273.332L578.776 271.323L584.248 278.626L599.83 258.713L595.37 253.79L586.327 265.346Z" fill="white"/>
<path d="M592.94 307.427C590.678 307.427 588.31 307.219 585.86 306.803C574.748 304.909 563.198 298.898 553.335 289.869C553.043 289.605 553.027 289.152 553.291 288.861C553.556 288.571 554.007 288.55 554.299 288.816C563.963 297.662 575.255 303.552 586.1 305.397C596.828 307.224 605.819 304.866 611.411 298.757C611.676 298.467 612.126 298.446 612.417 298.714C612.71 298.979 612.727 299.43 612.463 299.72C607.828 304.782 601.041 307.427 592.94 307.427Z" fill="white"/>
<path fill-rule="evenodd" clip-rule="evenodd" d="M202.942 393.241C202.942 393.241 177.119 408.382 163.697 416.845C150.273 425.309 147.609 459.197 149.34 475.121C151.068 491.043 162.458 498.417 185.462 506.47C208.465 514.521 223.425 490.085 237.465 471.245L202.942 393.241Z" fill="#12006C"/>
<path fill-rule="evenodd" clip-rule="evenodd" d="M263.163 312.661C263.163 312.661 248.153 315.776 239.014 330.297C229.873 344.824 179.938 413.069 179.938 413.069L227.197 466.661C227.197 466.661 269.577 421.361 269.44 409.035C269.299 396.712 263.163 312.661 263.163 312.661Z" fill="#12006C"/>
<path fill-rule="evenodd" clip-rule="evenodd" d="M544.144 436.928C536.297 425.147 520.417 384.437 502.277 356.577C491.973 340.75 482.422 333.184 473.769 329.152L461.197 335.133L448.344 364.683L433.061 397.787C433.061 397.787 434.745 423.585 434.769 425.677C434.793 427.773 465.481 447.195 465.481 447.195L544.144 436.928Z" fill="#12006C"/>
<path fill-rule="evenodd" clip-rule="evenodd" d="M496.548 410.979C496.548 410.979 525.076 425.509 539.92 433.654C554.765 441.8 558.471 475.616 556.957 491.576C555.448 507.536 543.191 515.176 518.285 523.77C493.376 532.362 476.479 508.28 460.719 489.774L496.548 410.979Z" fill="#12006C"/>
<path fill-rule="evenodd" clip-rule="evenodd" d="M329.418 256.128C329.418 256.128 328.246 262.234 327.241 267.496C326.234 272.752 326.575 288.882 326.575 288.882C325.812 293.269 325.119 304.045 318.759 303.896C307.953 303.638 325.871 341.186 340.388 345.085C357.172 349.589 392.06 329.851 411.162 318.208C413.567 316.746 411.118 310.099 413.121 309.146C413.121 309.146 403.841 305.733 402.865 297.186C401.887 288.635 404.817 257.568 404.817 257.568L329.418 256.128Z" fill="#59B2FF"/>
<path fill-rule="evenodd" clip-rule="evenodd" d="M329.418 256.128C329.418 256.128 328.247 262.234 327.241 267.496C326.234 272.752 326.575 288.882 326.575 288.882C326.249 290.762 325.935 293.816 325.182 296.678C332.11 302.584 339.734 308.765 343.743 310.974C348.798 313.758 355.11 315.008 361.319 314.925C367.532 314.869 373.812 313.478 378.802 310.578C383.913 307.614 394.889 297.902 402.676 290.774C402.841 278.547 404.817 257.57 404.817 257.57L329.418 256.128Z" fill="#2C81FE"/>
<path fill-rule="evenodd" clip-rule="evenodd" d="M413.121 309.147L473.769 329.154C473.769 329.154 424.762 397.6 465.122 473.494L448.762 590.512C448.762 590.512 455.516 598.483 451.41 607.835C422.674 617.389 391.945 622.574 359.999 622.574C314.231 622.574 270.956 611.941 232.476 593.035L228.369 479.339C219.537 389.266 229.708 398.637 263.162 312.661L318.759 303.896C321.503 334.886 370.431 338.048 413.121 309.147Z" fill="#12006C"/>
<path d="M529.603 428.827C529.491 428.827 529.376 428.798 529.27 428.742C514.561 420.96 496.403 411.709 496.222 411.616C495.87 411.438 495.729 411.008 495.91 410.658C496.089 410.304 496.52 410.168 496.868 410.346C497.006 410.416 507.155 415.584 518.414 421.441L522.598 420.667C522.979 420.593 523.355 420.848 523.43 421.237C523.5 421.624 523.246 421.995 522.859 422.065L520.467 422.512C523.643 424.168 526.868 425.858 529.94 427.485C530.289 427.667 530.422 428.099 530.238 428.445C530.107 428.688 529.859 428.827 529.603 428.827ZM353.928 342.298C345.681 342.298 337.968 341.101 331.436 338.531C317.052 332.875 309.358 321.385 309.184 305.299C309.177 304.905 309.492 304.584 309.886 304.579C309.889 304.579 309.893 304.579 309.896 304.579C310.283 304.579 310.601 304.893 310.606 305.283C310.774 320.741 318.158 331.778 331.958 337.202C357.974 347.435 403.086 335.51 424.797 312.677C425.067 312.39 425.518 312.382 425.805 312.651C426.089 312.92 426.102 313.373 425.83 313.657C409.224 331.128 379.096 342.298 353.928 342.298Z" fill="#2C81FE"/>
<path fill-rule="evenodd" clip-rule="evenodd" d="M479.178 378.827L459.623 337.973C459.623 337.973 454.029 332.005 449.319 337.834C444.613 343.666 449.053 358.691 451.825 370.466C454.593 382.242 457.748 394.518 457.748 394.518L418.444 340.064C418.444 340.064 413.852 333.712 408.385 339.051C402.917 344.386 409.617 359.008 419.618 377.234C429.62 395.461 442.815 418.299 442.815 418.299C442.815 418.299 442.89 426.92 447.277 437.299C447.277 437.299 447.73 455.131 438.852 458.874C438.852 458.874 429.333 461.242 421.274 459.448C413.213 457.654 392.965 455.494 385.18 455.834C377.394 456.176 375.309 460.594 374.488 465.878C373.668 471.163 375.495 477.173 391.986 480.502C408.482 483.835 426.178 482.629 440.799 486.738C455.416 490.842 473.06 507.101 492.564 498.84C492.564 498.84 506.213 506.222 521.212 499.522C536.21 492.826 531.62 464.485 531.62 464.485C531.62 464.485 536.202 447.853 537.892 441.677C539.583 435.506 532.729 429.048 525.361 433.026C517.994 437.005 514.396 440.941 514.396 440.941C514.396 440.941 501.581 384.933 497.925 372.664C494.273 360.4 479.5 364.835 479.178 378.827Z" fill="#59B2FF"/>
<path fill-rule="evenodd" clip-rule="evenodd" d="M408.439 457.438C399.836 456.392 390.06 455.621 385.18 455.835C377.394 456.173 375.309 460.595 374.488 465.88C373.668 471.165 375.495 477.174 391.989 480.504C395.86 481.288 399.799 481.818 403.751 482.229C406.328 474.358 407.938 466.046 408.439 457.438Z" fill="#2C81FE"/>
<path d="M492.567 499.558C492.204 499.558 491.895 499.285 491.858 498.92C490.082 481.741 485.389 469.387 479.682 460.512C478.946 459.475 478.362 458.602 477.943 457.958C464.778 439.654 447.487 438.03 447.226 438.011C446.834 437.982 446.541 437.64 446.572 437.245C446.6 436.853 446.952 436.574 447.336 436.59C447.596 436.608 464.66 438.174 478.088 455.747C478.223 455.803 478.338 455.904 478.418 456.038C478.431 456.058 478.645 456.414 479.042 457.026C479.692 457.931 480.34 458.877 480.97 459.864C484.207 464.416 490.296 472.03 497.879 477.099C498.207 477.315 498.295 477.76 498.076 478.086C497.856 478.418 497.412 478.502 497.088 478.285C492.466 475.195 488.392 471.189 485.156 467.475C488.973 475.598 491.941 485.842 493.279 498.768C493.319 499.162 493.036 499.512 492.642 499.552C492.616 499.554 492.589 499.558 492.567 499.558ZM524.524 468.227C522.632 468.227 520.362 467.813 517.682 466.691C517.319 466.541 517.149 466.123 517.301 465.758C517.452 465.397 517.869 465.224 518.234 465.376C527.202 469.13 530.893 464.278 531.045 464.07C531.28 463.754 531.727 463.683 532.042 463.914C532.357 464.144 532.429 464.586 532.202 464.902C532.072 465.085 529.733 468.227 524.524 468.227ZM507.223 451.282C506.986 451.282 506.751 451.16 506.616 450.942C505.898 449.784 505.175 448.651 504.45 447.546C504.442 447.536 504.432 447.522 504.423 447.51C504.415 447.498 504.407 447.485 504.399 447.47C497.607 437.15 490.511 429.235 483.172 423.776C483.042 423.73 482.93 423.645 482.847 423.536C477.26 419.44 471.535 416.766 465.695 415.534C452.348 412.722 443.284 418.786 443.194 418.845C442.868 419.07 442.423 418.982 442.204 418.661C441.98 418.334 442.064 417.893 442.388 417.67C442.738 417.43 450.298 412.384 461.983 413.518L457.058 394.701C456.957 394.32 457.186 393.931 457.567 393.829C457.946 393.728 458.336 393.958 458.437 394.339L463.503 413.702C464.314 413.814 465.14 413.96 465.988 414.138C471.629 415.326 477.157 417.814 482.552 421.573L478.466 378.894C478.429 378.502 478.716 378.152 479.108 378.117C479.498 378.066 479.848 378.365 479.885 378.76L484.09 422.683C491.407 428.146 498.469 435.976 505.22 446.13L514.004 440.346C514.332 440.13 514.776 440.219 514.991 440.549C515.208 440.878 515.116 441.32 514.788 441.538L506 447.318C506.613 448.254 507.223 449.214 507.828 450.189C508.032 450.525 507.93 450.965 507.594 451.171C507.482 451.246 507.351 451.282 507.223 451.282Z" fill="#2C81FE"/>
<path fill-rule="evenodd" clip-rule="evenodd" d="M168.097 370.821L185.404 332.465C185.404 332.465 190.474 326.805 194.969 332.123C199.463 337.443 195.654 351.491 193.327 362.486C191.001 373.481 188.329 384.949 188.329 384.949L223.695 333.552C223.695 333.552 227.828 327.553 233.017 332.397C238.207 337.24 232.29 350.961 223.383 368.097C214.474 385.237 202.695 406.726 202.695 406.726C202.695 406.726 202.807 414.734 198.948 424.464C198.948 424.464 198.902 441.035 207.225 444.329C207.225 444.329 216.118 446.328 223.566 444.494C231.014 442.661 249.774 440.229 257.012 440.382C264.25 440.538 266.279 444.595 267.15 449.489C268.023 454.381 266.452 460 251.204 463.438C235.954 466.88 219.49 466.131 205.999 470.25C192.506 474.37 176.46 489.837 158.172 482.576C158.172 482.576 145.649 489.717 131.578 483.81C117.506 477.901 121.178 451.481 121.178 451.481C121.178 451.481 116.57 436.128 114.874 430.432C113.175 424.731 119.407 418.592 126.332 422.134C133.26 425.677 136.682 429.254 136.682 429.254C136.682 429.254 147.414 376.968 150.553 365.494C153.69 354.024 167.503 357.835 168.097 370.821Z" fill="#59B2FF"/>
<path fill-rule="evenodd" clip-rule="evenodd" d="M231.065 443.032C239.809 441.592 251.61 440.269 257.01 440.382C264.249 440.538 266.278 444.595 267.148 449.488C268.023 454.381 266.45 460 251.202 463.438C244.91 464.861 238.414 465.566 232.001 466.193C231.164 461.229 230.721 456.129 230.721 450.928C230.721 448.267 230.842 445.635 231.065 443.032Z" fill="#2C81FE"/>
<path d="M158.172 483.288C158.153 483.288 158.135 483.288 158.114 483.285C157.722 483.256 157.428 482.91 157.46 482.518C158.42 470.651 160.906 461.166 164.214 453.594C161.319 457.037 157.698 460.726 153.577 463.618C153.255 463.843 152.81 463.766 152.583 463.445C152.358 463.123 152.436 462.678 152.758 462.453C159.686 457.59 165.175 450.4 168.087 446.104C168.654 445.174 169.234 444.278 169.823 443.422C170.178 442.848 170.366 442.515 170.377 442.496C170.452 442.365 170.561 442.264 170.689 442.205C182.804 425.595 198.636 423.779 198.879 423.757C199.263 423.712 199.618 424.003 199.657 424.398C199.694 424.787 199.409 425.138 199.018 425.173C198.778 425.198 182.77 427.067 170.938 444.331C170.566 444.933 170.042 445.752 169.386 446.725C164.273 455.08 160.174 466.643 158.884 482.632C158.852 483.006 158.54 483.288 158.172 483.288ZM127.582 454.859C122.902 454.859 120.732 452.072 120.61 451.907C120.374 451.594 120.436 451.146 120.751 450.91C121.063 450.677 121.51 450.738 121.748 451.051C121.897 451.243 125.407 455.63 133.612 451.979C133.972 451.818 134.393 451.984 134.553 452.342C134.713 452.704 134.551 453.122 134.191 453.283C131.591 454.44 129.398 454.859 127.582 454.859ZM143.55 438.757C143.426 438.757 143.302 438.725 143.186 438.656C142.847 438.458 142.735 438.022 142.935 437.68C143.47 436.776 144.004 435.891 144.543 435.019L136.305 429.856C135.97 429.646 135.871 429.21 136.079 428.875C136.287 428.539 136.727 428.44 137.062 428.65L145.298 433.808C151.346 424.261 157.73 416.853 164.399 411.635L167.385 370.77C167.415 370.374 167.756 370.082 168.15 370.11C168.54 370.139 168.838 370.478 168.809 370.874L165.911 410.496C170.818 406.92 175.879 404.514 181.071 403.298C181.842 403.118 182.599 402.965 183.34 402.845L187.634 384.786C187.726 384.405 188.108 384.168 188.492 384.259C188.874 384.35 189.111 384.734 189.022 385.115L184.858 402.627C195.663 401.346 202.775 405.872 203.106 406.09C203.434 406.306 203.529 406.744 203.314 407.074C203.1 407.403 202.657 407.496 202.329 407.283C202.241 407.227 193.666 401.795 181.361 404.694C175.983 405.962 170.74 408.558 165.658 412.466C165.582 412.566 165.476 412.65 165.356 412.698C157.927 418.486 150.841 427.078 144.166 438.405C144.033 438.629 143.793 438.757 143.55 438.757Z" fill="#2C81FE"/>
<path fill-rule="evenodd" clip-rule="evenodd" d="M153.985 336.35C153.87 334.677 155.131 333.23 156.806 333.117C158.477 333 159.928 334.261 160.04 335.933L160.537 342.822C160.649 344.493 159.39 345.944 157.715 346.058C156.045 346.17 154.595 344.907 154.481 343.237L153.985 336.35ZM145.901 346.509C147.041 347.733 146.973 349.654 145.744 350.794C144.52 351.933 142.601 351.864 141.459 350.64L128.891 337.054C127.749 335.825 127.814 333.909 129.043 332.766C130.269 331.63 132.187 331.701 133.331 332.923L145.901 346.509ZM135.208 360.464C136.856 360.755 137.96 362.33 137.669 363.974C137.377 365.624 135.808 366.728 134.157 366.433L126.569 365.128C124.921 364.837 123.816 363.264 124.107 361.616C124.4 359.966 125.969 358.864 127.621 359.154L135.208 360.464Z" fill="white"/>
<path fill-rule="evenodd" clip-rule="evenodd" d="M485.316 312.298C485.431 310.627 484.172 309.176 482.496 309.064C480.826 308.949 479.375 310.211 479.261 311.883L478.765 318.771C478.65 320.443 479.911 321.894 481.586 322.006C483.255 322.118 484.706 320.858 484.818 319.186L485.316 312.298ZM493.402 322.459C492.261 323.682 492.332 325.603 493.559 326.744C494.786 327.883 496.704 327.814 497.844 326.587L510.413 313.006C511.557 311.776 511.488 309.859 510.263 308.717C509.036 307.579 507.117 307.646 505.972 308.874L493.402 322.459ZM504.095 336.414C502.448 336.704 501.344 338.28 501.636 339.923C501.925 341.573 503.496 342.674 505.148 342.386L512.733 341.078C514.381 340.787 515.488 339.213 515.196 337.565C514.904 335.917 513.333 334.814 511.684 335.104L504.095 336.414Z" fill="white"/>
<path fill-rule="evenodd" clip-rule="evenodd" d="M422.977 204.195C422.977 204.195 428.872 196.958 433.072 197.216C437.267 197.474 442.824 206.805 442.512 214.029C442.203 221.259 435.233 246.579 421.117 237.592C407 228.603 422.977 204.195 422.977 204.195Z" fill="#59B2FF"/>
<path fill-rule="evenodd" clip-rule="evenodd" d="M418.555 211.963C418.099 212.474 417.99 213.326 418.32 213.861C418.618 214.344 419.162 214.408 419.603 214.042C419.603 214.042 424.161 236.077 427.118 232.504C430.077 228.93 433.195 225.478 434.283 219.806C435.371 214.134 430.473 209.149 432.117 207.616C433.681 206.155 435.499 208.278 435.666 208.482L435.674 208.49L435.678 208.494L435.68 208.496C437.117 210.347 437.833 212.558 437.84 212.57C438.054 213.206 438.651 213.422 439.171 213.045C439.693 212.67 439.939 211.846 439.726 211.208C439.718 211.184 437.022 202.854 431.224 203.349C425.683 203.824 418.574 211.938 418.555 211.963Z" fill="#2C81FE"/>
<path fill-rule="evenodd" clip-rule="evenodd" d="M285.598 209.661C285.598 209.661 279.148 202.912 274.984 203.502C270.82 204.093 266.021 213.835 266.905 221.014C267.79 228.195 276.749 252.88 290.105 242.802C303.465 232.718 285.598 209.661 285.598 209.661Z" fill="#59B2FF"/>
<path fill-rule="evenodd" clip-rule="evenodd" d="M290.628 217.053C291.126 217.526 291.297 218.365 291.012 218.925C290.756 219.427 290.217 219.534 289.75 219.206C289.75 219.206 286.956 241.536 283.722 238.208C280.49 234.878 277.106 231.686 275.572 226.118C274.038 220.55 278.522 215.19 276.762 213.795C275.087 212.462 273.444 214.725 273.292 214.938L273.286 214.946L273.282 214.954C271.996 216.917 271.454 219.176 271.454 219.187C271.289 219.84 270.711 220.099 270.161 219.765C269.614 219.432 269.3 218.632 269.463 217.978C269.47 217.954 271.495 209.435 277.313 209.47C282.876 209.502 290.604 217.03 290.628 217.053Z" fill="#2C81FE"/>
<path fill-rule="evenodd" clip-rule="evenodd" d="M349.692 87.9214C255.43 93.1311 272.41 170.725 283.238 233.403C300.089 330.974 418.446 326.265 427.495 227.665C433.306 164.326 444.07 85.6302 349.692 87.9214Z" fill="#59B2FF"/>
<path fill-rule="evenodd" clip-rule="evenodd" d="M374.251 209.397C377.496 202.581 381.483 198.859 385.54 197.362C388.323 196.331 391.14 196.347 393.772 197.125C396.396 197.899 398.836 199.434 400.889 201.446C404.632 205.123 407.078 210.403 406.942 215.584C406.939 215.738 406.814 215.858 406.66 215.854C406.523 215.85 406.409 215.746 406.395 215.61C405.982 212.019 404.02 208.504 401.182 205.853C399.03 203.84 396.372 202.325 393.504 201.65C390.641 200.974 387.563 201.136 384.563 202.464C381.08 204.01 377.691 207.134 374.848 212.366C374.164 213.619 373.619 214.958 373.241 216.322C372.876 217.645 372.667 218.992 372.648 220.298C372.648 220.451 372.523 220.571 372.371 220.571C372.228 220.57 372.113 220.459 372.099 220.318C371.94 218.56 372.065 216.715 372.424 214.894C372.8 213 373.427 211.126 374.251 209.397Z" fill="#2C81FE"/>
<path fill-rule="evenodd" clip-rule="evenodd" d="M315.31 200.331C319.35 201.469 323.495 204.763 327.161 211.106C328.092 212.714 328.843 214.478 329.348 216.283C329.836 218.016 330.1 219.792 330.083 221.506C330.079 221.643 329.977 221.758 329.839 221.771C329.692 221.784 329.561 221.674 329.548 221.531C329.43 220.266 329.124 218.978 328.67 217.728C328.198 216.437 327.567 215.182 326.811 214.026C323.652 209.186 320.135 206.421 316.647 205.197C313.639 204.139 310.649 204.224 307.932 205.096C305.209 205.973 302.755 207.643 300.828 209.755C298.286 212.541 296.662 216.091 296.539 219.597C296.534 219.728 296.433 219.837 296.299 219.854C296.151 219.866 296.02 219.762 296.006 219.613C295.476 214.613 297.436 209.312 300.772 205.469C302.603 203.363 304.847 201.691 307.326 200.738C309.815 199.781 312.539 199.55 315.31 200.331Z" fill="#2C81FE"/>
<path fill-rule="evenodd" clip-rule="evenodd" d="M308.219 149.872L315.308 156.216C343.012 152.354 391.524 181.205 415.129 161.925C429.582 150.12 403.968 140.699 401.884 140.186C399.798 139.672 308.219 149.872 308.219 149.872Z" fill="#2C81FE"/>
<path fill-rule="evenodd" clip-rule="evenodd" d="M428.561 220.921C429.366 212.336 430.239 202.774 430.82 193.995C434.718 135.088 428.851 92.3661 350.388 94.2733C272.02 98.6077 268.913 140.219 277.478 198.627C278.755 207.334 280.591 218.245 282.078 226.737C282.078 226.737 286.851 218.181 284.124 199.856C284.124 199.856 300.468 188.845 296.593 165.475C291.191 132.902 330.639 130.769 351.807 129.928C372.972 129.086 414.268 129.781 407.487 162.096C400.705 194.408 421.923 200.656 421.923 200.656C420.657 219.141 428.561 220.921 428.561 220.921Z" fill="#12006C"/>
<path fill-rule="evenodd" clip-rule="evenodd" d="M349.947 210.414C349.924 210.566 349.878 210.715 349.806 210.861L349.411 211.653L349.403 211.669C347.379 215.725 340.92 228.707 341.004 230.086C341.139 231.073 344.956 233.816 345.784 234.344C347.699 235.56 351.996 233.577 353.54 232.87C360.216 229.816 349.62 239.181 346.812 238.569C344.579 238.083 343.118 237.133 341.38 235.725C339.916 234.539 337.872 232.315 337.619 230.443C337.36 228.515 343.937 214.833 346.227 210.392C348.361 206.009 348.208 203.248 347.574 201.659C347.144 200.577 347.043 198.934 348.656 200.923C350 202.581 351.694 205.809 349.947 210.414Z" fill="#2C81FE"/>
<path fill-rule="evenodd" clip-rule="evenodd" d="M329.363 186.502C329.29 187.622 329.011 188.176 328.811 188.435C328.706 186.917 327.781 185.854 326.339 185.147C316.944 181.262 302.178 184.93 295.499 190.936C295.44 190.987 295.411 191.083 295.437 191.168C295.466 191.272 295.56 191.325 295.646 191.285C300.586 188.973 305.605 188.282 310.099 188.418C317.301 188.635 323.15 190.979 325.173 192.179C325.885 192.605 326.741 193.034 327.592 193.03C328.469 193.027 329.333 192.57 330.021 191.198C330.25 190.746 330.411 190.302 330.523 189.882C330.784 188.885 330.758 187.998 330.629 187.336C330.494 186.648 330.235 186.178 330.066 186.053C330.042 186.037 330.021 186.024 329.998 186.018L329.995 186.016L329.99 186.014C329.493 185.843 329.368 186.464 329.368 186.464L329.363 186.502Z" fill="#12006C"/>
<path fill-rule="evenodd" clip-rule="evenodd" d="M374.297 210.526C377.542 203.712 381.531 199.99 385.587 198.49C388.371 197.461 391.187 197.475 393.819 198.256C396.443 199.032 398.885 200.566 400.936 202.578C404.678 206.253 407.125 211.536 406.99 216.714C406.985 216.867 406.861 216.987 406.707 216.986C406.569 216.984 406.456 216.875 406.441 216.742C406.029 213.15 404.069 209.64 401.229 206.984C399.077 204.974 396.419 203.459 393.55 202.784C390.688 202.106 387.609 202.266 384.609 203.597C381.128 205.141 377.739 208.266 374.893 213.498C374.211 214.747 373.665 216.088 373.288 217.45V217.453C372.921 218.773 372.715 220.12 372.694 221.427C372.694 221.579 372.569 221.699 372.417 221.699C372.275 221.699 372.158 221.589 372.145 221.448C371.987 219.691 372.113 217.846 372.47 216.024C372.846 214.13 373.473 212.256 374.297 210.526Z" fill="#12006C"/>
<path fill-rule="evenodd" clip-rule="evenodd" d="M315.499 201.65C319.54 202.787 323.684 206.082 327.35 212.426C328.281 214.037 329.033 215.8 329.54 217.602C330.028 219.339 330.289 221.114 330.272 222.827C330.27 222.963 330.168 223.077 330.028 223.09C329.881 223.102 329.752 222.995 329.74 222.85C329.62 221.587 329.315 220.298 328.857 219.048C328.387 217.758 327.755 216.502 327 215.346C323.843 210.502 320.324 207.739 316.836 206.514C313.83 205.458 310.841 205.541 308.126 206.416C305.401 207.29 302.948 208.96 301.02 211.07C298.478 213.856 296.854 217.406 296.731 220.912C296.724 221.045 296.624 221.155 296.489 221.17C296.342 221.186 296.212 221.077 296.195 220.931C295.667 215.93 297.627 210.63 300.964 206.787C302.795 204.682 305.04 203.006 307.516 202.053C310.003 201.102 312.724 200.87 315.499 201.65Z" fill="#12006C"/>
<path fill-rule="evenodd" clip-rule="evenodd" d="M377.611 207.947C378.149 206.981 378.71 206.098 379.283 205.272C381.595 203.347 384.628 202.12 387.985 201.987C395.569 201.685 401.941 207.064 402.217 214C402.677 225.541 387.72 229.131 379.688 224.256C378.203 223.134 376.984 221.725 376.124 220.118C374.635 216.478 375.462 211.794 377.611 207.947Z" fill="#12006C"/>
<path fill-rule="evenodd" clip-rule="evenodd" d="M323.907 210.669C323.313 209.773 322.702 208.963 322.083 208.21C319.697 206.522 316.667 205.57 313.408 205.699C306.048 205.994 300.299 211.69 300.568 218.419C301.011 229.624 315.76 231.944 323.155 226.61C324.505 225.406 325.577 223.952 326.283 222.331C327.446 218.693 326.283 214.226 323.907 210.669Z" fill="#12006C"/>
<path d="M406.53 222.12C406.474 222.12 406.418 222.114 406.362 222.099C405.172 221.811 404.525 221.205 404.455 221.138C404.172 220.862 404.165 220.41 404.442 220.128C404.714 219.848 405.162 219.84 405.445 220.11C405.455 220.12 405.89 220.517 406.696 220.714C407.079 220.806 407.316 221.192 407.223 221.573C407.143 221.901 406.85 222.12 406.53 222.12Z" fill="#BFE1FF"/>
<path d="M403.416 224.734C403.277 224.734 403.136 224.696 403.015 224.611C402.176 224.037 401.848 223.369 401.813 223.293C401.647 222.934 401.802 222.513 402.159 222.345C402.515 222.182 402.933 222.331 403.103 222.683C403.112 222.701 403.317 223.088 403.821 223.438C404.146 223.659 404.229 224.102 404.005 224.425C403.867 224.627 403.643 224.734 403.416 224.734Z" fill="#BFE1FF"/>
<path d="M295.727 226.528C295.426 226.528 295.15 226.334 295.049 226.034C294.927 225.659 295.132 225.258 295.505 225.136C296.298 224.874 296.702 224.44 296.706 224.435C296.967 224.144 297.418 224.12 297.71 224.382C298.001 224.64 298.031 225.085 297.775 225.379C297.71 225.453 297.114 226.107 295.948 226.49C295.876 226.515 295.801 226.528 295.727 226.528Z" fill="#BFE1FF"/>
<path d="M299.038 228.888C298.831 228.888 298.625 228.797 298.482 228.624C298.236 228.318 298.282 227.872 298.588 227.622C299.074 227.229 299.242 226.819 299.244 226.814C299.391 226.451 299.799 226.267 300.164 226.41C300.529 226.554 300.713 226.955 300.577 227.318C300.548 227.394 300.276 228.086 299.484 228.728C299.354 228.837 299.194 228.888 299.038 228.888Z" fill="#BFE1FF"/>
<path fill-rule="evenodd" clip-rule="evenodd" d="M384.331 215.998C385.646 215.819 386.857 216.768 387.035 218.114C387.214 219.464 386.291 220.702 384.976 220.885C383.662 221.062 382.451 220.118 382.272 218.768C382.094 217.419 383.016 216.179 384.331 215.998Z" fill="white"/>
<path fill-rule="evenodd" clip-rule="evenodd" d="M310.262 219.827C311.539 219.651 312.713 220.571 312.886 221.882C313.059 223.189 312.166 224.394 310.889 224.57C309.612 224.744 308.438 223.822 308.264 222.515C308.091 221.206 308.985 220 310.262 219.827Z" fill="white"/>
<path fill-rule="evenodd" clip-rule="evenodd" d="M360.919 279.825C362.059 279.635 362.826 278.589 362.632 277.491C362.435 276.397 361.351 275.662 360.208 275.854C360.192 275.856 353.883 277.814 346.136 276.797C343.395 276.441 343.088 279.424 345.824 279.776C354.184 280.873 360.899 279.827 360.919 279.825Z" fill="#2C81FE"/>
<path fill-rule="evenodd" clip-rule="evenodd" d="M296.109 160.741C290.414 159.846 287.136 157.792 283.142 155.758C244.832 136.214 279.958 70.7792 295.698 89.7648C295.874 89.9808 296.136 90.72 296.221 90.4416C309.206 47.7504 380.763 45.944 360.914 72.624C360.914 72.624 412.946 57.3504 415.851 94.808C426.438 67.384 459.56 156.765 407.486 162.098C363.955 166.552 335.04 147.6 296.109 160.741Z" fill="#12006C"/>
<path fill-rule="evenodd" clip-rule="evenodd" d="M369.497 179.619C369.592 180.771 369.889 181.331 370.1 181.591C370.179 180.016 371.112 178.885 372.582 178.093C382.172 173.707 397.422 176.888 404.401 182.81C404.462 182.861 404.496 182.96 404.47 183.05C404.443 183.157 404.347 183.216 404.256 183.179C399.136 180.995 393.96 180.485 389.342 180.811C381.94 181.33 375.971 183.983 373.91 185.303C373.185 185.768 372.316 186.251 371.44 186.28C370.539 186.312 369.641 185.877 368.91 184.49C368.667 184.032 368.489 183.583 368.369 183.152C368.081 182.133 368.092 181.219 368.212 180.53C368.337 179.814 368.596 179.319 368.771 179.183C368.793 179.167 368.816 179.151 368.838 179.143H368.841L368.846 179.139H368.848C369.355 178.943 369.491 179.576 369.492 179.579H369.491L369.497 179.619Z" fill="#12006C"/>
<path fill-rule="evenodd" clip-rule="evenodd" d="M397.63 174.522C398.187 174.098 398.947 174.267 399.327 174.893C399.71 175.523 399.567 176.378 399.012 176.798L388.839 184.546C388.284 184.973 387.524 184.803 387.142 184.178C386.761 183.546 386.902 182.693 387.457 182.272L397.63 174.522Z" fill="#59B2FF"/>
<path fill-rule="evenodd" clip-rule="evenodd" d="M432.046 230.883C433.036 230.843 433.87 231.613 433.908 232.603C433.946 233.59 433.178 234.425 432.188 234.464C431.199 234.504 430.364 233.733 430.326 232.744C430.287 231.755 431.057 230.921 432.046 230.883Z" fill="#12006C"/>
<path fill-rule="evenodd" clip-rule="evenodd" d="M278.79 91.9712C280.715 105.805 291.342 127.352 342.263 107.866L343.575 107.36C344.531 106.994 345.046 106.784 345.049 107.126V107.131V107.139C345.043 107.253 344.948 107.346 344.835 107.347C344.55 107.528 343.988 107.797 343.115 108.21L342.436 108.534C338.543 110.387 330.903 113.843 322.295 116.781C316.745 118.678 310.79 120.352 305.18 121.242C298.311 122.331 292.663 122.054 288.06 121.117C283.455 120.181 279.897 118.589 277.207 117.048C276.678 116.744 276.287 116.518 275.894 116.29C272.422 114.277 270.34 113.074 267.59 113.336C269.838 104.747 274.046 96.952 278.79 91.9712ZM350.265 104.699C350.318 104.67 368.631 93.904 380.39 97.016C380.505 97.0432 380.574 97.1648 380.545 97.2816C380.516 97.3904 380.406 97.4576 380.299 97.44C380.286 97.4368 375.63 96.6976 372.979 99.6992C370.7 102.274 368.391 102.19 365.337 102.082C364.622 102.056 363.863 102.029 363.076 102.035C360.924 102.05 358.679 102.31 356.467 102.846C354.412 103.342 352.388 104.077 350.499 105.074L350.487 105.078L350.478 105.082C350.372 105.139 350.239 105.099 350.183 104.992C350.127 104.888 350.164 104.76 350.265 104.699Z" fill="#2C81FE"/>
<path fill-rule="evenodd" clip-rule="evenodd" d="M329.56 244.952C334.96 246.662 343.382 246.72 351.716 245.55C360.065 244.384 368.219 242.006 373.073 238.859C374.04 238.234 375.329 238.509 375.953 239.474C376.236 239.912 376.332 240.413 376.268 240.891H376.27C374.52 253.259 370.488 262.157 365.336 267.389C362.15 270.622 358.518 272.494 354.696 272.965C350.868 273.435 346.915 272.491 343.097 270.101C337.087 266.334 331.358 258.91 326.996 247.696C326.579 246.627 327.108 245.419 328.179 245.002C328.639 244.824 329.124 244.819 329.56 244.958V244.952Z" fill="#12006C"/>
<path fill-rule="evenodd" clip-rule="evenodd" d="M330.949 245.341C336.341 246.662 344.064 246.622 351.717 245.55C360.066 244.384 368.22 242.006 373.074 238.859C374.04 238.23 375.33 238.509 375.954 239.474C376.237 239.912 376.333 240.413 376.269 240.891H376.271C376.128 241.894 375.97 242.872 375.8 243.829C361.434 253.691 339.18 253.213 334.956 251.275C332.186 250.008 331.255 247.261 330.949 245.341Z" fill="white"/>
<path fill-rule="evenodd" clip-rule="evenodd" d="M337.434 265.341C340.854 262.933 346.334 260.99 354.41 263.211C354.41 263.211 362.515 253.152 373.357 253.456C371.298 259.48 368.531 264.139 365.334 267.387C362.149 270.621 358.517 272.493 354.694 272.963C350.867 273.434 346.914 272.49 343.096 270.101C341.17 268.891 339.267 267.306 337.434 265.341Z" fill="#2C81FE"/>
<path d="M351.95 269.443C351.917 269.443 351.883 269.442 351.848 269.437C351.459 269.381 351.189 269.021 351.243 268.63C352.027 263.062 354.61 260.653 354.718 260.552C355.008 260.286 355.456 260.307 355.722 260.595C355.987 260.886 355.968 261.336 355.682 261.602C355.659 261.626 353.363 263.81 352.653 268.83C352.605 269.189 352.299 269.443 351.95 269.443Z" fill="#12006C"/>
<path d="M321.896 521.007C368.91 521.007 407.024 482.893 407.024 435.879C407.024 388.864 368.91 350.75 321.896 350.75C274.881 350.75 236.768 388.864 236.768 435.879C236.768 482.893 274.881 521.007 321.896 521.007Z" fill="#FF75CA"/>
<path fill-rule="evenodd" clip-rule="evenodd" d="M321.895 500.135C357.287 500.135 386.151 471.272 386.151 435.879C386.151 400.491 357.287 371.626 321.895 371.626C286.506 371.626 257.641 400.491 257.641 435.879C257.639 471.272 286.505 500.135 321.895 500.135Z" fill="#2C81FE"/>
<path d="M321.896 500.846C286.07 500.846 256.928 471.701 256.928 435.879C256.928 400.056 286.072 370.912 321.896 370.912C357.72 370.912 386.864 400.058 386.864 435.879C386.864 471.703 357.718 500.846 321.896 500.846ZM321.896 372.336C286.859 372.336 258.353 400.842 258.353 435.879C258.353 470.915 286.859 499.421 321.896 499.421C356.934 499.421 385.438 470.917 385.438 435.879C385.437 400.842 356.934 372.336 321.896 372.336Z" fill="#12006C"/>
<path d="M243.989 436.594C243.594 436.594 243.277 436.277 243.277 435.883C243.277 433.859 243.354 431.807 243.506 429.776C243.537 429.386 243.885 429.101 244.271 429.122C244.663 429.151 244.959 429.491 244.929 429.887C244.778 431.88 244.703 433.899 244.703 435.885C244.703 436.277 244.383 436.594 243.989 436.594ZM244.898 424.557C244.863 424.557 244.826 424.554 244.791 424.549C244.401 424.49 244.135 424.127 244.194 423.738C250.039 385.295 282.717 357.338 321.895 357.264C322.287 357.264 322.607 357.581 322.61 357.975C322.61 358.367 322.292 358.687 321.898 358.688C283.429 358.762 251.345 386.208 245.602 423.949C245.548 424.304 245.244 424.557 244.898 424.557Z" fill="white"/>
<path d="M321.895 514.496C321.502 514.496 321.182 514.179 321.182 513.786C321.182 513.39 321.502 513.074 321.895 513.074C360.561 513.074 393.468 484.099 398.439 445.679C398.49 445.287 398.847 445.005 399.238 445.063C399.628 445.112 399.903 445.472 399.854 445.861C394.79 484.99 361.274 514.496 321.895 514.496ZM399.689 440.496C399.676 440.496 399.663 440.494 399.652 440.494C399.258 440.472 398.956 440.139 398.978 439.744C399.044 438.461 399.081 437.175 399.087 435.877C399.089 435.483 399.407 435.167 399.801 435.167H399.804C400.196 435.17 400.514 435.491 400.513 435.883C400.506 437.203 400.47 438.517 400.399 439.821C400.378 440.2 400.065 440.496 399.689 440.496Z" fill="#E33BA3"/>
<path d="M321.838 490.547C309.2 490.547 296.542 486.243 286.356 477.53C286.056 477.277 286.022 476.827 286.278 476.525C286.532 476.227 286.984 476.19 287.281 476.446C308.273 494.4 340.04 493.141 359.598 473.586C377.048 456.138 380.289 429.243 367.481 408.194C367.276 407.858 367.384 407.419 367.718 407.216C368.054 407.008 368.492 407.115 368.697 407.453C381.849 429.067 378.523 456.675 360.606 474.594C350.017 485.184 335.94 490.547 321.838 490.547ZM275.702 464.65C275.46 464.65 275.225 464.528 275.091 464.306C261.939 442.693 265.265 415.083 283.182 397.17C303.264 377.086 335.88 375.797 357.435 394.23C357.734 394.485 357.769 394.936 357.513 395.235C357.259 395.534 356.808 395.57 356.508 395.314C335.513 377.36 303.747 378.618 284.192 398.174C266.742 415.627 263.5 442.515 276.31 463.566C276.516 463.902 276.409 464.341 276.072 464.544C275.953 464.616 275.828 464.65 275.702 464.65Z" fill="#59B2FF"/>
<path d="M360.104 402.653C358.773 402.653 357.522 402.134 356.581 401.194C354.637 399.253 354.637 396.091 356.58 394.149C358.464 392.266 361.746 392.266 363.628 394.149C364.568 395.09 365.087 396.342 365.087 397.672C365.087 399.003 364.568 400.253 363.628 401.194C362.688 402.134 361.436 402.653 360.104 402.653ZM360.104 394.114C359.152 394.114 358.261 394.483 357.589 395.155C356.202 396.541 356.202 398.797 357.589 400.184C358.933 401.53 361.276 401.53 362.621 400.184C363.292 399.514 363.663 398.621 363.663 397.672C363.663 396.722 363.292 395.827 362.62 395.157C361.948 394.485 361.055 394.114 360.104 394.114Z" fill="#59B2FF"/>
<path d="M283.684 479.074C282.355 479.074 281.105 478.555 280.163 477.614C278.222 475.67 278.222 472.509 280.163 470.566C281.105 469.626 282.355 469.107 283.684 469.107C285.017 469.107 286.268 469.626 287.209 470.566C289.151 472.509 289.151 475.67 287.209 477.614C286.268 478.555 285.017 479.074 283.684 479.074ZM283.684 470.534C282.735 470.534 281.844 470.902 281.172 471.574C279.787 472.962 279.787 475.218 281.172 476.603C282.515 477.949 284.857 477.946 286.203 476.603C287.588 475.218 287.588 472.962 286.203 471.574C285.527 470.904 284.638 470.534 283.684 470.534Z" fill="#59B2FF"/>
<path fill-rule="evenodd" clip-rule="evenodd" d="M295.533 399.949H324.211C329.904 399.949 334.126 400.183 336.912 400.647C339.718 401.135 342.206 402.119 344.408 403.603C346.611 405.106 348.446 407.093 349.918 409.581C351.387 412.067 352.122 414.872 352.122 417.959C352.122 421.296 351.221 424.384 349.418 427.175C347.614 429.976 345.16 432.063 342.072 433.466C346.429 434.754 349.768 436.923 352.122 439.995C354.458 443.067 355.624 446.674 355.624 450.827C355.624 454.099 354.874 457.269 353.355 460.36C351.837 463.448 349.766 465.92 347.126 467.771C344.507 469.607 341.269 470.739 337.414 471.176C335.011 471.426 329.182 471.595 319.954 471.661H295.531V399.949H295.533ZM310.054 411.869V428.392H319.538C325.163 428.392 328.667 428.307 330.035 428.144C332.507 427.858 334.459 427.008 335.877 425.587C337.298 424.17 337.995 422.315 337.995 420.015C337.995 417.792 337.379 416.007 336.162 414.623C334.942 413.237 333.125 412.4 330.72 412.119C329.286 411.951 325.162 411.871 318.368 411.871H310.054V411.869ZM310.054 440.309V459.541H323.477C328.685 459.541 332.008 459.389 333.408 459.107C335.562 458.707 337.314 457.754 338.666 456.237C340.019 454.698 340.704 452.68 340.704 450.128C340.704 447.959 340.187 446.136 339.134 444.635C338.099 443.131 336.579 442.031 334.611 441.347C332.64 440.663 328.35 440.311 321.757 440.311H310.054V440.309Z" fill="white"/>
<path d="M313.687 393.378H306.426V406.517H313.687V393.378Z" fill="white"/>
<path d="M328.208 393.378H320.947V406.517H328.208V393.378Z" fill="white"/>
<path d="M313.687 465.072H306.426V478.21H313.687V465.072Z" fill="white"/>
<path d="M328.208 465.072H320.947V478.21H328.208V465.072Z" fill="white"/>
<path d="M521.216 500.238C520.942 500.238 520.681 500.078 520.563 499.813C520.403 499.454 520.565 499.034 520.925 498.872C535.256 492.472 530.965 464.878 530.92 464.598C530.904 464.498 530.907 464.395 530.936 464.296C530.936 464.296 535.518 447.662 537.208 441.488C537.933 438.848 536.926 435.965 534.645 434.15C532.144 432.165 528.801 431.976 525.702 433.653C518.545 437.52 514.96 441.384 514.925 441.422C514.745 441.616 514.473 441.698 514.219 441.629C513.961 441.56 513.765 441.355 513.705 441.098C513.577 440.539 500.856 384.976 497.248 372.867C495.883 368.291 492.656 365.757 488.837 366.28C484.525 366.856 480.065 371.358 479.891 378.842C479.885 379.17 479.653 379.451 479.329 379.523C479.008 379.59 478.68 379.429 478.536 379.133L459.033 338.386C458.609 337.966 456.381 335.888 453.841 335.992C452.392 336.046 451.059 336.819 449.875 338.28C445.92 343.181 448.904 355.413 451.534 366.203C451.873 367.6 452.206 368.974 452.518 370.302C455.256 381.938 458.409 394.218 458.44 394.338C458.525 394.672 458.361 395.018 458.053 395.163C457.741 395.309 457.371 395.213 457.171 394.936L417.869 340.482C417.849 340.456 415.933 337.864 413.278 337.642C411.793 337.523 410.313 338.16 408.883 339.555C408.601 339.832 408.15 339.829 407.877 339.544C407.6 339.261 407.606 338.811 407.888 338.538C409.63 336.834 411.486 336.046 413.408 336.219C416.717 336.504 418.931 339.517 419.024 339.645L456.137 391.064C454.99 386.534 452.966 378.437 451.133 370.63C450.821 369.304 450.486 367.934 450.147 366.541C447.44 355.429 444.368 342.834 448.768 337.386C450.219 335.584 451.913 334.635 453.795 334.566C457.254 334.406 460.029 337.357 460.145 337.48C460.195 337.533 460.237 337.594 460.267 337.661L478.702 376.176C479.779 369.47 484.275 365.451 488.646 364.867C492.229 364.386 496.726 366.13 498.613 372.461C501.929 383.59 512.893 431.186 514.808 439.534C516.323 438.114 519.693 435.28 525.027 432.397C528.646 430.446 532.573 430.683 535.533 433.037C538.262 435.203 539.461 438.669 538.584 441.866C536.99 447.698 532.809 462.864 532.352 464.525C532.739 467.05 536.411 493.515 521.507 500.173C521.409 500.219 521.312 500.238 521.216 500.238ZM131.577 484.522C131.483 484.522 131.392 484.502 131.301 484.466C117.304 478.587 120.136 453.963 120.451 451.538C119.974 449.954 115.79 436.005 114.189 430.632C113.304 427.666 114.352 424.4 116.856 422.314C119.573 420.058 123.235 419.75 126.657 421.498C131.6 424.027 134.769 426.555 136.24 427.859C137.893 419.834 147.025 375.678 149.864 365.307C151.493 359.358 155.664 357.634 159.016 358.01C163.072 358.459 167.317 362.053 168.504 368.189L184.753 332.173C184.785 332.107 184.825 332.045 184.873 331.992C184.979 331.872 187.526 329.067 190.749 329.134C192.513 329.163 194.117 330.011 195.515 331.667C199.729 336.651 197.141 348.424 194.854 358.813C194.568 360.115 194.288 361.394 194.025 362.637C192.513 369.781 190.84 377.19 189.862 381.466L223.105 333.149C223.19 333.029 225.195 330.166 228.286 329.829C230.078 329.635 231.833 330.323 233.501 331.878C233.789 332.147 233.803 332.597 233.537 332.888C233.267 333.173 232.816 333.189 232.529 332.922C231.181 331.662 229.806 331.101 228.448 331.243C226.011 331.502 224.296 333.934 224.28 333.96L188.913 385.355C188.72 385.638 188.352 385.742 188.04 385.603C187.726 385.464 187.555 385.122 187.632 384.789C187.659 384.674 190.331 373.202 192.629 362.341C192.891 361.098 193.174 359.814 193.461 358.507C195.675 348.442 198.184 337.034 194.425 332.586C193.309 331.264 192.065 330.581 190.734 330.56C188.443 330.552 186.4 332.462 186.005 332.867L168.747 371.114C168.613 371.416 168.286 371.584 167.963 371.52C167.64 371.459 167.4 371.181 167.385 370.853C167.07 363.938 162.859 359.869 158.861 359.424C155.326 359.035 152.405 361.427 151.241 365.68C148.142 377 137.488 428.874 137.381 429.395C137.326 429.653 137.134 429.862 136.88 429.934C136.629 430.011 136.35 429.934 136.168 429.744C136.134 429.71 132.729 426.2 126.008 422.766C123.112 421.283 120.032 421.525 117.768 423.41C115.704 425.126 114.835 427.805 115.558 430.224C117.256 435.925 121.861 451.275 121.861 451.275C121.891 451.371 121.897 451.477 121.885 451.576C121.848 451.837 118.451 477.52 131.853 483.149C132.216 483.302 132.387 483.72 132.233 484.082C132.118 484.357 131.854 484.522 131.577 484.522ZM345.238 304.037C345.2 304.037 345.163 304.035 345.125 304.026C322.414 300.392 295.971 283.118 285.315 245.779C282.857 246.194 280.441 245.57 278.12 243.942C271.019 238.952 266.774 225.763 266.201 221.106C265.294 213.733 270.165 203.469 274.886 202.798C275.635 202.693 276.48 202.786 277.403 203.067C274.657 184.942 272.901 166.981 274.544 150.517C265.413 141.558 264.715 129.485 265.326 122.208C266.686 106.035 276.405 89.1696 286.126 86.1136C290.005 84.8944 293.502 86.0032 296.245 89.3104C296.496 89.6144 296.454 90.064 296.15 90.3136C295.848 90.5648 295.397 90.5232 295.147 90.2208C292.771 87.3552 289.878 86.4304 286.553 87.4752C277.317 90.3744 268.059 106.659 266.747 122.328C266.016 131.016 267.219 146.834 283.467 155.122C283.817 155.298 283.957 155.73 283.777 156.078C283.598 156.432 283.168 156.57 282.817 156.39C280.117 155.014 277.816 153.438 275.857 151.733C273.755 174.978 278.349 201.264 282.79 226.702L283.937 233.283C291.731 278.408 320.769 298.686 345.349 302.619C345.736 302.678 346.001 303.045 345.939 303.435C345.885 303.784 345.581 304.037 345.238 304.037ZM275.518 204.178C275.366 204.178 275.221 204.19 275.085 204.211C271.472 204.722 266.755 213.941 267.616 220.928C268.166 225.403 272.206 238.042 278.937 242.771C280.891 244.144 282.899 244.686 284.929 244.395C283.993 240.941 283.189 237.318 282.533 233.525L281.389 226.947C280.097 219.562 278.795 212.104 277.646 204.666C276.846 204.344 276.134 204.178 275.518 204.178Z" fill="white"/>
<path d="M321.896 529.939C298.256 529.939 275.656 521.134 258.261 505.146C257.971 504.882 257.952 504.43 258.219 504.141C258.486 503.846 258.936 503.832 259.227 504.098C276.357 519.845 298.614 528.517 321.898 528.517C347.44 528.517 371.227 518.342 388.88 499.869C389.15 499.582 389.602 499.574 389.886 499.846C390.171 500.117 390.182 500.57 389.909 500.853C371.984 519.611 347.832 529.939 321.896 529.939ZM231.184 414.486C231.128 414.486 231.072 414.478 231.013 414.466C230.63 414.373 230.395 413.987 230.49 413.606C238.984 378.629 267.222 351.24 302.437 343.837C302.824 343.75 303.203 344.002 303.282 344.387C303.363 344.773 303.115 345.152 302.73 345.232C268.051 352.526 240.238 379.498 231.874 413.939C231.797 414.267 231.504 414.486 231.184 414.486Z" fill="white"/>
<path fill-rule="evenodd" clip-rule="evenodd" d="M520.781 114.731H613.955C616.726 114.731 619.253 115.869 621.083 117.698L621.086 117.703H621.088L621.099 117.712C622.925 119.544 624.056 122.066 624.056 124.834V161.047C624.056 163.826 622.92 166.352 621.09 168.183C619.259 170.013 616.734 171.149 613.957 171.149H520.782C518.006 171.149 515.482 170.011 513.651 168.183L513.645 168.178C511.816 166.349 510.682 163.824 510.682 161.047V124.834C510.682 122.053 511.816 119.528 513.645 117.698C515.475 115.869 518.002 114.731 520.781 114.731Z" fill="#59B2FF"/>
<path fill-rule="evenodd" clip-rule="evenodd" d="M512.103 108.424H605.274C610.045 108.424 613.951 112.328 613.951 117.101V153.313C613.951 158.086 610.047 161.99 605.274 161.99H512.103C507.331 161.99 503.426 158.088 503.426 153.313V117.101C503.426 112.328 507.331 108.424 512.103 108.424Z" fill="#59B2FF"/>
<path fill-rule="evenodd" clip-rule="evenodd" d="M535.925 134.658C537.424 133.883 538.274 132.533 538.274 130.859C538.274 128.16 536.026 126.285 531.426 126.285H522.479V143.781H531.925C536.624 143.781 539.122 142.01 539.122 138.984C539.122 136.858 537.898 135.357 535.925 134.658ZM530.775 129.858C532.423 129.858 533.275 130.432 533.275 131.535C533.275 132.656 532.424 133.235 530.775 133.235H527.376V129.858H530.775ZM531.525 140.205H527.376V136.655H531.525C533.226 136.655 534.125 137.229 534.125 138.431C534.125 139.631 533.224 140.205 531.525 140.205ZM549.771 144.128C554.943 144.128 557.994 141.207 557.994 135.979V126.282H553.12V135.831C553.12 138.829 551.871 140.029 549.823 140.029C547.746 140.029 546.498 138.829 546.498 135.831V126.282H541.549V135.979C541.549 141.207 544.597 144.128 549.771 144.128ZM577.165 126.283H572.365L568.216 133.235L564.067 126.283H558.842L565.515 137.432V143.779H570.466V137.507L577.165 126.283Z" fill="white"/>
<path fill-rule="evenodd" clip-rule="evenodd" d="M613.248 159.725L631.473 154.035L596.441 142.92L607.555 177.954L613.248 159.725Z" fill="white"/>
<path d="M607.556 180.091C606.626 180.091 605.799 179.488 605.517 178.597L594.402 143.565C594.162 142.801 594.365 141.971 594.928 141.405C595.495 140.84 596.327 140.638 597.09 140.88L632.122 151.995C633.013 152.277 633.616 153.104 633.615 154.037C633.613 154.971 633.004 155.798 632.114 156.075L614.959 161.43L609.6 178.585C609.322 179.478 608.498 180.086 607.564 180.088C607.56 180.091 607.556 180.091 607.556 180.091ZM599.73 146.208L607.541 170.829L611.208 159.089C611.416 158.417 611.941 157.894 612.612 157.686L624.351 154.019L599.73 146.208Z" fill="white"/>
<path d="M587.345 135.248C586.978 135.248 586.617 135.11 586.335 134.83L584.988 133.483C584.431 132.925 584.431 132.024 584.988 131.464C585.548 130.909 586.449 130.909 587.006 131.466L588.354 132.816C588.91 133.376 588.91 134.275 588.354 134.835C588.073 135.112 587.708 135.248 587.345 135.248Z" fill="white"/>
<path d="M583.579 144.345H581.673C580.886 144.345 580.244 143.707 580.244 142.918C580.244 142.131 580.884 141.493 581.673 141.493H583.579C584.366 141.493 585.004 142.129 585.004 142.918C585.004 143.707 584.366 144.345 583.579 144.345Z" fill="white"/>
<path d="M585.998 154.789C585.631 154.789 585.27 154.649 584.988 154.371C584.431 153.814 584.431 152.912 584.988 152.353L586.335 151.006C586.895 150.446 587.794 150.446 588.354 151.005C588.91 151.561 588.91 152.464 588.354 153.021L587.006 154.371C586.729 154.651 586.361 154.789 585.998 154.789Z" fill="white"/>
<path d="M596.441 131.481C595.654 131.481 595.016 130.846 595.016 130.057V128.15C595.016 127.363 595.652 126.725 596.441 126.725C597.227 126.725 597.867 127.361 597.867 128.15V130.057C597.867 130.846 597.227 131.481 596.441 131.481Z" fill="white"/>
<path d="M605.538 135.248C605.171 135.248 604.805 135.112 604.528 134.83C603.97 134.275 603.97 133.376 604.528 132.816L605.877 131.465C606.434 130.909 607.336 130.909 607.893 131.465C608.451 132.024 608.451 132.925 607.893 133.483L606.544 134.83C606.264 135.112 605.903 135.248 605.538 135.248Z" fill="white"/>
<path d="M590.482 163.414H512.102C506.531 163.414 502 158.885 502 153.314V117.101C502 111.533 506.533 107 512.102 107H605.274C610.843 107 615.376 111.533 615.376 117.101V153.314C615.376 154.101 614.738 154.741 613.949 154.741C613.16 154.741 612.523 154.102 612.523 153.314V117.101C612.523 113.102 609.272 109.851 605.272 109.851H512.101C508.102 109.851 504.851 113.102 504.851 117.101V153.314C504.851 157.314 508.102 160.565 512.101 160.565H590.48C591.267 160.565 591.906 161.202 591.906 161.99C591.907 162.779 591.27 163.414 590.482 163.414Z" fill="white"/>
<path fill-rule="evenodd" clip-rule="evenodd" d="M18.7808 327.731H111.955C114.726 327.731 117.253 328.869 119.083 330.698L119.086 330.702H119.088L119.099 330.712C120.925 332.544 122.056 335.066 122.056 337.834V374.046C122.056 376.826 120.92 379.352 119.09 381.182C117.259 383.013 114.734 384.149 111.957 384.149H18.7824C16.0064 384.149 13.4816 383.011 11.6512 381.182L11.6448 381.178C9.81602 379.349 8.68164 376.824 8.68164 374.046V337.834C8.68164 335.053 9.81602 332.528 11.6448 330.698C13.4752 328.869 16.0016 327.731 18.7808 327.731Z" fill="#6159FF"/>
<path fill-rule="evenodd" clip-rule="evenodd" d="M10.1026 321.424H103.274C108.045 321.424 111.951 325.328 111.951 330.101V366.314C111.951 371.086 108.047 374.99 103.274 374.99H10.1026C5.33139 374.99 1.42578 371.088 1.42578 366.314V330.101C1.42578 325.328 5.33139 321.424 10.1026 321.424Z" fill="#6159FF"/>
<path d="M31.2898 344C31.2367 343.337 30.9882 342.82 30.544 342.449C30.1065 342.078 29.4403 341.892 28.5455 341.892C27.9754 341.892 27.508 341.962 27.1435 342.101C26.7855 342.233 26.5204 342.416 26.348 342.648C26.1757 342.88 26.0862 343.145 26.0795 343.443C26.0663 343.688 26.1094 343.911 26.2088 344.109C26.3149 344.302 26.4806 344.477 26.706 344.636C26.9313 344.789 27.2197 344.928 27.571 345.054C27.9223 345.18 28.34 345.293 28.8239 345.392L30.4943 345.75C31.6212 345.989 32.5857 346.304 33.3878 346.695C34.1899 347.086 34.8461 347.546 35.3565 348.077C35.867 348.6 36.2415 349.19 36.4801 349.847C36.7254 350.503 36.8513 351.219 36.858 351.994C36.8513 353.333 36.5166 354.467 35.8537 355.395C35.1908 356.323 34.2429 357.029 33.0099 357.513C31.7836 357.997 30.3087 358.239 28.5852 358.239C26.8153 358.239 25.2708 357.977 23.9517 357.453C22.6392 356.929 21.6184 356.124 20.8892 355.037C20.1667 353.943 19.8021 352.545 19.7955 350.841H25.0455C25.0786 351.464 25.2344 351.988 25.5128 352.412C25.7912 352.836 26.1823 353.158 26.6861 353.376C27.1965 353.595 27.803 353.705 28.5057 353.705C29.0956 353.705 29.5895 353.632 29.9872 353.486C30.3849 353.34 30.6866 353.138 30.892 352.879C31.0975 352.621 31.2036 352.326 31.2102 351.994C31.2036 351.683 31.1009 351.411 30.902 351.179C30.7098 350.94 30.3916 350.728 29.9474 350.543C29.5033 350.35 28.9034 350.171 28.1477 350.006L26.1193 349.568C24.3163 349.177 22.8944 348.524 21.8537 347.609C20.8196 346.688 20.3059 345.432 20.3125 343.841C20.3059 342.548 20.6506 341.418 21.3466 340.45C22.0492 339.476 23.0204 338.717 24.2599 338.173C25.5062 337.63 26.9347 337.358 28.5455 337.358C30.1894 337.358 31.6113 337.633 32.8111 338.183C34.0109 338.733 34.9356 339.509 35.5852 340.51C36.2415 341.504 36.5729 342.668 36.5795 344H31.2898ZM38.9609 358V337.636H53.6371V342.091H44.4893V345.591H52.8814V350.045H44.4893V353.545H53.5973V358H38.9609ZM56.3789 358V337.636H61.9073V353.545H70.1403V358H56.3789ZM72.375 358V337.636H77.9034V353.545H86.1364V358H72.375Z" fill="white"/>
<path fill-rule="evenodd" clip-rule="evenodd" d="M111.246 372.725L129.471 367.035L94.4395 355.92L105.553 390.954L111.246 372.725Z" fill="white"/>
<path d="M105.554 393.091C104.624 393.091 103.797 392.488 103.515 391.597L92.4 356.565C92.16 355.802 92.3632 354.971 92.9264 354.405C93.4928 353.84 94.3248 353.638 95.088 353.88L130.12 364.995C131.011 365.277 131.614 366.104 131.613 367.037C131.611 367.971 131.002 368.798 130.112 369.075L112.957 374.43L107.598 391.586C107.32 392.478 106.496 393.086 105.562 393.088C105.558 393.091 105.554 393.091 105.554 393.091ZM97.728 359.208L105.539 383.829L109.206 372.09C109.414 371.418 109.939 370.894 110.61 370.686L122.349 367.019L97.728 359.208Z" fill="white"/>
<path d="M85.3447 348.248C84.9783 348.248 84.6167 348.11 84.3351 347.83L82.9879 346.483C82.4311 345.925 82.4311 345.024 82.9879 344.464C83.5479 343.909 84.4487 343.909 85.0055 344.466L86.3543 345.816C86.9095 346.376 86.9095 347.275 86.3543 347.835C86.0727 348.112 85.7079 348.248 85.3447 348.248Z" fill="white"/>
<path d="M83.9975 367.789C83.6311 367.789 83.2695 367.65 82.9879 367.371C82.4311 366.814 82.4311 365.912 82.9879 365.354L84.3351 364.006C84.8951 363.446 85.7943 363.446 86.3543 364.005C86.9095 364.562 86.9095 365.464 86.3543 366.021L85.0055 367.371C84.7287 367.651 84.3607 367.789 83.9975 367.789Z" fill="white"/>
<path d="M94.4413 344.482C93.6541 344.482 93.0156 343.846 93.0156 343.058V341.15C93.0156 340.363 93.6525 339.725 94.4413 339.725C95.2269 339.725 95.8668 340.362 95.8668 341.15V343.058C95.8668 343.846 95.2269 344.482 94.4413 344.482Z" fill="white"/>
<path d="M103.538 348.248C103.171 348.248 102.805 348.112 102.528 347.831C101.97 347.275 101.97 346.376 102.528 345.816L103.877 344.466C104.434 343.909 105.336 343.909 105.893 344.466C106.451 345.024 106.451 345.925 105.893 346.483L104.544 347.831C104.264 348.112 103.903 348.248 103.538 348.248Z" fill="white"/>
<path d="M88.4816 376.414H10.1024C4.53124 376.414 0 371.885 0 366.314V330.101C0 324.533 4.53284 320 10.1024 320H103.274C108.843 320 113.376 324.533 113.376 330.101V366.314C113.376 367.101 112.738 367.741 111.949 367.741C111.16 367.741 110.523 367.102 110.523 366.314V330.101C110.523 326.102 107.272 322.851 103.272 322.851H10.1008C6.10243 322.851 2.85122 326.102 2.85122 330.101V366.314C2.85122 370.314 6.10243 373.565 10.1008 373.565H88.48C89.2672 373.565 89.9056 374.202 89.9056 374.99C89.9072 375.779 89.2704 376.414 88.4816 376.414Z" fill="white"/>
<path fill-rule="evenodd" clip-rule="evenodd" d="M225.33 142.465H214.939L220.135 134.083L225.33 142.465Z" fill="white"/>
<path d="M225.367 143.178C225.356 143.178 225.343 143.178 225.332 143.178H214.942C214.683 143.178 214.444 143.037 214.318 142.811C214.193 142.584 214.199 142.309 214.335 142.086L219.531 133.707C219.791 133.286 220.483 133.286 220.743 133.707L225.841 141.931C225.988 142.059 226.081 142.253 226.081 142.466C226.081 142.859 225.761 143.178 225.367 143.178ZM216.22 141.75H224.052L220.137 135.435L216.22 141.75Z" fill="white"/>
<path d="M224.858 156.827C224.611 156.827 224.382 156.699 224.251 156.49L219.056 148.107C218.92 147.888 218.914 147.61 219.038 147.386C219.163 147.158 219.403 147.018 219.661 147.018H230.053C230.312 147.018 230.55 147.158 230.677 147.386C230.802 147.611 230.797 147.888 230.659 148.107L225.464 156.49C225.333 156.698 225.102 156.827 224.858 156.827ZM220.942 148.443L224.858 154.758L228.773 148.443H220.942Z" fill="#59B2FF"/>
<path fill-rule="evenodd" clip-rule="evenodd" d="M485.525 250.669H475.135L480.33 259.051L485.525 250.669Z" fill="white"/>
<path d="M480.331 259.767C480.084 259.767 479.854 259.637 479.724 259.429L474.529 251.045C474.392 250.826 474.387 250.551 474.512 250.323C474.638 250.096 474.875 249.955 475.136 249.955H485.526C485.785 249.955 486.022 250.096 486.15 250.323C486.275 250.551 486.268 250.826 486.132 251.045L480.937 259.429C480.808 259.637 480.576 259.767 480.331 259.767ZM476.417 251.383L480.331 257.698L484.244 251.383H476.417Z" fill="white"/>
<path d="M490.286 246.115C490.273 246.115 490.26 246.115 490.251 246.115H479.859C479.599 246.115 479.361 245.974 479.236 245.749C479.111 245.523 479.116 245.246 479.254 245.026L484.449 236.643C484.708 236.224 485.401 236.224 485.662 236.643L490.758 244.869C490.907 244.998 490.999 245.189 490.999 245.403C490.998 245.798 490.678 246.115 490.286 246.115ZM481.139 244.688H488.967L485.055 238.373L481.139 244.688Z" fill="#59B2FF"/>
<path fill-rule="evenodd" clip-rule="evenodd" d="M497.783 554.424H487.391L492.587 546.038L497.783 554.424Z" fill="white"/>
<path d="M497.818 555.134C497.806 555.138 497.795 555.138 497.783 555.134H487.391C487.132 555.134 486.894 554.994 486.769 554.768C486.643 554.542 486.647 554.265 486.785 554.046L491.982 545.662C492.113 545.454 492.342 545.325 492.588 545.325C492.834 545.325 493.063 545.454 493.194 545.662L498.292 553.89C498.439 554.018 498.532 554.211 498.532 554.424C498.53 554.818 498.212 555.134 497.818 555.134ZM488.671 553.709H496.503L492.588 547.392L488.671 553.709Z" fill="white"/>
<path d="M497.31 568.784C497.064 568.784 496.835 568.656 496.702 568.446L491.507 560.064C491.371 559.843 491.365 559.566 491.49 559.341C491.616 559.115 491.854 558.976 492.114 558.976H502.506C502.763 558.976 503.003 559.117 503.13 559.341C503.254 559.568 503.248 559.843 503.112 560.064L497.917 568.446C497.786 568.656 497.557 568.784 497.31 568.784ZM493.395 560.401L497.31 566.718L501.224 560.401H493.395Z" fill="#59B2FF"/>
<path fill-rule="evenodd" clip-rule="evenodd" d="M202.226 550.605H191.832L197.03 558.984L202.226 550.605Z" fill="white"/>
<path d="M197.031 559.698C196.784 559.698 196.556 559.568 196.424 559.36L191.228 550.978C191.092 550.758 191.085 550.483 191.212 550.256C191.336 550.029 191.575 549.89 191.834 549.89H202.226C202.484 549.89 202.722 550.029 202.85 550.256C202.975 550.485 202.968 550.757 202.831 550.978L197.637 559.36C197.504 559.568 197.277 559.698 197.031 559.698ZM193.114 551.315L197.029 557.63L200.941 551.315H193.114Z" fill="white"/>
<path d="M206.982 546.05C206.971 546.05 206.958 546.05 206.945 546.05H196.555C196.296 546.05 196.057 545.909 195.931 545.682C195.806 545.456 195.813 545.181 195.949 544.958L201.144 536.581C201.277 536.368 201.505 536.243 201.752 536.243C201.997 536.243 202.225 536.368 202.358 536.581L207.454 544.803C207.603 544.931 207.694 545.125 207.694 545.338C207.696 545.731 207.376 546.05 206.982 546.05ZM197.837 544.622H205.667L201.753 538.309L197.837 544.622Z" fill="#59B2FF"/>
<path fill-rule="evenodd" clip-rule="evenodd" d="M174.533 193.109C176.776 193.109 178.61 194.946 178.61 197.19V238.982C178.61 241.225 176.776 243.059 174.533 243.059C172.291 243.059 170.455 241.223 170.455 238.982V197.19C170.455 194.946 172.289 193.109 174.533 193.109Z" fill="white"/>
<path fill-rule="evenodd" clip-rule="evenodd" d="M166.593 210.844C168.718 210.844 170.458 212.582 170.458 214.707V237.418C170.458 235.293 168.718 233.555 166.593 233.555C164.468 233.555 162.73 235.293 162.73 237.418V214.707C162.729 212.582 164.468 210.844 166.593 210.844Z" fill="white"/>
<path fill-rule="evenodd" clip-rule="evenodd" d="M157.249 212.791C160.263 212.791 162.729 215.259 162.729 218.271V251.82C162.729 254.832 160.263 257.3 157.249 257.3C154.237 257.3 151.77 254.832 151.77 251.82V218.271C151.77 215.257 154.235 212.791 157.249 212.791Z" fill="white"/>
<path fill-rule="evenodd" clip-rule="evenodd" d="M146.294 212.566C149.308 212.566 151.772 215.034 151.772 218.046V237.354C151.772 234.342 149.308 231.875 146.294 231.875C143.28 231.875 140.812 234.34 140.812 237.354V218.046C140.813 215.034 143.278 212.566 146.294 212.566Z" fill="white"/>
<path fill-rule="evenodd" clip-rule="evenodd" d="M131.569 212.566C136.654 212.566 140.809 216.725 140.809 221.809V240.975C140.809 246.058 136.652 250.217 131.569 250.217C126.485 250.217 122.326 246.058 122.326 240.975V221.809C122.326 216.725 126.485 212.566 131.569 212.566Z" fill="white"/>
<path fill-rule="evenodd" clip-rule="evenodd" d="M169.776 135.864C189.862 147.458 194.787 176.529 180.779 200.795C166.768 225.058 139.131 235.326 119.045 223.731L110.224 218.639L110.979 217.334C97.9063 203.436 96.1586 179.391 108.046 158.8C119.932 138.212 141.631 127.703 160.203 132.076L160.955 130.773L169.776 135.864Z" fill="#2C81FE"/>
<path fill-rule="evenodd" clip-rule="evenodd" d="M175.054 209.065C167.85 217.828 158.669 223.918 149.119 226.732L116.443 207.866L130.578 183.388L175.054 209.065Z" fill="#12006C"/>
<path fill-rule="evenodd" clip-rule="evenodd" d="M160.954 130.771C181.042 142.365 185.965 171.438 171.957 195.7C157.949 219.963 130.309 230.233 110.225 218.639C90.1408 207.043 85.2156 177.974 99.2234 153.708C113.231 129.443 140.87 119.175 160.954 130.771Z" fill="#59B2FF"/>
<path fill-rule="evenodd" clip-rule="evenodd" d="M154.739 141.543C169.897 150.295 173.616 172.236 163.04 190.552C152.467 208.867 131.606 216.62 116.445 207.866C101.286 199.113 97.5677 177.171 108.14 158.856C118.716 140.541 139.578 132.79 154.739 141.543Z" fill="#FF75CA"/>
<path d="M130.128 212.326C125.035 212.326 120.287 211.075 116.014 208.609C108.458 204.246 103.407 196.603 101.797 187.089C100.193 177.637 102.183 167.457 107.399 158.427C114.882 145.46 128.094 137.084 141.052 137.084C146.145 137.084 150.893 138.335 155.164 140.801C162.722 145.16 167.771 152.805 169.384 162.317C170.987 171.773 168.995 181.95 163.783 190.981C156.298 203.946 143.087 212.326 130.128 212.326ZM141.052 138.799C128.696 138.799 116.068 146.838 108.883 159.285C103.869 167.969 101.954 177.743 103.488 186.804C105.013 195.802 109.767 203.02 116.874 207.123C120.88 209.435 125.339 210.609 130.13 210.609C142.486 210.609 155.114 202.566 162.299 190.123C167.313 181.436 169.228 171.665 167.692 162.601C166.17 153.604 161.414 146.386 154.308 142.284C150.301 139.971 145.841 138.799 141.052 138.799Z" fill="#12006C"/>
<path d="M102.31 156.348C102.165 156.348 102.019 156.31 101.882 156.233C101.472 155.996 101.332 155.471 101.567 155.063C102.183 153.997 102.827 152.957 103.497 151.949C103.757 151.556 104.29 151.446 104.685 151.712C105.079 151.974 105.187 152.505 104.925 152.899C104.277 153.877 103.651 154.886 103.055 155.919C102.895 156.193 102.606 156.348 102.31 156.348ZM106.284 150.361C106.103 150.361 105.922 150.303 105.766 150.184C105.389 149.899 105.316 149.362 105.603 148.983C119.692 130.406 142.249 123.996 159.232 133.755C159.642 133.989 159.785 134.515 159.548 134.923C159.315 135.333 158.793 135.485 158.38 135.24C142.149 125.927 120.533 132.14 106.969 150.02C106.8 150.241 106.546 150.361 106.284 150.361Z" fill="white"/>
<path d="M128.887 220.093C122.95 220.093 117.156 218.657 111.95 215.651C111.54 215.414 111.4 214.891 111.636 214.479C111.875 214.071 112.399 213.932 112.807 214.167C129.097 223.571 151.516 216.775 164.952 198.356C165.231 197.975 165.766 197.89 166.149 198.169C166.53 198.448 166.615 198.983 166.336 199.366C156.643 212.656 142.397 220.093 128.887 220.093ZM167.658 196.764C167.502 196.764 167.341 196.722 167.198 196.629C166.798 196.375 166.683 195.846 166.937 195.448C167.345 194.803 167.743 194.152 168.13 193.488C168.369 193.076 168.89 192.94 169.302 193.178C169.712 193.417 169.851 193.942 169.612 194.35C169.213 195.034 168.804 195.707 168.382 196.367C168.22 196.623 167.943 196.764 167.658 196.764Z" fill="#2C81FE"/>
<path d="M131.006 206.48C127.07 206.48 123.273 205.57 119.847 203.766C113.727 200.542 109.35 194.757 107.527 187.476C107.412 187.02 107.691 186.55 108.151 186.436C108.603 186.319 109.073 186.598 109.19 187.06C110.893 193.862 114.962 199.257 120.646 202.248C126.443 205.298 133.397 205.581 140.23 203.043C152.742 198.392 162.034 185.451 162.829 171.568C162.856 171.097 163.247 170.75 163.734 170.76C164.207 170.787 164.569 171.193 164.542 171.664C163.709 186.207 153.96 199.771 140.828 204.65C137.545 205.87 134.228 206.48 131.006 206.48ZM107.498 178.647C107.481 178.647 107.464 178.647 107.448 178.647C106.975 178.618 106.615 178.214 106.64 177.741C107.471 163.2 117.224 149.636 130.354 144.757C137.652 142.043 145.105 142.361 151.337 145.639C157.455 148.863 161.832 154.648 163.655 161.929C163.768 162.389 163.491 162.855 163.031 162.969C162.575 163.082 162.107 162.805 161.992 162.345C160.287 155.545 156.22 150.15 150.536 147.157C144.741 144.103 137.785 143.822 130.951 146.361C118.438 151.011 109.146 163.952 108.353 177.835C108.326 178.293 107.947 178.647 107.498 178.647Z" fill="#E33BA3"/>
<path d="M162.937 167.707C161.596 167.707 160.497 166.745 160.264 165.365C159.979 163.683 161.009 161.897 162.608 161.302C164.277 160.684 166.038 161.71 166.333 163.452C166.619 165.136 165.588 166.922 163.986 167.515C163.642 167.644 163.288 167.707 162.937 167.707ZM163.661 162.822C163.513 162.822 163.361 162.851 163.207 162.909C162.381 163.217 161.808 164.21 161.956 165.078C162.077 165.804 162.697 166.16 163.394 165.908C164.217 165.6 164.793 164.607 164.645 163.737C164.548 163.175 164.171 162.822 163.661 162.822Z" fill="#E33BA3"/>
<path d="M107.521 188.302C106.182 188.302 105.083 187.338 104.848 185.956C104.563 184.273 105.593 182.487 107.194 181.893C108.861 181.271 110.624 182.301 110.92 184.042C111.203 185.728 110.174 187.513 108.572 188.105C108.23 188.232 107.874 188.302 107.521 188.302ZM108.245 183.413C108.099 183.413 107.947 183.442 107.793 183.5C106.967 183.808 106.392 184.799 106.54 185.667C106.663 186.396 107.283 186.754 107.976 186.496C108.801 186.188 109.375 185.197 109.225 184.327C109.132 183.763 108.755 183.413 108.245 183.413Z" fill="#E33BA3"/>
<path d="M137.132 229.34C130.673 229.34 124.344 227.777 118.62 224.472C118.21 224.236 118.07 223.71 118.306 223.302C118.541 222.892 119.069 222.754 119.477 222.988C139.116 234.325 166.287 224.18 180.039 200.364C180.274 199.956 180.799 199.815 181.209 200.052C181.619 200.287 181.759 200.81 181.521 201.222C171.28 218.968 153.769 229.34 137.132 229.34Z" fill="white"/>
<path fill-rule="evenodd" clip-rule="evenodd" d="M157.249 261.845C160.263 261.845 162.729 264.309 162.729 267.325V268.52C162.729 271.532 160.263 274 157.249 274C154.237 274 151.77 271.534 151.77 268.52V267.325C151.77 264.309 154.235 261.845 157.249 261.845Z" fill="white"/>
<path fill-rule="evenodd" clip-rule="evenodd" d="M145.204 152.248L121.958 163.244C121.036 163.681 120.461 164.62 120.435 165.575H120.434L119.845 189.366C119.81 190.704 120.834 191.724 122.127 191.645C122.414 191.627 122.689 191.558 122.943 191.447L144.881 182.349C145.868 181.937 146.502 180.949 146.519 179.941L148.393 154.4C148.495 153.063 147.531 151.987 146.24 152C145.876 152 145.524 152.093 145.204 152.248ZM125.039 168.77L128.013 178.32L128.026 178.368L128.028 178.376L128.046 178.426L128.048 178.43L128.067 178.48L128.103 178.574L128.109 178.59L128.111 178.592L128.13 178.64L128.132 178.644L128.153 178.69L128.157 178.696L128.178 178.74L128.207 178.788L128.213 178.798L128.234 178.836C128.369 179.063 128.538 179.256 128.737 179.413L128.754 179.427L128.779 179.446L128.798 179.46L128.823 179.477L128.843 179.492L128.868 179.51L128.889 179.523L128.914 179.54L128.935 179.552L128.962 179.565L128.983 179.581C129.201 179.706 129.443 179.796 129.701 179.839L129.745 179.846H129.757L129.811 179.854L129.859 179.86H129.866L129.916 179.862H129.924L129.976 179.864L129.993 179.866H130.094L130.151 179.864H130.155L130.209 179.862H130.215L130.265 179.86L140.246 179.19L124.624 185.671L125.039 168.77ZM132.001 174.917L128.945 165.09L143.445 158.232L142.269 174.23L132.001 174.917Z" fill="white"/>
</svg>
