<svg width="2257" height="665" viewBox="0 0 2257 665" fill="none" xmlns="http://www.w3.org/2000/svg">
<mask id="mask0_4129_2911" style="mask-type:alpha" maskUnits="userSpaceOnUse" x="0" y="0" width="2257" height="665">
<rect width="2257" height="665" fill="url(#paint0_linear_4129_2911)"/>
</mask>
<g mask="url(#mask0_4129_2911)">
<line x1="2257" y1="665.128" x2="0.154541" y2="665.128" stroke="#848484" stroke-opacity="0.25" stroke-width="0.484489"/>
<line x1="2256.76" y1="664.885" x2="2256.76" y2="2.00101" stroke="#848484" stroke-opacity="0.25" stroke-width="0.484489"/>
<line x1="2124" y1="664.887" x2="2124" y2="2.00229" stroke="#848484" stroke-opacity="0.25" stroke-width="0.484489"/>
<line x1="1991.25" y1="664.887" x2="1991.25" y2="2.00229" stroke="#848484" stroke-opacity="0.25" stroke-width="0.484489"/>
<line x1="1858.49" y1="664.887" x2="1858.49" y2="2.00229" stroke="#848484" stroke-opacity="0.25" stroke-width="0.484489"/>
<line x1="1725.73" y1="664.887" x2="1725.73" y2="2.00229" stroke="#848484" stroke-opacity="0.25" stroke-width="0.484489"/>
<line x1="1592.98" y1="664.887" x2="1592.98" y2="2.0023" stroke="#848484" stroke-opacity="0.25" stroke-width="0.484489"/>
<line x1="1460.22" y1="664.887" x2="1460.22" y2="2.00229" stroke="#848484" stroke-opacity="0.25" stroke-width="0.484489"/>
<line x1="1327.47" y1="664.886" x2="1327.47" y2="2.00189" stroke="#848484" stroke-opacity="0.25" stroke-width="0.484489"/>
<line x1="1194.72" y1="664.886" x2="1194.72" y2="2.00189" stroke="#848484" stroke-opacity="0.25" stroke-width="0.484489"/>
<line x1="1061.96" y1="664.886" x2="1061.96" y2="2.00189" stroke="#848484" stroke-opacity="0.25" stroke-width="0.484489"/>
<line x1="929.202" y1="664.886" x2="929.202" y2="2.00189" stroke="#848484" stroke-opacity="0.25" stroke-width="0.484489"/>
<line x1="796.449" y1="664.886" x2="796.449" y2="2.00189" stroke="#848484" stroke-opacity="0.25" stroke-width="0.484489"/>
<line x1="663.69" y1="664.886" x2="663.69" y2="2.00189" stroke="#848484" stroke-opacity="0.25" stroke-width="0.484489"/>
<line x1="530.936" y1="664.887" x2="530.936" y2="2.00229" stroke="#848484" stroke-opacity="0.25" stroke-width="0.484489"/>
<line x1="398.178" y1="664.887" x2="398.178" y2="2.00229" stroke="#848484" stroke-opacity="0.25" stroke-width="0.484489"/>
<line x1="265.423" y1="664.887" x2="265.423" y2="2.00229" stroke="#848484" stroke-opacity="0.25" stroke-width="0.484489"/>
<line x1="264.643" y1="402.274" x2="264.643" y2="2.00094" stroke="url(#paint1_radial_4129_2911)" stroke-width="0.484489"/>
<line x1="531.977" y1="266.727" x2="531.977" y2="667" stroke="url(#paint2_radial_4129_2911)" stroke-width="0.484489"/>
<line y1="-0.242244" x2="400.273" y2="-0.242244" transform="matrix(1.19249e-08 -1 -1 -1.19249e-08 929.891 493.336)" stroke="url(#paint3_radial_4129_2911)" stroke-width="0.484489"/>
<line x1="1327.8" y1="664.881" x2="1327.8" y2="294.257" stroke="url(#paint4_radial_4129_2911)" stroke-width="0.484489"/>
<line x1="1725.96" y1="573.813" x2="1725.96" y2="203.19" stroke="url(#paint5_radial_4129_2911)" stroke-width="0.484489"/>
<line x1="2124.11" y1="385.325" x2="2124.11" y2="14.7013" stroke="url(#paint6_radial_4129_2911)" stroke-width="0.484489"/>
<line x1="132.666" y1="664.887" x2="132.666" y2="2.00229" stroke="#848484" stroke-opacity="0.25" stroke-width="0.484489"/>
<line x1="-0.0859944" y1="664.887" x2="-0.0860525" y2="2.00229" stroke="#848484" stroke-opacity="0.25" stroke-width="0.484489"/>
<line x1="2257" y1="532.551" x2="0.154541" y2="532.551" stroke="#848484" stroke-opacity="0.25" stroke-width="0.484489"/>
<line x1="2257" y1="399.975" x2="0.154541" y2="399.975" stroke="#848484" stroke-opacity="0.25" stroke-width="0.484489"/>
<line x1="2257" y1="267.398" x2="0.154541" y2="267.398" stroke="#848484" stroke-opacity="0.25" stroke-width="0.484489"/>
<line x1="2257" y1="134.821" x2="0.154541" y2="134.821" stroke="#848484" stroke-opacity="0.25" stroke-width="0.484489"/>
<line x1="2257" y1="2.24359" x2="0.154541" y2="2.24359" stroke="#848484" stroke-opacity="0.25" stroke-width="0.484489"/>
<rect x="1458.57" y="532.309" width="130.859" height="130.683" transform="rotate(180 1458.57 532.309)" fill="#616161" fill-opacity="0.03"/>
<rect x="1856.83" y="267.155" width="130.859" height="130.683" transform="rotate(180 1856.83 267.155)" fill="#616161" fill-opacity="0.03"/>
<rect x="1060.3" y="267.156" width="130.859" height="130.683" transform="rotate(180 1060.3 267.156)" fill="#616161" fill-opacity="0.03"/>
<rect x="662.033" y="532.309" width="130.859" height="130.683" transform="rotate(180 662.033 532.309)" fill="#656565" fill-opacity="0.04"/>
</g>
<defs>
<linearGradient id="paint0_linear_4129_2911" x1="1168" y1="1.15385e-05" x2="1168" y2="500" gradientUnits="userSpaceOnUse">
<stop/>
<stop offset="1" stop-opacity="0"/>
</linearGradient>
<radialGradient id="paint1_radial_4129_2911" cx="0" cy="0" r="1" gradientUnits="userSpaceOnUse" gradientTransform="translate(264.517 116.456) rotate(90) scale(142.59 34899.5)">
<stop stop-color="#FFF250"/>
<stop offset="1" stop-color="#FFF250" stop-opacity="0"/>
</radialGradient>
<radialGradient id="paint2_radial_4129_2911" cx="0" cy="0" r="1" gradientUnits="userSpaceOnUse" gradientTransform="translate(532.103 552.545) rotate(-90) scale(142.59 34899.5)">
<stop stop-color="#FFF250"/>
<stop offset="1" stop-color="#FFF250" stop-opacity="0"/>
</radialGradient>
<radialGradient id="paint3_radial_4129_2911" cx="0" cy="0" r="1" gradientUnits="userSpaceOnUse" gradientTransform="translate(285.818 -0.36817) rotate(-180) scale(142.59 34899.5)">
<stop stop-color="#FFF250"/>
<stop offset="1" stop-color="#FFF250" stop-opacity="0"/>
</radialGradient>
<radialGradient id="paint4_radial_4129_2911" cx="0" cy="0" r="1" gradientUnits="userSpaceOnUse" gradientTransform="translate(1327.68 400.234) rotate(90) scale(132.027 34899.5)">
<stop stop-color="#FFF250"/>
<stop offset="1" stop-color="#FFF250" stop-opacity="0"/>
</radialGradient>
<radialGradient id="paint5_radial_4129_2911" cx="0" cy="0" r="1" gradientUnits="userSpaceOnUse" gradientTransform="translate(1725.83 309.167) rotate(90) scale(132.027 34899.5)">
<stop stop-color="#FFF250"/>
<stop offset="1" stop-color="#FFF250" stop-opacity="0"/>
</radialGradient>
<radialGradient id="paint6_radial_4129_2911" cx="0" cy="0" r="1" gradientUnits="userSpaceOnUse" gradientTransform="translate(2123.98 120.678) rotate(90) scale(132.027 34899.5)">
<stop stop-color="#FFF250"/>
<stop offset="1" stop-color="#FFF250" stop-opacity="0"/>
</radialGradient>
</defs>
</svg>
