<svg width="1217" height="359" viewBox="0 0 1217 359" fill="none" xmlns="http://www.w3.org/2000/svg">
<line x1="1217" y1="357.789" x2="1.24402" y2="357.789" stroke="#848484" stroke-opacity="0.25" stroke-width="0.484489"/>
<line x1="1216.76" y1="357.547" x2="1216.76" y2="0.452698" stroke="#848484" stroke-opacity="0.25" stroke-width="0.484489"/>
<line x1="1145.24" y1="357.547" x2="1145.24" y2="0.453003" stroke="#848484" stroke-opacity="0.25" stroke-width="0.484489"/>
<line x1="1073.73" y1="357.547" x2="1073.73" y2="0.453003" stroke="#848484" stroke-opacity="0.25" stroke-width="0.484489"/>
<line x1="1002.21" y1="357.547" x2="1002.21" y2="0.453003" stroke="#848484" stroke-opacity="0.25" stroke-width="0.484489"/>
<line x1="930.697" y1="357.547" x2="930.697" y2="0.453003" stroke="#848484" stroke-opacity="0.25" stroke-width="0.484489"/>
<line x1="859.183" y1="357.547" x2="859.183" y2="0.453003" stroke="#848484" stroke-opacity="0.25" stroke-width="0.484489"/>
<line x1="787.668" y1="357.547" x2="787.668" y2="0.453003" stroke="#848484" stroke-opacity="0.25" stroke-width="0.484489"/>
<line x1="716.152" y1="357.547" x2="716.152" y2="0.453125" stroke="#848484" stroke-opacity="0.25" stroke-width="0.484489"/>
<line x1="644.638" y1="357.547" x2="644.638" y2="0.453125" stroke="#848484" stroke-opacity="0.25" stroke-width="0.484489"/>
<line x1="573.122" y1="357.547" x2="573.122" y2="0.453125" stroke="#848484" stroke-opacity="0.25" stroke-width="0.484489"/>
<line x1="501.607" y1="357.547" x2="501.607" y2="0.453125" stroke="#848484" stroke-opacity="0.25" stroke-width="0.484489"/>
<line x1="430.092" y1="357.547" x2="430.092" y2="0.453125" stroke="#848484" stroke-opacity="0.25" stroke-width="0.484489"/>
<line x1="358.576" y1="357.547" x2="358.576" y2="0.453125" stroke="#848484" stroke-opacity="0.25" stroke-width="0.484489"/>
<line x1="287.063" y1="357.547" x2="287.063" y2="0.453125" stroke="#848484" stroke-opacity="0.25" stroke-width="0.484489"/>
<line x1="215.546" y1="357.547" x2="215.546" y2="0.453125" stroke="#848484" stroke-opacity="0.25" stroke-width="0.484489"/>
<line x1="144.032" y1="357.547" x2="144.032" y2="0.453125" stroke="#848484" stroke-opacity="0.25" stroke-width="0.484489"/>
<line x1="72.5161" y1="357.547" x2="72.516" y2="0.453125" stroke="#848484" stroke-opacity="0.25" stroke-width="0.484489"/>
<line x1="1.00287" y1="357.547" x2="1.00284" y2="0.453125" stroke="#848484" stroke-opacity="0.25" stroke-width="0.484489"/>
<line x1="1217" y1="286.37" x2="1.24402" y2="286.37" stroke="#848484" stroke-opacity="0.25" stroke-width="0.484489"/>
<line x1="1217" y1="214.952" x2="1.24402" y2="214.952" stroke="#848484" stroke-opacity="0.25" stroke-width="0.484489"/>
<line x1="1217" y1="143.533" x2="1.24402" y2="143.533" stroke="#848484" stroke-opacity="0.25" stroke-width="0.484489"/>
<line x1="1217" y1="72.1141" x2="1.24402" y2="72.1141" stroke="#848484" stroke-opacity="0.25" stroke-width="0.484489"/>
<line x1="1217" y1="0.695186" x2="1.24402" y2="0.695186" stroke="#848484" stroke-opacity="0.25" stroke-width="0.484489"/>
<rect x="786.886" y="286.128" width="70.4934" height="70.3985" transform="rotate(180 786.886 286.128)" fill="#616161" fill-opacity="0.03"/>
<rect x="1001.43" y="143.29" width="70.4934" height="70.3985" transform="rotate(180 1001.43 143.29)" fill="#616161" fill-opacity="0.03"/>
<rect x="572.342" y="143.29" width="70.4934" height="70.3985" transform="rotate(180 572.342 143.29)" fill="#616161" fill-opacity="0.03"/>
<rect x="357.796" y="286.128" width="70.4934" height="70.3985" transform="rotate(180 357.796 286.128)" fill="#656565" fill-opacity="0.04"/>
</svg>
