<svg width="2257" height="670" viewBox="0 0 2257 670" fill="none" xmlns="http://www.w3.org/2000/svg">
<g clip-path="url(#clip0_4123_1329)">
<line x1="2257" y1="663.128" x2="0.154541" y2="663.128" stroke="#848484" stroke-opacity="0.25" stroke-width="0.484489"/>
<line x1="2256.76" y1="662.885" x2="2256.76" y2="0.0010071" stroke="#848484" stroke-opacity="0.25" stroke-width="0.484489"/>
<line x1="2124" y1="662.887" x2="2124" y2="0.00228884" stroke="#848484" stroke-opacity="0.25" stroke-width="0.484489"/>
<line x1="1991.25" y1="662.887" x2="1991.25" y2="0.00228884" stroke="#848484" stroke-opacity="0.25" stroke-width="0.484489"/>
<line x1="1858.49" y1="662.887" x2="1858.49" y2="0.00228884" stroke="#848484" stroke-opacity="0.25" stroke-width="0.484489"/>
<line x1="1725.73" y1="662.887" x2="1725.73" y2="0.00228884" stroke="#848484" stroke-opacity="0.25" stroke-width="0.484489"/>
<line x1="1592.98" y1="662.887" x2="1592.98" y2="0.00228884" stroke="#848484" stroke-opacity="0.25" stroke-width="0.484489"/>
<line x1="1460.22" y1="662.887" x2="1460.22" y2="0.00228884" stroke="#848484" stroke-opacity="0.25" stroke-width="0.484489"/>
<line x1="1327.47" y1="662.886" x2="1327.47" y2="0.00189211" stroke="#848484" stroke-opacity="0.25" stroke-width="0.484489"/>
<line x1="1194.72" y1="662.886" x2="1194.72" y2="0.00189211" stroke="#848484" stroke-opacity="0.25" stroke-width="0.484489"/>
<line x1="1061.96" y1="662.886" x2="1061.96" y2="0.00189211" stroke="#848484" stroke-opacity="0.25" stroke-width="0.484489"/>
<line x1="929.202" y1="662.886" x2="929.202" y2="0.00189211" stroke="#848484" stroke-opacity="0.25" stroke-width="0.484489"/>
<line x1="796.449" y1="662.886" x2="796.449" y2="0.00189211" stroke="#848484" stroke-opacity="0.25" stroke-width="0.484489"/>
<line x1="663.69" y1="662.886" x2="663.69" y2="0.00189211" stroke="#848484" stroke-opacity="0.25" stroke-width="0.484489"/>
<line x1="530.936" y1="662.887" x2="530.936" y2="0.00228884" stroke="#848484" stroke-opacity="0.25" stroke-width="0.484489"/>
<line x1="398.178" y1="662.887" x2="398.178" y2="0.00228884" stroke="#848484" stroke-opacity="0.25" stroke-width="0.484489"/>
<line x1="265.423" y1="662.887" x2="265.423" y2="0.00228884" stroke="#848484" stroke-opacity="0.25" stroke-width="0.484489"/>
<line x1="264.643" y1="400.274" x2="264.643" y2="0.000938405" stroke="url(#paint0_radial_4123_1329)" stroke-width="0.484489"/>
<line x1="531.977" y1="264.727" x2="531.977" y2="665" stroke="url(#paint1_radial_4123_1329)" stroke-width="0.484489"/>
<line y1="-0.242244" x2="400.273" y2="-0.242244" transform="matrix(1.19249e-08 -1 -1 -1.19249e-08 929.891 491.336)" stroke="url(#paint2_radial_4123_1329)" stroke-width="0.484489"/>
<line x1="1327.8" y1="662.881" x2="1327.8" y2="292.257" stroke="url(#paint3_radial_4123_1329)" stroke-width="0.484489"/>
<line x1="1725.96" y1="571.813" x2="1725.96" y2="201.19" stroke="url(#paint4_radial_4123_1329)" stroke-width="0.484489"/>
<line x1="2124.11" y1="383.325" x2="2124.11" y2="12.7013" stroke="url(#paint5_radial_4123_1329)" stroke-width="0.484489"/>
<line x1="132.666" y1="662.887" x2="132.666" y2="0.00228884" stroke="#848484" stroke-opacity="0.25" stroke-width="0.484489"/>
<line x1="-0.0859944" y1="662.887" x2="-0.0860525" y2="0.00228884" stroke="#848484" stroke-opacity="0.25" stroke-width="0.484489"/>
<line x1="2257" y1="530.551" x2="0.154541" y2="530.551" stroke="#848484" stroke-opacity="0.25" stroke-width="0.484489"/>
<line x1="2257" y1="397.975" x2="0.154541" y2="397.975" stroke="#848484" stroke-opacity="0.25" stroke-width="0.484489"/>
<line x1="2257" y1="265.398" x2="0.154541" y2="265.398" stroke="#848484" stroke-opacity="0.25" stroke-width="0.484489"/>
<line x1="2257" y1="132.821" x2="0.154541" y2="132.821" stroke="#848484" stroke-opacity="0.25" stroke-width="0.484489"/>
<line x1="2257" y1="0.243587" x2="0.154541" y2="0.243587" stroke="#848484" stroke-opacity="0.25" stroke-width="0.484489"/>
<rect x="1458.57" y="530.309" width="130.859" height="130.683" transform="rotate(180 1458.57 530.309)" fill="#616161" fill-opacity="0.03"/>
<rect x="1856.83" y="265.155" width="130.859" height="130.683" transform="rotate(180 1856.83 265.155)" fill="#616161" fill-opacity="0.03"/>
<rect x="1060.3" y="265.156" width="130.859" height="130.683" transform="rotate(180 1060.3 265.156)" fill="#616161" fill-opacity="0.03"/>
<rect x="1461" y="264" width="134" height="131" transform="rotate(180 1461 264)" fill="#616161" fill-opacity="0.03"/>
<rect x="662.033" y="530.309" width="130.859" height="130.683" transform="rotate(180 662.033 530.309)" fill="#656565" fill-opacity="0.04"/>
<path opacity="0.2" d="M1195.7 340V334.182H1199.19V334.807H1196.41V336.773H1198.93V337.398H1196.41V340H1195.7ZM1200.02 340V335.636H1200.67V336.295H1200.72C1200.79 336.08 1200.94 335.904 1201.15 335.77C1201.36 335.635 1201.59 335.568 1201.85 335.568C1201.9 335.568 1201.96 335.569 1202.04 335.571C1202.11 335.573 1202.17 335.576 1202.2 335.58V336.261C1202.18 336.256 1202.13 336.247 1202.05 336.236C1201.97 336.223 1201.88 336.216 1201.79 336.216C1201.58 336.216 1201.39 336.26 1201.23 336.349C1201.06 336.437 1200.93 336.558 1200.83 336.713C1200.74 336.866 1200.69 337.042 1200.69 337.239V340H1200.02ZM1204.46 340.091C1204.03 340.091 1203.67 339.998 1203.37 339.812C1203.06 339.625 1202.83 339.364 1202.67 339.028C1202.5 338.691 1202.42 338.299 1202.42 337.852C1202.42 337.405 1202.5 337.011 1202.67 336.67C1202.83 336.328 1203.06 336.061 1203.35 335.869C1203.65 335.676 1203.99 335.58 1204.39 335.58C1204.61 335.58 1204.84 335.617 1205.06 335.693C1205.28 335.769 1205.48 335.892 1205.67 336.062C1205.85 336.231 1205.99 336.455 1206.1 336.733C1206.21 337.011 1206.26 337.354 1206.26 337.761V338.045H1202.9V337.466H1205.58C1205.58 337.22 1205.53 337 1205.43 336.807C1205.34 336.614 1205.2 336.461 1205.02 336.349C1204.84 336.238 1204.63 336.182 1204.39 336.182C1204.12 336.182 1203.89 336.248 1203.69 336.381C1203.5 336.511 1203.35 336.682 1203.25 336.892C1203.14 337.102 1203.09 337.328 1203.09 337.568V337.955C1203.09 338.284 1203.15 338.563 1203.26 338.793C1203.38 339.02 1203.54 339.193 1203.74 339.312C1203.95 339.43 1204.18 339.489 1204.46 339.489C1204.63 339.489 1204.79 339.464 1204.93 339.415C1205.08 339.364 1205.2 339.288 1205.3 339.188C1205.41 339.085 1205.49 338.958 1205.55 338.807L1206.19 338.989C1206.13 339.208 1206.01 339.402 1205.85 339.568C1205.69 339.733 1205.49 339.862 1205.25 339.955C1205.02 340.045 1204.75 340.091 1204.46 340.091ZM1208.87 340.091C1208.45 340.091 1208.09 339.998 1207.78 339.812C1207.48 339.625 1207.25 339.364 1207.08 339.028C1206.92 338.691 1206.84 338.299 1206.84 337.852C1206.84 337.405 1206.92 337.011 1207.08 336.67C1207.25 336.328 1207.48 336.061 1207.77 335.869C1208.06 335.676 1208.41 335.58 1208.8 335.58C1209.03 335.58 1209.26 335.617 1209.48 335.693C1209.7 335.769 1209.9 335.892 1210.08 336.062C1210.26 336.231 1210.41 336.455 1210.52 336.733C1210.62 337.011 1210.68 337.354 1210.68 337.761V338.045H1207.31V337.466H1210C1210 337.22 1209.95 337 1209.85 336.807C1209.75 336.614 1209.61 336.461 1209.43 336.349C1209.26 336.238 1209.05 336.182 1208.8 336.182C1208.54 336.182 1208.31 336.248 1208.11 336.381C1207.92 336.511 1207.77 336.682 1207.66 336.892C1207.56 337.102 1207.51 337.328 1207.51 337.568V337.955C1207.51 338.284 1207.56 338.563 1207.68 338.793C1207.79 339.02 1207.95 339.193 1208.16 339.312C1208.36 339.43 1208.6 339.489 1208.87 339.489C1209.05 339.489 1209.21 339.464 1209.35 339.415C1209.49 339.364 1209.62 339.288 1209.72 339.188C1209.83 339.085 1209.91 338.958 1209.96 338.807L1210.61 338.989C1210.54 339.208 1210.43 339.402 1210.27 339.568C1210.11 339.733 1209.91 339.862 1209.67 339.955C1209.43 340.045 1209.17 340.091 1208.87 340.091ZM1214.62 340L1213.03 334.182H1213.74L1214.96 338.92H1215.01L1216.25 334.182H1217.05L1218.29 338.92H1218.34L1219.56 334.182H1220.28L1218.68 340H1217.96L1216.67 335.364H1216.63L1215.34 340H1214.62ZM1222.25 340.091C1221.82 340.091 1221.46 339.998 1221.16 339.812C1220.85 339.625 1220.62 339.364 1220.46 339.028C1220.29 338.691 1220.21 338.299 1220.21 337.852C1220.21 337.405 1220.29 337.011 1220.46 336.67C1220.62 336.328 1220.85 336.061 1221.14 335.869C1221.44 335.676 1221.78 335.58 1222.18 335.58C1222.4 335.58 1222.63 335.617 1222.85 335.693C1223.07 335.769 1223.27 335.892 1223.46 336.062C1223.64 336.231 1223.78 336.455 1223.89 336.733C1224 337.011 1224.05 337.354 1224.05 337.761V338.045H1220.69V337.466H1223.37C1223.37 337.22 1223.32 337 1223.22 336.807C1223.13 336.614 1222.99 336.461 1222.81 336.349C1222.63 336.238 1222.42 336.182 1222.18 336.182C1221.91 336.182 1221.68 336.248 1221.48 336.381C1221.29 336.511 1221.14 336.682 1221.04 336.892C1220.93 337.102 1220.88 337.328 1220.88 337.568V337.955C1220.88 338.284 1220.94 338.563 1221.05 338.793C1221.17 339.02 1221.33 339.193 1221.53 339.312C1221.74 339.43 1221.97 339.489 1222.25 339.489C1222.42 339.489 1222.58 339.464 1222.72 339.415C1222.87 339.364 1222.99 339.288 1223.09 339.188C1223.2 339.085 1223.28 338.958 1223.34 338.807L1223.98 338.989C1223.92 339.208 1223.8 339.402 1223.64 339.568C1223.48 339.733 1223.28 339.862 1223.04 339.955C1222.81 340.045 1222.54 340.091 1222.25 340.091ZM1224.92 340V334.182H1225.59V336.33H1225.65C1225.7 336.254 1225.77 336.157 1225.85 336.04C1225.94 335.92 1226.07 335.814 1226.24 335.722C1226.4 335.627 1226.63 335.58 1226.91 335.58C1227.28 335.58 1227.6 335.671 1227.88 335.855C1228.16 336.039 1228.38 336.299 1228.54 336.636C1228.7 336.973 1228.78 337.371 1228.78 337.83C1228.78 338.292 1228.7 338.692 1228.54 339.031C1228.38 339.368 1228.16 339.63 1227.89 339.815C1227.61 339.999 1227.29 340.091 1226.92 340.091C1226.64 340.091 1226.42 340.045 1226.25 339.952C1226.08 339.857 1225.95 339.75 1225.86 339.631C1225.77 339.509 1225.7 339.409 1225.65 339.33H1225.57V340H1224.92ZM1225.58 337.818C1225.58 338.148 1225.63 338.438 1225.73 338.69C1225.82 338.94 1225.96 339.136 1226.15 339.278C1226.34 339.419 1226.56 339.489 1226.83 339.489C1227.11 339.489 1227.35 339.415 1227.53 339.267C1227.72 339.117 1227.87 338.917 1227.96 338.665C1228.06 338.411 1228.1 338.129 1228.1 337.818C1228.1 337.511 1228.06 337.235 1227.96 336.989C1227.87 336.741 1227.73 336.545 1227.54 336.401C1227.35 336.255 1227.12 336.182 1226.83 336.182C1226.56 336.182 1226.33 336.251 1226.14 336.389C1225.96 336.526 1225.82 336.717 1225.72 336.963C1225.63 337.207 1225.58 337.492 1225.58 337.818ZM1231.5 335.636V336.205H1229.15V335.636H1231.5ZM1229.86 340V335.034C1229.86 334.784 1229.91 334.576 1230.03 334.409C1230.15 334.242 1230.3 334.117 1230.49 334.034C1230.68 333.951 1230.88 333.909 1231.08 333.909C1231.25 333.909 1231.38 333.922 1231.49 333.949C1231.59 333.975 1231.67 334 1231.72 334.023L1231.53 334.602C1231.49 334.591 1231.45 334.577 1231.38 334.56C1231.33 334.543 1231.25 334.534 1231.15 334.534C1230.93 334.534 1230.77 334.59 1230.67 334.702C1230.58 334.813 1230.53 334.977 1230.53 335.193V340H1229.86ZM1232.87 334.182V340H1232.2V334.182H1232.87ZM1235.63 340.091C1235.24 340.091 1234.9 339.997 1234.6 339.81C1234.3 339.622 1234.07 339.36 1233.9 339.023C1233.74 338.686 1233.66 338.292 1233.66 337.841C1233.66 337.386 1233.74 336.99 1233.9 336.651C1234.07 336.312 1234.3 336.048 1234.6 335.861C1234.9 335.673 1235.24 335.58 1235.63 335.58C1236.03 335.58 1236.37 335.673 1236.67 335.861C1236.97 336.048 1237.2 336.312 1237.36 336.651C1237.53 336.99 1237.61 337.386 1237.61 337.841C1237.61 338.292 1237.53 338.686 1237.36 339.023C1237.2 339.36 1236.97 339.622 1236.67 339.81C1236.37 339.997 1236.03 340.091 1235.63 340.091ZM1235.63 339.489C1235.93 339.489 1236.18 339.412 1236.37 339.259C1236.57 339.105 1236.71 338.903 1236.8 338.653C1236.9 338.403 1236.94 338.133 1236.94 337.841C1236.94 337.549 1236.9 337.277 1236.8 337.026C1236.71 336.774 1236.57 336.57 1236.37 336.415C1236.18 336.259 1235.93 336.182 1235.63 336.182C1235.34 336.182 1235.09 336.259 1234.9 336.415C1234.7 336.57 1234.56 336.774 1234.47 337.026C1234.37 337.277 1234.33 337.549 1234.33 337.841C1234.33 338.133 1234.37 338.403 1234.47 338.653C1234.56 338.903 1234.7 339.105 1234.9 339.259C1235.09 339.412 1235.34 339.489 1235.63 339.489ZM1239.24 340L1237.91 335.636H1238.61L1239.55 338.977H1239.6L1240.53 335.636H1241.25L1242.17 338.966H1242.21L1243.16 335.636H1243.86L1242.53 340H1241.87L1240.92 336.648H1240.85L1239.89 340H1239.24ZM1246.52 340V335.636H1247.16V336.318H1247.22C1247.31 336.085 1247.46 335.904 1247.66 335.776C1247.86 335.645 1248.11 335.58 1248.39 335.58C1248.68 335.58 1248.92 335.645 1249.11 335.776C1249.3 335.904 1249.45 336.085 1249.56 336.318H1249.61C1249.72 336.093 1249.89 335.914 1250.11 335.781C1250.33 335.647 1250.6 335.58 1250.91 335.58C1251.3 335.58 1251.62 335.702 1251.87 335.946C1252.12 336.188 1252.24 336.566 1252.24 337.08V340H1251.57V337.08C1251.57 336.758 1251.49 336.527 1251.31 336.389C1251.13 336.251 1250.93 336.182 1250.69 336.182C1250.38 336.182 1250.14 336.275 1249.97 336.46C1249.81 336.644 1249.72 336.877 1249.72 337.159V340H1249.04V337.011C1249.04 336.763 1248.96 336.563 1248.8 336.412C1248.64 336.259 1248.43 336.182 1248.18 336.182C1248 336.182 1247.84 336.228 1247.69 336.321C1247.54 336.414 1247.42 336.543 1247.32 336.707C1247.23 336.87 1247.19 337.059 1247.19 337.273V340H1246.52ZM1253.23 340V335.636H1253.9V340H1253.23ZM1253.57 334.909C1253.44 334.909 1253.33 334.865 1253.23 334.776C1253.14 334.687 1253.09 334.58 1253.09 334.455C1253.09 334.33 1253.14 334.223 1253.23 334.134C1253.33 334.045 1253.44 334 1253.57 334C1253.7 334 1253.81 334.045 1253.91 334.134C1254 334.223 1254.05 334.33 1254.05 334.455C1254.05 334.58 1254 334.687 1253.91 334.776C1253.81 334.865 1253.7 334.909 1253.57 334.909ZM1256.66 340.091C1256.25 340.091 1255.9 339.994 1255.6 339.801C1255.31 339.608 1255.08 339.342 1254.92 339.003C1254.76 338.664 1254.68 338.277 1254.68 337.841C1254.68 337.398 1254.77 337.007 1254.93 336.668C1255.09 336.327 1255.32 336.061 1255.62 335.869C1255.91 335.676 1256.26 335.58 1256.65 335.58C1256.96 335.58 1257.23 335.636 1257.48 335.75C1257.73 335.864 1257.93 336.023 1258.08 336.227C1258.24 336.432 1258.34 336.67 1258.38 336.943H1257.71C1257.66 336.744 1257.54 336.568 1257.37 336.415C1257.19 336.259 1256.96 336.182 1256.66 336.182C1256.4 336.182 1256.17 336.25 1255.97 336.386C1255.78 336.521 1255.63 336.711 1255.52 336.957C1255.41 337.202 1255.35 337.489 1255.35 337.818C1255.35 338.155 1255.41 338.449 1255.51 338.699C1255.62 338.949 1255.77 339.143 1255.97 339.281C1256.17 339.42 1256.4 339.489 1256.66 339.489C1256.84 339.489 1256.99 339.458 1257.14 339.398C1257.28 339.337 1257.4 339.25 1257.5 339.136C1257.6 339.023 1257.67 338.886 1257.71 338.727H1258.38C1258.34 338.985 1258.25 339.217 1258.1 339.423C1257.95 339.628 1257.75 339.791 1257.51 339.912C1257.27 340.031 1256.98 340.091 1256.66 340.091ZM1259.12 340V335.636H1259.77V336.295H1259.81C1259.89 336.08 1260.03 335.904 1260.24 335.77C1260.45 335.635 1260.69 335.568 1260.95 335.568C1261 335.568 1261.06 335.569 1261.13 335.571C1261.21 335.573 1261.26 335.576 1261.3 335.58V336.261C1261.28 336.256 1261.22 336.247 1261.14 336.236C1261.06 336.223 1260.98 336.216 1260.89 336.216C1260.68 336.216 1260.49 336.26 1260.32 336.349C1260.16 336.437 1260.03 336.558 1259.93 336.713C1259.84 336.866 1259.79 337.042 1259.79 337.239V340H1259.12ZM1263.49 340.091C1263.1 340.091 1262.75 339.997 1262.46 339.81C1262.16 339.622 1261.93 339.36 1261.76 339.023C1261.6 338.686 1261.52 338.292 1261.52 337.841C1261.52 337.386 1261.6 336.99 1261.76 336.651C1261.93 336.312 1262.16 336.048 1262.46 335.861C1262.75 335.673 1263.1 335.58 1263.49 335.58C1263.89 335.58 1264.23 335.673 1264.53 335.861C1264.83 336.048 1265.06 336.312 1265.22 336.651C1265.39 336.99 1265.47 337.386 1265.47 337.841C1265.47 338.292 1265.39 338.686 1265.22 339.023C1265.06 339.36 1264.83 339.622 1264.53 339.81C1264.23 339.997 1263.89 340.091 1263.49 340.091ZM1263.49 339.489C1263.79 339.489 1264.04 339.412 1264.23 339.259C1264.43 339.105 1264.57 338.903 1264.66 338.653C1264.75 338.403 1264.8 338.133 1264.8 337.841C1264.8 337.549 1264.75 337.277 1264.66 337.026C1264.57 336.774 1264.43 336.57 1264.23 336.415C1264.04 336.259 1263.79 336.182 1263.49 336.182C1263.19 336.182 1262.95 336.259 1262.76 336.415C1262.56 336.57 1262.42 336.774 1262.33 337.026C1262.23 337.277 1262.19 337.549 1262.19 337.841C1262.19 338.133 1262.23 338.403 1262.33 338.653C1262.42 338.903 1262.56 339.105 1262.76 339.259C1262.95 339.412 1263.19 339.489 1263.49 339.489ZM1269.06 334.182V340H1268.36V334.182H1269.06ZM1270.81 337.375V340H1270.14V335.636H1270.79V336.318H1270.85C1270.95 336.097 1271.1 335.919 1271.31 335.784C1271.52 335.648 1271.79 335.58 1272.12 335.58C1272.41 335.58 1272.67 335.64 1272.89 335.761C1273.12 335.881 1273.29 336.062 1273.41 336.307C1273.53 336.549 1273.6 336.856 1273.6 337.227V340H1272.93V337.273C1272.93 336.93 1272.84 336.663 1272.66 336.472C1272.48 336.278 1272.24 336.182 1271.93 336.182C1271.71 336.182 1271.52 336.228 1271.35 336.321C1271.19 336.414 1271.05 336.549 1270.96 336.727C1270.86 336.905 1270.81 337.121 1270.81 337.375ZM1276.48 335.636V336.205H1274.22V335.636H1276.48ZM1274.88 334.591H1275.55V338.75C1275.55 338.939 1275.57 339.081 1275.63 339.176C1275.69 339.269 1275.76 339.331 1275.85 339.364C1275.93 339.394 1276.03 339.409 1276.13 339.409C1276.2 339.409 1276.26 339.405 1276.31 339.398C1276.36 339.388 1276.39 339.381 1276.42 339.375L1276.56 339.977C1276.51 339.994 1276.45 340.011 1276.37 340.028C1276.29 340.047 1276.18 340.057 1276.06 340.057C1275.87 340.057 1275.68 340.016 1275.5 339.935C1275.32 339.853 1275.17 339.729 1275.05 339.562C1274.94 339.396 1274.88 339.186 1274.88 338.932V334.591ZM1279.03 340.091C1278.61 340.091 1278.25 339.998 1277.94 339.812C1277.64 339.625 1277.41 339.364 1277.24 339.028C1277.08 338.691 1277 338.299 1277 337.852C1277 337.405 1277.08 337.011 1277.24 336.67C1277.41 336.328 1277.63 336.061 1277.93 335.869C1278.22 335.676 1278.57 335.58 1278.96 335.58C1279.19 335.58 1279.41 335.617 1279.64 335.693C1279.86 335.769 1280.06 335.892 1280.24 336.062C1280.42 336.231 1280.57 336.455 1280.68 336.733C1280.78 337.011 1280.84 337.354 1280.84 337.761V338.045H1277.47V337.466H1280.16C1280.16 337.22 1280.11 337 1280.01 336.807C1279.91 336.614 1279.77 336.461 1279.59 336.349C1279.41 336.238 1279.2 336.182 1278.96 336.182C1278.7 336.182 1278.46 336.248 1278.27 336.381C1278.08 336.511 1277.93 336.682 1277.82 336.892C1277.72 337.102 1277.67 337.328 1277.67 337.568V337.955C1277.67 338.284 1277.72 338.563 1277.84 338.793C1277.95 339.02 1278.11 339.193 1278.32 339.312C1278.52 339.43 1278.76 339.489 1279.03 339.489C1279.21 339.489 1279.37 339.464 1279.51 339.415C1279.65 339.364 1279.78 339.288 1279.88 339.188C1279.98 339.085 1280.06 338.958 1280.12 338.807L1280.77 338.989C1280.7 339.208 1280.59 339.402 1280.43 339.568C1280.26 339.733 1280.07 339.862 1279.83 339.955C1279.59 340.045 1279.33 340.091 1279.03 340.091ZM1281.62 340V335.636H1282.26V336.295H1282.31C1282.39 336.08 1282.53 335.904 1282.74 335.77C1282.95 335.635 1283.19 335.568 1283.45 335.568C1283.5 335.568 1283.56 335.569 1283.63 335.571C1283.71 335.573 1283.76 335.576 1283.8 335.58V336.261C1283.78 336.256 1283.72 336.247 1283.64 336.236C1283.56 336.223 1283.48 336.216 1283.39 336.216C1283.18 336.216 1282.99 336.26 1282.82 336.349C1282.66 336.437 1282.53 336.558 1282.43 336.713C1282.33 336.866 1282.29 337.042 1282.29 337.239V340H1281.62ZM1285.64 340.102C1285.36 340.102 1285.11 340.05 1284.88 339.946C1284.66 339.84 1284.48 339.688 1284.35 339.489C1284.22 339.288 1284.15 339.045 1284.15 338.761C1284.15 338.511 1284.2 338.309 1284.3 338.153C1284.4 337.996 1284.53 337.873 1284.69 337.784C1284.86 337.695 1285.04 337.629 1285.24 337.585C1285.44 337.54 1285.64 337.504 1285.84 337.477C1286.11 337.443 1286.32 337.418 1286.49 337.401C1286.65 337.382 1286.78 337.35 1286.85 337.307C1286.93 337.263 1286.97 337.187 1286.97 337.08V337.057C1286.97 336.777 1286.89 336.559 1286.74 336.403C1286.59 336.248 1286.36 336.17 1286.05 336.17C1285.73 336.17 1285.48 336.241 1285.29 336.381C1285.11 336.521 1284.98 336.67 1284.91 336.83L1284.27 336.602C1284.39 336.337 1284.54 336.131 1284.73 335.983C1284.92 335.833 1285.13 335.729 1285.35 335.67C1285.58 335.61 1285.8 335.58 1286.02 335.58C1286.16 335.58 1286.33 335.597 1286.51 335.631C1286.69 335.663 1286.87 335.73 1287.04 335.832C1287.21 335.935 1287.35 336.089 1287.47 336.295C1287.58 336.502 1287.64 336.778 1287.64 337.125V340H1286.97V339.409H1286.93C1286.89 339.504 1286.81 339.605 1286.71 339.713C1286.6 339.821 1286.46 339.913 1286.28 339.989C1286.11 340.064 1285.89 340.102 1285.64 340.102ZM1285.74 339.5C1286.01 339.5 1286.23 339.448 1286.41 339.344C1286.59 339.24 1286.73 339.105 1286.83 338.94C1286.92 338.776 1286.97 338.602 1286.97 338.42V337.807C1286.94 337.841 1286.88 337.872 1286.78 337.901C1286.69 337.927 1286.58 337.951 1286.45 337.972C1286.33 337.991 1286.21 338.008 1286.09 338.023C1285.97 338.036 1285.88 338.047 1285.81 338.057C1285.63 338.08 1285.47 338.116 1285.32 338.168C1285.17 338.217 1285.05 338.292 1284.96 338.392C1284.86 338.491 1284.82 338.625 1284.82 338.795C1284.82 339.028 1284.91 339.205 1285.08 339.324C1285.25 339.441 1285.47 339.5 1285.74 339.5ZM1290.39 340.091C1289.99 340.091 1289.63 339.994 1289.34 339.801C1289.04 339.608 1288.81 339.342 1288.66 339.003C1288.5 338.664 1288.42 338.277 1288.42 337.841C1288.42 337.398 1288.5 337.007 1288.66 336.668C1288.83 336.327 1289.06 336.061 1289.35 335.869C1289.64 335.676 1289.99 335.58 1290.38 335.58C1290.69 335.58 1290.97 335.636 1291.21 335.75C1291.46 335.864 1291.66 336.023 1291.82 336.227C1291.97 336.432 1292.07 336.67 1292.11 336.943H1291.44C1291.39 336.744 1291.27 336.568 1291.1 336.415C1290.92 336.259 1290.69 336.182 1290.39 336.182C1290.13 336.182 1289.9 336.25 1289.71 336.386C1289.51 336.521 1289.36 336.711 1289.25 336.957C1289.14 337.202 1289.09 337.489 1289.09 337.818C1289.09 338.155 1289.14 338.449 1289.25 338.699C1289.35 338.949 1289.51 339.143 1289.7 339.281C1289.9 339.42 1290.13 339.489 1290.39 339.489C1290.57 339.489 1290.73 339.458 1290.87 339.398C1291.01 339.337 1291.13 339.25 1291.23 339.136C1291.33 339.023 1291.4 338.886 1291.44 338.727H1292.11C1292.07 338.985 1291.98 339.217 1291.83 339.423C1291.68 339.628 1291.49 339.791 1291.24 339.912C1291 340.031 1290.72 340.091 1290.39 340.091ZM1294.75 335.636V336.205H1292.49V335.636H1294.75ZM1293.15 334.591H1293.82V338.75C1293.82 338.939 1293.84 339.081 1293.9 339.176C1293.96 339.269 1294.03 339.331 1294.11 339.364C1294.2 339.394 1294.3 339.409 1294.4 339.409C1294.47 339.409 1294.53 339.405 1294.58 339.398C1294.62 339.388 1294.66 339.381 1294.69 339.375L1294.83 339.977C1294.78 339.994 1294.72 340.011 1294.64 340.028C1294.56 340.047 1294.45 340.057 1294.33 340.057C1294.14 340.057 1293.95 340.016 1293.77 339.935C1293.59 339.853 1293.44 339.729 1293.32 339.562C1293.2 339.396 1293.15 339.186 1293.15 338.932V334.591ZM1295.52 340V335.636H1296.19V340H1295.52ZM1295.86 334.909C1295.73 334.909 1295.61 334.865 1295.52 334.776C1295.43 334.687 1295.38 334.58 1295.38 334.455C1295.38 334.33 1295.43 334.223 1295.52 334.134C1295.61 334.045 1295.73 334 1295.86 334C1295.99 334 1296.1 334.045 1296.19 334.134C1296.29 334.223 1296.33 334.33 1296.33 334.455C1296.33 334.58 1296.29 334.687 1296.19 334.776C1296.1 334.865 1295.99 334.909 1295.86 334.909ZM1298.95 340.091C1298.55 340.091 1298.21 339.997 1297.91 339.81C1297.62 339.622 1297.38 339.36 1297.22 339.023C1297.05 338.686 1296.97 338.292 1296.97 337.841C1296.97 337.386 1297.05 336.99 1297.22 336.651C1297.38 336.312 1297.62 336.048 1297.91 335.861C1298.21 335.673 1298.55 335.58 1298.95 335.58C1299.34 335.58 1299.69 335.673 1299.98 335.861C1300.28 336.048 1300.51 336.312 1300.67 336.651C1300.84 336.99 1300.92 337.386 1300.92 337.841C1300.92 338.292 1300.84 338.686 1300.67 339.023C1300.51 339.36 1300.28 339.622 1299.98 339.81C1299.69 339.997 1299.34 340.091 1298.95 340.091ZM1298.95 339.489C1299.25 339.489 1299.49 339.412 1299.69 339.259C1299.88 339.105 1300.02 338.903 1300.12 338.653C1300.21 338.403 1300.25 338.133 1300.25 337.841C1300.25 337.549 1300.21 337.277 1300.12 337.026C1300.02 336.774 1299.88 336.57 1299.69 336.415C1299.49 336.259 1299.25 336.182 1298.95 336.182C1298.65 336.182 1298.4 336.259 1298.21 336.415C1298.02 336.57 1297.87 336.774 1297.78 337.026C1297.69 337.277 1297.64 337.549 1297.64 337.841C1297.64 338.133 1297.69 338.403 1297.78 338.653C1297.87 338.903 1298.02 339.105 1298.21 339.259C1298.4 339.412 1298.65 339.489 1298.95 339.489ZM1302.38 337.375V340H1301.71V335.636H1302.36V336.318H1302.41C1302.52 336.097 1302.67 335.919 1302.88 335.784C1303.09 335.648 1303.36 335.58 1303.69 335.58C1303.98 335.58 1304.24 335.64 1304.46 335.761C1304.68 335.881 1304.86 336.062 1304.98 336.307C1305.1 336.549 1305.16 336.856 1305.16 337.227V340H1304.49V337.273C1304.49 336.93 1304.4 336.663 1304.23 336.472C1304.05 336.278 1303.8 336.182 1303.49 336.182C1303.28 336.182 1303.09 336.228 1302.92 336.321C1302.75 336.414 1302.62 336.549 1302.52 336.727C1302.43 336.905 1302.38 337.121 1302.38 337.375ZM1309.24 336.614L1308.64 336.784C1308.6 336.684 1308.54 336.586 1308.47 336.491C1308.4 336.395 1308.3 336.315 1308.17 336.253C1308.05 336.19 1307.89 336.159 1307.69 336.159C1307.43 336.159 1307.2 336.221 1307.03 336.344C1306.85 336.465 1306.76 336.619 1306.76 336.807C1306.76 336.973 1306.82 337.105 1306.94 337.202C1307.06 337.298 1307.25 337.379 1307.51 337.443L1308.16 337.602C1308.55 337.697 1308.84 337.842 1309.03 338.037C1309.22 338.23 1309.32 338.479 1309.32 338.784C1309.32 339.034 1309.25 339.258 1309.1 339.455C1308.96 339.652 1308.76 339.807 1308.51 339.92C1308.25 340.034 1307.95 340.091 1307.61 340.091C1307.17 340.091 1306.8 339.994 1306.51 339.801C1306.22 339.608 1306.03 339.326 1305.95 338.955L1306.59 338.795C1306.65 339.03 1306.77 339.206 1306.93 339.324C1307.11 339.441 1307.33 339.5 1307.6 339.5C1307.92 339.5 1308.16 339.434 1308.35 339.301C1308.53 339.167 1308.63 339.006 1308.63 338.818C1308.63 338.667 1308.57 338.54 1308.47 338.438C1308.36 338.333 1308.2 338.256 1307.98 338.205L1307.25 338.034C1306.85 337.939 1306.56 337.793 1306.37 337.594C1306.18 337.393 1306.09 337.142 1306.09 336.841C1306.09 336.595 1306.16 336.377 1306.3 336.188C1306.44 335.998 1306.63 335.849 1306.87 335.741C1307.11 335.634 1307.39 335.58 1307.69 335.58C1308.13 335.58 1308.46 335.674 1308.71 335.864C1308.96 336.053 1309.13 336.303 1309.24 336.614Z" fill="white"/>
<path opacity="0.2" d="M1159.32 205.182V211H1158.64L1155.47 206.432H1155.41V211H1154.7V205.182H1155.39L1158.57 209.761H1158.62V205.182H1159.32ZM1162.17 211.091C1161.78 211.091 1161.43 210.997 1161.13 210.81C1160.84 210.622 1160.61 210.36 1160.44 210.023C1160.27 209.686 1160.19 209.292 1160.19 208.841C1160.19 208.386 1160.27 207.99 1160.44 207.651C1160.61 207.312 1160.84 207.048 1161.13 206.861C1161.43 206.673 1161.78 206.58 1162.17 206.58C1162.56 206.58 1162.91 206.673 1163.2 206.861C1163.5 207.048 1163.73 207.312 1163.9 207.651C1164.06 207.99 1164.15 208.386 1164.15 208.841C1164.15 209.292 1164.06 209.686 1163.9 210.023C1163.73 210.36 1163.5 210.622 1163.2 210.81C1162.91 210.997 1162.56 211.091 1162.17 211.091ZM1162.17 210.489C1162.47 210.489 1162.72 210.412 1162.91 210.259C1163.1 210.105 1163.24 209.903 1163.34 209.653C1163.43 209.403 1163.48 209.133 1163.48 208.841C1163.48 208.549 1163.43 208.277 1163.34 208.026C1163.24 207.774 1163.1 207.57 1162.91 207.415C1162.72 207.259 1162.47 207.182 1162.17 207.182C1161.87 207.182 1161.62 207.259 1161.43 207.415C1161.24 207.57 1161.09 207.774 1161 208.026C1160.91 208.277 1160.86 208.549 1160.86 208.841C1160.86 209.133 1160.91 209.403 1161 209.653C1161.09 209.903 1161.24 210.105 1161.43 210.259C1161.62 210.412 1161.87 210.489 1162.17 210.489ZM1170.03 207.614L1169.43 207.784C1169.39 207.684 1169.34 207.586 1169.26 207.491C1169.19 207.395 1169.09 207.315 1168.97 207.253C1168.84 207.19 1168.68 207.159 1168.49 207.159C1168.22 207.159 1168 207.221 1167.82 207.344C1167.64 207.465 1167.55 207.619 1167.55 207.807C1167.55 207.973 1167.61 208.105 1167.74 208.202C1167.86 208.298 1168.05 208.379 1168.3 208.443L1168.95 208.602C1169.34 208.697 1169.63 208.842 1169.82 209.037C1170.02 209.23 1170.11 209.479 1170.11 209.784C1170.11 210.034 1170.04 210.258 1169.9 210.455C1169.75 210.652 1169.55 210.807 1169.3 210.92C1169.04 211.034 1168.75 211.091 1168.41 211.091C1167.96 211.091 1167.59 210.994 1167.3 210.801C1167.01 210.608 1166.82 210.326 1166.75 209.955L1167.38 209.795C1167.44 210.03 1167.56 210.206 1167.73 210.324C1167.9 210.441 1168.12 210.5 1168.4 210.5C1168.71 210.5 1168.96 210.434 1169.14 210.301C1169.32 210.167 1169.42 210.006 1169.42 209.818C1169.42 209.667 1169.36 209.54 1169.26 209.438C1169.15 209.333 1168.99 209.256 1168.77 209.205L1168.04 209.034C1167.64 208.939 1167.35 208.793 1167.16 208.594C1166.98 208.393 1166.88 208.142 1166.88 207.841C1166.88 207.595 1166.95 207.377 1167.09 207.188C1167.23 206.998 1167.42 206.849 1167.66 206.741C1167.9 206.634 1168.18 206.58 1168.49 206.58C1168.92 206.58 1169.26 206.674 1169.5 206.864C1169.75 207.053 1169.93 207.303 1170.03 207.614ZM1170.88 211V206.636H1171.55V211H1170.88ZM1171.22 205.909C1171.09 205.909 1170.98 205.865 1170.88 205.776C1170.79 205.687 1170.74 205.58 1170.74 205.455C1170.74 205.33 1170.79 205.223 1170.88 205.134C1170.98 205.045 1171.09 205 1171.22 205C1171.35 205 1171.46 205.045 1171.56 205.134C1171.65 205.223 1171.7 205.33 1171.7 205.455C1171.7 205.58 1171.65 205.687 1171.56 205.776C1171.46 205.865 1171.35 205.909 1171.22 205.909ZM1174.3 212.727C1173.98 212.727 1173.7 212.686 1173.46 212.602C1173.23 212.521 1173.04 212.413 1172.88 212.278C1172.73 212.146 1172.61 212.004 1172.52 211.852L1173.05 211.477C1173.11 211.557 1173.19 211.648 1173.28 211.75C1173.37 211.854 1173.5 211.944 1173.66 212.02C1173.82 212.098 1174.04 212.136 1174.3 212.136C1174.65 212.136 1174.94 212.051 1175.17 211.881C1175.4 211.71 1175.52 211.443 1175.52 211.08V210.193H1175.46C1175.41 210.273 1175.34 210.371 1175.25 210.489C1175.16 210.604 1175.03 210.707 1174.86 210.798C1174.7 210.887 1174.47 210.932 1174.19 210.932C1173.83 210.932 1173.52 210.848 1173.24 210.682C1172.96 210.515 1172.74 210.273 1172.58 209.955C1172.41 209.636 1172.33 209.25 1172.33 208.795C1172.33 208.348 1172.41 207.959 1172.57 207.628C1172.73 207.295 1172.95 207.037 1173.23 206.855C1173.51 206.671 1173.83 206.58 1174.2 206.58C1174.48 206.58 1174.71 206.627 1174.87 206.722C1175.04 206.814 1175.17 206.92 1175.26 207.04C1175.35 207.157 1175.42 207.254 1175.47 207.33H1175.54V206.636H1176.19V211.125C1176.19 211.5 1176.1 211.805 1175.93 212.04C1175.76 212.277 1175.53 212.45 1175.25 212.56C1174.96 212.671 1174.65 212.727 1174.3 212.727ZM1174.28 210.33C1174.55 210.33 1174.77 210.268 1174.96 210.145C1175.14 210.022 1175.29 209.845 1175.38 209.614C1175.48 209.383 1175.53 209.106 1175.53 208.784C1175.53 208.47 1175.48 208.192 1175.39 207.952C1175.29 207.711 1175.15 207.523 1174.96 207.386C1174.78 207.25 1174.55 207.182 1174.28 207.182C1173.99 207.182 1173.76 207.254 1173.57 207.398C1173.38 207.542 1173.24 207.735 1173.14 207.977C1173.05 208.22 1173 208.489 1173 208.784C1173 209.087 1173.05 209.355 1173.15 209.588C1173.24 209.819 1173.39 210.001 1173.57 210.134C1173.76 210.264 1174 210.33 1174.28 210.33ZM1177.84 208.375V211H1177.17V206.636H1177.82V207.318H1177.88C1177.98 207.097 1178.14 206.919 1178.34 206.784C1178.55 206.648 1178.82 206.58 1179.15 206.58C1179.45 206.58 1179.7 206.64 1179.93 206.761C1180.15 206.881 1180.32 207.062 1180.44 207.307C1180.57 207.549 1180.63 207.856 1180.63 208.227V211H1179.96V208.273C1179.96 207.93 1179.87 207.663 1179.69 207.472C1179.51 207.278 1179.27 207.182 1178.96 207.182C1178.74 207.182 1178.55 207.228 1178.38 207.321C1178.22 207.414 1178.09 207.549 1177.99 207.727C1177.89 207.905 1177.84 208.121 1177.84 208.375ZM1184.36 209.216V206.636H1185.03V211H1184.36V210.261H1184.32C1184.22 210.483 1184.06 210.671 1183.84 210.827C1183.62 210.98 1183.35 211.057 1183.02 211.057C1182.75 211.057 1182.51 210.997 1182.3 210.878C1182.08 210.757 1181.92 210.575 1181.8 210.332C1181.67 210.088 1181.61 209.78 1181.61 209.409V206.636H1182.28V209.364C1182.28 209.682 1182.37 209.936 1182.55 210.125C1182.73 210.314 1182.96 210.409 1183.24 210.409C1183.4 210.409 1183.57 210.366 1183.75 210.281C1183.92 210.196 1184.07 210.065 1184.18 209.889C1184.3 209.713 1184.36 209.489 1184.36 209.216ZM1186.02 212.636V206.636H1186.67V207.33H1186.75C1186.8 207.254 1186.87 207.157 1186.95 207.04C1187.04 206.92 1187.17 206.814 1187.33 206.722C1187.5 206.627 1187.73 206.58 1188.01 206.58C1188.38 206.58 1188.7 206.671 1188.98 206.855C1189.26 207.039 1189.48 207.299 1189.64 207.636C1189.8 207.973 1189.87 208.371 1189.87 208.83C1189.87 209.292 1189.8 209.692 1189.64 210.031C1189.48 210.368 1189.26 210.63 1188.98 210.815C1188.71 210.999 1188.39 211.091 1188.02 211.091C1187.74 211.091 1187.52 211.045 1187.35 210.952C1187.18 210.857 1187.05 210.75 1186.96 210.631C1186.87 210.509 1186.8 210.409 1186.75 210.33H1186.69V212.636H1186.02ZM1186.68 208.818C1186.68 209.148 1186.73 209.438 1186.83 209.69C1186.92 209.94 1187.06 210.136 1187.25 210.278C1187.43 210.419 1187.66 210.489 1187.93 210.489C1188.21 210.489 1188.45 210.415 1188.63 210.267C1188.82 210.117 1188.96 209.917 1189.06 209.665C1189.16 209.411 1189.2 209.129 1189.2 208.818C1189.2 208.511 1189.16 208.235 1189.06 207.989C1188.97 207.741 1188.83 207.545 1188.64 207.401C1188.45 207.255 1188.21 207.182 1187.93 207.182C1187.66 207.182 1187.43 207.251 1187.24 207.389C1187.06 207.526 1186.92 207.717 1186.82 207.963C1186.73 208.207 1186.68 208.492 1186.68 208.818ZM1193.75 207.614L1193.15 207.784C1193.11 207.684 1193.05 207.586 1192.98 207.491C1192.91 207.395 1192.81 207.315 1192.68 207.253C1192.56 207.19 1192.4 207.159 1192.2 207.159C1191.94 207.159 1191.71 207.221 1191.53 207.344C1191.36 207.465 1191.27 207.619 1191.27 207.807C1191.27 207.973 1191.33 208.105 1191.45 208.202C1191.57 208.298 1191.76 208.379 1192.02 208.443L1192.67 208.602C1193.06 208.697 1193.35 208.842 1193.54 209.037C1193.73 209.23 1193.83 209.479 1193.83 209.784C1193.83 210.034 1193.76 210.258 1193.61 210.455C1193.47 210.652 1193.27 210.807 1193.01 210.92C1192.76 211.034 1192.46 211.091 1192.12 211.091C1191.68 211.091 1191.31 210.994 1191.02 210.801C1190.73 210.608 1190.54 210.326 1190.46 209.955L1191.1 209.795C1191.16 210.03 1191.28 210.206 1191.44 210.324C1191.61 210.441 1191.84 210.5 1192.11 210.5C1192.42 210.5 1192.67 210.434 1192.86 210.301C1193.04 210.167 1193.13 210.006 1193.13 209.818C1193.13 209.667 1193.08 209.54 1192.97 209.438C1192.87 209.333 1192.71 209.256 1192.49 209.205L1191.76 209.034C1191.36 208.939 1191.07 208.793 1190.88 208.594C1190.69 208.393 1190.6 208.142 1190.6 207.841C1190.6 207.595 1190.67 207.377 1190.81 207.188C1190.95 206.998 1191.14 206.849 1191.38 206.741C1191.62 206.634 1191.9 206.58 1192.2 206.58C1192.63 206.58 1192.97 206.674 1193.22 206.864C1193.47 207.053 1193.64 207.303 1193.75 207.614Z" fill="white"/>
<path opacity="0.2" d="M1331.52 205.182H1332.23V209.034C1332.23 209.432 1332.13 209.787 1331.95 210.099C1331.76 210.41 1331.5 210.655 1331.16 210.835C1330.82 211.013 1330.42 211.102 1329.97 211.102C1329.51 211.102 1329.11 211.013 1328.77 210.835C1328.43 210.655 1328.17 210.41 1327.98 210.099C1327.8 209.787 1327.7 209.432 1327.7 209.034V205.182H1328.41V208.977C1328.41 209.261 1328.47 209.514 1328.6 209.736C1328.72 209.955 1328.9 210.129 1329.13 210.256C1329.36 210.381 1329.64 210.443 1329.97 210.443C1330.29 210.443 1330.57 210.381 1330.8 210.256C1331.03 210.129 1331.21 209.955 1331.34 209.736C1331.46 209.514 1331.52 209.261 1331.52 208.977V205.182ZM1333.3 212.636V206.636H1333.95V207.33H1334.03C1334.08 207.254 1334.15 207.157 1334.24 207.04C1334.32 206.92 1334.45 206.814 1334.62 206.722C1334.78 206.627 1335.01 206.58 1335.29 206.58C1335.66 206.58 1335.98 206.671 1336.26 206.855C1336.54 207.039 1336.76 207.299 1336.92 207.636C1337.08 207.973 1337.16 208.371 1337.16 208.83C1337.16 209.292 1337.08 209.692 1336.92 210.031C1336.76 210.368 1336.54 210.63 1336.27 210.815C1335.99 210.999 1335.67 211.091 1335.3 211.091C1335.02 211.091 1334.8 211.045 1334.63 210.952C1334.46 210.857 1334.33 210.75 1334.24 210.631C1334.15 210.509 1334.08 210.409 1334.03 210.33H1333.97V212.636H1333.3ZM1333.96 208.818C1333.96 209.148 1334.01 209.438 1334.11 209.69C1334.2 209.94 1334.34 210.136 1334.53 210.278C1334.72 210.419 1334.94 210.489 1335.21 210.489C1335.49 210.489 1335.73 210.415 1335.91 210.267C1336.1 210.117 1336.25 209.917 1336.34 209.665C1336.44 209.411 1336.49 209.129 1336.49 208.818C1336.49 208.511 1336.44 208.235 1336.34 207.989C1336.25 207.741 1336.11 207.545 1335.92 207.401C1335.73 207.255 1335.5 207.182 1335.21 207.182C1334.94 207.182 1334.71 207.251 1334.52 207.389C1334.34 207.526 1334.2 207.717 1334.1 207.963C1334.01 208.207 1333.96 208.492 1333.96 208.818ZM1339.59 211.091C1339.22 211.091 1338.9 210.999 1338.62 210.815C1338.34 210.63 1338.13 210.368 1337.97 210.031C1337.81 209.692 1337.73 209.292 1337.73 208.83C1337.73 208.371 1337.81 207.973 1337.97 207.636C1338.13 207.299 1338.35 207.039 1338.63 206.855C1338.91 206.671 1339.23 206.58 1339.6 206.58C1339.88 206.58 1340.11 206.627 1340.27 206.722C1340.44 206.814 1340.56 206.92 1340.65 207.04C1340.74 207.157 1340.81 207.254 1340.86 207.33H1340.92V205.182H1341.59V211H1340.94V210.33H1340.86C1340.81 210.409 1340.74 210.509 1340.65 210.631C1340.56 210.75 1340.43 210.857 1340.26 210.952C1340.09 211.045 1339.87 211.091 1339.59 211.091ZM1339.68 210.489C1339.95 210.489 1340.17 210.419 1340.36 210.278C1340.54 210.136 1340.69 209.94 1340.78 209.69C1340.88 209.438 1340.93 209.148 1340.93 208.818C1340.93 208.492 1340.88 208.207 1340.78 207.963C1340.69 207.717 1340.55 207.526 1340.36 207.389C1340.18 207.251 1339.95 207.182 1339.68 207.182C1339.39 207.182 1339.16 207.255 1338.97 207.401C1338.78 207.545 1338.64 207.741 1338.54 207.989C1338.45 208.235 1338.4 208.511 1338.4 208.818C1338.4 209.129 1338.45 209.411 1338.55 209.665C1338.64 209.917 1338.78 210.117 1338.97 210.267C1339.16 210.415 1339.4 210.489 1339.68 210.489ZM1343.95 211.102C1343.67 211.102 1343.42 211.05 1343.2 210.946C1342.97 210.84 1342.79 210.688 1342.66 210.489C1342.53 210.288 1342.46 210.045 1342.46 209.761C1342.46 209.511 1342.51 209.309 1342.61 209.153C1342.71 208.996 1342.84 208.873 1343.01 208.784C1343.17 208.695 1343.35 208.629 1343.55 208.585C1343.75 208.54 1343.95 208.504 1344.16 208.477C1344.42 208.443 1344.64 208.418 1344.8 208.401C1344.97 208.382 1345.09 208.35 1345.16 208.307C1345.24 208.263 1345.28 208.187 1345.28 208.08V208.057C1345.28 207.777 1345.2 207.559 1345.05 207.403C1344.9 207.248 1344.67 207.17 1344.36 207.17C1344.04 207.17 1343.79 207.241 1343.61 207.381C1343.43 207.521 1343.3 207.67 1343.22 207.83L1342.59 207.602C1342.7 207.337 1342.85 207.131 1343.04 206.983C1343.23 206.833 1343.44 206.729 1343.67 206.67C1343.89 206.61 1344.12 206.58 1344.34 206.58C1344.48 206.58 1344.64 206.597 1344.82 206.631C1345 206.663 1345.18 206.73 1345.35 206.832C1345.52 206.935 1345.67 207.089 1345.78 207.295C1345.89 207.502 1345.95 207.778 1345.95 208.125V211H1345.28V210.409H1345.25C1345.2 210.504 1345.13 210.605 1345.02 210.713C1344.91 210.821 1344.77 210.913 1344.6 210.989C1344.42 211.064 1344.2 211.102 1343.95 211.102ZM1344.05 210.5C1344.32 210.5 1344.54 210.448 1344.72 210.344C1344.91 210.24 1345.05 210.105 1345.14 209.94C1345.23 209.776 1345.28 209.602 1345.28 209.42V208.807C1345.25 208.841 1345.19 208.872 1345.09 208.901C1345 208.927 1344.89 208.951 1344.76 208.972C1344.64 208.991 1344.52 209.008 1344.4 209.023C1344.29 209.036 1344.19 209.047 1344.12 209.057C1343.95 209.08 1343.78 209.116 1343.63 209.168C1343.48 209.217 1343.36 209.292 1343.27 209.392C1343.18 209.491 1343.13 209.625 1343.13 209.795C1343.13 210.028 1343.22 210.205 1343.39 210.324C1343.57 210.441 1343.79 210.5 1344.05 210.5ZM1348.83 206.636V207.205H1346.57V206.636H1348.83ZM1347.23 205.591H1347.9V209.75C1347.9 209.939 1347.93 210.081 1347.98 210.176C1348.04 210.269 1348.11 210.331 1348.2 210.364C1348.29 210.394 1348.38 210.409 1348.48 210.409C1348.55 210.409 1348.61 210.405 1348.66 210.398C1348.71 210.388 1348.75 210.381 1348.78 210.375L1348.91 210.977C1348.87 210.994 1348.8 211.011 1348.72 211.028C1348.64 211.047 1348.54 211.057 1348.41 211.057C1348.22 211.057 1348.04 211.016 1347.86 210.935C1347.68 210.853 1347.53 210.729 1347.41 210.562C1347.29 210.396 1347.23 210.186 1347.23 209.932V205.591ZM1351.38 211.091C1350.96 211.091 1350.6 210.998 1350.3 210.812C1349.99 210.625 1349.76 210.364 1349.59 210.028C1349.43 209.691 1349.35 209.299 1349.35 208.852C1349.35 208.405 1349.43 208.011 1349.59 207.67C1349.76 207.328 1349.99 207.061 1350.28 206.869C1350.58 206.676 1350.92 206.58 1351.32 206.58C1351.54 206.58 1351.77 206.617 1351.99 206.693C1352.21 206.769 1352.41 206.892 1352.59 207.062C1352.78 207.231 1352.92 207.455 1353.03 207.733C1353.14 208.011 1353.19 208.354 1353.19 208.761V209.045H1349.83V208.466H1352.51C1352.51 208.22 1352.46 208 1352.36 207.807C1352.26 207.614 1352.13 207.461 1351.95 207.349C1351.77 207.238 1351.56 207.182 1351.32 207.182C1351.05 207.182 1350.82 207.248 1350.62 207.381C1350.43 207.511 1350.28 207.682 1350.18 207.892C1350.07 208.102 1350.02 208.328 1350.02 208.568V208.955C1350.02 209.284 1350.08 209.563 1350.19 209.793C1350.31 210.02 1350.47 210.193 1350.67 210.312C1350.88 210.43 1351.11 210.489 1351.38 210.489C1351.56 210.489 1351.72 210.464 1351.86 210.415C1352.01 210.364 1352.13 210.288 1352.23 210.188C1352.34 210.085 1352.42 209.958 1352.47 209.807L1353.12 209.989C1353.05 210.208 1352.94 210.402 1352.78 210.568C1352.62 210.733 1352.42 210.862 1352.18 210.955C1351.95 211.045 1351.68 211.091 1351.38 211.091Z" fill="#FFFD63"/>
<g filter="url(#filter0_f_4123_1329)">
<path d="M1406.98 -54.8725C1406.98 -105.357 1447.94 -146.283 1498.46 -146.283H1638.72C1689.24 -146.283 1730.2 -105.357 1730.2 -54.8725V85.291C1730.2 135.776 1694.95 129.544 1644.42 129.544L1410.99 227.27C1241.01 285.847 1222.08 334.191 1406.98 85.291V-54.8725Z" fill="url(#paint6_linear_4123_1329)"/>
</g>
<g style="mix-blend-mode:overlay" filter="url(#filter1_f_4123_1329)">
<path d="M1462.44 -27.1915C1462.44 -50.9181 1481.65 -70.1523 1505.34 -70.1523H1571.13C1594.83 -70.1523 1614.04 -50.9181 1614.04 -27.1915V38.6818C1614.04 62.4083 1597.51 59.4797 1573.81 59.4797L1439.67 129.419C780.481 564.847 1375.71 155.658 1462.44 38.6818V-27.1915Z" fill="url(#paint7_linear_4123_1329)"/>
</g>
<g style="mix-blend-mode:overlay" filter="url(#filter2_f_4123_1329)">
<path d="M1711.16 -199.222C1711.16 -241.073 1745.1 -275 1786.96 -275L1903.2 -275C1945.06 -275 1979 -241.073 1979 -199.222V-83.0289C1979 -41.1778 1949.79 -46.3437 1907.92 -46.3437L1670.93 77.0213C506.332 845.068 1557.93 123.305 1711.16 -83.0289V-199.222Z" fill="url(#paint8_linear_4123_1329)"/>
</g>
<g style="mix-blend-mode:overlay" filter="url(#filter3_f_4123_1329)">
<path d="M1727.8 -216.355C1727.8 -248.744 1754.06 -275 1786.46 -275H1876.39C1908.79 -275 1935.05 -248.744 1935.05 -216.355V-126.433C1935.05 -94.0442 1912.44 -98.0421 1880.05 -98.0421L1696.67 -2.56953C795.532 591.824 1609.24 33.2492 1727.8 -126.433V-216.355Z" fill="url(#paint9_linear_4123_1329)"/>
</g>
</g>
<defs>
<filter id="filter0_f_4123_1329" x="1006.05" y="-416.004" width="993.875" height="960.125" filterUnits="userSpaceOnUse" color-interpolation-filters="sRGB">
<feFlood flood-opacity="0" result="BackgroundImageFix"/>
<feBlend mode="normal" in="SourceGraphic" in2="BackgroundImageFix" result="shape"/>
<feGaussianBlur stdDeviation="134.86" result="effect1_foregroundBlur_4123_1329"/>
</filter>
<filter id="filter1_f_4123_1329" x="1078.98" y="-124.096" width="589.006" height="503.456" filterUnits="userSpaceOnUse" color-interpolation-filters="sRGB">
<feFlood flood-opacity="0" result="BackgroundImageFix"/>
<feBlend mode="normal" in="SourceGraphic" in2="BackgroundImageFix" result="shape"/>
<feGaussianBlur stdDeviation="26.9721" result="effect1_foregroundBlur_4123_1329"/>
</filter>
<filter id="filter2_f_4123_1329" x="1102.03" y="-301.972" width="903.944" height="751.682" filterUnits="userSpaceOnUse" color-interpolation-filters="sRGB">
<feFlood flood-opacity="0" result="BackgroundImageFix"/>
<feBlend mode="normal" in="SourceGraphic" in2="BackgroundImageFix" result="shape"/>
<feGaussianBlur stdDeviation="13.486" result="effect1_foregroundBlur_4123_1329"/>
</filter>
<filter id="filter3_f_4123_1329" x="1250.37" y="-301.972" width="711.654" height="593.926" filterUnits="userSpaceOnUse" color-interpolation-filters="sRGB">
<feFlood flood-opacity="0" result="BackgroundImageFix"/>
<feBlend mode="normal" in="SourceGraphic" in2="BackgroundImageFix" result="shape"/>
<feGaussianBlur stdDeviation="13.486" result="effect1_foregroundBlur_4123_1329"/>
</filter>
<radialGradient id="paint0_radial_4123_1329" cx="0" cy="0" r="1" gradientUnits="userSpaceOnUse" gradientTransform="translate(264.517 114.456) rotate(90) scale(142.59 34899.5)">
<stop stop-color="#FFF250"/>
<stop offset="1" stop-color="#FFF250" stop-opacity="0"/>
</radialGradient>
<radialGradient id="paint1_radial_4123_1329" cx="0" cy="0" r="1" gradientUnits="userSpaceOnUse" gradientTransform="translate(532.103 550.545) rotate(-90) scale(142.59 34899.5)">
<stop stop-color="#FFF250"/>
<stop offset="1" stop-color="#FFF250" stop-opacity="0"/>
</radialGradient>
<radialGradient id="paint2_radial_4123_1329" cx="0" cy="0" r="1" gradientUnits="userSpaceOnUse" gradientTransform="translate(285.818 -0.36817) rotate(-180) scale(142.59 34899.5)">
<stop stop-color="#FFF250"/>
<stop offset="1" stop-color="#FFF250" stop-opacity="0"/>
</radialGradient>
<radialGradient id="paint3_radial_4123_1329" cx="0" cy="0" r="1" gradientUnits="userSpaceOnUse" gradientTransform="translate(1327.68 398.234) rotate(90) scale(132.027 34899.5)">
<stop stop-color="#FFF250"/>
<stop offset="1" stop-color="#FFF250" stop-opacity="0"/>
</radialGradient>
<radialGradient id="paint4_radial_4123_1329" cx="0" cy="0" r="1" gradientUnits="userSpaceOnUse" gradientTransform="translate(1725.83 307.167) rotate(90) scale(132.027 34899.5)">
<stop stop-color="#FFF250"/>
<stop offset="1" stop-color="#FFF250" stop-opacity="0"/>
</radialGradient>
<radialGradient id="paint5_radial_4123_1329" cx="0" cy="0" r="1" gradientUnits="userSpaceOnUse" gradientTransform="translate(2123.98 118.678) rotate(90) scale(132.027 34899.5)">
<stop stop-color="#FFF250"/>
<stop offset="1" stop-color="#FFF250" stop-opacity="0"/>
</radialGradient>
<linearGradient id="paint6_linear_4123_1329" x1="1425.4" y1="-45.6684" x2="1609.77" y2="138.833" gradientUnits="userSpaceOnUse">
<stop offset="0.0001" stop-color="#FFFD63"/>
<stop offset="1" stop-color="#FFFBF9"/>
</linearGradient>
<linearGradient id="paint7_linear_4123_1329" x1="1570.01" y1="-88.0624" x2="1656.66" y2="-1.52281" gradientUnits="userSpaceOnUse">
<stop offset="0.0001" stop-color="white"/>
<stop offset="1" stop-color="#FFFD63"/>
</linearGradient>
<linearGradient id="paint8_linear_4123_1329" x1="1726.42" y1="-191.592" x2="1879.26" y2="-38.7004" gradientUnits="userSpaceOnUse">
<stop stop-color="#FFFD63"/>
<stop offset="0.0001" stop-color="#FFFD63"/>
<stop offset="0.461458" stop-color="#FAF9B3"/>
<stop offset="1" stop-color="#FFFD63"/>
</linearGradient>
<linearGradient id="paint9_linear_4123_1329" x1="1739.61" y1="-210.45" x2="1857.89" y2="-92.1463" gradientUnits="userSpaceOnUse">
<stop stop-color="#FFFD63"/>
<stop offset="0.0001" stop-color="#FFFD63"/>
<stop offset="0.461458" stop-color="#FAF9B3"/>
<stop offset="1" stop-color="#FFFD63"/>
</linearGradient>
<clipPath id="clip0_4123_1329">
<rect width="2257" height="670" fill="white"/>
</clipPath>
</defs>
</svg>
