<svg xmlns="http://www.w3.org/2000/svg" width="1920" height="483" viewBox="0 0 1920 483"><defs><radialGradient id="a" cx="50.171%" cy="47.418%" r="84.288%" fx="50.171%" fy="47.418%" gradientTransform="matrix(0 1 -.3533 0 .67 -.028)"><stop offset="0%" stop-color="#DEE2E6"></stop><stop offset="100%" stop-color="#DEE2E6" stop-opacity="0"></stop></radialGradient></defs><path fill="none" stroke="url(#a)" stroke-linecap="round" stroke-linejoin="round" d="M1644.58127,414.687688 L1993.79929,414.687688 C2001.21728,414.687688 2010.23358,417.174402 2013.93777,420.241919 L2125.7213,512.812431 C2129.42548,515.879948 2125.69621,518.366661 2117.39175,518.366661 L1726.44122,518.366661 C1718.13675,518.366661 1709.47976,515.879948 1707.10529,512.812431 L1635.44918,420.241919 C1633.0747,417.174402 1637.16328,414.687688 1644.58127,414.687688 Z M1214.77449,414.687688 L1563.9925,414.687688 C1571.41049,414.687688 1579.19486,417.174402 1581.37938,420.241919 L1647.303,512.812431 C1649.48752,515.879948 1644.52632,518.366661 1636.22186,518.366661 L1245.27133,518.366661 C1236.96686,518.366661 1229.54181,515.879948 1228.687,512.812431 L1202.8908,420.241919 C1202.03598,417.174402 1207.35649,414.687688 1214.77449,414.687688 Z M784.967696,414.687688 L1134.18571,414.687688 C1141.6037,414.687688 1148.15614,417.174402 1148.821,420.241919 L1168.88471,512.812431 C1169.54956,515.879948 1163.35643,518.366661 1155.05197,518.366661 L764.101436,518.366661 C755.796974,518.366661 749.603847,515.879948 750.2687,512.812431 L770.332411,420.241919 C770.997264,417.174402 777.549704,414.687688 784.967696,414.687688 Z M355.160906,414.687688 L704.378923,414.687688 C711.796914,414.687688 717.117424,417.174402 716.262613,420.241919 L690.466413,512.812431 C689.611602,515.879948 682.186544,518.366661 673.882082,518.366661 L282.931546,518.366661 C274.627084,518.366661 269.665888,515.879948 271.850405,512.812431 L337.774027,420.241919 C339.958544,417.174402 347.742915,414.687688 355.160906,414.687688 Z M-74.6458831,414.687688 L274.572133,414.687688 C281.990125,414.687688 286.078703,417.174402 283.704229,420.241919 L212.048118,512.812431 C209.673643,515.879948 201.016654,518.366661 192.712192,518.366661 L-198.238344,518.366661 C-206.542806,518.366661 -210.272071,515.879948 -206.567891,512.812431 L-94.7843573,420.241919 C-91.0801769,417.174402 -82.0638749,414.687688 -74.6458831,414.687688 Z M1545.17992,288.791792 L1843.72273,288.791792 C1850.0643,288.791792 1858.20798,291.278506 1861.91216,294.346023 L1973.69569,386.916535 C1977.39987,389.984051 1974.54323,392.470765 1967.31519,392.470765 L1627.03986,392.470765 C1619.81182,392.470765 1612.02745,389.984051 1609.65298,386.916535 L1537.99687,294.346023 C1535.62239,291.278506 1538.83835,288.791792 1545.17992,288.791792 Z M1177.74261,288.791792 L1476.28542,288.791792 C1482.62698,288.791792 1489.53874,291.278506 1491.72326,294.346023 L1557.64688,386.916535 C1559.83139,389.984051 1555.74282,392.470765 1548.51478,392.470765 L1208.23945,392.470765 C1201.01141,392.470765 1194.45897,389.984051 1193.60416,386.916535 L1167.80796,294.346023 C1166.95315,291.278506 1171.40104,288.791792 1177.74261,288.791792 Z M810.305297,288.791792 L1108.84811,288.791792 C1115.18967,288.791792 1120.8695,291.278506 1121.53435,294.346023 L1141.59806,386.916535 C1142.26291,389.984051 1136.9424,392.470765 1129.71437,392.470765 L789.439037,392.470765 C782.211003,392.470765 776.890494,389.984051 777.555347,386.916535 L797.619058,294.346023 C798.283911,291.278506 803.963733,288.791792 810.305297,288.791792 Z M442.867986,288.791792 L741.410801,288.791792 C747.752364,288.791792 752.200256,291.278506 751.345445,294.346023 L725.549245,386.916535 C724.694434,389.984051 718.141994,392.470765 710.91396,392.470765 L370.638626,392.470765 C363.410593,392.470765 359.322014,389.984051 361.506531,386.916535 L427.430153,294.346023 C429.61467,291.278506 436.526423,288.791792 442.867986,288.791792 Z M75.4306759,288.791792 L373.973491,288.791792 C380.315054,288.791792 383.531015,291.278506 381.15654,294.346023 L309.500429,386.916535 C307.125954,389.984051 299.341583,392.470765 292.113549,392.470765 L-48.1617845,392.470765 C-55.3898182,392.470765 -58.2464658,389.984051 -54.5422853,386.916535 L57.241248,294.346023 C60.9454284,291.278506 69.0891127,288.791792 75.4306759,288.791792 Z M1445.77856,162.895896 L1693.64617,162.895896 C1698.91131,162.895896 1706.18237,165.38261 1709.88655,168.450127 L1821.67009,261.020639 C1825.37427,264.088155 1823.39024,266.574869 1817.23863,266.574869 L1527.6385,266.574869 C1521.4869,266.574869 1514.57514,264.088155 1512.20067,261.020639 L1440.54456,168.450127 C1438.17008,165.38261 1440.51343,162.895896 1445.77856,162.895896 Z M1140.71073,162.895896 L1388.57834,162.895896 C1393.84348,162.895896 1399.88261,165.38261 1402.06713,168.450127 L1467.99075,261.020639 C1470.17527,264.088155 1466.95931,266.574869 1460.8077,266.574869 L1171.20757,266.574869 C1165.05596,266.574869 1159.37614,264.088155 1158.52133,261.020639 L1132.72513,168.450127 C1131.87032,165.38261 1135.44559,162.895896 1140.71073,162.895896 Z M835.642898,162.895896 L1083.51051,162.895896 C1088.77565,162.895896 1093.58285,165.38261 1094.2477,168.450127 L1114.31141,261.020639 C1114.97627,264.088155 1110.52838,266.574869 1104.37677,266.574869 L814.776638,266.574869 C808.625033,266.574869 804.177141,264.088155 804.841994,261.020639 L824.905705,168.450127 C825.570558,165.38261 830.377763,162.895896 835.642898,162.895896 Z M530.575066,162.895896 L778.442679,162.895896 C783.707814,162.895896 787.283088,165.38261 786.428277,168.450127 L760.632077,261.020639 C759.777266,264.088155 754.097444,266.574869 747.945838,266.574869 L458.345706,266.574869 C452.194101,266.574869 448.97814,264.088155 451.162657,261.020639 L517.086279,168.450127 C519.270796,165.38261 525.309932,162.895896 530.575066,162.895896 Z M225.507235,162.895896 L473.374848,162.895896 C478.639983,162.895896 480.983326,165.38261 478.608851,168.450127 L406.95274,261.020639 C404.578265,264.088155 397.666512,266.574869 391.514907,266.574869 L101.914775,266.574869 C95.7631693,266.574869 93.7791395,264.088155 97.4833199,261.020639 L209.266853,168.450127 C212.971034,165.38261 220.2421,162.895896 225.507235,162.895896 Z M1346.3772,37 L1543.56961,37 C1547.75832,37 1554.15677,39.4867138 1557.86095,42.5542307 L1669.64448,135.124742 C1673.34866,138.192259 1672.23725,140.678973 1667.16207,140.678973 L1428.23714,140.678973 C1423.16197,140.678973 1417.12283,138.192259 1414.74836,135.124742 L1343.09225,42.5542307 C1340.71777,39.4867138 1342.1885,37 1346.3772,37 Z M1103.67885,37 L1300.87126,37 C1305.05997,37 1310.22649,39.4867138 1312.411,42.5542307 L1378.33462,135.124742 C1380.51914,138.192259 1378.1758,140.678973 1373.10062,140.678973 L1134.17569,140.678973 C1129.10051,140.678973 1124.29331,138.192259 1123.4385,135.124742 L1097.6423,42.5542307 C1096.78749,39.4867138 1099.49014,37 1103.67885,37 Z M860.980498,37 L1058.17291,37 C1062.36162,37 1066.2962,39.4867138 1066.96106,42.5542307 L1087.02477,135.124742 C1087.68962,138.192259 1084.11435,140.678973 1079.03917,140.678973 L840.114239,140.678973 C835.039062,140.678973 831.463788,138.192259 832.128641,135.124742 L852.192352,42.5542307 C852.857205,39.4867138 856.791792,37 860.980498,37 Z M618.282146,37 L815.474557,37 C819.663264,37 822.36592,39.4867138 821.511109,42.5542307 L795.714909,135.124742 C794.860098,138.192259 790.052893,140.678973 784.977717,140.678973 L546.052786,140.678973 C540.97761,140.678973 538.634267,138.192259 540.818783,135.124742 L606.742405,42.5542307 C608.926922,39.4867138 614.09344,37 618.282146,37 Z M375.583794,37 L572.776205,37 C576.964911,37 578.435637,39.4867138 576.061162,42.5542307 L504.405051,135.124742 C502.030576,138.192259 495.991441,140.678973 490.916264,140.678973 L251.991334,140.678973 C246.916157,140.678973 245.804745,138.192259 249.508925,135.124742 L361.292458,42.5542307 C364.996639,39.4867138 371.395088,37 375.583794,37 Z" transform="translate(0 -36)"></path></svg>