<svg width="995" height="1000" viewBox="0 0 995 1000" fill="none" xmlns="http://www.w3.org/2000/svg">
<path d="M523.175 806.115L424.741 913.229C690.594 1009.4 844.65 957.83 886.734 838.365C763.481 903.659 593.006 844.07 523.175 806.115ZM92.1528 690.29L143.017 621.986C56.2348 503.89 -32.7336 303.584 103.441 214.931C71.7804 312.813 161.684 459.268 210.592 520.258L241.838 478.115L413.32 757.139L92.1528 690.29Z" fill="#1B1B1C" stroke="white" stroke-width="1.732" stroke-linejoin="round"/>
<mask id="mask0_189_264" style="mask-type:alpha" maskUnits="userSpaceOnUse" x="141" y="160" width="427" height="450">
<path fill-rule="evenodd" clip-rule="evenodd" d="M293.648 162.017C397.488 176.183 514.184 282.862 554.311 400.307C594.438 517.723 542.735 601.406 438.894 587.24C335.022 573.075 218.326 466.395 178.231 348.98C172.37 331.831 168.469 315.401 166.402 299.89C168.467 315.408 172.369 331.848 178.229 349.011C218.324 466.425 335.02 573.106 438.892 587.272C478.525 592.667 510.555 583.851 532.769 564.313L509.659 584.65C487.411 604.183 455.367 613.045 415.741 607.646C311.868 593.481 195.171 486.801 155.078 369.386C130.272 296.779 140.568 237.058 176.575 205.388L198.519 186.077C220.795 165.784 253.279 156.51 293.648 162.017Z" fill="#0500FF"/>
</mask>
<g mask="url(#mask0_189_264)">
<path d="M345.741 658.714C502.994 658.714 630.473 531.235 630.473 373.982C630.473 216.729 502.994 89.25 345.741 89.25C188.488 89.25 61.0093 216.729 61.0093 373.982C61.0093 531.235 188.488 658.714 345.741 658.714Z" fill="#F6921A"/>
</g>
<path fill-rule="evenodd" clip-rule="evenodd" d="M369.916 318.803C355.078 304.043 342.412 306.287 330.993 314.231L311.646 292.6L303.831 299.912L322.667 320.974C320.595 322.93 318.556 324.921 316.551 326.946L297.592 305.743L289.78 313.048L309.117 334.676C307.477 336.317 305.862 337.924 304.244 339.439L304.182 339.374L293.397 349.447L305.976 363.508C305.976 363.508 311.581 357.925 311.646 358.195C314.814 355.236 318.615 357.367 321.302 359.76L343.341 384.402C343.618 384.143 343.923 383.915 344.25 383.723L343.426 384.493L374.296 419.019C375.659 420.829 377.466 424.052 375.261 426.127C375.493 426.182 369.577 431.436 369.577 431.436L382.089 448.616L392.261 439.102C393.412 438.03 394.568 436.987 395.711 435.955L395.713 435.953C396.454 435.287 397.188 434.624 397.912 433.961L417.486 455.838L425.294 448.54L405.937 426.892C408.082 425.018 410.192 423.106 412.268 421.156L431.534 442.706L439.348 435.397L419.821 413.555C431.825 399.998 436.035 385.819 418.588 363.974C404.54 346.372 393.188 343.272 383.028 347.225C384.075 339.095 380.782 329.596 369.914 318.804L369.916 318.803ZM400.814 375.804C414.237 390.808 399.944 403.564 393.412 409.395C392.827 409.916 392.304 410.384 391.868 410.791L365.948 381.804C366.48 381.305 367.104 380.676 367.81 379.961C374.134 373.57 387.095 360.469 400.816 375.801L400.814 375.804ZM355.397 367.365C360.87 362.518 372.799 351.952 360.609 338.315C348.136 324.367 337.384 335.343 332.132 340.702C331.624 341.23 331.104 341.747 330.574 342.253L354.086 368.544C354.453 368.199 354.898 367.806 355.397 367.365Z" fill="white"/>
<path d="M492.745 328.791C554.328 425.333 547.015 522.741 477.021 546.495C407.026 570.249 300.132 511.125 238.756 414.817C177.173 318.273 184.343 220.99 254.479 197.111C324.821 173.469 431.367 232.484 492.745 328.791Z" fill="#F6921A"/>
<path d="M386.881 311.765C370.285 288.985 350.763 286.134 330.614 290.037L309.883 257.622L295.451 262.335L315.568 294.047C311.696 295.352 308.028 296.894 304.298 298.075L283.976 266.13L269.544 270.844L290.276 303.261C287.179 304.305 284.285 305.585 281.33 306.505L261.475 313.049L274.819 334.11C274.819 334.11 285.315 330.343 285.173 330.466C291.084 328.624 295.832 332.348 298.97 336.237L322.475 373.27C322.965 373.257 323.391 372.885 324.024 372.749C323.534 372.762 323.106 373.134 322.475 373.27L355.464 425.214C356.739 427.827 358.326 432.237 354.311 433.667C354.659 433.777 343.957 437.309 343.957 437.309L356.11 461.892L374.842 455.499C378.428 454.441 381.812 453.149 385.257 452.216L406.052 484.991L420.484 480.276L399.752 447.86C403.652 446.836 407.485 445.569 411.227 444.067L431.756 476.248L446.186 471.533L425.391 438.758C448.395 428.643 459.873 414.503 442.205 382.726C427.905 357.119 412.201 348.872 395.629 348.831C400.415 340.523 398.983 328.529 386.881 311.765ZM411.451 388.836C427.032 413.328 394.713 420.803 384.991 424.309L357.421 380.886C367.143 377.38 395.194 363.279 411.451 388.836ZM365.743 329.773C379.968 352.134 352.786 358.028 344.756 360.888L319.691 321.49C327.721 318.63 350.84 306.345 365.743 329.773Z" fill="white"/>
<path fill-rule="evenodd" clip-rule="evenodd" d="M270.048 183.704C276.21 182.72 282.706 182.242 289.514 182.294C283.892 182.333 277.199 182.666 270.048 183.704ZM196.056 263.966C195.342 269.62 194.973 275.312 194.95 281.011C195.063 275.316 195.432 269.628 196.056 263.966ZM264.037 447.756C258.674 441.227 253.54 434.513 248.644 427.627C253.669 434.417 258.8 441.128 264.037 447.756ZM272.903 458.152L472.279 285.255C425.486 227.543 355.51 190.108 307.989 183.637C398.974 196.024 501.287 289.568 536.451 392.473C571.616 495.346 526.279 568.733 435.294 556.316C379.367 548.681 319.158 510.407 272.903 458.152Z" fill="url(#paint0_linear_189_264)"/>
<path d="M299.957 520.056L276.806 540.432C320.363 576.44 369.352 601.276 415.78 607.611C455.438 613.008 487.482 604.177 509.698 584.615L532.851 564.239C510.603 583.771 478.559 592.634 438.933 587.235C392.503 580.902 343.516 556.034 299.957 520.056ZM249.976 471.039C241.154 460.806 232.844 450.143 225.076 439.088L201.926 459.462C209.703 470.51 218.012 481.173 226.825 491.414L249.976 471.039Z" fill="#1B1B1C"/>
<path fill-rule="evenodd" clip-rule="evenodd" d="M474.853 588.132C554.164 580.298 589.577 503.264 554.387 400.264C514.292 282.849 397.596 176.168 293.725 162.004C189.883 147.838 138.181 231.521 178.306 348.937C217.216 462.821 328.127 566.587 429.495 585.687C417.929 583.49 406.229 580.171 394.549 575.911L397.661 546.899C317.671 518.231 237.212 436.361 206.868 347.51C171.702 244.605 217.009 171.216 308.026 183.667L307.995 183.637C398.98 196.024 501.292 289.568 536.456 392.473C555.518 448.233 550.927 495.33 528.237 524.797L543.477 553.132C527.523 572.821 504.199 585.222 474.853 588.132Z" fill="url(#paint1_linear_189_264)"/>
<path d="M372.68 536.221C362.445 531.166 352.305 525.331 342.352 518.778L332.024 543.897C343.035 551.193 354.476 557.82 366.283 563.741L372.68 536.221Z" fill="white"/>
<path d="M532.862 564.272L509.711 584.648C487.464 604.181 455.419 613.041 415.792 607.645C311.92 593.479 195.224 486.797 155.129 369.384C130.324 296.775 140.62 237.054 176.626 205.384L199.778 185.01C163.771 216.68 153.475 276.369 178.281 349.008C218.374 466.423 335.071 573.103 438.944 587.269C478.602 592.667 510.646 583.837 532.862 564.272Z" stroke="white" stroke-width="1.662" stroke-linecap="round" stroke-linejoin="round"/>
<path fill-rule="evenodd" clip-rule="evenodd" d="M293.912 160.481C241.505 153.334 201.952 170.87 180.68 205.328C159.464 239.691 156.672 290.499 176.821 349.477C196.965 408.466 236.326 464.702 283.657 507.967C330.978 551.222 386.399 581.632 438.741 588.771C491.132 595.918 530.685 578.382 551.963 543.926C573.181 509.568 575.981 458.768 555.831 399.805C535.672 340.801 496.305 284.557 448.972 241.287C401.654 198.028 346.24 167.619 293.912 160.481ZM179.75 348.477C159.777 290.01 162.756 240.254 183.315 206.954C203.812 173.751 242.032 156.527 293.495 163.546C345.011 170.574 399.866 200.587 446.886 243.572C493.894 286.544 532.937 342.363 552.905 400.805C572.879 459.255 569.892 509.006 549.331 542.3C528.829 575.499 490.611 592.723 439.16 585.704C387.631 578.676 332.767 548.663 285.747 505.684C238.739 462.714 199.702 406.904 179.75 348.477Z" fill="white"/>
<path d="M554.361 400.306C514.236 282.859 397.54 176.179 293.698 162.014C189.827 147.848 138.154 231.531 178.281 348.978C218.376 466.392 335.073 573.071 438.944 587.237C542.786 601.403 594.488 517.719 554.361 400.306Z" stroke="white" stroke-width="1.662" stroke-linecap="round" stroke-linejoin="round"/>
<mask id="mask1_189_264" style="mask-type:alpha" maskUnits="userSpaceOnUse" x="370" y="408" width="466" height="399">
<path fill-rule="evenodd" clip-rule="evenodd" d="M784.251 498.421C704.536 409.57 560.099 381.656 461.616 436.023C418.229 459.967 390.993 495.881 380.907 536.168L376.648 549.954C360.274 602.915 374.315 664.538 421.162 716.753C500.847 805.574 645.285 833.49 743.795 779.123C784.417 756.717 810.883 723.81 822.358 686.63L828.019 668.3C832.629 654.218 835.071 639.501 835.3 624.494C836.169 582.267 819.503 537.682 784.279 498.421H784.251ZM638.989 786.259C561.544 787.088 480.343 754.965 427.555 696.125C392.313 656.844 375.631 612.241 376.501 570C376.516 569.082 376.538 568.164 376.568 567.246C374.896 610.293 391.521 655.989 427.533 696.125C480.326 754.97 561.538 787.095 638.989 786.259Z" fill="#44E841"/>
</mask>
<g mask="url(#mask1_189_264)">
<path d="M589.238 901.79C753.262 901.79 886.229 769.471 886.229 606.248C886.229 443.025 753.262 310.706 589.238 310.706C425.215 310.706 292.248 443.025 292.248 606.248C292.248 769.471 425.215 901.79 589.238 901.79Z" fill="#0F8F62"/>
</g>
<path fill-rule="evenodd" clip-rule="evenodd" d="M671.339 569.087C670.449 553.033 653.642 546.432 632.089 543.312L633.508 521.24L616.732 520.001L615.35 541.491C610.886 541.173 606.419 540.89 601.95 540.644L603.344 519.011L586.581 517.771L585.155 539.836C581.592 539.639 578.032 539.414 574.473 539.162L574.475 539.095L551.341 537.378L550.421 551.726C550.421 551.726 562.819 552.452 562.603 552.62C569.397 553.124 571.41 556.446 571.871 559.221L570.255 584.365C570.724 584.402 571.335 584.463 572.022 584.59L570.255 584.46L567.98 619.685C567.572 621.376 566.14 624.013 561.391 623.67C561.596 623.838 549.199 622.765 549.199 622.765L544.834 638.568L566.667 640.18C569.13 640.365 571.57 640.566 573.981 640.765H573.985L573.991 640.767C575.551 640.895 577.102 641.024 578.641 641.145L577.212 663.473L593.966 664.713L595.391 642.625C599.983 643.042 604.434 643.4 608.78 643.718L607.358 665.703L624.13 666.942L625.57 644.659C653.853 645.448 673.959 641.216 677.767 620.191C680.845 603.258 671.309 594.895 655.499 590.629C665.477 587.376 672.007 580.836 671.335 569.087H671.339ZM644.799 615.082C643.817 630.393 613.803 627.836 600.084 626.666C598.855 626.56 597.756 626.467 596.821 626.398L598.728 596.823C599.871 596.906 601.261 596.983 602.834 597.07H602.836C616.925 597.845 645.799 599.432 644.803 615.08L644.799 615.082ZM602.354 583.517C613.806 584.515 638.773 586.69 639.672 572.78C640.59 558.549 616.52 557.283 604.762 556.664C603.613 556.609 602.465 556.542 601.318 556.463L599.59 583.288C600.38 583.346 601.311 583.428 602.354 583.517Z" fill="white"/>
<path d="M809.462 610.138C801.41 698.598 705.274 762.153 594.736 752.091C484.199 742.03 401.119 662.16 409.171 573.698C417.223 485.238 513.359 421.683 623.898 431.745C734.434 441.806 817.514 521.676 809.462 610.138Z" fill="#0F8F62"/>
<path d="M613.611 695.736L615.482 675.181C653.475 674.872 676.44 658.591 678.715 633.596C680.926 609.304 663.728 594.55 622.086 583.222L626.445 535.337C642.892 538.954 653.97 546.557 661.628 556.203L684.523 543.92C672.352 528.917 654.728 518.835 630.089 514.708L631.939 494.386L607.129 492.127L605.279 512.449C569.685 512.27 546.121 525.434 543.868 550.194C541.719 573.786 558.248 589.423 599.328 600.464L594.564 652.786C576.346 649.244 563.017 640.494 552.114 627.725L529.402 641.203C542.721 656.546 561.32 668.838 590.63 673.389L588.801 693.479L613.611 695.736ZM647.918 632.442C646.749 645.289 634.808 653.624 615.602 654.466L620.024 605.879C642.365 612.624 648.981 620.764 647.918 632.442ZM574.328 551.79C575.391 540.11 586.872 533.619 605.451 533.19L601.412 577.572C581.968 571.326 573.158 564.637 574.328 551.79Z" fill="white"/>
<mask id="mask2_189_264" style="mask-type:alpha" maskUnits="userSpaceOnUse" x="355" y="395" width="495" height="424">
<path fill-rule="evenodd" clip-rule="evenodd" d="M794.86 491.417C710.272 397.134 557.004 367.514 452.499 425.203C406.384 450.653 377.464 488.845 366.803 531.681L362.348 546.098C344.972 602.298 359.872 667.689 409.585 723.095C494.142 817.348 647.41 846.968 751.944 789.279C795.048 765.502 823.132 730.584 835.309 691.13L841.168 672.16C846.605 655.735 849.257 638.489 849.061 620.908C848.806 577.381 831.074 531.75 794.89 491.417H794.86ZM637.354 796.867C614.94 796.847 592.264 794.238 570.017 789.173L569.566 789.07L569.272 789.003C511.248 775.648 456.194 745.59 416.376 701.206C380.169 660.849 362.425 615.199 362.171 571.655C362.153 570.054 362.158 568.452 362.188 566.856C361.115 611.826 378.803 659.365 416.344 701.206C471.598 762.795 556.192 796.8 637.354 796.867Z" fill="#44E841"/>
</mask>
<g mask="url(#mask2_189_264)">
<path d="M587.939 919.45C761.99 919.45 903.088 779.042 903.088 605.839C903.088 432.637 761.99 292.229 587.939 292.229C413.887 292.229 272.79 432.637 272.79 605.839C272.79 779.042 413.887 919.45 587.939 919.45Z" fill="#687EE3"/>
</g>
<path fill-rule="evenodd" clip-rule="evenodd" d="M675.089 566.406C674.145 549.37 656.313 542.365 633.441 539.054L634.948 515.633L617.143 514.32L615.678 537.122C611.004 536.776 606.216 536.497 601.458 536.223L602.939 513.268L585.149 511.951L583.637 535.366C579.857 535.158 576.078 534.919 572.302 534.651L572.304 534.579L547.754 532.758L546.78 547.983C546.78 547.983 559.937 548.754 559.706 548.933C566.914 549.467 569.05 552.992 569.542 555.936L567.827 582.618C568.324 582.657 568.972 582.72 569.702 582.856L567.827 582.718L565.412 620.096C564.978 621.892 563.458 624.69 558.421 624.325C558.639 624.502 545.482 623.365 545.482 623.365L540.851 640.134L564.019 641.845C566.635 642.041 569.223 642.255 571.784 642.467C573.443 642.603 575.089 642.739 576.724 642.869L575.209 666.562L592.987 667.879L594.499 644.439C599.371 644.882 604.093 645.262 608.706 645.599L607.197 668.929L624.996 670.244L626.523 646.597C656.534 647.435 677.872 642.944 681.911 620.635C685.177 602.666 675.06 593.791 658.283 589.266C668.87 585.812 675.799 578.873 675.086 566.406H675.089ZM646.926 615.212C645.886 631.46 614.037 628.746 599.477 627.504C598.173 627.394 597.009 627.294 596.017 627.221L598.041 595.838C599.253 595.927 600.728 596.009 602.397 596.1H602.399C617.348 596.921 647.989 598.605 646.931 615.212H646.926ZM601.886 581.72C614.041 582.778 640.533 585.085 641.488 570.324C642.462 555.223 616.918 553.88 604.443 553.225C603.041 553.15 601.803 553.085 600.788 553.011L598.955 581.474C599.793 581.538 600.78 581.623 601.886 581.72Z" fill="white"/>
<path d="M593.806 760.599C711.102 771.276 813.116 703.835 821.66 609.965C830.205 516.095 742.044 431.344 624.749 420.667C507.453 409.99 405.439 477.431 396.895 571.301C388.35 665.17 476.511 749.922 593.806 760.599Z" fill="#687EE3"/>
<path d="M603.806 650.739L598.419 709.938L698.773 615.918L603.806 650.739Z" fill="#D2D8EC"/>
<path d="M612.132 559.391L605.196 635.59L700.162 600.769L612.132 559.391Z" fill="#C4C8D8"/>
<path d="M620.112 471.657L612.125 559.393L700.155 600.771L620.112 471.657Z" fill="#D0D6EA"/>
<path d="M603.804 650.739L598.417 709.937L516.687 599.343L603.804 650.739Z" fill="#DEE2F6"/>
<path d="M612.13 559.391L605.194 635.59L518.076 584.195L612.13 559.391Z" fill="#D2D8EC"/>
<path d="M620.11 471.657L612.123 559.393L518.069 584.195L620.11 471.657Z" fill="#DEE2F6"/>
<path fill-rule="evenodd" clip-rule="evenodd" d="M795.907 490.555C711.121 395.589 557.493 365.753 452.747 423.861C347.968 481.969 331.747 606.034 416.532 701C456.484 745.751 511.741 776.045 569.968 789.475L576.074 761.36C583.573 763.082 591.142 764.486 598.76 765.566C539.564 757.121 481.691 728.805 441.523 683.809C367.225 600.617 381.452 491.853 473.261 440.92C565.037 389.987 699.743 416.174 774.011 499.365C847.894 582.093 834.197 690.192 743.668 741.425L760.827 767.03C864.557 708.658 880.385 585.146 795.937 490.555H795.907ZM659.773 796.55L654.976 767.501C643.724 768.367 632.328 768.455 620.905 767.792L620.965 796.842C633.974 797.609 646.953 797.52 659.773 796.55ZM740.544 743.155C741.112 742.848 741.676 742.539 742.238 742.226L742.287 742.2C741.707 742.521 741.126 742.84 740.544 743.155Z" fill="url(#paint2_linear_189_264)"/>
<path d="M752.134 789.24V789.242C648.035 846.972 495.182 817.347 410.862 722.898C363.993 670.404 348.283 609.088 361.341 555.183C356.758 604.179 374.348 656.97 415.35 702.892C500.54 798.315 654.939 828.391 760.397 769.875C792.721 751.959 816.717 727.766 831.978 700.069C818.613 735.788 791.793 767.259 752.134 789.24Z" fill="#1B1B1C"/>
<path d="M410.862 722.898C495.182 817.347 648.035 846.972 752.134 789.242V789.24C791.793 767.259 818.613 735.788 831.978 700.069C816.717 727.766 792.721 751.959 760.397 769.875C654.939 828.391 500.54 798.315 415.35 702.892C374.348 656.97 356.758 604.179 361.341 555.183C348.283 609.088 363.993 670.404 410.862 722.898ZM410.862 722.898L409.719 723.918" stroke="white" stroke-width="1.647"/>
<path fill-rule="evenodd" clip-rule="evenodd" d="M427.149 478.25C379.311 534.82 382.25 617.453 441.516 683.814C515.752 766.974 650.46 793.162 742.236 742.229C827.616 694.891 845.899 597.481 788.303 517.185L427.149 478.25Z" fill="url(#paint3_linear_189_264)"/>
<path d="M844.752 667.288C813.525 771.76 682.058 825.292 550.583 785.996C419.106 746.7 338.577 629.802 369.803 525.331C401.028 420.86 532.497 367.327 663.972 406.624C795.449 445.922 875.978 562.817 844.752 667.288Z" stroke="white" stroke-width="1.647"/>
<path d="M413.317 757.14L92.149 690.291L83.2161 717.622L397.737 775.824L413.317 757.14Z" fill="url(#paint4_linear_189_264)" stroke="white" stroke-width="1.732" stroke-linejoin="round"/>
<path d="M103.438 214.929C-32.7355 303.581 56.2328 503.889 143.017 621.983L125.279 645.803C-173.13 211.594 141.6 131.315 336.264 145.453L360.536 172.324C235.89 164.429 154.091 181.956 103.441 214.929H103.438Z" fill="url(#paint5_linear_189_264)"/>
<path d="M435.182 1.86426L336.255 145.456C228.264 137.613 83.324 158.827 26.6089 253.402C111.039 61.8922 334.171 5.91454 435.182 1.86426Z" fill="url(#paint6_linear_189_264)"/>
<path d="M435.192 1.86426L336.264 145.456L360.536 172.328L459.978 29.8512L435.192 1.86426Z" fill="url(#paint7_linear_189_264)"/>
<path d="M845.434 158.423L458.689 119.971L681.099 446.84L724.052 367.297C809.803 438.356 984.039 640.023 913.369 858.883C1095.37 568.703 919.391 312.611 808.654 220.837L845.434 158.423Z" fill="url(#paint8_linear_189_264)" stroke="white" stroke-width="1.732" stroke-linejoin="round"/>
<path d="M724.047 367.298L711.32 390.864C1034.93 732.499 938.972 1099.26 424.741 913.231L430.911 945.683C822.81 1102.64 913.363 858.884 913.363 858.884C984.034 640.024 809.797 438.357 724.047 367.298Z" fill="url(#paint9_linear_189_264)" stroke="white" stroke-width="1.144" stroke-linejoin="round"/>
<path d="M681.095 446.84L458.687 119.971L443.298 144.621L640.089 446.84H681.095Z" fill="url(#paint10_linear_189_264)" stroke="white" stroke-width="1.144" stroke-linejoin="round"/>
<path d="M103.438 214.929C-32.7355 303.581 56.2328 503.889 143.017 621.983L125.279 645.803C-173.13 211.594 141.6 131.315 336.264 145.453L360.536 172.324C235.89 164.429 154.091 181.956 103.441 214.929H103.438Z" fill="url(#paint11_linear_189_264)" stroke="white" stroke-width="1.144" stroke-linejoin="round"/>
<path d="M435.182 1.86426L336.255 145.456C228.264 137.613 83.324 158.827 26.6089 253.402C111.039 61.8922 334.171 5.91454 435.182 1.86426Z" fill="url(#paint12_linear_189_264)" stroke="white" stroke-width="1.732" stroke-linejoin="round"/>
<path d="M435.192 1.86426L336.264 145.456L360.536 172.328L459.978 29.8512L435.192 1.86426Z" fill="url(#paint13_linear_189_264)" stroke="white" stroke-width="1.144" stroke-linejoin="round"/>
<defs>
<linearGradient id="paint0_linear_189_264" x1="194.914" y1="369.975" x2="548.341" y2="369.975" gradientUnits="userSpaceOnUse">
<stop stop-color="white"/>
<stop offset="1" stop-color="white" stop-opacity="0"/>
</linearGradient>
<linearGradient id="paint1_linear_189_264" x1="567.987" y1="374.272" x2="164.71" y2="374.272" gradientUnits="userSpaceOnUse">
<stop stop-color="white"/>
<stop offset="1" stop-color="white" stop-opacity="0"/>
</linearGradient>
<linearGradient id="paint2_linear_189_264" x1="362.149" y1="595.756" x2="850.205" y2="595.756" gradientUnits="userSpaceOnUse">
<stop stop-color="white"/>
<stop offset="1" stop-color="white" stop-opacity="0"/>
</linearGradient>
<linearGradient id="paint3_linear_189_264" x1="821.59" y1="623.231" x2="393.905" y2="623.231" gradientUnits="userSpaceOnUse">
<stop stop-color="white"/>
<stop offset="1" stop-color="white" stop-opacity="0"/>
</linearGradient>
<linearGradient id="paint4_linear_189_264" x1="248.266" y1="690.291" x2="248.266" y2="775.824" gradientUnits="userSpaceOnUse">
<stop offset="0.06" stop-color="#FFF9A8"/>
<stop offset="0.75" stop-color="#FFAEFE"/>
</linearGradient>
<linearGradient id="paint5_linear_189_264" x1="230.67" y1="157.516" x2="14.3148" y2="761.294" gradientUnits="userSpaceOnUse">
<stop stop-color="#E7AA10"/>
<stop offset="1" stop-color="#B18002"/>
</linearGradient>
<linearGradient id="paint6_linear_189_264" x1="-40.7207" y1="198.915" x2="432.771" y2="386.525" gradientUnits="userSpaceOnUse">
<stop stop-color="#F0B90B"/>
<stop offset="0.429" stop-color="#FBDA3C"/>
<stop offset="1" stop-color="#FCEA9C"/>
</linearGradient>
<linearGradient id="paint7_linear_189_264" x1="408.527" y1="-12.6702" x2="264.875" y2="413.726" gradientUnits="userSpaceOnUse">
<stop stop-color="#E7AA10"/>
<stop offset="1" stop-color="#B18002"/>
</linearGradient>
<linearGradient id="paint8_linear_189_264" x1="725.361" y1="119.971" x2="725.361" y2="858.883" gradientUnits="userSpaceOnUse">
<stop offset="0.046" stop-color="#2ECCFF"/>
<stop offset="1" stop-color="#0500FF"/>
</linearGradient>
<linearGradient id="paint9_linear_189_264" x1="677.292" y1="367.298" x2="677.292" y2="998.367" gradientUnits="userSpaceOnUse">
<stop offset="0.06" stop-color="#FFF9A8"/>
<stop offset="0.75" stop-color="#FFAEFE"/>
</linearGradient>
<linearGradient id="paint10_linear_189_264" x1="562.195" y1="119.971" x2="562.195" y2="446.84" gradientUnits="userSpaceOnUse">
<stop offset="0.06" stop-color="#FFF9A8"/>
<stop offset="0.75" stop-color="#FFAEFE"/>
</linearGradient>
<linearGradient id="paint11_linear_189_264" x1="181.486" y1="143.959" x2="181.486" y2="645.803" gradientUnits="userSpaceOnUse">
<stop offset="0.06" stop-color="#FFF9A8"/>
<stop offset="0.75" stop-color="#FFAEFE"/>
</linearGradient>
<linearGradient id="paint12_linear_189_264" x1="230.896" y1="1.86426" x2="230.896" y2="253.401" gradientUnits="userSpaceOnUse">
<stop offset="0.046" stop-color="#2ECCFF"/>
<stop offset="1" stop-color="#0500FF"/>
</linearGradient>
<linearGradient id="paint13_linear_189_264" x1="398.121" y1="1.86426" x2="398.121" y2="172.326" gradientUnits="userSpaceOnUse">
<stop offset="0.06" stop-color="#FFF9A8"/>
<stop offset="0.75" stop-color="#FFAEFE"/>
</linearGradient>
</defs>
</svg>
