<svg width="343" height="150" viewBox="0 0 343 150" fill="none" xmlns="http://www.w3.org/2000/svg">
<g clip-path="url(#clip0_499_365)">
<path fill-rule="evenodd" clip-rule="evenodd" d="M88 10C93.5229 10 98 5.52285 98 0H335C339.418 0 343 3.58172 343 8V142C343 146.418 339.418 150 335 150H98C98 144.477 93.5229 140 88 140C82.4771 140 78 144.477 78 150H7.99999C3.58172 150 0 146.418 0 142V8C0 3.58172 3.58172 0 8 0H78C78 5.52285 82.4771 10 88 10Z" fill="#16181D"/>
<mask id="mask0_499_365" style="mask-type:luminance" maskUnits="userSpaceOnUse" x="0" y="0" width="343" height="150">
<path fill-rule="evenodd" clip-rule="evenodd" d="M88 10C93.5229 10 98 5.52285 98 0H335C339.418 0 343 3.58172 343 8V142C343 146.418 339.418 150 335 150H98C98 144.477 93.5229 140 88 140C82.4771 140 78 144.477 78 150H7.99999C3.58172 150 0 146.418 0 142V8C0 3.58172 3.58172 0 8 0H78C78 5.52285 82.4771 10 88 10Z" fill="white"/>
</mask>
<g mask="url(#mask0_499_365)">
<path d="M98 0V-0.5H97.5V0H98ZM98 150H97.5V150.5H98V150ZM78 150V150.5H78.5V150H78ZM78 0H78.5V-0.5H78V0ZM97.5 0C97.5 5.2467 93.2467 9.5 88 9.5V10.5C93.799 10.5 98.5 5.79899 98.5 0H97.5ZM335 -0.5H98V0.5H335V-0.5ZM343.5 8C343.5 3.30558 339.694 -0.5 335 -0.5V0.5C339.142 0.5 342.5 3.85786 342.5 8H343.5ZM343.5 142V8H342.5V142H343.5ZM335 150.5C339.694 150.5 343.5 146.694 343.5 142H342.5C342.5 146.142 339.142 149.5 335 149.5V150.5ZM98 150.5H335V149.5H98V150.5ZM88 140.5C93.2467 140.5 97.5 144.753 97.5 150H98.5C98.5 144.201 93.799 139.5 88 139.5V140.5ZM78.5 150C78.5 144.753 82.7533 140.5 88 140.5V139.5C82.201 139.5 77.5 144.201 77.5 150H78.5ZM7.99999 150.5H78V149.5H7.99999V150.5ZM-0.5 142C-0.5 146.694 3.30557 150.5 7.99999 150.5V149.5C3.85786 149.5 0.5 146.142 0.5 142H-0.5ZM-0.5 8V142H0.5V8H-0.5ZM8 -0.5C3.30558 -0.5 -0.5 3.30558 -0.5 8H0.5C0.5 3.85787 3.85786 0.5 8 0.5V-0.5ZM78 -0.5H8V0.5H78V-0.5ZM88 9.5C82.7533 9.5 78.5 5.2467 78.5 0H77.5C77.5 5.79899 82.201 10.5 88 10.5V9.5Z" fill="#F3F3F3" fill-opacity="0.08"/>
</g>
</g>
<defs>
<clipPath id="clip0_499_365">
<rect width="343" height="150" fill="white"/>
</clipPath>
</defs>
</svg>
