<svg width="88" height="150" viewBox="0 0 88 150" fill="none" xmlns="http://www.w3.org/2000/svg">
<g clip-path="url(#clip0_499_371)">
<mask id="mask0_499_371" style="mask-type:luminance" maskUnits="userSpaceOnUse" x="0" y="0" width="88" height="150">
<path d="M88 0H0V150H88V0Z" fill="white"/>
</mask>
<g mask="url(#mask0_499_371)">
<path fill-rule="evenodd" clip-rule="evenodd" d="M88 10V16C85.7909 16 84 17.7909 84 20C84 22.2091 85.7909 24 88 24V27C85.7909 27 84 28.7909 84 31C84 33.2091 85.7909 35 88 35V38C85.7909 38 84 39.7909 84 42C84 44.2091 85.7909 46 88 46V49C85.7909 49 84 50.7909 84 53C84 55.2091 85.7909 57 88 57V60C85.7909 60 84 61.7909 84 64C84 66.2091 85.7909 68 88 68V71C85.7909 71 84 72.7909 84 75C84 77.2091 85.7909 79 88 79V82C85.7909 82 84 83.7909 84 86C84 88.2091 85.7909 90 88 90V93C85.7909 93 84 94.7909 84 97C84 99.2091 85.7909 101 88 101V104C85.7909 104 84 105.791 84 108C84 110.209 85.7909 112 88 112V115C85.7909 115 84 116.791 84 119C84 121.209 85.7909 123 88 123V126C85.7909 126 84 127.791 84 130C84 132.209 85.7909 134 88 134V140C82.4771 140 78 144.477 78 150H8C3.58172 150 0 146.418 0 142V8C0 3.58172 3.58172 0 8 0H78C78 5.52285 82.4771 10 88 10Z" fill="url(#paint0_linear_499_371)"/>
<mask id="mask1_499_371" style="mask-type:luminance" maskUnits="userSpaceOnUse" x="0" y="0" width="88" height="150">
<path fill-rule="evenodd" clip-rule="evenodd" d="M88 10V16C85.7909 16 84 17.7909 84 20C84 22.2091 85.7909 24 88 24V27C85.7909 27 84 28.7909 84 31C84 33.2091 85.7909 35 88 35V38C85.7909 38 84 39.7909 84 42C84 44.2091 85.7909 46 88 46V49C85.7909 49 84 50.7909 84 53C84 55.2091 85.7909 57 88 57V60C85.7909 60 84 61.7909 84 64C84 66.2091 85.7909 68 88 68V71C85.7909 71 84 72.7909 84 75C84 77.2091 85.7909 79 88 79V82C85.7909 82 84 83.7909 84 86C84 88.2091 85.7909 90 88 90V93C85.7909 93 84 94.7909 84 97C84 99.2091 85.7909 101 88 101V104C85.7909 104 84 105.791 84 108C84 110.209 85.7909 112 88 112V115C85.7909 115 84 116.791 84 119C84 121.209 85.7909 123 88 123V126C85.7909 126 84 127.791 84 130C84 132.209 85.7909 134 88 134V140C82.4771 140 78 144.477 78 150H8C3.58172 150 0 146.418 0 142V8C0 3.58172 3.58172 0 8 0H78C78 5.52285 82.4771 10 88 10Z" fill="white"/>
</mask>
<g mask="url(#mask1_499_371)">
<path d="M88 10H88.5V9.5H88V10ZM88 16V16.5H88.5V16H88ZM88 24H88.5V23.5H88V24ZM88 27V27.5H88.5V27H88ZM88 35H88.5V34.5H88V35ZM88 38V38.5H88.5V38H88ZM88 46H88.5V45.5H88V46ZM88 49V49.5H88.5V49H88ZM88 57H88.5V56.5H88V57ZM88 60V60.5H88.5V60H88ZM88 68H88.5V67.5H88V68ZM88 71V71.5H88.5V71H88ZM88 79H88.5V78.5H88V79ZM88 82V82.5H88.5V82H88ZM88 90H88.5V89.5H88V90ZM88 93V93.5H88.5V93H88ZM88 101H88.5V100.5H88V101ZM88 104V104.5H88.5V104H88ZM88 112H88.5V111.5H88V112ZM88 115V115.5H88.5V115H88ZM88 123H88.5V122.5H88V123ZM88 126V126.5H88.5V126H88ZM88 134H88.5V133.5H88V134ZM88 140V140.5H88.5V140H88ZM78 150V150.5H78.5V150H78ZM78 0H78.5V-0.5H78V0ZM87.5 10V16H88.5V10H87.5ZM88 15.5C85.5147 15.5 83.5 17.5147 83.5 20H84.5C84.5 18.067 86.067 16.5 88 16.5V15.5ZM83.5 20C83.5 22.4853 85.5147 24.5 88 24.5V23.5C86.067 23.5 84.5 21.933 84.5 20H83.5ZM87.5 24V27H88.5V24H87.5ZM88 26.5C85.5147 26.5 83.5 28.5147 83.5 31H84.5C84.5 29.067 86.067 27.5 88 27.5V26.5ZM83.5 31C83.5 33.4853 85.5147 35.5 88 35.5V34.5C86.067 34.5 84.5 32.933 84.5 31H83.5ZM87.5 35V38H88.5V35H87.5ZM88 37.5C85.5147 37.5 83.5 39.5147 83.5 42H84.5C84.5 40.067 86.067 38.5 88 38.5V37.5ZM83.5 42C83.5 44.4853 85.5147 46.5 88 46.5V45.5C86.067 45.5 84.5 43.933 84.5 42H83.5ZM87.5 46V49H88.5V46H87.5ZM88 48.5C85.5147 48.5 83.5 50.5147 83.5 53H84.5C84.5 51.067 86.067 49.5 88 49.5V48.5ZM83.5 53C83.5 55.4853 85.5147 57.5 88 57.5V56.5C86.067 56.5 84.5 54.933 84.5 53H83.5ZM87.5 57V60H88.5V57H87.5ZM88 59.5C85.5147 59.5 83.5 61.5147 83.5 64H84.5C84.5 62.067 86.067 60.5 88 60.5V59.5ZM83.5 64C83.5 66.4853 85.5147 68.5 88 68.5V67.5C86.067 67.5 84.5 65.933 84.5 64H83.5ZM87.5 68V71H88.5V68H87.5ZM88 70.5C85.5147 70.5 83.5 72.5147 83.5 75H84.5C84.5 73.067 86.067 71.5 88 71.5V70.5ZM83.5 75C83.5 77.4853 85.5147 79.5 88 79.5V78.5C86.067 78.5 84.5 76.933 84.5 75H83.5ZM87.5 79V82H88.5V79H87.5ZM88 81.5C85.5147 81.5 83.5 83.5147 83.5 86H84.5C84.5 84.067 86.067 82.5 88 82.5V81.5ZM83.5 86C83.5 88.4853 85.5147 90.5 88 90.5V89.5C86.067 89.5 84.5 87.933 84.5 86H83.5ZM87.5 90V93H88.5V90H87.5ZM88 92.5C85.5147 92.5 83.5 94.5147 83.5 97H84.5C84.5 95.067 86.067 93.5 88 93.5V92.5ZM83.5 97C83.5 99.4853 85.5147 101.5 88 101.5V100.5C86.067 100.5 84.5 98.933 84.5 97H83.5ZM87.5 101V104H88.5V101H87.5ZM88 103.5C85.5147 103.5 83.5 105.515 83.5 108H84.5C84.5 106.067 86.067 104.5 88 104.5V103.5ZM83.5 108C83.5 110.485 85.5147 112.5 88 112.5V111.5C86.067 111.5 84.5 109.933 84.5 108H83.5ZM87.5 112V115H88.5V112H87.5ZM88 114.5C85.5147 114.5 83.5 116.515 83.5 119H84.5C84.5 117.067 86.067 115.5 88 115.5V114.5ZM83.5 119C83.5 121.485 85.5147 123.5 88 123.5V122.5C86.067 122.5 84.5 120.933 84.5 119H83.5ZM87.5 123V126H88.5V123H87.5ZM88 125.5C85.5147 125.5 83.5 127.515 83.5 130H84.5C84.5 128.067 86.067 126.5 88 126.5V125.5ZM83.5 130C83.5 132.485 85.5147 134.5 88 134.5V133.5C86.067 133.5 84.5 131.933 84.5 130H83.5ZM87.5 134V140H88.5V134H87.5ZM88 139.5C82.201 139.5 77.5 144.201 77.5 150H78.5C78.5 144.753 82.7533 140.5 88 140.5V139.5ZM78 149.5H8V150.5H78V149.5ZM8 149.5C3.85786 149.5 0.5 146.142 0.5 142H-0.5C-0.5 146.694 3.30558 150.5 8 150.5V149.5ZM0.5 142V8H-0.5V142H0.5ZM0.5 8C0.5 3.85787 3.85786 0.5 8 0.5V-0.5C3.30558 -0.5 -0.5 3.30558 -0.5 8H0.5ZM8 0.5H78V-0.5H8V0.5ZM88 9.5C82.7533 9.5 78.5 5.24671 78.5 0H77.5C77.5 5.79899 82.201 10.5 88 10.5V9.5Z" fill="url(#paint1_linear_499_371)"/>
</g>
</g>
</g>
<defs>
<linearGradient id="paint0_linear_499_371" x1="0" y1="0" x2="88" y2="150" gradientUnits="userSpaceOnUse">
<stop stop-color="#163539"/>
<stop offset="1" stop-color="#16181D"/>
</linearGradient>
<linearGradient id="paint1_linear_499_371" x1="1.33156e-06" y1="75" x2="88" y2="75" gradientUnits="userSpaceOnUse">
<stop stop-color="#1A7E66"/>
<stop offset="1" stop-color="#16181D"/>
</linearGradient>
<clipPath id="clip0_499_371">
<rect width="88" height="150" fill="white"/>
</clipPath>
</defs>
</svg>
