<svg xmlns="http://www.w3.org/2000/svg" enable-background="new 0 0 256 256" viewBox="0 0 256 256"><path fill="#D0D2D3" d="M186.911,194.506H69.089c-7.168,0-13-5.832-13-13V74.494c0-7.168,5.832-13,13-13h117.822
				c7.168,0,13,5.832,13,13v107.012C199.911,188.674,194.079,194.506,186.911,194.506z M69.089,71.494c-1.654,0-3,1.346-3,3v107.012
				c0,1.654,1.346,3,3,3h117.822c1.654,0,3-1.346,3-3V74.494c0-1.654-1.346-3-3-3H69.089z"/><path fill="#FFA91A" d="M127.994,74.288l40.928-23.785l-0.126,44.569c-0.004,1.421-0.762,2.733-1.99,3.447l-38.944,22.632
									L127.994,74.288z"/><path fill="#FFC91D" d="M87.211,50.741l38.925-22.621c1.239-0.72,2.769-0.722,4.01-0.006l38.777,22.388l-40.928,23.785
									L87.211,50.741z"/><path fill="#F79219" d="M127.994,74.288l-0.133,46.864L89.084,98.763c-1.241-0.717-2.004-2.042-2-3.475l0.126-44.547
									L127.994,74.288z"/><path fill="#E63950" d="M194.906,182.18l40.928-23.785l-0.126,44.569c-0.004,1.421-0.762,2.733-1.99,3.447l-38.944,22.632
										L194.906,182.18z"/><path fill="#E8566F" d="M154.122,158.634l38.925-22.621c1.239-0.72,2.769-0.722,4.01-0.006l38.777,22.388l-40.928,23.785
										L154.122,158.634z"/><path fill="#D10028" d="M194.906,182.18l-0.133,46.864l-38.777-22.388c-1.241-0.717-2.004-2.042-2-3.475l0.126-44.547
										L194.906,182.18z"/><path fill="#478CF7" d="M61.083,182.18l40.928-23.785l-0.126,44.569c-0.004,1.421-0.762,2.733-1.99,3.447L60.95,229.044
										L61.083,182.18z"/><path fill="#5E9CF7" d="M20.299,158.634l38.925-22.621c1.239-0.72,2.769-0.722,4.01-0.006l38.777,22.388L61.083,182.18
										L20.299,158.634z"/><path fill="#377DE2" d="M61.083,182.18l-0.133,46.864l-38.777-22.388c-1.241-0.717-2.004-2.042-2-3.475l0.126-44.547
										L61.083,182.18z"/></svg>