<svg width="299" height="299" viewBox="0 0 299 299" fill="none" xmlns="http://www.w3.org/2000/svg">
<g clip-path="url(#clip0_639_18363)">
<path d="M240.21 245.675C293.443 192.441 293.443 106.134 240.21 52.9007C186.977 -0.33235 100.669 -0.332344 47.4357 52.9007C-5.79729 106.134 -5.79728 192.441 47.4357 245.675C100.669 298.908 186.977 298.908 240.21 245.675Z" fill="#964529"/>
<path d="M246.012 245.675C299.245 192.441 299.245 106.134 246.012 52.9007C192.779 -0.332328 106.472 -0.332344 53.2385 52.9007C0.00544687 106.134 0.00545766 192.441 53.2385 245.675C106.472 298.908 192.779 298.908 246.012 245.675Z" fill="#FF8500" stroke="#AF5300" stroke-width="1.0878" stroke-miterlimit="10"/>
<path d="M243.391 243.055C295.177 191.269 295.177 107.307 243.391 55.5205C191.605 3.73434 107.643 3.73434 55.857 55.5205C4.07081 107.307 4.07081 191.269 55.857 243.055C107.643 294.841 191.605 294.841 243.391 243.055Z" fill="#FFB600"/>
<circle cx="51.5284" cy="220.378" r="1.6846" fill="#E07A00"/>
<path d="M44.1593 208.926C34.1823 191.32 28.4863 170.969 28.4863 149.287C28.4863 82.382 82.7233 28.145 149.628 28.145C216.533 28.145 270.77 82.382 270.77 149.287C270.77 202.233 236.803 247.246 189.472 263.724" stroke="#E07A00" stroke-width="3.3692" stroke-linecap="round" stroke-linejoin="round"/>
<circle cx="182.978" cy="265.781" r="1.6846" fill="#E07A00"/>
<path d="M67.4884 236.648C66.7184 237.372 65.8844 237.908 64.9834 238.254C64.0834 238.6 63.1684 238.756 62.2394 238.722C61.3104 238.686 60.3924 238.454 59.4884 238.025C58.5824 237.595 57.7404 236.966 56.9604 236.137L53.0664 232.001L63.7144 221.978L67.6084 226.115C68.3874 226.944 68.9634 227.822 69.3354 228.756C69.7074 229.688 69.8834 230.616 69.8654 231.543C69.8464 232.471 69.6374 233.373 69.2374 234.251C68.8354 235.127 68.2524 235.927 67.4884 236.648ZM65.1074 234.12C65.6334 233.624 66.0444 233.108 66.3404 232.573C66.6354 232.037 66.8104 231.503 66.8644 230.969C66.9184 230.437 66.8504 229.909 66.6594 229.391C66.4694 228.871 66.1524 228.375 65.7074 227.903L64.1524 226.253L57.3054 232.698L58.8604 234.349C59.3054 234.821 59.7814 235.168 60.2884 235.389C60.7944 235.61 61.3164 235.711 61.8524 235.689C62.3874 235.666 62.9314 235.525 63.4834 235.262C64.0354 234.998 64.5764 234.618 65.1074 234.12Z" fill="#E07A00"/>
<path d="M82.9145 249.051C82.2695 249.889 81.5246 250.556 80.6806 251.054C79.8366 251.553 78.9465 251.866 78.0115 251.995C77.0765 252.123 76.1225 252.054 75.1515 251.786C74.1785 251.518 73.2426 251.037 72.3416 250.343C71.4396 249.65 70.7356 248.865 70.2256 247.991C69.7156 247.117 69.4036 246.21 69.2866 245.272C69.1686 244.333 69.2436 243.391 69.5106 242.448C69.7766 241.506 70.2326 240.615 70.8786 239.776C71.5236 238.939 72.2686 238.272 73.1126 237.773C73.9566 237.275 74.8466 236.963 75.7816 236.84C76.7176 236.716 77.6726 236.789 78.6476 237.059C79.6216 237.327 80.5606 237.811 81.4606 238.505C82.3616 239.197 83.0646 239.983 83.5696 240.857C84.0746 241.732 84.3846 242.635 84.5016 243.57C84.6176 244.506 84.5435 245.444 84.2765 246.387C84.0095 247.33 83.5555 248.219 82.9145 249.051ZM80.1636 246.931C80.6046 246.359 80.9276 245.786 81.1326 245.214C81.3376 244.641 81.4226 244.088 81.3896 243.556C81.3566 243.024 81.2036 242.517 80.9316 242.037C80.6586 241.557 80.2656 241.119 79.7516 240.723C79.2316 240.323 78.7046 240.052 78.1686 239.909C77.6316 239.766 77.1026 239.747 76.5796 239.85C76.0566 239.953 75.5436 240.178 75.0426 240.523C74.5406 240.867 74.0686 241.325 73.6286 241.897C73.1836 242.474 72.8586 243.049 72.6536 243.623C72.4486 244.196 72.3626 244.748 72.3966 245.282C72.4296 245.814 72.5846 246.318 72.8616 246.798C73.1386 247.278 73.5356 247.718 74.0556 248.118C74.5696 248.515 75.0925 248.784 75.6235 248.928C76.1555 249.071 76.6836 249.091 77.2066 248.987C77.7296 248.884 78.2426 248.66 78.7446 248.316C79.2446 247.97 79.7186 247.509 80.1636 246.931Z" fill="#E07A00"/>
<path d="M93.8375 255.049L98.4005 257.54L95.4435 262.957C94.5225 263.08 93.6315 263.047 92.7705 262.858C91.9095 262.669 91.0725 262.354 90.2625 261.912C89.2055 261.336 88.3345 260.645 87.6495 259.84C86.9635 259.035 86.4725 258.172 86.1755 257.252C85.8775 256.33 85.7805 255.377 85.8835 254.393C85.9865 253.41 86.2945 252.448 86.8065 251.507C87.3285 250.55 87.9685 249.757 88.7225 249.129C89.4775 248.5 90.3085 248.057 91.2165 247.797C92.1245 247.538 93.0845 247.475 94.0975 247.609C95.1105 247.742 96.1335 248.09 97.1675 248.656C97.7025 248.947 98.1795 249.266 98.6015 249.611C99.0235 249.956 99.3915 250.312 99.7045 250.68C100.018 251.049 100.281 251.43 100.495 251.821C100.708 252.212 100.877 252.601 101.001 252.989L99.4205 253.831C99.1735 253.963 98.9295 253.994 98.6895 253.924C98.4495 253.854 98.2475 253.676 98.0845 253.388C97.9265 253.118 97.7715 252.875 97.6195 252.659C97.4675 252.443 97.2995 252.243 97.1175 252.059C96.9355 251.875 96.7325 251.704 96.5075 251.543C96.2825 251.382 96.0205 251.219 95.7215 251.056C95.1635 250.751 94.6075 250.576 94.0545 250.529C93.5005 250.482 92.9685 250.552 92.4585 250.739C91.9485 250.927 91.4715 251.224 91.0265 251.633C90.5825 252.042 90.1925 252.556 89.8555 253.172C89.4835 253.855 89.2475 254.51 89.1465 255.141C89.0455 255.773 89.0675 256.364 89.2125 256.915C89.3575 257.468 89.6165 257.968 89.9915 258.42C90.3655 258.873 90.8435 259.257 91.4255 259.575C91.7835 259.77 92.1275 259.912 92.4565 260.001C92.7855 260.089 93.1205 260.15 93.4605 260.184L94.5235 258.236L93.2555 257.545C93.0675 257.442 92.9475 257.313 92.8965 257.154C92.8455 256.997 92.8615 256.841 92.9445 256.689L93.8375 255.049Z" fill="#E07A00"/>
<path d="M108.354 256.835L107.144 260.026L111.441 261.657L110.552 264.002L106.254 262.372L105.019 265.629L110.63 267.757L109.704 270.196L100.902 266.857L106.088 253.185L114.89 256.523L113.965 258.963L108.354 256.835Z" fill="#E07A00"/>
<path d="M126.07 270.607C126.149 270.625 126.223 270.659 126.294 270.706C126.365 270.755 126.428 270.823 126.483 270.911L127.465 272.599C126.714 273.211 125.862 273.606 124.909 273.782C123.956 273.958 122.89 273.906 121.712 273.626C120.631 273.371 119.706 272.957 118.938 272.386C118.169 271.816 117.564 271.135 117.122 270.346C116.68 269.558 116.405 268.68 116.298 267.716C116.189 266.751 116.259 265.749 116.506 264.707C116.758 263.645 117.161 262.712 117.718 261.905C118.274 261.098 118.941 260.447 119.719 259.951C120.497 259.454 121.364 259.13 122.321 258.979C123.279 258.828 124.281 258.877 125.329 259.126C125.863 259.252 126.354 259.419 126.804 259.625C127.254 259.832 127.664 260.067 128.034 260.33C128.405 260.594 128.735 260.884 129.024 261.2C129.314 261.516 129.56 261.843 129.761 262.179L128.293 263.409C128.199 263.483 128.095 263.547 127.98 263.597C127.864 263.649 127.719 263.654 127.543 263.613C127.426 263.585 127.321 263.533 127.23 263.455C127.138 263.379 127.042 263.289 126.943 263.187C126.843 263.084 126.733 262.972 126.615 262.851C126.495 262.729 126.349 262.608 126.175 262.488C126.001 262.368 125.792 262.252 125.547 262.138C125.302 262.026 125.007 261.928 124.662 261.846C124.115 261.716 123.592 261.699 123.092 261.792C122.591 261.888 122.131 262.089 121.71 262.397C121.289 262.707 120.922 263.121 120.61 263.642C120.297 264.162 120.055 264.785 119.884 265.507C119.711 266.236 119.657 266.907 119.72 267.521C119.784 268.135 119.942 268.675 120.191 269.145C120.441 269.614 120.77 270 121.178 270.311C121.586 270.622 122.05 270.838 122.571 270.962C122.87 271.032 123.147 271.082 123.402 271.111C123.656 271.141 123.899 271.147 124.129 271.13C124.36 271.113 124.584 271.069 124.8 271.001C125.015 270.932 125.242 270.832 125.479 270.702C125.573 270.656 125.669 270.622 125.771 270.602C125.873 270.582 125.973 270.583 126.07 270.607Z" fill="#E07A00"/>
<path d="M147.462 269.542C147.371 270.596 147.106 271.561 146.666 272.436C146.226 273.313 145.648 274.058 144.93 274.67C144.214 275.285 143.374 275.742 142.411 276.043C141.449 276.344 140.401 276.446 139.267 276.35C138.134 276.254 137.116 275.976 136.216 275.517C135.315 275.057 134.561 274.464 133.955 273.738C133.348 273.012 132.902 272.179 132.616 271.242C132.329 270.304 132.231 269.309 132.321 268.256C132.411 267.202 132.676 266.239 133.117 265.362C133.557 264.486 134.137 263.743 134.858 263.133C135.578 262.524 136.421 262.068 137.386 261.768C138.352 261.466 139.401 261.365 140.534 261.461C141.667 261.557 142.683 261.836 143.58 262.299C144.477 262.761 145.227 263.354 145.831 264.077C146.434 264.8 146.878 265.63 147.164 266.567C147.452 267.504 147.55 268.496 147.462 269.542ZM144.002 269.249C144.063 268.528 144.025 267.872 143.887 267.279C143.749 266.686 143.522 266.175 143.206 265.746C142.89 265.316 142.488 264.973 141.999 264.717C141.511 264.46 140.943 264.305 140.296 264.249C139.643 264.194 139.052 264.251 138.523 264.421C137.995 264.592 137.539 264.861 137.155 265.232C136.771 265.603 136.461 266.069 136.225 266.627C135.99 267.189 135.841 267.829 135.78 268.549C135.718 269.277 135.756 269.936 135.894 270.528C136.032 271.12 136.258 271.632 136.575 272.061C136.891 272.491 137.295 272.833 137.787 273.086C138.279 273.339 138.852 273.493 139.506 273.549C140.152 273.604 140.738 273.548 141.262 273.381C141.787 273.214 142.241 272.946 142.625 272.575C143.009 272.205 143.318 271.739 143.554 271.177C143.791 270.62 143.94 269.976 144.002 269.249Z" fill="#E07A00"/>
<path d="M156.558 276.514L153.148 276.635L152.627 262.022L156.038 261.9L156.558 276.514Z" fill="#E07A00"/>
<path d="M174.039 259.699L176.29 274.148L174.544 274.419C174.286 274.46 174.063 274.452 173.875 274.398C173.688 274.341 173.491 274.226 173.287 274.047L165.132 266.49C165.198 266.745 165.255 266.991 165.304 267.229C165.351 267.47 165.391 267.696 165.424 267.907L166.63 275.652L163.675 276.112L161.424 261.664L163.19 261.389C163.335 261.366 163.459 261.354 163.56 261.353C163.661 261.35 163.754 261.361 163.838 261.385C163.924 261.408 164.008 261.448 164.09 261.503C164.173 261.558 164.27 261.634 164.38 261.731L172.606 269.338C172.529 269.066 172.463 268.8 172.41 268.54C172.356 268.281 172.311 268.036 172.275 267.805L171.083 260.158L174.039 259.699Z" fill="#E07A00"/>
<path d="M224.094 223.757C265.222 182.628 265.222 115.947 224.094 74.8187C182.966 33.6906 116.284 33.6906 75.1564 74.8187C34.0284 115.947 34.0284 182.628 75.1564 223.757C116.285 264.885 182.966 264.885 224.094 223.757Z" fill="#DB6D00" stroke="#964529" stroke-width="0.8278" stroke-miterlimit="10" stroke-linecap="round" stroke-linejoin="round"/>
<mask id="mask0_639_18363" style="mask-type:luminance" maskUnits="userSpaceOnUse" x="44" y="43" width="211" height="212">
<path d="M224.094 223.757C265.222 182.628 265.222 115.947 224.094 74.8187C182.966 33.6906 116.285 33.6906 75.1564 74.8187C34.0284 115.947 34.0284 182.628 75.1564 223.757C116.285 264.885 182.966 264.885 224.094 223.757Z" fill="white"/>
</mask>
<g mask="url(#mask0_639_18363)">
<path d="M221.761 185.999C220.761 189.559 216.46 191.266 212.788 190.817C211.294 190.637 209.868 190.199 208.475 189.627C206.431 188.818 204.477 187.74 202.489 186.808C185.98 179.059 166.798 181.238 148.626 179.744C146.661 179.587 144.695 179.373 142.752 179.126C142.752 179.126 142.752 179.126 142.741 179.126C129.567 177.464 116.731 173.949 104.074 169.703C95.6729 166.895 87.3629 163.773 79.1079 160.651C77.3779 159.988 76.5429 164.996 74.8589 164.176C73.2359 155.251 73.3689 151.543 73.6499 148.084C73.5379 148.118 73.4369 148.151 73.3359 148.185C73.4709 147.725 73.6169 147.253 73.7739 146.792C76.5819 138.009 80.8489 129.53 85.8699 122.006C87.7229 119.232 89.6659 116.593 91.6989 114.111C92.2489 114.156 92.7879 114.223 93.3269 114.324C97.6729 115.099 101.649 116.963 105.4 119.299C105.434 119.31 105.456 119.333 105.49 119.355C106.815 120.186 108.118 121.073 109.398 121.994C111.42 123.443 113.385 124.97 115.328 126.464C116.474 127.34 117.63 128.227 118.821 129.092C118.933 129.182 119.057 129.261 119.18 129.35C124.818 133.427 130.916 136.976 137.767 137.548C146.471 138.289 154.725 134.145 162.722 130.619C170.707 127.104 179.804 124.094 188.002 127.092C197.155 130.427 202.153 140.041 206.308 148.857C209.093 154.753 211.878 160.649 214.652 166.545C216.494 170.442 218.324 174.339 220.166 178.236C221.323 180.687 222.503 183.405 221.761 185.999Z" fill="#FDF1E0"/>
<path d="M186.709 281.303C127.961 302.013 73.3574 251.923 73.3574 251.923L81.2634 214.682L82.3644 209.471C82.3644 209.471 82.3984 209.314 82.4544 209.033C82.7684 207.438 83.8694 202.07 84.0824 202.238C85.9914 198.184 86.0594 193.186 84.9134 188.784C84.8684 188.593 84.8124 188.402 84.7564 188.211C84.7004 187.998 84.6334 187.784 84.5764 187.582C84.5764 187.571 84.5764 187.571 84.5764 187.571C82.7574 181.585 79.3094 176.149 76.9844 170.321C76.7374 169.715 76.5124 169.108 76.2994 168.502C76.2654 168.412 76.2324 168.322 76.2094 168.232C76.0074 167.67 75.8164 167.098 75.6484 166.525C75.6254 166.458 75.6034 166.39 75.5924 166.312C75.4014 165.728 75.2444 165.144 75.0984 164.56C75.0644 164.448 75.0314 164.347 75.0084 164.234C74.9974 164.223 74.9974 164.2 74.9974 164.189C74.8514 163.628 74.7274 163.066 74.6044 162.493C74.5934 162.459 74.5824 162.426 74.5824 162.392C75.4024 158.888 77.0874 155.586 79.4904 152.913C82.9714 149.05 87.9244 146.579 93.0904 145.972C95.5164 146.084 97.6614 146.331 99.2894 146.657C99.3684 146.668 99.4464 146.691 99.5254 146.702C99.8284 146.77 100.132 146.826 100.435 146.904C102.782 147.409 105.085 148.049 107.364 148.791C110.374 149.768 113.316 150.925 116.225 152.183C117.853 152.879 119.459 153.621 121.054 154.373V154.384C126.568 156.978 131.993 159.842 137.462 162.493C149.906 168.513 163.517 173.645 177.241 171.938C185.563 170.905 193.413 167.39 201.735 166.289C203.038 166.109 204.352 166.008 205.655 165.963C208.665 165.851 211.686 166.053 214.651 166.547C219.177 167.311 223.602 168.737 227.791 170.736L235.776 207.663L237.022 213.424L242.828 240.254C242.828 240.254 245.457 260.582 186.709 281.303Z" fill="#EEDAAE"/>
<path d="M158.106 219.68C156.758 223.914 153.58 227.272 150.492 230.473C145.315 235.83 140.07 241.232 133.826 245.275C127.57 249.329 120.136 251.969 112.723 251.216C106.602 250.598 100.751 247.6 96.6626 242.995C89.9466 235.425 88.3966 224.487 82.4896 216.266C82.0966 215.727 81.6926 215.199 81.2656 214.683L82.3666 209.472C82.3666 209.472 82.4006 209.315 82.4566 209.034C82.7706 207.439 83.8716 202.071 84.0846 202.239C85.9936 198.185 86.0616 193.187 84.9156 188.785C84.8706 188.594 84.8146 188.403 84.7586 188.212C84.6466 187.954 84.5456 187.684 84.4556 187.426C84.5006 187.471 84.5336 187.516 84.5786 187.572C84.5786 187.572 84.5786 187.572 84.5786 187.583C85.9376 189.312 86.7906 191.401 87.8806 193.322C88.9246 195.141 90.1716 196.804 91.5866 198.297C97.2806 204.317 105.693 207.776 114.037 208.876C124.459 210.257 135.016 208.528 145.438 207.135C148.504 206.731 151.806 206.394 154.501 207.899C158.387 210.078 159.465 215.446 158.106 219.68Z" fill="#E0C286"/>
<path d="M237.023 213.425C233.171 214.301 228.667 213.043 225.085 211.044C218.178 207.169 212.664 200.869 209.755 193.513C209.25 192.244 208.823 190.941 208.475 189.627C206.7 183.259 206.431 176.498 205.97 169.883C205.88 168.58 205.779 167.278 205.656 165.964C205.038 159.237 203.837 152.51 200.467 146.703C196.446 139.774 188.529 134.495 180.645 135.933C173.783 137.18 168.785 142.885 163.743 147.725C158.712 152.554 151.906 157.058 145.201 155.115C135.879 152.397 132.218 138.696 122.549 137.898C117.967 137.516 113.328 140.369 108.937 139.481C108.611 139.425 108.286 139.335 107.96 139.223C101.772 137.123 100.963 128.453 95.9881 124.23C93.2141 121.883 89.4741 121.31 85.8691 122.006C87.7221 119.232 89.6652 116.593 91.6982 114.111C92.2032 113.493 92.7091 112.887 93.2141 112.292C96.7971 108.092 100.559 104.419 104.31 101.454C106.208 99.9604 108.095 98.6464 109.948 97.5464C109.959 97.4794 109.959 97.4114 109.97 97.3444C111.172 87.1134 111.408 76.1854 112.486 65.8754C112.565 65.0784 112.655 64.3034 112.744 63.5174C112.901 62.2034 113.182 60.7214 113.923 59.6764C114.215 59.3394 114.484 59.0704 114.754 58.8564C115.237 58.4854 115.675 58.2944 116.079 58.2614H116.09C116.27 58.2394 116.438 58.2504 116.606 58.2834C116.876 58.3284 117.134 58.4404 117.392 58.5754C118.616 59.2494 119.672 60.7764 120.963 61.1364C124.838 64.8764 128.589 68.7504 132.194 72.7494C133.104 73.7494 133.991 74.7594 134.878 75.7814C137.528 78.8254 140.1 81.9474 142.582 85.1364C143.267 85.1584 143.952 85.1924 144.626 85.2264C145.3 85.2604 145.985 85.2934 146.659 85.3384C147.333 85.3834 148.018 85.4284 148.692 85.4734C149.366 85.5184 150.04 85.5744 150.714 85.6304C153.185 85.8324 155.633 86.0904 158.07 86.3944C159.294 86.5404 160.518 86.6974 161.731 86.8774C162.674 87.0014 163.607 87.1474 164.55 87.2924C165.044 87.3594 165.538 87.4384 166.033 87.5284C166.258 87.5624 166.482 87.5954 166.696 87.6404C167.471 87.7634 168.257 87.8984 169.032 88.0334C170.256 88.2464 171.469 88.4714 172.682 88.7074C173.558 88.8754 174.445 89.0444 175.321 89.2244C176.871 89.5384 178.421 89.8644 179.971 90.2124C186.137 84.2154 192.179 77.5324 198.344 71.5354C200.815 69.1434 203.768 66.5825 207.115 66.7515C207.306 66.7515 207.497 66.7624 207.688 66.7964C207.879 66.8184 208.059 66.8634 208.238 66.8974C208.395 66.9424 208.564 66.9874 208.721 67.0434C208.89 67.0994 209.058 67.1554 209.215 67.2344C209.384 67.3014 209.541 67.3804 209.698 67.4594C209.732 67.4704 209.765 67.4814 209.788 67.5044C210.058 67.6394 210.305 67.7964 210.552 67.9764C210.574 67.9874 210.586 67.9984 210.608 68.0214C210.754 68.1224 210.9 68.2344 211.035 68.3584C211.192 68.4704 211.327 68.6055 211.473 68.7515C211.563 68.8305 211.653 68.9204 211.743 69.0214C211.867 69.1334 211.968 69.2464 212.069 69.3694C212.193 69.5044 212.294 69.6274 212.395 69.7734C212.429 69.7964 212.44 69.8184 212.451 69.8414C212.597 70.0094 212.721 70.2004 212.844 70.3914C212.979 70.5934 213.102 70.7954 213.226 71.0094C214.405 73.1094 214.899 75.5124 215.326 77.8824C217.516 89.8204 219.099 99.7824 216.842 120.121L227.792 170.738L235.777 207.665L237.023 213.425Z" fill="#FF8500" stroke="#AF5300" stroke-width="1.0878" stroke-miterlimit="10"/>
<path d="M128.848 89.0102C130.375 77.6002 125.456 65.5942 116.607 58.2832C116.877 58.3282 117.135 58.4402 117.393 58.5752C118.617 59.2492 119.673 60.7762 120.964 61.1362C128.68 68.5712 135.867 76.5332 142.46 84.9792C137.923 86.3152 133.419 87.6402 128.848 89.0102Z" fill="#DB6D00"/>
<path d="M235.776 207.663C229.857 190.076 225.68 147.657 207.025 116.885C202.555 109.495 198.108 105.351 195.637 103.139C194.379 102.016 193.627 101.398 193.649 101.106C193.761 99.2425 197.22 99.5235 198.388 99.8035C200.207 100.241 202.004 101.094 203.857 100.836C205.968 100.533 207.675 98.8035 208.54 96.8155C208.551 96.7935 208.562 96.7595 208.562 96.7365C209.404 94.7595 209.562 92.5585 209.629 90.4025C209.865 82.4515 209.011 74.4655 207.113 66.7505C207.304 66.7505 207.495 66.7615 207.686 66.7955C207.877 66.8175 208.057 66.8625 208.236 66.8965C208.393 66.9415 208.562 66.9865 208.719 67.0425C208.888 67.0985 209.056 67.1545 209.213 67.2335C209.382 67.3005 209.539 67.3795 209.696 67.4585C209.73 67.4695 209.763 67.4805 209.786 67.5035C210.056 67.6385 210.303 67.7955 210.55 67.9755C210.572 67.9865 210.584 67.9975 210.606 68.0205C210.752 68.1215 210.898 68.2335 211.033 68.3575C211.19 68.4695 211.325 68.6045 211.471 68.7505C211.561 68.8295 211.651 68.9195 211.741 69.0205C211.865 69.1325 211.966 69.2455 212.067 69.3685C212.191 69.5035 212.292 69.6265 212.393 69.7725C212.427 69.7955 212.438 69.8175 212.449 69.8405C212.595 70.0085 212.719 70.1995 212.842 70.3905C212.977 70.5925 213.1 70.7945 213.224 71.0085C214.403 73.1085 214.897 75.5115 215.324 77.8815C217.514 89.8195 219.097 99.7815 216.84 120.12L227.79 170.737L235.776 207.663Z" fill="#DB6D00"/>
<path d="M169.461 213.47C168.675 214.458 167.833 215.368 166.934 216.21C167.776 215.311 168.618 214.402 169.461 213.47Z" fill="#E8CF9E"/>
<path d="M186.709 281.303C127.961 302.013 73.3574 251.923 73.3574 251.923L81.2634 214.682L82.3644 209.471C82.3644 209.471 82.3984 209.314 82.4544 209.033C82.7804 207.539 83.8354 202.733 84.0824 202.238C85.9914 198.184 86.0594 193.186 84.9134 188.784C84.8684 188.593 84.8124 188.402 84.7564 188.211C84.7004 187.998 84.6334 187.784 84.5764 187.582C84.5764 187.571 84.5764 187.571 84.5764 187.571C82.7574 181.585 79.3094 176.149 76.9844 170.321C76.7374 169.715 76.5124 169.108 76.2994 168.502C76.2654 168.412 76.2324 168.322 76.2094 168.232C76.0074 167.67 75.8164 167.098 75.6484 166.525C75.6254 166.458 75.6034 166.39 75.5924 166.312C75.4014 165.728 75.2444 165.144 75.0984 164.56C75.0644 164.448 75.0314 164.347 75.0084 164.234C74.9974 164.223 74.9974 164.2 74.9974 164.189C74.8514 163.628 74.7274 163.066 74.6044 162.493C74.5934 162.459 74.5824 162.426 74.5824 162.392C74.5154 162.111 74.4584 161.819 74.4144 161.538C74.4034 161.527 74.4034 161.515 74.4034 161.504C74.2014 160.505 74.0444 159.494 73.9094 158.483C73.8644 158.101 73.8084 157.708 73.7744 157.315C73.6844 156.473 73.6174 155.63 73.5834 154.777V154.743C73.4484 151.329 73.7514 147.915 74.5154 144.579C74.5154 144.568 74.5154 144.556 74.5264 144.534C74.9084 142.838 75.4244 141.176 76.0424 139.536C77.8614 134.774 80.8714 128.822 85.8694 122.005C87.5994 119.658 89.2054 117.277 90.9454 115.053C91.1924 114.739 91.4394 114.424 91.6984 114.11C92.2034 113.492 92.7094 112.886 93.2144 112.291C96.7974 108.091 100.559 104.418 104.31 101.453C106.208 99.9593 108.095 98.6453 109.948 97.5453C109.959 97.4783 109.959 97.4103 109.97 97.3433C111.172 87.1123 111.408 76.1843 112.486 65.8743C112.565 65.0773 112.655 64.3023 112.744 63.5163C112.901 62.2023 113.182 60.7203 113.923 59.6753C114.148 59.3493 114.417 59.0693 114.754 58.8553C114.934 58.7203 115.136 58.6193 115.361 58.5413C116.046 58.2943 116.731 58.3393 117.394 58.5753C118.528 58.9463 119.595 59.8223 120.483 60.6643C120.64 60.8213 120.809 60.9783 120.966 61.1363C124.841 64.8763 128.592 68.7503 132.197 72.7493C133.107 73.7493 133.994 74.7593 134.881 75.7813C137.531 78.8253 140.103 81.9473 142.585 85.1363C143.27 85.1583 143.955 85.1923 144.629 85.2263C145.303 85.2603 145.988 85.2933 146.662 85.3383C147.336 85.3833 148.021 85.4283 148.695 85.4733C149.369 85.5183 150.043 85.5743 150.717 85.6303C153.188 85.8323 155.636 86.0903 158.073 86.3943C159.297 86.5403 160.521 86.6973 161.734 86.8773C162.677 87.0013 163.61 87.1473 164.553 87.2923C165.047 87.3593 165.541 87.4383 166.036 87.5283C166.261 87.5623 166.485 87.5953 166.699 87.6403C167.474 87.7633 168.26 87.8983 169.035 88.0333C170.259 88.2463 171.472 88.4713 172.685 88.7073C173.561 88.8753 174.448 89.0443 175.324 89.2243C176.874 89.5383 178.424 89.8643 179.974 90.2123C186.14 84.2153 192.182 77.5323 198.347 71.5353C200.818 69.1433 203.771 66.5823 207.118 66.7513C207.309 66.7513 207.5 66.7623 207.691 66.7963C207.882 66.8183 208.062 66.8633 208.241 66.8973C208.398 66.9423 208.567 66.9873 208.724 67.0433C208.893 67.0993 209.061 67.1553 209.218 67.2343C209.387 67.3013 209.544 67.3803 209.701 67.4593C209.735 67.4703 209.768 67.4813 209.791 67.5043C210.061 67.6393 210.308 67.7963 210.555 67.9763C210.577 67.9873 210.589 67.9983 210.611 68.0213C210.757 68.1223 210.903 68.2343 211.038 68.3583C211.195 68.4703 211.33 68.6053 211.476 68.7513C211.566 68.8303 211.656 68.9203 211.746 69.0213C211.87 69.1333 211.971 69.2463 212.072 69.3693C212.196 69.5043 212.297 69.6273 212.398 69.7733C212.432 69.7963 212.443 69.8183 212.454 69.8413C212.6 70.0093 212.724 70.2003 212.847 70.3913C212.982 70.5933 213.105 70.7953 213.229 71.0093C214.408 73.1093 214.902 75.5123 215.329 77.8823C217.519 89.8203 219.102 99.7823 216.845 120.121L227.795 170.738L235.78 207.665L237.026 213.426L242.832 240.256C242.829 240.255 245.457 260.582 186.709 281.303Z" stroke="#893E00" stroke-width="1.0878" stroke-miterlimit="10"/>
<path d="M102.131 122.916C106.355 116.151 115.649 115.268 119.288 120.522C127.94 133.015 92.587 146.423 94.389 154.106" stroke="#893E00" stroke-width="1.0878" stroke-miterlimit="10" stroke-linecap="round" stroke-linejoin="round"/>
<path d="M91.8633 173.571C95.8313 175.958 101.33 175.439 104.782 172.353C110.623 177.358 117.302 181.338 124.966 181.997C132.63 182.656 140.487 180.853 147.097 176.918" stroke="#893E00" stroke-width="1.0878" stroke-miterlimit="10" stroke-linecap="round" stroke-linejoin="round"/>
<path d="M104.746 172.361C103.55 168.674 103.4 164.654 104.318 160.888" stroke="#893E00" stroke-width="1.0878" stroke-miterlimit="10" stroke-linecap="round" stroke-linejoin="round"/>
<path d="M119.867 157.698C118.115 160.27 116.206 162.752 113.859 164.796C112.309 166.155 110.422 167.469 108.39 168.255C106.537 168.963 104.583 169.243 102.651 168.727C99.8881 167.974 97.5411 165.638 95.9461 162.864C94.6211 160.584 93.8121 158.012 93.7001 155.789C93.7001 155.778 93.7001 155.778 93.7001 155.766C93.3291 148.275 101.202 145.67 107.48 145.973C111.343 146.175 115.128 147.568 118.194 149.915C118.441 150.095 118.677 150.285 118.913 150.488C118.924 150.499 118.936 150.51 118.947 150.51C121.428 152.644 121.709 154.98 119.867 157.698Z" fill="#44190D"/>
<path d="M118.945 150.51C113.812 149.612 108.714 148.118 103.66 149.129C99.6392 149.938 96.0012 152.42 93.6982 155.789C93.6982 155.778 93.6982 155.778 93.6982 155.766C93.3272 148.275 101.2 145.67 107.478 145.973C111.341 146.175 115.126 147.568 118.192 149.915C118.439 150.095 118.675 150.285 118.911 150.488C118.922 150.499 118.934 150.51 118.945 150.51Z" fill="#4F2117"/>
<path d="M119.866 157.698C118.114 160.27 116.205 162.752 113.858 164.796C112.308 166.155 110.421 167.469 108.389 168.255C106.536 168.963 104.582 169.243 102.65 168.727C99.8873 167.974 97.5403 165.638 95.9453 162.864C98.1803 163.807 100.718 164.054 103.088 163.583C107.401 162.729 111.107 159.787 113.622 156.182C115.082 154.093 116.216 151.746 118.081 150.005C118.115 149.971 118.148 149.938 118.193 149.915C118.44 150.095 118.676 150.285 118.912 150.488C121.427 152.621 121.719 154.969 119.866 157.698Z" fill="#280D06"/>
<path d="M97.5059 181.396C100.002 185.262 104.024 188.114 108.498 189.191C112.972 190.268 117.851 189.559 121.833 187.253" stroke="#893E00" stroke-width="1.0878" stroke-miterlimit="10" stroke-linecap="round" stroke-linejoin="round"/>
<path d="M204.041 110.507C205.068 111.652 206.97 111.08 207.212 109.561C207.968 104.816 208.59 100.047 208.597 95.2476C208.601 92.8276 208.44 90.3896 208.068 87.9936C207.537 84.5816 203.116 83.5446 201.173 86.3996C200.565 87.2936 200.025 88.0196 199.693 88.4366C198.374 90.0916 196.847 91.5826 195.159 92.8586C193.716 93.9496 190.874 94.7256 189.751 95.9956C186.71 99.4326 194.099 101.97 196.331 103.579C199.137 105.604 201.729 107.93 204.041 110.507Z" fill="#44190D"/>
<path d="M210.168 111.815C213.405 114.161 215.85 117.581 217.023 121.402" stroke="#893E00" stroke-width="1.0878" stroke-miterlimit="10"/>
<path d="M125.303 90.7156C130.91 87.6456 137.174 85.7826 143.548 85.2886" stroke="#893E00" stroke-width="1.0878" stroke-miterlimit="10"/>
<path d="M170.636 133.856C168.042 138.213 163.426 141.167 158.428 142.133C156.204 142.56 153.913 142.593 151.689 142.189C150.049 141.886 148.432 141.347 147.107 140.358C145.77 139.358 144.647 137.651 145.119 136.057C146.658 130.778 151.645 126.691 157.126 126.219C157.912 126.152 158.697 126.152 159.472 126.241C164.145 126.691 168.558 129.622 170.636 133.856Z" fill="#FDF1E0"/>
<path d="M170.637 133.856C168.043 138.213 163.427 141.167 158.429 142.133C155.666 140.673 153.779 137.764 153.779 134.418C153.779 130.667 156.149 127.466 159.473 126.242C164.146 126.691 168.559 129.622 170.637 133.856Z" fill="#44190D"/>
<path d="M170.64 133.851C168.218 128.913 162.603 125.74 157.124 126.213C151.645 126.686 146.657 130.775 145.117 136.055C144.652 137.649 145.774 139.358 147.103 140.354C148.432 141.35 150.054 141.89 151.688 142.188C158.909 143.509 166.88 140.156 170.64 133.851Z" stroke="#893E00" stroke-width="1.0878" stroke-miterlimit="10"/>
<path d="M160.721 129.657C160.721 128.777 161.435 128.062 162.315 128.062C163.195 128.062 163.909 128.777 163.909 129.657C163.909 130.537 163.195 131.251 162.315 131.251C161.435 131.251 160.721 130.538 160.721 129.657Z" fill="#FDF1E0"/>
<path d="M116.518 131.194C116.08 131.452 115.608 131.677 115.114 131.857C113.283 132.531 111.172 132.666 109.285 132.329C109.139 132.307 108.993 132.273 108.847 132.239C106.197 131.666 103.782 130.139 102.041 128.039C100.57 126.242 100.637 123.625 102.21 121.918C104.636 119.256 108.151 117.437 111.801 117.504C113.093 117.515 114.44 117.818 115.653 118.357C117.933 119.368 119.786 121.232 120.168 123.77C120.617 126.724 119.079 129.7 116.518 131.194Z" fill="#FDF1E0"/>
<path d="M116.518 131.193C116.08 131.451 115.608 131.676 115.114 131.856C113.283 132.53 111.172 132.665 109.285 132.328C109.139 132.306 108.993 132.272 108.847 132.238C108.027 130.857 107.555 129.251 107.555 127.532C107.555 122.815 111.081 118.918 115.652 118.356C117.932 119.367 119.785 121.231 120.167 123.769C120.617 126.723 119.079 129.699 116.518 131.193Z" fill="#44190D"/>
<path d="M115.117 131.854C113.278 132.532 111.174 132.663 109.29 132.331C106.464 131.832 103.868 130.248 102.047 128.037C100.568 126.241 100.637 123.631 102.207 121.914C104.636 119.257 108.146 117.441 111.802 117.503C115.523 117.566 119.576 119.866 120.168 123.771C120.615 126.722 119.074 129.698 116.523 131.194C116.079 131.453 115.608 131.673 115.117 131.854Z" stroke="#893E00" stroke-width="1.0878" stroke-miterlimit="10"/>
<path d="M114.428 122.04C114.428 121.16 115.142 120.446 116.022 120.446C116.902 120.446 117.616 121.16 117.616 122.04C117.616 122.92 116.902 123.634 116.022 123.634C115.142 123.634 114.428 122.92 114.428 122.04Z" fill="#FDF1E0"/>
<path d="M112.389 112.92C110.268 112.342 107.982 111.069 107.633 108.899C107.316 106.927 108.881 105.008 110.777 104.381C112.673 103.754 114.765 104.165 116.624 104.894C119.004 105.828 121.181 107.278 122.959 109.115C123.467 109.64 123.962 110.234 124.09 110.953C124.783 114.811 114.277 113.434 112.389 112.92Z" fill="#FDF1E0"/>
<path d="M161.921 122.183C164.165 122.295 166.529 122.3 168.507 121.234C170.485 120.168 171.872 117.676 170.968 115.619C170.433 114.401 169.215 113.586 167.932 113.234C166.649 112.882 165.293 112.933 163.966 113.03C160.238 113.305 156.537 113.935 152.928 114.909C149.422 115.855 147.478 118.587 151.373 120.413C154.486 121.872 158.548 122.015 161.921 122.183Z" fill="#FDF1E0"/>
<path d="M101.672 204.485C97.9205 203.193 94.4615 201.037 91.5865 198.297C88.6215 195.478 86.2515 192.019 84.7585 188.212C84.6465 187.954 84.5455 187.684 84.4555 187.426C84.3205 187.033 84.1855 186.64 84.0625 186.235" stroke="#893E00" stroke-width="1.0878" stroke-miterlimit="10"/>
</g>
<g opacity="0.27">
<mask id="mask1_639_18363" style="mask-type:luminance" maskUnits="userSpaceOnUse" x="13" y="12" width="274" height="274">
<path d="M246.417 245.675C299.65 192.442 299.65 106.134 246.417 52.9007C193.184 -0.332326 106.876 -0.332336 53.6428 52.9007C0.409743 106.134 0.409754 192.441 53.6428 245.675C106.876 298.908 193.184 298.908 246.417 245.675Z" fill="white"/>
</mask>
<g mask="url(#mask1_639_18363)">
<path d="M176.252 -3.0183L149.922 -16.0542L1.37867 283.978L27.709 297.014L176.252 -3.0183Z" fill="white"/>
<path d="M257.526 17.8886L218.791 -1.28857L70.2478 298.744L108.982 317.921L257.526 17.8886Z" fill="white"/>
<path d="M128.946 -53.7657L90.2109 -72.9429L-58.3323 227.09L-19.5976 246.267L128.946 -53.7657Z" fill="white"/>
<path d="M329.928 33.6287L303.598 20.5928L155.054 320.625L181.385 333.661L329.928 33.6287Z" fill="white"/>
</g>
</g>
<path d="M251.06 106.736L259.755 122.635L275.654 131.33L259.755 140.025L251.06 155.924L242.365 140.025L226.465 131.33L242.365 122.635L251.06 106.736Z" fill="#FCFCFC" stroke="#AF5300" stroke-width="1.0878" stroke-miterlimit="10"/>
<path d="M193.653 40.2812L199.116 50.2702L209.104 55.7333L199.116 61.1973L193.653 71.1852L188.19 61.1973L178.201 55.7333L188.19 50.2702L193.653 40.2812Z" fill="#FCFCFC" stroke="#AF5300" stroke-width="1.0878" stroke-miterlimit="10"/>
</g>
<defs>
<clipPath id="clip0_639_18363">
<rect width="297.876" height="297.876" fill="white" transform="translate(0.6875 0.349609)"/>
</clipPath>
</defs>
</svg>
