<svg width="740" height="880" viewBox="0 0 740 880" fill="none" xmlns="http://www.w3.org/2000/svg">
<g clip-path="url(#clip0_684_2523)">
<g opacity="0.7">
<mask id="mask0_684_2523" style="mask-type:luminance" maskUnits="userSpaceOnUse" x="123" y="171" width="551" height="611">
<path d="M123.578 781.458V446.344C123.574 410.261 130.678 374.531 144.485 341.194C158.292 307.857 178.532 277.566 204.047 252.052C229.562 226.538 259.854 206.301 293.192 192.496C326.529 178.691 362.26 171.588 398.343 171.594C434.422 171.596 470.147 178.704 503.479 192.513C536.81 206.322 567.095 226.56 592.606 252.073C618.116 277.586 638.351 307.874 652.156 341.207C665.96 374.54 673.065 410.265 673.063 446.344V781.458" fill="white"/>
</mask>
<g mask="url(#mask0_684_2523)">
<g opacity="0.54">
<path d="M241.272 244.385L239.74 244.404L245.195 697.349L246.727 697.331L241.272 244.385Z" fill="var(--color-primary-100)"/>
<path d="M218.398 245.962H216.866V697.362H218.398V245.962Z" fill="var(--color-primary-100)"/>
<path d="M266.636 243.988L265.104 244.006L270.559 696.952L272.091 696.933L266.636 243.988Z" fill="var(--color-primary-100)"/>
<path d="M292.615 243.613L291.083 243.632L296.538 696.577L298.07 696.559L292.615 243.613Z" fill="var(--color-primary-100)"/>
<path d="M317.521 243.904L315.989 243.919L320.519 696.898L322.051 696.882L317.521 243.904Z" fill="var(--color-primary-100)"/>
<path d="M344.54 242.835L343.008 242.854L348.463 695.799L349.995 695.78L344.54 242.835Z" fill="var(--color-primary-100)"/>
<path d="M369.92 242.453L368.388 242.472L373.843 695.417L375.375 695.398L369.92 242.453Z" fill="var(--color-primary-100)"/>
<path d="M395.897 242.079L394.365 242.097L399.82 695.042L401.352 695.024L395.897 242.079Z" fill="var(--color-primary-100)"/>
<path d="M421.262 241.697L419.73 241.715L425.185 694.66L426.717 694.642L421.262 241.697Z" fill="var(--color-primary-100)"/>
<path d="M448.665 241.29L447.133 241.309L452.588 694.254L454.12 694.235L448.665 241.29Z" fill="var(--color-primary-100)"/>
<path d="M474.03 240.923L472.498 240.942L477.953 693.887L479.485 693.869L474.03 240.923Z" fill="var(--color-primary-100)"/>
<path d="M499.568 241.563L498.036 241.578L502.566 694.556L504.098 694.541L499.568 241.563Z" fill="var(--color-primary-100)"/>
<path d="M525.388 240.152L523.856 240.17L529.311 693.116L530.843 693.097L525.388 240.152Z" fill="var(--color-primary-100)"/>
<path d="M552.04 239.754L550.508 239.773L555.963 692.718L557.495 692.7L552.04 239.754Z" fill="var(--color-primary-100)"/>
<path d="M577.405 239.388L575.873 239.406L581.328 692.351L582.86 692.333L577.405 239.388Z" fill="var(--color-primary-100)"/>
<path d="M600.19 292.111L192.58 298.443L192.604 299.975L600.214 293.643L600.19 292.111Z" fill="var(--color-primary-100)"/>
<path d="M599.87 263.64L192.262 270.043L192.286 271.575L599.894 265.172L599.87 263.64Z" fill="var(--color-primary-100)"/>
<path d="M600.521 320.308L192.911 326.64L192.935 328.172L600.545 321.839L600.521 320.308Z" fill="var(--color-primary-100)"/>
<path d="M600.877 349.179L193.268 355.511L193.291 357.043L600.901 350.711L600.877 349.179Z" fill="var(--color-primary-100)"/>
<path d="M601.207 377.376L193.598 383.708L193.621 385.24L601.231 378.908L601.207 377.376Z" fill="var(--color-primary-100)"/>
<path d="M601.559 406.86L193.949 413.192L193.973 414.724L601.583 408.392L601.559 406.86Z" fill="var(--color-primary-100)"/>
<path d="M601.918 434.997L194.31 441.4L194.334 442.932L601.942 436.529L601.918 434.997Z" fill="var(--color-primary-100)"/>
<path d="M602.246 463.943L194.637 470.275L194.661 471.807L602.27 465.475L602.246 463.943Z" fill="var(--color-primary-100)"/>
<path d="M602.576 492.14L194.967 498.472L194.991 500.004L602.6 493.672L602.576 492.14Z" fill="var(--color-primary-100)"/>
<path d="M602.942 522.574L195.332 528.906L195.356 530.438L602.965 524.106L602.942 522.574Z" fill="var(--color-primary-100)"/>
<path d="M603.273 550.755L195.663 557.087L195.687 558.619L603.296 552.287L603.273 550.755Z" fill="var(--color-primary-100)"/>
<path d="M603.614 579.657L196.004 585.989L196.028 587.521L603.637 581.189L603.614 579.657Z" fill="var(--color-primary-100)"/>
<path d="M603.945 607.839L196.335 614.171L196.359 615.703L603.968 609.371L603.945 607.839Z" fill="var(--color-primary-100)"/>
<path d="M604.312 637.43L196.702 643.762L196.726 645.294L604.336 638.962L604.312 637.43Z" fill="var(--color-primary-100)"/>
<path d="M604.667 667.22L197.058 673.552L197.081 675.084L604.691 668.752L604.667 667.22Z" fill="var(--color-primary-100)"/>
</g>
<g opacity="0.54">
<path d="M188.346 241.372L183.914 694.773L185.446 694.788L189.878 241.387L188.346 241.372Z" fill="var(--color-primary-100)"/>
<path d="M193.26 246.071L189.78 689.154L191.312 689.166L194.792 246.083L193.26 246.071Z" fill="var(--color-primary-100)"/>
<path d="M182.849 237.44L178.331 699.695L179.863 699.71L184.381 237.455L182.849 237.44Z" fill="var(--color-primary-100)"/>
<path d="M177.001 233.292L172.391 704.985L173.923 705L178.533 233.307L177.001 233.292Z" fill="var(--color-primary-100)"/>
<path d="M171.144 229.064L166.331 710.37L167.863 710.385L172.676 229.079L171.144 229.064Z" fill="var(--color-primary-100)"/>
<path d="M164.249 224.305L159.958 716.041L161.49 716.054L165.781 224.318L164.249 224.305Z" fill="var(--color-primary-100)"/>
<path d="M157.543 219.729L153.599 721.902L155.131 721.914L159.075 219.741L157.543 219.729Z" fill="var(--color-primary-100)"/>
<path d="M150.607 214.739L146.575 728.081L148.107 728.093L152.139 214.751L150.607 214.739Z" fill="var(--color-primary-100)"/>
<path d="M143.517 209.657L139.396 734.382L140.928 734.394L145.049 209.669L143.517 209.657Z" fill="var(--color-primary-100)"/>
<path d="M135.506 203.917L131.284 741.496L132.816 741.508L137.038 203.929L135.506 203.917Z" fill="var(--color-primary-100)"/>
<path d="M127.192 198.337L123.928 748.425L125.46 748.434L128.724 198.346L127.192 198.337Z" fill="var(--color-primary-100)"/>
<path d="M82.3485 242.023L81.6562 243.39L198.408 302.519L199.1 301.152L82.3485 242.023Z" fill="var(--color-primary-100)"/>
<path d="M82.557 201.754L81.7588 203.062L198.669 274.424L199.467 273.116L82.557 201.754Z" fill="var(--color-primary-100)"/>
<path d="M82.1401 281.794L81.5664 283.214L198.158 330.297L198.731 328.876L82.1401 281.794Z" fill="var(--color-primary-100)"/>
<path d="M81.9336 322.378L81.4941 323.846L197.912 358.706L198.352 357.239L81.9336 322.378Z" fill="var(--color-primary-100)"/>
<path d="M81.7322 361.754L81.4346 363.257L197.7 386.278L197.998 384.775L81.7322 361.754Z" fill="var(--color-primary-100)"/>
<path d="M81.4955 402.701L81.3545 404.227L197.452 414.956L197.593 413.431L81.4955 402.701Z" fill="var(--color-primary-100)"/>
<path d="M197.253 440.813L81.3076 441.724L81.3197 443.256L197.265 442.346L197.253 440.813Z" fill="var(--color-primary-100)"/>
<path d="M196.809 468.778L81.0361 481.498L81.2035 483.021L196.976 470.301L196.809 468.778Z" fill="var(--color-primary-100)"/>
<path d="M196.471 495.917L80.875 520.15L81.1894 521.65L196.785 497.416L196.471 495.917Z" fill="var(--color-primary-100)"/>
<path d="M196.039 525.224L80.5977 561.645L81.0586 563.106L196.5 526.685L196.039 525.224Z" fill="var(--color-primary-100)"/>
<path d="M195.716 552.147L80.4766 599.904L81.0631 601.32L196.302 553.563L195.716 552.147Z" fill="var(--color-primary-100)"/>
<path d="M195.332 579.8L80.2002 638.868L80.8996 640.231L196.032 581.163L195.332 579.8Z" fill="var(--color-primary-100)"/>
<path d="M195.03 606.504L80.1182 676.729L80.9171 678.036L195.829 607.811L195.03 606.504Z" fill="var(--color-primary-100)"/>
<path d="M194.624 634.604L79.8779 716.331L80.7667 717.578L195.513 635.852L194.624 634.604Z" fill="var(--color-primary-100)"/>
<path d="M194.243 662.768L79.6748 755.975L80.6417 757.164L195.21 663.957L194.243 662.768Z" fill="var(--color-primary-100)"/>
</g>
<g opacity="0.54">
<path d="M608.112 234.173L606.58 234.188L611.114 687.61L612.646 687.595L608.112 234.173Z" fill="var(--color-primary-100)"/>
<path d="M603.777 237.521L602.245 237.536L606.676 680.632L608.208 680.617L603.777 237.521Z" fill="var(--color-primary-100)"/>
<path d="M613.73 230.047L612.198 230.062L616.797 692.317L618.329 692.302L613.73 230.047Z" fill="var(--color-primary-100)"/>
<path d="M619.694 225.84L618.162 225.855L622.69 697.549L624.222 697.534L619.694 225.84Z" fill="var(--color-primary-100)"/>
<path d="M625.752 221.544L624.22 221.558L628.672 702.844L630.204 702.83L625.752 221.544Z" fill="var(--color-primary-100)"/>
<path d="M632.339 216.96L630.807 216.974L635.098 708.71L636.63 708.697L632.339 216.96Z" fill="var(--color-primary-100)"/>
<path d="M638.952 212.271L637.42 212.284L641.627 714.455L643.159 714.442L638.952 212.271Z" fill="var(--color-primary-100)"/>
<path d="M645.99 207.359L644.458 207.371L648.49 720.713L650.022 720.701L645.99 207.359Z" fill="var(--color-primary-100)"/>
<path d="M653.235 202.216L651.703 202.228L655.641 726.939L657.173 726.927L653.235 202.216Z" fill="var(--color-primary-100)"/>
<path d="M661.395 196.482L659.863 196.493L663.616 734.076L665.148 734.065L661.395 196.482Z" fill="var(--color-primary-100)"/>
<path d="M669.302 190.912L667.77 190.922L671.322 741.008L672.854 740.998L669.302 190.912Z" fill="var(--color-primary-100)"/>
<path d="M714.298 234.615L597.505 293.663L598.196 295.03L714.989 235.983L714.298 234.615Z" fill="var(--color-primary-100)"/>
<path d="M714.056 194.282L597.184 265.705L597.983 267.012L714.855 195.589L714.056 194.282Z" fill="var(--color-primary-100)"/>
<path d="M714.472 274.353L597.914 321.517L598.489 322.937L715.047 275.773L714.472 274.353Z" fill="var(--color-primary-100)"/>
<path d="M714.681 314.954L598.269 349.835L598.708 351.303L715.12 316.422L714.681 314.954Z" fill="var(--color-primary-100)"/>
<path d="M714.933 354.337L598.647 377.256L598.944 378.76L715.229 355.84L714.933 354.337Z" fill="var(--color-primary-100)"/>
<path d="M715.159 395.269L599.06 405.978L599.2 407.503L715.3 396.794L715.159 395.269Z" fill="var(--color-primary-100)"/>
<path d="M599.47 433.45L599.458 434.982L715.403 435.893L715.415 434.361L599.47 433.45Z" fill="var(--color-primary-100)"/>
<path d="M599.782 461.349L599.614 462.872L715.387 475.592L715.554 474.069L599.782 461.349Z" fill="var(--color-primary-100)"/>
<path d="M600.206 488.594L599.893 490.094L715.501 514.267L715.815 512.767L600.206 488.594Z" fill="var(--color-primary-100)"/>
<path d="M600.535 517.762L600.074 519.223L715.522 555.624L715.983 554.163L600.535 517.762Z" fill="var(--color-primary-100)"/>
<path d="M600.94 544.838L600.354 546.254L715.635 593.91L716.22 592.495L600.94 544.838Z" fill="var(--color-primary-100)"/>
<path d="M601.255 572.316L600.556 573.679L715.688 632.747L716.387 631.384L601.255 572.316Z" fill="var(--color-primary-100)"/>
<path d="M601.606 599.135L600.809 600.443L715.781 670.568L716.579 669.26L601.606 599.135Z" fill="var(--color-primary-100)"/>
<path d="M601.988 627.291L601.1 628.539L715.903 710.186L716.791 708.937L601.988 627.291Z" fill="var(--color-primary-100)"/>
<path d="M602.31 655.295L601.344 656.484L715.993 749.591L716.959 748.402L602.31 655.295Z" fill="var(--color-primary-100)"/>
</g>
<g opacity="0.54">
<path d="M599.626 234.848L182.594 236.45L182.6 237.982L599.632 236.38L599.626 234.848Z" fill="var(--color-primary-100)"/>
<path d="M593.744 238.433L187.296 239.213L187.299 240.745L593.747 239.965L593.744 238.433Z" fill="var(--color-primary-100)"/>
<path d="M604.847 231.429L178.393 233.141L178.399 234.673L604.853 232.961L604.847 231.429Z" fill="var(--color-primary-100)"/>
<path d="M610.415 227.913L173.864 229.589L173.87 231.121L610.421 229.445L610.415 227.913Z" fill="var(--color-primary-100)"/>
<path d="M616.152 223.733L169.265 226.385L169.274 227.917L616.162 225.265L616.152 223.733Z" fill="var(--color-primary-100)"/>
<path d="M622.434 219.76L164.208 222.399L164.217 223.931L622.442 221.292L622.434 219.76Z" fill="var(--color-primary-100)"/>
<path d="M628.769 215.709L159.145 218.414L159.153 219.946L628.777 217.241L628.769 215.709Z" fill="var(--color-primary-100)"/>
<path d="M635.615 210.796L153.726 214.581L153.738 216.113L635.627 212.328L635.615 210.796Z" fill="var(--color-primary-100)"/>
<path d="M642.658 206.298L148.145 210.182L148.157 211.714L642.67 207.83L642.658 206.298Z" fill="var(--color-primary-100)"/>
<path d="M650.687 200.693L141.781 205.667L141.796 207.199L650.702 202.225L650.687 200.693Z" fill="var(--color-primary-100)"/>
<path d="M658.575 195.652L135.574 200.764L135.589 202.296L658.59 197.184L658.575 195.652Z" fill="var(--color-primary-100)"/>
<path d="M667.177 190.144L128.888 195.406L128.903 196.938L667.192 191.676L667.177 190.144Z" fill="var(--color-primary-100)"/>
<path d="M676.032 183.991L121.959 190.471L121.977 192.003L676.05 185.523L676.032 183.991Z" fill="var(--color-primary-100)"/>
<path d="M685.994 177.581L114.288 184.367L114.306 185.899L686.012 179.113L685.994 177.581Z" fill="var(--color-primary-100)"/>
<path d="M696.059 170.682L106.504 178.708L106.525 180.24L696.08 172.214L696.059 170.682Z" fill="var(--color-primary-100)"/>
<path d="M165.832 172.307L164.748 173.39L234.62 243.335L235.704 242.252L165.832 172.307Z" fill="var(--color-primary-100)"/>
<path d="M130.73 172.738L129.733 173.902L210.896 243.393L211.893 242.23L130.73 172.738Z" fill="var(--color-primary-100)"/>
<path d="M201.119 171.842L199.94 172.821L258.376 243.206L259.554 242.228L201.119 171.842Z" fill="var(--color-primary-100)"/>
<path d="M237.688 171.396L236.407 172.236L282.894 243.087L284.175 242.246L237.688 171.396Z" fill="var(--color-primary-100)"/>
<path d="M273.82 170.935L272.441 171.604L307.035 242.91L308.414 242.241L273.82 170.935Z" fill="var(--color-primary-100)"/>
<path d="M312.067 170.514L310.602 170.96L332.479 242.742L333.945 242.296L312.067 170.514Z" fill="var(--color-primary-100)"/>
<path d="M349.072 170.083L347.553 170.283L357.038 242.529L358.558 242.329L349.072 170.083Z" fill="var(--color-primary-100)"/>
<path d="M387.005 169.539L383.364 242.359L384.896 242.436L388.537 169.616L387.005 169.539Z" fill="var(--color-primary-100)"/>
<path d="M423.76 168.93L407.368 242.144L408.863 242.479L425.255 169.265L423.76 168.93Z" fill="var(--color-primary-100)"/>
<path d="M465.258 168.207L434.622 241.949L436.037 242.537L466.672 168.794L465.258 168.207Z" fill="var(--color-primary-100)"/>
<path d="M504.174 167.547L460.063 241.779L461.381 242.561L505.491 168.33L504.174 167.547Z" fill="var(--color-primary-100)"/>
<path d="M544.541 166.866L486.351 241.616L487.56 242.557L545.75 167.808L544.541 166.866Z" fill="var(--color-primary-100)"/>
<path d="M584.484 166.247L512.214 241.478L513.319 242.539L585.589 167.308L584.484 166.247Z" fill="var(--color-primary-100)"/>
<path d="M626.906 165.612L539.664 241.45L540.669 242.606L627.911 166.768L626.906 165.612Z" fill="var(--color-primary-100)"/>
<path d="M670.197 164.95L567.393 241.244L568.306 242.474L671.11 166.181L670.197 164.95Z" fill="var(--color-primary-100)"/>
</g>
</g>
</g>
<path d="M87.1917 879.65H100.598C100.598 850.311 91.9259 834.99 84.2655 821.538C77.0033 808.699 70.7371 797.622 70.7371 774.319C70.7371 751.016 77.0646 740 84.2655 727.1C91.9259 713.617 100.536 698.358 100.536 668.988C100.536 639.617 91.9259 624.342 84.2655 610.875C77.0033 598.036 70.7371 586.959 70.7371 563.672C70.7371 540.384 77.0646 529.276 84.2655 516.453C91.9259 502.97 100.536 487.711 100.536 458.34C100.536 428.97 91.9259 413.665 84.2655 400.228C77.0033 387.405 70.7371 376.312 70.7371 353.024H57.3926C57.3926 382.379 66.0336 397.654 73.6481 411.137C80.9102 423.96 87.1917 435.037 87.1917 458.34C87.1917 481.643 80.9102 492.72 73.6481 505.59C65.9876 519.057 57.3926 534.332 57.3926 563.702C57.3926 593.072 66.0336 608.24 73.6481 621.769C80.9102 634.607 87.1917 645.684 87.1917 668.988C87.1917 692.291 80.9102 703.368 73.6481 716.207C65.9876 729.674 57.3926 744.949 57.3926 774.319C57.3926 803.689 66.0336 818.964 73.6481 832.431C80.9102 845.27 87.1917 856.347 87.1917 879.65Z" fill="var(--color-primary-100)"/>
<path d="M112.303 879.65H116.777C116.777 852.302 108.963 838.514 101.456 825.169C93.9486 811.824 87.0236 799.644 87.0236 774.319C87.0236 748.993 94.0406 736.599 101.456 723.469C108.871 710.339 116.777 696.335 116.777 668.988C116.777 641.64 108.963 627.851 101.456 614.506C93.9486 601.162 87.0236 588.982 87.0236 563.672C87.0236 538.361 94.0406 525.952 101.456 512.822C108.871 499.692 116.777 485.688 116.777 458.34C116.777 430.993 108.963 417.204 101.456 403.859C93.9486 390.515 87.0236 378.335 87.0236 353.024H82.5039C82.5039 380.357 90.3023 394.161 97.8248 407.49C105.347 420.819 112.272 433.015 112.272 458.34C112.272 483.666 105.255 496.06 97.8248 509.19C90.3942 522.32 82.5039 536.324 82.5039 563.672C82.5039 591.019 90.3023 604.793 97.8248 618.137C105.347 631.482 112.272 643.662 112.272 668.988C112.272 694.313 105.255 706.708 97.8248 719.838C90.3942 732.968 82.5039 746.971 82.5039 774.319C82.5039 801.667 90.3023 815.456 97.8248 828.8C105.347 842.145 112.303 854.325 112.303 879.65Z" fill="var(--color-primary-100)"/>
<path d="M127.332 879.65H128.864C128.864 852.977 121.204 839.464 113.804 826.38C106.143 812.974 99.0497 800.334 99.0497 774.288C99.0497 748.243 106.22 735.634 113.804 722.197C121.204 709.113 128.864 695.6 128.864 668.926C128.864 642.253 121.204 628.74 113.804 615.656C106.143 602.25 99.0497 589.61 99.0497 563.565C99.0497 537.519 106.22 524.91 113.804 511.474C121.204 498.389 128.864 484.876 128.864 458.203C128.864 431.529 121.204 418.016 113.804 404.932C106.143 391.541 99.0497 378.886 99.0497 352.841H97.5176C97.5176 379.499 105.178 393.028 112.578 406.096C120.238 419.502 127.317 432.142 127.317 458.187C127.317 484.233 120.162 496.842 112.578 510.278C105.178 523.347 97.5176 536.876 97.5176 563.549C97.5176 590.223 105.178 603.736 112.578 616.805C120.238 630.211 127.317 642.85 127.317 668.896C127.317 694.941 120.162 707.551 112.578 720.987C105.178 734.071 97.5176 747.584 97.5176 774.258C97.5176 800.931 105.178 814.46 112.578 827.529C120.177 840.996 127.332 853.651 127.332 879.65Z" fill="var(--color-primary-100)"/>
<path d="M709.497 879.65H696.091C696.091 850.311 704.762 834.99 712.423 821.538C719.685 808.699 725.951 797.622 725.951 774.319C725.951 751.016 719.624 740 712.423 727.1C704.762 713.617 696.152 698.358 696.152 668.988C696.152 639.617 704.762 624.342 712.423 610.875C719.685 598.036 725.951 586.959 725.951 563.672C725.951 540.384 719.685 529.276 712.423 516.453C704.762 502.97 696.152 487.711 696.152 458.34C696.152 428.97 704.762 413.665 712.423 400.228C719.685 387.405 725.951 376.312 725.951 353.024H739.357C739.357 382.379 730.716 397.654 723.102 411.137C715.839 423.96 709.558 435.037 709.558 458.34C709.558 481.643 715.839 492.721 723.102 505.559C730.762 519.027 739.357 534.301 739.357 563.672C739.357 593.042 730.655 608.24 723.04 621.769C715.778 634.607 709.497 645.684 709.497 668.988C709.497 692.291 715.778 703.368 723.04 716.207C730.701 729.674 739.296 744.949 739.296 774.319C739.296 803.689 730.655 818.964 723.04 832.431C715.778 845.27 709.497 856.347 709.497 879.65Z" fill="var(--color-primary-100)"/>
<path d="M684.386 879.65H679.912C679.912 852.302 687.726 838.514 695.233 825.169C702.74 811.824 709.665 799.644 709.665 774.319C709.665 748.993 702.648 736.599 695.233 723.469C687.818 710.339 679.912 696.335 679.912 668.988C679.912 641.64 687.726 627.851 695.233 614.506C702.74 601.162 709.665 588.982 709.665 563.672C709.665 538.361 702.648 525.952 695.233 512.822C687.818 499.692 679.912 485.688 679.912 458.34C679.912 430.993 687.726 417.204 695.233 403.859C702.74 390.515 709.665 378.335 709.665 353.024H714.139C714.139 380.357 706.341 394.161 698.818 407.49C691.296 420.819 684.37 433.015 684.37 458.34C684.37 483.666 691.387 496.06 698.818 509.19C706.249 522.32 714.139 536.324 714.139 563.672C714.139 591.019 706.341 604.793 698.818 618.137C691.296 631.482 684.37 643.662 684.37 668.988C684.37 694.313 691.387 706.708 698.818 719.838C706.249 732.968 714.139 746.971 714.139 774.319C714.139 801.667 706.341 815.456 698.818 828.8C691.296 842.145 684.386 854.325 684.386 879.65Z" fill="var(--color-primary-100)"/>
<path d="M669.355 879.65H667.823C667.823 852.977 675.484 839.464 682.884 826.38C690.468 812.974 697.638 800.334 697.638 774.288C697.638 748.243 690.468 735.634 682.884 722.197C675.484 709.113 667.823 695.6 667.823 668.926C667.823 642.253 675.484 628.74 682.884 615.656C690.468 602.25 697.638 589.61 697.638 563.565C697.638 537.519 690.468 524.91 682.884 511.474C675.484 498.389 667.823 484.876 667.823 458.203C667.823 431.529 675.484 418.016 682.884 404.932C690.468 391.541 697.638 378.886 697.638 352.841H699.17C699.17 379.499 691.509 393.028 684.109 406.096C676.525 419.502 669.371 432.142 669.371 458.187C669.371 484.233 676.525 496.842 684.109 510.278C691.509 523.347 699.17 536.876 699.17 563.549C699.17 590.223 691.509 603.736 684.109 616.805C676.525 630.211 669.371 642.85 669.371 668.896C669.371 694.941 676.525 707.551 684.109 720.987C691.509 734.071 699.17 747.584 699.17 774.258C699.17 800.931 691.509 814.46 684.109 827.529C676.51 840.996 669.355 853.651 669.355 879.65Z" fill="var(--color-primary-100)"/>
<path d="M71.0174 266.705L134.24 297.613L127.214 311.984L84.5323 291.117L124.408 317.724L119.425 327.916L74.7601 313.58L116.466 333.969L109.44 348.34L46.2178 317.431L56.6225 296.149C60.7289 297.382 65.5312 298.907 71.0295 300.724L88.2256 306.325L60.5362 288.143L71.0174 266.705Z" fill="var(--color-primary-100)"/>
<path d="M137.673 246.149L124.284 264.53L134.371 271.877C136.48 273.413 137.95 274.25 138.781 274.39C139.612 274.529 140.343 274.165 140.975 273.298C141.76 272.22 141.882 271.215 141.341 270.284C140.794 269.311 139.361 267.981 137.041 266.291L130.891 261.811L140.696 248.35L144.14 250.859C147.022 252.958 149.099 254.759 150.373 256.26C151.663 257.738 152.701 259.784 153.485 262.4C154.269 265.015 154.356 267.678 153.744 270.389C153.127 273.059 151.691 275.94 149.439 279.033C147.254 282.032 144.892 284.364 142.353 286.028C139.813 287.693 137.324 288.624 134.886 288.82C132.442 288.976 130.138 288.643 127.976 287.821C125.79 286.982 122.963 285.299 119.495 282.773L105.894 272.866C101.817 269.897 99.0081 267.008 97.4673 264.2C95.9029 261.375 95.4129 258.257 95.9972 254.845C96.5581 251.417 98.0247 248.074 100.397 244.817C103.298 240.834 106.449 238.108 109.849 236.64C113.243 235.132 116.569 234.775 119.827 235.571C123.079 236.325 126.965 238.349 131.488 241.643L137.673 246.149ZM119.714 254.853L116.305 252.37C113.891 250.612 112.239 249.606 111.349 249.352C110.458 249.098 109.723 249.369 109.142 250.165C108.426 251.149 108.287 251.98 108.725 252.659C109.14 253.319 110.66 254.606 113.284 256.517L116.693 259L119.714 254.853Z" fill="var(--color-primary-100)"/>
<path d="M170.632 212.852L154.747 228.964L163.588 237.681C165.437 239.503 166.76 240.544 167.557 240.803C168.354 241.063 169.127 240.812 169.876 240.053C170.808 239.108 171.076 238.137 170.682 237.141C170.287 236.103 169.073 234.583 167.04 232.578L161.648 227.263L173.281 215.464L176.3 218.44C178.826 220.931 180.605 223.009 181.637 224.674C182.688 226.318 183.407 228.485 183.793 231.174C184.18 233.864 183.872 236.497 182.871 239.073C181.869 241.609 180.032 244.233 177.359 246.944C174.767 249.573 172.099 251.519 169.355 252.782C166.611 254.046 164.024 254.594 161.596 254.428C159.168 254.221 156.95 253.553 154.944 252.426C152.917 251.277 150.383 249.205 147.344 246.208L135.422 234.454C131.848 230.931 129.51 227.674 128.408 224.684C127.286 221.674 127.263 218.533 128.341 215.263C129.399 211.972 131.335 208.899 134.15 206.044C137.592 202.553 141.094 200.335 144.656 199.393C148.218 198.409 151.543 198.548 154.632 199.811C157.72 201.033 161.246 203.598 165.21 207.506L170.632 212.852ZM151.677 218.768L148.688 215.822C146.573 213.736 145.096 212.503 144.257 212.121C143.418 211.74 142.655 211.898 141.966 212.596C141.116 213.459 140.856 214.256 141.188 214.988C141.499 215.699 142.804 217.189 145.104 219.457L148.093 222.403L151.677 218.768Z" fill="var(--color-primary-100)"/>
<path d="M166.489 167.09L172.202 174.163L175.891 171.183L181.632 178.291L177.943 181.27L197.351 205.299C199.738 208.255 201.215 209.783 201.782 209.885C202.371 209.968 203.782 209.108 206.016 207.304L211.866 214.546L206.349 219.002C203.236 221.517 200.913 223.188 199.381 224.015C197.832 224.819 196.175 225.169 194.413 225.064C192.632 224.936 191.135 224.375 189.921 223.379C188.689 222.361 186.268 219.619 182.66 215.151L164.236 192.341L161.292 194.719L155.551 187.612L158.496 185.234L152.783 178.16L166.489 167.09Z" fill="var(--color-primary-100)"/>
<path d="M235.155 143.532L220.35 151.816L217.807 147.272C216.621 145.152 215.676 143.907 214.972 143.539C214.269 143.17 213.475 143.233 212.592 143.727C211.632 144.264 211.119 145.065 211.052 146.13C211.011 147.181 211.435 148.501 212.325 150.092C213.469 152.136 214.608 153.521 215.743 154.245C216.852 154.983 219.053 155.392 222.346 155.472C231.798 155.719 238.201 156.677 241.555 158.347C244.91 160.016 248.268 163.855 251.629 169.863C254.073 174.23 255.356 177.738 255.48 180.387C255.628 183.022 254.634 185.866 252.497 188.918C250.345 191.945 247.326 194.546 243.439 196.721C239.173 199.108 235.073 200.341 231.14 200.421C227.232 200.486 224.112 199.531 221.779 197.554C219.447 195.578 216.996 192.293 214.425 187.698L212.179 183.685L226.984 175.4L231.158 182.86C232.443 185.157 233.471 186.52 234.243 186.951C235.039 187.367 235.967 187.278 237.027 186.685C238.088 186.092 238.637 185.237 238.676 184.122C238.74 182.992 238.313 181.607 237.395 179.966C235.375 176.357 233.562 174.272 231.956 173.712C230.325 173.166 226.8 172.702 221.382 172.32C215.95 171.912 212.258 171.475 210.307 171.009C208.356 170.543 206.365 169.503 204.334 167.888C202.329 166.259 200.415 163.816 198.593 160.56C195.965 155.865 194.638 152.1 194.609 149.265C194.606 146.416 195.603 143.637 197.601 140.928C199.585 138.194 202.47 135.768 206.256 133.649C210.396 131.332 214.292 130.031 217.943 129.744C221.62 129.444 224.498 130.054 226.576 131.576C228.665 133.059 231.073 136.236 233.799 141.108L235.155 143.532Z" fill="var(--color-primary-100)"/>
<path d="M259.355 123.866L260.923 128.949C261.38 126.518 262.283 124.495 263.631 122.878C264.997 121.224 266.808 119.977 269.065 119.136C271.893 118.084 274.452 117.889 276.743 118.553C279.033 119.217 280.817 120.473 282.093 122.32C283.358 124.14 284.872 127.415 286.634 132.146L300.757 170.077L284.279 176.212L270.323 138.73C268.936 135.005 267.969 132.78 267.42 132.056C266.872 131.331 266.04 131.176 264.925 131.591C263.756 132.027 263.199 132.776 263.254 133.839C263.299 134.875 264.081 137.432 265.6 141.511L279.222 178.096L262.744 184.231L242.592 130.108L259.355 123.866Z" fill="var(--color-primary-100)"/>
<path d="M334.994 124.48L337.94 138.27C339.022 143.334 339.562 147.108 339.56 149.593C339.553 152.05 338.935 154.489 337.707 156.91C336.473 159.304 334.647 161.276 332.228 162.829C329.831 164.346 326.935 165.468 323.54 166.193C319.75 167.003 316.452 167.279 313.646 167.021C310.833 166.734 308.514 165.913 306.686 164.559C304.881 163.17 303.413 161.354 302.283 159.11C301.147 156.839 300.068 153.313 299.047 148.532L295.965 134.105C294.847 128.872 294.539 124.664 295.042 121.48C295.545 118.296 297.077 115.499 299.638 113.088C302.199 110.678 305.771 108.983 310.354 108.004C314.201 107.182 317.62 107.058 320.612 107.631C323.626 108.17 326.079 109.199 327.971 110.718C329.863 112.236 331.287 113.914 332.241 115.751C333.224 117.582 334.141 120.492 334.994 124.48ZM316.945 123.899C316.328 121.014 315.786 119.237 315.317 118.568C314.843 117.871 314.097 117.631 313.078 117.848C312.06 118.066 311.463 118.593 311.286 119.429C311.104 120.237 311.321 122.084 311.938 124.969L317.368 150.386C317.936 153.045 318.477 154.748 318.992 155.496C319.501 156.216 320.25 156.47 321.24 156.258C322.259 156.04 322.845 155.531 322.999 154.729C323.181 153.921 323.012 152.3 322.493 149.868L316.945 123.899Z" fill="var(--color-primary-100)"/>
<path d="M358.948 102.076L358.913 109.657C360.978 104.047 364.403 100.874 369.188 100.137L370.951 120.323C367.752 120.602 365.441 121.239 364.018 122.235C362.595 123.23 361.779 124.521 361.569 126.107C361.356 127.664 361.493 131.224 361.979 136.786L363.956 159.435L346.493 160.96L341.485 103.601L358.948 102.076Z" fill="var(--color-primary-100)"/>
<path d="M413.989 100.907L407.103 123.931L416.691 158.463L399.813 158.632L394.095 133.608L394.346 158.687L376.816 158.862L376.114 88.6147L393.643 88.4395L393.938 117.944L399.237 101.054L413.989 100.907Z" fill="var(--color-primary-100)"/>
<path d="M209.896 663.733C206.358 663.792 202.834 663.274 199.462 662.2C196.058 661.111 193.005 659.136 190.615 656.479C188.224 653.822 186.583 650.578 185.857 647.079C177.446 611.841 233.904 524.511 326.365 429.981C438.177 315.611 557.129 236.708 597.27 250.374C600.673 251.464 603.727 253.439 606.117 256.095C608.507 258.752 610.149 261.997 610.875 265.496C619.286 300.734 562.828 388.063 470.367 482.593C367.042 588.323 257.528 663.733 209.896 663.733ZM586.3 256.38C542.237 256.38 430.854 333.965 331.789 435.328C232.203 537.167 186.761 618.046 193.257 645.301C193.681 647.541 194.709 649.622 196.229 651.32C197.749 653.019 199.704 654.27 201.883 654.938C204.629 655.82 207.502 656.244 210.386 656.195C254.449 656.195 365.832 578.594 464.897 477.246C564.483 375.393 609.925 294.529 603.429 267.35C603.005 265.111 601.977 263.029 600.457 261.331C598.937 259.633 596.982 258.382 594.803 257.713C592.061 256.806 589.188 256.355 586.3 256.38Z" fill="var(--color-primary-100)"/>
<path d="M571.194 668.865C524.128 668.865 419.854 589.993 324.328 480.418C240.538 384.356 191.082 295.924 201.271 260.456C202.185 256.804 204.044 253.458 206.66 250.753C209.277 248.047 212.559 246.078 216.178 245.043C257.376 232.495 369.923 314.707 472.359 432.188C556.149 528.28 605.651 616.713 595.416 652.242C594.502 655.893 592.644 659.239 590.027 661.945C587.41 664.65 584.128 666.62 580.509 667.655C577.48 668.513 574.342 668.921 571.194 668.865ZM225.968 251.263C223.409 251.224 220.858 251.565 218.4 252.274C216.001 252.935 213.827 254.233 212.106 256.029C210.385 257.825 209.182 260.054 208.625 262.478C199.432 294.575 250.512 384.111 330.104 475.439C427.361 586.975 540.997 671.623 578.303 660.285C580.701 659.625 582.876 658.327 584.597 656.531C586.318 654.734 587.52 652.506 588.078 650.082C597.27 617.984 546.19 528.449 466.598 437.121C375.209 332.357 269.342 251.263 225.968 251.263Z" fill="var(--color-primary-100)"/>
<path d="M542.528 396.352L640.245 331.131L643.968 365.741L725.016 323.363L607.811 439.251L605.313 398.834L550.679 443.173L542.528 396.352Z" fill="#FFD401"/>
<path d="M550.679 444.705C550.496 444.703 550.315 444.672 550.143 444.613C549.895 444.519 549.676 444.362 549.506 444.158C549.337 443.954 549.224 443.709 549.178 443.448L541.027 396.612C540.977 396.321 541.013 396.021 541.129 395.749C541.246 395.477 541.44 395.245 541.686 395.08L639.402 329.874C639.622 329.728 639.876 329.64 640.139 329.621C640.403 329.601 640.667 329.65 640.906 329.763C641.145 329.875 641.351 330.048 641.503 330.263C641.656 330.479 641.75 330.73 641.777 330.993L645.255 363.351L724.311 321.984C724.634 321.827 725.002 321.789 725.35 321.876C725.699 321.963 726.006 322.17 726.217 322.46C726.429 322.75 726.532 323.105 726.508 323.463C726.485 323.822 726.336 324.16 726.088 324.42L608.883 440.308C608.675 440.516 608.411 440.661 608.123 440.723C607.835 440.786 607.535 440.764 607.259 440.66C606.985 440.555 606.747 440.374 606.573 440.137C606.4 439.901 606.297 439.62 606.279 439.327L603.965 401.867L551.644 444.306C551.379 444.548 551.037 444.689 550.679 444.705ZM544.214 397.072L551.751 440.338L604.348 397.639C604.561 397.47 604.816 397.362 605.085 397.324C605.354 397.286 605.629 397.321 605.88 397.424C606.14 397.537 606.364 397.72 606.526 397.953C606.689 398.186 606.783 398.459 606.799 398.742L609.082 435.788L716.635 329.461L644.627 367.089C644.405 367.207 644.158 367.269 643.907 367.269C643.656 367.269 643.408 367.207 643.187 367.089C642.968 366.971 642.782 366.803 642.643 366.597C642.504 366.392 642.417 366.156 642.39 365.909L638.943 333.735L544.214 397.072Z" fill="var(--color-primary-100)"/>
<g opacity="0.17">
<path d="M557.113 382.456C557.113 382.456 582.745 383.988 591.003 408.808L566.765 430.165L557.113 382.456Z" fill="var(--color-primary-100)"/>
<path d="M566.766 431.697C566.604 431.728 566.437 431.728 566.275 431.697C566.031 431.598 565.817 431.437 565.653 431.23C565.49 431.023 565.382 430.778 565.341 430.518L555.689 382.808C555.642 382.576 555.649 382.337 555.71 382.108C555.771 381.88 555.885 381.668 556.041 381.491C556.195 381.315 556.386 381.177 556.601 381.087C556.816 380.996 557.049 380.956 557.282 380.97C557.543 380.97 584.032 382.793 592.52 408.379C592.613 408.663 592.62 408.969 592.541 409.257C592.462 409.546 592.3 409.805 592.076 410.003L567.838 431.36C567.536 431.604 567.153 431.725 566.766 431.697ZM559.029 384.203L567.746 427.254L589.196 408.318C582.378 389.289 564.989 385.106 559.029 384.218V384.203Z" fill="var(--color-primary-100)"/>
</g>
<path d="M306.648 577.522L215.871 652.089L208.732 618.03L132.28 668.222L237.443 541.288L243.924 581.275L293.885 531.728L306.648 577.522Z" fill="#FFD401"/>
<path d="M132.281 669.754C132.067 669.753 131.855 669.708 131.66 669.621C131.465 669.534 131.29 669.407 131.147 669.248C130.905 668.969 130.772 668.613 130.772 668.245C130.772 667.876 130.905 667.52 131.147 667.241L236.31 540.323C236.493 540.104 236.733 539.941 237.004 539.852C237.274 539.762 237.565 539.75 237.842 539.817C238.126 539.892 238.383 540.048 238.581 540.265C238.78 540.483 238.911 540.753 238.96 541.043L244.966 578.089L292.813 530.594C293.003 530.405 293.238 530.269 293.497 530.199C293.755 530.129 294.027 530.128 294.286 530.197C294.545 530.265 294.781 530.4 294.972 530.588C295.162 530.775 295.3 531.01 295.372 531.268L308.119 577.077C308.185 577.355 308.173 577.645 308.084 577.915C307.995 578.186 307.832 578.426 307.613 578.61L216.837 653.284C216.633 653.45 216.39 653.56 216.131 653.605C215.872 653.65 215.606 653.627 215.358 653.54C215.11 653.452 214.889 653.302 214.716 653.104C214.543 652.907 214.424 652.668 214.37 652.41L207.69 620.497L133.123 669.524C132.871 669.681 132.578 669.76 132.281 669.754ZM236.463 544.873L139.941 661.312L207.859 616.728C208.067 616.591 208.306 616.506 208.554 616.482C208.802 616.458 209.053 616.495 209.284 616.59C209.515 616.685 209.72 616.835 209.88 617.027C210.041 617.22 210.151 617.448 210.203 617.693L216.821 649.27L304.886 576.97L293.12 534.7L245.012 582.409C244.812 582.607 244.561 582.746 244.288 582.81C244.014 582.875 243.728 582.864 243.461 582.777C243.193 582.689 242.955 582.531 242.772 582.317C242.589 582.104 242.468 581.844 242.423 581.566L236.463 544.873Z" fill="var(--color-primary-100)"/>
<g opacity="0.17">
<path d="M293.503 592.797C293.503 592.797 267.871 593.869 257.177 569.923L279.178 546.267L293.503 592.797Z" fill="var(--color-primary-100)"/>
<path d="M293.166 594.329C289.764 594.329 266.017 593.486 255.783 570.551C255.659 570.276 255.62 569.971 255.669 569.674C255.718 569.377 255.853 569.101 256.058 568.881L278.059 545.225C278.249 545.018 278.493 544.867 278.763 544.788C279.033 544.71 279.32 544.707 279.591 544.781C279.853 544.842 280.093 544.97 280.29 545.153C280.486 545.335 280.631 545.567 280.71 545.823L295.035 592.337C295.106 592.563 295.123 592.803 295.086 593.037C295.049 593.271 294.958 593.493 294.82 593.685C294.685 593.875 294.509 594.032 294.305 594.143C294.1 594.255 293.873 594.318 293.641 594.329H293.166ZM259 570.214C267.687 588.492 285.413 590.943 291.419 591.234L278.503 549.255L259 570.214Z" fill="var(--color-primary-100)"/>
</g>
<path d="M465.939 292.063C424.095 278.538 378.71 281.11 338.662 299.275C298.613 317.441 266.782 349.893 249.394 390.285C247.187 395.433 245.165 400.734 243.403 406.173C241.641 411.612 240.201 417.097 239.006 422.581C237.704 428.45 236.707 434.382 236.018 440.354C231.136 482.524 241.59 525.044 265.472 560.141C289.354 595.239 325.068 620.571 366.087 631.508C407.106 642.446 450.691 638.257 488.877 619.709C527.062 601.16 557.298 569.49 574.059 530.487C576.286 525.38 578.282 520.084 580.05 514.599C581.811 509.145 583.252 503.675 584.462 498.205C585.758 492.331 586.75 486.394 587.434 480.418C592.057 439.82 582.481 398.874 560.333 364.537C538.185 330.201 504.831 304.592 465.939 292.063Z" fill="#63AEEF"/>
<mask id="mask1_684_2523" style="mask-type:luminance" maskUnits="userSpaceOnUse" x="234" y="283" width="355" height="355">
<path d="M465.939 292.063C424.095 278.538 378.71 281.11 338.662 299.275C298.613 317.441 266.782 349.893 249.394 390.285C247.187 395.433 245.165 400.734 243.403 406.173C241.641 411.612 240.201 417.097 239.006 422.581C237.704 428.45 236.707 434.382 236.018 440.354C231.136 482.524 241.59 525.044 265.472 560.141C289.354 595.239 325.068 620.571 366.087 631.508C407.106 642.446 450.691 638.257 488.877 619.709C527.062 601.16 557.298 569.49 574.059 530.487C576.286 525.38 578.282 520.084 580.05 514.599C581.811 509.145 583.252 503.675 584.462 498.205C585.758 492.331 586.75 486.394 587.434 480.418C592.057 439.82 582.481 398.874 560.333 364.537C538.185 330.201 504.831 304.592 465.939 292.063Z" fill="white"/>
</mask>
<g mask="url(#mask1_684_2523)">
<g style="mix-blend-mode:soft-light">
<path d="M389.58 331.253C389.58 334.911 388.496 338.486 386.464 341.527C384.432 344.568 381.544 346.938 378.165 348.338C374.786 349.737 371.068 350.104 367.48 349.39C363.893 348.677 360.598 346.915 358.012 344.329C355.426 341.743 353.665 338.448 352.951 334.861C352.238 331.274 352.604 327.555 354.003 324.176C355.403 320.797 357.773 317.909 360.814 315.877C363.855 313.845 367.431 312.761 371.088 312.761C375.993 312.761 380.696 314.709 384.164 318.177C387.632 321.645 389.58 326.349 389.58 331.253Z" fill="white"/>
</g>
<g style="mix-blend-mode:soft-light">
<path d="M294.973 361.65C316.959 363.044 338.944 359.965 360.669 357.054C382.394 354.143 404.518 351.4 426.411 353.484C450.741 355.782 473.385 363.933 495.126 372.512C516.866 381.092 538.514 390.315 562.231 395.065C585.948 399.814 612.53 399.661 633.565 390.101C618.137 408.118 590.943 420.069 562.584 421.248C531.007 422.581 501.085 411.489 473.079 400.381C445.072 389.273 415.825 377.568 384.218 377.507C349.102 377.43 314.492 391.847 280.204 386.133C269.28 384.325 228.48 369.28 235.773 357.115C238.761 352.105 251.477 353.04 256.885 353.959C269.939 356.196 281.184 360.777 294.973 361.65Z" fill="white"/>
</g>
<g style="mix-blend-mode:soft-light">
<path d="M302.067 284.279C324.052 286.21 346.038 281.966 367.763 277.967C389.488 273.968 411.611 270.184 433.505 273.049C457.835 276.22 480.479 287.435 502.219 299.232C523.96 311.029 545.608 323.746 569.325 330.273C593.042 336.799 619.623 336.554 640.659 323.424C625.231 348.213 598.036 364.653 569.677 366.323C538.101 368.146 508.179 352.886 480.173 337.596C452.166 322.306 422.918 306.219 391.311 306.127C356.196 306.035 321.586 325.875 287.298 318.016C276.374 315.503 235.574 294.789 242.867 278.074C245.855 271.18 258.571 272.467 263.979 273.738C277.033 276.787 288.278 283.084 302.067 284.279Z" fill="white"/>
</g>
<g style="mix-blend-mode:screen" opacity="0.92">
<path d="M239.45 457.069C240.135 451.092 241.127 445.155 242.422 439.281C243.633 433.811 245.088 428.342 246.835 422.888C248.581 417.433 250.604 412.163 252.825 407C267.049 374.058 290.958 346.223 321.377 327.193C351.796 308.162 387.285 298.836 423.129 300.454C458.974 302.071 493.479 314.556 522.06 336.249C550.641 357.943 571.945 387.818 583.144 421.907C577.612 385.461 560.83 351.655 535.143 325.215C509.457 298.774 476.15 281.022 439.879 274.439C403.608 267.856 366.187 272.771 332.847 288.499C299.507 304.226 271.915 329.978 253.928 362.156C251.009 367.412 248.355 372.812 245.977 378.334C243.75 383.441 241.753 388.737 239.986 394.222C238.24 399.676 236.784 405.146 235.574 410.631C228.771 441.489 230.412 473.609 240.323 503.613C237.967 488.206 237.674 472.554 239.45 457.069Z" fill="white"/>
</g>
<g style="mix-blend-mode:soft-light">
<path d="M259.076 570.26C281.062 571.639 303.047 568.59 324.772 565.74C346.497 562.89 368.621 560.163 390.499 562.216C414.844 564.484 437.488 572.512 459.229 580.954C480.969 589.396 502.617 598.481 526.334 603.154C550.051 607.827 576.633 607.658 597.668 598.266C582.24 616.008 555.03 627.759 526.687 628.908C495.11 630.21 465.188 619.287 437.182 608.363C409.175 597.439 379.928 585.902 348.321 585.841C313.22 585.841 278.61 599.967 244.307 594.329C233.398 592.552 192.599 577.721 199.876 565.755C202.864 560.837 215.58 561.741 220.988 562.691C234.042 564.882 245.287 569.386 259.076 570.26Z" fill="white"/>
</g>
<g style="mix-blend-mode:soft-light">
<path d="M550.495 468.559C535.879 468.559 524.036 478.533 524.036 490.851C524.036 503.169 535.879 513.128 550.495 513.128C565.111 513.128 576.955 503.154 576.955 490.851C576.955 478.548 565.111 468.559 550.495 468.559ZM550.495 500.733C544.061 500.733 538.836 496.336 538.836 490.912C538.836 485.489 544.061 481.076 550.495 481.076C556.93 481.076 562.17 485.473 562.17 490.912C562.17 496.351 556.945 500.672 550.495 500.672V500.733Z" fill="white"/>
</g>
<g style="mix-blend-mode:soft-light">
<path d="M292.63 458.999C308.211 459.596 321.264 449.439 321.739 436.293C322.214 423.148 310.019 412.025 294.422 411.427C278.825 410.83 265.772 420.988 265.312 434.133C264.853 447.278 277.002 458.401 292.63 458.999ZM293.947 424.726C300.826 424.986 306.204 429.904 305.989 435.696C305.775 441.487 300.014 445.976 293.135 445.7C286.256 445.425 280.878 440.522 281.078 434.73C281.277 428.939 287.037 424.389 293.917 424.726H293.947Z" fill="white"/>
</g>
<g style="mix-blend-mode:soft-light">
<path d="M254.128 499.661C276.144 500.519 297.976 495.907 319.548 491.525C341.12 487.144 363.105 482.93 385.06 484.631C409.497 486.516 432.555 495.586 454.633 505.222C476.71 514.859 498.833 525.262 522.749 530.104C546.665 534.945 573.232 533.75 593.792 521.294C579.238 543.877 552.61 559.504 524.327 562.032C492.828 564.867 462.416 552.487 433.934 540.016C405.452 527.545 375.715 514.384 344.046 515.503C308.961 516.774 275.102 535.696 240.523 530.042C229.522 528.234 188.049 511.443 194.729 496.336C197.486 490.116 210.233 490.759 215.688 491.74C228.848 493.961 240.308 499.109 254.128 499.661Z" fill="white"/>
</g>
</g>
<path d="M465.939 292.063C424.095 278.538 378.71 281.11 338.662 299.275C298.613 317.441 266.782 349.893 249.394 390.285C247.187 395.433 245.165 400.734 243.403 406.173C241.641 411.612 240.201 417.097 239.006 422.581C237.704 428.45 236.707 434.382 236.018 440.354C231.136 482.524 241.59 525.044 265.472 560.141C289.354 595.239 325.068 620.571 366.087 631.508C407.106 642.446 450.691 638.257 488.877 619.709C527.062 601.16 557.298 569.49 574.059 530.487C576.286 525.38 578.282 520.084 580.05 514.599C581.811 509.145 583.252 503.675 584.462 498.205C585.758 492.331 586.75 486.394 587.434 480.418C592.057 439.82 582.481 398.874 560.333 364.537C538.185 330.201 504.831 304.592 465.939 292.063Z" stroke="var(--color-primary-100)" stroke-width="2" stroke-miterlimit="10"/>
<g style="mix-blend-mode:soft-light">
<path d="M285.949 398.42C285.949 399.469 285.638 400.494 285.055 401.365C284.473 402.237 283.645 402.916 282.676 403.318C281.708 403.719 280.642 403.824 279.614 403.619C278.585 403.415 277.641 402.91 276.899 402.169C276.158 401.427 275.653 400.483 275.449 399.454C275.244 398.426 275.349 397.36 275.75 396.392C276.151 395.423 276.831 394.595 277.703 394.013C278.574 393.43 279.599 393.119 280.648 393.119C282.054 393.119 283.402 393.678 284.396 394.672C285.39 395.666 285.949 397.014 285.949 398.42Z" fill="white"/>
</g>
<g style="mix-blend-mode:soft-light">
<path d="M339.618 415.779C340.507 418.567 338.086 421.907 334.057 423.087C330.027 424.267 326.197 423.087 325.308 420.299C324.42 417.51 326.84 414.17 330.87 412.975C334.899 411.78 338.729 412.975 339.618 415.779Z" fill="white"/>
</g>
<g style="mix-blend-mode:soft-light">
<path d="M324.573 457.712C324.573 456.197 325.023 454.716 325.864 453.456C326.706 452.197 327.902 451.215 329.302 450.635C330.702 450.055 332.242 449.903 333.728 450.199C335.214 450.495 336.579 451.224 337.65 452.295C338.722 453.367 339.451 454.732 339.747 456.218C340.043 457.704 339.891 459.244 339.311 460.644C338.731 462.044 337.749 463.24 336.49 464.082C335.23 464.923 333.749 465.373 332.234 465.373C330.202 465.373 328.254 464.566 326.817 463.129C325.38 461.692 324.573 459.744 324.573 457.712Z" fill="white"/>
</g>
<g style="mix-blend-mode:soft-light">
<path d="M557.114 442.912C557.114 441.397 557.564 439.916 558.405 438.656C559.247 437.397 560.443 436.415 561.843 435.835C563.243 435.255 564.783 435.104 566.269 435.399C567.755 435.695 569.12 436.424 570.191 437.496C571.263 438.567 571.992 439.932 572.288 441.418C572.584 442.904 572.432 444.444 571.852 445.844C571.272 447.244 570.29 448.44 569.031 449.282C567.771 450.124 566.29 450.573 564.775 450.573C562.743 450.573 560.795 449.766 559.358 448.329C557.921 446.893 557.114 444.944 557.114 442.912Z" fill="white"/>
</g>
<g style="mix-blend-mode:soft-light">
<path d="M431.16 331.483C431.16 333.552 427.805 335.237 423.668 335.237C419.532 335.237 416.161 333.552 416.161 331.483C416.161 329.415 419.516 327.745 423.668 327.745C427.82 327.745 431.16 329.4 431.16 331.483Z" fill="white"/>
</g>
<g style="mix-blend-mode:soft-light">
<path d="M280.479 485.152C280.479 487.94 275.975 490.192 270.414 490.192C264.852 490.192 260.348 487.94 260.348 485.152C260.348 482.363 264.852 480.126 270.414 480.126C275.975 480.126 280.479 482.379 280.479 485.152Z" fill="white"/>
</g>
<path opacity="0.08" d="M358.203 628.709C400.046 642.27 445.445 639.715 485.503 621.545C525.56 603.376 557.388 570.901 574.748 530.486C576.97 525.339 578.992 520.053 580.739 514.599C582.485 509.144 583.941 503.675 585.151 498.205C585.412 497.041 585.642 495.861 585.871 494.697C584.482 497.536 583.022 500.325 581.49 503.062C564.282 533.851 538.992 559.355 508.35 576.821C477.708 594.288 442.877 603.054 407.617 602.172C372.357 601.291 338.008 590.795 308.276 571.819C278.545 552.843 254.561 526.108 238.914 494.498C244.995 525.485 259.266 554.277 280.245 577.88C301.223 601.483 328.143 619.034 358.203 628.709Z" fill="var(--color-primary-100)"/>
<path d="M451.231 383.85C498.389 400.381 520.727 465.051 520.727 465.051C520.727 465.051 469.05 496.398 421.892 479.866C374.734 463.335 349.976 405.177 349.976 405.177C349.976 405.177 404.074 367.319 451.231 383.85Z" fill="white"/>
<path d="M451.262 486.132C441.101 486.213 430.999 484.571 421.386 481.276C374.152 464.714 348.811 406.326 348.566 405.743C348.429 405.42 348.408 405.059 348.506 404.722C348.603 404.384 348.814 404.09 349.102 403.89C349.654 403.507 404.395 365.802 451.752 382.44C499.109 399.079 521.968 463.886 522.229 464.545C522.342 464.876 522.338 465.236 522.218 465.565C522.099 465.894 521.87 466.172 521.57 466.353C521.11 466.583 488.339 486.132 451.262 486.132ZM351.906 405.698C355.69 413.91 380.081 463.549 422.382 478.395C464.683 493.241 511.244 468.651 518.904 464.331C515.564 455.506 493.18 400.167 450.772 385.305C408.364 370.444 359.643 400.626 351.906 405.698Z" fill="var(--color-primary-100)"/>
<mask id="mask2_684_2523" style="mask-type:luminance" maskUnits="userSpaceOnUse" x="349" y="380" width="172" height="104">
<path d="M450.128 384.877C402.971 368.346 349.976 405.146 349.976 405.146C349.976 405.146 375.117 462.416 422.275 478.963C469.433 495.509 520.727 465.021 520.727 465.021C520.727 465.021 497.286 401.408 450.128 384.877Z" fill="white"/>
</mask>
<g mask="url(#mask2_684_2523)">
<path d="M415.198 451.676C395.28 436.861 393.013 410.999 407.828 390.316C422.643 369.633 450.727 364.868 470.644 379.683C490.561 394.498 494.56 423.302 479.729 444.031C464.899 464.76 435.115 466.507 415.198 451.676Z" fill="#FFD401"/>
<path d="M444.536 462.922C433.655 462.913 423.067 459.399 414.339 452.902C394.253 437.918 391.036 411.213 406.678 389.427C410.304 384.278 414.929 379.912 420.278 376.588C425.626 373.263 431.589 371.049 437.81 370.077C443.714 369.136 449.746 369.39 455.549 370.825C461.352 372.259 466.808 374.844 471.593 378.427C492.062 393.748 496.29 423.516 481 444.843C477.596 449.545 473.28 453.514 468.311 456.514C463.342 459.515 457.82 461.485 452.074 462.309C449.582 462.711 447.061 462.916 444.536 462.922ZM444.797 372.528C442.606 372.53 440.419 372.699 438.255 373.034C432.437 373.947 426.862 376.021 421.861 379.132C416.86 382.243 412.536 386.328 409.145 391.143C394.529 411.52 397.486 436.447 416.162 450.389C421.193 454.135 426.916 456.848 433.001 458.371C439.086 459.893 445.412 460.196 451.615 459.26C456.957 458.494 462.091 456.663 466.712 453.876C471.333 451.089 475.348 447.403 478.518 443.035C492.828 423.118 488.906 395.157 469.754 380.863C462.556 375.464 453.794 372.56 444.797 372.589V372.528Z" fill="var(--color-primary-100)"/>
<path d="M444.307 386.868C450.003 386.636 455.564 388.635 459.808 392.441C464.051 396.247 466.642 401.558 467.028 407.245C467.295 410.021 467.002 412.822 466.168 415.483C465.333 418.144 463.974 420.611 462.17 422.737C460.366 424.864 458.154 426.608 455.665 427.865C453.176 429.122 450.46 429.868 447.678 430.058C441.981 430.291 436.418 428.292 432.172 424.487C427.926 420.681 425.332 415.37 424.942 409.681C424.677 406.904 424.972 404.103 425.808 401.442C426.644 398.781 428.005 396.314 429.81 394.188C431.615 392.062 433.828 390.318 436.318 389.061C438.808 387.804 441.524 387.058 444.307 386.868Z" fill="var(--color-primary-100)"/>
<path d="M458.877 417.602C461.914 417.476 464.881 418.54 467.145 420.569C469.409 422.599 470.79 425.432 470.995 428.465C471.138 429.946 470.982 431.44 470.537 432.86C470.092 434.28 469.366 435.596 468.404 436.73C467.441 437.864 466.26 438.794 464.932 439.464C463.603 440.134 462.154 440.53 460.669 440.63C457.632 440.757 454.665 439.692 452.401 437.663C450.137 435.634 448.755 432.8 448.55 429.767C448.408 428.286 448.563 426.792 449.009 425.372C449.454 423.952 450.179 422.636 451.142 421.502C452.105 420.368 453.286 419.438 454.614 418.769C455.943 418.099 457.392 417.702 458.877 417.602Z" fill="white"/>
<path d="M460.026 442.177C456.72 442.125 453.552 440.839 451.146 438.571C448.739 436.304 447.267 433.218 447.019 429.92C446.866 428.198 447.058 426.463 447.584 424.816C448.11 423.169 448.96 421.644 450.083 420.33C451.167 419.082 452.49 418.064 453.974 417.338C455.459 416.612 457.074 416.191 458.724 416.101C462.165 415.948 465.531 417.143 468.105 419.432C470.68 421.72 472.261 424.922 472.513 428.358C472.667 430.077 472.476 431.811 471.949 433.455C471.423 435.1 470.573 436.623 469.449 437.933C468.366 439.183 467.043 440.203 465.559 440.932C464.074 441.661 462.459 442.084 460.808 442.177H460.026ZM458.969 419.119C457.725 419.191 456.508 419.511 455.389 420.061C454.271 420.611 453.274 421.38 452.458 422.321C451.591 423.32 450.933 424.483 450.525 425.741C450.117 427 449.967 428.327 450.083 429.645C450.264 432.274 451.46 434.73 453.418 436.494C455.377 438.258 457.944 439.191 460.578 439.098C461.822 439.036 463.042 438.721 464.161 438.173C465.28 437.625 466.277 436.856 467.089 435.911C467.955 434.911 468.611 433.748 469.019 432.49C469.427 431.232 469.578 429.905 469.464 428.587C469.29 425.954 468.097 423.492 466.138 421.724C464.178 419.956 461.607 419.022 458.969 419.119Z" fill="white"/>
<path d="M452.335 378.564C454.592 378.475 456.794 379.268 458.476 380.776C460.158 382.283 461.186 384.386 461.344 386.639C461.451 387.738 461.336 388.848 461.007 389.903C460.677 390.957 460.139 391.935 459.425 392.778C458.71 393.621 457.834 394.312 456.848 394.81C455.862 395.308 454.786 395.603 453.683 395.678C451.426 395.771 449.221 394.979 447.539 393.471C445.856 391.963 444.828 389.858 444.675 387.604C444.572 386.505 444.69 385.397 445.021 384.344C445.352 383.291 445.89 382.315 446.604 381.473C447.318 380.631 448.192 379.94 449.176 379.441C450.16 378.941 451.234 378.643 452.335 378.564Z" fill="white"/>
<path d="M453.193 397.225C450.634 397.182 448.184 396.184 446.324 394.426C444.464 392.668 443.329 390.278 443.142 387.726C443.027 386.393 443.182 385.051 443.598 383.78C444.014 382.508 444.682 381.333 445.563 380.326C446.398 379.357 447.42 378.566 448.568 378C449.716 377.434 450.965 377.105 452.243 377.032C454.9 376.922 457.496 377.85 459.481 379.62C461.465 381.39 462.683 383.864 462.876 386.516C462.991 387.851 462.836 389.196 462.42 390.47C462.004 391.744 461.336 392.921 460.455 393.931C459.615 394.898 458.59 395.686 457.44 396.249C456.29 396.812 455.038 397.139 453.76 397.21L453.193 397.225ZM452.427 380.096C451.55 380.143 450.692 380.366 449.902 380.75C449.113 381.134 448.408 381.672 447.831 382.333C447.22 383.038 446.757 383.858 446.47 384.745C446.183 385.632 446.078 386.568 446.161 387.496C446.283 389.35 447.122 391.082 448.501 392.326C449.88 393.571 451.689 394.229 453.545 394.161C454.424 394.116 455.284 393.894 456.075 393.507C456.865 393.12 457.568 392.576 458.142 391.909C458.752 391.207 459.214 390.39 459.501 389.505C459.788 388.621 459.894 387.687 459.811 386.761C459.701 384.904 458.864 383.164 457.483 381.917C456.102 380.671 454.286 380.017 452.427 380.096Z" fill="white"/>
<path d="M419.931 491.281C452.488 502.695 488.201 489.35 508.792 478.947C461.904 455.265 411.391 439.575 359.337 432.525C370.874 453.499 390.913 481.077 419.931 491.281Z" fill="var(--color-primary-300)"/>
<path d="M446.666 497.149C437.402 497.227 428.191 495.735 419.426 492.736C390.04 482.425 369.771 454.71 357.943 433.276C357.805 433.027 357.739 432.745 357.753 432.461C357.766 432.176 357.859 431.902 358.019 431.667C358.184 431.421 358.416 431.228 358.688 431.111C358.96 430.994 359.26 430.958 359.552 431.008C411.244 437.857 460.302 453.086 509.482 477.584C509.738 477.709 509.953 477.903 510.105 478.144C510.256 478.385 510.338 478.663 510.34 478.947C510.342 479.233 510.264 479.513 510.115 479.757C509.966 480.001 509.752 480.198 509.497 480.326C495.371 487.435 471.624 497.149 446.666 497.149ZM362.125 434.455C373.877 455.001 393.166 480.28 420.437 489.841C451.508 500.734 485.918 488.308 505.284 478.947C458.295 455.889 411.413 441.243 362.125 434.455Z" fill="var(--color-primary-100)"/>
<path d="M360.517 428.986C360.517 428.986 379.668 445.18 396.153 450.297Z" fill="var(--color-primary-300)"/>
<path d="M396.154 451.4C396.042 451.422 395.928 451.422 395.816 451.4C379.301 446.283 360.578 430.549 359.782 429.951C359.666 429.855 359.571 429.737 359.501 429.604C359.431 429.471 359.389 429.325 359.376 429.176C359.363 429.026 359.38 428.875 359.426 428.732C359.472 428.589 359.546 428.457 359.644 428.342C359.741 428.226 359.86 428.131 359.995 428.061C360.129 427.991 360.276 427.949 360.427 427.936C360.578 427.923 360.73 427.94 360.874 427.986C361.019 428.032 361.152 428.107 361.268 428.205C361.452 428.358 380.434 444.307 396.506 449.286C396.651 449.33 396.786 449.402 396.903 449.498C397.021 449.594 397.118 449.713 397.189 449.847C397.26 449.981 397.304 450.127 397.318 450.278C397.333 450.429 397.317 450.581 397.272 450.726C397.174 450.938 397.015 451.115 396.816 451.235C396.617 451.355 396.386 451.413 396.154 451.4Z" fill="var(--color-primary-100)"/>
<path d="M506.005 475.638C506.005 475.638 485.413 476.879 470.613 472.666Z" fill="var(--color-primary-300)"/>
<path d="M498.818 476.971C491.434 476.971 479.774 476.465 470.306 473.769C470.16 473.728 470.024 473.658 469.905 473.564C469.786 473.47 469.687 473.354 469.613 473.222C469.539 473.089 469.491 472.944 469.474 472.793C469.456 472.643 469.468 472.49 469.509 472.344C469.551 472.198 469.62 472.062 469.714 471.943C469.808 471.824 469.925 471.725 470.057 471.651C470.189 471.577 470.335 471.53 470.485 471.512C470.636 471.494 470.788 471.506 470.934 471.547C485.367 475.669 505.743 474.504 505.943 474.489C506.093 474.481 506.245 474.502 506.387 474.553C506.53 474.603 506.661 474.681 506.773 474.782C506.886 474.883 506.977 475.005 507.042 475.142C507.107 475.278 507.145 475.426 507.153 475.577C507.163 475.727 507.144 475.878 507.095 476.02C507.047 476.163 506.97 476.294 506.87 476.407C506.771 476.52 506.649 476.611 506.514 476.677C506.378 476.742 506.231 476.779 506.08 476.787C505.774 476.803 502.97 476.971 498.818 476.971Z" fill="var(--color-primary-100)"/>
</g>
<path d="M585.09 496.765C583.938 504.659 581.807 512.379 578.747 519.747C603.261 536.063 619.225 548.121 616.957 555.077C614.69 562.032 597.04 561.803 569.171 555.781C529.092 547.11 467.854 526.442 400.641 497.776C333.429 469.111 275.316 438.883 240.078 415.411C215.565 399.094 202.098 386.041 204.365 379.101C206.633 372.16 226.473 374.903 254.342 380.924C257.023 374.566 262.692 366.706 265.863 360.792C178.963 332.832 113.497 322.138 108.288 338.117C103.079 354.097 154.48 391.97 236.172 435.911C281.583 460.347 336.309 486.623 395.969 512.071C455.628 537.519 512.055 558.646 560.362 574.197C647.262 602.158 707.795 612.024 713.02 596.045C718.244 580.065 666.781 540.706 585.09 496.765Z" fill="white"/>
<path d="M585.089 496.765C583.711 504.61 581.587 512.306 578.746 519.747C603.26 536.063 619.224 548.121 616.957 555.077C614.689 562.032 597.04 561.803 569.171 555.782C529.091 547.11 467.854 526.442 400.641 497.777C333.428 469.111 275.316 438.883 240.078 415.411C215.564 399.095 202.097 386.041 204.365 379.101C206.632 372.16 226.473 374.903 254.342 380.924C257.023 374.566 262.691 366.706 265.863 360.792C178.963 332.832 92.5987 307.384 96.3983 355.92C97.7159 372.666 142.591 409.773 224.282 453.714C269.693 478.15 324.419 504.426 384.079 529.874C443.739 555.322 500.166 576.449 548.472 592C635.373 619.961 702.402 627.728 714.934 607.459C732.86 578.548 666.78 540.706 585.089 496.765Z" fill="white"/>
<path d="M585.089 496.765C583.952 504.662 581.821 512.384 578.746 519.747C603.26 536.063 619.224 548.121 616.957 555.077C614.689 562.032 597.04 561.803 569.171 555.782C529.091 547.11 467.854 526.442 400.641 497.777C333.428 469.111 275.316 438.883 240.078 415.411C215.564 399.095 202.097 386.041 204.365 379.101C206.632 372.16 226.473 374.903 254.342 380.924C257.023 374.566 262.691 366.706 265.863 360.792C178.963 332.832 92.5987 307.384 96.3983 355.92C97.7159 372.666 142.591 409.773 224.282 453.714C269.693 478.15 324.419 504.426 384.079 529.874C443.739 555.322 500.166 576.449 548.472 592C635.373 619.961 702.402 627.728 714.934 607.459C732.86 578.548 666.78 540.706 585.089 496.765Z" fill="white"/>
<path d="M678.333 620.283C648.304 620.283 603.031 611.197 548.013 593.486C497.99 577.384 441.104 555.889 383.497 531.314C325.891 506.739 270.598 480.387 223.578 455.031C146.881 413.787 96.4141 374.918 94.882 356.012C94.116 346.314 96.8431 338.96 102.956 334.119C125.738 316.117 190.423 334.869 266.323 359.306C266.537 359.376 266.733 359.491 266.897 359.645C267.061 359.798 267.189 359.986 267.273 360.195C267.366 360.396 267.415 360.616 267.415 360.838C267.415 361.061 267.366 361.28 267.273 361.482C266.017 363.811 264.439 366.369 262.753 369.142C260.151 373.111 257.832 377.258 255.813 381.552C255.674 381.881 255.426 382.151 255.11 382.316C254.794 382.481 254.43 382.53 254.082 382.456C240.293 379.484 208.119 372.528 205.882 379.606C204.978 382.364 206.587 391.281 240.982 414.17C277.752 438.684 336.217 468.636 401.3 496.398C466.383 524.159 527.698 545.256 569.539 554.311C609.511 562.952 614.858 556.731 615.502 554.632C617.785 547.6 591.846 530.333 577.904 521.049C577.607 520.852 577.388 520.558 577.284 520.216C577.181 519.875 577.2 519.509 577.337 519.18C580.36 511.924 582.455 504.316 583.573 496.536C583.61 496.293 583.705 496.064 583.849 495.866C583.994 495.668 584.183 495.507 584.402 495.398C584.621 495.288 584.864 495.233 585.108 495.236C585.353 495.24 585.594 495.302 585.81 495.417C656.669 533.52 711.441 564.821 718.642 591.663C719.439 594.438 719.638 597.351 719.226 600.208C718.814 603.066 717.801 605.803 716.252 608.24C711.288 616.33 698.112 620.283 678.333 620.283ZM130.748 330.12C119.457 330.12 110.586 332.066 104.871 336.585C99.5242 340.814 97.2108 347.095 97.9462 355.828C99.0952 370.49 138.838 406.035 225.018 452.35C271.976 477.614 327.193 503.92 384.708 528.449C442.222 552.978 499.017 574.412 548.963 590.529C637.441 619.011 702.096 625.338 713.648 606.632C714.99 604.548 715.866 602.199 716.218 599.745C716.57 597.291 716.388 594.791 715.685 592.414C708.883 567.042 653.207 535.129 586.27 499.094C585.136 505.978 583.256 512.718 580.662 519.195C607.106 536.845 620.925 547.922 618.428 555.582C615.931 563.243 599.231 563.871 568.865 557.298C526.84 548.213 465.311 527.055 400.059 499.217C334.807 471.379 276.205 441.319 239.19 416.714C212.623 399.033 200.397 386.225 202.879 378.656C205.468 370.69 224.114 372.911 253.438 379.193C255.427 375.181 257.647 371.288 260.087 367.534C261.359 365.481 262.569 363.519 263.611 361.712C211.137 344.843 161.788 330.12 130.748 330.12Z" fill="var(--color-primary-100)"/>
<path d="M585.09 496.765C583.915 504.654 581.785 512.372 578.747 519.747C603.261 536.063 619.225 548.121 616.958 555.077C614.69 562.032 597.04 561.803 569.172 555.781C529.092 547.11 467.854 526.442 400.642 497.776C333.429 469.111 275.317 438.883 240.079 415.411C215.565 399.094 202.098 386.041 204.365 379.101C206.633 372.16 226.474 374.903 254.342 380.924C257.023 374.566 262.692 366.706 265.864 360.792C178.963 332.832 113.145 317.511 107.92 333.475C102.696 349.439 154.481 391.97 236.172 435.911C281.583 460.347 336.309 486.623 395.969 512.071C455.628 537.519 512.055 558.646 560.362 574.197C647.262 602.158 712.468 610.569 717.677 594.605C722.886 578.64 666.781 540.706 585.09 496.765Z" fill="var(--color-primary-300)"/>
<path d="M693.118 603.797C685.226 603.728 677.345 603.165 669.524 602.112C640.965 598.419 602.112 588.92 560.025 575.377C510.018 559.213 453.146 537.764 395.54 513.158C337.933 488.553 282.64 462.247 235.635 436.952C154.159 393.134 101.21 350.45 106.848 333.153C111.751 318.093 163.903 326.795 266.185 359.735L267.488 360.149L266.844 361.374C265.603 363.688 264.01 366.246 262.34 368.943C259.719 372.921 257.389 377.084 255.369 381.399L255.001 382.287L254.066 382.073C240.278 379.085 207.843 372.083 205.423 379.483C204.488 382.333 206.066 391.449 240.661 414.492C277.431 439.005 335.941 468.988 401.04 496.75C466.139 524.511 527.545 545.639 569.417 554.617C608.592 563.089 614.951 557.482 615.854 554.617C618.061 547.891 597.469 533.535 578.104 520.604L577.338 520.099L577.675 519.241C580.694 511.939 582.799 504.292 583.941 496.474L584.186 494.85L585.626 495.631C649.867 530.18 725.123 575.453 718.78 594.865C716.605 601.667 705.88 603.797 693.118 603.797ZM125.325 328.158C114.6 328.158 110.096 330.594 109.039 333.858C104.672 347.218 147.954 387.19 236.723 434.976C283.666 460.225 338.898 486.546 396.444 511.09C453.989 535.634 510.784 557.053 560.73 573.17C657.435 604.302 712.407 607.367 716.605 594.329C721.079 580.632 673.476 545.761 585.979 498.588C584.804 505.71 582.851 512.682 580.157 519.379C606.616 537.028 620.481 548.044 618.045 555.505C615.609 562.967 599.078 563.488 568.927 557.037C526.917 547.952 465.434 526.794 400.197 498.971C334.961 471.148 276.389 441.089 239.45 416.514C213.037 398.926 200.872 386.271 203.293 378.871C205.806 371.21 224.421 373.447 253.683 379.744C255.693 375.596 257.955 371.574 260.455 367.702C261.834 365.495 263.136 363.397 264.224 361.466C185.168 336.11 144.828 328.158 125.325 328.158Z" fill="var(--color-primary-100)"/>
<g style="mix-blend-mode:soft-light">
<path d="M693.178 604.257C662.782 604.257 610.522 592 559.887 575.683C509.879 559.581 452.977 538.086 395.371 513.511C337.764 488.936 282.455 462.584 235.436 437.289C153.806 393.38 100.765 350.512 106.464 333.031C109.651 323.271 129.691 315.381 266.323 359.367C266.536 359.437 266.732 359.552 266.896 359.706C267.061 359.859 267.189 360.047 267.272 360.256C267.366 360.457 267.414 360.677 267.414 360.899C267.414 361.122 267.366 361.341 267.272 361.543C266.016 363.872 264.438 366.43 262.753 369.203C260.151 373.172 257.832 377.319 255.812 381.613C255.674 381.942 255.425 382.212 255.109 382.377C254.793 382.542 254.43 382.591 254.081 382.517C240.292 379.545 208.118 372.589 205.882 379.667C204.978 382.425 206.586 391.342 240.982 414.231C277.752 438.745 336.217 468.697 401.3 496.459C466.383 524.22 527.697 545.332 569.539 554.372C609.511 563.013 614.858 556.792 615.501 554.693C617.784 547.661 591.846 530.395 577.904 521.11C577.614 520.917 577.399 520.632 577.293 520.301C577.187 519.969 577.197 519.612 577.322 519.287C580.316 512.004 582.415 504.385 583.573 496.597C583.61 496.354 583.705 496.125 583.849 495.927C583.993 495.729 584.183 495.568 584.402 495.459C584.621 495.349 584.863 495.294 585.108 495.297C585.353 495.301 585.593 495.363 585.809 495.478C650.157 530.103 725.567 575.499 719.101 595.171C717.018 601.514 707.565 604.257 693.178 604.257ZM125.263 328.48C114.737 328.48 110.432 330.84 109.406 334.026C105.085 347.233 148.306 386.991 236.906 434.639C283.834 459.888 339.051 486.209 396.581 510.738C454.111 535.267 510.921 556.701 560.836 572.818C656.286 603.46 712.146 606.769 716.236 594.267C718.32 587.879 709.756 565.847 586.269 499.278C585.098 506.089 583.218 512.759 580.662 519.18C607.121 536.845 620.956 547.906 618.458 555.582C615.961 563.258 599.261 563.871 568.895 557.298C526.87 548.213 465.341 527.055 400.089 499.216C334.838 471.378 276.235 441.319 239.22 416.713C212.653 399.033 200.427 386.225 202.909 378.656C205.499 370.689 224.144 372.911 253.468 379.192C255.457 375.181 257.677 371.288 260.118 367.533C261.389 365.48 262.6 363.519 263.641 361.711C184.662 336.371 144.537 328.434 125.263 328.434V328.48Z" fill="var(--color-primary-100)"/>
</g>
<path d="M669.845 590.943C627.437 590.943 497.745 548.044 392.537 503.507C329.568 476.848 265.373 444.521 216.454 414.844C188.049 397.608 141.029 366.737 145.273 353.561C149.471 340.645 207.092 352.887 255.169 367.35C255.363 367.408 255.542 367.504 255.698 367.632C255.855 367.759 255.984 367.917 256.079 368.095C256.175 368.272 256.234 368.467 256.254 368.668C256.274 368.869 256.254 369.072 256.196 369.265C256.138 369.458 256.042 369.638 255.914 369.794C255.786 369.95 255.629 370.079 255.451 370.175C255.273 370.27 255.078 370.329 254.878 370.349C254.677 370.369 254.474 370.35 254.281 370.291C190.852 351.278 150.528 347.31 148.199 354.557C146.284 360.455 163.428 379.07 218.047 412.24C266.89 441.825 330.931 474.075 393.747 500.687C522.32 555.153 658.385 596.045 679.268 586.485C679.69 586.337 680.078 586.105 680.407 585.802C680.737 585.499 681.001 585.131 681.183 584.723C683.404 577.844 642.252 544.26 587.817 512.868C587.467 512.665 587.21 512.333 587.104 511.943C586.998 511.552 587.05 511.136 587.25 510.784C587.35 510.608 587.484 510.454 587.644 510.331C587.804 510.207 587.987 510.116 588.182 510.064C588.377 510.011 588.58 509.997 588.781 510.024C588.981 510.05 589.174 510.116 589.349 510.217C612.176 523.347 634.177 537.862 655.229 553.683C686.683 577.828 684.768 583.727 684.14 585.657C683.839 586.479 683.367 587.226 682.754 587.85C682.141 588.474 681.401 588.959 680.585 589.273C677.155 590.552 673.501 591.12 669.845 590.943Z" fill="white"/>
<path d="M233.401 729.801H187.181V722.147C187.181 713.998 186.647 708.667 185.58 706.153C184.512 703.64 182.224 702.383 178.715 702.383C175.893 702.383 173.758 703.488 172.309 705.696C170.936 707.829 170.249 711.066 170.249 715.407C170.249 722.642 171.698 727.707 174.597 730.601C177.419 733.495 185.732 739.131 199.537 747.509C211.283 754.592 219.291 760.037 223.562 763.845C227.833 767.577 231.418 772.908 234.316 779.839C237.291 786.693 238.778 795.261 238.778 805.543C238.778 821.994 234.812 834.903 226.88 844.271C218.948 853.638 207.05 859.427 191.185 861.635V879H169.906V861.064C157.55 859.846 146.758 855.124 137.529 846.898C128.301 838.597 123.686 824.164 123.686 803.601V794.576H169.906V805.886C169.906 818.3 170.364 826.03 171.279 829.077C172.27 832.047 174.597 833.532 178.258 833.532C181.385 833.532 183.711 832.504 185.236 830.448C186.762 828.315 187.524 825.192 187.524 821.08C187.524 810.722 186.8 803.334 185.351 798.917C183.902 794.424 178.944 789.549 170.478 784.294C156.368 775.46 146.758 768.986 141.648 764.873C136.614 760.684 132.229 754.82 128.491 747.28C124.83 739.74 123 731.21 123 721.69C123 707.905 126.89 697.09 134.669 689.246C142.525 681.401 154.271 676.565 169.906 674.737V660H191.185V674.737C205.448 676.565 216.126 681.363 223.219 689.131C230.312 696.824 233.858 707.486 233.858 721.119C233.858 723.023 233.706 725.917 233.401 729.801Z" fill="var(--color-primary-100)"/>
<path d="M254.795 675.879H303.302C316.421 675.879 326.488 676.908 333.505 678.964C340.598 681.02 345.899 683.991 349.408 687.875C352.992 691.759 355.395 696.481 356.615 702.041C357.912 707.524 358.56 716.054 358.56 727.631V743.739C358.56 755.544 357.34 764.15 354.899 769.557C352.458 774.965 347.958 779.115 341.399 782.009C334.916 784.903 326.412 786.351 315.887 786.351H302.959V860.836H254.795V675.879ZM302.959 707.524V754.592C304.332 754.668 305.514 754.706 306.506 754.706C310.929 754.706 313.98 753.64 315.658 751.507C317.412 749.298 318.289 744.767 318.289 737.912V722.718C318.289 716.397 317.298 712.284 315.315 710.38C313.332 708.476 309.213 707.524 302.959 707.524Z" fill="var(--color-primary-100)"/>
<path d="M372.403 675.879H452.715V712.894H420.567V747.966H450.656V783.152H420.567V823.822H455.919V860.836H372.403V675.879Z" fill="var(--color-primary-100)"/>
<path d="M469.876 675.879H518.384C531.502 675.879 541.57 676.908 548.587 678.964C555.68 681.02 560.981 683.991 564.489 687.875C568.074 691.759 570.476 696.481 571.696 702.041C572.993 707.524 573.641 716.054 573.641 727.631V743.739C573.641 755.544 572.421 764.15 569.98 769.557C567.54 774.965 563.04 779.115 556.481 782.009C549.998 784.903 541.494 786.351 530.968 786.351H518.041V860.836H469.876V675.879ZM518.041 707.524V754.592C519.413 754.668 520.596 754.706 521.587 754.706C526.011 754.706 529.062 753.64 530.739 751.507C532.494 749.298 533.371 744.767 533.371 737.912V722.718C533.371 716.397 532.379 712.284 530.396 710.38C528.413 708.476 524.295 707.524 518.041 707.524Z" fill="var(--color-primary-100)"/>
<path d="M587.484 675.879H667.797V712.894H635.649V747.966H665.737V783.152H635.649V823.822H671V860.836H587.484V675.879Z" fill="var(--color-primary-100)"/>
</g>
<defs>
<clipPath id="clip0_684_2523">
<rect width="740" height="880" fill="white"/>
</clipPath>
</defs>
</svg>
