<svg width="543" height="543" viewBox="0 0 543 543" fill="none" xmlns="http://www.w3.org/2000/svg">
<g clip-path="url(#clip0_693_4379)">
<path d="M406.997 406.997C481.923 332.071 481.923 210.591 406.997 135.665C332.071 60.7395 210.591 60.7396 135.665 135.666C60.7395 210.592 60.7395 332.071 135.665 406.997C210.591 481.923 332.071 481.923 406.997 406.997Z" fill="url(#paint0_radial_693_4379)" stroke="url(#paint1_linear_693_4379)" stroke-width="4.81" stroke-miterlimit="10"/>
<path d="M357.782 287.321L335.352 232.001C334.744 230.508 333.638 229.27 332.222 228.497C330.807 227.725 329.167 227.465 327.582 227.761L300.402 232.931L275.822 172.301C272.871 165.078 267.181 159.317 259.995 156.276C252.809 153.234 244.712 153.161 237.472 156.071C230.249 159.022 224.488 164.713 221.446 171.898C218.405 179.084 218.332 187.182 221.242 194.421L243.672 249.751C244.282 251.243 245.389 252.479 246.804 253.249C248.22 254.02 249.858 254.278 251.442 253.981L278.622 248.821L303.202 309.451C306.332 283.241 337.052 270.691 357.632 287.211L357.782 287.321Z" fill="#2A2B2D"/>
<path d="M421.131 219.771C420.288 219.096 419.288 218.645 418.223 218.458C417.159 218.271 416.065 218.354 415.042 218.701C414.061 219.057 413.173 219.628 412.442 220.371C411.742 221.106 411.221 221.992 410.922 222.961C410.632 223.902 410.591 224.9 410.802 225.861L410.971 226.571L411.201 227.371L411.682 228.971L412.682 232.191C412.972 233.271 413.211 234.351 413.491 235.441C419.915 262.039 417.199 290.025 405.781 314.891C404.781 316.891 403.901 319.041 402.781 321.031L401.182 324.031C400.662 325.031 400.041 326.031 399.481 327.031C398.921 328.031 398.331 329.031 397.721 329.971L395.841 332.821C394.611 334.751 393.221 336.561 391.841 338.411C375.252 360.631 351.797 376.757 325.111 384.291C307.403 389.334 288.806 390.45 270.621 387.561C261.577 386.13 252.719 383.699 244.211 380.311C235.748 376.972 227.673 372.721 220.131 367.631C197.392 352.422 180.39 330.045 171.831 304.061L171.591 303.361C171.507 303.146 171.41 302.936 171.302 302.731C171.089 302.324 170.827 301.944 170.521 301.601C169.909 300.895 169.123 300.361 168.241 300.051C166.315 299.344 164.211 299.273 162.241 299.851C160.21 300.492 158.38 301.65 156.932 303.211C155.42 304.811 154.107 306.587 153.021 308.502C153.886 306.438 155.019 304.498 156.391 302.731C157.794 300.888 159.651 299.44 161.781 298.531C164.015 297.661 166.467 297.528 168.781 298.151C170.03 298.477 171.176 299.113 172.111 300.002C172.581 300.449 172.997 300.949 173.351 301.491C173.521 301.761 173.681 302.051 173.831 302.341L174.201 303.171C177.596 311.217 181.812 318.891 186.781 326.071C191.679 333.224 197.32 339.838 203.611 345.801L204.771 346.931L205.991 347.991L208.411 350.141C210.031 351.561 211.751 352.871 213.411 354.241C215.071 355.611 216.871 356.811 218.621 358.051C220.371 359.291 222.181 360.481 224.031 361.571C238.67 370.592 255.009 376.501 272.031 378.931C288.973 381.306 306.224 380.121 322.682 375.451C330.895 373.145 338.84 369.971 346.381 365.981C365.412 355.829 381.492 340.925 393.057 322.718C404.622 304.512 411.279 283.622 412.381 262.081C412.821 253.36 412.358 244.617 411.001 235.991C410.821 234.901 410.681 233.821 410.481 232.741L409.831 229.511L409.501 227.901L409.331 227.081L409.192 226.171C409.035 224.939 409.204 223.688 409.682 222.541C410.145 221.426 410.864 220.436 411.781 219.651C412.69 218.898 413.756 218.358 414.901 218.071C415.999 217.804 417.146 217.82 418.236 218.117C419.326 218.414 420.322 218.984 421.131 219.771Z" fill="#2A2B2D"/>
<path d="M318.622 395.841C323.648 395.764 328.662 395.317 333.622 394.501C338.444 393.7 343.179 392.441 347.762 390.741C350.029 389.857 352.249 388.855 354.412 387.741C356.582 386.641 358.662 385.381 360.732 384.061C364.874 381.236 368.792 378.097 372.452 374.671C370.112 379.341 366.881 383.51 362.942 386.941C360.941 388.667 358.797 390.219 356.532 391.581C349.683 395.617 341.919 397.843 333.972 398.051C331.365 398.135 328.756 397.998 326.172 397.641C323.594 397.335 321.061 396.731 318.622 395.841Z" fill="#2A2B2D"/>
<path d="M359.052 332.561C353.193 332.642 347.354 333.245 341.602 334.361C340.192 334.641 338.802 334.961 337.412 335.311L337.152 335.371C337.052 335.371 337.242 335.371 337.302 335.371L337.542 335.261C337.713 335.161 337.86 335.025 337.972 334.861C337.972 334.771 337.972 334.982 337.912 335.222C337.834 335.845 337.8 336.473 337.812 337.101C337.812 338.511 337.892 340.002 337.812 341.672C337.787 342.701 337.577 343.717 337.192 344.672C337.018 345.069 336.778 345.435 336.482 345.752C336.064 346.2 335.532 346.525 334.942 346.692C334.144 346.889 333.306 346.847 332.532 346.571C331.649 346.25 330.809 345.82 330.032 345.291C329.342 344.841 328.712 344.392 328.102 343.942C326.882 343.062 325.732 342.162 324.632 341.452C324.188 341.156 323.711 340.911 323.212 340.722C323.062 340.672 323.032 340.722 323.312 340.652C323.381 340.636 323.446 340.605 323.502 340.561L323.272 340.692L322.792 340.932C321.542 341.592 320.292 342.291 319.072 343.031C316.615 344.536 314.248 346.182 311.982 347.962C309.692 349.752 307.502 351.732 305.252 353.752C306.598 351.021 308.277 348.468 310.252 346.152C312.219 343.79 314.439 341.65 316.872 339.771C318.102 338.841 319.372 337.962 320.692 337.152L321.182 336.851L321.432 336.702C321.659 336.579 321.896 336.479 322.142 336.402C322.89 336.188 323.684 336.188 324.432 336.402C325.346 336.673 326.217 337.07 327.022 337.581C328.442 338.431 329.652 339.342 330.832 340.192C331.422 340.612 332.002 341.021 332.562 341.371C333.012 341.678 333.495 341.932 334.002 342.131C334.142 342.201 334.202 342.132 333.772 342.202C333.539 342.268 333.328 342.396 333.162 342.571C333.052 342.691 333.042 342.742 333.052 342.722C333.19 342.277 333.267 341.816 333.282 341.351C333.372 340.051 333.342 338.571 333.382 337.021C333.398 336.167 333.471 335.316 333.602 334.472C333.7 333.856 333.899 333.261 334.192 332.712C334.47 332.213 334.873 331.796 335.362 331.502C335.517 331.409 335.681 331.332 335.852 331.271C335.989 331.223 336.13 331.183 336.272 331.152H336.552C337.312 331.022 338.072 330.881 338.832 330.781L341.112 330.531C344.158 330.264 347.223 330.298 350.262 330.631C353.263 330.89 356.218 331.539 359.052 332.561Z" fill="#2A2B2D"/>
<path d="M203.021 108.172C210.721 104.199 218.837 101.093 227.221 98.9115C235.626 96.6723 244.208 95.1633 252.871 94.4015C270.291 92.8383 287.85 94.2586 304.792 98.6015C305.852 98.8715 306.921 99.1015 307.961 99.4215L311.101 100.422C313.171 101.092 315.291 101.632 317.331 102.422L323.481 104.652C325.481 105.462 327.481 106.332 329.481 107.192L332.481 108.501L335.401 109.951C337.401 110.951 339.321 111.872 341.241 112.882L346.932 116.101C347.862 116.651 348.821 117.171 349.741 117.751L352.481 119.522C367.088 128.866 380.356 140.153 391.922 153.071C379.141 141.64 365.272 131.488 350.511 122.762L347.761 121.142C346.831 120.612 345.872 120.142 344.932 119.652L339.292 116.652C337.382 115.722 335.441 114.851 333.521 113.951L330.631 112.611L327.631 111.412C319.818 108.096 311.757 105.398 303.521 103.341C301.461 102.851 299.421 102.261 297.351 101.841L291.111 100.601C289.021 100.241 286.921 99.9615 284.821 99.6015L283.251 99.3715L281.672 99.2115L278.501 98.8615C270.05 98.0098 261.547 97.7825 253.062 98.1816C244.54 98.5676 236.058 99.5702 227.682 101.182C219.274 102.789 211.022 105.127 203.021 108.172Z" fill="white"/>
<path d="M101.752 225.711C100.752 232.521 99.8624 239.231 99.1924 245.951C98.5224 252.671 98.0924 259.361 97.9424 266.061C97.8092 272.737 98.0596 279.414 98.6924 286.061C98.8924 287.721 99.0923 289.381 99.2623 291.061C99.4323 292.741 99.8122 294.371 100.072 296.061L100.452 298.571C100.592 299.411 100.852 300.221 101.012 301.051C101.382 302.711 101.752 304.381 102.012 306.051C101.202 304.541 100.442 303.051 99.6823 301.441C99.3123 300.661 98.9123 299.881 98.6023 299.071L97.7123 296.631L96.8723 294.171C96.6023 293.351 96.2823 292.531 96.0923 291.681C95.6623 290.011 95.2623 288.311 94.8723 286.621C93.4998 279.803 92.8862 272.854 93.0423 265.901C93.1991 258.974 93.9822 252.076 95.3823 245.291C96.7506 238.542 98.8879 231.973 101.752 225.711Z" fill="white"/>
<path d="M103.972 324.511C105.972 328.451 107.642 332.421 109.282 336.381L114.012 348.241C114.762 350.241 115.602 352.161 116.362 354.141C117.122 356.121 117.962 358.051 118.822 359.971C120.472 363.91 122.383 367.735 124.542 371.421C123.632 370.811 122.752 370.131 121.872 369.421C120.992 368.711 120.302 367.861 119.502 367.071C118.749 366.253 118.041 365.396 117.382 364.501C116.688 363.63 116.047 362.718 115.462 361.771C113.062 358.072 111.051 354.134 109.462 350.021C107.852 345.958 106.565 341.775 105.612 337.511C104.614 333.246 104.064 328.889 103.972 324.511Z" fill="white"/>
<path d="M409.132 368.532C410.942 366.092 412.572 363.532 414.132 360.962C415.692 358.392 417.132 355.752 418.502 353.072C421.255 347.746 423.709 342.271 425.852 336.672C430.102 325.495 433.309 313.949 435.432 302.182C435.922 299.242 436.432 296.302 436.822 293.332C437.212 290.362 437.542 287.402 437.892 284.432C438.432 278.432 438.832 272.492 438.962 266.432C439.174 254.363 438.774 242.29 437.762 230.262C440.683 242.105 442.359 254.22 442.762 266.412C443.002 272.529 442.912 278.654 442.492 284.762C442.042 290.876 441.281 296.964 440.212 303.002C438.048 315.102 434.397 326.887 429.342 338.092C428.062 340.872 426.722 343.632 425.262 346.322C423.802 349.012 422.262 351.652 420.562 354.212C418.862 356.772 417.142 359.282 415.242 361.672C413.376 364.105 411.334 366.398 409.132 368.532Z" fill="white"/>
</g>
<defs>
<radialGradient id="paint0_radial_693_4379" cx="0" cy="0" r="1" gradientUnits="userSpaceOnUse" gradientTransform="translate(263.918 267.978) rotate(163.106) scale(191.468)">
<stop stop-color="#DC6C58"/>
<stop offset="0.12" stop-color="#BA707D"/>
<stop offset="0.32" stop-color="#8376B9"/>
<stop offset="0.55" stop-color="#DCAF6C"/>
<stop offset="0.71" stop-color="#DC6C58"/>
<stop offset="0.77" stop-color="#DC9280"/>
<stop offset="0.9" stop-color="#6E5BDC"/>
</radialGradient>
<linearGradient id="paint1_linear_693_4379" x1="451.539" y1="198.23" x2="88.8179" y2="335.624" gradientUnits="userSpaceOnUse">
<stop stop-color="#DCAF6C"/>
<stop offset="0.05" stop-color="#DCAF6C"/>
<stop offset="0.16" stop-color="#847CE2"/>
<stop offset="0.29" stop-color="#DC6C58"/>
<stop offset="0.39" stop-color="#DC6C58"/>
<stop offset="0.53" stop-color="#DCAF6C"/>
<stop offset="0.71" stop-color="#DC6C58"/>
<stop offset="0.84" stop-color="#DC9280"/>
<stop offset="0.9" stop-color="#6E5BDC"/>
<stop offset="0.99" stop-color="#DC9280"/>
</linearGradient>
<clipPath id="clip0_693_4379">
<rect width="542.662" height="542.662" fill="white"/>
</clipPath>
</defs>
</svg>
