<svg width="1148" height="1148" viewBox="0 0 1148 1148" fill="none" xmlns="http://www.w3.org/2000/svg">
<g clip-path="url(#clip0_693_4378)">
<path d="M622.51 83.0603C622.93 99.0603 592.86 168.74 582.51 235.59C571.8 304.83 580.51 371.04 563.95 371.47C546.95 371.91 546.27 305.05 526.68 236.47C508.81 173.9 471.18 109.92 470.77 94.3703C469.92 61.7903 510.63 1.16029 543.21 0.31029C575.79 -0.53971 621.66 50.4803 622.51 83.0603Z" fill="url(#paint0_radial_693_4378)"/>
<path d="M559.621 298.12C557.161 283.46 555.341 268.74 553.731 254.01C552.121 239.28 550.731 224.53 549.621 209.76C548.511 194.99 547.621 180.21 546.911 165.4C546.201 150.59 545.801 135.78 546.001 120.91C548.461 135.57 550.291 150.29 551.891 165.02C553.491 179.75 554.891 194.5 555.991 209.27C557.091 224.04 557.991 238.83 558.691 253.63C559.391 268.43 559.801 283.25 559.621 298.12Z" fill="#2D2D2D"/>
<path d="M525.01 1064.39C524.59 1048.39 554.67 978.71 565.01 911.86C575.72 842.62 567.01 776.42 583.57 775.98C600.57 775.54 601.26 842.41 620.84 910.98C638.71 973.55 676.34 1037.54 676.75 1053.08C677.6 1085.66 636.89 1146.29 604.31 1147.14C571.73 1147.99 525.86 1096.97 525.01 1064.39Z" fill="url(#paint1_radial_693_4378)"/>
<path d="M587.9 849.33C590.36 863.99 592.18 878.71 593.79 893.44C595.4 908.17 596.79 922.92 597.9 937.69C599.01 952.46 599.9 967.25 600.61 982.05C601.32 996.85 601.72 1011.67 601.53 1026.54C599.06 1011.88 597.23 997.16 595.63 982.43C594.03 967.7 592.63 952.95 591.53 938.18C590.43 923.41 589.53 908.63 588.83 893.82C588.13 879.01 587.72 864.2 587.9 849.33Z" fill="#2D2D2D"/>
<path d="M83.0901 524.97C99.0901 524.55 168.77 554.63 235.63 564.97C304.86 575.68 371.07 566.97 371.5 583.53C371.95 600.53 305.08 601.21 236.5 620.8C173.94 638.72 109.96 676.31 94.4201 676.72C61.8401 677.57 1.2101 636.87 0.360099 604.29C-0.489901 571.71 50.5101 525.82 83.0901 524.97Z" fill="url(#paint2_radial_693_4378)"/>
<path d="M298.21 587.87C283.54 590.32 268.83 592.15 254.09 593.75C239.35 595.35 224.61 596.75 209.85 597.87C195.09 598.99 180.29 599.87 165.49 600.57C150.69 601.27 135.86 601.68 120.99 601.49C135.66 599.03 150.37 597.2 165.11 595.6C179.85 594 194.59 592.6 209.36 591.49C224.13 590.38 238.91 589.49 253.71 588.8C268.51 588.11 283.29 587.72 298.21 587.87Z" fill="#2D2D2D"/>
<path d="M1064.43 622.48C1048.43 622.9 978.75 592.82 911.89 582.48C842.66 571.76 776.45 580.48 776.02 563.91C775.57 546.91 842.44 546.23 911.02 526.65C973.59 508.77 1037.57 471.15 1053.12 470.74C1085.69 469.89 1146.32 510.6 1147.18 543.18C1148.04 575.76 1097.01 621.63 1064.43 622.48Z" fill="url(#paint3_radial_693_4378)"/>
<path d="M849.36 559.58C864.03 557.13 878.74 555.3 893.48 553.7C908.22 552.1 922.96 550.7 937.73 549.59C952.5 548.48 967.28 547.59 982.08 546.88C996.88 546.17 1011.71 545.77 1026.58 545.96C1011.91 548.42 997.2 550.25 982.47 551.85C967.74 553.45 952.98 554.85 938.22 555.96C923.46 557.07 908.66 557.96 893.86 558.66C879.06 559.36 864.21 559.77 849.36 559.58Z" fill="#2D2D2D"/>
<path d="M261.28 192.3C272.89 203.3 300.89 273.86 340.85 328.44C382.23 384.97 435.22 425.62 423.8 437.65C412.07 450.01 364.33 403.18 302 368.55C245.12 336.94 173.27 318.31 162 307.55C138.36 285.12 124.27 213.46 146.71 189.82C169.15 166.18 237.64 169.86 261.28 192.3Z" fill="url(#paint4_radial_693_4378)"/>
<path d="M368.88 388.85C356.77 380.21 345.08 371.1 333.53 361.85C321.98 352.6 310.53 343.12 299.33 333.47C288.13 323.82 276.99 314.01 266.05 304.02C255.11 294.03 244.32 283.86 233.94 273.21C246.05 281.84 257.75 290.95 269.3 300.21C280.85 309.47 292.25 318.95 303.49 328.6C314.73 338.25 325.82 348.07 336.76 358.06C347.7 368.05 358.5 378.2 368.88 388.85Z" fill="#2D2D2D"/>
<path d="M886.21 955.16C874.6 944.16 846.6 873.6 806.64 819.01C765.26 762.48 712.27 721.83 723.64 709.81C735.37 697.45 783.11 744.27 845.44 778.9C902.32 810.51 974.17 829.15 985.44 839.9C1009.08 862.34 1023.17 933.99 1000.73 957.63C978.29 981.27 909.88 977.59 886.21 955.16Z" fill="url(#paint5_radial_693_4378)"/>
<path d="M778.641 758.61C790.751 767.24 802.441 776.36 813.991 785.61C825.541 794.86 836.991 804.34 848.191 813.99C859.391 823.64 870.531 833.45 881.471 843.44C892.411 853.43 903.201 863.6 913.581 874.25C901.471 865.62 889.771 856.51 878.221 847.25C866.671 837.99 855.221 828.51 844.031 818.86C832.841 809.21 821.701 799.4 810.761 789.4C799.821 779.4 789.021 769.25 778.641 758.61Z" fill="#2D2D2D"/>
<path d="M192.33 886.21C203.33 874.59 273.89 846.59 328.48 806.63C385.01 765.25 425.65 712.27 437.68 723.68C450.04 735.41 403.22 783.15 368.58 845.49C336.98 902.37 318.34 974.22 307.64 985.49C285.2 1009.13 213.54 1023.21 189.9 1000.78C166.26 978.35 169.9 909.85 192.33 886.21Z" fill="url(#paint6_radial_693_4378)"/>
<path d="M388.88 778.61C380.25 790.71 371.13 802.41 361.88 813.96C352.63 825.51 343.14 836.96 333.5 848.16C323.86 859.36 314.04 870.49 304.05 881.44C294.06 892.39 283.88 903.17 273.23 913.55C281.86 901.44 290.97 889.74 300.23 878.19C309.49 866.64 318.96 855.19 328.61 844C338.26 832.81 348.08 821.72 358.07 810.72C368.06 799.72 378.21 788.99 388.88 778.61Z" fill="#2D2D2D"/>
<path d="M955.21 261.25C944.21 272.86 873.65 300.86 819.06 340.82C762.53 382.2 721.89 435.18 709.86 423.77C697.5 412.04 744.32 364.3 778.96 301.97C810.56 245.08 829.2 173.23 839.96 161.97C862.39 138.34 934.05 124.25 957.69 146.69C981.33 169.13 977.62 237.61 955.21 261.25Z" fill="url(#paint7_radial_693_4378)"/>
<path d="M758.641 368.85C767.281 356.74 776.391 345.04 785.641 333.49C794.891 321.94 804.381 310.54 814.021 299.29C823.661 288.04 833.481 276.96 843.471 266.01C853.461 255.06 863.641 244.28 874.291 233.9C865.661 246.01 856.551 257.71 847.291 269.26C838.031 280.81 828.561 292.26 818.911 303.45C809.261 314.64 799.441 325.79 789.451 336.73C779.461 347.67 769.281 358.46 758.641 368.85Z" fill="#2D2D2D"/>
<path d="M432.91 101.19C439.37 115.84 437.91 191.72 453.71 257.5C470.03 325.63 503.2 383.59 488.02 390.28C472.43 397.14 446.49 335.51 402.38 279.48C362.12 228.36 303.05 183.41 296.78 169.17C283.65 139.35 298.34 67.8103 328.21 54.7203C358.08 41.6303 419.78 71.3603 432.91 101.19Z" fill="url(#paint8_radial_693_4378)"/>
<path d="M456.21 324.05C448.38 311.4 441.11 298.48 434.05 285.45C426.99 272.42 420.11 259.3 413.47 246.06C406.83 232.82 400.38 219.49 394.15 206.06C387.92 192.63 381.9 179.06 376.44 165.23C384.28 177.87 391.54 190.8 398.61 203.82C405.68 216.84 412.55 229.97 419.18 243.21C425.81 256.45 432.26 269.8 438.49 283.21C444.72 296.62 450.75 310.22 456.21 324.05Z" fill="#2D2D2D"/>
<path d="M714.61 1046.27C708.15 1031.61 709.61 955.74 693.81 889.95C677.49 821.82 644.32 763.86 659.5 757.18C675.09 750.31 701.03 811.94 745.15 867.97C785.4 919.1 844.47 964.05 850.74 978.28C863.87 1008.1 849.18 1079.64 819.35 1092.78C789.52 1105.92 727.74 1076.09 714.61 1046.27Z" fill="url(#paint9_radial_693_4378)"/>
<path d="M691.3 823.41C699.13 836.05 706.4 848.97 713.47 862C720.54 875.03 727.4 888.15 734.04 901.39C740.68 914.63 747.13 927.97 753.36 941.39C759.59 954.81 765.61 968.39 771.07 982.22C763.24 969.58 755.97 956.66 748.9 943.63C741.83 930.6 734.96 917.48 728.33 904.24C721.7 891 715.25 877.66 709.02 864.24C702.79 850.82 696.77 837.24 691.3 823.41Z" fill="#2D2D2D"/>
<path d="M101.21 714.57C115.86 708.12 191.74 709.57 257.53 693.78C325.66 677.45 383.62 644.29 390.3 659.46C397.17 675.06 335.54 701 279.51 745.11C228.39 785.37 183.44 844.44 169.21 850.72C139.38 863.86 67.8504 849.16 54.7104 819.34C41.5704 789.52 71.3904 727.72 101.21 714.57Z" fill="url(#paint10_radial_693_4378)"/>
<path d="M324.08 691.27C311.44 699.1 298.51 706.36 285.49 713.43C272.47 720.5 259.34 727.37 246.1 734.01C232.86 740.65 219.52 747.09 206.1 753.33C192.68 759.57 179.1 765.58 165.27 771.04C177.91 763.2 190.83 755.93 203.86 748.87C216.89 741.81 230.01 734.93 243.25 728.3C256.49 721.67 269.83 715.22 283.25 708.99C296.67 702.76 310.21 696.72 324.08 691.27Z" fill="#2D2D2D"/>
<path d="M1046.3 432.88C1031.65 439.33 955.77 437.88 889.98 453.67C821.85 470 763.89 503.16 757.21 487.99C750.34 472.4 811.97 446.45 868 402.34C919.13 362.09 964.08 303.02 978.31 296.75C1008.14 283.62 1079.67 298.31 1092.81 328.13C1105.95 357.95 1076.13 419.72 1046.3 432.88Z" fill="url(#paint11_radial_693_4378)"/>
<path d="M823.44 456.19C836.08 448.36 849.01 441.09 862.03 434.02C875.05 426.95 888.18 420.09 901.42 413.44C914.66 406.79 928 400.36 941.42 394.13C954.84 387.9 968.42 381.87 982.24 376.41C969.6 384.25 956.68 391.52 943.66 398.59C930.64 405.66 917.51 412.52 904.26 419.16C891.01 425.8 877.68 432.23 864.26 438.46C850.84 444.69 837.27 450.72 823.44 456.19Z" fill="#2D2D2D"/>
<path d="M140.03 339.18C154.95 344.98 207.6 399.64 265.27 435.01C324.98 471.64 389.42 489.18 383.42 504.63C377.25 520.52 315.32 495.28 244.51 486.85C179.9 479.16 106.34 489.15 91.8503 483.52C61.4703 471.72 21.2803 410.72 33.0803 380.36C44.8803 350 109.65 327.38 140.03 339.18Z" fill="url(#paint12_radial_693_4378)"/>
<path d="M314.1 480.29C299.62 476.89 285.34 472.88 271.1 468.67C256.86 464.46 242.76 460.03 228.7 455.37C214.64 450.71 200.7 445.83 186.7 440.73C172.7 435.63 158.95 430.31 145.31 424.38C159.79 427.78 174.06 431.78 188.31 435.99C202.56 440.2 216.66 444.63 230.71 449.3C244.76 453.97 258.71 458.85 272.71 463.95C286.71 469.05 300.45 474.37 314.1 480.29Z" fill="#2D2D2D"/>
<path d="M1007.49 808.27C992.57 802.47 939.92 747.81 882.26 712.44C822.54 675.81 758.1 658.28 764.1 642.82C770.27 626.94 832.2 652.17 903.01 660.6C967.63 668.29 1041.18 658.3 1055.67 663.94C1086.05 675.72 1126.21 736.72 1114.44 767.09C1102.67 797.46 1037.87 820.07 1007.49 808.27Z" fill="url(#paint13_radial_693_4378)"/>
<path d="M833.43 667.16C847.9 670.57 862.18 674.57 876.43 678.78C890.68 682.99 904.77 687.42 918.83 692.08C932.89 696.74 946.83 701.62 960.83 706.72C974.83 711.82 988.58 717.15 1002.22 723.07C987.74 719.67 973.47 715.67 959.22 711.46C944.97 707.25 930.87 702.82 916.82 698.15C902.77 693.48 888.82 688.6 874.82 683.5C860.82 678.4 847.07 673.08 833.43 667.16Z" fill="#2D2D2D"/>
<path d="M339.21 1007.46C345.01 992.53 399.67 939.89 435.04 882.22C471.67 822.5 489.2 758.06 504.66 764.07C520.54 770.24 495.3 832.16 486.88 902.98C479.19 967.59 489.17 1041.15 483.54 1055.64C471.74 1086.02 410.77 1126.21 380.39 1114.41C350.01 1102.61 327.41 1037.83 339.21 1007.46Z" fill="url(#paint14_radial_693_4378)"/>
<path d="M480.32 833.39C476.92 847.87 472.92 862.15 468.71 876.39C464.5 890.63 460.07 904.74 455.41 918.8C450.75 932.86 445.86 946.8 440.76 960.8C435.66 974.8 430.34 988.56 424.42 1002.2C427.81 987.72 431.81 973.44 436.03 959.2C440.25 944.96 444.66 930.85 449.34 916.8C454.02 902.75 458.89 888.8 463.99 874.8C469.09 860.8 474.41 847.04 480.32 833.39Z" fill="#2D2D2D"/>
<path d="M808.3 140C802.51 154.92 747.84 207.57 712.47 265.23C675.84 324.95 658.31 389.39 642.85 383.38C626.97 377.21 652.21 315.29 660.63 244.48C668.32 179.86 658.34 106.31 663.97 91.8102C675.77 61.4302 736.74 21.2402 767.12 33.0402C797.5 44.8402 820.11 109.62 808.3 140Z" fill="url(#paint15_radial_693_4378)"/>
<path d="M667.21 314.06C670.61 299.59 674.61 285.31 678.82 271.06C683.03 256.81 687.46 242.72 692.13 228.66C696.8 214.6 701.67 200.61 706.77 186.66C711.87 172.71 717.19 158.9 723.11 145.26C719.72 159.74 715.72 174.02 711.5 188.26C707.28 202.5 702.87 216.6 698.19 230.66C693.51 244.72 688.65 258.66 683.54 272.61C678.43 286.56 673.11 300.42 667.21 314.06Z" fill="#2D2D2D"/>
<path d="M753.633 749.016C852.306 650.342 852.306 490.361 753.633 391.687C654.959 293.013 494.977 293.013 396.303 391.687C297.63 490.361 297.63 650.342 396.303 749.016C494.977 847.69 654.959 847.69 753.633 749.016Z" fill="url(#paint16_radial_693_4378)" stroke="url(#paint17_linear_693_4378)" stroke-width="6.33" stroke-miterlimit="10"/>
<g style="mix-blend-mode:screen">
<path d="M741.655 737.038C833.713 644.98 833.713 495.724 741.655 403.665C649.596 311.607 500.34 311.607 408.282 403.665C316.224 495.724 316.224 644.98 408.282 737.038C500.34 829.096 649.596 829.096 741.655 737.038Z" fill="url(#paint18_linear_693_4378)"/>
</g>
<path d="M439 552.46L452.14 492.12C452.498 490.49 453.408 489.034 454.716 487.999C456.025 486.963 457.652 486.412 459.32 486.44L487.93 486.93L502.34 420.81C504.081 412.927 508.871 406.054 515.663 401.692C522.455 397.33 530.698 395.834 538.59 397.53C546.471 399.273 553.342 404.063 557.704 410.855C562.066 417.646 563.563 425.888 561.87 433.78L548.72 494.11C548.366 495.742 547.457 497.202 546.148 498.239C544.839 499.277 543.21 499.828 541.54 499.8L512.93 499.31L498.52 565.43C490.73 539.26 457.21 531.86 439.12 552.31L439 552.46Z" fill="#2A2B2D"/>
<path d="M555.03 588.18L568.21 527.84C568.568 526.21 569.478 524.754 570.787 523.719C572.095 522.684 573.722 522.133 575.39 522.16L604 522.65L618.41 456.53C620.151 448.648 624.941 441.775 631.733 437.413C638.525 433.051 646.768 431.554 654.66 433.25C662.541 434.994 669.413 439.784 673.774 446.575C678.136 453.367 679.634 461.608 677.94 469.5L664.79 529.83C664.437 531.463 663.528 532.922 662.218 533.96C660.909 534.998 659.281 535.549 657.61 535.52L629 535.03L614.59 601.15C606.8 574.98 573.28 567.58 555.19 588.03L555.03 588.18Z" fill="#2A2B2D"/>
<path d="M381.79 506.95C382.057 506.707 382.337 506.48 382.63 506.27C382.912 506.036 383.209 505.822 383.52 505.63L384.52 505.12C384.844 504.975 385.178 504.854 385.52 504.76C386.97 504.34 388.505 504.309 389.97 504.67C391.462 505.046 392.849 505.754 394.03 506.74C395.23 507.759 396.172 509.047 396.78 510.5C397.39 511.997 397.604 513.626 397.4 515.23L397.22 516.42L397.01 517.48L396.58 519.58L395.72 523.79C395.47 525.19 395.28 526.61 395.05 528.02C393.288 539.261 392.685 550.654 393.25 562.02C394.354 584.482 400.109 606.47 410.151 626.593C420.193 646.715 434.304 664.533 451.59 678.92C460.151 686.017 469.428 692.204 479.27 697.38C480.47 698.07 481.74 698.63 482.99 699.25L486.73 701.07C489.26 702.21 491.83 703.27 494.38 704.37C496.93 705.47 499.57 706.37 502.2 707.25C504.83 708.13 507.48 708.97 510.2 709.71C520.882 712.761 531.856 714.675 542.94 715.42C554.031 716.19 565.171 715.798 576.18 714.25C598.338 711.071 619.608 703.375 638.67 691.64C639.89 690.95 641.04 690.15 642.21 689.38L645.71 687.05C647.99 685.43 650.24 683.76 652.49 682.05C654.74 680.34 656.89 678.56 659 676.7L662.15 673.91L663.74 672.52L665.25 671.05C673.444 663.278 680.795 654.664 687.18 645.35C693.655 635.995 699.144 625.995 703.56 615.51L704.05 614.43C704.62 613.309 705.377 612.294 706.29 611.43C707.507 610.267 709.001 609.434 710.63 609.01C712.145 608.622 713.708 608.457 715.27 608.52C716.825 608.603 718.355 608.941 719.8 609.52C722.571 610.71 724.983 612.603 726.8 615.01C728.588 617.307 730.067 619.828 731.2 622.51C729.781 620.021 728.069 617.711 726.1 615.63C724.214 613.59 721.829 612.077 719.18 611.24C717.9 610.87 716.571 610.702 715.24 610.74C713.913 610.804 712.602 611.064 711.35 611.51C710.194 611.906 709.161 612.595 708.35 613.51C707.959 613.961 707.623 614.458 707.35 614.99C707.213 615.253 707.089 615.523 706.98 615.8L706.66 616.73C702.99 627.848 698.114 638.531 692.12 648.59C686.045 658.69 678.9 668.108 670.81 676.68C662.67 685.288 653.59 692.956 643.74 699.54L640.02 701.97C639.39 702.38 638.78 702.8 638.15 703.18L636.23 704.31L632.39 706.57C631.12 707.34 629.78 707.98 628.47 708.69L624.47 710.75L620.47 712.61C619.11 713.22 617.79 713.9 616.4 714.44L612.27 716.11C601.185 720.519 589.644 723.686 577.86 725.55C566.054 727.412 554.082 727.998 542.15 727.3C530.211 726.556 518.384 724.544 506.87 721.3C483.784 714.754 462.402 703.257 444.21 687.61C435.152 679.845 426.988 671.094 419.87 661.52C398.464 632.828 387.042 597.916 387.35 562.12C387.562 550.41 389.047 538.758 391.78 527.37C392.13 525.96 392.45 524.54 392.83 523.14L394.07 518.95L394.69 516.86L394.99 515.86L395.21 514.93C395.487 513.677 395.432 512.374 395.05 511.15C394.653 509.887 393.968 508.733 393.05 507.78C392.094 506.815 390.936 506.074 389.66 505.61C388.34 505.163 386.93 505.052 385.556 505.286C384.182 505.52 382.888 506.092 381.79 506.95Z" fill="#2A2B2D"/>
<path d="M515.38 736.33C512.211 737.511 508.916 738.323 505.56 738.75C502.194 739.207 498.796 739.384 495.4 739.28C488.531 739.043 481.746 737.692 475.31 735.28C472.092 734.042 468.979 732.547 466 730.81C463.054 729.052 460.263 727.045 457.66 724.81C452.529 720.333 448.321 714.898 445.271 708.81C450.039 713.27 455.144 717.355 460.54 721.03C463.23 722.76 465.951 724.39 468.771 725.83C471.589 727.258 474.479 728.54 477.43 729.67C483.402 731.888 489.574 733.526 495.86 734.56C502.314 735.636 508.839 736.228 515.38 736.33Z" fill="#2A2B2D"/>
<path d="M462.71 653.9C466.424 652.532 470.3 651.651 474.24 651.28C478.197 650.86 482.185 650.82 486.15 651.16L489.15 651.49C490.15 651.62 491.15 651.8 492.15 651.96L492.52 652.02H492.67L493.01 652.12C493.932 652.472 494.698 653.143 495.17 654.01C495.552 654.722 495.812 655.492 495.94 656.29C496.116 657.388 496.213 658.498 496.23 659.61C496.23 661.61 496.23 663.56 496.36 665.25C496.36 665.67 496.44 666.06 496.49 666.4C496.529 666.621 496.586 666.838 496.66 667.05C496.66 667.05 496.66 667.05 496.51 666.84C496.298 666.615 496.028 666.453 495.73 666.37C495.17 666.26 495.24 666.37 495.42 666.28C496.08 666.014 496.711 665.679 497.3 665.28C498.03 664.82 498.78 664.28 499.55 663.74C501.09 662.63 502.66 661.45 504.55 660.33C505.595 659.669 506.725 659.154 507.91 658.8C508.891 658.523 509.929 658.523 510.91 658.8C511.229 658.899 511.537 659.03 511.83 659.19L512.16 659.39L512.8 659.78C514.524 660.829 516.193 661.968 517.8 663.19C524.151 668.028 529.31 674.258 532.88 681.4C529.95 678.77 527.11 676.19 524.11 673.86C521.163 671.536 518.081 669.389 514.88 667.43C513.28 666.43 511.67 665.56 510.03 664.7L509.41 664.38L509.1 664.22C509.182 664.27 509.269 664.31 509.36 664.34C509.73 664.43 509.68 664.34 509.49 664.43C508.84 664.676 508.219 664.995 507.64 665.38C506.21 666.3 504.7 667.47 503.12 668.62C502.32 669.2 501.5 669.79 500.6 670.38C499.589 671.065 498.498 671.623 497.35 672.04C496.338 672.4 495.243 672.456 494.2 672.2C493.435 671.983 492.743 671.561 492.2 670.98C491.817 670.564 491.506 670.088 491.28 669.57C490.981 668.887 490.776 668.168 490.67 667.43C490.576 666.857 490.512 666.28 490.48 665.7C490.34 663.53 490.48 661.59 490.48 659.7C490.493 658.881 490.45 658.063 490.35 657.25C490.35 656.94 490.21 656.66 490.27 656.78C490.48 657.093 490.79 657.326 491.15 657.44L491.31 657.49H491.38L491.04 657.41C489.23 656.96 487.42 656.54 485.58 656.17C478.039 654.739 470.385 653.979 462.71 653.9Z" fill="#2A2B2D"/>
<path d="M622.51 342.32C611.374 340.401 600.09 339.464 588.79 339.52C583.17 339.52 577.55 339.66 571.95 340.11L567.75 340.44C566.35 340.54 564.96 340.72 563.57 340.86L559.39 341.31L555.23 341.91C544.152 343.515 533.209 345.938 522.49 349.16L518.49 350.39L516.49 351L514.49 351.69C511.86 352.64 509.21 353.53 506.6 354.51L498.85 357.68C497.54 358.17 496.29 358.81 495.03 359.39L491.23 361.16C481.098 365.882 471.348 371.385 462.07 377.62L458.56 379.91L455.15 382.37C452.89 384.02 450.6 385.62 448.37 387.31L441.82 392.58C440.73 393.46 439.6 394.3 438.54 395.21L435.38 397.99C418.471 412.97 403.064 429.566 389.38 447.54C401.108 427.944 415.446 410.033 432 394.3L435.09 391.3C436.09 390.3 437.25 389.41 438.32 388.46L444.87 382.89C447.1 381.1 449.41 379.39 451.68 377.64L455.1 375.03L458.65 372.59C461.02 370.97 463.4 369.35 465.81 367.8L473.21 363.38L475.06 362.27C475.69 361.92 476.33 361.59 476.96 361.27L480.77 359.27L484.58 357.27C485.85 356.6 487.18 356.03 488.47 355.41C509.298 345.566 531.651 339.343 554.57 337.01C565.962 335.827 577.435 335.633 588.86 336.43C600.29 337.32 611.66 338.92 622.51 342.32Z" fill="white"/>
<path d="M782.84 468.98C788.105 476.398 792.497 484.397 795.93 492.82C799.462 501.214 802.204 509.918 804.12 518.82C804.6 521.06 805 523.31 805.39 525.56C805.78 527.81 806.08 530.08 806.29 532.36C806.79 536.916 807.01 541.498 806.95 546.08C806.928 555.226 805.436 564.309 802.53 572.98C802.63 568.43 802.85 563.98 802.69 559.52C802.53 555.06 802.38 550.66 801.92 546.27C801.46 541.88 800.99 537.5 800.28 533.15C799.57 528.8 798.81 524.46 797.87 520.15C796.04 511.52 793.77 502.96 791.22 494.45C788.67 485.94 785.86 477.53 782.84 468.98Z" fill="white"/>
<path d="M804.67 597.29C805.627 602.984 805.989 608.761 805.75 614.53C805.579 620.283 804.957 626.014 803.89 631.67C803.39 634.51 802.68 637.32 801.95 640.11C801.155 642.909 800.211 645.663 799.12 648.36C798.602 649.727 798.004 651.063 797.33 652.36C796.699 653.68 795.998 654.965 795.23 656.21C794.41 657.45 793.65 658.69 792.75 659.85C791.85 661.01 790.82 662.07 789.75 663.09C791.612 657.781 793.125 652.356 794.28 646.85C794.91 644.15 795.42 641.41 796 638.7L796.78 634.6C797.09 633.24 797.31 631.86 797.56 630.49L800.72 613.96C801.89 608.43 803.08 602.89 804.67 597.29Z" fill="white"/>
<path d="M421.06 730.5C417.69 728.311 414.485 725.877 411.47 723.22C408.47 720.6 405.54 717.79 402.73 714.9C399.92 712.01 397.3 708.95 394.73 705.9C393.45 704.34 392.197 702.757 390.97 701.15C389.78 699.53 388.55 697.93 387.39 696.27C386.23 694.61 385.05 692.98 383.94 691.27C382.83 689.56 381.75 687.88 380.69 686.15L377.6 680.94L374.66 675.64C370.888 668.5 367.516 661.155 364.56 653.64C361.669 646.107 359.169 638.431 357.07 630.64C350.942 607.28 348.399 583.124 349.53 559C351.233 574.803 353.737 590.51 357.03 606.06C357.83 609.93 358.83 613.76 359.75 617.59C360.18 619.52 360.75 621.41 361.27 623.31C361.79 625.21 362.27 627.11 362.89 629C364.09 632.75 365.16 636.54 366.51 640.24C367.86 643.94 369.14 647.66 370.51 651.34C376.177 666.031 383.208 680.16 391.51 693.54C395.68 700.244 400.22 706.711 405.11 712.91C407.53 716.04 410.11 719.06 412.74 722.02C415.37 724.98 418.1 727.8 421.06 730.5Z" fill="white"/>
</g>
<defs>
<radialGradient id="paint0_radial_693_4378" cx="0" cy="0" r="1" gradientUnits="userSpaceOnUse" gradientTransform="translate(531.181 53.0504) rotate(-17.1) scale(156.6 156.6)">
<stop offset="0.28" stop-color="white"/>
<stop offset="0.96" stop-color="#D0E8E8"/>
</radialGradient>
<radialGradient id="paint1_radial_693_4378" cx="0" cy="0" r="1" gradientUnits="userSpaceOnUse" gradientTransform="translate(616.109 1094.38) rotate(162.9) scale(156.6 156.6)">
<stop offset="0.28" stop-color="white"/>
<stop offset="0.96" stop-color="#D0E8E8"/>
</radialGradient>
<radialGradient id="paint2_radial_693_4378" cx="0" cy="0" r="1" gradientUnits="userSpaceOnUse" gradientTransform="translate(52.9775 616.186) rotate(-107.1) scale(156.6 156.6)">
<stop offset="0.28" stop-color="white"/>
<stop offset="0.96" stop-color="#D0E8E8"/>
</radialGradient>
<radialGradient id="paint3_radial_693_4378" cx="0" cy="0" r="1" gradientUnits="userSpaceOnUse" gradientTransform="translate(1094.31 531.247) rotate(72.9) scale(156.6 156.6)">
<stop offset="0.28" stop-color="white"/>
<stop offset="0.96" stop-color="#D0E8E8"/>
</radialGradient>
<radialGradient id="paint4_radial_693_4378" cx="0" cy="0" r="1" gradientUnits="userSpaceOnUse" gradientTransform="translate(175.457 235.589) rotate(-62.1) scale(156.6 156.6)">
<stop offset="0.28" stop-color="white"/>
<stop offset="0.96" stop-color="#D0E8E8"/>
</radialGradient>
<radialGradient id="paint5_radial_693_4378" cx="0" cy="0" r="1" gradientUnits="userSpaceOnUse" gradientTransform="translate(971.834 911.864) rotate(117.9) scale(156.6 156.6)">
<stop offset="0.28" stop-color="white"/>
<stop offset="0.96" stop-color="#D0E8E8"/>
</radialGradient>
<radialGradient id="paint6_radial_693_4378" cx="0" cy="0" r="1" gradientUnits="userSpaceOnUse" gradientTransform="translate(235.51 971.913) rotate(-152.1) scale(156.6 156.6)">
<stop offset="0.28" stop-color="white"/>
<stop offset="0.96" stop-color="#D0E8E8"/>
</radialGradient>
<radialGradient id="paint7_radial_693_4378" cx="0" cy="0" r="1" gradientUnits="userSpaceOnUse" gradientTransform="translate(911.785 175.525) rotate(27.9) scale(156.6 156.6)">
<stop offset="0.28" stop-color="white"/>
<stop offset="0.96" stop-color="#D0E8E8"/>
</radialGradient>
<radialGradient id="paint8_radial_693_4378" cx="0" cy="0" r="1" gradientUnits="userSpaceOnUse" gradientTransform="translate(337.057 108.054) rotate(-39.37) scale(156.6 156.6)">
<stop offset="0.28" stop-color="white"/>
<stop offset="0.96" stop-color="#D0E8E8"/>
</radialGradient>
<radialGradient id="paint9_radial_693_4378" cx="0" cy="0" r="1" gradientUnits="userSpaceOnUse" gradientTransform="translate(810.409 1039.38) rotate(140.63) scale(156.6 156.6)">
<stop offset="0.28" stop-color="white"/>
<stop offset="0.96" stop-color="#D0E8E8"/>
</radialGradient>
<radialGradient id="paint10_radial_693_4378" cx="0" cy="0" r="1" gradientUnits="userSpaceOnUse" gradientTransform="translate(108.072 810.389) rotate(-129.37) scale(156.6 156.6)">
<stop offset="0.28" stop-color="white"/>
<stop offset="0.96" stop-color="#D0E8E8"/>
</radialGradient>
<radialGradient id="paint11_radial_693_4378" cx="0" cy="0" r="1" gradientUnits="userSpaceOnUse" gradientTransform="translate(1039.39 337.038) rotate(50.63) scale(156.6 156.6)">
<stop offset="0.28" stop-color="white"/>
<stop offset="0.96" stop-color="#D0E8E8"/>
</radialGradient>
<radialGradient id="paint12_radial_693_4378" cx="0" cy="0" r="1" gradientUnits="userSpaceOnUse" gradientTransform="translate(94.2703 400.051) rotate(-84.2894) scale(157.381 157.381)">
<stop offset="0.28" stop-color="white"/>
<stop offset="0.96" stop-color="#D0E8E8"/>
</radialGradient>
<radialGradient id="paint13_radial_693_4378" cx="0" cy="0" r="1" gradientUnits="userSpaceOnUse" gradientTransform="translate(1059.27 719.465) rotate(95.7106) scale(157.381 157.381)">
<stop offset="0.28" stop-color="white"/>
<stop offset="0.96" stop-color="#D0E8E8"/>
</radialGradient>
<radialGradient id="paint14_radial_693_4378" cx="0" cy="0" r="1" gradientUnits="userSpaceOnUse" gradientTransform="translate(416.974 1041.79) rotate(-174.289) scale(157.381 157.381)">
<stop offset="0.28" stop-color="white"/>
<stop offset="0.96" stop-color="#D0E8E8"/>
</radialGradient>
<radialGradient id="paint15_radial_693_4378" cx="0" cy="0" r="1" gradientUnits="userSpaceOnUse" gradientTransform="translate(736.389 76.7772) rotate(5.71059) scale(157.381 157.381)">
<stop offset="0.28" stop-color="white"/>
<stop offset="0.96" stop-color="#D0E8E8"/>
</radialGradient>
<radialGradient id="paint16_radial_693_4378" cx="0" cy="0" r="1" gradientUnits="userSpaceOnUse" gradientTransform="translate(577.31 572.304) rotate(6.07246) scale(253.409 253.409)">
<stop stop-color="#DC6C58"/>
<stop offset="0.12" stop-color="#BA707D"/>
<stop offset="0.32" stop-color="#8376B9"/>
<stop offset="0.55" stop-color="#DCAF6C"/>
<stop offset="0.71" stop-color="#DC6C58"/>
<stop offset="0.77" stop-color="#DC9280"/>
<stop offset="0.9" stop-color="#6E5BDC"/>
</radialGradient>
<linearGradient id="paint17_linear_693_4378" x1="322.809" y1="526.808" x2="827.121" y2="613.918" gradientUnits="userSpaceOnUse">
<stop stop-color="#DCAF6C"/>
<stop offset="0.05" stop-color="#DCAF6C"/>
<stop offset="0.16" stop-color="#847CE2"/>
<stop offset="0.29" stop-color="#DC6C58"/>
<stop offset="0.39" stop-color="#DC6C58"/>
<stop offset="0.53" stop-color="#DCAF6C"/>
<stop offset="0.71" stop-color="#DC6C58"/>
<stop offset="0.84" stop-color="#DC9280"/>
<stop offset="0.9" stop-color="#6E5BDC"/>
<stop offset="0.99" stop-color="#DC9280"/>
</linearGradient>
<linearGradient id="paint18_linear_693_4378" x1="342.223" y1="547.294" x2="812.408" y2="597.314" gradientUnits="userSpaceOnUse">
<stop stop-color="#4858DC"/>
<stop offset="0.05" stop-color="#4E66DC" stop-opacity="0.86"/>
<stop offset="0.13" stop-color="#567ADC" stop-opacity="0.66"/>
<stop offset="0.22" stop-color="#5D8CDC" stop-opacity="0.48"/>
<stop offset="0.31" stop-color="#639BDC" stop-opacity="0.33"/>
<stop offset="0.41" stop-color="#68A7DC" stop-opacity="0.21"/>
<stop offset="0.51" stop-color="#6CB0DC" stop-opacity="0.12"/>
<stop offset="0.63" stop-color="#6FB7DC" stop-opacity="0.05"/>
<stop offset="0.77" stop-color="#71BBDC" stop-opacity="0.01"/>
<stop offset="1" stop-color="#71BCDC" stop-opacity="0"/>
</linearGradient>
<clipPath id="clip0_693_4378">
<rect width="1148" height="1148" fill="white"/>
</clipPath>
</defs>
</svg>
