<svg width="1704" height="1364" viewBox="0 0 1704 1364" fill="none" xmlns="http://www.w3.org/2000/svg">
<g clip-path="url(#clip0_693_4300)">
<path d="M294.04 1103.2C294.04 1103.2 294.04 1103.13 294.04 1103.1C281.411 1102.84 269.387 1097.64 260.546 1088.62C251.705 1079.6 246.753 1067.47 246.75 1054.84C246.75 1054.54 246.75 1054.24 246.75 1053.93C246.41 1053.93 246.08 1053.93 245.75 1053.93C245.42 1053.93 245.07 1053.93 244.75 1053.93C244.75 1054.24 244.75 1054.54 244.75 1054.84C244.747 1067.47 239.795 1079.6 230.954 1088.62C222.113 1097.64 210.089 1102.84 197.46 1103.1V1103.2C209.907 1103.46 221.772 1108.52 230.576 1117.32C239.379 1126.13 244.44 1137.99 244.7 1150.44C245.04 1150.44 245.37 1150.44 245.7 1150.44C246.03 1150.44 246.37 1150.44 246.7 1150.44C246.959 1137.97 252.033 1126.09 260.858 1117.29C269.683 1108.48 281.575 1103.43 294.04 1103.2Z" fill="url(#paint0_linear_693_4300)" stroke="url(#paint1_linear_693_4300)" stroke-width="2.98" stroke-miterlimit="10"/>
<path d="M545.14 872.96C545.135 872.926 545.135 872.893 545.14 872.86C532.511 872.603 520.486 867.408 511.643 858.388C502.8 849.367 497.845 837.241 497.84 824.61C497.84 824.3 497.84 824 497.89 823.69C497.55 823.69 497.22 823.64 496.89 823.64C496.56 823.64 496.21 823.64 495.89 823.69C495.89 824 495.89 824.3 495.89 824.61C495.885 837.241 490.929 849.367 482.087 858.388C473.244 867.408 461.219 872.603 448.59 872.86C448.594 872.893 448.594 872.926 448.59 872.96C461.037 873.22 472.902 878.281 481.705 887.084C490.509 895.888 495.569 907.752 495.83 920.2C496.17 920.2 496.5 920.2 496.83 920.2C497.16 920.2 497.5 920.2 497.83 920.2C498.096 907.742 503.168 895.87 511.985 887.066C520.802 878.262 532.682 873.207 545.14 872.96Z" fill="url(#paint2_linear_693_4300)" stroke="url(#paint3_linear_693_4300)" stroke-width="2.98" stroke-miterlimit="10"/>
<path d="M55.2106 1246.11C51.6011 1246.04 48.164 1244.55 45.6365 1241.97C43.109 1239.4 41.6925 1235.93 41.6906 1232.32C41.6856 1232.23 41.6856 1232.15 41.6906 1232.06H41.1106C41.1106 1232.15 41.1106 1232.23 41.1106 1232.32C41.1088 1235.93 39.6936 1239.39 37.1682 1241.97C34.6429 1244.55 31.2084 1246.03 27.6006 1246.11C31.1578 1246.18 34.5487 1247.63 37.0646 1250.15C39.5804 1252.66 41.0265 1256.05 41.1006 1259.61H41.6806C41.7524 1256.05 43.2019 1252.65 45.7247 1250.13C48.2475 1247.62 51.6474 1246.17 55.2106 1246.11Z" fill="white"/>
<path d="M549.591 1232.64C549.591 1232.64 549.591 1232.64 549.591 1232.58C541.805 1232.42 534.391 1229.22 528.94 1223.65C523.489 1218.09 520.434 1210.62 520.431 1202.83C520.431 1202.64 520.431 1202.45 520.431 1202.26C520.221 1202.26 520.021 1202.26 519.811 1202.26H519.181C519.181 1202.45 519.181 1202.64 519.181 1202.83C519.177 1210.62 516.122 1218.09 510.671 1223.65C505.22 1229.22 497.806 1232.42 490.021 1232.58V1232.64C497.696 1232.8 505.012 1235.92 510.441 1241.35C515.869 1246.78 518.99 1254.09 519.151 1261.77H519.781H520.411C520.572 1254.09 523.699 1246.76 529.139 1241.33C534.578 1235.9 541.906 1232.79 549.591 1232.64Z" fill="white"/>
<path d="M947.09 14.8098C943.481 14.7365 940.044 13.2517 937.516 10.6737C934.989 8.09579 933.572 4.63003 933.57 1.01978C933.57 0.929775 933.57 0.849766 933.57 0.759766H932.99C932.99 0.849766 932.99 0.929775 932.99 1.01978C932.991 4.62911 931.577 8.09487 929.051 10.6731C926.525 13.2513 923.089 14.7365 919.48 14.8098C923.038 14.8838 926.429 16.3299 928.944 18.8458C931.46 21.3616 932.906 24.7526 932.98 28.3098H933.56C933.632 24.7467 935.082 21.35 937.604 18.8328C940.127 16.3156 943.527 14.8737 947.09 14.8098Z" fill="white"/>
<path d="M245.791 1347.04C241.306 1346.95 237.036 1345.1 233.896 1341.9C230.756 1338.69 228.995 1334.39 228.991 1329.9C228.991 1329.79 228.991 1329.69 228.991 1329.58H228.631H228.271C228.271 1329.69 228.271 1329.79 228.271 1329.9C228.266 1334.39 226.506 1338.69 223.366 1341.9C220.225 1345.1 215.956 1346.95 211.471 1347.04C215.901 1347.12 220.128 1348.91 223.266 1352.04C226.404 1355.17 228.208 1359.39 228.301 1363.82H228.661H229.021C229.113 1359.4 230.909 1355.19 234.034 1352.06C237.159 1348.93 241.371 1347.13 245.791 1347.04Z" fill="white"/>
<path d="M818.08 1069.97C813.388 1069.86 808.923 1067.93 805.637 1064.58C802.352 1061.22 800.505 1056.72 800.49 1052.03C800.49 1051.91 800.49 1051.8 800.49 1051.69H800.11H799.74C799.74 1051.8 799.74 1051.91 799.74 1052.03C799.726 1056.72 797.88 1061.22 794.596 1064.57C791.313 1067.92 786.851 1069.86 782.16 1069.97C786.787 1070.07 791.197 1071.95 794.47 1075.22C797.742 1078.49 799.623 1082.9 799.72 1087.53H800.1H800.48C800.578 1082.9 802.464 1078.48 805.745 1075.21C809.026 1071.93 813.446 1070.06 818.08 1069.97Z" fill="white"/>
<path d="M1703.45 705.1C1698.75 705.009 1694.28 703.078 1690.99 699.724C1687.7 696.369 1685.86 691.858 1685.86 687.16C1685.86 687.05 1685.86 686.94 1685.86 686.82H1685.48H1685.1C1685.1 686.94 1685.1 687.05 1685.1 687.16C1685.1 691.857 1683.26 696.366 1679.97 699.72C1676.69 703.074 1672.22 705.006 1667.52 705.1C1672.17 705.185 1676.6 707.069 1679.88 710.355C1683.17 713.642 1685.05 718.075 1685.13 722.72H1685.51H1685.89C1685.97 718.083 1687.85 713.658 1691.12 710.373C1694.39 707.087 1698.81 705.198 1703.45 705.1Z" fill="white"/>
<path d="M1425.41 997.91C1423.04 997.86 1420.78 996.883 1419.12 995.188C1417.45 993.493 1416.52 991.214 1416.52 988.84C1416.52 988.78 1416.52 988.72 1416.52 988.67H1416.14C1416.14 988.67 1416.14 988.78 1416.14 988.84C1416.14 991.214 1415.21 993.493 1413.54 995.188C1411.88 996.883 1409.62 997.86 1407.25 997.91C1409.59 997.956 1411.82 998.905 1413.47 1000.56C1415.13 1002.21 1416.08 1004.44 1416.13 1006.78H1416.51C1416.56 1004.44 1417.52 1002.21 1419.18 1000.55C1420.83 998.901 1423.07 997.953 1425.41 997.91Z" fill="white"/>
<path d="M1637.01 847.12C1637.01 847.097 1637.01 847.073 1637.01 847.05C1627.96 846.865 1619.34 843.14 1613.01 836.676C1606.67 830.211 1603.12 821.522 1603.12 812.47C1603.12 812.25 1603.12 812.04 1603.12 811.82C1602.87 811.82 1602.64 811.82 1602.39 811.82C1602.14 811.82 1601.91 811.82 1601.67 811.82C1601.67 812.04 1601.67 812.25 1601.67 812.47C1601.67 821.522 1598.12 830.211 1591.78 836.676C1585.45 843.14 1576.83 846.865 1567.78 847.05V847.12C1576.7 847.307 1585.2 850.932 1591.5 857.238C1597.81 863.544 1601.43 872.044 1601.62 880.96C1601.87 880.96 1602.1 880.96 1602.35 880.96C1602.6 880.96 1602.84 880.96 1603.08 880.96C1603.27 872.029 1606.91 863.516 1613.23 857.207C1619.56 850.899 1628.08 847.284 1637.01 847.12Z" fill="white"/>
<path d="M432.36 492.41C428.57 492.334 424.962 490.775 422.308 488.068C419.655 485.361 418.17 481.721 418.17 477.93C418.17 477.84 418.17 477.75 418.17 477.66H417.87H417.56C417.56 477.75 417.56 477.84 417.56 477.93C417.561 481.722 416.074 485.364 413.419 488.071C410.763 490.779 407.152 492.337 403.36 492.41C407.095 492.487 410.656 494.004 413.299 496.645C415.941 499.285 417.461 502.845 417.54 506.58H417.85H418.15C418.23 502.84 419.754 499.276 422.403 496.634C425.052 493.993 428.62 492.479 432.36 492.41Z" fill="white"/>
<path d="M556.86 273.17C552.376 273.081 548.106 271.237 544.966 268.034C541.827 264.831 540.069 260.525 540.07 256.04C540.07 255.93 540.07 255.82 540.07 255.71H539.71H539.35C539.35 255.82 539.35 255.93 539.35 256.04C539.348 260.526 537.588 264.832 534.447 268.035C531.306 271.237 527.035 273.081 522.55 273.17C526.969 273.262 531.181 275.058 534.306 278.184C537.432 281.309 539.228 285.521 539.32 289.94H539.68H540.04C540.135 285.513 541.939 281.295 545.074 278.169C548.21 275.043 552.433 273.252 556.86 273.17Z" fill="white"/>
<path d="M586.3 24.1097C580.613 23.9946 575.197 21.6548 571.215 17.5923C567.233 13.5298 565.002 8.06837 565 2.37973C565 2.23973 565 2.10973 565 1.96973H564.55C564.39 1.96973 564.24 1.96973 564.09 1.96973C564.09 2.10973 564.09 2.23973 564.09 2.37973C564.091 8.06915 561.861 13.5321 557.878 17.5951C553.896 21.6581 548.478 23.9971 542.79 24.1097C548.395 24.2247 553.739 26.5025 557.703 30.4668C561.667 34.431 563.945 39.7746 564.06 45.3797H564.52H564.98C565.095 39.7661 567.38 34.4153 571.355 30.4498C575.33 26.4842 580.686 24.2119 586.3 24.1097Z" fill="white"/>
<path d="M121.55 992.36C121.546 992.317 121.546 992.273 121.55 992.23C105.777 991.908 90.7581 985.417 79.7151 974.15C68.6722 962.883 62.4848 947.736 62.4802 931.96C62.4802 931.58 62.5302 931.2 62.5402 930.82C62.1102 930.82 61.7002 930.75 61.2702 930.75C60.8402 930.75 60.4302 930.81 60.0002 930.82C60.0002 931.2 60.0602 931.58 60.0602 931.96C60.0557 947.736 53.8683 962.883 42.8253 974.15C31.7824 985.417 16.7635 991.908 0.990234 992.23C0.990234 992.23 0.990234 992.32 0.990234 992.36C16.5355 992.687 31.3533 999.008 42.3479 1010C53.3426 1021 59.6635 1035.81 59.9902 1051.36C60.4102 1051.36 60.8302 1051.43 61.2602 1051.43C61.6902 1051.43 62.1002 1051.37 62.5302 1051.36C62.8571 1035.81 69.1809 1020.99 80.1797 1010C91.1786 999 106.001 992.682 121.55 992.36Z" fill="white"/>
</g>
<defs>
<linearGradient id="paint0_linear_693_4300" x1="225.05" y1="1139.06" x2="267.35" y2="1065.79" gradientUnits="userSpaceOnUse">
<stop stop-color="#DCAF6C"/>
<stop offset="0.1" stop-color="#C6A28A"/>
<stop offset="0.3" stop-color="#8D81D6"/>
<stop offset="0.34" stop-color="#847CE2"/>
<stop offset="0.64" stop-color="#CBA582"/>
<stop offset="0.7" stop-color="#CF9879"/>
<stop offset="0.81" stop-color="#D97760"/>
<stop offset="0.84" stop-color="#DC6C58"/>
<stop offset="0.99" stop-color="#DC9280"/>
</linearGradient>
<linearGradient id="paint1_linear_693_4300" x1="196.01" y1="1102.19" x2="295.59" y2="1102.19" gradientUnits="userSpaceOnUse">
<stop stop-color="#DCAF6C"/>
<stop offset="0.05" stop-color="#DCAF6C"/>
<stop offset="0.16" stop-color="#847CE2"/>
<stop offset="0.29" stop-color="#DC6C58"/>
<stop offset="0.39" stop-color="#DC6C58"/>
<stop offset="0.53" stop-color="#DCAF6C"/>
<stop offset="0.71" stop-color="#DC6C58"/>
<stop offset="0.84" stop-color="#DC9280"/>
<stop offset="0.9" stop-color="#6E5BDC"/>
<stop offset="0.99" stop-color="#DC9280"/>
</linearGradient>
<linearGradient id="paint2_linear_693_4300" x1="476.15" y1="908.82" x2="518.45" y2="835.56" gradientUnits="userSpaceOnUse">
<stop stop-color="#DCAF6C"/>
<stop offset="0.1" stop-color="#C6A28A"/>
<stop offset="0.3" stop-color="#8D81D6"/>
<stop offset="0.34" stop-color="#847CE2"/>
<stop offset="0.64" stop-color="#CBA582"/>
<stop offset="0.7" stop-color="#CF9879"/>
<stop offset="0.81" stop-color="#D97760"/>
<stop offset="0.84" stop-color="#DC6C58"/>
<stop offset="0.99" stop-color="#DC9280"/>
</linearGradient>
<linearGradient id="paint3_linear_693_4300" x1="447.11" y1="871.95" x2="546.69" y2="871.95" gradientUnits="userSpaceOnUse">
<stop stop-color="#DCAF6C"/>
<stop offset="0.05" stop-color="#DCAF6C"/>
<stop offset="0.16" stop-color="#847CE2"/>
<stop offset="0.29" stop-color="#DC6C58"/>
<stop offset="0.39" stop-color="#DC6C58"/>
<stop offset="0.53" stop-color="#DCAF6C"/>
<stop offset="0.71" stop-color="#DC6C58"/>
<stop offset="0.84" stop-color="#DC9280"/>
<stop offset="0.9" stop-color="#6E5BDC"/>
<stop offset="0.99" stop-color="#DC9280"/>
</linearGradient>
<clipPath id="clip0_693_4300">
<rect width="1704" height="1364" fill="white"/>
</clipPath>
</defs>
</svg>
